<?xml version="1.0" standalone="no"?>
<!DOCTYPE svg PUBLIC "-//W3C//DTD SVG 1.1//EN" "http://www.w3.org/Graphics/SVG/1.1/DTD/svg11.dtd" >
<svg>
<metadata>
Created by FontForge 20120731 at Sat Aug 13 06:54:38 2016
 By www
(c) 1997, 2001, 2002 Adobe Systems Incorporated. All rights reserved.
</metadata>
<defs>
<font id="FloodW03-It" horiz-adv-x="500" >
  <font-face 
    font-family="FloodW03-It"
    font-weight="400"
    font-style="italic"
    font-stretch="normal"
    units-per-em="1000"
    panose-1="3 9 6 2 4 4 5 6 2 6"
    ascent="750"
    descent="-250"
    x-height="567"
    cap-height="631"
    bbox="-175 -304 1222 871"
    underline-thickness="50"
    underline-position="-125"
    slope="-30"
    unicode-range="U+000D-FB02"
  />
<missing-glyph horiz-adv-x="701" 
d="M201 700h500v-700h-500v700zM621 650h-340l170 -255zM651 95v510l-170 -255zM621 50l-170 255l-170 -255h340zM251 95l170 255l-170 255v-510z" />
    <glyph glyph-name=".notdef" horiz-adv-x="701" 
d="M201 700h500v-700h-500v700zM621 650h-340l170 -255zM651 95v510l-170 -255zM621 50l-170 255l-170 -255h340zM251 95l170 255l-170 255v-510z" />
    <glyph glyph-name="glyph1" horiz-adv-x="0" 
 />
    <glyph glyph-name="glyph1" horiz-adv-x="0" 
 />
    <glyph glyph-name="uni000D" unicode="&#xd;" horiz-adv-x="275" 
 />
    <glyph glyph-name="space" unicode=" " horiz-adv-x="275" 
 />
    <glyph glyph-name="exclam" unicode="!" horiz-adv-x="341" 
d="M228 532l-13 2l18 28l8 -6zM406 557q0 -17 -9.5 -31.5t-25.5 -32.5t-35.5 -41t-40.5 -56q-15 -23 -38.5 -60.5t-52 -79t-59.5 -80.5t-61 -66l-4 22q17 21 26 37t8 31l-31 -24q1 18 0.5 36t13.5 41q-2 3 -2.5 6t-2.5 6q10 16 16 32.5t6 38.5q22 30 30.5 49t14 36.5t14 38
t30.5 52.5l26 5q19 28 36.5 52.5t33 42.5t28 28.5t21.5 10.5q10 0 20.5 -10t19 -24.5t13.5 -30.5t5 -29zM23 -90q-5 10 -13.5 15t-15.5 -1q-7 12 -16.5 27.5t-24.5 25.5q-17 11 -22.5 28.5t-5.5 47.5q12 20 24 39t31 19q18 0 30 -14.5t20.5 -37t13.5 -50t9 -52.5z" />
    <glyph glyph-name="quotedbl" unicode="&#x22;" horiz-adv-x="360" 
d="M425 564q-9 -17 -18.5 -25.5t-26.5 -5.5q-17 -24 -30.5 -47.5t-23.5 -45.5l10 -10q5 11 17.5 33t22.5 38l13 -3q-17 -33 -37 -74.5t-31 -84.5l-55 16q-10 14 -17.5 30t-10.5 36q0 3 2.5 18t8 35t14 42.5t21.5 41t30.5 31t40.5 12.5t40.5 -11.5t29.5 -25.5zM209 479
q-5 -22 -13.5 -44.5t-19.5 -43.5l5 -11l-28 -39l-7 6q-25 -27 -59 -27q-5 9 -11 17.5t-6 18.5q0 22 5.5 53.5t14.5 66t20 68.5t22 61q9 5 22 9t25 4l3 -18q14 -7 22 -15.5t11.5 -22.5t4 -34t0.5 -49h-11z" />
    <glyph glyph-name="numbersign" unicode="#" horiz-adv-x="707" 
d="M672 372q-29 -9 -54 -14.5t-47.5 -11t-42.5 -12.5t-38 -18l-13 -37q35 7 71.5 19t59.5 19q5 -10 13 -18.5t15.5 -16.5t12.5 -15.5t5 -15.5q0 -10 -16.5 -17.5t-48 -16.5t-76.5 -21.5t-102 -31.5l6 -20l-17 -3q6 -8 4 -15.5t-5 -14.5q-11 -22 -22.5 -48t-22.5 -52
q-5 3 -4 9t3.5 12.5t3 12t-3.5 8.5l-50 -115l-6 6q11 25 16.5 44.5t11.5 36.5q-6 2 -10.5 -7t-9.5 -21t-11 -22.5t-15 -11.5q5 12 7 26.5t-1 28.5q15 17 25.5 42t14.5 53q-9 -2 -13.5 -13t-9.5 -25l-8 5l18 49q-25 -2 -48.5 -11.5t-41.5 -25.5t-29 -39.5t-12 -53.5
q-11 0 -11 -6.5t4 -12.5q-4 -5 -12 -18t-17 -29t-17.5 -33.5t-12.5 -31.5q-6 3 -11 7t-10 11l14 33l-12 8l-19 -20q2 10 6.5 20t8.5 19.5t5 18t-5 16.5q7 13 15 32t17 42l-89 -42q3 9 7.5 16t12.5 13q2 6 3 10t3 10q10 5 24 10.5t27 11.5t22.5 13t10.5 16l-79 -36q3 7 15 16
t27.5 18t32.5 17.5t32 15.5q2 6 -2 9t-10 3q5 16 10.5 31t10.5 29l-117 -36v15l12 10q0 12 1.5 18t4.5 10t8.5 8t13.5 11l-7 9q23 14 56 32t68 37q22 60 45.5 114.5t46 96.5t44 67t39.5 25q8 0 18.5 -4.5t20.5 -10.5q0 -11 4 -16.5t9 -8.5t9 -6.5t4 -11.5q0 -14 -11 -27.5
t-25 -28.5t-27 -32t-17 -38q-32 -18 -49 -78q28 12 54 28t55 26l-9 8q9 21 21 47.5t25 50.5t26.5 40.5t24.5 16.5q6 0 15 -8t19 -19t19.5 -22t16.5 -17q-7 -15 -16.5 -24.5t-19.5 -17.5l-14 -37l46 5q20 2 39.5 -16t36.5 -38v-22zM336 229v1q18 8 28.5 26t5.5 38
q-23 -4 -49 -16t-40 -21q-14 -25 -20.5 -37.5t-1.5 -20.5l42 15q8 3 14.5 5.5t12.5 5.5q7 -11 18 -6t18 16zM112 242l-20 -14v-11l26 18zM110 -19q0 -8 -1 -17.5t-4 -19.5l10 -3l9 40h-14zM334 -39l-6 7q5 11 8 19t12 6zM107 134l39 18q0 -4 -10 -13t-39 -20zM107 -166l-9 4
l3 25l10 -7z" />
    <glyph glyph-name="dollar" unicode="$" horiz-adv-x="521" 
d="M471 539q26 -7 38 -27t9 -47q6 -5 6 -11q0 -15 -21 -32.5t-48 -23.5q-7 8 -7 15q0 8 7.5 12t3.5 10q-44 0 -77 -6t-65 -20q-8 -20 -16 -40.5t-15 -40.5l-11 -7q-1 -2 -1 -3.5t-2 -3.5q30 -20 57.5 -34t47.5 -37l11 6q21 -23 31.5 -47t8.5 -42l-7 -75l-16 3
q-21 -29 -59.5 -52.5t-80.5 -42.5q-44 18 -43 -18q-18 -6 -33.5 -11t-29.5 -8q-4 -11 -7.5 -22t-8.5 -21l5 -14q-5 -15 -17 -38.5t-26 -39.5l-13 30l4 42l-5 3l1 34l8 1l3 22q-10 5 -20.5 13.5t-22.5 19.5q-27 6 -35.5 19.5t-4.5 26.5q-10 14 -16 25.5t-5 19.5
q2 12 8.5 24.5t12.5 17.5q6 -5 10.5 -7t9.5 6q12 -11 24 -25t24 -14q17 0 36 4q8 40 19 83.5t25 91.5q-10 9 -23.5 23.5t-17.5 33.5q-4 23 -9 46.5t-4 38.5q1 19 13.5 37.5t33 35t46 31t54.5 25.5q4 11 8.5 21t9.5 21l55 69q24 8 42.5 10t30.5 2l9 -11l-14 -16l9 -9l15 13
l6 -7q-11 -17 -21.5 -33.5t-20.5 -33.5q21 0 43.5 -1t39.5 -3zM486 399l23 16q0 -8 -3 -11t-12 -11zM205 108q40 17 77 40v19q-11 11 -20 24.5t-18 21.5q-6 -17 -11.5 -35.5t-11.5 -36.5l-9 -4zM267 5l36 17l2 10l-42 -21zM253 508q-23 -8 -40.5 -17.5t-18.5 -20.5l57 33
q1 2 1 2.5t1 2.5z" />
    <glyph glyph-name="percent" unicode="%" horiz-adv-x="692" 
d="M697 440l-11 6q-103 -57 -194 -114.5t-163 -110.5l-12 -24q-72 -62 -150 -138t-156 -145q-14 28 4.5 60.5t54.5 74.5q14 17 9 24l-44 -48l-6 4q15 19 32 40t32 29q7 15 25.5 38t42 48t49 49.5t48.5 43.5q8 11 5.5 16t-9.5 14q-27 -17 -57.5 -28t-65.5 -13l-10 18l-8 -12
q-16 17 -19.5 29t-1.5 30l-14 24q4 27 19.5 53.5t37.5 47.5t48 33.5t52 12.5q14 0 25.5 -14t20 -36.5t13.5 -52t5 -60.5l13 -21l88 84l8 -6l112 80l-7 8q18 12 40.5 24.5t44.5 23t42.5 19t35.5 13.5l9 -9l-8 -11q15 -11 28.5 -20t21.5 -20v-35zM549 173q-8 -8 -6.5 -16.5
t4.5 -13.5l-18 -27v-74q-26 -32 -55 -52t-64 -20q-28 0 -41.5 17t-19.5 39h-11q0 36 14 73.5t35.5 68t49 49.5t54.5 19q17 0 28 -7t18 -16.5t9.5 -20.5t2.5 -19zM404 53q-5 -14 5 -14q11 0 21 14h-26z" />
    <glyph glyph-name="ampersand" unicode="&#x26;" horiz-adv-x="638" 
d="M309 186q-12 22 -23 44.5t-19 45.5q-25 -10 -47 -25t-40 -33t-32 -37t-21 -36l6 -13q38 0 83 15.5t93 38.5zM165 123h-27l5 -6l26 -3zM603 209q-16 -7 -18.5 -14t17.5 -11q0 -5 -2 -13q-12 -5 -30 -8t-34 -10q-20 -8 -36.5 -17t-32.5 -18q17 -18 34 -33.5t34 -29.5
t13.5 -36t-17.5 -42l5 -8l-6 -11l-8 7q-3 -3 -6 -5l-6 -4l-53 45h-12q-17 18 -35.5 40t-35.5 43l-9 -5l5 -20q-37 -21 -79.5 -36t-102.5 -19l5 -13q-13 2 -24 2.5t-20 9.5q-25 0 -44 10t-35 27t-30.5 39.5t-29.5 47.5v74l17 11q22 52 51.5 84.5t59 55.5t56 42.5t41.5 46.5
q-2 52 12 105l99 63q7 -4 15.5 -1t18.5 8t21.5 10t23.5 5q14 0 33 -11t24 -24q3 -6 7.5 -17t9 -23t7.5 -23t3 -17q0 -13 -15 -31t-40 -40.5t-57.5 -48t-66.5 -52.5q12 -58 53 -120q30 16 57.5 31t51 26.5t42 18.5t30.5 7q7 -10 8 -22t2 -21.5t6 -14.5t22 0q0 -11 0.5 -20.5
t0.5 -19.5zM259 302l-31 -23l2 -7l34 15z" />
    <glyph glyph-name="quotesingle" unicode="'" horiz-adv-x="179" 
d="M209 479q-5 -22 -13.5 -44.5t-19.5 -43.5l4 -11l-27 -39l-7 6q-25 -27 -59 -27q-5 9 -11 17.5t-6 18.5q0 22 5.5 53.5t14.5 66t20 68.5t22 61q9 5 22 9t25 4l3 -18q14 -7 21.5 -15.5t11 -22.5t4 -34t0.5 -49h-10z" />
    <glyph glyph-name="parenleft" unicode="(" horiz-adv-x="480" 
d="M252 -141q-12 0 -31 3.5t-41 11.5t-45 21.5t-44 34.5l-41 123q0 80 23 150.5t60.5 131.5t86.5 113.5t101 96.5t103 81.5t94 68.5q4 3 7.5 5.5t8.5 2.5q4 0 6 -4.5t3.5 -10t3.5 -9.5t6 -2l16 6q5 -10 10.5 -20.5t5.5 -18.5q0 -17 -23 -39t-60 -51t-83.5 -66.5t-93 -85
t-88.5 -106.5t-70 -131q-13 2 -14 -6.5t7 -19.5l-6 -19h-14q-1 -34 2.5 -70.5t29.5 -68.5q32 -18 60.5 -24t60.5 -6q18 0 32 0.5t28 1.5t30.5 1h39.5l10 -17q-5 -3 -9 -6.5t-9 -6.5q-16 6 -30 -2q-8 -5 -19.5 -10t-26.5 -14q-4 -2 -6 -8t0 -10q-24 -10 -43.5 -15.5
t-37.5 -5.5zM302 -109l-35 -6l7 -9l32 9zM357 -121l-13 5q4 2 10.5 6t14 7.5t14 4t9.5 -3.5z" />
    <glyph glyph-name="parenright" unicode=")" horiz-adv-x="480" 
d="M238 700q12 0 31 -3.5t41 -11.5t45 -21.5t44 -34.5l41 -123q0 -80 -23 -150.5t-60.5 -131.5t-86.5 -113.5t-101 -97t-103 -81.5t-94 -68q-4 -3 -7.5 -5.5t-8.5 -2.5q-4 0 -6 4.5t-3.5 10t-3.5 9t-6 2.5l-16 -6q-5 10 -10.5 20.5t-5.5 18.5q0 17 23 39t60 51t83.5 66.5
t93 85t88.5 106t70 131.5q13 -2 14 6.5t-7 19.5l6 19h14q1 34 -2.5 70.5t-29.5 68.5q-32 18 -60.5 24t-60.5 6q-18 0 -32 -0.5t-28 -1.5t-31 -1h-39l-10 17q5 3 9 6.5t9 6.5q16 -6 30 2q8 5 21.5 10t33.5 13q5 2 3 8t-6 11q24 10 43.5 15.5t37.5 5.5zM133 680l13 -5
q-4 -2 -10.5 -6t-14 -7.5t-14 -4.5t-9.5 4zM188 668l35 6l-7 9l-32 -9z" />
    <glyph glyph-name="asterisk" unicode="*" horiz-adv-x="328" 
d="M150 375q-5 -19 -10.5 -41t-9.5 -45h-1q-2 4 -3.5 8t-3.5 7q4 24 9.5 48t13.5 48q-18 -2 -40.5 -6.5t-40.5 -8.5l-4 4t-3 4l31 7q-9 8 -15.5 7t-18.5 -4q-1 10 4 20.5t5 25.5q9 2 26 7t31 10q-15 17 -28.5 35.5t-21.5 35.5t-8.5 32t8.5 24q33 -23 56 -48.5t55 -45.5
q17 41 37 75t42 57q11 -3 19 -10.5t14.5 -16.5t11.5 -19t10 -17l-20 -35q9 3 17 8.5t16 13.5q2 -1 3 -2t3 -1q17 -2 26.5 -9.5t14.5 -15.5t8 -15t7 -8q-7 -9 -19.5 -18.5t-27.5 -19.5t-31.5 -18.5t-31.5 -15.5q26 -26 42.5 -54t21.5 -48q-23 0 -38.5 6t-27.5 14.5
t-23.5 18.5t-25.5 18q-15 -46 -29 -82t-16 -71q-13 0 -22 3l4 21h-9l-7 -12q-9 9 -16 28q5 24 10.5 46l10.5 42z" />
    <glyph glyph-name="plus" unicode="+" horiz-adv-x="625" 
d="M551 216q-51 -11 -117 -23t-135 -21q-23 -46 -38.5 -90.5t-15.5 -81.5l-55 12q-8 14 -18 30.5t-10 30.5q0 18 5 40t13 46q-35 -3 -64 -3q0 18 -9.5 29t-26.5 11q0 20 4.5 40t10.5 34q32 8 69 11.5t75 5.5q27 50 54.5 95t45.5 74q13 5 24 5.5t19 -1.5v-16q13 -8 19 -22
t6 -25v-53h-14q-6 -12 -13.5 -25.5t-15.5 -27.5q12 0 23 0.5t20 1.5v-11q15 -4 34.5 -5.5t36.5 -1.5l22 -30q20 1 28 -9t23 -20zM286 170q-3 -1 -6 -1t-6 -1l-28 -78l5 -7z" />
    <glyph glyph-name="comma" unicode="," horiz-adv-x="204" 
d="M21 -114q-15 -20 -34.5 -33.5t-39 -23t-36 -16.5t-26.5 -14l12 32l-12 11q9 26 22 51t27.5 48.5t28.5 46t26 42.5l-5 16q7 17 12 39.5t2 44.5q5 3 13 6.5t14 3.5q19 0 33 -12.5t25 -31t19.5 -41t16.5 -41.5z" />
    <glyph glyph-name="hyphen" unicode="-" horiz-adv-x="504" 
d="M499 204q-50 -15 -106.5 -26.5t-113.5 -19t-112 -12t-103 -6.5q-2 12 -13.5 22t-25.5 15q0 16 4.5 38t12.5 39q23 19 57 24.5t73 5.5t79.5 -2t76.5 1l-5 -13q14 -4 35.5 -6.5t41.5 -2.5l24 -36q23 3 41.5 -3.5t33.5 -17.5z" />
    <glyph glyph-name="period" unicode="." horiz-adv-x="170" 
d="M88 31q-2 -9 -11.5 -23.5t-22.5 -29.5t-28.5 -28t-28.5 -17l-55 63l10 13q-9 21 -7 43.5t11 41t22.5 31t28.5 12.5q12 0 24 -9t23 -23.5t19.5 -33.5t14.5 -40z" />
    <glyph glyph-name="slash" unicode="/" horiz-adv-x="385" 
d="M520 556q-74 -56 -142.5 -118t-123.5 -131q-35 -44 -75.5 -96t-79.5 -102.5t-75 -96t-62 -76.5l-2 -17q-28 -33 -51.5 -57.5t-43.5 -35.5v40l10 20t10 21l-7 10l24 38l5 -3q31 60 71.5 129t94.5 148t123 166.5t156 184.5l82 51q26 -2 44 -8t29 -12l7 -28l-21 -11l4 -13
l21 7zM-15 -6l-26 -35l1 -9l25 31v13z" />
    <glyph glyph-name="zero" unicode="0" horiz-adv-x="594" 
d="M539 370q18 -25 19.5 -55t-9.5 -62t-31.5 -64.5t-47.5 -62.5q-1 15 -6 15.5t-11 -7t-11 -20.5t-6 -24q-17 -17 -34.5 -30.5t-35.5 -25.5q-10 0 -20.5 -0.5t-22.5 -11.5q-20 -17 -52 -29t-59 -19q-8 7 -18 12.5t-17 -1.5l-54 40q-10 -11 -21.5 -6t-22.5 20t-22.5 37.5
t-21.5 46.5q0 79 23 145t58 119.5t77.5 93.5t82.5 67.5t71 41t44 13.5q8 0 21 -4t27.5 -10t28.5 -12.5t23 -12.5l25 -66l11 2q-1 -27 -19 -53q-8 -14 6 -28.5t35 -34.5zM439 453q-36 0 -73 -21t-70.5 -55.5t-62.5 -77.5t-50 -86q-8 0 -16.5 -4.5t-12.5 -11.5l19 -6
q-11 -27 -19 -52t-11 -45l65 10q22 9 50.5 28.5t56.5 45t52.5 54t37.5 55.5q-38 97 12 124q14 7 18 18t4 24z" />
    <glyph glyph-name="one" unicode="1" horiz-adv-x="394" 
d="M385 486q-21 -54 -41 -98t-39 -82.5t-36.5 -75t-34.5 -76.5t-32.5 -88t-30.5 -108l-28 -17q-2 2 -3.5 4t-3.5 4l25 71q-8 1 -14 -3.5t-10.5 -13.5t-7.5 -20.5t-5 -23.5q-11 10 -23 19l-20 15q0 12 -4 15.5t-16 -4.5q-1 11 -3.5 20.5t-2.5 18.5q0 4 3 9t7 10.5t7 12
t3 14.5q0 25 12 65.5t31 86.5t40.5 91t41.5 78q-6 1 -18 -3t-25.5 -10t-27.5 -13.5t-24 -13.5q-15 15 -26.5 36.5t-15.5 42.5t1.5 37.5t25.5 21.5q27 7 54 18.5t54 24.5t54 24.5t55 19.5q17 0 34 -5.5t26 -8.5q6 -20 11 -43.5t7 -51.5z" />
    <glyph glyph-name="two" unicode="2" horiz-adv-x="723" 
d="M697 115q-16 -2 -31 -3.5t-20 3.5l47 9zM402 249l-2 6l38 25l2 -11zM703 154q-5 -12 -15 -17.5t-23.5 -8t-30.5 -3.5t-36 -4q-17 -2 -29 -9t-24.5 -15.5t-28 -18.5t-40.5 -18v9q14 5 27 11.5t21 12.5l-3 7q-21 -11 -35.5 -14.5t-23.5 -5.5t-13.5 -7.5t-7.5 -21.5
q-15 -3 -20 -0.5t-8 6.5t-9 8t-23 4l-25 -26q-41 -8 -89 -19t-95 -18q-14 14 -25.5 12t-8.5 -16q-11 -1 -21.5 -1.5t-20.5 -0.5q-11 0 -19 6.5t-15 17t-14 23.5t-15 25q8 11 10 21.5t-13 13.5q26 40 65 75t82 65t86 56t77 48t55.5 40t21.5 34q-15 21 -46 21t-69.5 -15.5
t-71.5 -33.5q-8 -5 -13 -2.5t-9.5 9.5t-10 18t-15.5 25q-8 10 -9 17.5t-1.5 12.5t-2 9.5t-8.5 10.5q5 4 8 9.5l6 11t7 10.5t12 10q22 13 57.5 21t75 13t79.5 8.5t71 6.5l-4 -11q28 0 51.5 -8t40 -21t25.5 -29.5t9 -33.5q0 -31 -8.5 -61.5t-27.5 -53.5q-23 -3 -37 -20
t-16 -40l-56 -31l-3 9q11 7 21.5 15t9.5 19q-31 -17 -64.5 -33.5t-65.5 -35t-60 -39t-48 -44.5q36 -2 78.5 1.5t85 9.5t82.5 12t72 9q15 -6 26.5 -10.5t22.5 -7.5t23 -4.5t28 -1.5l4 -9h-42l7 -10z" />
    <glyph glyph-name="three" unicode="3" horiz-adv-x="600" 
d="M560 280q0 -57 -12.5 -107.5t-55.5 -89.5l-13 6q-21 -18 -41.5 -31.5t-40.5 -25t-41 -21.5t-43 -21l-5 11q-23 -10 -47.5 -19.5t-50.5 -18.5l-5 17q-8 -1 -14.5 -8t-8.5 -18q-50 -16 -96.5 -27t-97.5 -18q-5 -1 -8.5 1.5t-2.5 10.5q0 4 4 9t8 10.5t6.5 10.5t0.5 10
l-30 -13q-12 29 -11 55.5t9 50.5q54 0 110 3t101 26q5 -14 39 -4q22 6 58 18.5t71.5 30t63 38t32.5 43.5q-10 11 -26.5 16t-38 7t-47 3t-53.5 4l-5 -12q-20 10 -34 15t-24 10.5t-17.5 15t-14.5 29.5l10 44q20 5 44 18.5t45.5 30.5t39 35.5t24.5 33.5q-26 0 -58.5 -6.5
t-65 -16.5t-62 -22t-49.5 -22l-4 10l-4 10l69 33q-6 5 -14 4.5t-17.5 -4t-20 -10t-20.5 -13.5q-5 18 -6.5 37t-1.5 39q0 14 16 28.5t40.5 26t54.5 19t58 7.5q12 0 24 -0.5t24 -1.5l8 -9q37 0 73.5 -4t62.5 -6q29 -35 36 -74q-7 -32 -18.5 -62.5t-22.5 -53.5
q43 -14 69.5 -36.5t46.5 -51.5zM334 31l-31 -13l6 -11l28 15zM169 -34q-8 7 -20 5q-5 -1 -10.5 -2t-12.5 -3l2 -11z" />
    <glyph glyph-name="four" unicode="4" horiz-adv-x="689" 
d="M684 374q-3 -29 -16 -52t-29.5 -40t-32 -27t-22.5 -13q-14 -6 -29.5 -16.5t-26.5 -31.5q-10 -20 -26 -42t-32 -48q-14 1 -25 -4t-16 -19l22 -10q-2 -3 -3 -7t-3 -7l-21 11l-8 -22l17 -12q-14 -41 -10 -80q-21 -8 -30.5 -6t-14.5 6t-10 6t-18 -7q-11 20 -24.5 34t-36.5 24
q0 22 9 43t20.5 42l23 42t16.5 42q-14 4 -22 4.5t-16 -1t-21 -3.5t-38 -2l-5 -18q-22 3 -33.5 4t-15.5 -5t-19.5 -1t-44.5 28l-11 -9q-20 10 -38 24.5t-31 30t-20.5 30.5t-7.5 28q0 10 13.5 33t36.5 54.5t52 68t60 72t61 66.5t55 52q9 -5 22.5 -5t22.5 2q22 -14 21 -39.5
t-12 -63.5l-10 6q-12 -26 -31 -56t-40 -62.5t-42 -64.5t-37 -61q35 0 69.5 2.5t63.5 13.5l-2 -14q28 -2 52 15.5t42.5 43.5t31.5 56t20 53l40 27q15 -20 25.5 -37.5t16.5 -34t7.5 -33.5t-1.5 -36q11 -2 23.5 3t25 12.5t24.5 16.5t22 16q3 -11 5 -18t12 -4zM412 34l-7 -20
l7 -6l10 21zM227 182l-7 -7l27 -4l2 8zM349 305v8l21 11l3 -11zM568 327l-3 -11q9 -1 12.5 3.5t8.5 15.5z" />
    <glyph glyph-name="five" unicode="5" horiz-adv-x="584" 
d="M673 537q-38 -23 -87 -34.5t-99 -17.5t-96 -9.5t-79 -9.5q-13 -13 -23.5 -29t-6.5 -34l15 -72q3 -17 13 -26.5t24 -16.5t30.5 -12.5t33.5 -13.5q19 -29 28.5 -62.5t8.5 -68.5q-1 -27 -19 -52.5t-46 -47t-63 -39.5t-71 -31q-31 0 -55.5 3.5t-45.5 12.5t-41 24t-42 38v7
t-1 7l36 -18q-5 14 -15.5 20.5t-22.5 16.5q-1 5 -1 10v10l27 24l28 -13q9 -5 12.5 -11.5t5 -12.5t4.5 -10t11 -4q2 0 13.5 4t27.5 11.5t34.5 19t35 26.5t28.5 34.5t14 42.5q-8 22 -20.5 37.5t-29.5 28t-36.5 23.5t-40.5 24l-30 108l-57 -7q-7 19 -5.5 34.5t8 29t16.5 26
t21 24.5l27 6q5 17 14.5 35t17.5 35q11 0 18 1.5t12 1.5q7 0 15.5 -3.5t25.5 -15.5l348 75q15 -3 28 -12t22.5 -19.5t15 -21t5.5 -16.5t-2.5 -11t-5.5 -9zM638 570l-53 -19l-6 -11l61 19zM322 34q-18 0 -26 -8t-25 -31l51 26v13z" />
    <glyph glyph-name="six" unicode="6" horiz-adv-x="585" 
d="M570 642q0 -38 -5.5 -73.5t-13.5 -68.5l-169 -109q0 -14 -17 -28l-6 10l-30 -24l8 -6q-15 -11 -29.5 -24.5t-21.5 -32.5q7 -11 19 -13q1 0 3.5 -0.5t8.5 -1t17 -1.5t30 -2l5 10q58 0 82 -30.5t24 -80.5q3 -4 5.5 -7.5t2.5 -12.5q0 -5 -4 -15.5t-10.5 -24.5t-14.5 -28.5
t-17 -26.5l-15 4q-12 -20 -39 -37t-60 -30t-68 -22.5t-63 -15.5q-11 8 -17.5 7t-6.5 -15q-14 4 -36.5 18.5t-43.5 34.5t-36 43t-15 43h15q4 14 4 31t2 38t9 46.5t24 56.5l-14 2q33 45 79.5 98.5t97.5 106.5q14 0 21.5 4t0.5 18q37 37 74 70t69.5 57.5t59.5 39t44 14.5
q11 0 23 -7t24 -15zM36 92l-1 27q8 -7 10 -14t2 -13h-11zM304 121q-12 9 -20.5 18t-19 17.5t-26 14.5t-42.5 8l-57 -97q16 -6 26.5 -7.5t17.5 12.5q24 2 58 10.5t63 23.5zM273 302q-6 -8 -8.5 -16t0.5 -13l15 20zM329 113q-7 4 -15 -0.5t-16 -9.5l8 -5z" />
    <glyph glyph-name="seven" unicode="7" horiz-adv-x="656" 
d="M661 235q-73 -35 -140.5 -59.5t-128.5 -40.5q-28 -49 -54 -100t-46 -107q-6 -3 -11.5 -8.5t-7 -14.5t1.5 -22.5t14 -31.5h-35q-19 18 -41.5 40.5t-33.5 44.5q11 7 7.5 13t-23.5 14q13 35 31.5 72t38.5 74h-18q-13 0 -23 2.5t-20 6.5l-10 -8l-23 16l3 14q-17 19 -24.5 42
t-7.5 40q0 9 7 22t17.5 25.5t23 21t24.5 8.5q17 0 35.5 -10.5t38.5 -12.5q26 -3 52 -5t54 -4l3 7l-22 13q36 56 63.5 98.5t33.5 63.5q-20 7 -45 1.5t-49.5 -12.5t-44.5 -11t-29 7q-9 10 -18.5 8.5t-18.5 -8t-17.5 -14t-15.5 -8.5q-14 -2 -30 -4t-25 -3q-8 -1 -14.5 -6
t-9.5 -9q-11 11 -25.5 22t-27 23t-21.5 25t-9 28q0 13 10 29t21 32q22 6 53.5 11t68 9t76 7t78.5 5v12l22 1q7 0 13 -9v-1h1l2.5 -5l2.5 -5l21 2v9q22 1 42 1h37l13 12q8 -14 13.5 -27t9.5 -29q9 -4 15.5 -9.5t6.5 -15.5v-84l-9 -13q0 -18 -0.5 -31.5t-0.5 -22.5h-13
q-13 -24 -26.5 -50t-29.5 -53h28q0 -14 9 -18t21.5 -3.5t27 4t26.5 5.5v-11l-24 -8l7 -11q17 4 29 6.5t14 13.5q17 -6 31 -1.5t25 6.5v-11zM546 229l-9 -3l5 -10l11 1zM377 314l-15 -23l9 -6l12 24zM265 -46q-4 -11 -2.5 -18t4.5 -13l8 21z" />
    <glyph glyph-name="eight" unicode="8" horiz-adv-x="566" 
d="M542 402q0 -20 -29 -45t-76 -57q-7 3 -14 4t-10.5 -0.5t-3.5 -6t7 -12.5q-13 -10 -27.5 -19.5t-28.5 -20.5l-4 19l-20 -13l10 -16l-11 -7l-10 15q-8 -8 -12 -17t0 -17q-6 -4 -11.5 -8.5t-11.5 -8.5q20 -41 38.5 -79t18.5 -76q0 -17 -12 -37t-28.5 -37t-33.5 -28.5
t-27 -11.5q-20 0 -45 7t-48 13q-11 9 -31 30t-39.5 46.5t-33.5 51t-14 44.5t10.5 40t28.5 43.5t42 46t52 46.5q-14 32 -23 66t-7 72h-11q10 40 26 75.5t40 61.5t58.5 41.5t82.5 15.5q44 0 82.5 -13.5t69.5 -45.5l25 -75q21 -14 26 -39t5 -48zM461 347l-32 -30l7 -5l30 24z
M264 76q-6 37 -23 75q-19 -17 -36.5 -35t-34.5 -37q3 -11 17 -23t28 -19zM522 332l-2 11l26 34v-23zM322 514q-5 -5 -13 -14.5t-4 -18.5l27 26zM393 441q-8 14 -21.5 28.5t-26.5 27.5q-48 -38 -70 -73.5t-26 -70.5q43 31 82 54t62 34z" />
    <glyph glyph-name="nine" unicode="9" horiz-adv-x="552" 
d="M534 460q0 -25 -3.5 -44t-9.5 -35.5t-12.5 -32t-12.5 -34.5q-6 3 -9 0.5t-5 -7.5t-4 -12.5t-6 -13.5q-5 -8 -11 -11.5t-10 -7t-5.5 -8t2.5 -13.5q-11 -5 -20.5 -12.5t-17.5 -16.5q-9 1 -14 -2.5t-10 -8.5l10 -13q-5 -10 -10 -25l-29 -13q-16 -26 -38.5 -58.5t-50.5 -68.5
q-10 6 -21.5 2t-23 -13.5t-22 -22.5t-19.5 -24l4 -11q8 8 16 13t19 -3q-10 -11 -19.5 -21.5t-18.5 -21.5l-39 -42q-20 4 -31.5 12.5t-20 18t-16.5 18.5t-21 14l-1 53q5 0 11 2t2 7l-13 8v13q26 15 50.5 39t48 52t46.5 58t46 59q-8 8 -3 14q7 8 12.5 16t13.5 17l-106 18
q-7 16 -19.5 27.5t-21.5 4.5q-31 29 -54.5 62t-24.5 62q0 19 6.5 34t17 28t24 25t27.5 25q27 9 63 16.5t75.5 13.5t79.5 9.5t75 3.5q14 -16 28 -24.5t40 -8.5q26 -17 40.5 -45t15.5 -71zM405 473q-23 3 -50 3t-52.5 -4.5t-47.5 -13.5t-36 -25q5 -12 16.5 -23.5t25 -22.5
t27 -23.5t23.5 -26.5q23 32 46 66t48 70zM287 71q-10 0 -16.5 -6t-14.5 -16l11 -4zM241 -9q-4 -5 -8.5 -11t-7.5 -11l-6 17q8 8 22 5zM174 564q-12 -2 -25 -5.5t-23 -6.5l4 -7q14 5 27.5 6.5t16.5 12.5z" />
    <glyph glyph-name="colon" unicode=":" horiz-adv-x="274" 
d="M116 169l-16 8l7 32q-10 20 -17.5 45t-5.5 52q-7 4 -10 10t-3 12q0 9 5.5 19t14.5 18.5t20 14t22 5.5q32 0 54 -32t22 -88zM111 -10q-9 1 -18.5 -7.5t-20 -20.5t-22 -24.5t-24.5 -18.5q-8 13 -21 24.5t-31 16.5l8 26l-17 9q1 18 4 38t8.5 36t14.5 26.5t23 10.5
q15 0 29 -9.5t27 -24.5t24.5 -33t20.5 -34z" />
    <glyph glyph-name="semicolon" unicode=";" horiz-adv-x="274" 
d="M213 285q-14 -8 -24 -20t-20 -24.5t-20.5 -25.5t-25.5 -22q-15 0 -27 7t-19.5 17.5t-10 23.5t1.5 25h-16q0 5 6 24t16.5 40t25.5 37.5t34 16.5q35 0 57 -24t22 -75zM138 55q0 -31 -13 -62.5t-34 -59t-48.5 -50t-57 -37t-58 -19t-52.5 4.5q10 10 24 26t28 33t27 32.5
t22 24.5l-17 6q16 43 44 90t50 98q13 -6 28 -15.5t27.5 -21.5t21 -25t8.5 -25z" />
    <glyph glyph-name="less" unicode="&#x3c;" horiz-adv-x="625" 
d="M447 364l23 -5q-17 -20 -47.5 -37.5t-62 -34.5t-56.5 -33t-31 -31l133 -90l-21 -12l56 -52l-5 -12q-75 6 -120 22t-76 35t-55.5 38t-58.5 32l28 74q12 14 27 26.5t31 26.5l22 19q38 32 78.5 61t74.5 56q21 -2 47.5 -15.5t39.5 -39.5z" />
    <glyph glyph-name="equal" unicode="=" horiz-adv-x="625" 
d="M88 292q0 29 19.5 47.5t51 29.5t71 15.5t79.5 4.5q31 0 58.5 -6t52.5 -11l56 -40l-13 -11l41 -25q-14 0 -39 -2t-55.5 -4.5t-63.5 -6.5t-62.5 -8t-53.5 -8t-35 -7q-22 -6 -18 -22q17 0 39.5 0.5t44.5 1t40 2.5t26 5l93 -17l-6 -11l71 -10q6 -8 14.5 -16.5t19.5 -14.5
q-11 -3 -20.5 -7t-7.5 -9l52 4q6 -3 13 -4l14 -2v-1q-51 -17 -110.5 -26t-121 -13t-123 -4.5t-115.5 -0.5q0 14 -9 25t-26 11q0 14 7.5 27.5t19.5 25.5t26.5 20.5t28.5 11.5z" />
    <glyph glyph-name="greater" unicode="&#x3e;" horiz-adv-x="625" 
d="M157 131l-23 5q17 19 47.5 37t62 34.5t56.5 32.5t31 31l-133 91l21 11l-56 53l5 11q75 -6 120 -21.5t76 -34.5t55.5 -38.5t58.5 -32.5l-28 -73q-12 -14 -27 -27t-31 -27l-22 -19q-38 -32 -78.5 -61t-74.5 -55q-21 2 -47.5 15t-39.5 39z" />
    <glyph glyph-name="question" unicode="?" horiz-adv-x="468" 
d="M513 507q-7 -19 -10.5 -38.5t-5.5 -34.5q-5 -32 -23.5 -72t-52.5 -80t-82.5 -76.5t-111.5 -61.5q0 20 -6 29.5t-24 7.5v36q33 24 65 52t58.5 56.5t46 57t28.5 54.5q0 7 -2.5 13t-4.5 11t-1.5 9t5.5 8q-8 11 -18.5 14.5t-25.5 2.5q-20 -1 -49.5 -7.5t-60.5 -14.5t-60 -15
t-48 -7v4q-14 11 -22 15t-12 4q-6 0 -7 -3t-1 -7q1 -2 1 -3.5t1 -3.5q-45 18 -45 87q0 16 10.5 29t30.5 16q34 5 77 10.5t84.5 10t76.5 7.5t55 3q13 0 23.5 -4.5t21 -10.5t23 -11.5t28.5 -7.5zM185 -77l-49 23q-4 14 -16.5 32.5t-26.5 30.5q0 18 -6.5 36.5t-6.5 33.5
q0 24 9.5 46.5t26.5 22.5q22 0 36 -7t22.5 -21t13.5 -35t11 -49z" />
    <glyph glyph-name="at" unicode="@" horiz-adv-x="869" 
d="M574 633q20 0 40 -3q7 -11 17 -15.5t20.5 -6t21 -2t19.5 -4.5q33 -19 61.5 -48.5t49.5 -66t32.5 -80t11.5 -91.5q0 -43 -13.5 -86.5t-36.5 -83.5t-53 -75t-62.5 -60.5t-65.5 -40.5t-62 -15q-23 0 -44 12.5t-37 29.5q5 15 -4 31q-6 -8 -17 -20.5t-23.5 -24.5t-25.5 -20.5
t-24 -8.5q-17 0 -33 15t-28 36.5t-19.5 44.5t-7.5 39q0 30 11 69t30 73.5t43 58t50 23.5q25 0 39.5 -8t23.5 -20t15.5 -26t15.5 -26l28 19q22 -14 30.5 -36t-2.5 -41q-9 -15 -22.5 -35.5t-30.5 -43.5q-5 -9 -2.5 -18t16.5 -13q5 -2 9.5 -2h9.5q26 0 60 22.5t64 60t51 87
t21 103.5q0 94 -46.5 143t-128.5 49q-61 0 -119 -27l-9 11q-7 -15 -21.5 -25t-31.5 -18.5t-34.5 -17t-30.5 -20.5l14 -6q-10 -9 -20 -15.5t-19 -16.5q-2 9 -8 14q-14 -5 -26 -18t-21.5 -28t-15 -29t-5.5 -20q-2 -4 -8 -9t-8 -9l-9 6q-4 -8 -8 -17.5t-2 -20.5
q-17 -23 -30 -51.5t-22 -57.5t-13.5 -57.5t-4.5 -52.5q0 -54 16.5 -100t40.5 -81q-6 -5 -4.5 -17t12.5 -20l3 -40q-41 17 -73 48q-6 8 -10 20t0 18l-3 4q-12 4 -22 19.5t-17.5 36.5t-12 44.5t-5.5 44.5l-14 7l-10 1q-10 31 -1 58q5 5 11 7t12 5l2 14h-22q6 38 20 82l36 8
q11 29 23 58.5t16 54.5l-7 8q-16 -26 -25 -46.5t-23 -25.5q23 65 63 123.5t92 100.5q30 16 57 30.5t47 28t32 26.5t11 25q30 16 67 27l16 -11q10 1 22.5 2.5t22.5 4.5t15.5 8t2.5 13l24 3q9 -16 24 -18q8 -2 15 0.5t13 7.5l-29 3l-4 8h16zM445 213q-8 -6 -16 -14t-15 -17
t-12 -17t-6 -13q14 8 28 19.5t28 22.5zM35 77l-1 -22h9l2 25zM497 619l-28 -8l-10 8q9 2 18 3.5t18 3.5zM342 561l-30 -20v12l31 19zM301 533q-17 -14 -49 -28v1q9 8 23 19t24 19zM64 218h-9l8 23h10zM31 -21l-4 37l9 -3l3 -36z" />
    <glyph glyph-name="A" unicode="A" horiz-adv-x="569" 
d="M528 195q-14 -2 -27.5 -4t-26.5 -4q-3 -6 -4.5 -17t-3.5 -22.5t-6 -23t-12 -18.5q11 -6 7 -21t-14 -24q5 -11 5 -22t-16 -32q-1 -3 4 -1t7 4q-2 -26 -7 -47t-13 -44q-12 0 -22.5 4.5t-20.5 9.5t-18 8.5t-14 1.5q1 15 -2 21.5t-14 6.5l1 14q9 0 10 10q-9 0 -9 10
q2 17 8.5 38t11.5 44q5 0 6 -8.5t0 -19.5q3 0 6 7t6 16.5t5 20.5t3 20l-12 5q-1 -12 -2.5 -24.5t-10.5 -8.5q1 5 2 13.5t2.5 17.5t2.5 17t2 13l17 -21q-1 9 1.5 14t0.5 16q-21 1 -57 -12t-74 -31t-71.5 -36.5t-50.5 -30.5l-5 -13l4 -12q-13 -26 -24.5 -53.5t-23.5 -43.5
l-63 27q-1 12 -8 20.5t-14.5 16.5t-12 15.5t-0.5 17.5h-16q8 57 40 115t74.5 114t88 109.5t80.5 100.5t69.5 79.5t63.5 55.5q3 2 8.5 2t11.5 0.5t11 3t6 9.5q10 -3 27.5 -11t28.5 -17l-18 -6q0 -6 3.5 -6.5t8.5 1l10 3t7 0.5q14 -12 18.5 -27.5t6 -31t2.5 -30.5t8 -26v-16.5
t-2 -32t-5 -33t-9 -18.5q2 -2 3 -2t3 -2q-5 -17 -9.5 -37.5t-6.5 -41.5q0 -5 5.5 -13t12 -20t12 -26.5t4.5 -30.5zM444 491q-7 0 -19 -10t-26 -26t-30.5 -36.5t-32.5 -41.5l-5 5l3.5 10.5t-1.5 7.5q-12 -14 -16.5 -23t2.5 -23q-23 -30 -42 -54q-14 -17 -32.5 -45.5
t-35.5 -53.5q15 9 30 23t45 27q26 11 45.5 16t46.5 13q2 20 8 34t9 25l17 -15q4 12 9 31.5t10 42t9.5 44.5t8.5 39zM388 293q-3 -9 1 -10.5t9 -0.5l1 11h-11zM397 309l-4 1l-4 -11h9zM357 52l-4 -13h6l4 16zM222 129q-5 4 -13 2.5t-17 -6t-18.5 -9.5t-16.5 -9q-4 -5 -6 -9
t-5 -9zM234 135q7 4 17 8.5t18 9.5v1q-17 -1 -24.5 -4t-10.5 -15zM426 432h-9l8 27l9 4zM167 125q3 2 15.5 7.5t17.5 16.5q-6 -2 -11 -3.5t-10 -3.5z" />
    <glyph glyph-name="B" unicode="B" horiz-adv-x="616" 
d="M262 225q-15 0 -29 7t-23 7q-8 0 -11 -3.5t-7 -3.5l10 -8q-4 -7 -9 -13t-10 -6q8 -11 4.5 -23t-9.5 -27q-6 -5 -13 -9.5t-10 -11.5q10 0 9 -3.5t-4 -6.5q-8 -6 -10.5 -12.5t5.5 -20.5l17 21l-1 -31h-7q-4 -10 -4 -18q33 15 57.5 23t32.5 0q4 10 16 17.5t29 16.5
q4 -7 6.5 -7.5t5.5 1.5t5.5 5t6.5 3q6 0 13 0.5t10 13.5q32 15 66 35.5t63 58.5q-33 13 -58.5 13.5t-48.5 -3.5t-47 -9.5t-55 -5.5zM175 453q7 20 16.5 43.5t20.5 46.5t22 44.5t22 37.5h18q15 0 25.5 -5.5t17.5 -13t11 -15.5t6 -13h-14q0 -9 3.5 -18.5t8.5 -9.5q10 0 20 4
t20 10t20.5 12t22.5 10q14 5 32.5 8t26.5 3t16.5 -9.5t16 -23t14 -28.5t9.5 -25q-8 -1 -12 -5.5t2 -12.5q-6 -9 -11.5 -20.5t-11.5 -21.5t-12.5 -16.5t-13.5 -5.5q-5 0 -13 -5.5t-16.5 -12t-16 -12t-11.5 -5.5q-14 2 -25.5 -10.5t-26.5 -24.5l-7 5q-8 -6 -22 -16t-21 -19
l4 -3q24 2 55.5 4.5t58.5 2.5q37 0 66.5 -17t52.5 -34q6 -9 12 -23t12 -29t11 -30.5t9 -27.5q-5 -3 -10 -1.5t-10 -0.5q-5 -8 -21.5 -22.5t-34.5 -29t-33 -25.5t-17 -11q-17 1 -35 -4t-35 -13l4 -15q-9 -8 -19.5 -13t-21 -7.5t-19.5 -1t-14 6.5q-4 -4 -6.5 -11t-4.5 -13
q-40 -22 -74 -37t-57.5 -26t-35 -19.5t-7.5 -16.5q-9 -8 -21 -8q-8 0 -15.5 4.5t-15.5 10.5t-17 11.5t-20 7.5q2 8 0.5 15t-10.5 2q2 11 0.5 25t-5.5 25q13 6 26.5 12t26.5 13q-14 4 -23.5 14t-20.5 15l9 15q-8 6 -11 11.5t-6 12.5l102 273q-12 6 -15.5 16.5t-1.5 24.5z
M378 263l-1 -8q8 -2 14 -1t7 6zM461 98l-16 -5q-1 -5 7 -5t11 1zM192 -18l5 -5q2 -1 5 -1t8 5zM377 46q8 0 14 12q-7 1 -16 -2t-13 -6q7 -4 15 -4zM163 179q0 -11 -7 -18l4 -7q14 12 14 25h-11zM242 -4q-8 -3 -14.5 -2t-10.5 2q0 -4 4.5 -8.5t12.5 -4.5t10 6.5t-2 6.5z
M150 84q-5 2 -8 0t-7 -7l7 -4zM179 128q-5 3 -2 8q1 6 7 13.5t11 11.5zM411 53q0 16 19 16q5 0 10 -3zM537 152l19 16q-4 5 -12.5 0t-13.5 -8zM197 170q-4 2 1 17.5t10 25.5l6 -5z" />
    <glyph glyph-name="C" unicode="C" horiz-adv-x="534" 
d="M523 477q-31 -8 -65 -22t-60 -33q-22 -16 -38 -32t-25 -24l-6 10q-8 -14 -32 -34t-45 -39q-1 -4 -3 -10.5t-4 -10.5q-7 -7 -26 -29.5t-39.5 -50.5t-36 -56t-15.5 -46q0 -19 16 -19q13 0 34.5 4t46 9t50 11t48.5 9q11 2 18.5 -1.5t11.5 -8.5q-18 -4 -38.5 -8t-39 -9
t-32 -11.5t-17.5 -13.5q14 -9 35 -4.5t32 15.5q40 8 86.5 17t84.5 14l16 -4l24 3l11 -7l-52 -8q-10 -2 -17.5 -5.5t-0.5 -13.5l7 -10q-3 -2 -23.5 -8t-48 -14.5t-58.5 -18t-56 -17.5q-8 -3 -12.5 -9.5t0.5 -11.5q-16 -4 -37.5 -9t-38.5 -5q-8 0 -15 8t-15 8q-9 0 -15.5 4
t-12.5 8t-14 7t-20 2q-7 6 -16.5 20t-19 29t-17.5 28t-11 19q-4 6 -5.5 16t-1.5 18v27q12 11 14.5 25.5t2.5 30.5l10 -6q5 8 2.5 18t1.5 18q8 16 18.5 35t21.5 35.5t20 27.5t14 11t5 -2.5t-1 -5t-1 -5t5 -2.5q4 0 9.5 8t11.5 18t12 18t10 8h12q-2 5 -3 13t-2 15h7
q6 16 25 35t44 38.5t53.5 38t54.5 33t46 23t29 8.5t24.5 -6.5t26.5 -12.5q5 -12 12 -23.5t13 -23.5t9.5 -25t0.5 -28zM387 21q-14 -8 -28 -15t-27 -7q-8 0 -14 3q14 6 33 10.5t36 9.5v-1zM293 -17q-11 0 -19 4l33 11q9 -7 3 -11t-17 -4zM127 331q-11 4 -18 -8l10 -6z
M165 223l-12 -19q-3 -5 -8.5 -15t-1.5 -17l31 46zM124 158l-7 -14l6 -8l11 22h-10zM465 64l-10 12l27 4l13 -6zM399 112q-14 0 -25.5 1.5t-17.5 4.5q30 5 59.5 10t52.5 7q-4 -13 -25 -18t-44 -5zM221 280q16 16 18.5 21t2.5 8q-8 0 -15 -6.5t-15 -16.5zM207 280l-6 -10l7 -6
l8 10zM105 316l-14 -23l9 -7l13 21z" />
    <glyph glyph-name="D" unicode="D" horiz-adv-x="665" 
d="M670 377q-13 -20 -29.5 -44.5t-33.5 -40.5q-5 -5 -13 -8.5t-14 -2.5l15 16q-5 2 -11 1t-11 -6t-16 -14t-26 -21l18 -4q-41 -35 -86 -68t-91 -62t-92.5 -54t-89.5 -44l-9 -55q-14 8 -26.5 4t-28.5 -4q-23 0 -39 11t-27.5 26t-20 31.5t-16.5 27.5q7 18 8 38l25 11
q11 5 18.5 11t12.5 19q12 28 19 54t16 59l-4 15q11 34 28 61.5t19 56.5q0 10 -5.5 19t-12 17.5t-12 17t-5.5 17.5q0 10 8.5 17.5t20 13.5t24.5 11.5t23 10.5l10 -7q18 19 28.5 45.5t20.5 50.5t22 41t32 17q3 0 10.5 -9.5t16 -21.5t15 -24t8.5 -17q3 -12 -1.5 -26t-7.5 -30
q26 0 55 4t67 -1q-4 -7 -1 -10t8 -2.5t11 4t8 8.5q8 -6 25.5 -6.5t34.5 -5.5q34 -11 54 -29t30 -39t13 -42.5t5 -37.5zM599 319l-8 -9l13 -3l8 9zM568 446q-63 0 -108 -8.5t-77.5 -20.5t-56 -24t-43.5 -18l-1 -31q-3 -4 -8 -7t-10 -8v-1q6 5 9 0.5t3 -11.5t-2 -14t-5 -7
q-7 1 -13 6v-1q5 -8 7 -21q-1 -17 -11.5 -38.5t-14.5 -50.5q13 8 34 18.5t44 22.5t46.5 26t42.5 30q3 -3 6.5 -3.5t8.5 -2.5l-6 14l9 6q5 -8 10 -8q8 0 23 13t41 44q10 -3 23 6t25 24t19 33t5 32zM507 241l-33 -18q5 -3 10.5 -4t10.5 4l21 15zM479 211q-14 0 -26.5 -6.5
t-27.5 -16.5q-17 -11 -41 -25t-48 -29q-1 -5 -3.5 -9.5t-7.5 -7.5q-11 11 -29 -6q11 0 23 -7q43 26 84 55t76 51v1zM237 63l51 25q-3 2 -4.5 7t2.5 10v1q-11 -6 -26.5 -20t-22.5 -22v-1zM194 51l-2 -10l28 15l5 12z" />
    <glyph glyph-name="E" unicode="E" horiz-adv-x="537" 
d="M570 491q1 -8 -9 -13t-17 -11q-34 -15 -68.5 -24.5t-68.5 -16l-68 -13t-67 -15.5q-8 -14 -18.5 -31t-23.5 -37q15 1 36.5 7.5t43.5 13t41.5 12t30.5 5.5q22 0 32.5 -9.5t26.5 -36.5q-6 -17 11 -26l-7 -22q-23 -4 -59.5 -10t-74.5 -13.5t-72.5 -16t-53.5 -16.5
q-10 -4 -19 -24t-15.5 -43.5t-11 -45.5t-4.5 -31q12 -9 26 -12t28.5 -2.5t28 3t24.5 5.5l6 -10q5 0 10.5 3.5t5.5 8.5q6 1 10 -2.5t7.5 -7.5t7.5 -7t9 -1q49 14 101.5 31t90.5 29q7 2 8 -1q2 -4 -6.5 -8.5t-14.5 -7.5l-68 -25q5 -3 12 -7.5t12 -7.5q5 -2 -2 -4
q-38 -13 -82 -25t-86 -23q11 -5 26.5 -5.5t29.5 3.5q30 8 68.5 21t75.5 26q2 1 5.5 1.5t-0.5 -7.5q-9 -15 -28 -22q-24 -9 -51.5 -19t-55 -18t-54 -13t-49.5 -5q-44 0 -80.5 10.5t-63 34t-40.5 61.5t-12 93q1 28 12 59.5t29.5 70t43 85t51.5 103.5q-4 19 -2 37.5t16 38.5
q19 -2 34 8.5t28.5 24.5t26 26t25.5 12q7 0 19.5 -2.5t25.5 -5.5t24 -6.5t16 -4.5q2 -34 -18 -72q6 -2 17.5 -3.5t24 -2.5l25 -2t20.5 -1l9 -19q4 0 10.5 3t14.5 3t23 -5t26 -7q2 0 3 -1t-1 -3q-15 -14 -27.5 -18t-20.5 -6t-12 -5.5t-1 -14.5q23 9 42.5 15.5t40.5 16.5
q3 2 6.5 5t4.5 -2zM487 494q-1 4 -8.5 5t-12.5 -1l3 -12zM139 182h1l10 12t8 14q-10 1 -13.5 -3t-5.5 -12v-11zM121 118q-3 -14 -3 -23t6 -14l5 27zM429 114q-9 -11 -26 -16t-31 -4q-21 -16 -43.5 -23t-31.5 7q35 8 68 18.5t61 21.5q3 2 4 0t-1 -4zM242 394l-17 -28l13 3
l17 28zM219 352q-5 0 -13 -8.5t-10 -16.5l13 2zM137 175l-11 -37l7 -9l14 47z" />
    <glyph glyph-name="F" unicode="F" horiz-adv-x="517" 
d="M577 282q1 -8 -3 -14.5t-16 -9.5l-61 -16q7 -8 23.5 -6.5t37.5 6.5l-5 -12q-26 -8 -56 -18.5t-59 -20t-56 -16.5t-48 -9l-116 -11q-19 -8 -33 -24t-27 -38l6 -9q-6 -12 -14.5 -28.5t-16.5 -34t-16 -34t-14 -29.5l-8 5q-5 -8 -2 -16.5t3 -17.5q0 -8 -5 -18.5t-11 -21.5
l-37 -12q-11 -4 -17.5 2.5t-11.5 14.5l-8 -7q-9 9 -12 17.5t2 14.5q-6 10 -10 19t-6 19q12 24 24 54.5t22 52.5q23 48 -16 72l-8 48q8 3 17 12t11 22l58 17l-6 10q11 3 15.5 9t6.5 14.5t4 20t7 24.5l93 232q9 22 22.5 44.5t36.5 35.5l56 31q26 0 55 -14t53 -38t40 -56.5
t16 -68.5q0 -23 -6.5 -41t-14.5 -29q-11 2 -19.5 8.5t-16.5 8.5q0 20 -7.5 39.5t-20.5 33.5q-22 -9 -40.5 -31.5t-36 -52.5t-35 -64.5t-36.5 -66.5q3 -3 9 -3t12.5 0.5t14 -0.5t15.5 -5l-31 -7l9 -7q23 3 51 7.5t50 7.5q4 1 8.5 -4.5t-2.5 -7.5q-5 -2 -9.5 -5t-4.5 -9l79 15
l18 -11l28 6q5 1 10.5 3t7.5 9zM483 226q-5 6 -11.5 7t-15.5 0q-23 -2 -33.5 -7t-24.5 -9q-2 -1 -2 -5t2 -3q49 13 55 8zM53 106q0 6 -13 13l5 -26q8 8 8 13zM386 206q3 1 2.5 5.5t-2.5 3.5q-9 -3 -17.5 -3t-10.5 -4q-2 -2 -2 -6t2 -3zM169 133q-2 0 -7.5 -2.5t-10.5 -6
t-9 -8t-4 -8.5t3.5 -6.5t7.5 -2.5zM133 116q-5 -2 -11 -8t-11 -16q-2 -5 -1 -12.5t4 -11.5zM105 -2q-10 0 -16 -8l-7 -14l7 -7z" />
    <glyph glyph-name="G" unicode="G" horiz-adv-x="590" 
d="M44 282q7 6 21.5 34t38.5 64t59 73t82 61q8 4 8 10.5t9 12.5q22 14 41 23.5t39 15.5t44.5 9t58.5 3q24 -6 35.5 -17t19 -23t15.5 -24t24 -22q0 -11 -5.5 -18t-13.5 -15q7 -2 12 -7t8 -10q-2 -9 -9 -11q-7 7 -21 16t-31 9q-27 0 -63.5 -14t-75 -38t-75 -55.5t-64.5 -67
t-43 -73.5t-11 -73q27 -5 58.5 -3.5t60.5 5t52.5 9t32.5 10.5q10 5 19.5 15t15.5 20q20 31 46 63.5t50 57.5q3 -3 6.5 -5.5t7.5 -4.5q-6 -7 -12.5 -18.5t-4.5 -16.5l25 30q8 -4 15.5 -7.5t14 -9.5t10.5 -15.5t6 -24.5q9 0 9.5 -7.5t-1.5 -17.5t-4.5 -19.5t0.5 -13.5
q-27 -27 -45.5 -44.5t-31 -29t-20.5 -18t-14 -11.5q-7 -20 -16 -45.5t-20 -52.5l4 -7q12 23 20.5 45.5t16.5 43.5l11 5q-20 -48 -39.5 -104t-45.5 -101q-3 -6 -3 -10.5t0.5 -9t0.5 -9.5t-3 -12q-6 -13 -14 -28.5t-23 -15.5h-17v13q-32 -7 -49.5 8t-23.5 36l25 44
q-12 -3 -18 -12t-10 -20h-17q20 42 35 75.5t29 65.5q6 13 11 17t8.5 8t5.5 11.5t2 28.5l-18 -6q-11 13 -32.5 7t-39.5 -20q-32 0 -56.5 3.5t-44.5 13t-35.5 27t-29.5 44.5h-12q-14 38 -9 71t16 66zM517 281q-8 16 -15 7l-20 -27q11 2 19.5 8.5t15.5 11.5zM137 187
q-12 -14 -12 -25q0 -10 10 -13z" />
    <glyph glyph-name="H" unicode="H" horiz-adv-x="650" 
d="M389 -39q5 -11 17.5 7t29.5 53q5 -3 4.5 -9.5t-3.5 -14.5t-8 -17t-9 -17q-6 -11 -11.5 -25t-11 -27t-11 -22t-11.5 -9q-10 6 -25 16t-28.5 23t-23 28t-9.5 32q0 22 7.5 49.5t18.5 55.5t24 54t24 47l-5 9q-9 0 -27.5 -2t-37.5 -4t-35 -4t-19 -2q-5 7 -13 7q-12 0 -18.5 -8
t-11.5 -19q-7 -17 -16 -45.5t-18 -59.5t-16 -59.5t-11 -45.5q-16 0 -22.5 7t-15.5 16q-2 -2 -5 -2h-5q-3 0 -5.5 1t-5.5 2l5 12q-23 15 -29.5 29.5t-5 32.5t8 40.5t11.5 51.5q-17 4 -39 2.5t-42 -1.5q8 15 22 20.5t28 12.5l-16 9l58 24q5 11 10.5 18t10.5 18q14 25 21 56
t21 57q18 33 37.5 67.5t39 68.5t36 66.5t28.5 61.5q3 2 3.5 5t10.5 3q20 0 30.5 -5.5t17.5 -13.5t13 -18.5t17 -20.5q0 -13 1 -24.5t1 -24t-1.5 -27t-7.5 -33.5h-7q-8 -24 -29.5 -58t-37.5 -67q-14 -7 -22.5 -20t-8.5 -27l21 6q21 25 49.5 31t57.5 6q10 0 23.5 -3.5
t24.5 -7.5q47 58 79.5 123t67.5 131q7 12 23 12q13 0 22 -8.5t15 -21.5t8.5 -29t2.5 -30q0 -17 -3.5 -35t-15.5 -27q-2 -21 -10.5 -39.5t-25.5 -28.5q3 -7 -0.5 -17t-10 -21.5t-14 -23t-13.5 -21.5q-10 3 -21 -5t-16 -17t-13 -24.5t-15 -29.5q-2 -3 2.5 -5t8.5 6l12 25
q4 8 10 13t13 4q-24 -43 -40.5 -86t-45.5 -85l-11 4q-3 2 -8.5 -1.5t-8.5 -8.5t-8.5 -13.5t-11.5 -19.5q-7 -11 -3.5 -25.5t4.5 -22.5q-5 -9 -13 -17t-8 -18zM428 37q-2 -3 -3.5 -3t-1.5 2l-1 11l15 22q4 6 7 3l3 -3zM499 191q-3 1 -7 -1t-6 -5l-41 -80q9 1 15.5 11t11.5 20
zM394 4q-2 0 -6.5 -0.5t-6.5 -5.5l-10 -20l6 -8zM304 119l11 -4q-5 -20 -12.5 -28t-9.5 -8zM-26 142l-19 -4q0 2 7.5 8.5t14.5 12.5q2 2 3.5 1.5t-0.5 -3.5zM190 177q-7 0 -11.5 -8.5t-8.5 -18.5l9 -3z" />
    <glyph glyph-name="I" unicode="I" horiz-adv-x="360" 
d="M385 547q0 -20 -2.5 -45t-6.5 -48h-11q-10 -14 -19 -33t-18.5 -38t-22 -36t-29.5 -26l4 -12l-39 -22q-29 -42 -45 -90.5t-33 -91.5q-2 -6 -7.5 -15.5t4.5 -12.5q1 0 3 3t3.5 7l3 8t1.5 5q9 19 16.5 42.5t16.5 47t19 45t24 36.5q5 2 6.5 1t0.5 -3t-2.5 -4.5t-2.5 -3.5
q-26 -45 -42.5 -94.5t-38.5 -102.5q-15 -35 -20.5 -65t-1.5 -45q-27 9 -50 22v32q-10 -8 -11 -24q-17 13 -31 31t-24 44q0 45 14 94.5t37 100.5t51 102t57 98t55 88.5t44 74.5q5 6 13.5 10t16.5 4t15.5 -2.5t15.5 -4.5v-24q15 -6 25.5 -21t10.5 -32zM153 60q-5 5 -7.5 5.5
t-3 -1.5t-0.5 -5v-4l-11 -27q-1 -2 1 -6.5t7 3.5z" />
    <glyph glyph-name="J" unicode="J" horiz-adv-x="551" 
d="M581 509q0 -13 -6.5 -23.5t-15.5 -20.5t-19 -20.5t-16 -22.5q-13 -26 -21 -45t-16 -41q-23 -18 -37 -49t-14 -66q-5 -4 -9.5 -1.5t-7.5 7.5t-8.5 5.5t-10 -3.5t-6.5 -12t1 -20l20 5q2 -4 -0.5 -13t-6.5 -18l-22 16l-9 -9l7 -7q-2 -6 -5 -17.5t-5 -22t-0.5 -18.5t10.5 -7
q-3 -9 -8 -16t-14 2q-8 -10 -6 -16.5t12 -5.5q-1 -12 -10 -10.5t-17 7.5l-13 -12l8 -4q-3 -8 -4 -17.5t3 -20.5q5 11 10.5 21t13.5 12q-27 -70 -69 -136.5t-96 -118.5q-56 0 -96 24t-66.5 61.5t-39 84.5t-12.5 93q0 48 10.5 94t42.5 91q45 0 73 -36.5t28 -107.5l-35 -27
q-11 -22 -18 -46.5t-7 -43.5q0 -32 10.5 -50t35.5 -18q15 0 28.5 12.5t27 33t27 45.5t28.5 50q24 55 44 121.5t43.5 135.5t53 136.5t73.5 124.5q16 20 31.5 40t27.5 20q13 0 26 -8t28 -19q4 -9 8.5 -21.5t7.5 -25.5t5 -25t2 -21zM390 121q-4 1 -4.5 6.5t1 12t4 13t4.5 9.5
l7 -6zM345 109l11 -12q4 8 4.5 18t0.5 18zM220 -158l-14 -10l3 -10l11 13v7zM252 -97l4 -4l-15 -17l11 -2l20 28q5 6 6.5 11.5t-3.5 10.5zM285 -71l18 26q-8 1 -15.5 -1.5t-12.5 -10.5zM199 -148q0 -5 3 -11q11 4 22 11t22 21q-15 -3 -31 -6.5t-16 -14.5zM487 371
q-6 0 -13.5 -7t-13.5 -21l15 -3z" />
    <glyph glyph-name="K" unicode="K" horiz-adv-x="715" 
d="M719 485q5 -5 7.5 -4.5t7.5 0.5v-52q-13 1 -26.5 -6t-24.5 -17t-19.5 -18t-10.5 -8q-5 0 -5 1.5t1.5 4t2 4t-4.5 1.5q-6 0 -16.5 -9t-21.5 -23l-15 11q-11 -11 -29.5 -20.5t-38.5 -20.5q4 -5 11 -4t15 5q-4 -12 -10.5 -14t-8.5 -2q-10 0 -12 4.5t-8 4.5q-1 0 -14.5 -5.5
t-33 -14t-42.5 -18.5t-43 -19t-34.5 -15t-16.5 -7q10 -12 23.5 -24.5t28 -25.5t28 -24t22.5 -20l-7 -5q10 -5 24.5 -10t15.5 -13q0 -3 -5 -8q10 -8 17.5 -12t14.5 -7t13.5 -5.5t14.5 -7.5l-12 -10q21 -21 50 -16q13 -9 24.5 -21.5t24 -24t28 -19.5t37.5 -8q10 0 22 -4.5
t19 -10.5q-19 -3 -44 -4t-42 -1t-39 9t-46.5 21.5t-48.5 27.5t-44 27l-2 -11q-57 38 -115.5 79.5t-127.5 81.5q-12 -17 -22.5 -36t-21.5 -40q-5 2 -6.5 6t3.5 15h-11q-5 -6 -8 -13t-3.5 -14t2.5 -12.5t11 -8.5q-29 -66 -48 -142q-31 0 -54 20q0 16 -4 24l-8 -12q-8 11 -4 24
q-6 3 -14 3q-2 28 5 56t19 49l-9 7q26 67 59 134t68 131t71 125t69 117q21 3 36 -10.5t24.5 -32.5t13.5 -39.5t4 -31.5t-13.5 -33.5t-28.5 -47t-26 -45.5t-6 -27q60 29 114 55.5t113 51.5l4 -6q17 5 17 23q5 -5 8 -5.5t5 -0.5q5 0 7.5 4.5t-2.5 9.5h1q11 0 28.5 8t35.5 17
l34 17t24 8q11 0 25 -13.5t25 -36.5zM328 265l-15 -7q0 -8 7 -6.5t12 4.5zM717 511q-3 -2 -7.5 -8t-2.5 -11l15 7zM339 271l1 -10q4 2 9.5 4t10 5t8 6.5t2.5 8.5zM190 202q-6 1 -11.5 -3.5t-8.5 -9.5l-21 -34h13zM122 94q-3 -5 -7 -18t1 -18l14 30zM559 327q0 8 24 21l5 -8z
M663 22q-3 -4 -15 -3.5t-18 5.5l2 8zM608 62q-4 -7 -21.5 -1t-39.5 20l6 8zM620 29q-11 1 -18.5 7.5t-5.5 9.5l26 -9zM407 301q4 -1 7 -1.5t6 -0.5q14 1 23.5 8.5t12.5 15.5z" />
    <glyph glyph-name="L" unicode="L" horiz-adv-x="612" 
d="M672 237q1 -5 -9 -13t-26.5 -16t-37 -15.5t-39.5 -12.5q-16 -11 -27.5 -14.5t-19.5 -2.5q-9 0 -12 1.5t-5 3.5q-14 -14 7 -20t72 14q4 1 8 -0.5t1 -3.5q-7 -3 -17.5 -8.5t-21.5 -10.5t-21 -8.5t-15 -3.5q-17 0 -31 -4t-30 -9q-24 -8 -53.5 -19t-61 -23t-62.5 -24t-58 -23
q-10 -4 -23.5 -14.5t-22.5 -11.5q-9 -2 -24.5 -3t-25.5 -1q-12 0 -17 11h-23q-6 6 -11.5 13.5t-11.5 15t-11.5 12.5t-10.5 5h-12q4 44 21 94.5t41 103.5t54 105.5t60.5 100.5t59.5 89t52 70v16q42 0 63.5 -28.5t21.5 -64.5q0 -5 -8.5 -25.5t-19.5 -46t-22.5 -50.5t-18.5 -37
q-9 -16 -28.5 -36.5t-32.5 -38.5q-7 -10 -12 -26t-11 -27q-4 -8 -11.5 -15t-13.5 -14.5t-9.5 -16.5t1.5 -20q25 8 41 12.5t26 7t14.5 3.5t7.5 2q8 2 17.5 4t19.5 2q12 0 22.5 -4t16.5 -15q2 2 9.5 5.5t15.5 7t15.5 6t9.5 2.5q11 0 14.5 -2.5t14.5 -2.5q5 0 16 3t25.5 7
t29.5 8.5t28 8.5q2 -4 12 -5v-1q-23 -8 -50.5 -16t-47.5 -20l10 -6q12 4 28.5 11t34.5 14t35.5 13t30.5 9q9 -3 17.5 -8t9.5 -7q6 2 13 5.5t13.5 6t11 3.5t4.5 -2zM458 143q-20 -4 -49 -13t-61.5 -20.5t-64.5 -25t-58 -26.5l1 -4l248 82zM662 256q0 -5 -9.5 -10t-14.5 -9
q-8 6 -15 9q1 1 7.5 3.5t13.5 4.5t12.5 3t5.5 -1zM574 240q-2 -1 -6 1.5t-2 3.5l20 6q8 2 8.5 -0.5t-3.5 -4.5zM600 165q-9 -4 -14 3v1q22 10 35.5 15.5t21 8.5t11 2.5t6.5 -2.5zM382 181l22 12q-4 2 -11.5 2t-16.5 -6zM254 325q-8 0 -11 -6.5t-3 -11.5h14v18zM196 248
q-5 -14 -10.5 -25t4.5 -16l18 38z" />
    <glyph glyph-name="M" unicode="M" horiz-adv-x="875" 
d="M860 412q0 -11 -2 -22.5t-6 -21t-9.5 -14.5t-12.5 -3q-8 3 -14 -3.5t-10.5 -15.5t-7.5 -18.5t-5 -13.5h-16q0 -9 8 -12t15 -5q-4 -8 -11.5 -11t-16.5 -2l-28 -88l12 6l21 64l6 -16l-14 -50q-4 -14 -10 -23t-14 -9q-11 0 -11.5 -10.5t-3.5 -20.5l-7 9l-6 -6q4 -8 9.5 -17
t5.5 -18q0 -17 -14.5 -46.5t-27.5 -58.5l-17 15q-2 -2 -8 -4q-3 -1 -10 -1q-14 0 -28.5 10.5t-26.5 26t-19.5 32.5t-7.5 31q0 15 13.5 47.5t32 71.5t38.5 78.5t34 69.5l-3 8q-11 -7 -28 -14.5t-33.5 -16.5t-28.5 -19t-13 -22l-177 -151q-6 9 -12 11t-11.5 1t-12 -3.5
t-14.5 -2.5q-10 0 -17.5 8t-14 20.5t-11 27t-8.5 26.5q11 37 28.5 80.5t35.5 85.5l-10 20q-30 -25 -57 -60t-48 -68q-16 -26 -34 -57t-36.5 -64.5l-37 -67t-34.5 -62.5q-8 3 -4 13.5t9 21.5q-8 2 -14.5 -8.5t-11.5 -24.5q-5 -15 -4.5 -30t5.5 -26q-8 -6 -16 -6
q-15 0 -32.5 11.5t-32 27.5t-24 32t-9.5 24q0 9 14 36t34 60.5t42.5 69.5t39.5 63q39 63 79.5 118t91.5 93q7 11 18 26t23.5 28.5t26.5 23t28 9.5q21 0 36 -12t26 -30t19.5 -40.5t17.5 -43.5q-4 -20 -2 -45t10 -42q24 17 52 38.5t52 35.5q5 3 11 -0.5t10 -9.5q6 5 9.5 12.5
t-0.5 15.5q20 12 41.5 24t41 21.5t35.5 15.5t24 6q14 0 31 -10.5t33 -22.5q13 -30 24.5 -55.5t11.5 -50.5zM784 344l-11 -31q8 6 13.5 12.5t3.5 10.5zM768 288h-1q-11 -15 -22 -34.5t-11 -42.5q0 -5 0.5 -8.5t1.5 -8.5h1zM797 351l12 31q-11 0 -14 -8.5t-9 -22.5h11z
M723 194q-2 -2 -3 -7l-2 -10q0 -4 0.5 -7t0.5 -5q6 5 8.5 15.5t-4.5 13.5zM129 112l-11 -19l6 -6l11 21zM812 300h-11q3 6 9 12t10 8zM134 123l6 -5q4 8 6 11.5t-3 7.5z" />
    <glyph glyph-name="N" unicode="N" horiz-adv-x="753" 
d="M522 365q11 17 28 42t38 52t44 54.5t45 48.5q18 11 52 13q56 2 81 -16l-20 -14l2 -4q5 0 16 3.5t16 6.5l28 -30q-20 -9 -45.5 -26t-52.5 -38.5t-53 -47t-45 -51.5q-5 -6 -8 -1.5t-8 1.5q-2 -27 -15.5 -46t-31.5 -47q-4 -7 -4 -16t-5 -20q0 -5 -8 -9.5t-10 -11.5
q-19 -58 -43 -117.5t-48 -121.5l-45 21l-6 -14q-24 6 -38 14.5t-22 21t-12 30.5t-7 43q-2 20 0.5 48t-2.5 45q-9 26 -10.5 46t0 37t3.5 33t0 35l-5 39q-23 -8 -47.5 -30t-44.5 -57l3 -16q-19 -35 -37 -75.5t-35 -79.5t-34 -73t-34 -56h-28q-11 0 -19.5 10.5t-15.5 23.5
t-12.5 25t-9.5 14l-6 44q-4 23 1 35t10 26q27 64 60.5 116.5t68.5 96t70 79t65 65.5q11 -4 30 -15t38.5 -25t36 -29.5t21.5 -29.5q4 -11 8.5 -27.5t9 -35t8.5 -37.5t8 -34q25 44 55 91t57 86.5t48.5 66t29.5 29.5l21 3q-23 -23 -43 -47t-36.5 -46.5t-29 -42t-21.5 -32.5
q-13 -21 -11 -22zM665 400q2 2 -1.5 5t-5.5 1q-3 -5 -7 -10.5t-7 -11t-3.5 -10t3.5 -6.5zM645 517q1 -2 3 -4t5 -1l17 22l-8 4q-8 -7 -17 -21zM760 524l2 -9q8 5 13.5 8.5t3.5 14.5zM579 174l-9 6q1 11 3 21.5t11 6.5zM691 436q2 2 -0.5 6t-6.5 -1l-20 -26q7 1 9 -5z
M281 492l-22 -23q4 -4 8.5 -2.5t8.5 5t7 7.5t6 7z" />
    <glyph glyph-name="O" unicode="O" horiz-adv-x="654" 
d="M624 300q0 -25 -13 -55t-40 -52q4 -8 -0.5 -14.5t-12.5 -6.5l-7 13q-6 -2 -9.5 -5.5t1.5 -11.5q-8 0 -18.5 -6t-10.5 -14q0 -11 -10 -11t-19 -2q-8 -8 -15.5 -18l-16.5 -22l-11 10q-10 -6 -13.5 -11t-5.5 -10t-6 -9.5t-14 -9.5q-12 -6 -25.5 -7t-27.5 -4q-2 -2 3.5 -5
t4.5 -6l-18 -6l-28 17q-6 -4 -7.5 -9.5t-3 -11.5t-4 -11t-9.5 -8q-18 -6 -34 -11.5t-37 -12.5q-13 13 -26.5 10.5t-24.5 -10.5q-26 17 -55 38.5t-49 38.5q-18 14 -25 47t-7 69q0 61 23 114t58.5 97.5t79.5 79.5t86 59t77 37t54 13q22 0 36.5 -12t37.5 -30q0 -17 8.5 -32.5
t21.5 -29.5t29 -26.5t31 -22.5q29 -20 40.5 -54.5t11.5 -75.5zM365 68q0 10 -15 10q0 -2 -2 -6t0 -6q3 -2 8 -1t9 3zM463 398q-2 7 -4 10.5t-5 0.5q-6 -6 -11 -6t-8 4t-4 4q-20 0 -45.5 -10.5t-52 -28t-50 -40.5t-39.5 -48q-36 -17 -61 -57t-42 -92q17 2 37 4t34 7l180 75
q7 3 18.5 8.5t23 12t22.5 15t18 17.5l45 59zM404 107q-14 -7 -19.5 -12t-4.5 -13l29 15zM215 286q-11 7 -22 -0.5t-13 -15.5q0 -11 12 -12zM219 8q-7 11 -18 11l-6 -2t-6 -4zM440 115q-2 2 -4 8t-4 8l-16 -17l4 -11z" />
    <glyph glyph-name="P" unicode="P" horiz-adv-x="510" 
d="M545 459q0 -26 -9.5 -46t-26.5 -37.5t-41 -34.5t-53 -37l-8 7q-26 -15 -51.5 -31.5t-49 -28.5t-42 -17t-30.5 3q-5 -8 -11 -21l-12 -26t-10.5 -22.5t-6.5 -9.5t-2.5 4t-1.5 7t-3 3t-6 -7q-4 -8 -10 -18.5t-11 -22.5t-8.5 -24.5t-2.5 -23.5q0 -2 2.5 -2t5.5 1t5 1t1 -2
l-45 -131q-2 -8 -5 -22t-4 -24q-3 0 -14 3.5t-23.5 9t-24 12.5t-16.5 15q-12 18 -16.5 41t-4.5 38q12 37 31 86.5t41 102.5t45.5 105t43.5 96q-11 8 -21.5 17.5t-16.5 17.5q12 15 15 35l-25 6q5 8 13 13t14 9v16q36 -2 54 15t28.5 38.5t18.5 39.5t22 18q8 0 12.5 -1t9.5 -3
q11 -4 21.5 -8.5t23.5 -6.5q6 -15 12.5 -29t9.5 -31q23 -1 47 -2t51 -6q40 -6 62.5 -24t22.5 -61zM392 328q-3 -2 1.5 -5t12.5 2q7 4 17 9.5t17.5 11t12 10.5t1.5 9zM353 297q-5 5 -8.5 5t-7 -2.5t-8 -5t-10.5 -2.5h-13q-10 0 -17 -8.5t-9 -19.5q18 5 37.5 14.5t35.5 18.5z
M383 313q-4 4 -16 4t-18 -9q6 0 8.5 -4.5t8.5 -0.5zM482 377q0 2 -3 2.5t-7 -1.5l-7 -3.5t-5 -6.5q-1 -3 2 -3.5t7.5 1t8.5 4.5t4 7zM177 127q5 2 5.5 -1.5t-2 -10t-5.5 -14l-5 -12.5q-3 0 -7 -2.5t-6 -0.5q2 11 8.5 25t11.5 16z" />
    <glyph glyph-name="Q" unicode="Q" horiz-adv-x="736" 
d="M831 -162q-6 -9 -9 -18t-8 -17l-34 9h-4q-10 17 -21.5 30t-27.5 21l35 -48q-18 5 -30.5 18.5t-22.5 29.5t-18.5 32t-17.5 26q-10 11 -17 22.5t-13.5 23t-14.5 22.5t-19 21v14q-59 62 -106 124q-19 -12 -34 -30.5t-30 -31.5q-2 5 1 12t1 14q-11 -7 -23 -23.5t-26 -33
t-30 -29.5t-35 -13q-8 0 -15.5 0.5t-18.5 -3.5q-9 -10 -23 -14.5t-30 -7t-32.5 -4.5t-30.5 -7q-3 3 -6.5 7.5t-7.5 8.5t-7.5 6t-6.5 -2l-5 -7q-11 15 -24 30t-24 25l-3 -10l-21 11q-14 24 -23 55.5t-14 59.5q13 66 38.5 129t63.5 117t88.5 95.5t115.5 64.5q19 17 53 26.5
t62 9.5q14 0 27 -6.5t24 -15.5t21 -19.5t18 -17.5l12 -71h10q-5 -11 -6.5 -28.5t-10.5 -31.5q-8 -11 -24 -23t-32 -28q9 -16 16 -33t14 -33l-13 -14q1 -12 21 -47t51.5 -79.5t70 -91t76.5 -80.5q15 -14 32 -30.5t31.5 -35.5t24.5 -39t12 -41zM447 443q-33 0 -64 -18
t-58.5 -42t-49.5 -48t-37 -35q-6 -9 -13.5 -21.5t-14.5 -24.5t-13 -20t-10 -8q-13 7 -26 -5l16 -10q-5 -3 -10 -7t-7 -10l-31 -82h58q9 0 25 4.5t34.5 12t38 16t36.5 17t29 15.5t16 10q7 6 16 15.5t17 19t13.5 18t5.5 12.5q0 8 -9 19t-19.5 25.5t-19.5 31.5t-9 37
q0 13 10 21.5t25.5 14t33 7.5t32.5 1l12 34h-27zM213 282q-4 0 -9.5 -3t-11 -7.5t-9 -10.5t-4.5 -11q0 -7 3 -9zM384 67v1q-15 -5 -30 -12t-16 -15q-2 -4 5 -7zM168 17q-6 -5 -1.5 -12t12.5 -13l6 11zM260 18q0 -4 7.5 -6t15.5 3q-5 2 -8.5 4.5t-6.5 4.5q-8 -1 -8 -6z" />
    <glyph glyph-name="R" unicode="R" horiz-adv-x="621" 
d="M475 364q-16 -10 -23 -18t-13 -16t-14.5 -16.5t-27.5 -19.5q-11 16 -31 6.5t-43 -30.5q36 -33 73 -72.5t74.5 -74.5t75.5 -58.5t74 -23.5q18 0 35.5 2.5t33.5 5.5t29 6.5t21 5.5q8 -2 18.5 -9.5t16.5 -15.5l-28 -8t-28 -9l2 -2q10 0 20.5 -1.5t6.5 -4.5q-8 -6 -32.5 -19
t-52.5 -23q-6 -2 -0.5 -5t9.5 -2q31 11 60 29.5t52 34.5q7 -7 10 -13q-20 -18 -46.5 -36t-56.5 -32t-61 -22.5t-59 -8.5q-29 10 -58 23.5t-49 33.5q-12 12 -30.5 34.5t-40.5 50t-46 57t-47 55.5t-43.5 45.5t-35.5 27.5q-10 -14 -22 -34t-23 -42t-21 -43t-15 -36
q-2 -5 -0.5 -12t4 -15t4.5 -16t0 -15q-5 -17 -21.5 -30t-33.5 -30q-14 0 -30.5 10.5t-22.5 26.5l-15 41q9 6 8.5 8t-4 3.5t-8.5 4.5t-5 10q0 13 12.5 49.5t33.5 86t48 108.5t56.5 116.5t58 109.5t53.5 89q31 0 43.5 -11.5t16.5 -27.5t4 -33t6 -29q23 10 51.5 19.5t54.5 9.5
q32 0 57 -7l-7 -16q11 -3 20.5 -2t9.5 11l19 -8q-2 -8 -8 -14q6 -5 11.5 -4t7.5 9q15 -14 21.5 -26.5t6.5 -29.5q0 -9 -3.5 -19.5t-9.5 -15.5q-20 -18 -42 -39t-50 -45zM497 545q-8 3 -20 2t-17 -4l32 -5zM604 -46q-11 3 -14.5 -2.5t13.5 -10.5q14 2 29.5 6.5t26.5 8.5v1
q-4 0 -6 2.5t-4 4.5zM358 274l-6 9q8 6 18.5 9t14.5 -5zM154 163l-29 -53l5 -12l29 57z" />
    <glyph glyph-name="S" unicode="S" horiz-adv-x="515" 
d="M467 577q27 -7 40 -28.5t11 -50.5q7 -6 7 -14q0 -16 -21.5 -33.5t-50.5 -23.5q-8 10 -7 16t4 9.5t6 6.5t-1 7q-38 0 -68 -4t-57 -13.5t-54 -25.5t-60 -39v-15l42 -30q16 -11 32 -20t30.5 -17.5t28 -18t24.5 -21.5l11 7q22 -23 34 -49t10 -46l-6 -80l-17 4
q-22 -30 -61.5 -56t-84.5 -46q-48 20 -47 -19q-36 -14 -65.5 -20.5t-43.5 -6.5q-11 0 -27.5 11t-34.5 28q-30 6 -39 21t-5 29q-10 14 -16 26t-6 20q0 19 10.5 31t22.5 21q6 -5 14 -13.5t16 -16.5t16 -13.5t15 -5.5q18 0 43 5t52.5 15.5t56 26t52.5 36.5v10q-9 9 -17.5 20.5
t-16.5 21t-15 14t-14 0.5q-20 27 -31.5 37.5t-25.5 0.5q-11 9 -26.5 26t-19.5 38q-5 24 -11.5 49t-5.5 41q2 31 30.5 60.5t71.5 52.5t94 37t99 14q19 0 41.5 -1t41.5 -3zM485 428l25 17q0 -9 -3 -12.5t-13 -11.5zM290 444q-27 -8 -50 -19t-24 -23l74 41v1zM200 -5l-35 -15
l5 -7l30 10v12z" />
    <glyph glyph-name="T" unicode="T" horiz-adv-x="578" 
d="M450 546q50 11 100.5 21t85.5 15q32 -8 56.5 -23t34.5 -42q-13 -11 -9.5 -28t10.5 -28q-6 -4 -16 -7l-2 6q-8 4 -14 4q-7 0 -7 -7q0 -4 2 -8q-23 -5 -50 -6.5t-57 -4.5t-61.5 -9.5t-62.5 -19.5h-14v11q-12 1 -22 -12q-13 -2 -22 -5.5t-16 -12.5t-13.5 -23.5t-14.5 -38.5
q-2 -7 -9 -14.5t-12 -11.5l9 -5q-2 -8 -5.5 -18.5t-7.5 -20t-8.5 -15.5t-8.5 -6t-5 3.5t-0.5 7t0.5 6.5t-2 3q-8 -2 -10.5 -15t-6.5 -25q4 -10 5 -16.5t1 -12.5q-4 -10 -8 -22.5t-9 -12.5q-4 0 -5 3t-1 7.5t-0.5 9t-1.5 7.5q-7 -14 -12.5 -27.5t-10.5 -26.5l8 -5q7 13 19 10
q-14 -39 -26.5 -77t-20.5 -72q-18 -2 -35 0t-30 5l4 11q-10 3 -15 11t-7.5 19t-3.5 24t-2 28q-3 4 -5.5 10t-2.5 11q0 9 9.5 39t25 71t34.5 87.5t38 89.5h-78q-17 0 -26.5 -2t-17.5 -4t-15.5 -2.5t-19.5 2.5q-6 9 -11.5 21t-10.5 25t-8 26.5t-3 24.5q0 19 14 33q15 -2 38 -3
t50 -1t54.5 1.5t50.5 6.5q38 8 53 27t25 39t23.5 35t48.5 15zM324 286l-10 -18l6 -7l8 18z" />
    <glyph glyph-name="U" unicode="U" horiz-adv-x="655" 
d="M671 423q-8 1 -16 -1.5t-12.5 -6.5t-4.5 -9.5t9 -11.5q5 -3 0.5 -11t-13.5 -7l-14 7q-5 -9 -10 -19t-8 -18t-3 -14t5 -6l-11 -21q-7 0 -12 -5t-13 -17t-21.5 -32t-36.5 -48l8 -10q19 24 36.5 49t32.5 50q5 -7 4.5 -13t-2.5 -11q-35 -64 -74.5 -110.5t-79.5 -78.5
t-78.5 -51.5t-72 -30t-59.5 -14t-40 -3.5q-5 0 -6 1.5t-2 3.5q0 2 -1 3.5t-6 1.5t-5.5 -1.5t-0.5 -3.5q1 -2 0.5 -3.5t-5.5 -1.5q-21 0 -32.5 15.5t-22.5 28.5l-11 -5q-30 18 -44 50t-14 67q0 30 7 60.5t20 58.5q17 37 39 87t43.5 101t41.5 97.5t34 78.5q17 14 31 14
q8 0 17.5 -13.5t18 -30.5t15.5 -34t10 -25l14 10v-23q-11 -20 -24 -45t-26 -52t-25 -53t-22 -47q-8 13 -1 27q7 2 1 7t-9 1q-9 -13 -10 -23.5t0.5 -19t3 -16t-2.5 -15.5q-3 -7 -6.5 -14.5t-7.5 -16.5q-7 3 -13.5 -3t-10.5 -14q7 -3 18 4h1q-5 -11 -10.5 -24t-10.5 -24
q-3 5 -3 11.5t5 17.5l-6 6q-6 -11 -12 -23.5t-6 -21.5q0 -11 13 -12q-3 -8 -6 -15t-5 -13q76 0 133 26.5t101 71t78 102.5t65 122q2 7 11.5 6t16.5 4q7 4 4 9t-15 3q6 13 12.5 29.5t12 32.5t9.5 28.5t6 18.5q2 11 16 11q5 0 10 -5t12 -10q8 -7 16.5 -10.5t12.5 -5.5
q4 -8 5.5 -22t2.5 -29q1 -18 5 -32t20 -16zM229 379l-2 -4t0 -3l13 -8q3 4 6.5 11.5t6.5 16.5t4 16.5t-3 11.5zM226 12q5 0 11.5 1t11.5 2q-5 9 -13 12t-15 2.5t-11 -4t0 -7.5q5 -6 16 -6zM501 194q-11 -11 -18.5 -21t0.5 -20l28 31zM426 94q-18 1 -34 -11t-42 -26l2 -10
q16 8 38.5 22t35.5 25zM339 40q-2 5 -8 6t-11 -1q-6 -2 -13.5 -3t-13.5 -3.5t-9.5 -6.5t-2.5 -13q15 3 29.5 8.5t28.5 12.5z" />
    <glyph glyph-name="V" unicode="V" horiz-adv-x="585" 
d="M643 497q14 17 33.5 40.5t42.5 42.5q5 3 9 2.5t5 -4.5q-19 -15 -35.5 -37t-32.5 -45t-33 -43.5t-37 -33.5q-15 2 -22 -5t-10.5 -16t-6 -17t-9.5 -8q-11 0 -17 -11.5t-14 -22.5q-29 -41 -69 -86.5t-85 -92.5t-91 -94t-87 -92l-62 21q-13 23 -29.5 45.5t-17.5 53.5
q-1 14 0.5 48.5t3 79t4 94t5 94t4.5 79t3 49.5q0 9 -2.5 20t-4.5 22t-1 21t10 17q29 -12 49.5 -31t34 -43.5t20.5 -54t9 -60.5q-5 -13 -4 -24.5t3.5 -22l5 -21t1.5 -21.5l-11 -2q-8 -49 -21 -91l16 -44q75 68 137.5 141t122.5 154q16 -1 23.5 4.5t14 12.5t16 12t28.5 3
l39 42q6 7 15 6t12 -8q-4 -6 -13.5 -17t-22.5 -24.5t-28 -28.5t-30 -28q-3 -3 0.5 -4.5t9.5 0.5q14 12 32 28.5t34.5 33.5t29.5 31.5t18 21.5q5 0 9.5 3.5t10 7t11 5t12.5 -4.5q-8 -7 -18.5 -18.5t-8.5 -24.5q8 9 17.5 18t17.5 7l3 -1q-11 -13 -27.5 -34.5t-28.5 -41.5z
M167 274q-1 -6 1.5 -11t7.5 -5l2 16h-11zM517 391q5 -4 9 -5t7 -1q8 1 12 8t5 17zM180 281q0 7 2 14.5t-9 7.5l-4 -18zM634 484q-5 -2 -7 0.5t-3 0.5l-21 -21q-5 -2 -6.5 -5.5t-0.5 -6t4 -3t8 3.5q11 8 17.5 17t8.5 14zM690 586q4 7 9 14t12 7q5 0 9 -6q-4 -2 -8 -6l-12 -12
q-2 3 -10 3zM585 391l-9 8q6 16 17 9zM471 321l6 -12q13 14 13.5 22.5t-4.5 11.5z" />
    <glyph glyph-name="W" unicode="W" horiz-adv-x="845" 
d="M991 521q-12 -10 -24.5 -22.5t-25 -23t-26.5 -17.5t-30 -7q-19 -17 -42.5 -40t-46.5 -46.5t-44 -44t-34 -33.5l-15 13q4 -15 0 -28.5t-12.5 -26.5t-19 -25.5t-20.5 -27.5q-8 4 -2.5 12.5t11.5 18.5q-8 6 -16.5 -3.5t-16.5 -22.5t-12.5 -22.5t1.5 -19.5q-16 -18 -38 -46.5
t-45 -55t-44 -46t-34 -19.5q-5 0 -9.5 7t-9 16.5t-10 20t-13.5 17.5l-6 -7l-28 41q-5 7 -11 21t-12.5 30t-14.5 31.5t-16 24.5q-19 -23 -43 -58t-46.5 -68t-39.5 -56.5t-22 -23.5q-4 0 -10 6t-12.5 13t-12.5 13t-9 6q-7 0 -9 -5q-29 33 -41 89t-14 126q-3 78 2 162.5
t8 162.5l13 10q18 -9 32.5 -27.5t26 -40.5t19.5 -44.5t12 -39.5q6 -28 -0.5 -62t-14 -66t-9.5 -57.5t12 -36.5l142 194l23 8l53 79q4 6 6.5 15.5t4.5 18.5t6 15.5t11 6.5q16 0 33 -16.5t23 -36.5l25 -86q-13 -18 -24 -38.5t-21 -41.5t-21 -40.5t-24 -34.5q8 -1 15 -5.5
t13 -10t12 -10t12 -4.5q7 0 27 24t49 60t63.5 78.5t70 80t69.5 64t61 30.5q8 2 21.5 3t23.5 1q-7 -7 -10.5 -13.5t5.5 -9.5l45 35q5 -1 11.5 -6.5t8.5 -12.5l42 -7q-4 -8 -11.5 -16.5t-17.5 -15.5l8 -3q8 0 16.5 7t17.5 14t18 9.5t17 -7.5zM881 480l2 -9q8 5 13.5 8.5
t4.5 14.5zM819 433l2 -10q20 16 35.5 27.5t17.5 25.5zM677 267l6 -7q5 7 6.5 11t-3.5 9zM672 256l-13 -18l6 -6l12 19zM755 344q-11 6 -17.5 3t-10.5 -9.5t-5.5 -14.5t-2.5 -12h1zM350 398l11 2q8 10 14 20.5t1 18.5z" />
    <glyph glyph-name="X" unicode="X" horiz-adv-x="525" 
d="M350 307l12 -4q-16 -11 -29.5 -22.5t-24.5 -25.5h-17v-29q0 -25 13.5 -56.5t25.5 -54.5h9q10 -22 30 -45t42.5 -44t44 -39.5t36.5 -30.5q-15 -8 -37 -6t-36 12l-42 30q-11 3 -22.5 3.5t-20.5 -5.5q-12 10 -24 18.5t-20.5 16t-12.5 14t1 12.5q-35 26 -53 45t-26 37
l-48 -48q-5 4 -12 3t-12 -6l-73 -71q-15 -2 -31.5 -16t-34.5 -31t-36.5 -30.5t-36.5 -13.5q-3 0 -3 2q0 4 8.5 10t11.5 10q1 1 1 1.5t1 1.5l44 42l-2 12l-35 -32q2 17 2 36.5t8 39.5l33 31q3 11 8 20t12 19l14 -7l54 51q9 9 21 22t11 30q14 13 26 25t22 26q6 1 11.5 2.5
t9.5 6.5q0 2 -1 3.5t-1 3.5q-24 85 -24.5 167.5t30.5 167.5q6 5 14 8.5t13 -2.5l-17 -54q10 8 16.5 24t13.5 30q21 -3 33 -11t20.5 -16t15.5 -14.5t19 -7.5l11 -21q-6 -13 -11.5 -29t-9 -31.5t-6 -29.5t-2.5 -24l-6 -15l8 -5q24 24 50 51.5l52 55t51 53.5t48 47h16v-14
q4 2 8 6.5t9 9t12 7t17 1.5l-9 -16q35 -8 56 -23.5t21 -28.5q0 -9 -6 -14zM338 255h-14l24 22l8 -3zM367 -33l-24 17q15 7 41 -14zM-16 7l3 -10q8 4 11 10.5t3 13.5zM55 153l-7 7q5 4 8.5 7.5t8.5 7.5v-12zM18 118l-7 3q7 8 15 16.5t16 16.5l7 -7z" />
    <glyph glyph-name="Y" unicode="Y" horiz-adv-x="572" 
d="M381 110l-14 13q-8 -6 -15 -16t7 -28q-6 -9 -12 -20t-12 -23q-13 -6 -24 -17l8 -20l-4 -7l-12 16q-12 -17 -20 -38.5t-12 -44.5l19 -9q-3 -12 -4.5 -23.5t-2.5 -21.5q-6 -3 -14.5 -4.5t-16.5 -1.5q-25 0 -43.5 7.5t-30.5 18.5q-1 14 -14 14q-12 15 -10 21q6 31 20 64.5
t31 69.5t36 75.5t34 82.5l-7 6q-44 0 -83 19q-7 -11 -18 0l-66 65h-12q-23 33 -27.5 69t3.5 72.5t25 72.5t38 71l14 -6q3 8 6 11q5 5 9 5q2 0 11.5 -3.5t22 -8.5t25.5 -10.5t22 -9.5l16 -28q-3 -21 -10.5 -38t-16 -33t-15.5 -33t-9 -39l-15 -12q-5 -32 -1 -53.5t22 -44.5
q51 -5 88.5 15t60.5 52l106 149l8 -13l40 58q10 15 25 3q20 16 36 18.5t30 -4.5q-1 -9 3.5 -13t17.5 -6q17 -23 23 -59q-14 -36 -47 -73q-15 2 -23.5 0t-14 -7t-9.5 -13.5t-9 -18.5l14 -7q-29 -31 -55 -60.5t-36 -58.5l-14 13q0 -15 -5 -27.5t-12 -23.5t-14.5 -20t-13.5 -18
q-5 -8 -5 -18t-2 -19l-10 7q2 12 -4 17q-8 -14 -10.5 -23t11.5 -23zM269 -85l-3 -17l8 -4l6 16zM566 398q4 4 10.5 9.5t15.5 0.5q-5 -5 -10 -11t-10 -11zM374 64q-2 -5 -6.5 -7.5t-12.5 0.5l9 16zM292 -76q-10 7 -5 21.5t18 19.5l1 -1z" />
    <glyph glyph-name="Z" unicode="Z" horiz-adv-x="635" 
d="M771 95q3 -2 7 -5.5t4 -8.5q-48 -2 -101.5 -6t-101.5 -13q-8 -2 -11.5 -5t-5.5 -7.5t-4.5 -9.5t-8.5 -9q-2 4 -10.5 5.5t-15.5 -0.5l-2 -12q-14 -2 -22 -2.5t-14.5 -1.5t-14.5 -2t-22 -4q-12 15 -27 18.5t-30.5 -1t-30.5 -13.5t-27 -18q-23 0 -44.5 2t-42.5 5v-14
l-174 22q-25 32 -43.5 55.5t-18.5 49.5q0 23 20 47.5t52.5 50t74.5 52.5t86 54t86 55t76 56q-20 5 -43.5 2t-47 -6.5t-44 -3t-33.5 12.5q-5 -2 -6 -5.5t-2 -8.5q-11 -1 -22.5 -2.5t-23.5 0.5q-6 1 -16 12t-19.5 25.5t-16.5 27.5t-6 18t3.5 7.5t4.5 5.5t3 7t-2 12
q37 15 82 24t89.5 14t85 7t70.5 2q33 0 68.5 -3.5t60.5 -11.5q8 -22 10 -45.5t2 -43.5l12 -11v-15h-15q-6 -21 -21 -37t-33 -30.5t-37 -30t-33 -37.5l-8 11q-12 -11 -33 -24.5t-46 -27.5t-51.5 -29t-48.5 -30l-9 -19q-13 1 -30.5 -6.5t-33.5 -18.5v-15l-11 -9l-8 8
q-12 -12 -18 -24q42 -2 84.5 -2t86.5 2l8 -10l6 10q9 0 18.5 0.5t18.5 1.5q24 -8 36.5 -10.5t10.5 12.5q27 5 51 7t48 2.5t48.5 0t51.5 1.5q1 -5 -2 -12.5t-9 -9.5q-19 -1 -29 -1t-25 -2q-9 -1 -26 -3t-34.5 -5t-32.5 -7t-21 -8l1 -5q29 3 65 7t72.5 7t71 5.5t60.5 2.5
q6 0 8.5 -1t0.5 -3q-8 -3 -13 -8t-9 -15zM745 135q-18 0 -37 -0.5t-37 -1.5q-11 7 -13 12t-2 7q20 1 42.5 0.5t38.5 -1.5q8 -1 9 -6t-1 -10zM771 64q4 -2 2 -6t-7 -3q-40 0 -90 -5t-98 -11q2 6 16 10.5t34 8t43 5.5t44 3t36.5 0.5t19.5 -2.5zM758 136q2 5 3.5 9t6.5 5
q8 2 13 -2l10 -8q1 -1 -2 -2.5t-10 -1.5h-21zM407 5q-15 -2 -25.5 -2.5t-21.5 -1.5q11 14 23.5 13.5t23.5 -8.5v-1zM409 464l-10 -3l13 -20l8 7zM797 82q-7 5 -7 13l29 1q8 -1 20 -2t12 -6q0 -3 -10 -3z" />
    <glyph glyph-name="bracketleft" unicode="[" horiz-adv-x="467" 
d="M411 -61q-33 -10 -72.5 -24t-81 -27t-81.5 -22.5t-73 -9.5q-14 14 -35 28.5t-37 22.5q-4 14 -13 25t-9 25q0 25 7.5 54t7.5 59l15 10l108 254q18 16 31.5 40.5t27 56.5t29.5 71.5t37 86.5q9 5 18 9.5t18 9.5q2 -10 11 -16l8 26q56 29 114.5 52.5t109.5 31.5
q18 -16 34.5 -31.5t16.5 -36.5q0 -8 -3.5 -18t-9.5 -18t-13.5 -13.5t-14.5 -5.5q-11 0 -24.5 3t-39 4t-68 -4.5t-111.5 -21.5q11 -23 14 -45t-1.5 -46.5t-16.5 -53.5t-30 -66q-5 -9 -9 -17.5t-9 -18.5q-4 0 -9 2.5t-7 -2.5l-13 -31q-2 -3 0 -5t4 1q7 13 10 15.5t7 2.5
q-5 -11 -7.5 -20t-10.5 -16q-6 -2 -6.5 2t-2.5 8q-5 -14 -16 -28.5t-18 -29.5q-3 -7 4 -4.5t12 -2.5q-10 -25 -19 -41t-20 -36q-4 -7 -12.5 -5t-16.5 4q-5 -9 -10.5 -19t-10 -19.5t-6.5 -17.5t1 -11q11 -11 3.5 -31t-22.5 -53q22 -9 53 -12t65 -3.5t69.5 0t68.5 -1.5
q0 -4 -14 -6t-23 -3q-2 -2 -2.5 -5t3.5 -3l48 4q4 0 1 4.5t0 9.5q11 -1 21.5 -2t20.5 -3v-16zM163 137l18 39q-2 2 -4.5 1t-3.5 -3l-18 -31z" />
    <glyph glyph-name="backslash" unicode="\" horiz-adv-x="452" 
d="M409 -121l-10 -5q-12 30 -26 57.5t-28 54.5t-26.5 55.5t-20.5 60.5q-25 57 -54 120.5t-60.5 126.5t-64.5 123t-64 110v38q11 11 23 11q7 0 18.5 -2.5t23.5 -6.5t23 -9t17 -11l18 3q41 -66 76 -136t52 -151q20 -28 32 -60.5t22 -64.5l-10 -5q9 -15 13.5 -26t-1.5 -23
q11 -9 16.5 -17.5t10.5 -18.5q3 -8 4.5 -15t3.5 -15q-5 2 -9.5 1t-6.5 -3l21 -23q3 -18 4.5 -36t6.5 -35t10 -34.5t7 -34t1 -30.5t-8 -24z" />
    <glyph glyph-name="bracketright" unicode="]" horiz-adv-x="467" 
d="M430 551v-46q-17 -54 -40 -102t-47 -93.5t-46.5 -89t-38.5 -87.5q-8 -20 -14.5 -40.5t-13.5 -42.5q-6 -4 -10.5 -10.5t-6.5 -13.5q-2 -8 -9.5 -29t-13.5 -37l8 -20q-9 -35 -22 -65q-15 -5 -70.5 -4.5t-140.5 4.5q1 9 -3 12.5t-10.5 3t-13.5 -4.5t-10 -9q-44 3 -100 12
l-3 13l36 9l60 -11l3 10q-8 3 -20 3.5t-10 5.5q38 9 73.5 17.5t64 16t48 15t25.5 15.5q4 6 12 9t16 4.5t15 1.5h10l-18 34q8 8 8 15.5t-13 13.5q12 27 30 66.5t38.5 86t42.5 97.5t42 100t36 93.5t26 79.5l-41 6l-10 -11q-12 9 -27 9.5t-32 -5t-35 -14t-36 -17.5
q-12 8 -26.5 16.5t-26.5 18t-20.5 20.5t-8.5 23q0 18 9.5 26t19.5 16q33 6 68 8.5t69.5 4t66.5 1.5h58q11 -7 19 -16t14 -20q9 -2 13.5 -9t5.5 -17l6 -67zM260 171q4 11 9 22t8 20.5t3 16.5t-6 10q-8 -15 -13 -35.5t-2 -33.5h1z" />
    <glyph glyph-name="asciicircum" unicode="^" horiz-adv-x="625" 
d="M535 398q-3 -11 -7 -15.5t-9 -7t-10 -4.5t-9 -8q-24 10 -36 23.5t-20.5 29.5t-17 33t-24.5 33q-31 -8 -62.5 -27.5t-59 -40t-49.5 -36t-33 -15.5t-28 18.5t-39 36.5q12 23 -3 43q19 17 52 38.5t68.5 41.5t68 37t50.5 25l15 -11l17 8q16 -18 32.5 -40.5t33 -46.5t32.5 -48
t30 -46l-13 -10l21 -11v0z" />
    <glyph glyph-name="underscore" unicode="_" 
d="M414 -75l-28 -100h-500l28 100h500z" />
    <glyph glyph-name="grave" unicode="`" 
d="M490 647q-10 -5 -17.5 -6.5t-15.5 0.5t-17 7t-21 14q-3 -9 13 -20t37 -26l-12 -7q-26 20 -67.5 44.5t-86.5 44.5l-9 -6q-29 14 -65 29t-64 25q0 15 8.5 31t21 28.5t26.5 20.5t24 8q21 0 55 -15t66 -36.5t55 -45t23 -40.5q9 -9 23.5 -24.5t22.5 -25.5z" />
    <glyph glyph-name="a" unicode="a" horiz-adv-x="569" 
d="M528 195q-14 -2 -27.5 -4t-26.5 -4q-3 -6 -4.5 -17t-3.5 -22.5t-6 -23t-12 -18.5q11 -6 7 -21t-14 -24q5 -11 5 -22t-16 -32q-1 -3 4 -1t7 4q-2 -26 -7 -47t-13 -44q-12 0 -22.5 4.5t-20.5 9.5t-18 8.5t-14 1.5q1 15 -2 21.5t-14 6.5l1 14q9 0 10 10q-9 0 -9 10
q2 17 8.5 38t11.5 44q5 0 6 -8.5t0 -19.5q3 0 6 7t6 16.5t5 20.5t3 20l-12 5q-1 -12 -2.5 -24.5t-10.5 -8.5q1 5 2 13.5t2.5 17.5t2.5 17t2 13l17 -21q-1 9 1.5 14t0.5 16q-21 1 -57 -12t-74 -31t-71.5 -36.5t-50.5 -30.5l-5 -13l4 -12q-13 -26 -24.5 -53.5t-23.5 -43.5
l-63 27q-1 12 -8 20.5t-14.5 16.5t-12 15.5t-0.5 17.5h-16q8 57 40 115t74.5 114t88 109.5t80.5 100.5t69.5 79.5t63.5 55.5q3 2 8.5 2t11.5 0.5t11 3t6 9.5q10 -3 27.5 -11t28.5 -17l-18 -6q0 -6 3.5 -6.5t8.5 1l10 3t7 0.5q14 -12 18.5 -27.5t6 -31t2.5 -30.5t8 -26v-16.5
t-2 -32t-5 -33t-9 -18.5q2 -2 3 -2t3 -2q-5 -17 -9.5 -37.5t-6.5 -41.5q0 -5 5.5 -13t12 -20t12 -26.5t4.5 -30.5zM444 491q-7 0 -19 -10t-26 -26t-30.5 -36.5t-32.5 -41.5l-5 5l3.5 10.5t-1.5 7.5q-12 -14 -16.5 -23t2.5 -23q-23 -30 -42 -54q-14 -17 -32.5 -45.5
t-35.5 -53.5q15 9 30 23t45 27q26 11 45.5 16t46.5 13q2 20 8 34t9 25l17 -15q4 12 9 31.5t10 42t9.5 44.5t8.5 39zM388 293q-3 -9 1 -10.5t9 -0.5l1 11h-11zM397 309l-4 1l-4 -11h9zM357 52l-4 -13h6l4 16zM222 129q-5 4 -13 2.5t-17 -6t-18.5 -9.5t-16.5 -9q-4 -5 -6 -9
t-5 -9zM234 135q7 4 17 8.5t18 9.5v1q-17 -1 -24.5 -4t-10.5 -15zM426 432h-9l8 27l9 4zM167 125q3 2 15.5 7.5t17.5 16.5q-6 -2 -11 -3.5t-10 -3.5z" />
    <glyph glyph-name="b" unicode="b" horiz-adv-x="616" 
d="M262 225q-15 0 -29 7t-23 7q-8 0 -11 -3.5t-7 -3.5l10 -8q-4 -7 -9 -13t-10 -6q8 -11 4.5 -23t-9.5 -27q-6 -5 -13 -9.5t-10 -11.5q10 0 9 -3.5t-4 -6.5q-8 -6 -10.5 -12.5t5.5 -20.5l17 21l-1 -31h-7q-4 -10 -4 -18q33 15 57.5 23t32.5 0q4 10 16 17.5t29 16.5
q4 -7 6.5 -7.5t5.5 1.5t5.5 5t6.5 3q6 0 13 0.5t10 13.5q32 15 66 35.5t63 58.5q-33 13 -58.5 13.5t-48.5 -3.5t-47 -9.5t-55 -5.5zM175 453q7 20 16.5 43.5t20.5 46.5t22 44.5t22 37.5h18q15 0 25.5 -5.5t17.5 -13t11 -15.5t6 -13h-14q0 -9 3.5 -18.5t8.5 -9.5q10 0 20 4
t20 10t20.5 12t22.5 10q14 5 32.5 8t26.5 3t16.5 -9.5t16 -23t14 -28.5t9.5 -25q-8 -1 -12 -5.5t2 -12.5q-6 -9 -11.5 -20.5t-11.5 -21.5t-12.5 -16.5t-13.5 -5.5q-5 0 -13 -5.5t-16.5 -12t-16 -12t-11.5 -5.5q-14 2 -25.5 -10.5t-26.5 -24.5l-7 5q-8 -6 -22 -16t-21 -19
l4 -3q24 2 55.5 4.5t58.5 2.5q37 0 66.5 -17t52.5 -34q6 -9 12 -23t12 -29t11 -30.5t9 -27.5q-5 -3 -10 -1.5t-10 -0.5q-5 -8 -21.5 -22.5t-34.5 -29t-33 -25.5t-17 -11q-17 1 -35 -4t-35 -13l4 -15q-9 -8 -19.5 -13t-21 -7.5t-19.5 -1t-14 6.5q-4 -4 -6.5 -11t-4.5 -13
q-40 -22 -74 -37t-57.5 -26t-35 -19.5t-7.5 -16.5q-9 -8 -21 -8q-8 0 -15.5 4.5t-15.5 10.5t-17 11.5t-20 7.5q2 8 0.5 15t-10.5 2q2 11 0.5 25t-5.5 25q13 6 26.5 12t26.5 13q-14 4 -23.5 14t-20.5 15l9 15q-8 6 -11 11.5t-6 12.5l102 273q-12 6 -15.5 16.5t-1.5 24.5z
M378 263l-1 -8q8 -2 14 -1t7 6zM461 98l-16 -5q-1 -5 7 -5t11 1zM192 -18l5 -5q2 -1 5 -1t8 5zM377 46q8 0 14 12q-7 1 -16 -2t-13 -6q7 -4 15 -4zM163 179q0 -11 -7 -18l4 -7q14 12 14 25h-11zM242 -4q-8 -3 -14.5 -2t-10.5 2q0 -4 4.5 -8.5t12.5 -4.5t10 6.5t-2 6.5z
M150 84q-5 2 -8 0t-7 -7l7 -4zM179 128q-5 3 -2 8q1 6 7 13.5t11 11.5zM411 53q0 16 19 16q5 0 10 -3zM537 152l19 16q-4 5 -12.5 0t-13.5 -8zM197 170q-4 2 1 17.5t10 25.5l6 -5z" />
    <glyph glyph-name="c" unicode="c" horiz-adv-x="534" 
d="M523 477q-31 -8 -65 -22t-60 -33q-22 -16 -38 -32t-25 -24l-6 10q-8 -14 -32 -34t-45 -39q-1 -4 -3 -10.5t-4 -10.5q-7 -7 -26 -29.5t-39.5 -50.5t-36 -56t-15.5 -46q0 -19 16 -19q13 0 34.5 4t46 9t50 11t48.5 9q11 2 18.5 -1.5t11.5 -8.5q-18 -4 -38.5 -8t-39 -9
t-32 -11.5t-17.5 -13.5q14 -9 35 -4.5t32 15.5q40 8 86.5 17t84.5 14l16 -4l24 3l11 -7l-52 -8q-10 -2 -17.5 -5.5t-0.5 -13.5l7 -10q-3 -2 -23.5 -8t-48 -14.5t-58.5 -18t-56 -17.5q-8 -3 -12.5 -9.5t0.5 -11.5q-16 -4 -37.5 -9t-38.5 -5q-8 0 -15 8t-15 8q-9 0 -15.5 4
t-12.5 8t-14 7t-20 2q-7 6 -16.5 20t-19 29t-17.5 28t-11 19q-4 6 -5.5 16t-1.5 18v27q12 11 14.5 25.5t2.5 30.5l10 -6q5 8 2.5 18t1.5 18q8 16 18.5 35t21.5 35.5t20 27.5t14 11t5 -2.5t-1 -5t-1 -5t5 -2.5q4 0 9.5 8t11.5 18t12 18t10 8h12q-2 5 -3 13t-2 15h7
q6 16 25 35t44 38.5t53.5 38t54.5 33t46 23t29 8.5t24.5 -6.5t26.5 -12.5q5 -12 12 -23.5t13 -23.5t9.5 -25t0.5 -28zM387 21q-14 -8 -28 -15t-27 -7q-8 0 -14 3q14 6 33 10.5t36 9.5v-1zM293 -17q-11 0 -19 4l33 11q9 -7 3 -11t-17 -4zM127 331q-11 4 -18 -8l10 -6z
M165 223l-12 -19q-3 -5 -8.5 -15t-1.5 -17l31 46zM124 158l-7 -14l6 -8l11 22h-10zM465 64l-10 12l27 4l13 -6zM399 112q-14 0 -25.5 1.5t-17.5 4.5q30 5 59.5 10t52.5 7q-4 -13 -25 -18t-44 -5zM221 280q16 16 18.5 21t2.5 8q-8 0 -15 -6.5t-15 -16.5zM207 280l-6 -10l7 -6
l8 10zM105 316l-14 -23l9 -7l13 21z" />
    <glyph glyph-name="d" unicode="d" horiz-adv-x="665" 
d="M670 377q-13 -20 -29.5 -44.5t-33.5 -40.5q-5 -5 -13 -8.5t-14 -2.5l15 16q-5 2 -11 1t-11 -6t-16 -14t-26 -21l18 -4q-41 -35 -86 -68t-91 -62t-92.5 -54t-89.5 -44l-9 -55q-14 8 -26.5 4t-28.5 -4q-23 0 -39 11t-27.5 26t-20 31.5t-16.5 27.5q7 18 8 38l25 11
q11 5 18.5 11t12.5 19q12 28 19 54t16 59l-4 15q11 34 28 61.5t19 56.5q0 10 -5.5 19t-12 17.5t-12 17t-5.5 17.5q0 10 8.5 17.5t20 13.5t24.5 11.5t23 10.5l10 -7q18 19 28.5 45.5t20.5 50.5t22 41t32 17q3 0 10.5 -9.5t16 -21.5t15 -24t8.5 -17q3 -12 -1.5 -26t-7.5 -30
q26 0 55 4t67 -1q-4 -7 -1 -10t8 -2.5t11 4t8 8.5q8 -6 25.5 -6.5t34.5 -5.5q34 -11 54 -29t30 -39t13 -42.5t5 -37.5zM599 319l-8 -9l13 -3l8 9zM568 446q-63 0 -108 -8.5t-77.5 -20.5t-56 -24t-43.5 -18l-1 -31q-3 -4 -8 -7t-10 -8v-1q6 5 9 0.5t3 -11.5t-2 -14t-5 -7
q-7 1 -13 6v-1q5 -8 7 -21q-1 -17 -11.5 -38.5t-14.5 -50.5q13 8 34 18.5t44 22.5t46.5 26t42.5 30q3 -3 6.5 -3.5t8.5 -2.5l-6 14l9 6q5 -8 10 -8q8 0 23 13t41 44q10 -3 23 6t25 24t19 33t5 32zM507 241l-33 -18q5 -3 10.5 -4t10.5 4l21 15zM479 211q-14 0 -26.5 -6.5
t-27.5 -16.5q-17 -11 -41 -25t-48 -29q-1 -5 -3.5 -9.5t-7.5 -7.5q-11 11 -29 -6q11 0 23 -7q43 26 84 55t76 51v1zM237 63l51 25q-3 2 -4.5 7t2.5 10v1q-11 -6 -26.5 -20t-22.5 -22v-1zM194 51l-2 -10l28 15l5 12z" />
    <glyph glyph-name="e" unicode="e" horiz-adv-x="537" 
d="M570 491q1 -8 -9 -13t-17 -11q-34 -15 -68.5 -24.5t-68.5 -16l-68 -13t-67 -15.5q-8 -14 -18.5 -31t-23.5 -37q15 1 36.5 7.5t43.5 13t41.5 12t30.5 5.5q22 0 32.5 -9.5t26.5 -36.5q-6 -17 11 -26l-7 -22q-23 -4 -59.5 -10t-74.5 -13.5t-72.5 -16t-53.5 -16.5
q-10 -4 -19 -24t-15.5 -43.5t-11 -45.5t-4.5 -31q12 -9 26 -12t28.5 -2.5t28 3t24.5 5.5l6 -10q5 0 10.5 3.5t5.5 8.5q6 1 10 -2.5t7.5 -7.5t7.5 -7t9 -1q49 14 101.5 31t90.5 29q7 2 8 -1q2 -4 -6.5 -8.5t-14.5 -7.5l-68 -25q5 -3 12 -7.5t12 -7.5q5 -2 -2 -4
q-38 -13 -82 -25t-86 -23q11 -5 26.5 -5.5t29.5 3.5q30 8 68.5 21t75.5 26q2 1 5.5 1.5t-0.5 -7.5q-9 -15 -28 -22q-24 -9 -51.5 -19t-55 -18t-54 -13t-49.5 -5q-44 0 -80.5 10.5t-63 34t-40.5 61.5t-12 93q1 28 12 59.5t29.5 70t43 85t51.5 103.5q-4 19 -2 37.5t16 38.5
q19 -2 34 8.5t28.5 24.5t26 26t25.5 12q7 0 19.5 -2.5t25.5 -5.5t24 -6.5t16 -4.5q2 -34 -18 -72q6 -2 17.5 -3.5t24 -2.5l25 -2t20.5 -1l9 -19q4 0 10.5 3t14.5 3t23 -5t26 -7q2 0 3 -1t-1 -3q-15 -14 -27.5 -18t-20.5 -6t-12 -5.5t-1 -14.5q23 9 42.5 15.5t40.5 16.5
q3 2 6.5 5t4.5 -2zM487 494q-1 4 -8.5 5t-12.5 -1l3 -12zM139 182h1l10 12t8 14q-10 1 -13.5 -3t-5.5 -12v-11zM121 118q-3 -14 -3 -23t6 -14l5 27zM429 114q-9 -11 -26 -16t-31 -4q-21 -16 -43.5 -23t-31.5 7q35 8 68 18.5t61 21.5q3 2 4 0t-1 -4zM242 394l-17 -28l13 3
l17 28zM219 352q-5 0 -13 -8.5t-10 -16.5l13 2zM137 175l-11 -37l7 -9l14 47z" />
    <glyph glyph-name="f" unicode="f" horiz-adv-x="517" 
d="M577 282q1 -8 -3 -14.5t-16 -9.5l-61 -16q7 -8 23.5 -6.5t37.5 6.5l-5 -12q-26 -8 -56 -18.5t-59 -20t-56 -16.5t-48 -9l-116 -11q-19 -8 -33 -24t-27 -38l6 -9q-6 -12 -14.5 -28.5t-16.5 -34t-16 -34t-14 -29.5l-8 5q-5 -8 -2 -16.5t3 -17.5q0 -8 -5 -18.5t-11 -21.5
l-37 -12q-11 -4 -17.5 2.5t-11.5 14.5l-8 -7q-9 9 -12 17.5t2 14.5q-6 10 -10 19t-6 19q12 24 24 54.5t22 52.5q23 48 -16 72l-8 48q8 3 17 12t11 22l58 17l-6 10q11 3 15.5 9t6.5 14.5t4 20t7 24.5l93 232q9 22 22.5 44.5t36.5 35.5l56 31q26 0 55 -14t53 -38t40 -56.5
t16 -68.5q0 -23 -6.5 -41t-14.5 -29q-11 2 -19.5 8.5t-16.5 8.5q0 20 -7.5 39.5t-20.5 33.5q-22 -9 -40.5 -31.5t-36 -52.5t-35 -64.5t-36.5 -66.5q3 -3 9 -3t12.5 0.5t14 -0.5t15.5 -5l-31 -7l9 -7q23 3 51 7.5t50 7.5q4 1 8.5 -4.5t-2.5 -7.5q-5 -2 -9.5 -5t-4.5 -9l79 15
l18 -11l28 6q5 1 10.5 3t7.5 9zM483 226q-5 6 -11.5 7t-15.5 0q-23 -2 -33.5 -7t-24.5 -9q-2 -1 -2 -5t2 -3q49 13 55 8zM53 106q0 6 -13 13l5 -26q8 8 8 13zM386 206q3 1 2.5 5.5t-2.5 3.5q-9 -3 -17.5 -3t-10.5 -4q-2 -2 -2 -6t2 -3zM169 133q-2 0 -7.5 -2.5t-10.5 -6
t-9 -8t-4 -8.5t3.5 -6.5t7.5 -2.5zM133 116q-5 -2 -11 -8t-11 -16q-2 -5 -1 -12.5t4 -11.5zM105 -2q-10 0 -16 -8l-7 -14l7 -7z" />
    <glyph glyph-name="g" unicode="g" horiz-adv-x="590" 
d="M44 282q7 6 21.5 34t38.5 64t59 73t82 61q8 4 8 10.5t9 12.5q22 14 41 23.5t39 15.5t44.5 9t58.5 3q24 -6 35.5 -17t19 -23t15.5 -24t24 -22q0 -11 -5.5 -18t-13.5 -15q7 -2 12 -7t8 -10q-2 -9 -9 -11q-7 7 -21 16t-31 9q-27 0 -63.5 -14t-75 -38t-75 -55.5t-64.5 -67
t-43 -73.5t-11 -73q27 -5 58.5 -3.5t60.5 5t52.5 9t32.5 10.5q10 5 19.5 15t15.5 20q20 31 46 63.5t50 57.5q3 -3 6.5 -5.5t7.5 -4.5q-6 -7 -12.5 -18.5t-4.5 -16.5l25 30q8 -4 15.5 -7.5t14 -9.5t10.5 -15.5t6 -24.5q9 0 9.5 -7.5t-1.5 -17.5t-4.5 -19.5t0.5 -13.5
q-27 -27 -45.5 -44.5t-31 -29t-20.5 -18t-14 -11.5q-7 -20 -16 -45.5t-20 -52.5l4 -7q12 23 20.5 45.5t16.5 43.5l11 5q-20 -48 -39.5 -104t-45.5 -101q-3 -6 -3 -10.5t0.5 -9t0.5 -9.5t-3 -12q-6 -13 -14 -28.5t-23 -15.5h-17v13q-32 -7 -49.5 8t-23.5 36l25 44
q-12 -3 -18 -12t-10 -20h-17q20 42 35 75.5t29 65.5q6 13 11 17t8.5 8t5.5 11.5t2 28.5l-18 -6q-11 13 -32.5 7t-39.5 -20q-32 0 -56.5 3.5t-44.5 13t-35.5 27t-29.5 44.5h-12q-14 38 -9 71t16 66zM517 281q-8 16 -15 7l-20 -27q11 2 19.5 8.5t15.5 11.5zM137 187
q-12 -14 -12 -25q0 -10 10 -13z" />
    <glyph glyph-name="h" unicode="h" horiz-adv-x="650" 
d="M389 -39q5 -11 17.5 7t29.5 53q5 -3 4.5 -9.5t-3.5 -14.5t-8 -17t-9 -17q-6 -11 -11.5 -25t-11 -27t-11 -22t-11.5 -9q-10 6 -25 16t-28.5 23t-23 28t-9.5 32q0 22 7.5 49.5t18.5 55.5t24 54t24 47l-5 9q-9 0 -27.5 -2t-37.5 -4t-35 -4t-19 -2q-5 7 -13 7q-12 0 -18.5 -8
t-11.5 -19q-7 -17 -16 -45.5t-18 -59.5t-16 -59.5t-11 -45.5q-16 0 -22.5 7t-15.5 16l-2 -1q-1 -1 -3 -1h-5q-3 0 -5.5 1t-5.5 2l5 12q-23 15 -29.5 29.5t-5 32.5t8 40.5t11.5 51.5q-17 4 -39 2.5t-42 -1.5q8 15 22 20.5t28 12.5l-16 9l58 24q5 11 10.5 18t10.5 18
q14 25 21 56t21 57q18 33 37.5 67.5t39 68.5t36 66.5t28.5 61.5q3 2 3.5 5t10.5 3q20 0 30.5 -5.5t17.5 -13.5t13 -18.5t17 -20.5q0 -13 1 -24.5t1 -24t-1.5 -27t-7.5 -33.5h-7q-8 -24 -29.5 -58t-37.5 -67q-14 -7 -22.5 -20t-8.5 -27l21 6q21 25 49.5 31t57.5 6
q10 0 23.5 -3.5t24.5 -7.5q47 58 79.5 123t67.5 131q7 12 23 12q13 0 22 -8.5t15 -21.5t8.5 -29t2.5 -30q0 -17 -3.5 -35t-15.5 -27q-2 -21 -10.5 -39.5t-25.5 -28.5q3 -7 -0.5 -17t-10 -21.5t-14 -23t-13.5 -21.5q-10 3 -21 -5t-16 -17t-13 -24.5t-15 -29.5q-2 -3 2.5 -5
t8.5 6l12 25q4 8 10 13t13 4q-24 -43 -40.5 -86t-45.5 -85l-11 4q-3 2 -8.5 -1.5t-8.5 -8.5t-8.5 -13.5t-11.5 -19.5q-7 -11 -3.5 -25.5t4.5 -22.5q-5 -9 -13 -17t-8 -18zM428 37q-2 -3 -3.5 -3t-1.5 2l-1 11l15 22q4 6 7 3l3 -3zM499 191q-3 1 -7 -1t-6 -5l-41 -80
q9 1 15.5 11t11.5 20zM394 4q-2 0 -6.5 -0.5t-6.5 -5.5l-10 -20l6 -8zM304 119l11 -4q-5 -20 -12.5 -28t-9.5 -8zM-26 142l-19 -4q0 2 7.5 8.5t14.5 12.5q2 2 3.5 1.5t-0.5 -3.5zM190 177q-7 0 -11.5 -8.5t-8.5 -18.5l9 -3z" />
    <glyph glyph-name="i" unicode="i" horiz-adv-x="360" 
d="M385 547q0 -20 -2.5 -45t-6.5 -48h-11q-10 -14 -19 -33t-18.5 -38t-22 -36t-29.5 -26l4 -12l-39 -22q-29 -42 -45 -90.5t-33 -91.5q-2 -6 -7.5 -15.5t4.5 -12.5q1 0 3 3t3.5 7l3 8t1.5 5q9 19 16.5 42.5t16.5 47t19 45t24 36.5q5 2 6.5 1t0.5 -3t-2.5 -4.5t-2.5 -3.5
q-26 -45 -42.5 -94.5t-38.5 -102.5q-15 -35 -20.5 -65t-1.5 -45q-27 9 -50 22v32q-10 -8 -11 -24q-17 13 -31 31t-24 44q0 45 14 94.5t37 100.5t51 102t57 98t55 88.5t44 74.5q5 6 13.5 10t16.5 4t15.5 -2.5t15.5 -4.5v-24q15 -6 25.5 -21t10.5 -32zM153 60q-5 5 -7.5 5.5
t-3 -1.5t-0.5 -5v-4l-11 -27q-1 -2 1 -6.5t7 3.5z" />
    <glyph glyph-name="j" unicode="j" horiz-adv-x="551" 
d="M581 509q0 -13 -6.5 -23.5t-15.5 -20.5t-19 -20.5t-16 -22.5q-13 -26 -21 -45t-16 -41q-23 -18 -37 -49t-14 -66q-5 -4 -9.5 -1.5t-7.5 7.5t-8.5 5.5t-10 -3.5t-6.5 -12t1 -20l20 5q2 -4 -0.5 -13t-6.5 -18l-22 16l-9 -9l7 -7q-2 -6 -5 -17.5t-5 -22t-0.5 -18.5t10.5 -7
q-3 -9 -8 -16t-14 2q-8 -10 -6 -16.5t12 -5.5q-1 -12 -10 -10.5t-17 7.5l-13 -12l8 -4q-3 -8 -4 -17.5t3 -20.5q5 11 10.5 21t13.5 12q-27 -70 -69 -136.5t-96 -118.5q-56 0 -96 24t-66.5 61.5t-39 84.5t-12.5 93q0 48 10.5 94t42.5 91q45 0 73 -36.5t28 -107.5l-35 -27
q-11 -22 -18 -46.5t-7 -43.5q0 -32 10.5 -50t35.5 -18q15 0 28.5 12.5t27 33t27 45.5t28.5 50q24 55 44 121.5t43.5 135.5t53 136.5t73.5 124.5q16 20 31.5 40t27.5 20q13 0 26 -8t28 -19q4 -9 8.5 -21.5t7.5 -25.5t5 -25t2 -21zM390 121q-4 1 -4.5 6.5t1 12t4 13t4.5 9.5
l7 -6zM345 109l11 -12q4 8 4.5 18t0.5 18zM220 -158l-14 -10l3 -10l11 13v7zM252 -97l4 -4l-15 -17l11 -2l20 28q5 6 6.5 11.5t-3.5 10.5zM285 -71l18 26q-8 1 -15.5 -1.5t-12.5 -10.5zM199 -148q0 -5 3 -11q11 4 22 11t22 21q-15 -3 -31 -6.5t-16 -14.5zM487 371
q-6 0 -13.5 -7t-13.5 -21l15 -3z" />
    <glyph glyph-name="k" unicode="k" horiz-adv-x="715" 
d="M719 485q5 -5 7.5 -4.5t7.5 0.5v-52q-13 1 -26.5 -6t-24.5 -17t-19.5 -18t-10.5 -8q-5 0 -5 1.5t1.5 4t2 4t-4.5 1.5q-6 0 -16.5 -9t-21.5 -23l-15 11q-11 -11 -29.5 -20.5t-38.5 -20.5q4 -5 11 -4t15 5q-4 -12 -10.5 -14t-8.5 -2q-10 0 -12 4.5t-8 4.5q-1 0 -14.5 -5.5
t-33 -14t-42.5 -18.5t-43 -19t-34.5 -15t-16.5 -7q10 -12 23.5 -24.5t28 -25.5t28 -24t22.5 -20l-7 -5q10 -5 24.5 -10t15.5 -13q0 -3 -5 -8q10 -8 17.5 -12t14.5 -7t13.5 -5.5t14.5 -7.5l-12 -10q21 -21 50 -16q13 -9 24.5 -21.5t24 -24t28 -19.5t37.5 -8q10 0 22 -4.5
t19 -10.5q-19 -3 -44 -4t-42 -1t-39 9t-46.5 21.5t-48.5 27.5t-44 27l-2 -11q-57 38 -115.5 79.5t-127.5 81.5q-12 -17 -22.5 -36t-21.5 -40q-5 2 -6.5 6t3.5 15h-11q-5 -6 -8 -13t-3.5 -14t2.5 -12.5t11 -8.5q-29 -66 -48 -142q-31 0 -54 20q0 16 -4 24l-8 -12q-8 11 -4 24
q-6 3 -14 3q-2 28 5 56t19 49l-9 7q26 67 59 134t68 131t71 125t69 117q21 3 36 -10.5t24.5 -32.5t13.5 -39.5t4 -31.5t-13.5 -33.5t-28.5 -47t-26 -45.5t-6 -27q60 29 114 55.5t113 51.5l4 -6q17 5 17 23q5 -5 8 -5.5t5 -0.5q5 0 7.5 4.5t-2.5 9.5h1q11 0 28.5 8t35.5 17
l34 17t24 8q11 0 25 -13.5t25 -36.5zM328 265l-15 -7q0 -8 7 -6.5t12 4.5zM717 511q-3 -2 -7.5 -8t-2.5 -11l15 7zM339 271l1 -10q4 2 9.5 4t10 5t8 6.5t2.5 8.5zM190 202q-6 1 -11.5 -3.5t-8.5 -9.5l-21 -34h13zM122 94q-3 -5 -7 -18t1 -18l14 30zM559 327q0 8 24 21l5 -8z
M663 22q-3 -4 -15 -3.5t-18 5.5l2 8zM608 62q-4 -7 -21.5 -1t-39.5 20l6 8zM620 29q-11 1 -18.5 7.5t-5.5 9.5l26 -9zM407 301q4 -1 7 -1.5t6 -0.5q14 1 23.5 8.5t12.5 15.5z" />
    <glyph glyph-name="l" unicode="l" horiz-adv-x="612" 
d="M672 237q1 -5 -9 -13t-26.5 -16t-37 -15.5t-39.5 -12.5q-16 -11 -27.5 -14.5t-19.5 -2.5q-9 0 -12 1.5t-5 3.5q-14 -14 7 -20t72 14q4 1 8 -0.5t1 -3.5q-7 -3 -17.5 -8.5t-21.5 -10.5t-21 -8.5t-15 -3.5q-17 0 -31 -4t-30 -9q-24 -8 -53.5 -19t-61 -23t-62.5 -24t-58 -23
q-10 -4 -23.5 -14.5t-22.5 -11.5q-9 -2 -24.5 -3t-25.5 -1q-12 0 -17 11h-23q-6 6 -11.5 13.5t-11.5 15t-11.5 12.5t-10.5 5h-12q4 44 21 94.5t41 103.5t54 105.5t60.5 100.5t59.5 89t52 70v16q42 0 63.5 -28.5t21.5 -64.5q0 -5 -8.5 -25.5t-19.5 -46t-22.5 -50.5t-18.5 -37
q-9 -16 -28.5 -36.5t-32.5 -38.5q-7 -10 -12 -26t-11 -27q-4 -8 -11.5 -15t-13.5 -14.5t-9.5 -16.5t1.5 -20q25 8 41 12.5t26 7t14.5 3.5t7.5 2q8 2 17.5 4t19.5 2q12 0 22.5 -4t16.5 -15q2 2 9.5 5.5t15.5 7t15.5 6t9.5 2.5q11 0 14.5 -2.5t14.5 -2.5q5 0 16 3t25.5 7
t29.5 8.5t28 8.5q2 -4 12 -5v-1q-23 -8 -50.5 -16t-47.5 -20l10 -6q12 4 28.5 11t34.5 14t35.5 13t30.5 9q9 -3 17.5 -8t9.5 -7q6 2 13 5.5t13.5 6t11 3.5t4.5 -2zM458 143q-20 -4 -49 -13t-61.5 -20.5t-64.5 -25t-58 -26.5l1 -4l248 82zM662 256q0 -5 -9.5 -10t-14.5 -9
q-8 6 -15 9q1 1 7.5 3.5t13.5 4.5t12.5 3t5.5 -1zM574 240q-2 -1 -6 1.5t-2 3.5l20 6q8 2 8.5 -0.5t-3.5 -4.5zM600 165q-9 -4 -14 3v1q22 10 35.5 15.5t21 8.5t11 2.5t6.5 -2.5zM382 181l22 12q-4 2 -11.5 2t-16.5 -6zM254 325q-8 0 -11 -6.5t-3 -11.5h14v18zM196 248
q-5 -14 -10.5 -25t4.5 -16l18 38z" />
    <glyph glyph-name="m" unicode="m" horiz-adv-x="875" 
d="M860 412q0 -11 -2 -22.5t-6 -21t-9.5 -14.5t-12.5 -3q-8 3 -14 -3.5t-10.5 -15.5t-7.5 -18.5t-5 -13.5h-16q0 -9 8 -12t15 -5q-4 -8 -11.5 -11t-16.5 -2l-28 -88l12 6l21 64l6 -16l-14 -50q-4 -14 -10 -23t-14 -9q-11 0 -11.5 -10.5t-3.5 -20.5l-7 9l-6 -6q4 -8 9.5 -17
t5.5 -18q0 -17 -14.5 -46.5t-27.5 -58.5l-17 15q-2 -2 -8 -4q-3 -1 -10 -1q-14 0 -28.5 10.5t-26.5 26t-19.5 32.5t-7.5 31q0 15 13.5 47.5t32 71.5t38.5 78.5t34 69.5l-3 8q-11 -7 -28 -14.5t-33.5 -16.5t-28.5 -19t-13 -22l-177 -151q-6 9 -12 11t-11.5 1t-12 -3.5
t-14.5 -2.5q-10 0 -17.5 8t-14 20.5t-11 27t-8.5 26.5q11 37 28.5 80.5t35.5 85.5l-10 20q-30 -25 -57 -60t-48 -68q-16 -26 -34 -57t-36.5 -64.5l-37 -67t-34.5 -62.5q-8 3 -4 13.5t9 21.5q-8 2 -14.5 -8.5t-11.5 -24.5q-5 -15 -4.5 -30t5.5 -26q-8 -6 -16 -6
q-15 0 -32.5 11.5t-32 27.5t-24 32t-9.5 24q0 9 14 36t34 60.5t42.5 69.5t39.5 63q39 63 79.5 118t91.5 93q7 11 18 26t23.5 28.5t26.5 23t28 9.5q21 0 36 -12t26 -30t19.5 -40.5t17.5 -43.5q-4 -20 -2 -45t10 -42q24 17 52 38.5t52 35.5q5 3 11 -0.5t10 -9.5q6 5 9.5 12.5
t-0.5 15.5q20 12 41.5 24t41 21.5t35.5 15.5t24 6q14 0 31 -10.5t33 -22.5q13 -30 24.5 -55.5t11.5 -50.5zM784 344l-11 -31q8 6 13.5 12.5t3.5 10.5zM768 288h-1q-11 -15 -22 -34.5t-11 -42.5q0 -5 0.5 -8.5t1.5 -8.5h1zM797 351l12 31q-11 0 -14 -8.5t-9 -22.5h11z
M723 194q-2 -2 -3 -7l-2 -10q0 -4 0.5 -7t0.5 -5q6 5 8.5 15.5t-4.5 13.5zM129 112l-11 -19l6 -6l11 21zM812 300h-11q3 6 9 12t10 8zM134 123l6 -5q4 8 6 11.5t-3 7.5z" />
    <glyph glyph-name="n" unicode="n" horiz-adv-x="753" 
d="M522 365q11 17 28 42t38 52t44 54.5t45 48.5q18 11 52 13q56 2 81 -16l-20 -14l2 -4q5 0 16 3.5t16 6.5l28 -30q-20 -9 -45.5 -26t-52.5 -38.5t-53 -47t-45 -51.5q-5 -6 -8 -1.5t-8 1.5q-2 -27 -15.5 -46t-31.5 -47q-4 -7 -4 -16t-5 -20q0 -5 -8 -9.5t-10 -11.5
q-19 -58 -43 -117.5t-48 -121.5l-45 21l-6 -14q-24 6 -38 14.5t-22 21t-12 30.5t-7 43q-2 20 0.5 48t-2.5 45q-9 26 -10.5 46t0 37t3.5 33t0 35l-5 39q-23 -8 -47.5 -30t-44.5 -57l3 -16q-19 -35 -37 -75.5t-35 -79.5t-34 -73t-34 -56h-28q-11 0 -19.5 10.5t-15.5 23.5
t-12.5 25t-9.5 14l-6 44q-4 23 1 35t10 26q27 64 60.5 116.5t68.5 96t70 79t65 65.5q11 -4 30 -15t38.5 -25t36 -29.5t21.5 -29.5q4 -11 8.5 -27.5t9 -35t8.5 -37.5t8 -34q25 44 55 91t57 86.5t48.5 66t29.5 29.5l21 3q-23 -23 -43 -47t-36.5 -46.5t-29 -42t-21.5 -32.5
q-13 -21 -11 -22zM665 400q2 2 -1.5 5t-5.5 1q-3 -5 -7 -10.5t-7 -11t-3.5 -10t3.5 -6.5zM645 517q1 -2 3 -4t5 -1l17 22l-8 4q-8 -7 -17 -21zM760 524l2 -9q8 5 13.5 8.5t3.5 14.5zM579 174l-9 6q1 11 3 21.5t11 6.5zM691 436q2 2 -0.5 6t-6.5 -1l-20 -26q7 1 9 -5z
M281 492l-22 -23q4 -4 8.5 -2.5t8.5 5t7 7.5t6 7z" />
    <glyph glyph-name="o" unicode="o" horiz-adv-x="654" 
d="M624 300q0 -25 -13 -55t-40 -52q4 -8 -0.5 -14.5t-12.5 -6.5l-7 13q-6 -2 -9.5 -5.5t1.5 -11.5q-8 0 -18.5 -6t-10.5 -14q0 -11 -10 -11t-19 -2q-8 -8 -15.5 -18l-16.5 -22l-11 10q-10 -6 -13.5 -11t-5.5 -10t-6 -9.5t-14 -9.5q-12 -6 -25.5 -7t-27.5 -4q-2 -2 3.5 -5
t4.5 -6l-18 -6l-28 17q-6 -4 -7.5 -9.5t-3 -11.5t-4 -11t-9.5 -8q-18 -6 -34 -11.5t-37 -12.5q-13 13 -26.5 10.5t-24.5 -10.5q-26 17 -55 38.5t-49 38.5q-18 14 -25 47t-7 69q0 61 23 114t58.5 97.5t79.5 79.5t86 59t77 37t54 13q22 0 36.5 -12t37.5 -30q0 -17 8.5 -32.5
t21.5 -29.5t29 -26.5t31 -22.5q29 -20 40.5 -54.5t11.5 -75.5zM365 68q0 10 -15 10q0 -2 -2 -6t0 -6q3 -2 8 -1t9 3zM463 398q-2 7 -4 10.5t-5 0.5q-6 -6 -11 -6t-8 4t-4 4q-20 0 -45.5 -10.5t-52 -28t-50 -40.5t-39.5 -48q-36 -17 -61 -57t-42 -92q17 2 37 4t34 7l180 75
q7 3 18.5 8.5t23 12t22.5 15t18 17.5l45 59zM404 107q-14 -7 -19.5 -12t-4.5 -13l29 15zM215 286q-11 7 -22 -0.5t-13 -15.5q0 -11 12 -12zM219 8q-7 11 -18 11l-6 -2t-6 -4zM440 115q-2 2 -4 8t-4 8l-16 -17l4 -11z" />
    <glyph glyph-name="p" unicode="p" horiz-adv-x="510" 
d="M545 459q0 -26 -9.5 -46t-26.5 -37.5t-41 -34.5t-53 -37l-8 7q-26 -15 -51.5 -31.5t-49 -28.5t-42 -17t-30.5 3q-5 -8 -11 -21l-12 -26t-10.5 -22.5t-6.5 -9.5t-2.5 4t-1.5 7t-3 3t-6 -7q-4 -8 -10 -18.5t-11 -22.5t-8.5 -24.5t-2.5 -23.5q0 -2 2.5 -2t5.5 1t5 1t1 -2
l-45 -131q-2 -8 -5 -22t-4 -24q-3 0 -14 3.5t-23.5 9t-24 12.5t-16.5 15q-12 18 -16.5 41t-4.5 38q12 37 31 86.5t41 102.5t45.5 105t43.5 96q-11 8 -21.5 17.5t-16.5 17.5q12 15 15 35l-25 6q5 8 13 13t14 9v16q36 -2 54 15t28.5 38.5t18.5 39.5t22 18q8 0 12.5 -1t9.5 -3
q11 -4 21.5 -8.5t23.5 -6.5q6 -15 12.5 -29t9.5 -31q23 -1 47 -2t51 -6q40 -6 62.5 -24t22.5 -61zM392 328q-3 -2 1.5 -5t12.5 2q7 4 17 9.5t17.5 11t12 10.5t1.5 9zM353 297q-5 5 -8.5 5t-7 -2.5t-8 -5t-10.5 -2.5h-13q-10 0 -17 -8.5t-9 -19.5q18 5 37.5 14.5t35.5 18.5z
M383 313q-4 4 -16 4t-18 -9q6 0 8.5 -4.5t8.5 -0.5zM482 377q0 2 -3 2.5t-7 -1.5l-7 -3.5t-5 -6.5q-1 -3 2 -3.5t7.5 1t8.5 4.5t4 7zM177 127q5 2 5.5 -1.5t-2 -10t-5.5 -14l-5 -12.5q-3 0 -7 -2.5t-6 -0.5q2 11 8.5 25t11.5 16z" />
    <glyph glyph-name="q" unicode="q" horiz-adv-x="736" 
d="M831 -162q-6 -9 -9 -18t-8 -17l-34 9h-4q-10 17 -21.5 30t-27.5 21l35 -48q-18 5 -30.5 18.5t-22.5 29.5t-18.5 32t-17.5 26q-10 11 -17 22.5t-13.5 23t-14.5 22.5t-19 21v14q-59 62 -106 124q-19 -12 -34 -30.5t-30 -31.5q-2 5 1 12t1 14q-11 -7 -23 -23.5t-26 -33
t-30 -29.5t-35 -13q-8 0 -15.5 0.5t-18.5 -3.5q-9 -10 -23 -14.5t-30 -7t-32.5 -4.5t-30.5 -7q-3 3 -6.5 7.5t-7.5 8.5t-7.5 6t-6.5 -2l-5 -7q-11 15 -24 30t-24 25l-3 -10l-21 11q-14 24 -23 55.5t-14 59.5q13 66 38.5 129t63.5 117t88.5 95.5t115.5 64.5q19 17 53 26.5
t62 9.5q14 0 27 -6.5t24 -15.5t21 -19.5t18 -17.5l12 -71h10q-5 -11 -6.5 -28.5t-10.5 -31.5q-8 -11 -24 -23t-32 -28q9 -16 16 -33t14 -33l-13 -14q1 -12 21 -47t51.5 -79.5t70 -91t76.5 -80.5q15 -14 32 -30.5t31.5 -35.5t24.5 -39t12 -41zM447 443q-33 0 -64 -18
t-58.5 -42t-49.5 -48t-37 -35q-6 -9 -13.5 -21.5t-14.5 -24.5t-13 -20t-10 -8q-13 7 -26 -5l16 -10q-5 -3 -10 -7t-7 -10l-31 -82h58q9 0 25 4.5t34.5 12t38 16t36.5 17t29 15.5t16 10q7 6 16 15.5t17 19t13.5 18t5.5 12.5q0 8 -9 19t-19.5 25.5t-19.5 31.5t-9 37
q0 13 10 21.5t25.5 14t33 7.5t32.5 1l12 34h-27zM213 282q-4 0 -9.5 -3t-11 -7.5t-9 -10.5t-4.5 -11q0 -7 3 -9zM384 67v1q-15 -5 -30 -12t-16 -15q-2 -4 5 -7zM168 17q-6 -5 -1.5 -12t12.5 -13l6 11zM260 18q0 -4 7.5 -6t15.5 3q-5 2 -8.5 4.5t-6.5 4.5q-8 -1 -8 -6z" />
    <glyph glyph-name="r" unicode="r" horiz-adv-x="621" 
d="M475 364q-16 -10 -23 -18t-13 -16t-14.5 -16.5t-27.5 -19.5q-11 16 -31 6.5t-43 -30.5q36 -33 73 -72.5t74.5 -74.5t75.5 -58.5t74 -23.5q18 0 35.5 2.5t33.5 5.5t29 6.5t21 5.5q8 -2 18.5 -9.5t16.5 -15.5l-28 -8t-28 -9l2 -2q10 0 20.5 -1.5t6.5 -4.5q-8 -6 -32.5 -19
t-52.5 -23q-6 -2 -0.5 -5t9.5 -2q31 11 60 29.5t52 34.5q7 -7 10 -13q-20 -18 -46.5 -36t-56.5 -32t-61 -22.5t-59 -8.5q-29 10 -58 23.5t-49 33.5q-12 12 -30.5 34.5t-40.5 50t-46 57t-47 55.5t-43.5 45.5t-35.5 27.5q-10 -14 -22 -34t-23 -42t-21 -43t-15 -36
q-2 -5 -0.5 -12t4 -15t4.5 -16t0 -15q-5 -17 -21.5 -30t-33.5 -30q-14 0 -30.5 10.5t-22.5 26.5l-15 41q9 6 8.5 8t-4 3.5t-8.5 4.5t-5 10q0 13 12.5 49.5t33.5 86t48 108.5t56.5 116.5t58 109.5t53.5 89q31 0 43.5 -11.5t16.5 -27.5t4 -33t6 -29q23 10 51.5 19.5t54.5 9.5
q32 0 57 -7l-7 -16q11 -3 20.5 -2t9.5 11l19 -8q-2 -8 -8 -14q6 -5 11.5 -4t7.5 9q15 -14 21.5 -26.5t6.5 -29.5q0 -9 -3.5 -19.5t-9.5 -15.5q-20 -18 -42 -39t-50 -45zM497 545q-8 3 -20 2t-17 -4l32 -5zM604 -46q-11 3 -14.5 -2.5t13.5 -10.5q14 2 29.5 6.5t26.5 8.5v1
q-4 0 -6 2.5t-4 4.5zM358 274l-6 9q8 6 18.5 9t14.5 -5zM154 163l-29 -53l5 -12l29 57z" />
    <glyph glyph-name="s" unicode="s" horiz-adv-x="515" 
d="M467 577q27 -7 40 -28.5t11 -50.5q7 -6 7 -14q0 -16 -21.5 -33.5t-50.5 -23.5q-8 10 -7 16t4 9.5t6 6.5t-1 7q-38 0 -68 -4t-57 -13.5t-54 -25.5t-60 -39v-15l42 -30q16 -11 32 -20t30.5 -17.5t28 -18t24.5 -21.5l11 7q22 -23 34 -49t10 -46l-6 -80l-17 4
q-22 -30 -61.5 -56t-84.5 -46q-48 20 -47 -19q-36 -14 -65.5 -20.5t-43.5 -6.5q-11 0 -27.5 11t-34.5 28q-30 6 -39 21t-5 29q-10 14 -16 26t-6 20q0 19 10.5 31t22.5 21q6 -5 14 -13.5t16 -16.5t16 -13.5t15 -5.5q18 0 43 5t52.5 15.5t56 26t52.5 36.5v10q-9 9 -17.5 20.5
t-16.5 21t-15 14t-14 0.5q-20 27 -31.5 37.5t-25.5 0.5q-11 9 -26.5 26t-19.5 38q-5 24 -11.5 49t-5.5 41q2 31 30.5 60.5t71.5 52.5t94 37t99 14q19 0 41.5 -1t41.5 -3zM485 428l25 17q0 -9 -3 -12.5t-13 -11.5zM290 444q-27 -8 -50 -19t-24 -23l74 41v1zM200 -5l-35 -15
l5 -7l30 10v12z" />
    <glyph glyph-name="t" unicode="t" horiz-adv-x="578" 
d="M450 546q50 11 100.5 21t85.5 15q32 -8 56.5 -23t34.5 -42q-13 -11 -9.5 -28t10.5 -28q-6 -4 -16 -7l-2 6q-8 4 -14 4q-7 0 -7 -7q0 -4 2 -8q-23 -5 -50 -6.5t-57 -4.5t-61.5 -9.5t-62.5 -19.5h-14v11q-12 1 -22 -12q-13 -2 -22 -5.5t-16 -12.5t-13.5 -23.5t-14.5 -38.5
q-2 -7 -9 -14.5t-12 -11.5l9 -5q-2 -8 -5.5 -18.5t-7.5 -20t-8.5 -15.5t-8.5 -6t-5 3.5t-0.5 7t0.5 6.5t-2 3q-8 -2 -10.5 -15t-6.5 -25q4 -10 5 -16.5t1 -12.5q-4 -10 -8 -22.5t-9 -12.5q-4 0 -5 3t-1 7.5t-0.5 9t-1.5 7.5q-7 -14 -12.5 -27.5t-10.5 -26.5l8 -5q7 13 19 10
q-14 -39 -26.5 -77t-20.5 -72q-18 -2 -35 0t-30 5l4 11q-10 3 -15 11t-7.5 19t-3.5 24t-2 28q-3 4 -5.5 10t-2.5 11q0 9 9.5 39t25 71t34.5 87.5t38 89.5h-78q-17 0 -26.5 -2t-17.5 -4t-15.5 -2.5t-19.5 2.5q-6 9 -11.5 21t-10.5 25t-8 26.5t-3 24.5q0 19 14 33q15 -2 38 -3
t50 -1t54.5 1.5t50.5 6.5q38 8 53 27t25 39t23.5 35t48.5 15zM324 286l-10 -18l6 -7l8 18z" />
    <glyph glyph-name="u" unicode="u" horiz-adv-x="655" 
d="M671 423q-8 1 -16 -1.5t-12.5 -6.5t-4.5 -9.5t9 -11.5q5 -3 0.5 -11t-13.5 -7l-14 7q-5 -9 -10 -19t-8 -18t-3 -14t5 -6l-11 -21q-7 0 -12 -5t-13 -17t-21.5 -32t-36.5 -48l8 -10q19 24 36.5 49t32.5 50q5 -7 4.5 -13t-2.5 -11q-35 -64 -74.5 -110.5t-79.5 -78.5
t-78.5 -51.5t-72 -30t-59.5 -14t-40 -3.5q-5 0 -6 1.5t-2 3.5q0 2 -1 3.5t-6 1.5t-5.5 -1.5t-0.5 -3.5q1 -2 0.5 -3.5t-5.5 -1.5q-21 0 -32.5 15.5t-22.5 28.5l-11 -5q-30 18 -44 50t-14 67q0 30 7 60.5t20 58.5q17 37 39 87t43.5 101t41.5 97.5t34 78.5q17 14 31 14
q8 0 17.5 -13.5t18 -30.5t15.5 -34t10 -25l14 10v-23q-11 -20 -24 -45t-26 -52t-25 -53t-22 -47q-8 13 -1 27q7 2 1 7t-9 1q-9 -13 -10 -23.5t0.5 -19t3 -16t-2.5 -15.5q-3 -7 -6.5 -14.5t-7.5 -16.5q-7 3 -13.5 -3t-10.5 -14q7 -3 18 4h1q-5 -11 -10.5 -24t-10.5 -24
q-3 5 -3 11.5t5 17.5l-6 6q-6 -11 -12 -23.5t-6 -21.5q0 -11 13 -12q-3 -8 -6 -15t-5 -13q76 0 133 26.5t101 71t78 102.5t65 122q2 7 11.5 6t16.5 4q7 4 4 9t-15 3q6 13 12.5 29.5t12 32.5t9.5 28.5t6 18.5q2 11 16 11q5 0 10 -5t12 -10q8 -7 16.5 -10.5t12.5 -5.5
q4 -8 5.5 -22t2.5 -29q1 -18 5 -32t20 -16zM229 379l-2 -4t0 -3l13 -8q3 4 6.5 11.5t6.5 16.5t4 16.5t-3 11.5zM226 12q5 0 11.5 1t11.5 2q-5 9 -13 12t-15 2.5t-11 -4t0 -7.5q5 -6 16 -6zM501 194q-11 -11 -18.5 -21t0.5 -20l28 31zM426 94q-18 1 -34 -11t-42 -26l2 -10
q16 8 38.5 22t35.5 25zM339 40q-2 5 -8 6t-11 -1q-6 -2 -13.5 -3t-13.5 -3.5t-9.5 -6.5t-2.5 -13q15 3 29.5 8.5t28.5 12.5z" />
    <glyph glyph-name="v" unicode="v" horiz-adv-x="585" 
d="M643 497q14 17 33.5 40.5t42.5 42.5q5 3 9 2.5t5 -4.5q-19 -15 -35.5 -37t-32.5 -45t-33 -43.5t-37 -33.5q-15 2 -22 -5t-10.5 -16t-6 -17t-9.5 -8q-11 0 -17 -11.5t-14 -22.5q-29 -41 -69 -86.5t-85 -92.5t-91 -94t-87 -92l-62 21q-13 23 -29.5 45.5t-17.5 53.5
q-1 14 0.5 48.5t3 79t4 94t5 94t4.5 79t3 49.5q0 9 -2.5 20t-4.5 22t-1 21t10 17q29 -12 49.5 -31t34 -43.5t20.5 -54t9 -60.5q-5 -13 -4 -24.5t3.5 -22l5 -21t1.5 -21.5l-11 -2q-8 -49 -21 -91l16 -44q75 68 137.5 141t122.5 154q16 -1 23.5 4.5t14 12.5t16 12t28.5 3
l39 42q6 7 15 6t12 -8q-4 -6 -13.5 -17t-22.5 -24.5t-28 -28.5t-30 -28q-3 -3 0.5 -4.5t9.5 0.5q14 12 32 28.5t34.5 33.5t29.5 31.5t18 21.5q5 0 9.5 3.5t10 7t11 5t12.5 -4.5q-8 -7 -18.5 -18.5t-8.5 -24.5q8 9 17.5 18t17.5 7l3 -1q-11 -13 -27.5 -34.5t-28.5 -41.5z
M167 274q-1 -6 1.5 -11t7.5 -5l2 16h-11zM517 391q5 -4 9 -5t7 -1q8 1 12 8t5 17zM180 281q0 7 2 14.5t-9 7.5l-4 -18zM634 484q-5 -2 -7 0.5t-3 0.5l-21 -21q-5 -2 -6.5 -5.5t-0.5 -6t4 -3t8 3.5q11 8 17.5 17t8.5 14zM690 586q4 7 9 14t12 7q5 0 9 -6q-4 -2 -8 -6l-12 -12
q-2 3 -10 3zM585 391l-9 8q6 16 17 9zM471 321l6 -12q13 14 13.5 22.5t-4.5 11.5z" />
    <glyph glyph-name="w" unicode="w" horiz-adv-x="845" 
d="M991 521q-12 -10 -24.5 -22.5t-25 -23t-26.5 -17.5t-30 -7q-19 -17 -42.5 -40t-46.5 -46.5t-44 -44t-34 -33.5l-15 13q4 -15 0 -28.5t-12.5 -26.5t-19 -25.5t-20.5 -27.5q-8 4 -2.5 12.5t11.5 18.5q-8 6 -16.5 -3.5t-16.5 -22.5t-12.5 -22.5t1.5 -19.5q-16 -18 -38 -46.5
t-45 -55t-44 -46t-34 -19.5q-5 0 -9.5 7t-9 16.5t-10 20t-13.5 17.5l-6 -7l-28 41q-5 7 -11 21t-12.5 30t-14.5 31.5t-16 24.5q-19 -23 -43 -58t-46.5 -68t-39.5 -56.5t-22 -23.5q-4 0 -10 6t-12.5 13t-12.5 13t-9 6q-7 0 -9 -5q-29 33 -41 89t-14 126q-3 78 2 162.5
t8 162.5l13 10q18 -9 32.5 -27.5t26 -40.5t19.5 -44.5t12 -39.5q6 -28 -0.5 -62t-14 -66t-9.5 -57.5t12 -36.5l142 194l23 8l53 79q4 6 6.5 15.5t4.5 18.5t6 15.5t11 6.5q16 0 33 -16.5t23 -36.5l25 -86q-13 -18 -24 -38.5t-21 -41.5t-21 -40.5t-24 -34.5q8 -1 15 -5.5
t13 -10t12 -10t12 -4.5q7 0 27 24t49 60t63.5 78.5t70 80t69.5 64t61 30.5q8 2 21.5 3t23.5 1q-7 -7 -10.5 -13.5t5.5 -9.5l45 35q5 -1 11.5 -6.5t8.5 -12.5l42 -7q-4 -8 -11.5 -16.5t-17.5 -15.5l8 -3q8 0 16.5 7t17.5 14t18 9.5t17 -7.5zM881 480l2 -9q8 5 13.5 8.5
t4.5 14.5zM819 433l2 -10q20 16 35.5 27.5t17.5 25.5zM677 267l6 -7q5 7 6.5 11t-3.5 9zM672 256l-13 -18l6 -6l12 19zM755 344q-11 6 -17.5 3t-10.5 -9.5t-5.5 -14.5t-2.5 -12h1zM350 398l11 2q8 10 14 20.5t1 18.5z" />
    <glyph glyph-name="x" unicode="x" horiz-adv-x="525" 
d="M350 307l12 -4q-16 -11 -29.5 -22.5t-24.5 -25.5h-17v-29q0 -25 13.5 -56.5t25.5 -54.5h9q10 -22 30 -45t42.5 -44t44 -39.5t36.5 -30.5q-15 -8 -37 -6t-36 12l-42 30q-11 3 -22.5 3.5t-20.5 -5.5q-12 10 -24 18.5t-20.5 16t-12.5 14t1 12.5q-35 26 -53 45t-26 37
l-48 -48q-5 4 -12 3t-12 -6l-73 -71q-15 -2 -31.5 -16t-34.5 -31t-36.5 -30.5t-36.5 -13.5q-3 0 -3 2q0 4 8.5 10t11.5 10q1 1 1 1.5t1 1.5l44 42l-2 12l-35 -32q2 17 2 36.5t8 39.5l33 31q3 11 8 20t12 19l14 -7l54 51q9 9 21 22t11 30q14 13 26 25t22 26q6 1 11.5 2.5
t9.5 6.5q0 2 -1 3.5t-1 3.5q-24 85 -24.5 167.5t30.5 167.5q6 5 14 8.5t13 -2.5l-17 -54q10 8 16.5 24t13.5 30q21 -3 33 -11t20.5 -16t15.5 -14.5t19 -7.5l11 -21q-6 -13 -11.5 -29t-9 -31.5t-6 -29.5t-2.5 -24l-6 -15l8 -5q24 24 50 51.5l52 55t51 53.5t48 47h16v-14
q4 2 8 6.5t9 9t12 7t17 1.5l-9 -16q35 -8 56 -23.5t21 -28.5q0 -9 -6 -14zM338 255h-14l24 22l8 -3zM367 -33l-24 17q15 7 41 -14zM-16 7l3 -10q8 4 11 10.5t3 13.5zM55 153l-7 7q5 4 8.5 7.5t8.5 7.5v-12zM18 118l-7 3q7 8 15 16.5t16 16.5l7 -7z" />
    <glyph glyph-name="y" unicode="y" horiz-adv-x="572" 
d="M381 110l-14 13q-8 -6 -15 -16t7 -28q-6 -9 -12 -20t-12 -23q-13 -6 -24 -17l8 -20l-4 -7l-12 16q-12 -17 -20 -38.5t-12 -44.5l19 -9q-3 -12 -4.5 -23.5t-2.5 -21.5q-6 -3 -14.5 -4.5t-16.5 -1.5q-25 0 -43.5 7.5t-30.5 18.5q-1 14 -14 14q-12 15 -10 21q6 31 20 64.5
t31 69.5t36 75.5t34 82.5l-7 6q-44 0 -83 19q-7 -11 -18 0l-66 65h-12q-23 33 -27.5 69t3.5 72.5t25 72.5t38 71l14 -6q3 8 6 11q5 5 9 5q2 0 11.5 -3.5t22 -8.5t25.5 -10.5t22 -9.5l16 -28q-3 -21 -10.5 -38t-16 -33t-15.5 -33t-9 -39l-15 -12q-5 -32 -1 -53.5t22 -44.5
q51 -5 88.5 15t60.5 52l106 149l8 -13l40 58q10 15 25 3q20 16 36 18.5t30 -4.5q-1 -9 3.5 -13t17.5 -6q17 -23 23 -59q-14 -36 -47 -73q-15 2 -23.5 0t-14 -7t-9.5 -13.5t-9 -18.5l14 -7q-29 -31 -55 -60.5t-36 -58.5l-14 13q0 -15 -5 -27.5t-12 -23.5t-14.5 -20t-13.5 -18
q-5 -8 -5 -18t-2 -19l-10 7q2 12 -4 17q-8 -14 -10.5 -23t11.5 -23zM269 -85l-3 -17l8 -4l6 16zM566 398q4 4 10.5 9.5t15.5 0.5q-5 -5 -10 -11t-10 -11zM374 64q-2 -5 -6.5 -7.5t-12.5 0.5l9 16zM292 -76q-10 7 -5 21.5t18 19.5l1 -1z" />
    <glyph glyph-name="z" unicode="z" horiz-adv-x="635" 
d="M771 95q3 -2 7 -5.5t4 -8.5q-48 -2 -101.5 -6t-101.5 -13q-8 -2 -11.5 -5t-5.5 -7.5t-4.5 -9.5t-8.5 -9q-2 4 -10.5 5.5t-15.5 -0.5l-2 -12q-14 -2 -22 -2.5t-14.5 -1.5t-14.5 -2t-22 -4q-12 15 -27 18.5t-30.5 -1t-30.5 -13.5t-27 -18q-23 0 -44.5 2t-42.5 5v-14
l-174 22q-25 32 -43.5 55.5t-18.5 49.5q0 23 20 47.5t52.5 50t74.5 52.5t86 54t86 55t76 56q-20 5 -43.5 2t-47 -6.5t-44 -3t-33.5 12.5q-5 -2 -6 -5.5t-2 -8.5q-11 -1 -22.5 -2.5t-23.5 0.5q-6 1 -16 12t-19.5 25.5t-16.5 27.5t-6 18t3.5 7.5t4.5 5.5t3 7t-2 12
q37 15 82 24t89.5 14t85 7t70.5 2q33 0 68.5 -3.5t60.5 -11.5q8 -22 10 -45.5t2 -43.5l12 -11v-15h-15q-6 -21 -21 -37t-33 -30.5t-37 -30t-33 -37.5l-8 11q-12 -11 -33 -24.5t-46 -27.5t-51.5 -29t-48.5 -30l-9 -19q-13 1 -30.5 -6.5t-33.5 -18.5v-15l-11 -9l-8 8
q-12 -12 -18 -24q42 -2 84.5 -2t86.5 2l8 -10l6 10q9 0 18.5 0.5t18.5 1.5q24 -8 36.5 -10.5t10.5 12.5q27 5 51 7t48 2.5t48.5 0t51.5 1.5q1 -5 -2 -12.5t-9 -9.5q-19 -1 -29 -1t-25 -2q-9 -1 -26 -3t-34.5 -5t-32.5 -7t-21 -8l1 -5q29 3 65 7t72.5 7t71 5.5t60.5 2.5
q6 0 8.5 -1t0.5 -3q-8 -3 -13 -8t-9 -15zM745 135q-18 0 -37 -0.5t-37 -1.5q-11 7 -13 12t-2 7q20 1 42.5 0.5t38.5 -1.5q8 -1 9 -6t-1 -10zM771 64q4 -2 2 -6t-7 -3q-40 0 -90 -5t-98 -11q2 6 16 10.5t34 8t43 5.5t44 3t36.5 0.5t19.5 -2.5zM758 136q2 5 3.5 9t6.5 5
q8 2 13 -2l10 -8q1 -1 -2 -2.5t-10 -1.5h-21zM407 5q-15 -2 -25.5 -2.5t-21.5 -1.5q11 14 23.5 13.5t23.5 -8.5v-1zM409 464l-10 -3l13 -20l8 7zM797 82q-7 5 -7 13l29 1q8 -1 20 -2t12 -6q0 -3 -10 -3z" />
    <glyph glyph-name="braceleft" unicode="{" horiz-adv-x="513" 
d="M596 609q-18 -14 -43.5 -28.5t-42.5 -22.5q-8 -4 -13 -3t-9.5 3t-10 2.5t-15.5 -3.5q-16 -7 -48 -21.5t-65 -33.5t-59.5 -42.5t-32.5 -48.5l48 -16t42 -17q-5 -9 1.5 -11t13.5 2q20 -13 20 -24q0 -20 -19 -41.5t-39 -36.5q9 -8 22 -16t13 -19q0 -3 -11.5 -14t-29.5 -28
t-40 -38t-43 -44q-20 -21 -36.5 -42t-29 -38.5t-19.5 -29t-7 -14.5q-1 -13 4 -18q23 0 53.5 6t53.5 13q10 -21 36 -18l7 -23l27 -3q3 -10 12 -19t9 -21q-22 -6 -47.5 -14t-50.5 -15t-48.5 -12t-41.5 -5q-17 0 -32 6t-29.5 15t-27.5 19t-26 17q-2 8 -4.5 16.5t-2.5 19.5
q0 25 13 55.5t33 60t42.5 53.5t41.5 37l12 -3q8 11 14 24t8 27l-64 34q23 28 55 52t65 44q-31 16 -51.5 36.5t-21.5 59.5q0 33 31 69l14 -5q5 13 15.5 17.5t18.5 14.5l-3 16q2 2 5 3.5t14 8.5q3 -5 9 -4t12.5 4t12.5 8t11 8q-1 2 7 7.5t11 18.5q14 9 29 17.5t30 16.5l4 -15
q24 11 45.5 21t43.5 22q4 2 3.5 5.5t-5.5 1.5q-14 -5 -22 -7.5t-13 2.5l82 44h13q0 -11 6.5 -17t34.5 0l17 -43zM304 -45l-4 13l10 1l11 -18zM173 243q3 4 13.5 13t23 19t24 19t17.5 13q11 8 3 6.5t-17 -6.5q-5 -2 -15.5 -10.5t-22 -18t-21.5 -19t-14 -13.5z" />
    <glyph glyph-name="bar" unicode="|" horiz-adv-x="257" 
d="M326 750l-298 -1000h-102l298 1000h102z" />
    <glyph glyph-name="braceright" unicode="}" horiz-adv-x="512" 
d="M203 588l-12 19l17 -5l4 -13zM477 610q0 -25 -14.5 -53t-35 -55.5t-43 -53t-37.5 -45.5l-12 4q-8 -11 -14 -24.5t-8 -27.5l64 -34q-23 -28 -54.5 -52t-64.5 -44q31 -16 51 -36t21 -59q0 -17 -6.5 -36t-16.5 -45l-14 6q-7 -8 -19.5 -19.5t-20.5 -19.5l8 -9q-2 -2 -3.5 -3
t-3.5 -3q-7 9 -21 0.5t-23 -15.5q-8 -7 -17.5 -14t-12.5 -20q-14 -9 -29.5 -17.5t-30.5 -16.5l-3 15q-49 -14 -90 -42l2 -8q14 5 22 7.5t13 -2.5q-23 -12 -46.5 -21t-40.5 -15l-14 3q0 11 -7 17t-35 0l-16 43l11 33q9 7 21.5 12.5t25.5 10.5t25.5 9t20.5 8t13 3t9.5 -2.5
t10 -2.5t15.5 4q16 7 46.5 22.5t61.5 36.5t56.5 45.5t31.5 49.5q-27 14 -47 21.5t-40 14.5q5 9 -2 10.5t-14 -2.5q-19 13 -19 25q0 20 18.5 41.5t38.5 36.5q-9 8 -22 15.5t-13 18.5q0 4 15.5 23t39 45.5t51 57t51.5 56.5t41 44.5t19 21.5l-2 18q-23 0 -55 -5.5t-55 -12.5
q-9 20 -36 17l-7 23l-27 3q-3 10 -11.5 19t-8.5 21q22 6 47.5 14t50.5 15t48.5 12t41.5 5q16 0 31.5 -6t29.5 -15t27 -19t26 -17q3 -8 5 -16t2 -19zM196 285q-8 -7 -19 -17.5t-19 -24.5q4 -1 9 2t10 7.5t10 10t11 8.5q4 2 3.5 6.5t-5.5 7.5z" />
    <glyph glyph-name="asciitilde" unicode="~" horiz-adv-x="625" 
d="M534 269l-19 -14q5 -4 13 -6t16.5 -4t16 -6.5t11.5 -12.5q-12 -18 -26.5 -35.5t-32.5 -31.5t-40 -22t-47 -7q-39 2 -61 16t-34.5 32t-21 36t-20.5 28q-23 -6 -49 -20.5t-51 -32.5t-45.5 -36t-33.5 -32q-26 7 -38 18t-16 23.5t-3 25.5t2 25q23 23 34.5 37.5t-5.5 22.5
q18 18 37.5 36t40 33t41.5 24t41 9q11 0 24 -6.5t21 -16.5q25 0 34 -14.5t18 -32t25 -32t54 -14.5q22 0 46 12t48 25h1q-5 -8 -6 -14.5t-1 -11.5l21 5zM49 226l-9 11l32 27l7 -5z" />
    <glyph glyph-name="uni00A0" unicode="&#xa0;" horiz-adv-x="275" 
 />
    <glyph glyph-name="exclamdown" unicode="&#xa1;" horiz-adv-x="341" 
d="M416 508q-12 -20 -24 -39t-31 -19q-18 0 -30 14.5t-20.5 37t-13.5 50t-9 52.5l30 47q5 -10 13.5 -15t15.5 1q7 -12 16.5 -27.5t24.5 -25.5q17 -11 22.5 -28.5t5.5 -47.5zM261 429q-17 -21 -26 -37t-8 -31l31 24q-1 -9 -0.5 -18t0 -18t-3.5 -19t-10 -22q2 -3 2.5 -6
t2.5 -6q-10 -16 -16 -32.5t-6 -38.5q-22 -30 -30.5 -49t-14 -36.5t-14 -38t-30.5 -52.5l-26 -5q-19 -28 -36.5 -52.5t-33 -42.5t-28 -28.5t-21.5 -10.5q-11 0 -21 10t-18.5 24.5t-13.5 30.5t-5 29q0 16 9.5 31t25.5 33t35.5 41t40.5 56q15 23 38.5 60.5t52 79t59.5 80.5
t61 66zM108 -1l-8 6l13 24l13 -2z" />
    <glyph glyph-name="cent" unicode="&#xa2;" horiz-adv-x="496" 
d="M473 102q-32 -7 -57 -11.5t-42.5 -10t-26.5 -13.5t-9 -21q-23 -5 -47.5 -9t-48.5 -7q-9 -24 -18.5 -49.5t-18.5 -52.5l-1 -34q-4 -21 -11.5 -49.5t-18.5 -59.5q-11 11 -17 28.5t-14 35.5q7 34 11.5 71t5.5 80l-9 6q1 4 1 8t1 9q-18 -1 -35 -1.5t-32 -0.5
q-11 13 -22.5 23.5t-22.5 22t-20 24.5t-14 32q18 62 54 109.5t79.5 82.5t88.5 59.5t81 41.5q29 63 55.5 119t45.5 96q15 -3 20 -17t11 -26l10 23l13 -6q0 -6 1 -14t1 -16q0 -20 -4 -38t-11.5 -37.5t-18.5 -42t-24 -49.5q6 -18 14 -33.5t13.5 -29.5t6 -28t-7.5 -30
q-23 -4 -47 -8.5t-48 -11.5q-14 -29 -28 -62t-30 -71h58q-6 -3 -10.5 -7t-12.5 -6q6 -3 19 -2t28 3t30.5 2t25.5 -6l-76 -14l22 -7q19 -1 42.5 4.5t46.5 8.5zM236 231q-41 -18 -72.5 -42t-48.5 -55h74l28 68h9zM365 51q1 7 7.5 11.5t15.5 7.5t18 4.5t17 3.5v-15zM409 606
l-15 -32l6 -5l13 30z" />
    <glyph glyph-name="sterling" unicode="&#xa3;" horiz-adv-x="680" 
d="M665 30q-33 -30 -76 -46t-98 -15l-17 -11q-50 0 -110 6.5t-112 23.5l-7 8q-38 10 -72 22q-20 -32 -37.5 -54t-31.5 -33l-49 29q-23 41 -38 80t-27 90l12 9l-5 18q8 4 17 5t17 -1l20 15q26 -4 50 -11t48 -15q8 13 14.5 27.5t14.5 30.5q-18 5 -25.5 12t-11.5 13.5t-7 13
t-12 11.5l4 56q11 -5 17.5 1.5t11.5 14.5h80q32 65 72 131t96 122v15q20 11 33.5 21t24.5 10t31 -4.5t51 -11.5q5 -11 14.5 -15t24.5 -9l7 -21t4 -23q0 -33 -21 -81.5t-68 -95.5q-7 5 -13.5 7.5t-11 5.5t-6.5 9t0 17q1 12 -0.5 19.5t-3 14t0.5 13.5t11 18l-4 9
q-26 -16 -57 -56t-64 -93q35 2 67.5 3.5t57.5 4.5q11 -2 19.5 -3t15.5 -3l-26 -6q11 -7 24.5 -7t26.5 2q11 -8 20 -16t32 -13q-1 -14 -10.5 -18.5t-21.5 -6l-24 -3t-18 -9.5h46l10 -10q-11 0 -46.5 -2.5t-79 -5.5t-86.5 -6t-68 -4l-4 -8h29q5 0 12 -2t5 -8l-53 -2
q-13 -23 -26 -45.5t-26 -44.5q5 -2 9 -3.5t9 -3.5q5 0 5 -2.5t-2 -4.5t-5.5 -2.5t-4.5 1.5l-16 6l-4 -9q44 -17 75 -27t65 -10t79 12.5t118 40.5q-3 -7 -10.5 -13t-15.5 -11l5 -7l37 18q17 -12 25.5 -26.5t19.5 -29.5q15 6 25.5 -2.5t18.5 -15.5zM143 141q-19 7 -34.5 11.5
t-19.5 5.5q-10 2 -14.5 -0.5t-5.5 -4.5q20 -5 36.5 -10.5t32.5 -10.5q2 2 2.5 4.5t2.5 4.5zM611 123q3 -7 -0.5 -12.5t-11.5 -9.5l-12 9zM296 96q10 2 9.5 -5.5t-12.5 -5.5q-6 3 -15.5 6t-19.5 7l4 10q10 -3 18.5 -6t15.5 -6z" />
    <glyph glyph-name="currency" unicode="&#xa4;" horiz-adv-x="780" 
d="M646 60l-63 78q-24 -20 -53.5 -27.5t-55.5 -7.5t-55 6.5t-53 26.5l-62 -76l-54 52l66 70q-17 21 -30 53t-13 73q0 36 11.5 69.5t32.5 56.5l-66 64l53 52l62 -72q22 19 51.5 27.5t56.5 8.5q29 0 58 -7t53 -29l62 72l52 -52l-66 -64q22 -23 33 -56.5t11 -69.5
q0 -35 -12.5 -68.5t-32.5 -56.5l68 -71zM474 441q-24 0 -45 -10t-36 -28t-24 -42.5t-9 -52.5q0 -59 33 -95.5t82 -36.5q24 0 45 10t36.5 27.5t24.5 41.5t9 53q0 28 -9 52.5t-24.5 42.5t-36.5 28t-45 10h-1z" />
    <glyph glyph-name="yen" unicode="&#xa5;" horiz-adv-x="598" 
d="M592 480q-6 -5 -11.5 -11t-11.5 -12l-7 23q5 2 13.5 3.5t16.5 -3.5zM663 544q-27 -23 -57 -51q-29 10 -45.5 -1.5t-38.5 -36.5l26 -19q-50 -51 -99 -109t-87 -118q22 -3 43 -4.5t39 -0.5l24 -32q21 4 38.5 -2t31.5 -15q-45 -15 -103.5 -24.5t-120.5 -15.5
q-5 -8 -9.5 -16.5t-9.5 -17.5q-11 -6 -24 -20l7 -18l-4 -7l-11 15q-9 -12 -16.5 -27t-11 -30t-2 -28t10.5 -22q-2 -11 -4 -20t-3 -18q-18 0 -39.5 2.5t-41.5 9.5q8 23 -1 28t-25 -3l-18 24q10 30 25 65t35 73q-23 -2 -44 -2.5t-39 -2.5q-2 15 -12.5 20.5t-25.5 9.5
q-1 11 1 26t6 27q34 17 74 24.5t77 9.5q-6 23 -13 46.5t-16.5 45.5t-22 40.5t-29.5 32.5q-5 15 -13 38t-29 44q-24 24 -38 56t-3 66q5 2 8.5 3t7.5 3q8 -9 15.5 -10.5t13 2t6.5 9.5t-4 12q11 4 23 6t29 2q13 0 34 -30t43 -75.5t40 -100.5t26 -105q47 73 93 137t82 106l6 -13
l60 71l9 -10q21 12 41 15q21 3 35 -1q-1 -7 4 -9.5t21 -2.5q12 -9 19 -22.5t6 -28.5zM250 -33q-6 3 -7 9t1.5 12.5t7.5 12.5t12 8h1zM275 284q-5 25 -10 46t-18 27l20 -86q2 4 4 7z" />
    <glyph glyph-name="brokenbar" unicode="&#xa6;" horiz-adv-x="257" 
d="M155 174l-104 -350h-102l104 350h102zM305 674l-106 -350h-102l106 350h102z" />
    <glyph glyph-name="section" unicode="&#xa7;" horiz-adv-x="486" 
d="M271 110l-3 8l-25 -12q0 10 6.5 16t14.5 10q-11 28 -28.5 46.5t-38.5 29.5t-43.5 15.5t-43.5 5.5q-7 10 -17 20.5t-19 20.5t-15 20t-5 19q3 25 27 49t55.5 44.5t64 36.5t53.5 27q-6 10 -11 21t-7 22q11 31 27.5 58.5t35.5 48.5t40 33.5t42 12.5t42.5 -8t41 -21
t36.5 -29.5t30 -34.5q-6 -18 -20.5 -37t-32.5 -30l-13 3q-4 27 -14 42.5t-34 15.5q-9 0 -20.5 -12t-22 -28.5t-18.5 -33t-9 -25.5q-2 -12 17.5 -26.5t42.5 -32t41 -37.5t15 -44t-12.5 -42t-23.5 -32.5t-31 -26t-35 -21.5q16 -18 25.5 -35t14.5 -37q-2 -19 -8.5 -34
t-16.5 -29t-23.5 -27.5t-31.5 -29.5q2 -7 -0.5 -13t-11.5 -12l-69 -48l-3 10q-46 -29 -94 -53.5t-91.5 -43t-78 -30.5t-53.5 -18l-27 11q-10 -8 -21 -8.5t-22 -0.5q41 30 79 51.5t68 36.5q13 6 21 13.5t10 18.5l-63 -32q1 8 9.5 17t17.5 14q17 8 33 17t33 18l-3 -18
q11 7 15.5 14.5t2.5 11.5q31 16 60.5 33.5t53 34.5t38.5 32t17 26zM347 347q1 10 -5 20.5t-16.5 22t-23.5 23.5t-26 26q-5 -6 -4 -12t4.5 -12t7 -11.5t3.5 -11.5q0 -11 -15 -21t-33 -20.5t-34 -21.5t-17 -22q-2 -6 1 -11t7 -9q9 10 17 8.5t14.5 -7.5t13 -12.5t14.5 -6.5
q9 0 24 9t29.5 22t26 26t12.5 21zM-48 -112l-28 -15v9l33 19z" />
    <glyph glyph-name="dieresis" unicode="&#xa8;" 
d="M565 733q-14 -8 -24 -19.5t-19.5 -24t-20 -24.5t-24.5 -21q-14 0 -25.5 6.5t-19 17t-10 23t1.5 24.5h-15q0 5 5.5 23.5t16 39t25 36.5t32.5 16q34 0 55.5 -23.5t21.5 -73.5zM263 625l-15 8l7 30q-9 20 -16.5 43t-5.5 49q-12 7 -12 20q0 10 5.5 20t14 17.5t19 12.5t20.5 5
q30 0 50.5 -30.5t20.5 -84.5z" />
    <glyph glyph-name="copyright" unicode="&#xa9;" horiz-adv-x="848" 
d="M484 207l-21 11q14 3 29.5 6t25.5 1zM492 203l6 -3q-9 -8 -18 -12t-20 4zM68 101q-15 32 -20 58.5t-6 38.5h1q8 -12 17 -18l-1 34q14 28 12.5 40t-12.5 18q11 28 24.5 54t18.5 46l64 18q-2 -7 -8 -12t-8 -13q-10 -5 -13 -10t6 -14q-10 -36 -16 -72.5t-6 -76.5
q0 -48 24.5 -85t66.5 -53q20 2 35.5 1t24.5 -3l10 -18h28l12 11q48 -4 85.5 7.5t66.5 25.5q10 5 17 12t13 11.5t11 5.5t13 -5q3 2 5.5 5t0.5 9q28 23 52 47.5t44 50.5l-10 5q-20 -20 -32 -35t-26 -10q19 20 43 44.5t44 54.5t34 65t14 75t-18 74t-49.5 58t-74.5 37.5
t-92 13.5q-12 10 -25 22.5t-22 26t-12.5 27.5t3.5 26q19 -3 36.5 -7t34.5 -8l-9 -6q14 -5 22 -7.5t18 5.5q154 -45 225.5 -134.5t71.5 -210.5l-14 2q0 -11 3 -17t11 -12q-2 -21 -16 -31.5t-21 -23.5l27 -11q-3 -9 -6.5 -18.5t-8.5 -18.5q-31 13 -42 -11t-11 -70
q-39 -48 -94.5 -88t-111.5 -65q-12 2 -34.5 -2.5t-43.5 -9.5l10 -14q-6 -2 -10.5 -2.5t-9.5 -1.5l-16 10q-11 -2 -22 -5.5t-24 -12.5q-41 0 -82 9t-78.5 27t-70 44.5t-55.5 62.5q4 17 1 27t-8 20zM247 251q-7 11 -13.5 18t-6.5 15q-1 51 21.5 93.5t59 74t82.5 49t92 19.5
q8 -10 22 -2q14 -6 28 -21.5t26 -25.5v-19q-45 -14 -88 -31.5t-77.5 -42t-55.5 -57.5t-21 -78q11 -9 26.5 -11t28.5 -2l-6 -17q14 5 25.5 6t22.5 -6l24 6l6 -7l-57 -17q6 -10 14 -15t22 -2l-13 16l51 12l-12 -15l15 -11q-19 -14 -44.5 -19t-48.5 -5q-19 0 -35.5 7t-31.5 18
t-29.5 25t-28.5 28zM515 118q-12 -8 -22 -13t-25 -3l40 26zM328 57l40 6q2 -5 -2 -7.5t-10.5 -3t-14 0.5t-13.5 3v1z" />
    <glyph glyph-name="ordfeminine" unicode="&#xaa;" horiz-adv-x="431" 
d="M377 495q0 -21 -3 -48t-9.5 -54.5t-17 -53t-25.5 -43.5q-23 8 -33 26t-15 44q17 21 28 43q-24 1 -49 -9t-49 -21l-21 12q-8 -11 -19 -24.5t-23 -13.5q-7 0 -14 7.5t-13 18.5t-9.5 23t-3.5 21q0 5 17.5 22.5t43 41.5t55 51t53.5 51q7 7 11 14.5t8 13.5t9.5 10t15.5 4
q13 0 24.5 -13.5t20 -34t13.5 -44.5t5 -44zM267 485l48 -6l-10 -25h17q11 31 13 56.5t-11 39.5zM219 125l-8 8q-12 -3 -26.5 -5t-30.5 -4t-30.5 -4t-26.5 -6l-15 18q-20 -4 -32 -10.5t-23 -2.5q-8 2 -15 7.5t-17 5.5q42 33 97 54.5t108.5 33t96.5 14t61 -3.5q7 -2 13.5 -12
t10.5 -23.5t4.5 -29t-3.5 -28.5zM6 81q9 14 24.5 20.5t26.5 9.5l14 -8z" />
    <glyph glyph-name="guillemotleft" unicode="&#xab;" horiz-adv-x="448" 
d="M7 276q25 27 55.5 54t62.5 50.5t65 43t64 31.5q5 -8 6.5 -15.5t2.5 -14.5t3.5 -13.5t9.5 -12.5l-10 -59l7 -7q26 28 52.5 55t49.5 51q14 -2 32 -14t26 -36l-18 -25l15 -5q-11 -18 -31.5 -34t-41 -31.5t-37.5 -30t-21 -28.5l89 -82l-14 -10l37 -48l-3 -11q-50 6 -80 20
t-51 31.5t-37.5 35t-38.5 29.5l19 67q8 12 17.5 24t20.5 25q-21 2 -43.5 -5t-44 -19t-39.5 -26t-28 -26l31 -60h18q13 -10 24.5 -25t19 -30.5t10.5 -29.5t0 -21q-42 10 -72 22t-52.5 30t-37.5 44.5t-27 66.5q6 10 -1 19t-9 20z" />
    <glyph glyph-name="logicalnot" unicode="&#xac;" horiz-adv-x="625" 
d="M462 109q-11 2 -11 11.5t3 20.5t4.5 21.5t-7.5 15.5l-19 -78q-19 -6 -36 1t-40 14q1 36 8.5 65t15.5 58q-23 6 -57 2t-68.5 -10t-63.5 -11t-40 0q-10 4 -22.5 29.5t-18.5 54.5q24 6 44 8.5t38 8.5q-5 11 -17.5 10.5t-27 -3.5t-26 -4t-13.5 8q31 10 78 18.5t95 15t89 10
t61 4.5q19 -14 41.5 -25t42.5 -39q-8 -49 -23 -103.5t-30 -102.5z" />
    <glyph glyph-name="uni00AD" unicode="&#xad;" horiz-adv-x="504" 
d="M499 204q-50 -15 -106.5 -26.5t-113.5 -19t-112 -12t-103 -6.5q-2 12 -13.5 22t-25.5 15q0 16 4.5 38t12.5 39q23 19 57 24.5t73 5.5t79.5 -2t76.5 1l-5 -13q14 -4 35.5 -6.5t41.5 -2.5l24 -36q23 3 41.5 -3.5t33.5 -17.5z" />
    <glyph glyph-name="registered" unicode="&#xae;" horiz-adv-x="432" 
d="M454 462q0 -70 -33.5 -127t-102.5 -83q-14 5 -25.5 1t-26.5 -14l-6 6l-20 -10h-21q-28 0 -53.5 13t-45 34.5t-31.5 48.5t-12 55q0 5 0.5 11t1.5 13l10 16v22q5 14 10 27t13 26l24 -15q-5 -12 -8.5 -21t-4.5 -14l-6 -5v-31q0 -20 3.5 -39t12.5 -33.5t24 -23.5t39 -9
q25 0 50 9t48 24q-25 4 -45 22t-35 44q-5 -13 -11.5 -30t-8.5 -33q-12 0 -18.5 4.5t-10 10t-6 11t-7.5 8.5l21 62q-11 9 -9 15.5t10 15.5l9 -5l22 66q18 -9 27.5 -9.5t16 2.5t14 6.5t22.5 2.5q-1 -5 3 -10.5t10 -9.5t12 -4t9 7q3 -5 6.5 -11.5t3.5 -13.5q0 -19 -23 -37
t-57 -33q3 -10 12.5 -17.5t22.5 -13t28 -8t30 -3.5q21 22 34 46t16 46h7q1 8 0 18t-3 15q-3 8 -8 1q-5 15 -13 30t-18.5 27t-22 19t-23.5 7q-14 0 -24 -7t-18 -7q-11 0 -20 10.5t-18 24.5q28 19 53 19q28 0 58 -13t55 -35.5t41 -53.5t16 -67zM249 475l6 -5l22 10l-1 -10
q23 11 21 17t-9 11zM168 561q-2 -4 -3 -8t-3 -9l-12 13q3 5 6 8t7 8zM148 514q-2 -5 -4.5 -10.5t-4.5 -11.5l-19 22q6 10 13 21l8 -3z" />
    <glyph glyph-name="macron" unicode="&#xaf;" 
d="M623 776q-5 -15 -7.5 -26.5t-7.5 -19.5t-14.5 -12t-27.5 -4q-9 0 -18.5 -5t-21 -10t-25 -7.5t-30.5 2.5l-29 -22l-11 5.5t-15 5.5t-15.5 1.5t-11.5 -4.5h-67l-3 -8l63 -4q-1 -2 -1.5 -4t-0.5 -5q-29 0 -61 1t-53 5l-13 -6q-11 7 -22 12.5t-24 4.5q-7 8 -9.5 15t-2.5 13
q0 9 4.5 17.5t11 17t14 17.5t12.5 19q91 -11 190.5 -13.5t195.5 14.5z" />
    <glyph glyph-name="degree" unicode="&#xb0;" horiz-adv-x="387" 
d="M352 504q-17 -26 -35 -46t-37 -37h-25q-6 -10 3 -16q-26 -18 -51 -28t-45 -12q-9 11 -18 10.5t-8 -9.5q-15 3 -32.5 12t-32.5 24.5t-25.5 36.5t-10.5 48l12 15q0 27 9 46.5t29 34.5t52 26.5t77 21.5q14 -10 26.5 -18.5t18.5 -20.5l12 25q42 -7 61.5 -40.5t19.5 -72.5z
M282 546q0 8 -5 17t-13 16q3 -17 -4 -40q-33 -5 -69 -14t-59 -27l-15 -43q15 -6 42.5 0.5t54.5 20.5t47.5 33t20.5 37z" />
    <glyph glyph-name="plusminus" unicode="&#xb1;" horiz-adv-x="625" 
d="M553 257q-48 -10 -111.5 -21t-129.5 -19q-13 -27 -21.5 -54t-11.5 -53q9 2 18 2.5t18 2.5q20 -5 37 -7.5t32.5 -4.5t31.5 -3t34 -1l28 -24l-34 -8q4 -7 13.5 -6.5t21 2t23.5 1t20 -9.5q-47 -10 -100 -21t-106.5 -20.5t-105 -15.5t-94.5 -6q-13 15 -31 23q0 33 15 47.5
t50 25.5t81 17q-12 10 -25 20.5t-14 22.5q-1 14 1 28t6 30q-18 -2 -35 -2h-33q-2 17 -11.5 26.5t-26.5 9.5q-2 19 1.5 36.5t8.5 29.5q32 8 68.5 11.5t74.5 5.5q23 43 47 82t41 68q12 5 23 5.5t19 -1.5l1 -15q13 -7 19.5 -19.5t7.5 -22.5l3 -49h-13q-11 -21 -24 -45
q11 0 19.5 0.5t16.5 1.5l1 -11q15 -3 34.5 -4.5t35.5 -1.5l24 -27q20 1 28.5 -8t23.5 -18zM300 216q-2 0 -5.5 -1t-5.5 -1l-16 -51l5 -6z" />
    <glyph glyph-name="uni00B2" unicode="&#xb2;" horiz-adv-x="520" 
d="M540 372q-30 -23 -52.5 -25t-50.5 3l-25 -19l-15 8q-17 -6 -36 -11.5t-37 -10.5q-6 11 -16 7.5t-19 -16.5q-45 -11 -87.5 -18.5t-76.5 -7.5l-47 41q6 4 6 12t-9 14q13 22 39.5 46t57 48t61 46t53.5 39q-5 5 -17.5 4t-29 -4.5t-34 -9.5t-31.5 -12q-18 16 -30 39.5
t-12 46.5q23 8 51 15t57 12t57.5 8t52.5 4l-2 -5l32 -10l7 7q13 -8 21.5 -21t8.5 -27q0 -13 -6 -31t-14 -36l-57 -44l-8 9q-9 -8 -21.5 -17.5t-26.5 -20t-27.5 -21.5t-23.5 -20l175 24l91 -22l-7 -21l46 10l2 -13v0z" />
    <glyph glyph-name="uni00B3" unicode="&#xb3;" horiz-adv-x="448" 
d="M443 444q0 -26 -8.5 -50.5t-25.5 -43.5q-10 5 -17 2.5t-15 -18.5q-30 -12 -64 -24.5t-69.5 -22t-72 -16t-72.5 -6.5l-6 21l-10 -3q-6 15 -7 32.5t-1 32.5q26 4 57.5 8t55.5 9q23 5 40 -2q22 5 45 12.5t41 15.5t29.5 15.5t11.5 13.5q0 4 -9.5 5.5t-25 2.5t-36.5 1.5
t-43 2.5q-12 14 -26 27.5t-8 27.5l66 58h-24.5t-29.5 -1.5t-29.5 -4.5t-24.5 -9q-8 9 -14 23t-6 25q0 9 9 17.5t22.5 15.5t28.5 11t28 4q28 0 64 -3.5t65 -8.5q13 -15 18.5 -27.5t5 -24.5t-5 -24t-9.5 -27l53 -21q5 -10 12 -22t7 -24z" />
    <glyph glyph-name="acute" unicode="&#xb4;" 
d="M525 756q0 -28 -24.5 -50t-58 -37.5t-68.5 -23.5t-56 -8q-18 0 -28 7q-13 -2 -33.5 -4t-33.5 -3q7 9 10.5 17.5t5.5 15.5l38 14l-2 9q-12 -4 -29 -10t-29 -6q-9 0 -12 4q42 11 86.5 32.5t82.5 42.5v11q29 15 62 34.5t57 36.5q17 -12 24.5 -36t7.5 -46z" />
    <glyph glyph-name="mu" unicode="&#xb5;" horiz-adv-x="581" 
d="M505 285q8 17 14 34.5t11 31.5t10 22.5t13 7.5q-5 -16 -15.5 -46t-21.5 -60.5t-20 -54t-9 -24.5q-15 -45 -22.5 -98.5t-5.5 -105.5q-8 -8 -12.5 -11t-11.5 -5q-3 6 -10 3t-7 -8q-3 -1 -14.5 -1h-14.5q-12 0 -18.5 1t-17.5 3q5 29 1 42t-9 12l-4 -49l-9 4.5t-8 4.5
q1 12 2 21.5t2 18t2 17.5t3 20l-3 8q-33 -38 -56.5 -51t-49.5 -13l-2 7q-7 0 -12.5 -3.5t-11.5 -3.5q-21 0 -38.5 24.5t-18.5 60.5h-5q-5 -25 -16 -62.5t-24.5 -77.5t-29 -77t-30.5 -60q-3 0 -8.5 4.5t-10.5 10.5t-8.5 12t-4.5 10q-2 2 -7.5 4.5t-7.5 -2.5q-17 14 -28 29
t-13 28l20 34q-3 3 -7 0.5t-7.5 -7.5t-6.5 -10.5t-4 -8.5l-10 3q16 28 23.5 44.5t16.5 35.5q3 8 7.5 11l9 6t9 7.5t9.5 15.5q-2 5 -4 6.5t-4 3.5q12 35 24.5 70.5t26.5 64.5q10 22 25 58t30 73.5t28.5 70t21.5 48.5q15 2 34.5 5t36.5 3q10 0 25 -8.5t19 -18.5l11 -3v-13
q-6 -9 -14.5 -27t-17.5 -37t-17 -36t-13 -25q-5 7 -1 16l-5 5q-5 -8 -6 -14t0 -11.5t2 -10t-1 -9.5q-2 -4 -4.5 -12t-5.5 -16.5t-5.5 -16.5t-3.5 -12q4 -10 7 -19t8 -16t13.5 -11.5t23.5 -4.5q45 0 82.5 47t74.5 124q2 5 7 4.5t10 1.5q4 2 2.5 5.5t-9.5 1.5q4 8 8 19.5t7 22
t5.5 19.5t3.5 12q7 5 16 7t17 2q31 0 46.5 -4.5t32.5 -14.5q-10 -5 -15 -14.5t-9 -23t-9 -30.5t-14 -37zM284 54q-11 -10 -20.5 -16t-17.5 -12q7 -3 22 6.5t26 19.5zM493 276q-4 -9 -5.5 -16t4.5 -11l9 24zM222 319q-2 -2 -3 -7.5t5 -7.5q5 7 10 18.5t0 16.5z" />
    <glyph glyph-name="paragraph" unicode="&#xb6;" horiz-adv-x="619" 
d="M634 513q0 -12 -8.5 -26.5t-19.5 -30.5t-21.5 -32t-14.5 -31q-5 -17 -13 -39t-19 -46l-12 4q-5 -13 -9 -23.5t4 -21.5q-2 -4 -3 -7t-3 -7l-9 1l-20 -55l8 -6q-2 -4 -2 -5t-0.5 -1.5t-0.5 -1.5q-8 1 -10 -2t-3 -8t-2.5 -10.5t6.5 -16.5q-6 -23 -12.5 -49t-13 -48.5
t-14 -38.5t-14.5 -20v45l-19 -12q-7 7 -15 10.5t-15 8.5t-11.5 13.5t-4.5 23.5q0 21 10 55.5t22 71t22 70t10 53.5l-7 2q-5 -13 -12.5 -27.5t-15.5 -28t-16 -25t-14 -18.5l-10 12q-3 -5 -5 -11t3 -14t10 -14.5t5 -14.5q0 -12 -12 -27q-8 5 -13.5 -1t2.5 -12
q-11 -14 -17.5 -30.5t4.5 -39.5l-5 -12l-12 6l-21 -65h9l-25 -61q-14 10 -31 20t-31.5 20t-24.5 20t-10 22q0 17 14 49.5t32 71t34.5 78t22.5 69.5q20 4 20 23q-10 0 -24.5 -6.5t-30.5 -15t-31.5 -15t-25.5 -6.5t-27.5 12.5t-34.5 29.5t-29.5 33.5t-12.5 25.5
q0 17 13.5 40.5t35.5 49t50.5 50.5t59.5 47t61 38t56 22q18 -12 36 -27.5t33.5 -31.5t29 -31.5t24.5 -26.5q16 25 23 43.5t12.5 30.5t13.5 17.5t27 5.5q10 -11 22.5 -25t24 -27.5t19.5 -25t8 -17.5zM376 219l-7 8l14 26l6 -4zM299 476q-15 0 -34 -11.5t-38.5 -29t-37 -37
t-29.5 -35.5q0 -15 6 -25l-15 -9l6 -7l15 7q3 -3 9 -7l78 35q0 10 4.5 24.5t11 30.5t13.5 32.5t11 31.5z" />
    <glyph glyph-name="periodcentered" unicode="&#xb7;" horiz-adv-x="176" 
d="M161 230q-2 -9 -11.5 -23.5t-22.5 -29.5t-28.5 -28t-28.5 -17l-55 63l10 13q-9 21 -7 43.5t11 41t22.5 31t28.5 12.5q12 0 24 -9t23 -23.5t19.5 -33.5t14.5 -40z" />
    <glyph glyph-name="cedilla" unicode="&#xb8;" 
d="M279 -114q0 -42 -29.5 -80t-78.5 -67h-25l10 -9q-5 -3 -10 -5.5l-11 -5.5q-7 9 -15 6t-10 -17q-8 -4 -16.5 -6.5t-16.5 -5.5q9 18 12 28t-11 17q13 10 30.5 24t34 29.5t28 30.5t11.5 28q-9 8 -18.5 13t-18.5 10.5t-15.5 13t-9.5 20.5l56 86h65l-21 -47q8 -7 18 -13.5
t19 -14t15.5 -16t6.5 -19.5z" />
    <glyph glyph-name="uni00B9" unicode="&#xb9;" horiz-adv-x="326" 
d="M346 573q-9 -29 -24 -59t-31 -64t-30.5 -73.5t-23.5 -85.5l-22 -18q-17 11 -29.5 19.5t-21.5 17.5h-11l-18 29l9 16q0 19 6 40.5t15 43.5t19.5 43.5t19.5 41.5l-47 -13q-9 9 -17 19t-8 24q0 17 10 27.5t26 13.5q35 6 69.5 21t60.5 23q7 0 15.5 -4t14.5 -7l18 -55v0z" />
    <glyph glyph-name="ordmasculine" unicode="&#xba;" horiz-adv-x="446" 
d="M401 458q-14 -14 -38 -38.5t-51 -48.5t-55 -42t-50 -18q-11 0 -22.5 4t-20.5 8l-10 42h-18l-11 31q2 17 8.5 40.5t17 49t23.5 50.5t29 45t34 32t37 12q8 0 29 -8t42.5 -27t38.5 -51.5t17 -80.5zM319 485q4 16 2 27t-13 11t-23.5 -13t-24.5 -32.5t-23 -41t-19 -39.5v-12
l62 43q2 17 13 33t26 24zM210 359q59 0 67 43l1 5zM228 126l-9 9q-12 -3 -27 -5.5t-31 -4.5t-30.5 -4t-26.5 -6l-15 19q-20 -4 -32.5 -10.5t-23.5 -2.5q-8 2 -15 7.5t-18 5.5q43 33 99 55t110 33.5t98 14t62 -3.5q7 -2 13.5 -12t10.5 -23.5t4.5 -29t-3.5 -29.5zM12 82
q10 14 25 20.5t26 9.5l14 -8z" />
    <glyph glyph-name="guillemotright" unicode="&#xbb;" horiz-adv-x="448" 
d="M441 253q-25 -27 -55.5 -54t-62.5 -50.5t-65 -43t-64 -31.5q-5 7 -6.5 15t-2.5 15t-3.5 13.5t-9.5 12.5l11 58l-8 8q-26 -28 -52.5 -55t-49.5 -51q-14 2 -32 14t-26 36l18 25l-15 5q11 18 31.5 34t41 31.5t37.5 30t21 28.5l-89 82l14 10l-37 48l3 11q50 -6 80 -20
t51 -31.5t37 -35t39 -29.5l-19 -67q-8 -12 -17.5 -24t-20.5 -25q21 -2 43.5 5t44 19t39 26t28.5 26l-31 60h-18q-13 10 -24.5 25t-19 30.5t-10.5 29.5t0 21q42 -10 72 -22t52.5 -30t37.5 -44.5t27 -66.5q-6 -10 1 -19t9 -20z" />
    <glyph glyph-name="onequarter" unicode="&#xbc;" horiz-adv-x="697" 
d="M672 169q-6 -28 -26 -51t-63 -34l-31 -82l-12 6q-11 -24 -10 -41.5t4 -31.5l-49 -6l-54 41q0 21 10.5 44.5t22.5 40.5l-99 -16q-18 9 -35.5 16.5t-31 15.5t-21.5 18.5t-8 25.5t14.5 38.5t37 49t50 50.5t52.5 44h33q11 -13 12.5 -28t1.5 -26l-80 -121l74 11q11 1 24 10.5
t24.5 23t19 29t7.5 30.5l30 22q17 -9 23.5 -32t6.5 -50l53 21q2 -6 8 -11t12 -7zM323 574q-9 -29 -24 -59t-31 -64t-30.5 -73.5t-22.5 -85.5q9 7 16 11.5t12 6.5l90 86l7 -6l114 81l-8 7q18 12 40.5 24.5t44.5 23.5t43 20t36 14l9 -9l-8 -12q16 -11 29.5 -20t21.5 -20v-35
l-30 -29l-12 5q-103 -57 -196 -118.5t-175 -132.5q-72 -63 -150.5 -139t-157.5 -145q-14 29 5 61t54 75q7 7 10 13.5t0 11.5l-45 -49l-6 4q16 20 33 40.5t32 28.5q7 16 26 39.5t43 49t50 51t49 44.5q-17 11 -29.5 19.5t-21.5 17.5h-11l-18 29l9 16q0 19 6 40.5t15 43.5
t19.5 43.5t19.5 41.5l-47 -13q-9 9 -17 19t-8 24q0 17 10 27.5t26 13.5q35 6 69.5 21t60.5 23q7 0 15.5 -4t14.5 -7z" />
    <glyph glyph-name="onehalf" unicode="&#xbd;" horiz-adv-x="724" 
d="M749 38q-30 -23 -52.5 -24.5t-50.5 3.5l-24 -19l-16 7q-17 -5 -35.5 -10.5t-37.5 -10.5q-4 10 -16 7q-10 -3 -19 -17q-45 -11 -88 -18.5t-77 -7.5l-46 42q6 4 6 12t-9 14q13 22 39 46t56.5 48t61 46t53.5 39q-5 5 -18 4t-29 -4.5t-33.5 -9.5t-31.5 -12q-15 13 -26.5 30.5
t-11.5 36.5l16 26q19 5 45 10.5t54 10t54.5 7.5t45.5 4l-3 -6l33 -9l7 7q13 -8 21.5 -21t8.5 -27q0 -13 -6 -31t-14 -36l-57 -44l-8 9q-9 -8 -21.5 -17.5t-26.5 -20.5t-27.5 -22t-23.5 -20l174 25l92 -23l-7 -20l47 10zM215 292q9 7 16 11.5t12 6.5l90 86l7 -6l114 81l-8 7
q18 12 40.5 24.5t44.5 23.5t43 20t36 14l9 -9l-8 -12q16 -11 29.5 -20t21.5 -20v-35l-30 -29l-12 5q-103 -57 -196 -118.5t-175 -132.5q-72 -63 -150.5 -139t-157.5 -145q-14 29 5 61t54 75q7 7 10 13.5t0 11.5l-45 -49l-6 4q16 20 33 40.5t32 28.5q7 16 26 39.5t43 49
t50.5 51t49.5 44.5q-17 11 -29.5 19.5t-21.5 17.5h-11l-18 29l9 16q0 19 6 40.5t15 43.5t19.5 43.5t19.5 41.5l-47 -13q-9 9 -17 19t-8 24q0 17 10 27.5t26 13.5q35 6 69.5 21t60.5 23q7 0 15.5 -4t14.5 -7l18 -55q-8 -29 -22.5 -59.5t-31 -64.5t-31.5 -73t-24 -85z" />
    <glyph glyph-name="threequarters" unicode="&#xbe;" horiz-adv-x="806" 
d="M781 168q-6 -28 -25.5 -50.5t-62.5 -33.5l-31 -82l-13 6q-11 -24 -10 -41.5t4 -31.5l-48 -6l-55 41q0 21 10.5 44.5t22.5 40.5l-98 -16q-18 9 -35.5 16.5t-31 15.5t-21.5 18.5t-8 25.5t14.5 38.5t37 49t49.5 50.5t52 44h34q11 -13 12 -28t1 -26l-80 -121l74 11
q11 1 24 10.5t24.5 22.5t19 28.5t7.5 30.5l30 23q17 -9 23.5 -32t6.5 -50l53 21q2 -6 8 -11.5t12 -7.5zM403 444q0 -26 -8.5 -50.5t-25.5 -43.5q-10 5 -17 2.5t-15 -18.5q-30 -12 -64 -24.5t-69.5 -22t-72 -16t-72.5 -6.5l-6 21l-10 -3q-6 15 -7 32.5t-1 32.5q26 4 57.5 8
t55.5 9q23 5 40 -2q22 5 45 12.5t41 15.5t29.5 15.5t11.5 13.5q0 4 -9.5 5.5t-25 2.5t-36.5 1.5t-43 2.5q-12 14 -26 27.5t-8 27.5l66 58h-24.5t-29.5 -1.5t-29.5 -4.5t-24.5 -9q-8 9 -14 23t-6 25q0 9 9 17.5t22.5 15.5t28.5 11t28 4q28 0 64 -3.5t65 -8.5
q13 -15 18.5 -27.5t5 -24.5t-5 -24t-9.5 -27l53 -21q5 -10 12 -22t7 -24zM729 425l-11 5q-101 -56 -192.5 -116.5t-171.5 -129.5q-71 -62 -148 -136.5t-155 -142.5q-14 28 4 59.5t54 73.5q6 8 9.5 14t0.5 11l-44 -49l-6 5q15 19 32 39t31 28q6 14 22.5 34.5t37.5 43.5
t44.5 46t45.5 42.5t39 33t26 17.5l89 84l7 -6l111 79l-7 7q18 12 40 24t43.5 23t42 19.5t35.5 13.5l8 -9l-7 -11q15 -11 28 -19.5t21 -19.5v-35z" />
    <glyph glyph-name="questiondown" unicode="&#xbf;" horiz-adv-x="468" 
d="M-30 77q7 19 10.5 38.5t5.5 34.5q4 32 23 72t53 80t82.5 76t111.5 62q0 -20 6 -29.5t24 -7.5v-36q-33 -24 -65 -52t-58.5 -56.5t-46 -57t-28.5 -54.5q0 -8 2.5 -13.5t4.5 -10.5t1.5 -9t-5.5 -8q8 -11 18.5 -14.5t25.5 -2.5q20 1 49.5 7.5t60.5 14.5t60 15t48 7v-4
q14 -11 22 -15t13 -4q4 -1 5.5 3t1.5 7q-1 2 -1 3.5t-1 3.5q45 -18 45 -87q0 -16 -10.5 -29t-30.5 -16q-34 -5 -77 -10.5t-84.5 -10t-77 -7.5t-54.5 -3q-13 0 -23.5 4.5t-21 10.5t-23 11.5t-28.5 7.5zM298 661l49 -23q4 -14 16.5 -32.5t26.5 -30.5q0 -18 6.5 -36.5
t6.5 -33.5q0 -24 -9.5 -46.5t-26.5 -22.5q-23 0 -36.5 7t-22 21t-13.5 35t-11 49z" />
    <glyph glyph-name="Agrave" unicode="&#xc0;" horiz-adv-x="569" 
d="M528 195q-14 -2 -27.5 -4t-26.5 -4q-3 -6 -4.5 -17t-3.5 -22.5t-6 -23t-12 -18.5q11 -6 7 -21t-14 -24q5 -11 5 -22t-16 -32q-1 -3 4 -1t7 4q-2 -26 -7 -47t-13 -44q-12 0 -22.5 4.5t-20.5 9.5t-18 8.5t-14 1.5q1 15 -2 21.5t-14 6.5l1 14q9 0 10 10q-9 0 -9 10
q2 17 8.5 38t11.5 44q5 0 6 -8.5t0 -19.5q3 0 6 7t6 16.5t5 20.5t3 20l-12 5q-1 -12 -2.5 -24.5t-10.5 -8.5q1 5 2 13.5t2.5 17.5t2.5 17t2 13l17 -21q-1 9 1.5 14t0.5 16q-21 1 -57 -12t-74 -31t-71.5 -36.5t-50.5 -30.5l-5 -13l4 -12q-13 -26 -24.5 -53.5t-23.5 -43.5
l-63 27q-1 12 -8 20.5t-14.5 16.5t-12 15.5t-0.5 17.5h-16q8 57 40 115t74.5 114t88 109.5t80.5 100.5t69.5 79.5t63.5 55.5q3 2 8.5 2t11.5 0.5t11 3t6 9.5q10 -3 27.5 -11t28.5 -17l-18 -6q0 -6 3.5 -6.5t8.5 1l10 3t7 0.5q14 -12 18.5 -27.5t6 -31t2.5 -30.5t8 -26v-16.5
t-2 -32t-5 -33t-9 -18.5q2 -2 3 -2t3 -2q-5 -17 -9.5 -37.5t-6.5 -41.5q0 -5 5.5 -13t12 -20t12 -26.5t4.5 -30.5zM444 491q-7 0 -19 -10t-26 -26t-30.5 -36.5t-32.5 -41.5l-5 5l3.5 10.5t-1.5 7.5q-12 -14 -16.5 -23t2.5 -23q-23 -30 -42 -54q-14 -17 -32.5 -45.5
t-35.5 -53.5q15 9 30 23t45 27q26 11 45.5 16t46.5 13q2 20 8 34t9 25l17 -15q4 12 9 31.5t10 42t9.5 44.5t8.5 39zM388 293q-3 -9 1 -10.5t9 -0.5l1 11h-11zM397 309l-4 1l-4 -11h9zM357 52l-4 -13h6l4 16zM222 129q-5 4 -13 2.5t-17 -6t-18.5 -9.5t-16.5 -9q-4 -5 -6 -9
t-5 -9zM234 135q7 4 17 8.5t18 9.5v1q-17 -1 -24.5 -4t-10.5 -15zM426 432h-9l8 27l9 4zM167 125q3 2 15.5 7.5t17.5 16.5q-6 -2 -11 -3.5t-10 -3.5zM629 647q-10 -5 -17.5 -6.5t-15.5 0.5t-17 7t-21 14q-3 -9 13 -20t37 -26l-12 -7q-26 20 -67.5 44.5t-86.5 44.5l-9 -6
q-29 14 -65 29t-64 25q0 15 8.5 31t21 28.5t26.5 20.5t24 8q21 0 55 -15t66 -36.5t55 -45t23 -40.5q9 -9 23.5 -24.5t22.5 -25.5z" />
    <glyph glyph-name="Aacute" unicode="&#xc1;" horiz-adv-x="569" 
d="M528 195q-14 -2 -27.5 -4t-26.5 -4q-3 -6 -4.5 -17t-3.5 -22.5t-6 -23t-12 -18.5q11 -6 7 -21t-14 -24q5 -11 5 -22t-16 -32q-1 -3 4 -1t7 4q-2 -26 -7 -47t-13 -44q-12 0 -22.5 4.5t-20.5 9.5t-18 8.5t-14 1.5q1 15 -2 21.5t-14 6.5l1 14q9 0 10 10q-9 0 -9 10
q2 17 8.5 38t11.5 44q5 0 6 -8.5t0 -19.5q3 0 6 7t6 16.5t5 20.5t3 20l-12 5q-1 -12 -2.5 -24.5t-10.5 -8.5q1 5 2 13.5t2.5 17.5t2.5 17t2 13l17 -21q-1 9 1.5 14t0.5 16q-21 1 -57 -12t-74 -31t-71.5 -36.5t-50.5 -30.5l-5 -13l4 -12q-13 -26 -24.5 -53.5t-23.5 -43.5
l-63 27q-1 12 -8 20.5t-14.5 16.5t-12 15.5t-0.5 17.5h-16q8 57 40 115t74.5 114t88 109.5t80.5 100.5t69.5 79.5t63.5 55.5q3 2 8.5 2t11.5 0.5t11 3t6 9.5q10 -3 27.5 -11t28.5 -17l-18 -6q0 -6 3.5 -6.5t8.5 1l10 3t7 0.5q14 -12 18.5 -27.5t6 -31t2.5 -30.5t8 -26v-16.5
t-2 -32t-5 -33t-9 -18.5q2 -2 3 -2t3 -2q-5 -17 -9.5 -37.5t-6.5 -41.5q0 -5 5.5 -13t12 -20t12 -26.5t4.5 -30.5zM444 491q-7 0 -19 -10t-26 -26t-30.5 -36.5t-32.5 -41.5l-5 5l3.5 10.5t-1.5 7.5q-12 -14 -16.5 -23t2.5 -23q-23 -30 -42 -54q-14 -17 -32.5 -45.5
t-35.5 -53.5q15 9 30 23t45 27q26 11 45.5 16t46.5 13q2 20 8 34t9 25l17 -15q4 12 9 31.5t10 42t9.5 44.5t8.5 39zM388 293q-3 -9 1 -10.5t9 -0.5l1 11h-11zM397 309l-4 1l-4 -11h9zM357 52l-4 -13h6l4 16zM222 129q-5 4 -13 2.5t-17 -6t-18.5 -9.5t-16.5 -9q-4 -5 -6 -9
t-5 -9zM234 135q7 4 17 8.5t18 9.5v1q-17 -1 -24.5 -4t-10.5 -15zM426 432h-9l8 27l9 4zM167 125q3 2 15.5 7.5t17.5 16.5q-6 -2 -11 -3.5t-10 -3.5zM650 776q0 -28 -24.5 -50t-58 -37.5t-68.5 -23.5t-56 -8q-18 0 -28 7q-13 -2 -33.5 -4t-33.5 -3q7 9 10.5 17.5t5.5 15.5
l38 14l-2 9q-12 -4 -29 -10t-29 -6q-9 0 -12 4q42 11 86.5 32.5t82.5 42.5v11q29 15 62 34.5t57 36.5q17 -12 24.5 -36t7.5 -46z" />
    <glyph glyph-name="Acircumflex" unicode="&#xc2;" horiz-adv-x="569" 
d="M528 195q-14 -2 -27.5 -4t-26.5 -4q-3 -6 -4.5 -17t-3.5 -22.5t-6 -23t-12 -18.5q11 -6 7 -21t-14 -24q5 -11 5 -22t-16 -32q-1 -3 4 -1t7 4q-2 -26 -7 -47t-13 -44q-12 0 -22.5 4.5t-20.5 9.5t-18 8.5t-14 1.5q1 15 -2 21.5t-14 6.5l1 14q9 0 10 10q-9 0 -9 10
q2 17 8.5 38t11.5 44q5 0 6 -8.5t0 -19.5q3 0 6 7t6 16.5t5 20.5t3 20l-12 5q-1 -12 -2.5 -24.5t-10.5 -8.5q1 5 2 13.5t2.5 17.5t2.5 17t2 13l17 -21q-1 9 1.5 14t0.5 16q-21 1 -57 -12t-74 -31t-71.5 -36.5t-50.5 -30.5l-5 -13l4 -12q-13 -26 -24.5 -53.5t-23.5 -43.5
l-63 27q-1 12 -8 20.5t-14.5 16.5t-12 15.5t-0.5 17.5h-16q8 57 40 115t74.5 114t88 109.5t80.5 100.5t69.5 79.5t63.5 55.5q3 2 8.5 2t11.5 0.5t11 3t6 9.5q10 -3 27.5 -11t28.5 -17l-18 -6q0 -6 3.5 -6.5t8.5 1l10 3t7 0.5q14 -12 18.5 -27.5t6 -31t2.5 -30.5t8 -26v-16.5
t-2 -32t-5 -33t-9 -18.5q2 -2 3 -2t3 -2q-5 -17 -9.5 -37.5t-6.5 -41.5q0 -5 5.5 -13t12 -20t12 -26.5t4.5 -30.5zM444 491q-7 0 -19 -10t-26 -26t-30.5 -36.5t-32.5 -41.5l-5 5l3.5 10.5t-1.5 7.5q-12 -14 -16.5 -23t2.5 -23q-23 -30 -42 -54q-14 -17 -32.5 -45.5
t-35.5 -53.5q15 9 30 23t45 27q26 11 45.5 16t46.5 13q2 20 8 34t9 25l17 -15q4 12 9 31.5t10 42t9.5 44.5t8.5 39zM388 293q-3 -9 1 -10.5t9 -0.5l1 11h-11zM397 309l-4 1l-4 -11h9zM357 52l-4 -13h6l4 16zM222 129q-5 4 -13 2.5t-17 -6t-18.5 -9.5t-16.5 -9q-4 -5 -6 -9
t-5 -9zM234 135q7 4 17 8.5t18 9.5v1q-17 -1 -24.5 -4t-10.5 -15zM426 432h-9l8 27l9 4zM167 125q3 2 15.5 7.5t17.5 16.5q-6 -2 -11 -3.5t-10 -3.5zM631 657q-3 -10 -7 -14.5t-8.5 -6.5l-9 -4t-7.5 -7q-21 9 -32.5 21.5t-19 26.5t-15 29.5t-22.5 30.5q-28 -7 -56.5 -25
t-54 -36.5t-45.5 -32.5t-30 -14t-25.5 16.5t-35.5 33.5q6 11 5 21t-7 18q17 16 47 35t62 37.5t61.5 33.5t46.5 23l14 -10l15 7q14 -16 29 -36.5t30 -42t29.5 -44t27.5 -41.5l-11 -9z" />
    <glyph glyph-name="Atilde" unicode="&#xc3;" horiz-adv-x="569" 
d="M528 195q-14 -2 -27.5 -4t-26.5 -4q-3 -6 -4.5 -17t-3.5 -22.5t-6 -23t-12 -18.5q11 -6 7 -21t-14 -24q5 -11 5 -22t-16 -32q-1 -3 4 -1t7 4q-2 -26 -7 -47t-13 -44q-12 0 -22.5 4.5t-20.5 9.5t-18 8.5t-14 1.5q1 15 -2 21.5t-14 6.5l1 14q9 0 10 10q-9 0 -9 10
q2 17 8.5 38t11.5 44q5 0 6 -8.5t0 -19.5q3 0 6 7t6 16.5t5 20.5t3 20l-12 5q-1 -12 -2.5 -24.5t-10.5 -8.5q1 5 2 13.5t2.5 17.5t2.5 17t2 13l17 -21q-1 9 1.5 14t0.5 16q-21 1 -57 -12t-74 -31t-71.5 -36.5t-50.5 -30.5l-5 -13l4 -12q-13 -26 -24.5 -53.5t-23.5 -43.5
l-63 27q-1 12 -8 20.5t-14.5 16.5t-12 15.5t-0.5 17.5h-16q8 57 40 115t74.5 114t88 109.5t80.5 100.5t69.5 79.5t63.5 55.5q3 2 8.5 2t11.5 0.5t11 3t6 9.5q10 -3 27.5 -11t28.5 -17l-18 -6q0 -6 3.5 -6.5t8.5 1l10 3t7 0.5q14 -12 18.5 -27.5t6 -31t2.5 -30.5t8 -26v-16.5
t-2 -32t-5 -33t-9 -18.5q2 -2 3 -2t3 -2q-5 -17 -9.5 -37.5t-6.5 -41.5q0 -5 5.5 -13t12 -20t12 -26.5t4.5 -30.5zM444 491q-7 0 -19 -10t-26 -26t-30.5 -36.5t-32.5 -41.5l-5 5l3.5 10.5t-1.5 7.5q-12 -14 -16.5 -23t2.5 -23q-23 -30 -42 -54q-14 -17 -32.5 -45.5
t-35.5 -53.5q15 9 30 23t45 27q26 11 45.5 16t46.5 13q2 20 8 34t9 25l17 -15q4 12 9 31.5t10 42t9.5 44.5t8.5 39zM388 293q-3 -9 1 -10.5t9 -0.5l1 11h-11zM397 309l-4 1l-4 -11h9zM357 52l-4 -13h6l4 16zM222 129q-5 4 -13 2.5t-17 -6t-18.5 -9.5t-16.5 -9q-4 -5 -6 -9
t-5 -9zM234 135q7 4 17 8.5t18 9.5v1q-17 -1 -24.5 -4t-10.5 -15zM426 432h-9l8 27l9 4zM167 125q3 2 15.5 7.5t17.5 16.5q-6 -2 -11 -3.5t-10 -3.5zM671 713q-17 -26 -43 -48t-64 -22q-29 0 -44.5 10t-24.5 23.5t-15 27t-15 21.5q-17 -5 -36 -15.5t-37 -23.5t-33.5 -26.5
t-24.5 -23.5q-17 5 -26 12t-12 15.5t-3 18t1 18.5q17 16 25.5 26.5t5.5 18.5q-11 -10 -22 -20.5t-19 -2.5q15 13 33 30t36.5 32.5t38.5 26t40 10.5q8 0 18 -4.5t15 -11.5q18 0 25 -10.5t13.5 -23.5t18 -23.5t38.5 -10.5q17 0 34 9t35 18q-5 -10 -5 -19l16 4l3 -5l-14 -11
q4 -3 10 -4.5l12 -3t11.5 -4t8.5 -8.5z" />
    <glyph glyph-name="Adieresis" unicode="&#xc4;" horiz-adv-x="569" 
d="M528 195q-14 -2 -27.5 -4t-26.5 -4q-3 -6 -4.5 -17t-3.5 -22.5t-6 -23t-12 -18.5q11 -6 7 -21t-14 -24q5 -11 5 -22t-16 -32q-1 -3 4 -1t7 4q-2 -26 -7 -47t-13 -44q-12 0 -22.5 4.5t-20.5 9.5t-18 8.5t-14 1.5q1 15 -2 21.5t-14 6.5l1 14q9 0 10 10q-9 0 -9 10
q2 17 8.5 38t11.5 44q5 0 6 -8.5t0 -19.5q3 0 6 7t6 16.5t5 20.5t3 20l-12 5q-1 -12 -2.5 -24.5t-10.5 -8.5q1 5 2 13.5t2.5 17.5t2.5 17t2 13l17 -21q-1 9 1.5 14t0.5 16q-21 1 -57 -12t-74 -31t-71.5 -36.5t-50.5 -30.5l-5 -13l4 -12q-13 -26 -24.5 -53.5t-23.5 -43.5
l-63 27q-1 12 -8 20.5t-14.5 16.5t-12 15.5t-0.5 17.5h-16q8 57 40 115t74.5 114t88 109.5t80.5 100.5t69.5 79.5t63.5 55.5q3 2 8.5 2t11.5 0.5t11 3t6 9.5q10 -3 27.5 -11t28.5 -17l-18 -6q0 -6 3.5 -6.5t8.5 1l10 3t7 0.5q14 -12 18.5 -27.5t6 -31t2.5 -30.5t8 -26v-16.5
t-2 -32t-5 -33t-9 -18.5q2 -2 3 -2t3 -2q-5 -17 -9.5 -37.5t-6.5 -41.5q0 -5 5.5 -13t12 -20t12 -26.5t4.5 -30.5zM444 491q-7 0 -19 -10t-26 -26t-30.5 -36.5t-32.5 -41.5l-5 5l3.5 10.5t-1.5 7.5q-12 -14 -16.5 -23t2.5 -23q-23 -30 -42 -54q-14 -17 -32.5 -45.5
t-35.5 -53.5q15 9 30 23t45 27q26 11 45.5 16t46.5 13q2 20 8 34t9 25l17 -15q4 12 9 31.5t10 42t9.5 44.5t8.5 39zM388 293q-3 -9 1 -10.5t9 -0.5l1 11h-11zM397 309l-4 1l-4 -11h9zM357 52l-4 -13h6l4 16zM222 129q-5 4 -13 2.5t-17 -6t-18.5 -9.5t-16.5 -9q-4 -5 -6 -9
t-5 -9zM234 135q7 4 17 8.5t18 9.5v1q-17 -1 -24.5 -4t-10.5 -15zM426 432h-9l8 27l9 4zM167 125q3 2 15.5 7.5t17.5 16.5q-6 -2 -11 -3.5t-10 -3.5zM650 733q-14 -8 -24 -19.5t-19.5 -24t-20 -24.5t-24.5 -21q-14 0 -25.5 6.5t-19 17t-10 23t1.5 24.5h-15q0 5 5.5 23.5
t16 39t25 36.5t32.5 16q34 0 55.5 -23.5t21.5 -73.5zM348 625l-15 8l7 30q-9 20 -16.5 43t-5.5 49q-12 7 -12 20q0 10 5.5 20t14 17.5t19 12.5t20.5 5q30 0 50.5 -30.5t20.5 -84.5z" />
    <glyph glyph-name="Aring" unicode="&#xc5;" horiz-adv-x="569" 
d="M528 195q-14 -2 -27.5 -4t-26.5 -4q-3 -6 -4.5 -17t-3.5 -22.5t-6 -23t-12 -18.5q11 -6 7 -21t-14 -24q5 -11 5 -22t-16 -32q-1 -3 4 -1t7 4q-2 -26 -7 -47t-13 -44q-12 0 -22.5 4.5t-20.5 9.5t-18 8.5t-14 1.5q1 15 -2 21.5t-14 6.5l1 14q9 0 10 10q-9 0 -9 10
q2 17 8.5 38t11.5 44q5 0 6 -8.5t0 -19.5q3 0 6 7t6 16.5t5 20.5t3 20l-12 5q-1 -12 -2.5 -24.5t-10.5 -8.5q1 5 2 13.5t2.5 17.5t2.5 17t2 13l17 -21q-1 9 1.5 14t0.5 16q-21 1 -57 -12t-74 -31t-71.5 -36.5t-50.5 -30.5l-5 -13l4 -12q-13 -26 -24.5 -53.5t-23.5 -43.5
l-63 27q-1 12 -8 20.5t-14.5 16.5t-12 15.5t-0.5 17.5h-16q8 57 40 115t74.5 114t88 109.5t80.5 100.5t69.5 79.5t63.5 55.5q3 2 8.5 2t11.5 0.5t11 3t6 9.5q10 -3 27.5 -11t28.5 -17l-18 -6q0 -6 3.5 -6.5t8.5 1l10 3t7 0.5q14 -12 18.5 -27.5t6 -31t2.5 -30.5t8 -26v-16.5
t-2 -32t-5 -33t-9 -18.5q2 -2 3 -2t3 -2q-5 -17 -9.5 -37.5t-6.5 -41.5q0 -5 5.5 -13t12 -20t12 -26.5t4.5 -30.5zM444 491q-7 0 -19 -10t-26 -26t-30.5 -36.5t-32.5 -41.5l-5 5l3.5 10.5t-1.5 7.5q-12 -14 -16.5 -23t2.5 -23q-23 -30 -42 -54q-14 -17 -32.5 -45.5
t-35.5 -53.5q15 9 30 23t45 27q26 11 45.5 16t46.5 13q2 20 8 34t9 25l17 -15q4 12 9 31.5t10 42t9.5 44.5t8.5 39zM388 293q-3 -9 1 -10.5t9 -0.5l1 11h-11zM397 309l-4 1l-4 -11h9zM357 52l-4 -13h6l4 16zM222 129q-5 4 -13 2.5t-17 -6t-18.5 -9.5t-16.5 -9q-4 -5 -6 -9
t-5 -9zM234 135q7 4 17 8.5t18 9.5v1q-17 -1 -24.5 -4t-10.5 -15zM419 638q-19 3 -33 13.5t-23 25t-13.5 32t-4.5 35.5q16 23 33 41.5t34 33.5h23q6 10 -3 15q24 17 46.5 26t40.5 11q8 -11 17 -10.5t8 8.5q14 -3 30 -11t30 -21.5t23 -32.5t9 -44l-12 -15q0 -24 -8 -42
t-26 -32t-47 -24.5t-71 -19.5q-14 9 -24.5 16.5t-16.5 18.5zM561 788q-14 6 -39 -0.5t-50.5 -19.5t-44 -30.5t-18.5 -33.5q0 -10 17 -29h1q-3 13 3 36q30 4 62.5 12t53.5 25zM426 432h-9l8 27l9 4zM167 125q3 2 15.5 7.5t17.5 16.5q-6 -2 -11 -3.5t-10 -3.5z" />
    <glyph glyph-name="AE" unicode="&#xc6;" horiz-adv-x="891" 
d="M399 176q-14 0 -36.5 -6.5t-49 -17t-54 -23.5t-53 -25.5t-46 -24t-31.5 -19.5l-5 -13l4 -12q-13 -26 -24.5 -53.5t-23.5 -43.5l-58 24q-1 12 -9.5 20.5t-17 16.5t-14 16t-0.5 18h-16q8 57 40.5 115.5t74.5 115t88 110t81 100.5t70 79.5t64 55.5q3 2 8.5 2t11.5 0.5t11 3
t6 9.5q5 -2 13 -4.5t17 -6t17.5 -8t14.5 -9.5l-18 -6q0 -6 3.5 -6.5t8.5 1l10 3t7 0.5q11 -10 16 -22.5t7 -25.5t2.5 -26t3.5 -24h3q2 15 5 30t14 31q19 -2 34 8.5t28 24t25 25t25 11.5q7 0 19 -2.5t24.5 -5.5t23.5 -6t16 -4q2 -17 -3 -34t-14 -37q14 -1 40.5 -3.5
t43.5 -2.5l10 -19q4 0 10 3t14 3t23.5 -5t26.5 -7q2 0 3 -1t-1 -3q-15 -14 -27.5 -18t-21 -6t-12.5 -5.5t-1 -14.5q23 9 43 15.5t40 16.5q3 2 7 5t4 -2q1 -8 -8.5 -13t-16.5 -11q-34 -15 -68 -24t-68 -16t-67 -13t-65 -16q-9 -14 -19 -30.5t-18 -27.5q16 4 36.5 8.5t40.5 9
t37.5 7.5t28.5 3q22 0 32.5 -9.5t26.5 -35.5q-6 -17 10 -25l-5 -21q-29 -3 -65.5 -9t-72.5 -13.5t-67.5 -16t-50.5 -16.5q-9 -4 -17.5 -23.5t-15.5 -43t-11 -45t-4 -29.5q12 -9 26 -11.5t28.5 -2t28 3t24.5 5.5l6 -10q5 0 10.5 3.5t6.5 8.5q6 1 10 -2.5t7.5 -7.5t7.5 -7
t9 -1q24 7 50 15t51 16t48.5 15.5t42.5 13.5q7 2 8 -1q1 -4 -7.5 -8.5t-13.5 -7.5l-68 -25q4 -3 11 -7.5t13 -7.5q5 -2 -2 -4q-38 -13 -82 -25t-86 -23q11 -5 26.5 -5.5t29.5 3.5q30 8 68.5 21t75.5 26q2 1 5.5 1.5t-0.5 -7.5q-9 -15 -29 -22q-24 -9 -51 -19t-54.5 -18
t-54 -13t-49.5 -5q-42 0 -78.5 10.5t-63 33.5t-41.5 60t-13 91q0 2 1 6t1 6zM398 314l-4 1l-4 -11h9zM389 298q-3 -9 1 -10.5t9 -0.5l1 11h-11zM445 496q-7 0 -19 -10t-26 -26t-30.5 -36.5t-32.5 -41.5l-5 5l3.5 10.5t-1.5 7.5q-12 -14 -16.5 -23t2.5 -23q-23 -30 -42 -54
q-14 -17 -32.5 -45.5t-35.5 -53.5q15 9 30 23t45 27q26 11 45.5 16t46.5 13q2 20 8 34t9 25l17 -15q4 12 9 31.5t10 42t9.5 44.5t8.5 39zM482 119q-8 -26 4 -35l4 26zM841 490q0 4 -7.5 5t-12.5 -1l2 -12zM223 134q-5 4 -13 2.5t-17 -6t-18.5 -9.5t-16.5 -9q-4 -5 -6 -9
t-5 -9zM235 140q7 4 17 8.5t18 9.5v1q-17 -1 -24.5 -4t-10.5 -15zM601 390l-17 -27l13 3l17 27zM588 354q-6 0 -14.5 -9.5t-11.5 -17.5l15 4zM427 437h-9l8 27l9 4zM168 130q3 2 15.5 7.5t17.5 16.5q-6 -2 -11 -3.5t-10 -3.5zM499 182q4 5 10 11.5t10 14.5q-17 2 -19 -15z
M498 176l-11 -36l8 -9l13 45h-10zM792 118q-10 -11 -26.5 -16t-30.5 -4q-21 -16 -44 -23t-31 7q35 8 67.5 18.5t61.5 21.5q3 2 4 0t-1 -4z" />
    <glyph glyph-name="Ccedilla" unicode="&#xc7;" horiz-adv-x="534" 
d="M269 -114q0 -42 -29.5 -80t-78.5 -67h-25l10 -9q-5 -3 -10 -5.5l-11 -5.5q-7 9 -15 6t-10 -17q-8 -4 -16.5 -6.5t-16.5 -5.5q9 18 12 28t-11 17q13 10 30.5 24t34 29.5t28 30.5t11.5 28q-9 8 -18.5 13t-18.5 10.5t-15.5 13t-9.5 20.5l45 70q-6 2 -7 2q-9 0 -15.5 4
t-12.5 8t-14 7t-20 2q-7 6 -16.5 20t-19 29t-17.5 28t-11 19q-4 6 -5.5 16t-1.5 18v27q12 11 14.5 25.5t2.5 30.5l10 -6q5 8 2.5 18t1.5 18q8 16 18.5 35t21.5 35.5t20 27.5t14 11t5 -2.5t-1 -5t-1 -5t5 -2.5q4 0 9.5 8t11.5 18t12 18t10 8h12q-2 5 -3 13t-2 15h7
q6 16 25 35t44 38.5t53.5 38t54.5 33t46 23t29 8.5t24.5 -6.5t26.5 -12.5q5 -12 12 -23.5t13 -23.5t9.5 -25t0.5 -28q-31 -8 -65 -22t-60 -33q-22 -16 -38 -32t-25 -24l-6 10q-8 -14 -32 -34t-45 -39q-1 -4 -3 -10.5t-4 -10.5q-7 -7 -26 -29.5t-39.5 -50.5t-36 -56
t-15.5 -46q0 -19 16 -19q13 0 34.5 4t46 9t50 11t48.5 9q11 2 18.5 -1.5t11.5 -8.5q-18 -4 -38.5 -8t-39 -9t-32 -11.5t-17.5 -13.5q14 -9 35 -4.5t32 15.5q40 8 86.5 17t84.5 14l16 -4l24 3l11 -7l-52 -8q-10 -2 -17.5 -5.5t-0.5 -13.5l7 -10q-3 -2 -23.5 -8t-48 -14.5
t-58.5 -18t-56 -17.5q-8 -3 -12.5 -9.5t0.5 -11.5l-34 -8l-10 -23q8 -7 18 -13.5t19 -14t15.5 -16t6.5 -19.5zM387 21q-14 -8 -27.5 -15t-26.5 -7q-8 0 -15 3q14 6 33 10.5t36 9.5v-1zM291 -17q-4 0 -8 1t-9 3l33 11q10 -7 3 -11t-19 -4zM127 331q-11 4 -18 -8l10 -6z
M165 223l-12 -19q-3 -5 -8.5 -15t-1.5 -17l31 46zM124 158l-7 -14l6 -8l11 22h-10zM465 64l-10 12l27 4l13 -6zM356 119q33 5 62 9.5t50 6.5q-4 -13 -25 -18t-43 -5q-14 0 -26 1.5t-18 4.5v1zM221 280q16 16 18.5 21t2.5 8q-8 0 -15 -6.5t-15 -16.5zM207 280l-6 -10l7 -6
l8 10zM105 316l-14 -23l9 -7l13 21z" />
    <glyph glyph-name="Egrave" unicode="&#xc8;" horiz-adv-x="537" 
d="M570 491q1 -8 -9 -13t-17 -11q-34 -15 -68.5 -24.5t-68.5 -16l-68 -13t-67 -15.5q-8 -14 -18.5 -31t-23.5 -37q15 1 36.5 7.5t43.5 13t41.5 12t30.5 5.5q22 0 32.5 -9.5t26.5 -36.5q-6 -17 11 -26l-7 -22q-23 -4 -59.5 -10t-74.5 -13.5t-72.5 -16t-53.5 -16.5
q-10 -4 -19 -24t-15.5 -43.5t-11 -45.5t-4.5 -31q12 -9 26 -12t28.5 -2.5t28 3t24.5 5.5l6 -10q5 0 10.5 3.5t5.5 8.5q6 1 10 -2.5t7.5 -7.5t7.5 -7t9 -1q49 14 101.5 31t90.5 29q7 2 8 -1q2 -4 -6.5 -8.5t-14.5 -7.5l-68 -25q5 -3 12 -7.5t12 -7.5q5 -2 -2 -4
q-38 -13 -82 -25t-86 -23q11 -5 26.5 -5.5t29.5 3.5q30 8 68.5 21t75.5 26q2 1 5.5 1.5t-0.5 -7.5q-9 -15 -28 -22q-24 -9 -51.5 -19t-55 -18t-54 -13t-49.5 -5q-44 0 -80.5 10.5t-63 34t-40.5 61.5t-12 93q1 28 12 59.5t29.5 70t43 85t51.5 103.5q-4 19 -2 37.5t16 38.5
q19 -2 34 8.5t28.5 24.5t26 26t25.5 12q7 0 19.5 -2.5t25.5 -5.5t24 -6.5t16 -4.5q2 -34 -18 -72q6 -2 17.5 -3.5t24 -2.5l25 -2t20.5 -1l9 -19q4 0 10.5 3t14.5 3t23 -5t26 -7q2 0 3 -1t-1 -3q-15 -14 -27.5 -18t-20.5 -6t-12 -5.5t-1 -14.5q23 9 42.5 15.5t40.5 16.5
q3 2 6.5 5t4.5 -2zM487 494q-1 4 -8.5 5t-12.5 -1l3 -12zM139 182h1l10 12t8 14q-10 1 -13.5 -3t-5.5 -12v-11zM121 118q-3 -14 -3 -23t6 -14l5 27zM563 647q-10 -5 -17.5 -6.5t-15.5 0.5t-17 7t-21 14q-3 -9 13 -20t37 -26l-12 -7q-26 20 -67.5 44.5t-86.5 44.5l-9 -6
q-29 14 -65 29t-64 25q0 15 8.5 31t21 28.5t26.5 20.5t24 8q21 0 55 -15t66 -36.5t55 -45t23 -40.5q9 -9 23.5 -24.5t22.5 -25.5zM429 114q-9 -11 -26 -16t-31 -4q-21 -16 -43.5 -23t-31.5 7q35 8 68 18.5t61 21.5q3 2 4 0t-1 -4zM242 394l-17 -28l13 3l17 28zM219 352
q-5 0 -13 -8.5t-10 -16.5l13 2zM137 175l-11 -37l7 -9l14 47z" />
    <glyph glyph-name="Eacute" unicode="&#xc9;" horiz-adv-x="537" 
d="M570 491q1 -8 -9 -13t-17 -11q-34 -15 -68.5 -24.5t-68.5 -16l-68 -13t-67 -15.5q-8 -14 -18.5 -31t-23.5 -37q15 1 36.5 7.5t43.5 13t41.5 12t30.5 5.5q22 0 32.5 -9.5t26.5 -36.5q-6 -17 11 -26l-7 -22q-23 -4 -59.5 -10t-74.5 -13.5t-72.5 -16t-53.5 -16.5
q-10 -4 -19 -24t-15.5 -43.5t-11 -45.5t-4.5 -31q12 -9 26 -12t28.5 -2.5t28 3t24.5 5.5l6 -10q5 0 10.5 3.5t5.5 8.5q6 1 10 -2.5t7.5 -7.5t7.5 -7t9 -1q49 14 101.5 31t90.5 29q7 2 8 -1q2 -4 -6.5 -8.5t-14.5 -7.5l-68 -25q5 -3 12 -7.5t12 -7.5q5 -2 -2 -4
q-38 -13 -82 -25t-86 -23q11 -5 26.5 -5.5t29.5 3.5q30 8 68.5 21t75.5 26q2 1 5.5 1.5t-0.5 -7.5q-9 -15 -28 -22q-24 -9 -51.5 -19t-55 -18t-54 -13t-49.5 -5q-44 0 -80.5 10.5t-63 34t-40.5 61.5t-12 93q1 28 12 59.5t29.5 70t43 85t51.5 103.5q-4 19 -2 37.5t16 38.5
q19 -2 34 8.5t28.5 24.5t26 26t25.5 12q7 0 19.5 -2.5t25.5 -5.5t24 -6.5t16 -4.5q2 -34 -18 -72q6 -2 17.5 -3.5t24 -2.5l25 -2t20.5 -1l9 -19q4 0 10.5 3t14.5 3t23 -5t26 -7q2 0 3 -1t-1 -3q-15 -14 -27.5 -18t-20.5 -6t-12 -5.5t-1 -14.5q23 9 42.5 15.5t40.5 16.5
q3 2 6.5 5t4.5 -2zM487 494q-1 4 -8.5 5t-12.5 -1l3 -12zM139 182h1l10 12t8 14q-10 1 -13.5 -3t-5.5 -12v-11zM121 118q-3 -14 -3 -23t6 -14l5 27zM429 114q-9 -11 -26 -16t-31 -4q-21 -16 -43.5 -23t-31.5 7q35 8 68 18.5t61 21.5q3 2 4 0t-1 -4zM242 394l-17 -28l13 3
l17 28zM219 352q-5 0 -13 -8.5t-10 -16.5l13 2zM137 175l-11 -37l7 -9l14 47zM581 781q0 -28 -24.5 -50t-58 -37.5t-68.5 -23.5t-56 -8q-18 0 -28 7q-13 -2 -33.5 -4t-33.5 -3q7 9 10.5 17.5t5.5 15.5l38 14l-2 9q-12 -4 -29 -10t-29 -6q-9 0 -12 4q42 11 86.5 32.5
t82.5 42.5v11q29 15 62 34.5t57 36.5q17 -12 24.5 -36t7.5 -46z" />
    <glyph glyph-name="Ecircumflex" unicode="&#xca;" horiz-adv-x="537" 
d="M570 491q1 -8 -9 -13t-17 -11q-34 -15 -68.5 -24.5t-68.5 -16l-68 -13t-67 -15.5q-8 -14 -18.5 -31t-23.5 -37q15 1 36.5 7.5t43.5 13t41.5 12t30.5 5.5q22 0 32.5 -9.5t26.5 -36.5q-6 -17 11 -26l-7 -22q-23 -4 -59.5 -10t-74.5 -13.5t-72.5 -16t-53.5 -16.5
q-10 -4 -19 -24t-15.5 -43.5t-11 -45.5t-4.5 -31q12 -9 26 -12t28.5 -2.5t28 3t24.5 5.5l6 -10q5 0 10.5 3.5t5.5 8.5q6 1 10 -2.5t7.5 -7.5t7.5 -7t9 -1q49 14 101.5 31t90.5 29q7 2 8 -1q2 -4 -6.5 -8.5t-14.5 -7.5l-68 -25q5 -3 12 -7.5t12 -7.5q5 -2 -2 -4
q-38 -13 -82 -25t-86 -23q11 -5 26.5 -5.5t29.5 3.5q30 8 68.5 21t75.5 26q2 1 5.5 1.5t-0.5 -7.5q-9 -15 -28 -22q-24 -9 -51.5 -19t-55 -18t-54 -13t-49.5 -5q-44 0 -80.5 10.5t-63 34t-40.5 61.5t-12 93q1 28 12 59.5t29.5 70t43 85t51.5 103.5q-4 19 -2 37.5t16 38.5
q19 -2 34 8.5t28.5 24.5t26 26t25.5 12q7 0 19.5 -2.5t25.5 -5.5t24 -6.5t16 -4.5q2 -34 -18 -72q6 -2 17.5 -3.5t24 -2.5l25 -2t20.5 -1l9 -19q4 0 10.5 3t14.5 3t23 -5t26 -7q2 0 3 -1t-1 -3q-15 -14 -27.5 -18t-20.5 -6t-12 -5.5t-1 -14.5q23 9 42.5 15.5t40.5 16.5
q3 2 6.5 5t4.5 -2zM487 494q-1 4 -8.5 5t-12.5 -1l3 -12zM139 182h1l10 12t8 14q-10 1 -13.5 -3t-5.5 -12v-11zM121 118q-3 -14 -3 -23t6 -14l5 27zM429 114q-9 -11 -26 -16t-31 -4q-21 -16 -43.5 -23t-31.5 7q35 8 68 18.5t61 21.5q3 2 4 0t-1 -4zM242 394l-17 -28l13 3
l17 28zM219 352q-5 0 -13 -8.5t-10 -16.5l13 2zM137 175l-11 -37l7 -9l14 47zM545 677q-3 -10 -7 -14.5t-8.5 -6.5l-9 -4t-7.5 -7q-21 9 -32.5 21.5t-19 26.5t-15 29.5t-22.5 30.5q-28 -7 -56.5 -25t-54 -36.5t-45.5 -32.5t-30 -14t-25.5 16.5t-35.5 33.5q6 11 5 21t-7 18
q17 16 47 35t62 37.5t61.5 33.5t46.5 23l14 -10l15 7q14 -16 29 -36.5t30 -42t29.5 -44t27.5 -41.5l-11 -9z" />
    <glyph glyph-name="Edieresis" unicode="&#xcb;" horiz-adv-x="537" 
d="M570 491q1 -8 -9 -13t-17 -11q-34 -15 -68.5 -24.5t-68.5 -16l-68 -13t-67 -15.5q-8 -14 -18.5 -31t-23.5 -37q15 1 36.5 7.5t43.5 13t41.5 12t30.5 5.5q22 0 32.5 -9.5t26.5 -36.5q-6 -17 11 -26l-7 -22q-23 -4 -59.5 -10t-74.5 -13.5t-72.5 -16t-53.5 -16.5
q-10 -4 -19 -24t-15.5 -43.5t-11 -45.5t-4.5 -31q12 -9 26 -12t28.5 -2.5t28 3t24.5 5.5l6 -10q5 0 10.5 3.5t5.5 8.5q6 1 10 -2.5t7.5 -7.5t7.5 -7t9 -1q49 14 101.5 31t90.5 29q7 2 8 -1q2 -4 -6.5 -8.5t-14.5 -7.5l-68 -25q5 -3 12 -7.5t12 -7.5q5 -2 -2 -4
q-38 -13 -82 -25t-86 -23q11 -5 26.5 -5.5t29.5 3.5q30 8 68.5 21t75.5 26q2 1 5.5 1.5t-0.5 -7.5q-9 -15 -28 -22q-24 -9 -51.5 -19t-55 -18t-54 -13t-49.5 -5q-44 0 -80.5 10.5t-63 34t-40.5 61.5t-12 93q1 28 12 59.5t29.5 70t43 85t51.5 103.5q-4 19 -2 37.5t16 38.5
q19 -2 34 8.5t28.5 24.5t26 26t25.5 12q7 0 19.5 -2.5t25.5 -5.5t24 -6.5t16 -4.5q2 -34 -18 -72q6 -2 17.5 -3.5t24 -2.5l25 -2t20.5 -1l9 -19q4 0 10.5 3t14.5 3t23 -5t26 -7q2 0 3 -1t-1 -3q-15 -14 -27.5 -18t-20.5 -6t-12 -5.5t-1 -14.5q23 9 42.5 15.5t40.5 16.5
q3 2 6.5 5t4.5 -2zM487 494q-1 4 -8.5 5t-12.5 -1l3 -12zM139 182h1l10 12t8 14q-10 1 -13.5 -3t-5.5 -12v-11zM121 118q-3 -14 -3 -23t6 -14l5 27zM429 114q-9 -11 -26 -16t-31 -4q-21 -16 -43.5 -23t-31.5 7q35 8 68 18.5t61 21.5q3 2 4 0t-1 -4zM242 394l-17 -28l13 3
l17 28zM219 352q-5 0 -13 -8.5t-10 -16.5l13 2zM137 175l-11 -37l7 -9l14 47zM538 733q-14 -8 -24 -19.5t-19.5 -24t-20 -24.5t-24.5 -21q-14 0 -25.5 6.5t-19 17t-10 23t1.5 24.5h-15q0 5 5.5 23.5t16 39t25 36.5t32.5 16q34 0 55.5 -23.5t21.5 -73.5zM236 625l-15 8l7 30
q-9 20 -16.5 43t-5.5 49q-12 7 -12 20q0 10 5.5 20t14 17.5t19 12.5t20.5 5q30 0 50.5 -30.5t20.5 -84.5z" />
    <glyph glyph-name="Igrave" unicode="&#xcc;" horiz-adv-x="360" 
d="M385 547q0 -20 -2.5 -45t-6.5 -48h-11q-10 -14 -19 -33t-18.5 -38t-22 -36t-29.5 -26l4 -12l-39 -22q-29 -42 -45 -90.5t-33 -91.5q-2 -6 -7.5 -15.5t4.5 -12.5q1 0 3 3t3.5 7l3 8t1.5 5q9 19 16.5 42.5t16.5 47t19 45t24 36.5q5 2 6.5 1t0.5 -3t-2.5 -4.5t-2.5 -3.5
q-26 -45 -42.5 -94.5t-38.5 -102.5q-15 -35 -20.5 -65t-1.5 -45q-27 9 -50 22v32q-10 -8 -11 -24q-17 13 -31 31t-24 44q0 45 14 94.5t37 100.5t51 102t57 98t55 88.5t44 74.5q5 6 13.5 10t16.5 4t15.5 -2.5t15.5 -4.5v-24q15 -6 25.5 -21t10.5 -32zM153 60q-5 5 -7.5 5.5
t-3 -1.5t-0.5 -5v-4l-11 -27q-1 -2 1 -6.5t7 3.5zM507 647q-10 -5 -17.5 -6.5t-15.5 0.5t-17 7t-21 14q-3 -9 13 -20t37 -26l-12 -7q-26 20 -67.5 44.5t-86.5 44.5l-9 -6q-29 14 -65 29t-64 25q0 15 8.5 31t21 28.5t26.5 20.5t24 8q21 0 55 -15t66 -36.5t55 -45t23 -40.5
q9 -9 23.5 -24.5t22.5 -25.5z" />
    <glyph glyph-name="Iacute" unicode="&#xcd;" horiz-adv-x="360" 
d="M385 547q0 -20 -2.5 -45t-6.5 -48h-11q-10 -14 -19 -33t-18.5 -38t-22 -36t-29.5 -26l4 -12l-39 -22q-29 -42 -45 -90.5t-33 -91.5q-2 -6 -7.5 -15.5t4.5 -12.5q1 0 3 3t3.5 7l3 8t1.5 5q9 19 16.5 42.5t16.5 47t19 45t24 36.5q5 2 6.5 1t0.5 -3t-2.5 -4.5t-2.5 -3.5
q-26 -45 -42.5 -94.5t-38.5 -102.5q-15 -35 -20.5 -65t-1.5 -45q-27 9 -50 22v32q-10 -8 -11 -24q-17 13 -31 31t-24 44q0 45 14 94.5t37 100.5t51 102t57 98t55 88.5t44 74.5q5 6 13.5 10t16.5 4t15.5 -2.5t15.5 -4.5v-24q15 -6 25.5 -21t10.5 -32zM153 60q-5 5 -7.5 5.5
t-3 -1.5t-0.5 -5v-4l-11 -27q-1 -2 1 -6.5t7 3.5zM595 786q0 -28 -24.5 -50t-58 -37.5t-68.5 -23.5t-56 -8q-18 0 -28 7q-13 -2 -33.5 -4t-33.5 -3q7 9 10.5 17.5t5.5 15.5l38 14l-2 9q-12 -4 -29 -10t-29 -6q-9 0 -12 4q42 11 86.5 32.5t82.5 42.5v11q29 15 62 34.5
t57 36.5q17 -12 24.5 -36t7.5 -46z" />
    <glyph glyph-name="Icircumflex" unicode="&#xce;" horiz-adv-x="360" 
d="M385 547q0 -20 -2.5 -45t-6.5 -48h-11q-10 -14 -19 -33t-18.5 -38t-22 -36t-29.5 -26l4 -12l-39 -22q-29 -42 -45 -90.5t-33 -91.5q-2 -6 -7.5 -15.5t4.5 -12.5q1 0 3 3t3.5 7l3 8t1.5 5q9 19 16.5 42.5t16.5 47t19 45t24 36.5q5 2 6.5 1t0.5 -3t-2.5 -4.5t-2.5 -3.5
q-26 -45 -42.5 -94.5t-38.5 -102.5q-15 -35 -20.5 -65t-1.5 -45q-27 9 -50 22v32q-10 -8 -11 -24q-17 13 -31 31t-24 44q0 45 14 94.5t37 100.5t51 102t57 98t55 88.5t44 74.5q5 6 13.5 10t16.5 4t15.5 -2.5t15.5 -4.5v-24q15 -6 25.5 -21t10.5 -32zM153 60q-5 5 -7.5 5.5
t-3 -1.5t-0.5 -5v-4l-11 -27q-1 -2 1 -6.5t7 3.5zM531 657q-3 -10 -7 -14.5t-8.5 -6.5l-9 -4t-7.5 -7q-21 9 -32.5 21.5t-19 26.5t-15 29.5t-22.5 30.5q-28 -7 -56.5 -25t-54 -36.5t-45.5 -32.5t-30 -14t-25.5 16.5t-35.5 33.5q6 11 5 21t-7 18q17 16 47 35t62 37.5
t61.5 33.5t46.5 23l14 -10l15 7q14 -16 29 -36.5t30 -42t29.5 -44t27.5 -41.5l-11 -9z" />
    <glyph glyph-name="Idieresis" unicode="&#xcf;" horiz-adv-x="360" 
d="M385 547q0 -20 -2.5 -45t-6.5 -48h-11q-10 -14 -19 -33t-18.5 -38t-22 -36t-29.5 -26l4 -12l-39 -22q-29 -42 -45 -90.5t-33 -91.5q-2 -6 -7.5 -15.5t4.5 -12.5q1 0 3 3t3.5 7l3 8t1.5 5q9 19 16.5 42.5t16.5 47t19 45t24 36.5q5 2 6.5 1t0.5 -3t-2.5 -4.5t-2.5 -3.5
q-26 -45 -42.5 -94.5t-38.5 -102.5q-15 -35 -20.5 -65t-1.5 -45q-27 9 -50 22v32q-10 -8 -11 -24q-17 13 -31 31t-24 44q0 45 14 94.5t37 100.5t51 102t57 98t55 88.5t44 74.5q5 6 13.5 10t16.5 4t15.5 -2.5t15.5 -4.5v-24q15 -6 25.5 -21t10.5 -32zM153 60q-5 5 -7.5 5.5
t-3 -1.5t-0.5 -5v-4l-11 -27q-1 -2 1 -6.5t7 3.5zM541 733q-14 -8 -24 -19.5t-19.5 -24t-20 -24.5t-24.5 -21q-14 0 -25.5 6.5t-19 17t-10 23t1.5 24.5h-15q0 5 5.5 23.5t16 39t25 36.5t32.5 16q34 0 55.5 -23.5t21.5 -73.5zM239 625l-15 8l7 30q-9 20 -16.5 43t-5.5 49
q-12 7 -12 20q0 10 5.5 20t14 17.5t19 12.5t20.5 5q30 0 50.5 -30.5t20.5 -84.5z" />
    <glyph glyph-name="Eth" unicode="&#xd0;" horiz-adv-x="729" 
d="M724 379q-13 -19 -24.5 -38t-22 -34t-21 -23.5t-22.5 -7.5l14 17q-6 3 -12.5 0t-14 -10t-17 -15.5t-19.5 -17.5l15 -3q-42 -36 -87.5 -70.5t-92 -66t-91.5 -59.5t-85 -51l-19 -16q-13 0 -22.5 -5.5t-20.5 -5.5q-23 0 -37.5 11.5t-24.5 27t-17.5 31.5t-17.5 26l2 46h24
q20 0 32 16q4 9 6 21.5t4 27l4 29t6 26.5q-17 -2 -32.5 -4t-30.5 -4q-1 15 -10 23.5t-23 12.5q1 14 3 26t8 28q21 18 51.5 26.5t65.5 12.5q10 24 18.5 47t8.5 38q0 10 -5.5 20t-12 19t-12 18t-5.5 19t8.5 16.5t20 11t24.5 8.5t23 8l10 -9q17 16 27.5 36t20 36.5t21.5 27.5
t32 11q3 0 11 -9.5t16.5 -21.5t15 -24t6.5 -17q-1 -7 -5.5 -15.5t-5.5 -14.5q11 -3 25 -3.5t30 -1t34 -2t36 -6.5q-4 -7 -1 -10t8.5 -3t11 3t7.5 8q8 -6 25 -10t34 -9q34 -11 53 -29.5t29.5 -39.5t14 -42.5t5.5 -36.5zM652 317l-8 -11l14 -4l8 12zM622 447q-56 -1 -96 -3
t-70 -6t-52.5 -8.5t-43.5 -9.5q-7 -16 -13 -32t-11 -33q11 -2 24 -2.5t27 0.5l20 -31q20 5 33 -0.5t26 -13.5q-37 -14 -74.5 -25.5t-79.5 -19.5q-6 -20 -13 -46.5t-12 -49.5q13 9 34.5 21t45.5 26.5t48 31t43 33.5q9 -5 15 -4l-6 13l8 7q3 -5 6.5 -6t5.5 -1q5 0 13 6t17 15
t18 20t16 20q10 -3 23 7t24 26t18.5 33.5t5.5 31.5zM534 209q-14 -2 -27.5 -9t-29.5 -18q-15 -11 -38.5 -27t-49.5 -33q0 -12 -9 -19q-10 10 -31 -7q10 0 24 -7q42 29 84 61.5t77 57.5v1zM561 243l-32 -23q5 -2 10 -2.5t11 4.5l20 17zM291 41l50 30q-2 2 -3 7t2 10v1
q-11 -8 -27 -23t-22 -24v-1zM245 25v-9l27 15l4 13z" />
    <glyph glyph-name="Ntilde" unicode="&#xd1;" horiz-adv-x="753" 
d="M522 365q11 17 28 42t38 52t44 54.5t45 48.5q18 11 52 13q56 2 81 -16l-20 -14l2 -4q5 0 16 3.5t16 6.5l28 -30q-20 -9 -45.5 -26t-52.5 -38.5t-53 -47t-45 -51.5q-5 -6 -8 -1.5t-8 1.5q-2 -27 -15.5 -46t-31.5 -47q-4 -7 -4 -16t-5 -20q0 -5 -8 -9.5t-10 -11.5
q-19 -58 -43 -117.5t-48 -121.5l-45 21l-6 -14q-24 6 -38 14.5t-22 21t-12 30.5t-7 43q-2 20 0.5 48t-2.5 45q-9 26 -10.5 46t0 37t3.5 33t0 35l-5 39q-23 -8 -47.5 -30t-44.5 -57l3 -16q-19 -35 -37 -75.5t-35 -79.5t-34 -73t-34 -56h-28q-11 0 -19.5 10.5t-15.5 23.5
t-12.5 25t-9.5 14l-6 44q-4 23 1 35t10 26q27 64 60.5 116.5t68.5 96t70 79t65 65.5q11 -4 30 -15t38.5 -25t36 -29.5t21.5 -29.5q4 -11 8.5 -27.5t9 -35t8.5 -37.5t8 -34q25 44 55 91t57 86.5t48.5 66t29.5 29.5l21 3q-23 -23 -43 -47t-36.5 -46.5t-29 -42t-21.5 -32.5
q-13 -21 -11 -22zM665 400q2 2 -1.5 5t-5.5 1q-3 -5 -7 -10.5t-7 -11t-3.5 -10t3.5 -6.5zM645 517q1 -2 3 -4t5 -1l17 22l-8 4q-8 -7 -17 -21zM760 524l2 -9q8 5 13.5 8.5t3.5 14.5zM579 174l-9 6q1 11 3 21.5t11 6.5zM691 436q2 2 -0.5 6t-6.5 -1l-20 -26q7 1 9 -5z
M281 492l-22 -23q4 -4 8.5 -2.5t8.5 5t7 7.5t6 7zM743 688q-17 -26 -43 -48t-64 -22q-29 0 -44.5 10t-24.5 23.5t-15 27t-15 21.5q-17 -5 -36 -15.5t-37 -23.5t-33.5 -26.5t-24.5 -23.5q-17 5 -26 12t-12 15.5t-3 18t1 18.5q17 16 25.5 26.5t5.5 18.5q-11 -10 -22 -20.5
t-19 -2.5q15 13 33 30t36.5 32.5t38.5 26t40 10.5q8 0 18 -4.5t15 -11.5q18 0 25 -10.5t13.5 -23.5t18 -23.5t38.5 -10.5q17 0 34 9t35 18q-5 -10 -5 -19l16 4l3 -5l-14 -11q4 -3 10 -4.5l12 -3t11.5 -4t8.5 -8.5z" />
    <glyph glyph-name="Ograve" unicode="&#xd2;" horiz-adv-x="654" 
d="M624 300q0 -25 -13 -55t-40 -52q4 -8 -0.5 -14.5t-12.5 -6.5l-7 13q-6 -2 -9.5 -5.5t1.5 -11.5q-8 0 -18.5 -6t-10.5 -14q0 -11 -10 -11t-19 -2q-8 -8 -15.5 -18l-16.5 -22l-11 10q-10 -6 -13.5 -11t-5.5 -10t-6 -9.5t-14 -9.5q-12 -6 -25.5 -7t-27.5 -4q-2 -2 3.5 -5
t4.5 -6l-18 -6l-28 17q-6 -4 -7.5 -9.5t-3 -11.5t-4 -11t-9.5 -8q-18 -6 -34 -11.5t-37 -12.5q-13 13 -26.5 10.5t-24.5 -10.5q-26 17 -55 38.5t-49 38.5q-18 14 -25 47t-7 69q0 61 23 114t58.5 97.5t79.5 79.5t86 59t77 37t54 13q22 0 36.5 -12t37.5 -30q0 -17 8.5 -32.5
t21.5 -29.5t29 -26.5t31 -22.5q29 -20 40.5 -54.5t11.5 -75.5zM365 68q0 10 -15 10q0 -2 -2 -6t0 -6q3 -2 8 -1t9 3zM463 398q-2 7 -4 10.5t-5 0.5q-6 -6 -11 -6t-8 4t-4 4q-20 0 -45.5 -10.5t-52 -28t-50 -40.5t-39.5 -48q-36 -17 -61 -57t-42 -92q17 2 37 4t34 7l180 75
q7 3 18.5 8.5t23 12t22.5 15t18 17.5l45 59zM404 107q-14 -7 -19.5 -12t-4.5 -13l29 15zM215 286q-11 7 -22 -0.5t-13 -15.5q0 -11 12 -12zM219 8q-7 11 -18 11l-6 -2t-6 -4zM440 115q-2 2 -4 8t-4 8l-16 -17l4 -11zM628 617q-10 -5 -17.5 -6.5t-15.5 0.5t-17 7t-21 14
q-3 -9 13 -20t37 -26l-12 -7q-26 20 -67.5 44.5t-86.5 44.5l-9 -6q-29 14 -65 29t-64 25q0 15 8.5 31t21 28.5t26.5 20.5t24 8q21 0 55 -15t66 -36.5t55 -45t23 -40.5q9 -9 23.5 -24.5t22.5 -25.5z" />
    <glyph glyph-name="Oacute" unicode="&#xd3;" horiz-adv-x="654" 
d="M624 300q0 -25 -13 -55t-40 -52q4 -8 -0.5 -14.5t-12.5 -6.5l-7 13q-6 -2 -9.5 -5.5t1.5 -11.5q-8 0 -18.5 -6t-10.5 -14q0 -11 -10 -11t-19 -2q-8 -8 -15.5 -18l-16.5 -22l-11 10q-10 -6 -13.5 -11t-5.5 -10t-6 -9.5t-14 -9.5q-12 -6 -25.5 -7t-27.5 -4q-2 -2 3.5 -5
t4.5 -6l-18 -6l-28 17q-6 -4 -7.5 -9.5t-3 -11.5t-4 -11t-9.5 -8q-18 -6 -34 -11.5t-37 -12.5q-13 13 -26.5 10.5t-24.5 -10.5q-26 17 -55 38.5t-49 38.5q-18 14 -25 47t-7 69q0 61 23 114t58.5 97.5t79.5 79.5t86 59t77 37t54 13q22 0 36.5 -12t37.5 -30q0 -17 8.5 -32.5
t21.5 -29.5t29 -26.5t31 -22.5q29 -20 40.5 -54.5t11.5 -75.5zM365 68q0 10 -15 10q0 -2 -2 -6t0 -6q3 -2 8 -1t9 3zM463 398q-2 7 -4 10.5t-5 0.5q-6 -6 -11 -6t-8 4t-4 4q-20 0 -45.5 -10.5t-52 -28t-50 -40.5t-39.5 -48q-36 -17 -61 -57t-42 -92q17 2 37 4t34 7l180 75
q7 3 18.5 8.5t23 12t22.5 15t18 17.5l45 59zM404 107q-14 -7 -19.5 -12t-4.5 -13l29 15zM215 286q-11 7 -22 -0.5t-13 -15.5q0 -11 12 -12zM219 8q-7 11 -18 11l-6 -2t-6 -4zM440 115q-2 2 -4 8t-4 8l-16 -17l4 -11zM666 756q0 -28 -24.5 -50t-58 -37.5t-68.5 -23.5t-56 -8
q-18 0 -28 7q-13 -2 -33.5 -4t-33.5 -3q7 9 10.5 17.5t5.5 15.5l38 14l-2 9q-12 -4 -29 -10t-29 -6q-9 0 -12 4q42 11 86.5 32.5t82.5 42.5v11q29 15 62 34.5t57 36.5q17 -12 24.5 -36t7.5 -46z" />
    <glyph glyph-name="Ocircumflex" unicode="&#xd4;" horiz-adv-x="654" 
d="M624 300q0 -25 -13 -55t-40 -52q4 -8 -0.5 -14.5t-12.5 -6.5l-7 13q-6 -2 -9.5 -5.5t1.5 -11.5q-8 0 -18.5 -6t-10.5 -14q0 -11 -10 -11t-19 -2q-8 -8 -15.5 -18l-16.5 -22l-11 10q-10 -6 -13.5 -11t-5.5 -10t-6 -9.5t-14 -9.5q-12 -6 -25.5 -7t-27.5 -4q-2 -2 3.5 -5
t4.5 -6l-18 -6l-28 17q-6 -4 -7.5 -9.5t-3 -11.5t-4 -11t-9.5 -8q-18 -6 -34 -11.5t-37 -12.5q-13 13 -26.5 10.5t-24.5 -10.5q-26 17 -55 38.5t-49 38.5q-18 14 -25 47t-7 69q0 61 23 114t58.5 97.5t79.5 79.5t86 59t77 37t54 13q22 0 36.5 -12t37.5 -30q0 -17 8.5 -32.5
t21.5 -29.5t29 -26.5t31 -22.5q29 -20 40.5 -54.5t11.5 -75.5zM365 68q0 10 -15 10q0 -2 -2 -6t0 -6q3 -2 8 -1t9 3zM463 398q-2 7 -4 10.5t-5 0.5q-6 -6 -11 -6t-8 4t-4 4q-20 0 -45.5 -10.5t-52 -28t-50 -40.5t-39.5 -48q-36 -17 -61 -57t-42 -92q17 2 37 4t34 7l180 75
q7 3 18.5 8.5t23 12t22.5 15t18 17.5l45 59zM404 107q-14 -7 -19.5 -12t-4.5 -13l29 15zM215 286q-11 7 -22 -0.5t-13 -15.5q0 -11 12 -12zM219 8q-7 11 -18 11l-6 -2t-6 -4zM440 115q-2 2 -4 8t-4 8l-16 -17l4 -11zM635 657q-3 -10 -7 -14.5t-8.5 -6.5l-9 -4t-7.5 -7
q-21 9 -32.5 21.5t-19 26.5t-15 29.5t-22.5 30.5q-28 -7 -56.5 -25t-54 -36.5t-45.5 -32.5t-30 -14t-25.5 16.5t-35.5 33.5q6 11 5 21t-7 18q17 16 47 35t62 37.5t61.5 33.5t46.5 23l14 -10l15 7q14 -16 29 -36.5t30 -42t29.5 -44t27.5 -41.5l-11 -9z" />
    <glyph glyph-name="Otilde" unicode="&#xd5;" horiz-adv-x="654" 
d="M624 300q0 -25 -13 -55t-40 -52q4 -8 -0.5 -14.5t-12.5 -6.5l-7 13q-6 -2 -9.5 -5.5t1.5 -11.5q-8 0 -18.5 -6t-10.5 -14q0 -11 -10 -11t-19 -2q-8 -8 -15.5 -18l-16.5 -22l-11 10q-10 -6 -13.5 -11t-5.5 -10t-6 -9.5t-14 -9.5q-12 -6 -25.5 -7t-27.5 -4q-2 -2 3.5 -5
t4.5 -6l-18 -6l-28 17q-6 -4 -7.5 -9.5t-3 -11.5t-4 -11t-9.5 -8q-18 -6 -34 -11.5t-37 -12.5q-13 13 -26.5 10.5t-24.5 -10.5q-26 17 -55 38.5t-49 38.5q-18 14 -25 47t-7 69q0 61 23 114t58.5 97.5t79.5 79.5t86 59t77 37t54 13q22 0 36.5 -12t37.5 -30q0 -17 8.5 -32.5
t21.5 -29.5t29 -26.5t31 -22.5q29 -20 40.5 -54.5t11.5 -75.5zM365 68q0 10 -15 10q0 -2 -2 -6t0 -6q3 -2 8 -1t9 3zM463 398q-2 7 -4 10.5t-5 0.5q-6 -6 -11 -6t-8 4t-4 4q-20 0 -45.5 -10.5t-52 -28t-50 -40.5t-39.5 -48q-36 -17 -61 -57t-42 -92q17 2 37 4t34 7l180 75
q7 3 18.5 8.5t23 12t22.5 15t18 17.5l45 59zM404 107q-14 -7 -19.5 -12t-4.5 -13l29 15zM215 286q-11 7 -22 -0.5t-13 -15.5q0 -11 12 -12zM219 8q-7 11 -18 11l-6 -2t-6 -4zM440 115q-2 2 -4 8t-4 8l-16 -17l4 -11zM668 693q-17 -26 -43 -48t-64 -22q-29 0 -44.5 10
t-24.5 23.5t-15 27t-15 21.5q-17 -5 -36 -15.5t-37 -23.5t-33.5 -26.5t-24.5 -23.5q-17 5 -26 12t-12 15.5t-3 18t1 18.5q17 16 25.5 26.5t5.5 18.5q-11 -10 -22 -20.5t-19 -2.5q15 13 33 30t36.5 32.5t38.5 26t40 10.5q8 0 18 -4.5t15 -11.5q18 0 25 -10.5t13.5 -23.5
t18 -23.5t38.5 -10.5q17 0 34 9t35 18q-5 -10 -5 -19l16 4l3 -5l-14 -11q4 -3 10 -4.5l12 -3t11.5 -4t8.5 -8.5z" />
    <glyph glyph-name="Odieresis" unicode="&#xd6;" horiz-adv-x="654" 
d="M624 300q0 -25 -13 -55t-40 -52q4 -8 -0.5 -14.5t-12.5 -6.5l-7 13q-6 -2 -9.5 -5.5t1.5 -11.5q-8 0 -18.5 -6t-10.5 -14q0 -11 -10 -11t-19 -2q-8 -8 -15.5 -18l-16.5 -22l-11 10q-10 -6 -13.5 -11t-5.5 -10t-6 -9.5t-14 -9.5q-12 -6 -25.5 -7t-27.5 -4q-2 -2 3.5 -5
t4.5 -6l-18 -6l-28 17q-6 -4 -7.5 -9.5t-3 -11.5t-4 -11t-9.5 -8q-18 -6 -34 -11.5t-37 -12.5q-13 13 -26.5 10.5t-24.5 -10.5q-26 17 -55 38.5t-49 38.5q-18 14 -25 47t-7 69q0 61 23 114t58.5 97.5t79.5 79.5t86 59t77 37t54 13q22 0 36.5 -12t37.5 -30q0 -17 8.5 -32.5
t21.5 -29.5t29 -26.5t31 -22.5q29 -20 40.5 -54.5t11.5 -75.5zM365 68q0 10 -15 10q0 -2 -2 -6t0 -6q3 -2 8 -1t9 3zM463 398q-2 7 -4 10.5t-5 0.5q-6 -6 -11 -6t-8 4t-4 4q-20 0 -45.5 -10.5t-52 -28t-50 -40.5t-39.5 -48q-36 -17 -61 -57t-42 -92q17 2 37 4t34 7l180 75
q7 3 18.5 8.5t23 12t22.5 15t18 17.5l45 59zM404 107q-14 -7 -19.5 -12t-4.5 -13l29 15zM215 286q-11 7 -22 -0.5t-13 -15.5q0 -11 12 -12zM219 8q-7 11 -18 11l-6 -2t-6 -4zM440 115q-2 2 -4 8t-4 8l-16 -17l4 -11zM658 718q-14 -8 -24 -19.5t-19.5 -24t-20 -24.5
t-24.5 -21q-14 0 -25.5 6.5t-19 17t-10 23t1.5 24.5h-15q0 5 5.5 23.5t16 39t25 36.5t32.5 16q34 0 55.5 -23.5t21.5 -73.5zM356 610l-15 8l7 30q-9 20 -16.5 43t-5.5 49q-12 7 -12 20q0 10 5.5 20t14 17.5t19 12.5t20.5 5q30 0 50.5 -30.5t20.5 -84.5z" />
    <glyph glyph-name="multiply" unicode="&#xd7;" horiz-adv-x="625" 
d="M525 391q0 -12 -18 -33t-46 -46.5t-62 -55t-67 -57.5q20 -42 55.5 -80t92.5 -63l-5 -13q-10 4 -24.5 -2t-24.5 -6q-20 0 -44 6t-48 18.5t-44 31t-30 42.5q-6 -7 -11.5 -13.5t-10.5 -12.5q-8 1 -17.5 -3.5t-19.5 -12t-21 -16.5t-21 -16q-11 -8 -20 -12t-16 -7.5
t-10.5 -7.5t-1.5 -10l-32 -34q-8 40 0 65.5t34 48.5q0 22 12 37l13 -8q7 10 19 18t20 13v23q11 8 22.5 17t22.5 20q-19 41 -35 80.5t-16 69.5q0 31 7 50.5t22 19.5t30.5 -3.5t29 -10t22 -15.5t8.5 -20q0 -17 4 -38t10 -42q31 32 61.5 65t71.5 63q8 -4 22.5 -9t29 -11
t25.5 -13.5t11 -16.5zM80 94q3 7 7.5 16t16.5 17v-17z" />
    <glyph glyph-name="Oslash" unicode="&#xd8;" horiz-adv-x="662" 
d="M583 213q-6 -6 -15 -11t-18 -11t-17 -13.5t-11 -17.5q-5 0 -10.5 -1t-10.5 -3t-8 -6.5t-2 -10.5l-38 -8q-4 -3 -2.5 -4.5t3.5 -4t2.5 -5.5t-5.5 -7q-4 -3 -12 -4t-16 -1.5t-15 -1.5t-10 -4q-2 -2 3.5 -5t4.5 -6l-18 -6l-28 17q-6 -4 -7.5 -9.5t-3 -11.5t-4 -11t-9.5 -8
q-18 -6 -34 -11.5t-38 -13.5q-22 -32 -43 -61.5t-39 -55.5v-17q-7 -10 -17 -23.5t-20.5 -25.5t-20 -20.5t-14.5 -8.5q-3 0 -3.5 4.5t0 10.5t1 12.5t0.5 11.5l8 22t9 22l-6 8l22 39l3 -2q9 22 19.5 44.5t21.5 46.5q-26 13 -51 27t-44 25q-21 12 -34.5 42.5t-20.5 63.5
q-11 56 3 106t43 92.5t68 76.5t78.5 58.5t73.5 38t54 14.5q23 1 40 -9t45 -26q2 -12 9 -22t17 -20q17 23 35 46.5t37 48.5l77 57q26 -1 44.5 -5t29.5 -9l9 -27l-19 -13l5 -12l19 8l4 -10q-38 -34 -75 -69t-72 -73q31 -17 48.5 -48t24.5 -66q2 -11 0.5 -26.5t-7.5 -30.5
t-15.5 -27.5t-23.5 -17.5zM420 443q-7 5 -13 5q-22 -1 -48.5 -14t-52 -33.5t-47 -46.5t-34.5 -53q-36 -21 -53 -60.5t-25 -95.5q19 2 41 5.5t36 10.5l30 15q33 61 74 127.5t92 139.5zM192 302q-13 6 -24 -1.5t-11 -16.5q-2 -11 15 -13zM415 139l10 -11q9 5 16.5 11t3.5 14z
M413 116q0 10 -15 10q0 -2 -2 -6t0 -6q3 -2 8 -1t9 3zM510 392q-14 -17 -26.5 -33t-23.5 -33l-13 -3q-11 -18 -22 -37.5t-24 -39.5l9 4q8 3 19 9.5t22.5 15t22 18.5t16.5 20l39 65zM203 -20l-21 -35v-11l21 31v15zM488 160q-2 2 -3 5.5t-2 6.5q-8 -3 -15.5 -9.5t-6.5 -16.5z
" />
    <glyph glyph-name="Ugrave" unicode="&#xd9;" horiz-adv-x="655" 
d="M671 423q-8 1 -16 -1.5t-12.5 -6.5t-4.5 -9.5t9 -11.5q5 -3 0.5 -11t-13.5 -7l-14 7q-5 -9 -10 -19t-8 -18t-3 -14t5 -6l-11 -21q-7 0 -12 -5t-13 -17t-21.5 -32t-36.5 -48l8 -10q19 24 36.5 49t32.5 50q5 -7 4.5 -13t-2.5 -11q-35 -64 -74.5 -110.5t-79.5 -78.5
t-78.5 -51.5t-72 -30t-59.5 -14t-40 -3.5q-5 0 -6 1.5t-2 3.5q0 2 -1 3.5t-6 1.5t-5.5 -1.5t-0.5 -3.5q1 -2 0.5 -3.5t-5.5 -1.5q-21 0 -32.5 15.5t-22.5 28.5l-11 -5q-30 18 -44 50t-14 67q0 30 7 60.5t20 58.5q17 37 39 87t43.5 101t41.5 97.5t34 78.5q17 14 31 14
q8 0 17.5 -13.5t18 -30.5t15.5 -34t10 -25l14 10v-23q-11 -20 -24 -45t-26 -52t-25 -53t-22 -47q-8 13 -1 27q7 2 1 7t-9 1q-9 -13 -10 -23.5t0.5 -19t3 -16t-2.5 -15.5q-3 -7 -6.5 -14.5t-7.5 -16.5q-7 3 -13.5 -3t-10.5 -14q7 -3 18 4h1q-5 -11 -10.5 -24t-10.5 -24
q-3 5 -3 11.5t5 17.5l-6 6q-6 -11 -12 -23.5t-6 -21.5q0 -11 13 -12q-3 -8 -6 -15t-5 -13q76 0 133 26.5t101 71t78 102.5t65 122q2 7 11.5 6t16.5 4q7 4 4 9t-15 3q6 13 12.5 29.5t12 32.5t9.5 28.5t6 18.5q2 11 16 11q5 0 10 -5t12 -10q8 -7 16.5 -10.5t12.5 -5.5
q4 -8 5.5 -22t2.5 -29q1 -18 5 -32t20 -16zM229 379l-2 -4t0 -3l13 -8q3 4 6.5 11.5t6.5 16.5t4 16.5t-3 11.5zM226 12q5 0 11.5 1t11.5 2q-5 9 -13 12t-15 2.5t-11 -4t0 -7.5q5 -6 16 -6zM501 194q-11 -11 -18.5 -21t0.5 -20l28 31zM426 94q-18 1 -34 -11t-42 -26l2 -10
q16 8 38.5 22t35.5 25zM339 40q-2 5 -8 6t-11 -1q-6 -2 -13.5 -3t-13.5 -3.5t-9.5 -6.5t-2.5 -13q15 3 29.5 8.5t28.5 12.5zM570 657q-10 -5 -17.5 -6.5t-15.5 0.5t-17 7t-21 14q-3 -9 13 -20t37 -26l-12 -7q-26 20 -67.5 44.5t-86.5 44.5l-9 -6q-29 14 -65 29t-64 25
q0 15 8.5 31t21 28.5t26.5 20.5t24 8q21 0 55 -15t66 -36.5t55 -45t23 -40.5q9 -9 23.5 -24.5t22.5 -25.5z" />
    <glyph glyph-name="Uacute" unicode="&#xda;" horiz-adv-x="655" 
d="M671 423q-8 1 -16 -1.5t-12.5 -6.5t-4.5 -9.5t9 -11.5q5 -3 0.5 -11t-13.5 -7l-14 7q-5 -9 -10 -19t-8 -18t-3 -14t5 -6l-11 -21q-7 0 -12 -5t-13 -17t-21.5 -32t-36.5 -48l8 -10q19 24 36.5 49t32.5 50q5 -7 4.5 -13t-2.5 -11q-35 -64 -74.5 -110.5t-79.5 -78.5
t-78.5 -51.5t-72 -30t-59.5 -14t-40 -3.5q-5 0 -6 1.5t-2 3.5q0 2 -1 3.5t-6 1.5t-5.5 -1.5t-0.5 -3.5q1 -2 0.5 -3.5t-5.5 -1.5q-21 0 -32.5 15.5t-22.5 28.5l-11 -5q-30 18 -44 50t-14 67q0 30 7 60.5t20 58.5q17 37 39 87t43.5 101t41.5 97.5t34 78.5q17 14 31 14
q8 0 17.5 -13.5t18 -30.5t15.5 -34t10 -25l14 10v-23q-11 -20 -24 -45t-26 -52t-25 -53t-22 -47q-8 13 -1 27q7 2 1 7t-9 1q-9 -13 -10 -23.5t0.5 -19t3 -16t-2.5 -15.5q-3 -7 -6.5 -14.5t-7.5 -16.5q-7 3 -13.5 -3t-10.5 -14q7 -3 18 4h1q-5 -11 -10.5 -24t-10.5 -24
q-3 5 -3 11.5t5 17.5l-6 6q-6 -11 -12 -23.5t-6 -21.5q0 -11 13 -12q-3 -8 -6 -15t-5 -13q76 0 133 26.5t101 71t78 102.5t65 122q2 7 11.5 6t16.5 4q7 4 4 9t-15 3q6 13 12.5 29.5t12 32.5t9.5 28.5t6 18.5q2 11 16 11q5 0 10 -5t12 -10q8 -7 16.5 -10.5t12.5 -5.5
q4 -8 5.5 -22t2.5 -29q1 -18 5 -32t20 -16zM229 379l-2 -4t0 -3l13 -8q3 4 6.5 11.5t6.5 16.5t4 16.5t-3 11.5zM226 12q5 0 11.5 1t11.5 2q-5 9 -13 12t-15 2.5t-11 -4t0 -7.5q5 -6 16 -6zM501 194q-11 -11 -18.5 -21t0.5 -20l28 31zM426 94q-18 1 -34 -11t-42 -26l2 -10
q16 8 38.5 22t35.5 25zM339 40q-2 5 -8 6t-11 -1q-6 -2 -13.5 -3t-13.5 -3.5t-9.5 -6.5t-2.5 -13q15 3 29.5 8.5t28.5 12.5zM666 756q0 -28 -24.5 -50t-58 -37.5t-68.5 -23.5t-56 -8q-18 0 -28 7q-13 -2 -33.5 -4t-33.5 -3q7 9 10.5 17.5t5.5 15.5l38 14l-2 9
q-12 -4 -29 -10t-29 -6q-9 0 -12 4q42 11 86.5 32.5t82.5 42.5v11q29 15 62 34.5t57 36.5q17 -12 24.5 -36t7.5 -46z" />
    <glyph glyph-name="Ucircumflex" unicode="&#xdb;" horiz-adv-x="655" 
d="M671 423q-8 1 -16 -1.5t-12.5 -6.5t-4.5 -9.5t9 -11.5q5 -3 0.5 -11t-13.5 -7l-14 7q-5 -9 -10 -19t-8 -18t-3 -14t5 -6l-11 -21q-7 0 -12 -5t-13 -17t-21.5 -32t-36.5 -48l8 -10q19 24 36.5 49t32.5 50q5 -7 4.5 -13t-2.5 -11q-35 -64 -74.5 -110.5t-79.5 -78.5
t-78.5 -51.5t-72 -30t-59.5 -14t-40 -3.5q-5 0 -6 1.5t-2 3.5q0 2 -1 3.5t-6 1.5t-5.5 -1.5t-0.5 -3.5q1 -2 0.5 -3.5t-5.5 -1.5q-21 0 -32.5 15.5t-22.5 28.5l-11 -5q-30 18 -44 50t-14 67q0 30 7 60.5t20 58.5q17 37 39 87t43.5 101t41.5 97.5t34 78.5q17 14 31 14
q8 0 17.5 -13.5t18 -30.5t15.5 -34t10 -25l14 10v-23q-11 -20 -24 -45t-26 -52t-25 -53t-22 -47q-8 13 -1 27q7 2 1 7t-9 1q-9 -13 -10 -23.5t0.5 -19t3 -16t-2.5 -15.5q-3 -7 -6.5 -14.5t-7.5 -16.5q-7 3 -13.5 -3t-10.5 -14q7 -3 18 4h1q-5 -11 -10.5 -24t-10.5 -24
q-3 5 -3 11.5t5 17.5l-6 6q-6 -11 -12 -23.5t-6 -21.5q0 -11 13 -12q-3 -8 -6 -15t-5 -13q76 0 133 26.5t101 71t78 102.5t65 122q2 7 11.5 6t16.5 4q7 4 4 9t-15 3q6 13 12.5 29.5t12 32.5t9.5 28.5t6 18.5q2 11 16 11q5 0 10 -5t12 -10q8 -7 16.5 -10.5t12.5 -5.5
q4 -8 5.5 -22t2.5 -29q1 -18 5 -32t20 -16zM229 379l-2 -4t0 -3l13 -8q3 4 6.5 11.5t6.5 16.5t4 16.5t-3 11.5zM226 12q5 0 11.5 1t11.5 2q-5 9 -13 12t-15 2.5t-11 -4t0 -7.5q5 -6 16 -6zM501 194q-11 -11 -18.5 -21t0.5 -20l28 31zM426 94q-18 1 -34 -11t-42 -26l2 -10
q16 8 38.5 22t35.5 25zM339 40q-2 5 -8 6t-11 -1q-6 -2 -13.5 -3t-13.5 -3.5t-9.5 -6.5t-2.5 -13q15 3 29.5 8.5t28.5 12.5zM687 682q-3 -10 -7 -14.5t-8.5 -6.5l-9 -4t-7.5 -7q-21 9 -32.5 21.5t-19 26.5t-15 29.5t-22.5 30.5q-28 -7 -56.5 -25t-54 -36.5t-45.5 -32.5
t-30 -14t-25.5 16.5t-35.5 33.5q6 11 5 21t-7 18q17 16 47 35t62 37.5t61.5 33.5t46.5 23l14 -10l15 7q14 -16 29 -36.5t30 -42t29.5 -44t27.5 -41.5l-11 -9z" />
    <glyph glyph-name="Udieresis" unicode="&#xdc;" horiz-adv-x="655" 
d="M671 423q-8 1 -16 -1.5t-12.5 -6.5t-4.5 -9.5t9 -11.5q5 -3 0.5 -11t-13.5 -7l-14 7q-5 -9 -10 -19t-8 -18t-3 -14t5 -6l-11 -21q-7 0 -12 -5t-13 -17t-21.5 -32t-36.5 -48l8 -10q19 24 36.5 49t32.5 50q5 -7 4.5 -13t-2.5 -11q-35 -64 -74.5 -110.5t-79.5 -78.5
t-78.5 -51.5t-72 -30t-59.5 -14t-40 -3.5q-5 0 -6 1.5t-2 3.5q0 2 -1 3.5t-6 1.5t-5.5 -1.5t-0.5 -3.5q1 -2 0.5 -3.5t-5.5 -1.5q-21 0 -32.5 15.5t-22.5 28.5l-11 -5q-30 18 -44 50t-14 67q0 30 7 60.5t20 58.5q17 37 39 87t43.5 101t41.5 97.5t34 78.5q17 14 31 14
q8 0 17.5 -13.5t18 -30.5t15.5 -34t10 -25l14 10v-23q-11 -20 -24 -45t-26 -52t-25 -53t-22 -47q-8 13 -1 27q7 2 1 7t-9 1q-9 -13 -10 -23.5t0.5 -19t3 -16t-2.5 -15.5q-3 -7 -6.5 -14.5t-7.5 -16.5q-7 3 -13.5 -3t-10.5 -14q7 -3 18 4h1q-5 -11 -10.5 -24t-10.5 -24
q-3 5 -3 11.5t5 17.5l-6 6q-6 -11 -12 -23.5t-6 -21.5q0 -11 13 -12q-3 -8 -6 -15t-5 -13q76 0 133 26.5t101 71t78 102.5t65 122q2 7 11.5 6t16.5 4q7 4 4 9t-15 3q6 13 12.5 29.5t12 32.5t9.5 28.5t6 18.5q2 11 16 11q5 0 10 -5t12 -10q8 -7 16.5 -10.5t12.5 -5.5
q4 -8 5.5 -22t2.5 -29q1 -18 5 -32t20 -16zM229 379l-2 -4t0 -3l13 -8q3 4 6.5 11.5t6.5 16.5t4 16.5t-3 11.5zM226 12q5 0 11.5 1t11.5 2q-5 9 -13 12t-15 2.5t-11 -4t0 -7.5q5 -6 16 -6zM501 194q-11 -11 -18.5 -21t0.5 -20l28 31zM426 94q-18 1 -34 -11t-42 -26l2 -10
q16 8 38.5 22t35.5 25zM339 40q-2 5 -8 6t-11 -1q-6 -2 -13.5 -3t-13.5 -3.5t-9.5 -6.5t-2.5 -13q15 3 29.5 8.5t28.5 12.5zM696 733q-14 -8 -24 -19.5t-19.5 -24t-20 -24.5t-24.5 -21q-14 0 -25.5 6.5t-19 17t-10 23t1.5 24.5h-15q0 5 5.5 23.5t16 39t25 36.5t32.5 16
q34 0 55.5 -23.5t21.5 -73.5zM394 625l-15 8l7 30q-9 20 -16.5 43t-5.5 49q-12 7 -12 20q0 10 5.5 20t14 17.5t19 12.5t20.5 5q30 0 50.5 -30.5t20.5 -84.5z" />
    <glyph glyph-name="Yacute" unicode="&#xdd;" horiz-adv-x="572" 
d="M381 110l-14 13q-8 -6 -15 -16t7 -28q-6 -9 -12 -20t-12 -23q-13 -6 -24 -17l8 -20l-4 -7l-12 16q-12 -17 -20 -38.5t-12 -44.5l19 -9q-3 -12 -4.5 -23.5t-2.5 -21.5q-6 -3 -14.5 -4.5t-16.5 -1.5q-25 0 -43.5 7.5t-30.5 18.5q-1 14 -14 14q-12 15 -10 21q6 31 20 64.5
t31 69.5t36 75.5t34 82.5l-7 6q-44 0 -83 19q-7 -11 -18 0l-66 65h-12q-23 33 -27.5 69t3.5 72.5t25 72.5t38 71l14 -6q3 8 6 11q5 5 9 5q2 0 11.5 -3.5t22 -8.5t25.5 -10.5t22 -9.5l16 -28q-3 -21 -10.5 -38t-16 -33t-15.5 -33t-9 -39l-15 -12q-5 -32 -1 -53.5t22 -44.5
q51 -5 88.5 15t60.5 52l106 149l8 -13l40 58q10 15 25 3q20 16 36 18.5t30 -4.5q-1 -9 3.5 -13t17.5 -6q17 -23 23 -59q-14 -36 -47 -73q-15 2 -23.5 0t-14 -7t-9.5 -13.5t-9 -18.5l14 -7q-29 -31 -55 -60.5t-36 -58.5l-14 13q0 -15 -5 -27.5t-12 -23.5t-14.5 -20t-13.5 -18
q-5 -8 -5 -18t-2 -19l-10 7q2 12 -4 17q-8 -14 -10.5 -23t11.5 -23zM269 -85l-3 -17l8 -4l6 16zM566 398q4 4 10.5 9.5t15.5 0.5q-5 -5 -10 -11t-10 -11zM374 64q-2 -5 -6.5 -7.5t-12.5 0.5l9 16zM292 -76q-10 7 -5 21.5t18 19.5l1 -1zM648 756q0 -28 -24.5 -50t-58 -37.5
t-68.5 -23.5t-56 -8q-18 0 -28 7q-13 -2 -33.5 -4t-33.5 -3q7 9 10.5 17.5t5.5 15.5l38 14l-2 9q-12 -4 -29 -10t-29 -6q-9 0 -12 4q42 11 86.5 32.5t82.5 42.5v11q29 15 62 34.5t57 36.5q17 -12 24.5 -36t7.5 -46z" />
    <glyph glyph-name="Thorn" unicode="&#xde;" horiz-adv-x="523" 
d="M492 328q0 -30 -6 -49t-21.5 -35.5t-41 -34t-64.5 -44.5l-8 8q-26 -15 -51.5 -31.5t-48.5 -28.5t-42 -17t-30 2l-27 -73q-3 0 -4 4t-1 9v9t-3 4t-8 -9t-10 -22t-9 -28.5t-4 -28.5h15q-11 -25 -14.5 -43t-4.5 -25q-9 3 -20 7t-22.5 9t-21 11t-14.5 14q-12 18 -16.5 41
t-4.5 38q9 24 24 59.5t32 74.5t34.5 78t31.5 71q-11 8 -18 17.5t-13 16.5q0 8 5.5 13t2.5 11q-2 5 -8.5 5t-6.5 6q0 7 11.5 15.5t20.5 10.5v15q27 -4 48 11t37 39.5t27.5 55t20.5 56.5t16.5 44t14.5 18q2 0 3.5 -0.5t3.5 -0.5q5 3 10.5 1.5t13 -5.5t16.5 -8t21 -6
q2 -11 8 -25t8 -28q-5 -14 -11.5 -32t-13 -36.5l-13 -37t-9.5 -32.5l40 -2t43 -5q40 -6 61 -25t21 -62zM297 158q-5 5 -8.5 5t-7 -2.5t-7.5 -5t-10 -2.5h-14q-10 0 -16.5 -8t-8.5 -19q18 5 37 14t35 18zM133 -26l-10 3q4 10 8.5 22.5t15.5 12.5zM419 242l-17 -13q4 -5 11 -1
t13 9zM335 189l7 -7q10 6 21 12.5t20 12t13.5 10.5t1.5 9zM327 174q-7 7 -28 -5l6 -7z" />
    <glyph glyph-name="germandbls" unicode="&#xdf;" horiz-adv-x="1030" 
d="M467 577q27 -7 40 -28.5t11 -50.5q7 -6 7 -14q0 -16 -21.5 -33.5t-50.5 -23.5q-8 10 -7 16t4 9.5t6 6.5t-1 7q-38 0 -68 -4t-57 -13.5t-54 -25.5t-60 -39v-15l42 -30q16 -11 32 -20t30.5 -17.5t28 -18t24.5 -21.5l11 7q22 -23 34 -49t10 -46l-6 -80l-17 4
q-22 -30 -61.5 -56t-84.5 -46q-48 20 -47 -19q-36 -14 -65.5 -20.5t-43.5 -6.5q-11 0 -27.5 11t-34.5 28q-30 6 -39 21t-5 29q-10 14 -16 26t-6 20q0 19 10.5 31t22.5 21q6 -5 14 -13.5t16 -16.5t16 -13.5t15 -5.5q18 0 43 5t52.5 15.5t56 26t52.5 36.5v10q-9 9 -17.5 20.5
t-16.5 21t-15 14t-14 0.5q-20 27 -31.5 37.5t-25.5 0.5q-11 9 -26.5 26t-19.5 38q-5 24 -11.5 49t-5.5 41q2 31 30.5 60.5t71.5 52.5t94 37t99 14q19 0 41.5 -1t41.5 -3zM485 428l25 17q0 -9 -3 -12.5t-13 -11.5zM290 444q-27 -8 -50 -19t-24 -23l74 41v1zM200 -5l-35 -15
l5 -7l30 10v12zM982 577q27 -7 40 -28.5t11 -50.5q7 -6 7 -14q0 -16 -21.5 -33.5t-50.5 -23.5q-8 10 -7 16t4 9.5t6 6.5t-1 7q-38 0 -68 -4t-57 -13.5t-54 -25.5t-60 -39v-15l42 -30q16 -11 32 -20t30.5 -17.5t28 -18t24.5 -21.5l11 7q22 -23 34 -49t10 -46l-6 -80l-17 4
q-22 -30 -61.5 -56t-84.5 -46q-48 20 -47 -19q-36 -14 -65.5 -20.5t-43.5 -6.5q-11 0 -27.5 11t-34.5 28q-30 6 -39 21t-5 29q-10 14 -16 26t-6 20q0 19 10.5 31t22.5 21q6 -5 14 -13.5t16 -16.5t16 -13.5t15 -5.5q18 0 43 5t52.5 15.5t56 26t52.5 36.5v10q-9 9 -17.5 20.5
t-16.5 21t-15 14t-14 0.5q-20 27 -31.5 37.5t-25.5 0.5q-11 9 -26.5 26t-19.5 38q-5 24 -11.5 49t-5.5 41q2 31 30.5 60.5t71.5 52.5t94 37t99 14q19 0 41.5 -1t41.5 -3zM1000 428l25 17q0 -9 -3 -12.5t-13 -11.5zM805 444q-27 -8 -50 -19t-24 -23l74 41v1zM715 -5l-35 -15
l5 -7l30 10v12z" />
    <glyph glyph-name="agrave" unicode="&#xe0;" horiz-adv-x="569" 
d="M528 195q-14 -2 -27.5 -4t-26.5 -4q-3 -6 -4.5 -17t-3.5 -22.5t-6 -23t-12 -18.5q11 -6 7 -21t-14 -24q5 -11 5 -22t-16 -32q-1 -3 4 -1t7 4q-2 -26 -7 -47t-13 -44q-12 0 -22.5 4.5t-20.5 9.5t-18 8.5t-14 1.5q1 15 -2 21.5t-14 6.5l1 14q9 0 10 10q-9 0 -9 10
q2 17 8.5 38t11.5 44q5 0 6 -8.5t0 -19.5q3 0 6 7t6 16.5t5 20.5t3 20l-12 5q-1 -12 -2.5 -24.5t-10.5 -8.5q1 5 2 13.5t2.5 17.5t2.5 17t2 13l17 -21q-1 9 1.5 14t0.5 16q-21 1 -57 -12t-74 -31t-71.5 -36.5t-50.5 -30.5l-5 -13l4 -12q-13 -26 -24.5 -53.5t-23.5 -43.5
l-63 27q-1 12 -8 20.5t-14.5 16.5t-12 15.5t-0.5 17.5h-16q8 57 40 115t74.5 114t88 109.5t80.5 100.5t69.5 79.5t63.5 55.5q3 2 8.5 2t11.5 0.5t11 3t6 9.5q10 -3 27.5 -11t28.5 -17l-18 -6q0 -6 3.5 -6.5t8.5 1l10 3t7 0.5q14 -12 18.5 -27.5t6 -31t2.5 -30.5t8 -26v-16.5
t-2 -32t-5 -33t-9 -18.5q2 -2 3 -2t3 -2q-5 -17 -9.5 -37.5t-6.5 -41.5q0 -5 5.5 -13t12 -20t12 -26.5t4.5 -30.5zM444 491q-7 0 -19 -10t-26 -26t-30.5 -36.5t-32.5 -41.5l-5 5l3.5 10.5t-1.5 7.5q-12 -14 -16.5 -23t2.5 -23q-23 -30 -42 -54q-14 -17 -32.5 -45.5
t-35.5 -53.5q15 9 30 23t45 27q26 11 45.5 16t46.5 13q2 20 8 34t9 25l17 -15q4 12 9 31.5t10 42t9.5 44.5t8.5 39zM388 293q-3 -9 1 -10.5t9 -0.5l1 11h-11zM397 309l-4 1l-4 -11h9zM357 52l-4 -13h6l4 16zM222 129q-5 4 -13 2.5t-17 -6t-18.5 -9.5t-16.5 -9q-4 -5 -6 -9
t-5 -9zM234 135q7 4 17 8.5t18 9.5v1q-17 -1 -24.5 -4t-10.5 -15zM426 432h-9l8 27l9 4zM167 125q3 2 15.5 7.5t17.5 16.5q-6 -2 -11 -3.5t-10 -3.5zM629 647q-10 -5 -17.5 -6.5t-15.5 0.5t-17 7t-21 14q-3 -9 13 -20t37 -26l-12 -7q-26 20 -67.5 44.5t-86.5 44.5l-9 -6
q-29 14 -65 29t-64 25q0 15 8.5 31t21 28.5t26.5 20.5t24 8q21 0 55 -15t66 -36.5t55 -45t23 -40.5q9 -9 23.5 -24.5t22.5 -25.5z" />
    <glyph glyph-name="aacute" unicode="&#xe1;" horiz-adv-x="569" 
d="M528 195q-14 -2 -27.5 -4t-26.5 -4q-3 -6 -4.5 -17t-3.5 -22.5t-6 -23t-12 -18.5q11 -6 7 -21t-14 -24q5 -11 5 -22t-16 -32q-1 -3 4 -1t7 4q-2 -26 -7 -47t-13 -44q-12 0 -22.5 4.5t-20.5 9.5t-18 8.5t-14 1.5q1 15 -2 21.5t-14 6.5l1 14q9 0 10 10q-9 0 -9 10
q2 17 8.5 38t11.5 44q5 0 6 -8.5t0 -19.5q3 0 6 7t6 16.5t5 20.5t3 20l-12 5q-1 -12 -2.5 -24.5t-10.5 -8.5q1 5 2 13.5t2.5 17.5t2.5 17t2 13l17 -21q-1 9 1.5 14t0.5 16q-21 1 -57 -12t-74 -31t-71.5 -36.5t-50.5 -30.5l-5 -13l4 -12q-13 -26 -24.5 -53.5t-23.5 -43.5
l-63 27q-1 12 -8 20.5t-14.5 16.5t-12 15.5t-0.5 17.5h-16q8 57 40 115t74.5 114t88 109.5t80.5 100.5t69.5 79.5t63.5 55.5q3 2 8.5 2t11.5 0.5t11 3t6 9.5q10 -3 27.5 -11t28.5 -17l-18 -6q0 -6 3.5 -6.5t8.5 1l10 3t7 0.5q14 -12 18.5 -27.5t6 -31t2.5 -30.5t8 -26v-16.5
t-2 -32t-5 -33t-9 -18.5q2 -2 3 -2t3 -2q-5 -17 -9.5 -37.5t-6.5 -41.5q0 -5 5.5 -13t12 -20t12 -26.5t4.5 -30.5zM444 491q-7 0 -19 -10t-26 -26t-30.5 -36.5t-32.5 -41.5l-5 5l3.5 10.5t-1.5 7.5q-12 -14 -16.5 -23t2.5 -23q-23 -30 -42 -54q-14 -17 -32.5 -45.5
t-35.5 -53.5q15 9 30 23t45 27q26 11 45.5 16t46.5 13q2 20 8 34t9 25l17 -15q4 12 9 31.5t10 42t9.5 44.5t8.5 39zM388 293q-3 -9 1 -10.5t9 -0.5l1 11h-11zM397 309l-4 1l-4 -11h9zM357 52l-4 -13h6l4 16zM222 129q-5 4 -13 2.5t-17 -6t-18.5 -9.5t-16.5 -9q-4 -5 -6 -9
t-5 -9zM234 135q7 4 17 8.5t18 9.5v1q-17 -1 -24.5 -4t-10.5 -15zM426 432h-9l8 27l9 4zM167 125q3 2 15.5 7.5t17.5 16.5q-6 -2 -11 -3.5t-10 -3.5zM650 776q0 -28 -24.5 -50t-58 -37.5t-68.5 -23.5t-56 -8q-18 0 -28 7q-13 -2 -33.5 -4t-33.5 -3q7 9 10.5 17.5t5.5 15.5
l38 14l-2 9q-12 -4 -29 -10t-29 -6q-9 0 -12 4q42 11 86.5 32.5t82.5 42.5v11q29 15 62 34.5t57 36.5q17 -12 24.5 -36t7.5 -46z" />
    <glyph glyph-name="acircumflex" unicode="&#xe2;" horiz-adv-x="569" 
d="M528 195q-14 -2 -27.5 -4t-26.5 -4q-3 -6 -4.5 -17t-3.5 -22.5t-6 -23t-12 -18.5q11 -6 7 -21t-14 -24q5 -11 5 -22t-16 -32q-1 -3 4 -1t7 4q-2 -26 -7 -47t-13 -44q-12 0 -22.5 4.5t-20.5 9.5t-18 8.5t-14 1.5q1 15 -2 21.5t-14 6.5l1 14q9 0 10 10q-9 0 -9 10
q2 17 8.5 38t11.5 44q5 0 6 -8.5t0 -19.5q3 0 6 7t6 16.5t5 20.5t3 20l-12 5q-1 -12 -2.5 -24.5t-10.5 -8.5q1 5 2 13.5t2.5 17.5t2.5 17t2 13l17 -21q-1 9 1.5 14t0.5 16q-21 1 -57 -12t-74 -31t-71.5 -36.5t-50.5 -30.5l-5 -13l4 -12q-13 -26 -24.5 -53.5t-23.5 -43.5
l-63 27q-1 12 -8 20.5t-14.5 16.5t-12 15.5t-0.5 17.5h-16q8 57 40 115t74.5 114t88 109.5t80.5 100.5t69.5 79.5t63.5 55.5q3 2 8.5 2t11.5 0.5t11 3t6 9.5q10 -3 27.5 -11t28.5 -17l-18 -6q0 -6 3.5 -6.5t8.5 1l10 3t7 0.5q14 -12 18.5 -27.5t6 -31t2.5 -30.5t8 -26v-16.5
t-2 -32t-5 -33t-9 -18.5q2 -2 3 -2t3 -2q-5 -17 -9.5 -37.5t-6.5 -41.5q0 -5 5.5 -13t12 -20t12 -26.5t4.5 -30.5zM444 491q-7 0 -19 -10t-26 -26t-30.5 -36.5t-32.5 -41.5l-5 5l3.5 10.5t-1.5 7.5q-12 -14 -16.5 -23t2.5 -23q-23 -30 -42 -54q-14 -17 -32.5 -45.5
t-35.5 -53.5q15 9 30 23t45 27q26 11 45.5 16t46.5 13q2 20 8 34t9 25l17 -15q4 12 9 31.5t10 42t9.5 44.5t8.5 39zM388 293q-3 -9 1 -10.5t9 -0.5l1 11h-11zM397 309l-4 1l-4 -11h9zM357 52l-4 -13h6l4 16zM222 129q-5 4 -13 2.5t-17 -6t-18.5 -9.5t-16.5 -9q-4 -5 -6 -9
t-5 -9zM234 135q7 4 17 8.5t18 9.5v1q-17 -1 -24.5 -4t-10.5 -15zM426 432h-9l8 27l9 4zM167 125q3 2 15.5 7.5t17.5 16.5q-6 -2 -11 -3.5t-10 -3.5zM631 657q-3 -10 -7 -14.5t-8.5 -6.5l-9 -4t-7.5 -7q-21 9 -32.5 21.5t-19 26.5t-15 29.5t-22.5 30.5q-28 -7 -56.5 -25
t-54 -36.5t-45.5 -32.5t-30 -14t-25.5 16.5t-35.5 33.5q6 11 5 21t-7 18q17 16 47 35t62 37.5t61.5 33.5t46.5 23l14 -10l15 7q14 -16 29 -36.5t30 -42t29.5 -44t27.5 -41.5l-11 -9z" />
    <glyph glyph-name="atilde" unicode="&#xe3;" horiz-adv-x="569" 
d="M528 195q-14 -2 -27.5 -4t-26.5 -4q-3 -6 -4.5 -17t-3.5 -22.5t-6 -23t-12 -18.5q11 -6 7 -21t-14 -24q5 -11 5 -22t-16 -32q-1 -3 4 -1t7 4q-2 -26 -7 -47t-13 -44q-12 0 -22.5 4.5t-20.5 9.5t-18 8.5t-14 1.5q1 15 -2 21.5t-14 6.5l1 14q9 0 10 10q-9 0 -9 10
q2 17 8.5 38t11.5 44q5 0 6 -8.5t0 -19.5q3 0 6 7t6 16.5t5 20.5t3 20l-12 5q-1 -12 -2.5 -24.5t-10.5 -8.5q1 5 2 13.5t2.5 17.5t2.5 17t2 13l17 -21q-1 9 1.5 14t0.5 16q-21 1 -57 -12t-74 -31t-71.5 -36.5t-50.5 -30.5l-5 -13l4 -12q-13 -26 -24.5 -53.5t-23.5 -43.5
l-63 27q-1 12 -8 20.5t-14.5 16.5t-12 15.5t-0.5 17.5h-16q8 57 40 115t74.5 114t88 109.5t80.5 100.5t69.5 79.5t63.5 55.5q3 2 8.5 2t11.5 0.5t11 3t6 9.5q10 -3 27.5 -11t28.5 -17l-18 -6q0 -6 3.5 -6.5t8.5 1l10 3t7 0.5q14 -12 18.5 -27.5t6 -31t2.5 -30.5t8 -26v-16.5
t-2 -32t-5 -33t-9 -18.5q2 -2 3 -2t3 -2q-5 -17 -9.5 -37.5t-6.5 -41.5q0 -5 5.5 -13t12 -20t12 -26.5t4.5 -30.5zM444 491q-7 0 -19 -10t-26 -26t-30.5 -36.5t-32.5 -41.5l-5 5l3.5 10.5t-1.5 7.5q-12 -14 -16.5 -23t2.5 -23q-23 -30 -42 -54q-14 -17 -32.5 -45.5
t-35.5 -53.5q15 9 30 23t45 27q26 11 45.5 16t46.5 13q2 20 8 34t9 25l17 -15q4 12 9 31.5t10 42t9.5 44.5t8.5 39zM388 293q-3 -9 1 -10.5t9 -0.5l1 11h-11zM397 309l-4 1l-4 -11h9zM357 52l-4 -13h6l4 16zM222 129q-5 4 -13 2.5t-17 -6t-18.5 -9.5t-16.5 -9q-4 -5 -6 -9
t-5 -9zM234 135q7 4 17 8.5t18 9.5v1q-17 -1 -24.5 -4t-10.5 -15zM426 432h-9l8 27l9 4zM167 125q3 2 15.5 7.5t17.5 16.5q-6 -2 -11 -3.5t-10 -3.5zM671 713q-17 -26 -43 -48t-64 -22q-29 0 -44.5 10t-24.5 23.5t-15 27t-15 21.5q-17 -5 -36 -15.5t-37 -23.5t-33.5 -26.5
t-24.5 -23.5q-17 5 -26 12t-12 15.5t-3 18t1 18.5q17 16 25.5 26.5t5.5 18.5q-11 -10 -22 -20.5t-19 -2.5q15 13 33 30t36.5 32.5t38.5 26t40 10.5q8 0 18 -4.5t15 -11.5q18 0 25 -10.5t13.5 -23.5t18 -23.5t38.5 -10.5q17 0 34 9t35 18q-5 -10 -5 -19l16 4l3 -5l-14 -11
q4 -3 10 -4.5l12 -3t11.5 -4t8.5 -8.5z" />
    <glyph glyph-name="adieresis" unicode="&#xe4;" horiz-adv-x="569" 
d="M528 195q-14 -2 -27.5 -4t-26.5 -4q-3 -6 -4.5 -17t-3.5 -22.5t-6 -23t-12 -18.5q11 -6 7 -21t-14 -24q5 -11 5 -22t-16 -32q-1 -3 4 -1t7 4q-2 -26 -7 -47t-13 -44q-12 0 -22.5 4.5t-20.5 9.5t-18 8.5t-14 1.5q1 15 -2 21.5t-14 6.5l1 14q9 0 10 10q-9 0 -9 10
q2 17 8.5 38t11.5 44q5 0 6 -8.5t0 -19.5q3 0 6 7t6 16.5t5 20.5t3 20l-12 5q-1 -12 -2.5 -24.5t-10.5 -8.5q1 5 2 13.5t2.5 17.5t2.5 17t2 13l17 -21q-1 9 1.5 14t0.5 16q-21 1 -57 -12t-74 -31t-71.5 -36.5t-50.5 -30.5l-5 -13l4 -12q-13 -26 -24.5 -53.5t-23.5 -43.5
l-63 27q-1 12 -8 20.5t-14.5 16.5t-12 15.5t-0.5 17.5h-16q8 57 40 115t74.5 114t88 109.5t80.5 100.5t69.5 79.5t63.5 55.5q3 2 8.5 2t11.5 0.5t11 3t6 9.5q10 -3 27.5 -11t28.5 -17l-18 -6q0 -6 3.5 -6.5t8.5 1l10 3t7 0.5q14 -12 18.5 -27.5t6 -31t2.5 -30.5t8 -26v-16.5
t-2 -32t-5 -33t-9 -18.5q2 -2 3 -2t3 -2q-5 -17 -9.5 -37.5t-6.5 -41.5q0 -5 5.5 -13t12 -20t12 -26.5t4.5 -30.5zM444 491q-7 0 -19 -10t-26 -26t-30.5 -36.5t-32.5 -41.5l-5 5l3.5 10.5t-1.5 7.5q-12 -14 -16.5 -23t2.5 -23q-23 -30 -42 -54q-14 -17 -32.5 -45.5
t-35.5 -53.5q15 9 30 23t45 27q26 11 45.5 16t46.5 13q2 20 8 34t9 25l17 -15q4 12 9 31.5t10 42t9.5 44.5t8.5 39zM388 293q-3 -9 1 -10.5t9 -0.5l1 11h-11zM397 309l-4 1l-4 -11h9zM357 52l-4 -13h6l4 16zM222 129q-5 4 -13 2.5t-17 -6t-18.5 -9.5t-16.5 -9q-4 -5 -6 -9
t-5 -9zM234 135q7 4 17 8.5t18 9.5v1q-17 -1 -24.5 -4t-10.5 -15zM426 432h-9l8 27l9 4zM167 125q3 2 15.5 7.5t17.5 16.5q-6 -2 -11 -3.5t-10 -3.5zM650 733q-14 -8 -24 -19.5t-19.5 -24t-20 -24.5t-24.5 -21q-14 0 -25.5 6.5t-19 17t-10 23t1.5 24.5h-15q0 5 5.5 23.5
t16 39t25 36.5t32.5 16q34 0 55.5 -23.5t21.5 -73.5zM348 625l-15 8l7 30q-9 20 -16.5 43t-5.5 49q-12 7 -12 20q0 10 5.5 20t14 17.5t19 12.5t20.5 5q30 0 50.5 -30.5t20.5 -84.5z" />
    <glyph glyph-name="aring" unicode="&#xe5;" horiz-adv-x="569" 
d="M528 195q-14 -2 -27.5 -4t-26.5 -4q-3 -6 -4.5 -17t-3.5 -22.5t-6 -23t-12 -18.5q11 -6 7 -21t-14 -24q5 -11 5 -22t-16 -32q-1 -3 4 -1t7 4q-2 -26 -7 -47t-13 -44q-12 0 -22.5 4.5t-20.5 9.5t-18 8.5t-14 1.5q1 15 -2 21.5t-14 6.5l1 14q9 0 10 10q-9 0 -9 10
q2 17 8.5 38t11.5 44q5 0 6 -8.5t0 -19.5q3 0 6 7t6 16.5t5 20.5t3 20l-12 5q-1 -12 -2.5 -24.5t-10.5 -8.5q1 5 2 13.5t2.5 17.5t2.5 17t2 13l17 -21q-1 9 1.5 14t0.5 16q-21 1 -57 -12t-74 -31t-71.5 -36.5t-50.5 -30.5l-5 -13l4 -12q-13 -26 -24.5 -53.5t-23.5 -43.5
l-63 27q-1 12 -8 20.5t-14.5 16.5t-12 15.5t-0.5 17.5h-16q8 57 40 115t74.5 114t88 109.5t80.5 100.5t69.5 79.5t63.5 55.5q3 2 8.5 2t11.5 0.5t11 3t6 9.5q10 -3 27.5 -11t28.5 -17l-18 -6q0 -6 3.5 -6.5t8.5 1l10 3t7 0.5q14 -12 18.5 -27.5t6 -31t2.5 -30.5t8 -26v-16.5
t-2 -32t-5 -33t-9 -18.5q2 -2 3 -2t3 -2q-5 -17 -9.5 -37.5t-6.5 -41.5q0 -5 5.5 -13t12 -20t12 -26.5t4.5 -30.5zM444 491q-7 0 -19 -10t-26 -26t-30.5 -36.5t-32.5 -41.5l-5 5l3.5 10.5t-1.5 7.5q-12 -14 -16.5 -23t2.5 -23q-23 -30 -42 -54q-14 -17 -32.5 -45.5
t-35.5 -53.5q15 9 30 23t45 27q26 11 45.5 16t46.5 13q2 20 8 34t9 25l17 -15q4 12 9 31.5t10 42t9.5 44.5t8.5 39zM388 293q-3 -9 1 -10.5t9 -0.5l1 11h-11zM397 309l-4 1l-4 -11h9zM357 52l-4 -13h6l4 16zM222 129q-5 4 -13 2.5t-17 -6t-18.5 -9.5t-16.5 -9q-4 -5 -6 -9
t-5 -9zM234 135q7 4 17 8.5t18 9.5v1q-17 -1 -24.5 -4t-10.5 -15zM419 638q-19 3 -33 13.5t-23 25t-13.5 32t-4.5 35.5q16 23 33 41.5t34 33.5h23q6 10 -3 15q24 17 46.5 26t40.5 11q8 -11 17 -10.5t8 8.5q14 -3 30 -11t30 -21.5t23 -32.5t9 -44l-12 -15q0 -24 -8 -42
t-26 -32t-47 -24.5t-71 -19.5q-14 9 -24.5 16.5t-16.5 18.5zM561 788q-14 6 -39 -0.5t-50.5 -19.5t-44 -30.5t-18.5 -33.5q0 -10 17 -29h1q-3 13 3 36q30 4 62.5 12t53.5 25zM426 432h-9l8 27l9 4zM167 125q3 2 15.5 7.5t17.5 16.5q-6 -2 -11 -3.5t-10 -3.5z" />
    <glyph glyph-name="ae" unicode="&#xe6;" horiz-adv-x="891" 
d="M399 176q-14 0 -36.5 -6.5t-49 -17t-54 -23.5t-53 -25.5t-46 -24t-31.5 -19.5l-5 -13l4 -12q-13 -26 -24.5 -53.5t-23.5 -43.5l-58 24q-1 12 -9.5 20.5t-17 16.5t-14 16t-0.5 18h-16q8 57 40.5 115.5t74.5 115t88 110t81 100.5t70 79.5t64 55.5q3 2 8.5 2t11.5 0.5t11 3
t6 9.5q5 -2 13 -4.5t17 -6t17.5 -8t14.5 -9.5l-18 -6q0 -6 3.5 -6.5t8.5 1l10 3t7 0.5q11 -10 16 -22.5t7 -25.5t2.5 -26t3.5 -24h3q2 15 5 30t14 31q19 -2 34 8.5t28 24t25 25t25 11.5q7 0 19 -2.5t24.5 -5.5t23.5 -6t16 -4q2 -17 -3 -34t-14 -37q14 -1 40.5 -3.5
t43.5 -2.5l10 -19q4 0 10 3t14 3t23.5 -5t26.5 -7q2 0 3 -1t-1 -3q-15 -14 -27.5 -18t-21 -6t-12.5 -5.5t-1 -14.5q23 9 43 15.5t40 16.5q3 2 7 5t4 -2q1 -8 -8.5 -13t-16.5 -11q-34 -15 -68 -24t-68 -16t-67 -13t-65 -16q-9 -14 -19 -30.5t-18 -27.5q16 4 36.5 8.5t40.5 9
t37.5 7.5t28.5 3q22 0 32.5 -9.5t26.5 -35.5q-6 -17 10 -25l-5 -21q-29 -3 -65.5 -9t-72.5 -13.5t-67.5 -16t-50.5 -16.5q-9 -4 -17.5 -23.5t-15.5 -43t-11 -45t-4 -29.5q12 -9 26 -11.5t28.5 -2t28 3t24.5 5.5l6 -10q5 0 10.5 3.5t6.5 8.5q6 1 10 -2.5t7.5 -7.5t7.5 -7
t9 -1q24 7 50 15t51 16t48.5 15.5t42.5 13.5q7 2 8 -1q1 -4 -7.5 -8.5t-13.5 -7.5l-68 -25q4 -3 11 -7.5t13 -7.5q5 -2 -2 -4q-38 -13 -82 -25t-86 -23q11 -5 26.5 -5.5t29.5 3.5q30 8 68.5 21t75.5 26q2 1 5.5 1.5t-0.5 -7.5q-9 -15 -29 -22q-24 -9 -51 -19t-54.5 -18
t-54 -13t-49.5 -5q-42 0 -78.5 10.5t-63 33.5t-41.5 60t-13 91q0 2 1 6t1 6zM398 314l-4 1l-4 -11h9zM389 298q-3 -9 1 -10.5t9 -0.5l1 11h-11zM445 496q-7 0 -19 -10t-26 -26t-30.5 -36.5t-32.5 -41.5l-5 5l3.5 10.5t-1.5 7.5q-12 -14 -16.5 -23t2.5 -23q-23 -30 -42 -54
q-14 -17 -32.5 -45.5t-35.5 -53.5q15 9 30 23t45 27q26 11 45.5 16t46.5 13q2 20 8 34t9 25l17 -15q4 12 9 31.5t10 42t9.5 44.5t8.5 39zM482 119q-8 -26 4 -35l4 26zM841 490q0 4 -7.5 5t-12.5 -1l2 -12zM223 134q-5 4 -13 2.5t-17 -6t-18.5 -9.5t-16.5 -9q-4 -5 -6 -9
t-5 -9zM235 140q7 4 17 8.5t18 9.5v1q-17 -1 -24.5 -4t-10.5 -15zM601 390l-17 -27l13 3l17 27zM588 354q-6 0 -14.5 -9.5t-11.5 -17.5l15 4zM427 437h-9l8 27l9 4zM168 130q3 2 15.5 7.5t17.5 16.5q-6 -2 -11 -3.5t-10 -3.5zM499 182q4 5 10 11.5t10 14.5q-17 2 -19 -15z
M498 176l-11 -36l8 -9l13 45h-10zM792 118q-10 -11 -26.5 -16t-30.5 -4q-21 -16 -44 -23t-31 7q35 8 67.5 18.5t61.5 21.5q3 2 4 0t-1 -4z" />
    <glyph glyph-name="ccedilla" unicode="&#xe7;" horiz-adv-x="534" 
d="M269 -114q0 -42 -29.5 -80t-78.5 -67h-25l10 -9q-5 -3 -10 -5.5l-11 -5.5q-7 9 -15 6t-10 -17q-8 -4 -16.5 -6.5t-16.5 -5.5q9 18 12 28t-11 17q13 10 30.5 24t34 29.5t28 30.5t11.5 28q-9 8 -18.5 13t-18.5 10.5t-15.5 13t-9.5 20.5l45 70q-6 2 -7 2q-9 0 -15.5 4
t-12.5 8t-14 7t-20 2q-7 6 -16.5 20t-19 29t-17.5 28t-11 19q-4 6 -5.5 16t-1.5 18v27q12 11 14.5 25.5t2.5 30.5l10 -6q5 8 2.5 18t1.5 18q8 16 18.5 35t21.5 35.5t20 27.5t14 11t5 -2.5t-1 -5t-1 -5t5 -2.5q4 0 9.5 8t11.5 18t12 18t10 8h12q-2 5 -3 13t-2 15h7
q6 16 25 35t44 38.5t53.5 38t54.5 33t46 23t29 8.5t24.5 -6.5t26.5 -12.5q5 -12 12 -23.5t13 -23.5t9.5 -25t0.5 -28q-31 -8 -65 -22t-60 -33q-22 -16 -38 -32t-25 -24l-6 10q-8 -14 -32 -34t-45 -39q-1 -4 -3 -10.5t-4 -10.5q-7 -7 -26 -29.5t-39.5 -50.5t-36 -56
t-15.5 -46q0 -19 16 -19q13 0 34.5 4t46 9t50 11t48.5 9q11 2 18.5 -1.5t11.5 -8.5q-18 -4 -38.5 -8t-39 -9t-32 -11.5t-17.5 -13.5q14 -9 35 -4.5t32 15.5q40 8 86.5 17t84.5 14l16 -4l24 3l11 -7l-52 -8q-10 -2 -17.5 -5.5t-0.5 -13.5l7 -10q-3 -2 -23.5 -8t-48 -14.5
t-58.5 -18t-56 -17.5q-8 -3 -12.5 -9.5t0.5 -11.5l-34 -8l-10 -23q8 -7 18 -13.5t19 -14t15.5 -16t6.5 -19.5zM387 21q-14 -8 -27.5 -15t-26.5 -7q-8 0 -15 3q14 6 33 10.5t36 9.5v-1zM291 -17q-4 0 -8 1t-9 3l33 11q10 -7 3 -11t-19 -4zM127 331q-11 4 -18 -8l10 -6z
M165 223l-12 -19q-3 -5 -8.5 -15t-1.5 -17l31 46zM124 158l-7 -14l6 -8l11 22h-10zM465 64l-10 12l27 4l13 -6zM356 119q33 5 62 9.5t50 6.5q-4 -13 -25 -18t-43 -5q-14 0 -26 1.5t-18 4.5v1zM221 280q16 16 18.5 21t2.5 8q-8 0 -15 -6.5t-15 -16.5zM207 280l-6 -10l7 -6
l8 10zM105 316l-14 -23l9 -7l13 21z" />
    <glyph glyph-name="egrave" unicode="&#xe8;" horiz-adv-x="537" 
d="M570 491q1 -8 -9 -13t-17 -11q-34 -15 -68.5 -24.5t-68.5 -16l-68 -13t-67 -15.5q-8 -14 -18.5 -31t-23.5 -37q15 1 36.5 7.5t43.5 13t41.5 12t30.5 5.5q22 0 32.5 -9.5t26.5 -36.5q-6 -17 11 -26l-7 -22q-23 -4 -59.5 -10t-74.5 -13.5t-72.5 -16t-53.5 -16.5
q-10 -4 -19 -24t-15.5 -43.5t-11 -45.5t-4.5 -31q12 -9 26 -12t28.5 -2.5t28 3t24.5 5.5l6 -10q5 0 10.5 3.5t5.5 8.5q6 1 10 -2.5t7.5 -7.5t7.5 -7t9 -1q49 14 101.5 31t90.5 29q7 2 8 -1q2 -4 -6.5 -8.5t-14.5 -7.5l-68 -25q5 -3 12 -7.5t12 -7.5q5 -2 -2 -4
q-38 -13 -82 -25t-86 -23q11 -5 26.5 -5.5t29.5 3.5q30 8 68.5 21t75.5 26q2 1 5.5 1.5t-0.5 -7.5q-9 -15 -28 -22q-24 -9 -51.5 -19t-55 -18t-54 -13t-49.5 -5q-44 0 -80.5 10.5t-63 34t-40.5 61.5t-12 93q1 28 12 59.5t29.5 70t43 85t51.5 103.5q-4 19 -2 37.5t16 38.5
q19 -2 34 8.5t28.5 24.5t26 26t25.5 12q7 0 19.5 -2.5t25.5 -5.5t24 -6.5t16 -4.5q2 -34 -18 -72q6 -2 17.5 -3.5t24 -2.5l25 -2t20.5 -1l9 -19q4 0 10.5 3t14.5 3t23 -5t26 -7q2 0 3 -1t-1 -3q-15 -14 -27.5 -18t-20.5 -6t-12 -5.5t-1 -14.5q23 9 42.5 15.5t40.5 16.5
q3 2 6.5 5t4.5 -2zM487 494q-1 4 -8.5 5t-12.5 -1l3 -12zM139 182h1l10 12t8 14q-10 1 -13.5 -3t-5.5 -12v-11zM121 118q-3 -14 -3 -23t6 -14l5 27zM563 647q-10 -5 -17.5 -6.5t-15.5 0.5t-17 7t-21 14q-3 -9 13 -20t37 -26l-12 -7q-26 20 -67.5 44.5t-86.5 44.5l-9 -6
q-29 14 -65 29t-64 25q0 15 8.5 31t21 28.5t26.5 20.5t24 8q21 0 55 -15t66 -36.5t55 -45t23 -40.5q9 -9 23.5 -24.5t22.5 -25.5zM429 114q-9 -11 -26 -16t-31 -4q-21 -16 -43.5 -23t-31.5 7q35 8 68 18.5t61 21.5q3 2 4 0t-1 -4zM242 394l-17 -28l13 3l17 28zM219 352
q-5 0 -13 -8.5t-10 -16.5l13 2zM137 175l-11 -37l7 -9l14 47z" />
    <glyph glyph-name="eacute" unicode="&#xe9;" horiz-adv-x="537" 
d="M570 491q1 -8 -9 -13t-17 -11q-34 -15 -68.5 -24.5t-68.5 -16l-68 -13t-67 -15.5q-8 -14 -18.5 -31t-23.5 -37q15 1 36.5 7.5t43.5 13t41.5 12t30.5 5.5q22 0 32.5 -9.5t26.5 -36.5q-6 -17 11 -26l-7 -22q-23 -4 -59.5 -10t-74.5 -13.5t-72.5 -16t-53.5 -16.5
q-10 -4 -19 -24t-15.5 -43.5t-11 -45.5t-4.5 -31q12 -9 26 -12t28.5 -2.5t28 3t24.5 5.5l6 -10q5 0 10.5 3.5t5.5 8.5q6 1 10 -2.5t7.5 -7.5t7.5 -7t9 -1q49 14 101.5 31t90.5 29q7 2 8 -1q2 -4 -6.5 -8.5t-14.5 -7.5l-68 -25q5 -3 12 -7.5t12 -7.5q5 -2 -2 -4
q-38 -13 -82 -25t-86 -23q11 -5 26.5 -5.5t29.5 3.5q30 8 68.5 21t75.5 26q2 1 5.5 1.5t-0.5 -7.5q-9 -15 -28 -22q-24 -9 -51.5 -19t-55 -18t-54 -13t-49.5 -5q-44 0 -80.5 10.5t-63 34t-40.5 61.5t-12 93q1 28 12 59.5t29.5 70t43 85t51.5 103.5q-4 19 -2 37.5t16 38.5
q19 -2 34 8.5t28.5 24.5t26 26t25.5 12q7 0 19.5 -2.5t25.5 -5.5t24 -6.5t16 -4.5q2 -34 -18 -72q6 -2 17.5 -3.5t24 -2.5l25 -2t20.5 -1l9 -19q4 0 10.5 3t14.5 3t23 -5t26 -7q2 0 3 -1t-1 -3q-15 -14 -27.5 -18t-20.5 -6t-12 -5.5t-1 -14.5q23 9 42.5 15.5t40.5 16.5
q3 2 6.5 5t4.5 -2zM487 494q-1 4 -8.5 5t-12.5 -1l3 -12zM139 182h1l10 12t8 14q-10 1 -13.5 -3t-5.5 -12v-11zM121 118q-3 -14 -3 -23t6 -14l5 27zM429 114q-9 -11 -26 -16t-31 -4q-21 -16 -43.5 -23t-31.5 7q35 8 68 18.5t61 21.5q3 2 4 0t-1 -4zM242 394l-17 -28l13 3
l17 28zM219 352q-5 0 -13 -8.5t-10 -16.5l13 2zM137 175l-11 -37l7 -9l14 47zM581 781q0 -28 -24.5 -50t-58 -37.5t-68.5 -23.5t-56 -8q-18 0 -28 7q-13 -2 -33.5 -4t-33.5 -3q7 9 10.5 17.5t5.5 15.5l38 14l-2 9q-12 -4 -29 -10t-29 -6q-9 0 -12 4q42 11 86.5 32.5
t82.5 42.5v11q29 15 62 34.5t57 36.5q17 -12 24.5 -36t7.5 -46z" />
    <glyph glyph-name="ecircumflex" unicode="&#xea;" horiz-adv-x="537" 
d="M570 491q1 -8 -9 -13t-17 -11q-34 -15 -68.5 -24.5t-68.5 -16l-68 -13t-67 -15.5q-8 -14 -18.5 -31t-23.5 -37q15 1 36.5 7.5t43.5 13t41.5 12t30.5 5.5q22 0 32.5 -9.5t26.5 -36.5q-6 -17 11 -26l-7 -22q-23 -4 -59.5 -10t-74.5 -13.5t-72.5 -16t-53.5 -16.5
q-10 -4 -19 -24t-15.5 -43.5t-11 -45.5t-4.5 -31q12 -9 26 -12t28.5 -2.5t28 3t24.5 5.5l6 -10q5 0 10.5 3.5t5.5 8.5q6 1 10 -2.5t7.5 -7.5t7.5 -7t9 -1q49 14 101.5 31t90.5 29q7 2 8 -1q2 -4 -6.5 -8.5t-14.5 -7.5l-68 -25q5 -3 12 -7.5t12 -7.5q5 -2 -2 -4
q-38 -13 -82 -25t-86 -23q11 -5 26.5 -5.5t29.5 3.5q30 8 68.5 21t75.5 26q2 1 5.5 1.5t-0.5 -7.5q-9 -15 -28 -22q-24 -9 -51.5 -19t-55 -18t-54 -13t-49.5 -5q-44 0 -80.5 10.5t-63 34t-40.5 61.5t-12 93q1 28 12 59.5t29.5 70t43 85t51.5 103.5q-4 19 -2 37.5t16 38.5
q19 -2 34 8.5t28.5 24.5t26 26t25.5 12q7 0 19.5 -2.5t25.5 -5.5t24 -6.5t16 -4.5q2 -34 -18 -72q6 -2 17.5 -3.5t24 -2.5l25 -2t20.5 -1l9 -19q4 0 10.5 3t14.5 3t23 -5t26 -7q2 0 3 -1t-1 -3q-15 -14 -27.5 -18t-20.5 -6t-12 -5.5t-1 -14.5q23 9 42.5 15.5t40.5 16.5
q3 2 6.5 5t4.5 -2zM487 494q-1 4 -8.5 5t-12.5 -1l3 -12zM139 182h1l10 12t8 14q-10 1 -13.5 -3t-5.5 -12v-11zM121 118q-3 -14 -3 -23t6 -14l5 27zM429 114q-9 -11 -26 -16t-31 -4q-21 -16 -43.5 -23t-31.5 7q35 8 68 18.5t61 21.5q3 2 4 0t-1 -4zM242 394l-17 -28l13 3
l17 28zM219 352q-5 0 -13 -8.5t-10 -16.5l13 2zM137 175l-11 -37l7 -9l14 47zM545 677q-3 -10 -7 -14.5t-8.5 -6.5l-9 -4t-7.5 -7q-21 9 -32.5 21.5t-19 26.5t-15 29.5t-22.5 30.5q-28 -7 -56.5 -25t-54 -36.5t-45.5 -32.5t-30 -14t-25.5 16.5t-35.5 33.5q6 11 5 21t-7 18
q17 16 47 35t62 37.5t61.5 33.5t46.5 23l14 -10l15 7q14 -16 29 -36.5t30 -42t29.5 -44t27.5 -41.5l-11 -9z" />
    <glyph glyph-name="edieresis" unicode="&#xeb;" horiz-adv-x="537" 
d="M570 491q1 -8 -9 -13t-17 -11q-34 -15 -68.5 -24.5t-68.5 -16l-68 -13t-67 -15.5q-8 -14 -18.5 -31t-23.5 -37q15 1 36.5 7.5t43.5 13t41.5 12t30.5 5.5q22 0 32.5 -9.5t26.5 -36.5q-6 -17 11 -26l-7 -22q-23 -4 -59.5 -10t-74.5 -13.5t-72.5 -16t-53.5 -16.5
q-10 -4 -19 -24t-15.5 -43.5t-11 -45.5t-4.5 -31q12 -9 26 -12t28.5 -2.5t28 3t24.5 5.5l6 -10q5 0 10.5 3.5t5.5 8.5q6 1 10 -2.5t7.5 -7.5t7.5 -7t9 -1q49 14 101.5 31t90.5 29q7 2 8 -1q2 -4 -6.5 -8.5t-14.5 -7.5l-68 -25q5 -3 12 -7.5t12 -7.5q5 -2 -2 -4
q-38 -13 -82 -25t-86 -23q11 -5 26.5 -5.5t29.5 3.5q30 8 68.5 21t75.5 26q2 1 5.5 1.5t-0.5 -7.5q-9 -15 -28 -22q-24 -9 -51.5 -19t-55 -18t-54 -13t-49.5 -5q-44 0 -80.5 10.5t-63 34t-40.5 61.5t-12 93q1 28 12 59.5t29.5 70t43 85t51.5 103.5q-4 19 -2 37.5t16 38.5
q19 -2 34 8.5t28.5 24.5t26 26t25.5 12q7 0 19.5 -2.5t25.5 -5.5t24 -6.5t16 -4.5q2 -34 -18 -72q6 -2 17.5 -3.5t24 -2.5l25 -2t20.5 -1l9 -19q4 0 10.5 3t14.5 3t23 -5t26 -7q2 0 3 -1t-1 -3q-15 -14 -27.5 -18t-20.5 -6t-12 -5.5t-1 -14.5q23 9 42.5 15.5t40.5 16.5
q3 2 6.5 5t4.5 -2zM487 494q-1 4 -8.5 5t-12.5 -1l3 -12zM139 182h1l10 12t8 14q-10 1 -13.5 -3t-5.5 -12v-11zM121 118q-3 -14 -3 -23t6 -14l5 27zM429 114q-9 -11 -26 -16t-31 -4q-21 -16 -43.5 -23t-31.5 7q35 8 68 18.5t61 21.5q3 2 4 0t-1 -4zM242 394l-17 -28l13 3
l17 28zM219 352q-5 0 -13 -8.5t-10 -16.5l13 2zM137 175l-11 -37l7 -9l14 47zM538 733q-14 -8 -24 -19.5t-19.5 -24t-20 -24.5t-24.5 -21q-14 0 -25.5 6.5t-19 17t-10 23t1.5 24.5h-15q0 5 5.5 23.5t16 39t25 36.5t32.5 16q34 0 55.5 -23.5t21.5 -73.5zM236 625l-15 8l7 30
q-9 20 -16.5 43t-5.5 49q-12 7 -12 20q0 10 5.5 20t14 17.5t19 12.5t20.5 5q30 0 50.5 -30.5t20.5 -84.5z" />
    <glyph glyph-name="igrave" unicode="&#xec;" horiz-adv-x="360" 
d="M385 547q0 -20 -2.5 -45t-6.5 -48h-11q-10 -14 -19 -33t-18.5 -38t-22 -36t-29.5 -26l4 -12l-39 -22q-29 -42 -45 -90.5t-33 -91.5q-2 -6 -7.5 -15.5t4.5 -12.5q1 0 3 3t3.5 7l3 8t1.5 5q9 19 16.5 42.5t16.5 47t19 45t24 36.5q5 2 6.5 1t0.5 -3t-2.5 -4.5t-2.5 -3.5
q-26 -45 -42.5 -94.5t-38.5 -102.5q-15 -35 -20.5 -65t-1.5 -45q-27 9 -50 22v32q-10 -8 -11 -24q-17 13 -31 31t-24 44q0 45 14 94.5t37 100.5t51 102t57 98t55 88.5t44 74.5q5 6 13.5 10t16.5 4t15.5 -2.5t15.5 -4.5v-24q15 -6 25.5 -21t10.5 -32zM153 60q-5 5 -7.5 5.5
t-3 -1.5t-0.5 -5v-4l-11 -27q-1 -2 1 -6.5t7 3.5zM507 647q-10 -5 -17.5 -6.5t-15.5 0.5t-17 7t-21 14q-3 -9 13 -20t37 -26l-12 -7q-26 20 -67.5 44.5t-86.5 44.5l-9 -6q-29 14 -65 29t-64 25q0 15 8.5 31t21 28.5t26.5 20.5t24 8q21 0 55 -15t66 -36.5t55 -45t23 -40.5
q9 -9 23.5 -24.5t22.5 -25.5z" />
    <glyph glyph-name="iacute" unicode="&#xed;" horiz-adv-x="360" 
d="M385 547q0 -20 -2.5 -45t-6.5 -48h-11q-10 -14 -19 -33t-18.5 -38t-22 -36t-29.5 -26l4 -12l-39 -22q-29 -42 -45 -90.5t-33 -91.5q-2 -6 -7.5 -15.5t4.5 -12.5q1 0 3 3t3.5 7l3 8t1.5 5q9 19 16.5 42.5t16.5 47t19 45t24 36.5q5 2 6.5 1t0.5 -3t-2.5 -4.5t-2.5 -3.5
q-26 -45 -42.5 -94.5t-38.5 -102.5q-15 -35 -20.5 -65t-1.5 -45q-27 9 -50 22v32q-10 -8 -11 -24q-17 13 -31 31t-24 44q0 45 14 94.5t37 100.5t51 102t57 98t55 88.5t44 74.5q5 6 13.5 10t16.5 4t15.5 -2.5t15.5 -4.5v-24q15 -6 25.5 -21t10.5 -32zM153 60q-5 5 -7.5 5.5
t-3 -1.5t-0.5 -5v-4l-11 -27q-1 -2 1 -6.5t7 3.5zM595 786q0 -28 -24.5 -50t-58 -37.5t-68.5 -23.5t-56 -8q-18 0 -28 7q-13 -2 -33.5 -4t-33.5 -3q7 9 10.5 17.5t5.5 15.5l38 14l-2 9q-12 -4 -29 -10t-29 -6q-9 0 -12 4q42 11 86.5 32.5t82.5 42.5v11q29 15 62 34.5
t57 36.5q17 -12 24.5 -36t7.5 -46z" />
    <glyph glyph-name="icircumflex" unicode="&#xee;" horiz-adv-x="360" 
d="M385 547q0 -20 -2.5 -45t-6.5 -48h-11q-10 -14 -19 -33t-18.5 -38t-22 -36t-29.5 -26l4 -12l-39 -22q-29 -42 -45 -90.5t-33 -91.5q-2 -6 -7.5 -15.5t4.5 -12.5q1 0 3 3t3.5 7l3 8t1.5 5q9 19 16.5 42.5t16.5 47t19 45t24 36.5q5 2 6.5 1t0.5 -3t-2.5 -4.5t-2.5 -3.5
q-26 -45 -42.5 -94.5t-38.5 -102.5q-15 -35 -20.5 -65t-1.5 -45q-27 9 -50 22v32q-10 -8 -11 -24q-17 13 -31 31t-24 44q0 45 14 94.5t37 100.5t51 102t57 98t55 88.5t44 74.5q5 6 13.5 10t16.5 4t15.5 -2.5t15.5 -4.5v-24q15 -6 25.5 -21t10.5 -32zM153 60q-5 5 -7.5 5.5
t-3 -1.5t-0.5 -5v-4l-11 -27q-1 -2 1 -6.5t7 3.5zM531 657q-3 -10 -7 -14.5t-8.5 -6.5l-9 -4t-7.5 -7q-21 9 -32.5 21.5t-19 26.5t-15 29.5t-22.5 30.5q-28 -7 -56.5 -25t-54 -36.5t-45.5 -32.5t-30 -14t-25.5 16.5t-35.5 33.5q6 11 5 21t-7 18q17 16 47 35t62 37.5
t61.5 33.5t46.5 23l14 -10l15 7q14 -16 29 -36.5t30 -42t29.5 -44t27.5 -41.5l-11 -9z" />
    <glyph glyph-name="idieresis" unicode="&#xef;" horiz-adv-x="360" 
d="M385 547q0 -20 -2.5 -45t-6.5 -48h-11q-10 -14 -19 -33t-18.5 -38t-22 -36t-29.5 -26l4 -12l-39 -22q-29 -42 -45 -90.5t-33 -91.5q-2 -6 -7.5 -15.5t4.5 -12.5q1 0 3 3t3.5 7l3 8t1.5 5q9 19 16.5 42.5t16.5 47t19 45t24 36.5q5 2 6.5 1t0.5 -3t-2.5 -4.5t-2.5 -3.5
q-26 -45 -42.5 -94.5t-38.5 -102.5q-15 -35 -20.5 -65t-1.5 -45q-27 9 -50 22v32q-10 -8 -11 -24q-17 13 -31 31t-24 44q0 45 14 94.5t37 100.5t51 102t57 98t55 88.5t44 74.5q5 6 13.5 10t16.5 4t15.5 -2.5t15.5 -4.5v-24q15 -6 25.5 -21t10.5 -32zM153 60q-5 5 -7.5 5.5
t-3 -1.5t-0.5 -5v-4l-11 -27q-1 -2 1 -6.5t7 3.5zM541 733q-14 -8 -24 -19.5t-19.5 -24t-20 -24.5t-24.5 -21q-14 0 -25.5 6.5t-19 17t-10 23t1.5 24.5h-15q0 5 5.5 23.5t16 39t25 36.5t32.5 16q34 0 55.5 -23.5t21.5 -73.5zM239 625l-15 8l7 30q-9 20 -16.5 43t-5.5 49
q-12 7 -12 20q0 10 5.5 20t14 17.5t19 12.5t20.5 5q30 0 50.5 -30.5t20.5 -84.5z" />
    <glyph glyph-name="eth" unicode="&#xf0;" horiz-adv-x="729" 
d="M724 379q-13 -19 -24.5 -38t-22 -34t-21 -23.5t-22.5 -7.5l14 17q-6 3 -12.5 0t-14 -10t-17 -15.5t-19.5 -17.5l15 -3q-42 -36 -87.5 -70.5t-92 -66t-91.5 -59.5t-85 -51l-19 -16q-13 0 -22.5 -5.5t-20.5 -5.5q-23 0 -37.5 11.5t-24.5 27t-17.5 31.5t-17.5 26l2 46h24
q20 0 32 16q4 9 6 21.5t4 27l4 29t6 26.5q-17 -2 -32.5 -4t-30.5 -4q-1 15 -10 23.5t-23 12.5q1 14 3 26t8 28q21 18 51.5 26.5t65.5 12.5q10 24 18.5 47t8.5 38q0 10 -5.5 20t-12 19t-12 18t-5.5 19t8.5 16.5t20 11t24.5 8.5t23 8l10 -9q17 16 27.5 36t20 36.5t21.5 27.5
t32 11q3 0 11 -9.5t16.5 -21.5t15 -24t6.5 -17q-1 -7 -5.5 -15.5t-5.5 -14.5q11 -3 25 -3.5t30 -1t34 -2t36 -6.5q-4 -7 -1 -10t8.5 -3t11 3t7.5 8q8 -6 25 -10t34 -9q34 -11 53 -29.5t29.5 -39.5t14 -42.5t5.5 -36.5zM652 317l-8 -11l14 -4l8 12zM622 447q-56 -1 -96 -3
t-70 -6t-52.5 -8.5t-43.5 -9.5q-7 -16 -13 -32t-11 -33q11 -2 24 -2.5t27 0.5l20 -31q20 5 33 -0.5t26 -13.5q-37 -14 -74.5 -25.5t-79.5 -19.5q-6 -20 -13 -46.5t-12 -49.5q13 9 34.5 21t45.5 26.5t48 31t43 33.5q9 -5 15 -4l-6 13l8 7q3 -5 6.5 -6t5.5 -1q5 0 13 6t17 15
t18 20t16 20q10 -3 23 7t24 26t18.5 33.5t5.5 31.5zM534 209q-14 -2 -27.5 -9t-29.5 -18q-15 -11 -38.5 -27t-49.5 -33q0 -12 -9 -19q-10 10 -31 -7q10 0 24 -7q42 29 84 61.5t77 57.5v1zM561 243l-32 -23q5 -2 10 -2.5t11 4.5l20 17zM291 41l50 30q-2 2 -3 7t2 10v1
q-11 -8 -27 -23t-22 -24v-1zM245 25v-9l27 15l4 13z" />
    <glyph glyph-name="ntilde" unicode="&#xf1;" horiz-adv-x="753" 
d="M522 365q11 17 28 42t38 52t44 54.5t45 48.5q18 11 52 13q56 2 81 -16l-20 -14l2 -4q5 0 16 3.5t16 6.5l28 -30q-20 -9 -45.5 -26t-52.5 -38.5t-53 -47t-45 -51.5q-5 -6 -8 -1.5t-8 1.5q-2 -27 -15.5 -46t-31.5 -47q-4 -7 -4 -16t-5 -20q0 -5 -8 -9.5t-10 -11.5
q-19 -58 -43 -117.5t-48 -121.5l-45 21l-6 -14q-24 6 -38 14.5t-22 21t-12 30.5t-7 43q-2 20 0.5 48t-2.5 45q-9 26 -10.5 46t0 37t3.5 33t0 35l-5 39q-23 -8 -47.5 -30t-44.5 -57l3 -16q-19 -35 -37 -75.5t-35 -79.5t-34 -73t-34 -56h-28q-11 0 -19.5 10.5t-15.5 23.5
t-12.5 25t-9.5 14l-6 44q-4 23 1 35t10 26q27 64 60.5 116.5t68.5 96t70 79t65 65.5q11 -4 30 -15t38.5 -25t36 -29.5t21.5 -29.5q4 -11 8.5 -27.5t9 -35t8.5 -37.5t8 -34q25 44 55 91t57 86.5t48.5 66t29.5 29.5l21 3q-23 -23 -43 -47t-36.5 -46.5t-29 -42t-21.5 -32.5
q-13 -21 -11 -22zM665 400q2 2 -1.5 5t-5.5 1q-3 -5 -7 -10.5t-7 -11t-3.5 -10t3.5 -6.5zM645 517q1 -2 3 -4t5 -1l17 22l-8 4q-8 -7 -17 -21zM760 524l2 -9q8 5 13.5 8.5t3.5 14.5zM579 174l-9 6q1 11 3 21.5t11 6.5zM691 436q2 2 -0.5 6t-6.5 -1l-20 -26q7 1 9 -5z
M281 492l-22 -23q4 -4 8.5 -2.5t8.5 5t7 7.5t6 7zM743 688q-17 -26 -43 -48t-64 -22q-29 0 -44.5 10t-24.5 23.5t-15 27t-15 21.5q-17 -5 -36 -15.5t-37 -23.5t-33.5 -26.5t-24.5 -23.5q-17 5 -26 12t-12 15.5t-3 18t1 18.5q17 16 25.5 26.5t5.5 18.5q-11 -10 -22 -20.5
t-19 -2.5q15 13 33 30t36.5 32.5t38.5 26t40 10.5q8 0 18 -4.5t15 -11.5q18 0 25 -10.5t13.5 -23.5t18 -23.5t38.5 -10.5q17 0 34 9t35 18q-5 -10 -5 -19l16 4l3 -5l-14 -11q4 -3 10 -4.5l12 -3t11.5 -4t8.5 -8.5z" />
    <glyph glyph-name="ograve" unicode="&#xf2;" horiz-adv-x="654" 
d="M624 300q0 -25 -13 -55t-40 -52q4 -8 -0.5 -14.5t-12.5 -6.5l-7 13q-6 -2 -9.5 -5.5t1.5 -11.5q-8 0 -18.5 -6t-10.5 -14q0 -11 -10 -11t-19 -2q-8 -8 -15.5 -18l-16.5 -22l-11 10q-10 -6 -13.5 -11t-5.5 -10t-6 -9.5t-14 -9.5q-12 -6 -25.5 -7t-27.5 -4q-2 -2 3.5 -5
t4.5 -6l-18 -6l-28 17q-6 -4 -7.5 -9.5t-3 -11.5t-4 -11t-9.5 -8q-18 -6 -34 -11.5t-37 -12.5q-13 13 -26.5 10.5t-24.5 -10.5q-26 17 -55 38.5t-49 38.5q-18 14 -25 47t-7 69q0 61 23 114t58.5 97.5t79.5 79.5t86 59t77 37t54 13q22 0 36.5 -12t37.5 -30q0 -17 8.5 -32.5
t21.5 -29.5t29 -26.5t31 -22.5q29 -20 40.5 -54.5t11.5 -75.5zM365 68q0 10 -15 10q0 -2 -2 -6t0 -6q3 -2 8 -1t9 3zM463 398q-2 7 -4 10.5t-5 0.5q-6 -6 -11 -6t-8 4t-4 4q-20 0 -45.5 -10.5t-52 -28t-50 -40.5t-39.5 -48q-36 -17 -61 -57t-42 -92q17 2 37 4t34 7l180 75
q7 3 18.5 8.5t23 12t22.5 15t18 17.5l45 59zM404 107q-14 -7 -19.5 -12t-4.5 -13l29 15zM215 286q-11 7 -22 -0.5t-13 -15.5q0 -11 12 -12zM219 8q-7 11 -18 11l-6 -2t-6 -4zM440 115q-2 2 -4 8t-4 8l-16 -17l4 -11zM628 617q-10 -5 -17.5 -6.5t-15.5 0.5t-17 7t-21 14
q-3 -9 13 -20t37 -26l-12 -7q-26 20 -67.5 44.5t-86.5 44.5l-9 -6q-29 14 -65 29t-64 25q0 15 8.5 31t21 28.5t26.5 20.5t24 8q21 0 55 -15t66 -36.5t55 -45t23 -40.5q9 -9 23.5 -24.5t22.5 -25.5z" />
    <glyph glyph-name="oacute" unicode="&#xf3;" horiz-adv-x="654" 
d="M624 300q0 -25 -13 -55t-40 -52q4 -8 -0.5 -14.5t-12.5 -6.5l-7 13q-6 -2 -9.5 -5.5t1.5 -11.5q-8 0 -18.5 -6t-10.5 -14q0 -11 -10 -11t-19 -2q-8 -8 -15.5 -18l-16.5 -22l-11 10q-10 -6 -13.5 -11t-5.5 -10t-6 -9.5t-14 -9.5q-12 -6 -25.5 -7t-27.5 -4q-2 -2 3.5 -5
t4.5 -6l-18 -6l-28 17q-6 -4 -7.5 -9.5t-3 -11.5t-4 -11t-9.5 -8q-18 -6 -34 -11.5t-37 -12.5q-13 13 -26.5 10.5t-24.5 -10.5q-26 17 -55 38.5t-49 38.5q-18 14 -25 47t-7 69q0 61 23 114t58.5 97.5t79.5 79.5t86 59t77 37t54 13q22 0 36.5 -12t37.5 -30q0 -17 8.5 -32.5
t21.5 -29.5t29 -26.5t31 -22.5q29 -20 40.5 -54.5t11.5 -75.5zM365 68q0 10 -15 10q0 -2 -2 -6t0 -6q3 -2 8 -1t9 3zM463 398q-2 7 -4 10.5t-5 0.5q-6 -6 -11 -6t-8 4t-4 4q-20 0 -45.5 -10.5t-52 -28t-50 -40.5t-39.5 -48q-36 -17 -61 -57t-42 -92q17 2 37 4t34 7l180 75
q7 3 18.5 8.5t23 12t22.5 15t18 17.5l45 59zM404 107q-14 -7 -19.5 -12t-4.5 -13l29 15zM215 286q-11 7 -22 -0.5t-13 -15.5q0 -11 12 -12zM219 8q-7 11 -18 11l-6 -2t-6 -4zM440 115q-2 2 -4 8t-4 8l-16 -17l4 -11zM666 756q0 -28 -24.5 -50t-58 -37.5t-68.5 -23.5t-56 -8
q-18 0 -28 7q-13 -2 -33.5 -4t-33.5 -3q7 9 10.5 17.5t5.5 15.5l38 14l-2 9q-12 -4 -29 -10t-29 -6q-9 0 -12 4q42 11 86.5 32.5t82.5 42.5v11q29 15 62 34.5t57 36.5q17 -12 24.5 -36t7.5 -46z" />
    <glyph glyph-name="ocircumflex" unicode="&#xf4;" horiz-adv-x="654" 
d="M624 300q0 -25 -13 -55t-40 -52q4 -8 -0.5 -14.5t-12.5 -6.5l-7 13q-6 -2 -9.5 -5.5t1.5 -11.5q-8 0 -18.5 -6t-10.5 -14q0 -11 -10 -11t-19 -2q-8 -8 -15.5 -18l-16.5 -22l-11 10q-10 -6 -13.5 -11t-5.5 -10t-6 -9.5t-14 -9.5q-12 -6 -25.5 -7t-27.5 -4q-2 -2 3.5 -5
t4.5 -6l-18 -6l-28 17q-6 -4 -7.5 -9.5t-3 -11.5t-4 -11t-9.5 -8q-18 -6 -34 -11.5t-37 -12.5q-13 13 -26.5 10.5t-24.5 -10.5q-26 17 -55 38.5t-49 38.5q-18 14 -25 47t-7 69q0 61 23 114t58.5 97.5t79.5 79.5t86 59t77 37t54 13q22 0 36.5 -12t37.5 -30q0 -17 8.5 -32.5
t21.5 -29.5t29 -26.5t31 -22.5q29 -20 40.5 -54.5t11.5 -75.5zM365 68q0 10 -15 10q0 -2 -2 -6t0 -6q3 -2 8 -1t9 3zM463 398q-2 7 -4 10.5t-5 0.5q-6 -6 -11 -6t-8 4t-4 4q-20 0 -45.5 -10.5t-52 -28t-50 -40.5t-39.5 -48q-36 -17 -61 -57t-42 -92q17 2 37 4t34 7l180 75
q7 3 18.5 8.5t23 12t22.5 15t18 17.5l45 59zM404 107q-14 -7 -19.5 -12t-4.5 -13l29 15zM215 286q-11 7 -22 -0.5t-13 -15.5q0 -11 12 -12zM219 8q-7 11 -18 11l-6 -2t-6 -4zM440 115q-2 2 -4 8t-4 8l-16 -17l4 -11zM635 657q-3 -10 -7 -14.5t-8.5 -6.5l-9 -4t-7.5 -7
q-21 9 -32.5 21.5t-19 26.5t-15 29.5t-22.5 30.5q-28 -7 -56.5 -25t-54 -36.5t-45.5 -32.5t-30 -14t-25.5 16.5t-35.5 33.5q6 11 5 21t-7 18q17 16 47 35t62 37.5t61.5 33.5t46.5 23l14 -10l15 7q14 -16 29 -36.5t30 -42t29.5 -44t27.5 -41.5l-11 -9z" />
    <glyph glyph-name="otilde" unicode="&#xf5;" horiz-adv-x="654" 
d="M624 300q0 -25 -13 -55t-40 -52q4 -8 -0.5 -14.5t-12.5 -6.5l-7 13q-6 -2 -9.5 -5.5t1.5 -11.5q-8 0 -18.5 -6t-10.5 -14q0 -11 -10 -11t-19 -2q-8 -8 -15.5 -18l-16.5 -22l-11 10q-10 -6 -13.5 -11t-5.5 -10t-6 -9.5t-14 -9.5q-12 -6 -25.5 -7t-27.5 -4q-2 -2 3.5 -5
t4.5 -6l-18 -6l-28 17q-6 -4 -7.5 -9.5t-3 -11.5t-4 -11t-9.5 -8q-18 -6 -34 -11.5t-37 -12.5q-13 13 -26.5 10.5t-24.5 -10.5q-26 17 -55 38.5t-49 38.5q-18 14 -25 47t-7 69q0 61 23 114t58.5 97.5t79.5 79.5t86 59t77 37t54 13q22 0 36.5 -12t37.5 -30q0 -17 8.5 -32.5
t21.5 -29.5t29 -26.5t31 -22.5q29 -20 40.5 -54.5t11.5 -75.5zM365 68q0 10 -15 10q0 -2 -2 -6t0 -6q3 -2 8 -1t9 3zM463 398q-2 7 -4 10.5t-5 0.5q-6 -6 -11 -6t-8 4t-4 4q-20 0 -45.5 -10.5t-52 -28t-50 -40.5t-39.5 -48q-36 -17 -61 -57t-42 -92q17 2 37 4t34 7l180 75
q7 3 18.5 8.5t23 12t22.5 15t18 17.5l45 59zM404 107q-14 -7 -19.5 -12t-4.5 -13l29 15zM215 286q-11 7 -22 -0.5t-13 -15.5q0 -11 12 -12zM219 8q-7 11 -18 11l-6 -2t-6 -4zM440 115q-2 2 -4 8t-4 8l-16 -17l4 -11zM668 693q-17 -26 -43 -48t-64 -22q-29 0 -44.5 10
t-24.5 23.5t-15 27t-15 21.5q-17 -5 -36 -15.5t-37 -23.5t-33.5 -26.5t-24.5 -23.5q-17 5 -26 12t-12 15.5t-3 18t1 18.5q17 16 25.5 26.5t5.5 18.5q-11 -10 -22 -20.5t-19 -2.5q15 13 33 30t36.5 32.5t38.5 26t40 10.5q8 0 18 -4.5t15 -11.5q18 0 25 -10.5t13.5 -23.5
t18 -23.5t38.5 -10.5q17 0 34 9t35 18q-5 -10 -5 -19l16 4l3 -5l-14 -11q4 -3 10 -4.5l12 -3t11.5 -4t8.5 -8.5z" />
    <glyph glyph-name="odieresis" unicode="&#xf6;" horiz-adv-x="654" 
d="M624 300q0 -25 -13 -55t-40 -52q4 -8 -0.5 -14.5t-12.5 -6.5l-7 13q-6 -2 -9.5 -5.5t1.5 -11.5q-8 0 -18.5 -6t-10.5 -14q0 -11 -10 -11t-19 -2q-8 -8 -15.5 -18l-16.5 -22l-11 10q-10 -6 -13.5 -11t-5.5 -10t-6 -9.5t-14 -9.5q-12 -6 -25.5 -7t-27.5 -4q-2 -2 3.5 -5
t4.5 -6l-18 -6l-28 17q-6 -4 -7.5 -9.5t-3 -11.5t-4 -11t-9.5 -8q-18 -6 -34 -11.5t-37 -12.5q-13 13 -26.5 10.5t-24.5 -10.5q-26 17 -55 38.5t-49 38.5q-18 14 -25 47t-7 69q0 61 23 114t58.5 97.5t79.5 79.5t86 59t77 37t54 13q22 0 36.5 -12t37.5 -30q0 -17 8.5 -32.5
t21.5 -29.5t29 -26.5t31 -22.5q29 -20 40.5 -54.5t11.5 -75.5zM365 68q0 10 -15 10q0 -2 -2 -6t0 -6q3 -2 8 -1t9 3zM463 398q-2 7 -4 10.5t-5 0.5q-6 -6 -11 -6t-8 4t-4 4q-20 0 -45.5 -10.5t-52 -28t-50 -40.5t-39.5 -48q-36 -17 -61 -57t-42 -92q17 2 37 4t34 7l180 75
q7 3 18.5 8.5t23 12t22.5 15t18 17.5l45 59zM404 107q-14 -7 -19.5 -12t-4.5 -13l29 15zM215 286q-11 7 -22 -0.5t-13 -15.5q0 -11 12 -12zM219 8q-7 11 -18 11l-6 -2t-6 -4zM440 115q-2 2 -4 8t-4 8l-16 -17l4 -11zM658 718q-14 -8 -24 -19.5t-19.5 -24t-20 -24.5
t-24.5 -21q-14 0 -25.5 6.5t-19 17t-10 23t1.5 24.5h-15q0 5 5.5 23.5t16 39t25 36.5t32.5 16q34 0 55.5 -23.5t21.5 -73.5zM356 610l-15 8l7 30q-9 20 -16.5 43t-5.5 49q-12 7 -12 20q0 10 5.5 20t14 17.5t19 12.5t20.5 5q30 0 50.5 -30.5t20.5 -84.5z" />
    <glyph glyph-name="divide" unicode="&#xf7;" horiz-adv-x="625" 
d="M563 226q-45 -18 -104.5 -30.5t-121.5 -20.5t-120 -12t-101 -4q0 19 -11 26t-25 7q0 48 16 68t58 23q40 3 87 7.5t78 10.5l12 26q-13 16 -17 36.5t-1 40.5q-10 8 -9.5 18.5t8 20t19.5 16t24 6.5q22 -9 39.5 -29.5t17.5 -64.5l-70 -72q35 -8 70 -15t65 -7
q9 -11 21.5 -20.5t19.5 -14.5l-5 -15l24 5zM312 56q-8 0 -14.5 -7.5t-14 -17t-17 -19t-22.5 -12.5q-6 12 -17 20.5t-23 13.5l6 21l-15 7q0 13 3 28t8.5 27.5t13 20.5t16.5 8q13 0 26.5 -7.5t24.5 -20t18 -28.5t7 -34z" />
    <glyph glyph-name="oslash" unicode="&#xf8;" horiz-adv-x="662" 
d="M583 213q-6 -6 -15 -11t-18 -11t-17 -13.5t-11 -17.5q-5 0 -10.5 -1t-10.5 -3t-8 -6.5t-2 -10.5l-38 -8q-4 -3 -2.5 -4.5t3.5 -4t2.5 -5.5t-5.5 -7q-4 -3 -12 -4t-16 -1.5t-15 -1.5t-10 -4q-2 -2 3.5 -5t4.5 -6l-18 -6l-28 17q-6 -4 -7.5 -9.5t-3 -11.5t-4 -11t-9.5 -8
q-18 -6 -34 -11.5t-38 -13.5q-22 -32 -43 -61.5t-39 -55.5v-17q-7 -10 -17 -23.5t-20.5 -25.5t-20 -20.5t-14.5 -8.5q-3 0 -3.5 4.5t0 10.5t1 12.5t0.5 11.5l8 22t9 22l-6 8l22 39l3 -2q9 22 19.5 44.5t21.5 46.5q-26 13 -51 27t-44 25q-21 12 -34.5 42.5t-20.5 63.5
q-11 56 3 106t43 92.5t68 76.5t78.5 58.5t73.5 38t54 14.5q23 1 40 -9t45 -26q2 -12 9 -22t17 -20q17 23 35 46.5t37 48.5l77 57q26 -1 44.5 -5t29.5 -9l9 -27l-19 -13l5 -12l19 8l4 -10q-38 -34 -75 -69t-72 -73q31 -17 48.5 -48t24.5 -66q2 -11 0.5 -26.5t-7.5 -30.5
t-15.5 -27.5t-23.5 -17.5zM420 443q-7 5 -13 5q-22 -1 -48.5 -14t-52 -33.5t-47 -46.5t-34.5 -53q-36 -21 -53 -60.5t-25 -95.5q19 2 41 5.5t36 10.5l30 15q33 61 74 127.5t92 139.5zM192 302q-13 6 -24 -1.5t-11 -16.5q-2 -11 15 -13zM415 139l10 -11q9 5 16.5 11t3.5 14z
M413 116q0 10 -15 10q0 -2 -2 -6t0 -6q3 -2 8 -1t9 3zM510 392q-14 -17 -26.5 -33t-23.5 -33l-13 -3q-11 -18 -22 -37.5t-24 -39.5l9 4q8 3 19 9.5t22.5 15t22 18.5t16.5 20l39 65zM203 -20l-21 -35v-11l21 31v15zM488 160q-2 2 -3 5.5t-2 6.5q-8 -3 -15.5 -9.5t-6.5 -16.5z
" />
    <glyph glyph-name="ugrave" unicode="&#xf9;" horiz-adv-x="655" 
d="M671 423q-8 1 -16 -1.5t-12.5 -6.5t-4.5 -9.5t9 -11.5q5 -3 0.5 -11t-13.5 -7l-14 7q-5 -9 -10 -19t-8 -18t-3 -14t5 -6l-11 -21q-7 0 -12 -5t-13 -17t-21.5 -32t-36.5 -48l8 -10q19 24 36.5 49t32.5 50q5 -7 4.5 -13t-2.5 -11q-35 -64 -74.5 -110.5t-79.5 -78.5
t-78.5 -51.5t-72 -30t-59.5 -14t-40 -3.5q-5 0 -6 1.5t-2 3.5q0 2 -1 3.5t-6 1.5t-5.5 -1.5t-0.5 -3.5q1 -2 0.5 -3.5t-5.5 -1.5q-21 0 -32.5 15.5t-22.5 28.5l-11 -5q-30 18 -44 50t-14 67q0 30 7 60.5t20 58.5q17 37 39 87t43.5 101t41.5 97.5t34 78.5q17 14 31 14
q8 0 17.5 -13.5t18 -30.5t15.5 -34t10 -25l14 10v-23q-11 -20 -24 -45t-26 -52t-25 -53t-22 -47q-8 13 -1 27q7 2 1 7t-9 1q-9 -13 -10 -23.5t0.5 -19t3 -16t-2.5 -15.5q-3 -7 -6.5 -14.5t-7.5 -16.5q-7 3 -13.5 -3t-10.5 -14q7 -3 18 4h1q-5 -11 -10.5 -24t-10.5 -24
q-3 5 -3 11.5t5 17.5l-6 6q-6 -11 -12 -23.5t-6 -21.5q0 -11 13 -12q-3 -8 -6 -15t-5 -13q76 0 133 26.5t101 71t78 102.5t65 122q2 7 11.5 6t16.5 4q7 4 4 9t-15 3q6 13 12.5 29.5t12 32.5t9.5 28.5t6 18.5q2 11 16 11q5 0 10 -5t12 -10q8 -7 16.5 -10.5t12.5 -5.5
q4 -8 5.5 -22t2.5 -29q1 -18 5 -32t20 -16zM229 379l-2 -4t0 -3l13 -8q3 4 6.5 11.5t6.5 16.5t4 16.5t-3 11.5zM226 12q5 0 11.5 1t11.5 2q-5 9 -13 12t-15 2.5t-11 -4t0 -7.5q5 -6 16 -6zM501 194q-11 -11 -18.5 -21t0.5 -20l28 31zM426 94q-18 1 -34 -11t-42 -26l2 -10
q16 8 38.5 22t35.5 25zM339 40q-2 5 -8 6t-11 -1q-6 -2 -13.5 -3t-13.5 -3.5t-9.5 -6.5t-2.5 -13q15 3 29.5 8.5t28.5 12.5zM570 657q-10 -5 -17.5 -6.5t-15.5 0.5t-17 7t-21 14q-3 -9 13 -20t37 -26l-12 -7q-26 20 -67.5 44.5t-86.5 44.5l-9 -6q-29 14 -65 29t-64 25
q0 15 8.5 31t21 28.5t26.5 20.5t24 8q21 0 55 -15t66 -36.5t55 -45t23 -40.5q9 -9 23.5 -24.5t22.5 -25.5z" />
    <glyph glyph-name="uacute" unicode="&#xfa;" horiz-adv-x="655" 
d="M671 423q-8 1 -16 -1.5t-12.5 -6.5t-4.5 -9.5t9 -11.5q5 -3 0.5 -11t-13.5 -7l-14 7q-5 -9 -10 -19t-8 -18t-3 -14t5 -6l-11 -21q-7 0 -12 -5t-13 -17t-21.5 -32t-36.5 -48l8 -10q19 24 36.5 49t32.5 50q5 -7 4.5 -13t-2.5 -11q-35 -64 -74.5 -110.5t-79.5 -78.5
t-78.5 -51.5t-72 -30t-59.5 -14t-40 -3.5q-5 0 -6 1.5t-2 3.5q0 2 -1 3.5t-6 1.5t-5.5 -1.5t-0.5 -3.5q1 -2 0.5 -3.5t-5.5 -1.5q-21 0 -32.5 15.5t-22.5 28.5l-11 -5q-30 18 -44 50t-14 67q0 30 7 60.5t20 58.5q17 37 39 87t43.5 101t41.5 97.5t34 78.5q17 14 31 14
q8 0 17.5 -13.5t18 -30.5t15.5 -34t10 -25l14 10v-23q-11 -20 -24 -45t-26 -52t-25 -53t-22 -47q-8 13 -1 27q7 2 1 7t-9 1q-9 -13 -10 -23.5t0.5 -19t3 -16t-2.5 -15.5q-3 -7 -6.5 -14.5t-7.5 -16.5q-7 3 -13.5 -3t-10.5 -14q7 -3 18 4h1q-5 -11 -10.5 -24t-10.5 -24
q-3 5 -3 11.5t5 17.5l-6 6q-6 -11 -12 -23.5t-6 -21.5q0 -11 13 -12q-3 -8 -6 -15t-5 -13q76 0 133 26.5t101 71t78 102.5t65 122q2 7 11.5 6t16.5 4q7 4 4 9t-15 3q6 13 12.5 29.5t12 32.5t9.5 28.5t6 18.5q2 11 16 11q5 0 10 -5t12 -10q8 -7 16.5 -10.5t12.5 -5.5
q4 -8 5.5 -22t2.5 -29q1 -18 5 -32t20 -16zM229 379l-2 -4t0 -3l13 -8q3 4 6.5 11.5t6.5 16.5t4 16.5t-3 11.5zM226 12q5 0 11.5 1t11.5 2q-5 9 -13 12t-15 2.5t-11 -4t0 -7.5q5 -6 16 -6zM501 194q-11 -11 -18.5 -21t0.5 -20l28 31zM426 94q-18 1 -34 -11t-42 -26l2 -10
q16 8 38.5 22t35.5 25zM339 40q-2 5 -8 6t-11 -1q-6 -2 -13.5 -3t-13.5 -3.5t-9.5 -6.5t-2.5 -13q15 3 29.5 8.5t28.5 12.5zM666 756q0 -28 -24.5 -50t-58 -37.5t-68.5 -23.5t-56 -8q-18 0 -28 7q-13 -2 -33.5 -4t-33.5 -3q7 9 10.5 17.5t5.5 15.5l38 14l-2 9
q-12 -4 -29 -10t-29 -6q-9 0 -12 4q42 11 86.5 32.5t82.5 42.5v11q29 15 62 34.5t57 36.5q17 -12 24.5 -36t7.5 -46z" />
    </font>
</defs>
</svg>
