<?xml version="1.0" encoding="iso-8859-1"?>
<!-- Generator: Adobe Illustrator 19.0.0, SVG Export Plug-In . SVG Version: 6.00 Build 0)  -->
<svg version="1.1" id="Capa_1" xmlns="http://www.w3.org/2000/svg" xmlns:xlink="http://www.w3.org/1999/xlink" x="0px" y="0px"
	 viewBox="-49 141 512 512" style="enable-background:new -49 141 512 512;" xml:space="preserve">
<path class="icon-color-1" visibility="hidden"  d="M69.054,527.758h333.494V151.039H72.081c-33.485,0-60.629,27.144-60.629,60.629V585.36
	C11.453,553.679,37.373,527.758,69.054,527.758z"/>
<path class="icon-color-2" visibility="hidden"  d="M69.054,527.758c-31.681,0-57.601,25.92-57.601,57.601l0,0c0,0.803,0.028,1.599,0.061,2.394
	c1.267,30.581,26.662,55.208,57.54,55.208h333.494V527.758H69.054z"/>
<path class="icon-color-outline" fill="#303030" d="M402.547,141H72.082c-38.967,0-70.668,31.702-70.668,70.668v376.077c0,0.49,0.047,0.968,0.114,1.44
	C3.519,624.708,33.041,653,69.054,653h333.493c5.544,0,10.039-4.495,10.039-10.039V151.039C412.586,145.495,408.092,141,402.547,141
	z M72.082,161.078h320.427v356.64H71.471V246.412c0-5.545-4.495-10.039-10.039-10.039c-5.545,0-10.039,4.495-10.039,10.039v273.661
	c-11.45,3.101-21.705,9.132-29.901,17.246V211.668C21.492,183.772,44.187,161.078,72.082,161.078z M21.492,585.36
	c0-26.226,21.336-47.562,47.562-47.562h323.454v19.83H221.841c-5.544,0-10.039,4.495-10.039,10.039s4.496,10.039,10.039,10.039
	h170.667v20.078h-130.51c-5.544,0-10.039,4.495-10.039,10.039s4.496,10.039,10.039,10.039h130.51v15.059H69.054
	C42.828,632.922,21.492,611.585,21.492,585.36z"/>
<path class="icon-color-outline" fill="#303030" d="M189.483,557.628h-0.201c-5.545,0-10.039,4.495-10.039,10.039s4.495,10.039,10.039,10.039h0.201
	c5.545,0,10.039-4.495,10.039-10.039S195.026,557.628,189.483,557.628z"/>
</svg>
