<?xml version="1.0" encoding="iso-8859-1"?>
<!-- Generator: Adobe Illustrator 19.0.0, SVG Export Plug-In . SVG Version: 6.00 Build 0)  -->
<svg version="1.1" id="Capa_1" xmlns="http://www.w3.org/2000/svg" xmlns:xlink="http://www.w3.org/1999/xlink" x="0px" y="0px"
	 viewBox="-49 141 512 512" style="enable-background:new -49 141 512 512;" xml:space="preserve">
<path class="icon-color-other" fill="#FFFFFF" visibility="hidden" d="M121.001,190.001H43.759c-21.406,0-38.758,17.353-38.758,38.758v375.484
	c0,21.406,17.353,38.758,38.758,38.758h326.483c21.406,0,38.758-17.353,38.758-38.758V228.759c0-21.406-17.353-38.758-38.758-38.758
	H291H121.001z"/>
<path class="icon-color-outline" fill="#303030" d="M351.003,313H207.001c-5.523,0-10-4.477-10-10s4.477-10,10-10h144.002c5.523,0,10,4.477,10,10
	S356.526,313,351.003,313z"/>
<path class="icon-color-2" visibility="hidden"  d="M251.48,173h-15.566c-3.502-12.683-15.116-22-28.913-22s-25.411,9.317-28.913,22h-15.587
	c-28.443,0-51.5,23.058-51.5,51.5v6.5H302.98v-6.5C302.98,196.058,279.923,173,251.48,173z"/>
<path class="icon-color-outline" fill="#303030" d="M308.941,361.001c-2.63,0-5.21-1.07-7.07-2.93c-1.86-1.86-2.93-4.44-2.93-7.07s1.07-5.21,2.93-7.07
	s4.44-2.93,7.07-2.93s5.21,1.07,7.07,2.93c1.86,1.86,2.93,4.44,2.93,7.07s-1.07,5.21-2.93,7.07S311.571,361.001,308.941,361.001z"/>
<path class="icon-color-outline" fill="#303030" d="M206.991,204.001c-2.63,0-5.21-1.07-7.07-2.93s-2.93-4.44-2.93-7.07c0-2.63,1.07-5.21,2.93-7.07
	c1.86-1.86,4.44-2.93,7.07-2.93s5.21,1.07,7.07,2.93c1.86,1.86,2.93,4.44,2.93,7.07c0,2.63-1.07,5.21-2.93,7.07
	C212.201,202.931,209.621,204.001,206.991,204.001z"/>
<path class="icon-color-outline" fill="#303030" d="M266.878,361h-59.877c-5.523,0-10-4.477-10-10s4.477-10,10-10h59.877c5.523,0,10,4.477,10,10
	S272.401,361,266.878,361z"/>
<path class="icon-color-outline" fill="#303030" d="M351.003,421H207.001c-5.523,0-10-4.477-10-10s4.477-10,10-10h144.002c5.523,0,10,4.477,10,10
	S356.526,421,351.003,421z"/>
<path class="icon-color-outline" fill="#303030" d="M308.941,469.001c-2.63,0-5.21-1.07-7.07-2.93c-1.86-1.86-2.93-4.44-2.93-7.07s1.07-5.21,2.93-7.07
	c1.86-1.86,4.44-2.93,7.07-2.93s5.21,1.07,7.07,2.93c1.86,1.86,2.93,4.44,2.93,7.07s-1.07,5.21-2.93,7.07
	S311.571,469.001,308.941,469.001z"/>
<path class="icon-color-outline" fill="#303030" d="M266.878,469h-59.877c-5.523,0-10-4.477-10-10s4.477-10,10-10h59.877c5.523,0,10,4.477,10,10
	S272.401,469,266.878,469z"/>
<path class="icon-color-outline" fill="#303030" d="M351.003,529H207.001c-5.523,0-10-4.477-10-10s4.477-10,10-10h144.002c5.523,0,10,4.477,10,10
	S356.526,529,351.003,529z"/>
<path class="icon-color-outline" fill="#303030" d="M308.941,577.001c-2.63,0-5.21-1.07-7.07-2.93c-1.86-1.86-2.93-4.44-2.93-7.07s1.07-5.21,2.93-7.07
	s4.44-2.93,7.07-2.93s5.21,1.07,7.07,2.93c1.86,1.86,2.93,4.44,2.93,7.07s-1.07,5.21-2.93,7.07
	C314.151,575.931,311.571,577.001,308.941,577.001z"/>
<path class="icon-color-outline" fill="#303030" d="M266.878,577h-59.877c-5.523,0-10-4.477-10-10s4.477-10,10-10h59.877c5.523,0,10,4.477,10,10
	S272.401,577,266.878,577z"/>
<g>
	<rect x="71" y="519" class="icon-color-1" visibility="hidden"  width="48" height="48"/>
	<rect x="71" y="411" class="icon-color-1" visibility="hidden"  width="48" height="48"/>
</g>
<path class="icon-color-outline" fill="#303030" d="M370.243,180.001h-76.379C282.823,169.48,267.898,163,251.479,163h-8.76
	c-6.697-13.258-20.456-22-35.719-22s-29.021,8.742-35.719,22H162.5c-16.419,0-31.343,6.48-42.384,17.001H43.759
	c-26.885,0-48.758,21.873-48.758,48.758v375.484c0,26.885,21.873,48.758,48.758,48.758h326.483
	c26.885,0,48.758-21.873,48.758-48.758V228.759C419.001,201.874,397.128,180.001,370.243,180.001z M162.501,183h15.586
	c4.498,0,8.442-3.003,9.639-7.338c2.385-8.633,10.311-14.662,19.275-14.662c8.964,0,16.89,6.029,19.274,14.662
	c1.197,4.335,5.142,7.338,9.639,7.338h15.565c21.705,0,39.571,16.75,41.354,38.001H121.147C122.93,199.75,140.797,183,162.501,183z
	 M399.001,604.244c0,15.857-12.901,28.758-28.758,28.758H43.759c-15.857,0-28.758-12.901-28.758-28.758V228.759
	c0-15.857,12.901-28.758,28.758-28.758h62.347c-3.276,7.512-5.105,15.794-5.105,24.5v6.5c0,5.523,4.477,10,10,10H302.98
	c5.523,0,10-4.477,10-10v-6.5c0-8.705-1.829-16.988-5.105-24.5h62.368c15.857,0,28.758,12.901,28.758,28.758V604.244z"/>
<path class="icon-color-outline" fill="#303030" d="M129.268,290.595l-42.762,42.763l-13.173-13.174c-3.905-3.904-10.237-3.904-14.143,0
	c-3.905,3.905-3.905,10.237,0,14.143l20.245,20.245c1.953,1.953,4.512,2.929,7.071,2.929s5.119-0.976,7.071-2.929l49.833-49.833
	c3.905-3.905,3.905-10.237,0-14.143C139.505,286.691,133.173,286.691,129.268,290.595z"/>
<path class="icon-color-outline" fill="#303030" d="M119.001,509h-48c-5.523,0-10,4.477-10,10v48c0,5.523,4.477,10,10,10h48c5.523,0,10-4.477,10-10v-48
	C129.001,513.477,124.524,509,119.001,509z M109.001,557h-28v-28h28V557z"/>
<path class="icon-color-outline" fill="#303030" d="M119.001,401h-48c-5.523,0-10,4.477-10,10v48c0,5.523,4.477,10,10,10h48c5.523,0,10-4.477,10-10v-48
	C129.001,405.477,124.524,401,119.001,401z M109.001,449h-28v-28h28V449z"/>
</svg>
