<?xml version="1.0" standalone="no"?>
<!DOCTYPE svg PUBLIC "-//W3C//DTD SVG 1.1//EN" "http://www.w3.org/Graphics/SVG/1.1/DTD/svg11.dtd" >
<svg xmlns="http://www.w3.org/2000/svg">
<metadata>Generated by IcoMoon</metadata>
<defs>
<font id="ideabubble" horiz-adv-x="1024">
<font-face units-per-em="1024" ascent="960" descent="-64" />
<missing-glyph horiz-adv-x="1024" />
<glyph unicode="&#x20;" horiz-adv-x="512" d="" />
<glyph unicode="&#xe900;" glyph-name="accounts" horiz-adv-x="817" d="M461.991 783.777c0-97.325-78.898-176.223-176.223-176.223s-176.223 78.898-176.223 176.223c0 97.325 78.898 176.223 176.223 176.223s176.223-78.898 176.223-176.223zM233.377 297.972l50.009-59.535c-7.144-11.907-9.526-26.195-9.526-42.865h-269.098c-2.381 21.433-4.763 42.865-4.763 64.298 0 164.316 107.163 302.437 247.665 323.87l26.195-35.721-40.484-250.047zM473.898 502.772v-185.749c-4.763 0-11.907 0-16.67 0-45.247 0-85.73-9.526-116.688-26.195l7.144 9.526-42.865 242.902 26.195 35.721c54.772-9.526 104.781-35.721 142.884-76.205zM657.265 736.149c-92.874 0-159.553-42.865-159.553-100.019v-342.921c-11.907 2.381-26.195 2.381-40.484 2.381-92.874 0-159.553-40.484-159.553-100.019v-161.935c0-57.153 66.679-100.019 159.553-100.019s159.553 42.865 159.553 100.019v23.814c11.907-2.381 26.195-2.381 40.484-2.381 92.874 0 159.553 42.865 159.553 100.019v481.042c0 57.153-66.679 100.019-159.553 100.019zM457.228-25.898c-66.679 0-119.070 26.195-119.070 59.535 0 2.381 2.381 7.144 2.381 9.526 28.577-19.051 69.060-30.958 116.688-30.958s88.112 11.907 116.688 30.958c0-2.381 2.381-7.144 2.381-9.526 0-30.958-52.391-59.535-119.070-59.535zM457.228 55.070c-66.679 0-119.070 26.195-119.070 59.535 0 4.763 2.381 7.144 2.381 9.526 28.577-19.051 69.060-30.958 116.688-30.958s88.112 11.907 116.688 30.958c0-2.381 2.381-7.144 2.381-9.526 0-33.34-52.391-59.535-119.070-59.535zM457.228 136.037c-66.679 0-119.070 26.195-119.070 59.535v0c0 33.34 54.772 59.535 119.070 59.535 50.009 0 92.874-16.67 111.926-38.102 7.144-7.144 9.526-14.288 9.526-21.433-2.381-33.34-54.772-59.535-121.451-59.535zM657.265 95.553c-14.288 0-26.195 2.381-40.484 2.381v40.484c11.907-2.381 26.195-2.381 40.484-2.381 47.628 0 88.112 11.907 116.688 30.958 2.381-2.381 2.381-7.144 2.381-9.526 2.381-35.721-52.391-61.916-119.070-61.916zM657.265 176.521c-14.288 0-26.195 2.381-40.484 4.763v16.67c0 7.144-2.381 16.67-4.763 23.814 14.288-2.381 28.577-4.763 45.247-4.763 47.628 0 88.112 11.907 116.688 30.958 2.381-2.381 2.381-7.144 2.381-9.526 2.381-35.721-52.391-61.916-119.070-61.916zM657.265 255.107c-33.34 0-64.298 7.144-85.73 19.051s-33.34 26.195-33.34 40.484c0 2.381 2.381 7.144 2.381 9.526 7.144-4.763 16.67-9.526 26.195-14.288 26.195-9.526 57.153-16.67 90.493-16.67 47.628 0 88.112 11.907 116.688 30.958 2.381-4.763 2.381-7.144 2.381-9.526 2.381-33.34-52.391-59.535-119.070-59.535zM657.265 336.074c-42.865 0-80.967 11.907-102.4 28.577-11.907 9.526-19.051 19.051-19.051 30.958 0 2.381 2.381 7.144 2.381 9.526 28.577-19.051 69.060-30.958 116.688-30.958s88.112 11.907 116.688 30.958c2.381-2.381 2.381-7.144 2.381-9.526 4.763-33.34-50.009-59.535-116.688-59.535zM657.265 414.66c-66.679 0-119.070 26.195-119.070 59.535 0 4.763 2.381 7.144 2.381 9.526 28.577-19.051 69.060-30.958 116.688-30.958s88.112 11.907 116.688 30.958c2.381-2.381 2.381-7.144 2.381-9.526 2.381-30.958-52.391-59.535-119.070-59.535zM657.265 495.628c-66.679 0-119.070 26.195-119.070 59.535 0 4.763 2.381 7.144 2.381 9.526 28.577-19.051 69.060-30.958 116.688-30.958s88.112 11.907 116.688 30.958c2.381-2.381 2.381-7.144 2.381-9.526 2.381-33.34-52.391-59.535-119.070-59.535zM657.265 576.595c-66.679 0-119.070 26.195-119.070 59.535s54.772 59.535 119.070 59.535c66.679 0 121.451-26.195 121.451-59.535s-54.772-59.535-121.451-59.535z" />
<glyph unicode="&#xe901;" glyph-name="articles" horiz-adv-x="1362" d="M902.779 854.729c-51.040 0-98.891-6.38-143.551-19.14-79.751 76.561-197.782 124.411-331.763 124.411-236.062 0-427.464-146.741-427.464-331.763 0-146.741 124.411-271.153 296.673-312.623l-51.040-181.832 280.723 149.931c51.040-57.421 121.221-102.081 207.352-127.601l-63.801-223.302 433.844 232.872c159.502 60.611 255.202 185.022 255.202 325.383 3.19 204.162-204.162 363.664-456.174 363.664zM1081.421 229.483l-309.433-165.882 38.28 140.361-31.9 6.38c-79.751 19.14-146.741 57.421-194.592 105.271l31.9 15.95c140.361 54.231 239.252 165.882 239.252 296.673 0 54.231-19.14 108.461-47.85 153.121 31.9 6.38 63.801 9.57 95.701 9.57 216.922 0 395.564-133.981 395.564-299.863 0-108.461-82.941-210.542-216.922-261.583z" />
<glyph unicode="&#xe902;" glyph-name="bookings" horiz-adv-x="1067" d="M1034.667 874.667h-181.333v-116.267c0-5.333-4.267-11.733-10.667-11.733h-149.333c-5.333 0-10.667 5.333-10.667 11.733v116.267h-298.667v-116.267c0-5.333-4.267-11.733-10.667-11.733h-149.333c-5.333 0-10.667 5.333-10.667 11.733v116.267h-181.333c-17.067 0-32-13.867-32-32v-874.667c0-18.133 13.867-32 32-32h1002.667c17.067 0 32 14.933 32 32v874.667c0 18.133-13.867 32-32 32zM202.667-10.667h-128c-11.733 0-21.333 9.6-21.333 21.333v149.333h149.333v-170.667zM202.667 213.333h-149.333v170.667h149.333v-170.667zM202.667 448h-149.333v170.667h149.333v-170.667zM405.333-10.667h-149.333v170.667h149.333v-170.667zM405.333 213.333h-149.333v170.667h149.333v-170.667zM405.333 448h-149.333v170.667h149.333v-170.667zM608-10.667h-149.333v170.667h149.333v-170.667zM608 448h-149.333v170.667h149.333v-170.667zM810.667-10.667h-149.333v170.667h149.333v-170.667zM810.667 213.333h-149.333v170.667h149.333v-170.667zM810.667 448h-149.333v170.667h149.333v-170.667zM1013.333 10.667c0-11.733-9.6-21.333-21.333-21.333h-128v170.667h149.333v-149.333zM1013.333 213.333h-149.333v170.667h149.333v-170.667zM1013.333 448h-149.333v170.667h149.333v-170.667zM288 789.333h21.333c18.133 0 32 13.867 32 32v106.667c0 18.133-13.867 32-32 32h-21.333c-18.133 0-32-13.867-32-32v-106.667c0-18.133 13.867-32 32-32zM768 789.333c23.467 0 42.667 19.2 42.667 42.667v85.333c0 23.467-19.2 42.667-42.667 42.667s-42.667-19.2-42.667-42.667v-85.333c0-23.467 19.2-42.667 42.667-42.667z" />
<glyph unicode="&#xe903;" glyph-name="claims" horiz-adv-x="1147" d="M1131.789 113.083l-454.256 781.474c-3.85 11.549-11.549 23.098-23.098 30.797-46.195 46.195-119.338 46.195-165.534 0-7.699-7.699-15.398-19.248-19.248-26.947v0l-450.406-781.474c-7.699-11.549-11.549-23.098-15.398-34.647-15.398-61.594 19.248-127.038 80.842-142.436 11.549-3.85 23.098-3.85 34.647-3.85h904.662c42.346-3.85 84.692 19.248 107.789 57.744s19.248 84.692 0 119.338zM627.489 109.233c-15.398-15.398-34.647-23.098-53.895-23.098s-38.496 7.699-53.895 23.098c-15.398 15.398-23.098 30.797-23.098 53.895 0 19.248 7.699 38.496 23.098 53.895s34.647 23.098 53.895 23.098c19.248 0 38.496-7.699 53.895-23.098s23.098-34.647 23.098-53.895c0-23.098-7.699-38.496-23.098-53.895zM646.737 567.338c-3.85-19.248-7.699-38.496-15.398-65.444-3.85-23.098-11.549-53.895-19.248-88.541s-15.398-76.992-23.098-127.038h-30.797c-7.699 50.045-15.398 96.241-23.098 127.038-7.699 34.647-15.398 61.594-19.248 84.692s-11.549 42.346-15.398 61.594c-3.85 19.248-7.699 34.647-7.699 46.195 0 19.248 7.699 38.496 23.098 53.895s34.647 23.098 53.895 23.098c23.098 0 38.496-7.699 53.895-23.098s23.098-30.797 23.098-53.895c3.85-7.699 3.85-23.098 0-38.496z" />
<glyph unicode="&#xe904;" glyph-name="contacts" horiz-adv-x="869" d="M825.191 960h-743.489c-5.447 0-10.894 0-16.34-2.723-16.34-8.17-27.234-21.787-27.234-40.851v-32.681h-10.894c-16.34 0-27.234-10.894-27.234-24.511s13.617-24.511 27.234-24.511h10.894v-40.851h-10.894c-16.34 0-27.234-10.894-27.234-24.511 0-16.34 13.617-27.234 27.234-27.234h10.894v-40.851h-10.894c-16.34 0-27.234-10.894-27.234-24.511s13.617-24.511 27.234-24.511h10.894v-40.851h-10.894c-16.34 0-27.234-10.894-27.234-24.511s13.617-24.511 27.234-24.511h10.894v-40.851h-10.894c-16.34 0-27.234-10.894-27.234-24.511 0-16.34 13.617-27.234 27.234-27.234h10.894v-40.851h-10.894c-16.34 0-27.234-10.894-27.234-24.511s13.617-24.511 27.234-24.511h10.894v-40.851h-10.894c-16.34 0-27.234-10.894-27.234-24.511s13.617-24.511 27.234-24.511h10.894v-40.851h-10.894c-16.34 0-27.234-10.894-27.234-24.511s13.617-24.511 27.234-24.511h10.894v-40.851h-10.894c-16.34 0-27.234-10.894-27.234-24.511s13.617-24.511 27.234-24.511h10.894v-40.851h-10.894c-16.34 0-27.234-10.894-27.234-24.511s13.617-24.511 27.234-24.511h10.894v-40.851c0-24.511 19.064-43.574 43.574-43.574h743.489c5.447 0 10.894 0 16.34 2.723 16.34 8.17 27.234 21.787 27.234 40.851v936.851c0 24.511-19.064 43.574-43.574 43.574zM841.532-20.426c0-5.447-2.723-10.894-10.894-13.617-2.723 0-2.723 0-5.447 0h-743.489c-8.17 0-16.34 8.17-16.34 16.34v32.681h29.957c16.34 0 27.234 10.894 27.234 24.511s-13.617 24.511-27.234 24.511h-29.957v40.851h29.957c16.34 0 27.234 10.894 27.234 24.511s-13.617 24.511-27.234 24.511h-29.957v40.851h29.957c16.34 0 27.234 10.894 27.234 24.511s-13.617 24.511-27.234 24.511h-29.957v40.851h29.957c16.34 0 27.234 10.894 27.234 24.511s-13.617 24.511-27.234 24.511h-29.957v40.851h29.957c16.34 0 27.234 10.894 27.234 24.511s-13.617 24.511-27.234 24.511h-29.957v46.298h29.957c16.34 0 27.234 10.894 27.234 24.511s-13.617 24.511-27.234 24.511h-29.957v40.851h29.957c16.34 0 27.234 10.894 27.234 24.511s-13.617 24.511-27.234 24.511h-29.957v40.851h29.957c16.34 0 27.234 10.894 27.234 24.511s-13.617 24.511-27.234 24.511h-29.957v43.574h29.957c16.34 0 27.234 10.894 27.234 24.511s-13.617 24.511-27.234 24.511h-29.957v43.574h29.957c16.34 0 27.234 10.894 27.234 24.511s-13.617 24.511-27.234 24.511h-29.957v32.681c0 5.447 2.723 10.894 10.894 13.617 0 2.723 2.723 2.723 5.447 2.723h743.489c8.17 0 16.34-8.17 16.34-16.34v-936.851zM550.128 592.34c0-51.139-41.457-92.596-92.596-92.596s-92.596 41.457-92.596 92.596c0 51.139 41.457 92.596 92.596 92.596s92.596-41.457 92.596-92.596zM517.447 480.681l-59.915-68.085-57.191 68.085c-62.638-27.234-106.213-95.319-106.213-177.021 0-10.894 0-21.787 2.723-32.681 35.404-43.574 92.596-73.532 160.681-73.532s128 29.957 160.681 73.532c2.723 10.894 2.723 21.787 2.723 32.681 0 81.702-43.574 149.787-103.489 177.021z" />
<glyph unicode="&#xe905;" glyph-name="courses" horiz-adv-x="937" d="M219.659 271.95c0 25.842-22.612 48.454-48.454 48.454h-122.751c-25.842 0-48.454-22.612-48.454-48.454s22.612-48.454 48.454-48.454h119.521c29.073 0 51.685 22.612 51.685 48.454zM48.454 572.366h119.521c25.842 0 48.454 22.612 48.454 48.454s-22.612 48.454-48.454 48.454h-119.521c-25.842 3.23-48.454-19.382-48.454-48.454 0-25.842 22.612-48.454 48.454-48.454zM814.032 960h-597.603c-67.836 0-122.751-54.915-122.751-122.751v-116.29h74.297c54.915 0 96.909-45.224 96.909-96.909 0-54.915-45.224-96.909-96.909-96.909h-74.297v-155.054h74.297c54.915 0 96.909-45.224 96.909-96.909 0-54.915-45.224-96.909-96.909-96.909h-74.297v-116.29c0-67.836 54.915-122.751 122.751-122.751h597.603c67.836 0 122.751 54.915 122.751 122.751v775.268c0 67.836-54.915 122.751-122.751 122.751zM752.656 288.101l-145.363 155.054-145.363-155.054v613.754h290.726v-613.754z" />
<glyph unicode="&#xe906;" glyph-name="domains" d="M65.536 370.176c0 0 0-4.096 0-4.096 0 4.096 0 4.096 0 4.096v0zM65.536 366.080c0 0 0-4.096 0-4.096s0 0 0 0 0 4.096 0 4.096zM65.536 374.272v0c0 0 0 4.096 0 4.096s0-4.096 0-4.096zM245.76 79.36c-36.864 24.576-65.536 57.344-94.208 94.208 28.672-36.864 57.344-65.536 94.208-94.208 0 0 0 0 0 0zM65.536 366.080c0 0 0 4.096 0 8.192 0-4.096 0-8.192 0-8.192 0-4.096 0 0 0 0zM512 960c-282.624 0-512-229.376-512-512s229.376-512 512-512c282.624 0 512 229.376 512 512s-229.376 512-512 512zM245.76 83.456c-36.864 24.576-65.536 53.248-94.208 90.112 0 0-4.096 4.096-4.096 4.096-36.864 49.152-65.536 106.496-77.824 167.936 0 4.096 0 8.192-4.096 16.384 0 0 0 0 0 0s0 4.096 0 4.096c0 0 0 4.096 0 4.096s0 0 0 0v0c0-4.096 0-4.096 0-8.192 0-8.192 4.096-16.384 4.096-20.48 0 0 0-4.096 0-4.096 0-4.096 0-4.096 4.096-8.192 0 0 0-4.096 0-4.096 8.192-16.384 20.48-20.48 32.768-32.768 40.96-32.768 45.056-90.112 73.728-126.976 12.288-16.384 24.576-28.672 32.768-40.96 16.384-12.288 20.48-24.576 32.768-40.96v0c4.096-4.096 0 0 0 0zM581.632-2.56c-20.48-4.096-45.056-4.096-69.632-4.096-73.728 0-143.36 16.384-204.8 49.152-16.384 20.48-32.768 32.768-32.768 61.44-4.096 24.576-4.096 77.824 8.192 98.304 12.288 16.384 20.48 12.288 20.48 36.864v40.96c4.096 28.672 20.48 61.44 12.288 90.112-4.096 20.48-20.48 16.384-36.864 24.576s-28.672 16.384-49.152 24.576c-16.384 4.096-32.768 16.384-40.96 32.768-4.096 8.192-4.096 20.48-12.288 32.768-4.096 4.096-12.288 8.192-16.384 16.384-12.288 16.384-12.288 20.48-28.672 24.576s-32.768 12.288-49.152 4.096c-8.192-4.096-8.192-8.192-16.384-4.096 16.384 106.496 73.728 200.704 155.648 270.336 77.824 69.632 180.224 110.592 290.816 110.592 40.96 0 77.824-4.096 114.688-16.384-4.096-20.48 4.096-24.576-20.48-32.768-12.288-4.096-28.672 4.096-40.96-8.192-20.48-16.384 4.096-24.576 0-40.96 0-20.48-20.48-8.192-32.768-12.288-24.576 0-24.576-28.672-4.096-40.96 40.96-20.48 94.208 20.48 135.168 20.48 20.48 0 77.824 8.192 90.112-12.288 8.192-16.384 0-40.96-16.384-45.056-24.576-8.192-53.248 8.192-77.824 12.288-28.672 4.096-57.344 8.192-86.016 4.096-45.056-4.096-65.536-20.48-86.016-61.44-12.288-32.768-16.384-73.728-12.288-106.496 4.096-45.056 45.056-73.728 86.016-81.92 16.384-4.096 36.864 0 53.248-8.192 24.576-16.384 36.864-45.056 49.152-69.632 20.48-45.056 32.768-86.016 32.768-139.264 0-24.576-4.096-53.248-4.096-77.824 4.096-61.44 77.824-69.632 102.4-20.48 20.48 32.768 36.864 65.536 53.248 102.4 20.48 36.864 24.576 73.728 32.768 114.688 4.096 28.672 8.192 57.344 16.384 81.92 4.096 12.288 12.288 28.672 12.288 40.96 0 16.384-8.192 20.48-20.48 32.768-24.576 20.48-53.248 40.96-73.728 65.536-12.288 12.288-49.152 61.44-20.48 73.728 40.96-20.48 65.536-69.632 106.496-90.112 24.576-12.288 32.768 4.096 36.864 28.672 20.48-53.248 32.768-110.592 32.768-167.936-4.096-233.472-172.032-421.888-389.12-454.656z" />
<glyph unicode="&#xe907;" glyph-name="donations" horiz-adv-x="1310" d="M795.386 88.409c-33.34-14.288-71.442-23.814-114.307-33.34s-90.493-14.288-142.884-14.288c-57.153 0-114.307 0-171.46 9.526-52.391 9.526-100.019 19.051-138.121 33.34s-71.442 33.34-90.493 52.391c-19.051 19.051-33.34 38.102-33.34 61.916l4.763-95.256c0-23.814 9.526-42.865 33.34-61.916 19.051-19.051 52.391-38.102 90.493-52.391s85.73-28.577 138.121-38.102c52.391-9.526 109.544-9.526 166.698-9.526 52.391 0 100.019 4.763 142.884 14.288s80.967 19.051 109.544 33.34c28.577 14.288 57.153 28.577 71.442 47.628s23.814 33.34 28.577 52.391l4.763 95.256c0-19.051-9.526-33.34-28.577-52.391-14.288-14.288-38.102-28.577-71.442-42.865zM166.698 788.54c14.288-19.051 42.865-28.577 76.205-42.865 33.34-9.526 71.442-19.051 114.307-28.577 42.865-4.763 90.493-9.526 138.121-4.763 47.628 0 95.256 9.526 133.358 14.288 38.102 9.526 71.442 19.051 100.019 33.34 23.814 14.288 42.865 28.577 52.391 42.865s9.526 33.34 0 47.628c-9.526 14.288-23.814 33.34-47.628 42.865-23.814 14.288-47.628 23.814-80.967 33.34-28.577 9.526-66.679 14.288-104.781 19.051-33.34 14.288-71.442 14.288-114.307 14.288-38.102 0-76.205-4.763-109.544-9.526-38.102-9.526-71.442-19.051-95.256-28.577-28.577-9.526-47.628-23.814-66.679-38.102-14.288-14.288-23.814-28.577-23.814-47.628 0-14.288 9.526-33.34 28.577-47.628zM1190.698-11.609c-19.051 9.526-38.102 19.051-57.153 38.102s-38.102 42.865-57.153 71.442c-19.051 28.577-38.102 61.916-57.153 100.019-19.051 42.865-33.34 85.73-42.865 128.595s-14.288 80.967-19.051 114.307c0 33.34 0 61.916 9.526 85.73 9.526 19.051 19.051 38.102 33.34 42.865l-71.442-33.34 4.763 80.967c0-14.288-9.526-28.577-23.814-42.865-4.763-4.763-23.814-19.051-52.391-28.577-23.814-9.526-57.153-19.051-90.493-23.814-38.102-4.763-76.205-9.526-119.070-9.526-47.628 0-95.256 4.763-138.121 9.526-47.628 0-85.73 14.288-114.307 23.814-33.34 14.288-61.916 28.577-76.205 42.865-14.288 9.526-19.051 19.051-23.814 33.34 4.763 0 9.526 0 9.526-4.763 4.763-4.763 4.763-4.763 9.526-9.526 19.051-14.288 47.628-28.577 76.205-42.865 33.34-9.526 71.442-19.051 114.307-28.577 47.628-4.763 95.256-4.763 142.884-4.763s95.256 9.526 133.358 14.288c38.102 9.526 71.442 19.051 100.019 33.34 23.814 19.051 38.102 33.34 47.628 47.628s9.526 33.34 0 47.628c-9.526 14.288-23.814 33.34-47.628 42.865-23.814 14.288-47.628 23.814-80.967 33.34-4.763 0-14.288 4.763-23.814 4.763v47.628c0-14.288-9.526-28.577-23.814-42.865s-33.34-23.814-57.153-38.102c-23.814-9.526-57.153-19.051-90.493-28.577-38.102-4.763-76.205-9.526-119.070-14.288-47.628 0-95.256 0-138.121 4.763-33.34 14.288-71.442 23.814-104.781 38.102-33.34 9.526-61.916 23.814-76.205 42.865-19.051 14.288-28.577 33.34-28.577 47.628l4.763-80.967c0-19.051 9.526-33.34 23.814-47.628-23.814-4.763-38.102-9.526-57.153-19.051-33.34-14.288-61.916-28.577-76.205-42.865-23.814-19.051-33.34-38.102-33.34-61.916 0-19.051 9.526-42.865 33.34-61.916s52.391-38.102 90.493-52.391c38.102-14.288 85.73-23.814 138.121-33.34s109.544-9.526 171.46-9.526c47.628 0 90.493 4.763 133.358 14.288 23.814 0 52.391-4.763 76.205-4.763-19.051-4.763-42.865-14.288-61.916-19.051-42.865-9.526-90.493-14.288-142.884-19.051-57.153-4.763-114.307 0-171.46 4.763-52.391 4.763-100.019 19.051-138.121 33.34s-71.442 28.577-90.493 47.628c-23.814 33.34-38.102 52.391-38.102 76.205l4.763-95.256c0-23.814 14.288-42.865 33.34-61.916 23.814-19.051 52.391-38.102 90.493-52.391 14.288-4.763 28.577-9.526 42.865-14.288-9.526-9.526-19.051-19.051-28.577-28.577-19.051-19.051-28.577-38.102-28.577-57.153s9.526-42.865 33.34-61.916c23.814-19.051 52.391-38.102 90.493-52.391s85.73-23.814 138.121-33.34c52.391-9.526 109.544-9.526 171.46-9.526 57.153 0 114.307 9.526 161.935 19.051s85.73 23.814 119.070 42.865c28.577 14.288 52.391 33.34 61.916 52.391 0 0 0 0 0 0s0 0 4.763 0c14.288 4.763 28.577 14.288 38.102 19.051 4.763-14.288 9.526-23.814 14.288-38.102 19.051-38.102 33.34-71.442 57.153-100.019 19.051-28.577 38.102-52.391 57.153-71.442s38.102-33.34 57.153-38.102c19.051-4.763 33.34-9.526 47.628-4.763l76.205 23.814c-19.051 9.526-33.34 9.526-52.391 14.288zM895.405 293.209c-33.34-14.288-66.679-23.814-109.544-33.34s-90.493-14.288-142.884-14.288c-57.153 0-114.307 0-171.46 9.526-47.628 4.763-90.493 19.051-128.595 28.577 28.577 0 61.916 0 90.493 0 9.526 0 23.814-4.763 38.102-4.763 52.391-9.526 109.544-9.526 171.46-9.526 57.153 0 114.307 9.526 161.935 19.051 38.102 9.526 71.442 19.051 95.256 28.577 0-4.763 0-9.526 4.763-19.051 0 0 0-4.763 0-4.763-4.763 4.763-9.526 4.763-9.526 0zM1305.005 155.088c-4.763 33.34-9.526 66.679-19.051 100.019s-23.814 71.442-38.102 109.544c-14.288 38.102-33.34 71.442-52.391 100.019s-38.102 57.153-57.153 76.205c-19.051 19.051-38.102 38.102-57.153 42.865-19.051 9.526-38.102 9.526-52.391 4.763-14.288-9.526-28.577-23.814-33.34-42.865-9.526-23.814-9.526-52.391-9.526-85.73s4.763-71.442 19.051-114.307c9.526-42.865 23.814-85.73 42.865-128.595s42.865-80.967 61.916-114.307c23.814-33.34 42.865-57.153 66.679-76.205 19.051-19.051 42.865-28.577 61.916-33.34s33.34 4.763 47.628 14.288c14.288 14.288 19.051 33.34 23.814 57.153 0 28.577 0 57.153-4.763 90.493z" />
<glyph unicode="&#xe908;" glyph-name="EDocuments" horiz-adv-x="1267" d="M1057.959 829.388h-527.673c-7.837 0-13.061 5.224-13.061 13.061v73.143c0 23.51-18.286 39.184-39.184 39.184h-232.49c-23.51 0-39.184-18.286-39.184-39.184v-78.367c0-7.837-5.224-13.061-13.061-13.061-20.898 0-39.184-18.286-39.184-39.184v-692.245c0-20.898 18.286-39.184 39.184-39.184h114.939v-88.816c0-15.673 13.061-28.735 28.735-28.735h488.49c15.673 0 28.735 13.061 28.735 28.735v49.633h107.102c15.673 0 28.735 13.061 28.735 28.735v10.449h70.531c23.51 0 39.184 18.286 39.184 39.184v697.469c0 20.898-18.286 39.184-41.796 39.184zM830.694-35.265c0-5.224-2.612-10.449-10.449-10.449h-485.878c-7.837 0-10.449 5.224-10.449 10.449v613.878c0 7.837 2.612 10.449 10.449 10.449h336.98l7.837-7.837-2.612-128c0-10.449 7.837-20.898 20.898-20.898l122.776 7.837 13.061-13.061-2.612-462.367zM969.143 43.102c0-5.224-5.224-10.449-10.449-10.449h-104.49v404.898l-169.796 169.796h-222.041v49.633c0 7.837 2.612 10.449 10.449 10.449h336.98l7.837-7.837-2.612-128c0-10.449 7.837-20.898 20.898-20.898l122.776 7.837 13.061-13.061-2.612-462.367zM1073.633 92.735c0-7.837-5.224-13.061-13.061-13.061h-70.531v436.245l-169.796 169.796h-350.041c-15.673 0-28.735-13.061-28.735-28.735v-49.633h-107.102c-15.673 0-28.735-13.061-28.735-28.735v-498.939h-114.939c-7.837 0-13.061 5.224-13.061 13.061v692.245c0 7.837 5.224 13.061 13.061 13.061 23.51 0 39.184 18.286 39.184 39.184v78.367c0 7.837 7.837 13.061 13.061 13.061h229.878c7.837 0 13.061-5.224 13.061-13.061v-73.143c0-20.898 18.286-39.184 39.184-39.184h527.673c7.837 0 13.061-5.224 13.061-13.061v-697.469h7.837zM1060.571 790.204v-694.857h-57.469v425.796l-175.020 175.020-5.224 2.612h-352.653c-23.51 0-41.796-18.286-41.796-41.796v-36.571h-94.041c-23.51 0-41.796-18.286-41.796-41.796v-485.878h-101.878v692.245c28.735 0 52.245 23.51 52.245 52.245v78.367h229.878v-73.143c0-28.735 23.51-52.245 52.245-52.245h535.51z" />
<glyph unicode="&#xe909;" glyph-name="extra" horiz-adv-x="1086" d="M1086.15 761.711v0c0 29.595-20.717 50.312-47.353 50.312h-618.543v79.908c0 35.514-26.636 68.069-59.191 68.069h-236.763c-32.555 0-59.191-29.595-59.191-68.069v-79.908h-17.757c-26.636 0-47.353-20.717-47.353-47.353v-778.358c0-26.636 23.676-50.312 50.312-50.312h985.526c26.636 0 50.312 23.676 50.312 50.312v775.399c0 0 0 0 0 0zM1056.555-13.688c0-11.838-8.879-20.717-20.717-20.717h-985.526c-11.838 0-20.717 8.879-20.717 20.717v772.439c0 11.838 8.879 20.717 20.717 20.717h47.353v112.462c0 20.717 11.838 38.474 29.595 38.474h236.763c14.798 0 29.595-17.757 29.595-38.474v-112.462h642.22c11.838 0 20.717-8.879 20.717-20.717v-772.439zM526.798 480.555h29.595v-242.682h-29.595v242.682zM422.030 342.936v29.595h242.682v-29.595h-242.682z" />
<glyph unicode="&#xe90a;" glyph-name="files" horiz-adv-x="1086" d="M1086.15 761.711v0c0 29.595-20.717 50.312-47.353 50.312h-618.543v79.908c0 35.514-26.636 68.069-59.191 68.069h-236.763c-32.555 0-59.191-29.595-59.191-68.069v-79.908h-17.757c-26.636 0-47.353-20.717-47.353-47.353v-778.358c0-26.636 23.676-50.312 50.312-50.312h985.526c26.636 0 50.312 23.676 50.312 50.312v775.399zM1056.555-13.688c0-11.838-8.879-20.717-20.717-20.717h-985.526c-11.838 0-20.717 8.879-20.717 20.717v772.439c0 11.838 8.879 20.717 20.717 20.717h47.353v112.462c0 20.717 11.838 38.474 29.595 38.474h236.763c14.798 0 29.595-17.757 29.595-38.474v-112.462h642.22c11.838 0 20.717-8.879 20.717-20.717v-772.439zM642.22 723.237h-337.387c-14.798 0-29.595-11.838-29.595-29.595v-594.867c0-14.798 11.838-29.595 29.595-29.595h473.526c14.798 0 29.595 11.838 29.595 29.595v458.728l-165.734 165.734zM790.197 98.775c0-5.919-2.96-11.838-11.838-11.838h-473.526c-5.919 0-11.838 5.919-11.838 11.838v594.867c0 5.919 2.96 11.838 11.838 11.838h328.509l5.919-5.919-2.96-124.301c0-11.838 8.879-20.717 20.717-20.717l118.382 5.919 11.838-11.838v-449.85z" />
<glyph unicode="&#xe90b;" glyph-name="gallery" horiz-adv-x="1210" d="M243.029 960l-43.691-237.568h-199.339v-745.472c0-5.461 0-10.923 2.731-16.384 8.192-16.384 21.845-27.307 38.229-27.307h901.12c24.576 0 40.96 19.115 40.96 43.691v40.96l38.229-8.192c2.731 0 5.461 0 8.192 0 8.192 0 16.384 2.731 24.576 8.192s16.384 16.384 19.115 27.307l136.533 731.819-966.656 182.955zM1037.653 39.765c-2.731-2.731-8.192-2.731-10.923-2.731l-43.691 8.192v68.267h5.461l111.957 589.824-783.701 147.456-24.576-125.611h-65.536l38.229 204.8 914.773-172.032-131.072-704.512c-2.731-5.461-5.461-10.923-10.923-13.653zM955.733 23.381v-43.691c0-8.192-5.461-16.384-13.653-16.384h-901.12c-5.461 0-10.923 2.731-13.653 10.923 0 2.731 0 5.461 0 5.461v715.435h928.427v-671.744zM207.531 629.589h-114.688v-600.747h797.355v600.747h-682.667zM395.947 517.632c35.499 54.613 141.995 65.536 210.261 65.536 111.957 0 185.685-92.843 212.992-202.069 32.768-131.072-30.037-191.147-111.957-212.992-21.845-5.461-43.691-10.923-65.536-10.923 0-13.653-2.731-30.037-2.731-43.691 0-5.461 0-8.192-2.731-13.653 0-5.461-2.731-8.192-2.731-13.653-2.731-10.923-5.461-19.115-8.192-24.576h-49.152c5.461 10.923 10.923 21.845 16.384 32.768 2.731 2.731 5.461 8.192 5.461 13.653 2.731 5.461 2.731 8.192 5.461 13.653 5.461 10.923 8.192 24.576 10.923 35.499-2.731 0-8.192 0-10.923 0-30.037 0-172.032-51.883-234.837 62.805-2.731 2.731-2.731 8.192-5.461 13.653-13.653 38.229-27.307 117.419-27.307 147.456 5.461 38.229 38.229 103.765 60.075 136.533z" />
<glyph unicode="&#xe90c;" glyph-name="help" d="M513.585 960c-282.155 0-513.585-231.43-513.585-513.585s231.43-513.585 513.585-513.585c282.155 0 513.585 231.43 513.585 513.585-3.17 282.155-231.43 513.585-513.585 513.585zM529.437 135.728c-12.681-12.681-25.362-19.022-44.384-19.022-15.851 0-31.703 6.341-41.214 19.022-12.681 12.681-15.851 25.362-15.851 44.384s6.341 31.703 15.851 44.384c12.681 12.681 25.362 15.851 44.384 15.851s31.703-6.341 44.384-15.851c9.511-12.681 15.851-25.362 15.851-44.384-3.17-19.022-6.341-34.873-19.022-44.384zM649.907 566.885c-9.511-22.192-31.703-53.895-69.746-95.108-22.192-25.362-34.873-47.554-44.384-66.576-9.511-22.192-12.681-44.384-12.681-69.746v-25.362h-79.257c0 22.192-3.17 34.873-3.17 41.214 0 50.724 19.022 101.449 60.235 145.833 25.362 31.703 44.384 57.065 53.895 76.087s12.681 34.873 12.681 50.724c0 25.362-9.511 44.384-25.362 60.235-6.341 15.851-28.533 22.192-57.065 22.192-41.214 0-72.916-9.511-101.449-31.703l-25.362 63.406c41.214 25.362 88.768 41.214 142.663 41.214 50.724 0 91.938-12.681 120.471-41.214 28.533-25.362 44.384-60.235 44.384-101.449 0-22.192-6.341-44.384-15.851-69.746z" />
<glyph unicode="&#xe90d;" glyph-name="locations" horiz-adv-x="602" d="M300.8 960c-166.4 0-300.8-140.8-300.8-313.6 0-54.4 9.6-92.8 25.6-131.2 3.2-3.2 3.2-9.6 6.4-9.6v0l268.8-569.6 262.4 553.6c3.2 6.4 6.4 12.8 9.6 22.4 16 38.4 28.8 80 28.8 137.6 0 169.6-134.4 310.4-300.8 310.4zM297.6 569.6c-51.2 0-92.8 41.6-92.8 92.8s41.6 92.8 92.8 92.8c51.2 0 92.8-41.6 92.8-92.8s-41.6-92.8-92.8-92.8z" />
<glyph unicode="&#xe90e;" glyph-name="logins" horiz-adv-x="791" d="M695.846 544.865v118.61c0 162.1-134.425 296.525-296.525 296.525-166.054 0-296.525-134.425-296.525-296.525v-118.61c-59.305-7.907-102.795-55.351-102.795-114.656v-379.552c0-63.259 51.398-114.656 114.656-114.656h561.421c63.259 0 114.656 51.398 114.656 114.656v379.552c0 55.351-43.49 102.795-94.888 114.656zM426.996 141.591h-86.981c-11.861 0-23.722 11.861-23.722 23.722l23.722 79.073c0 0 0 0 0 3.954-11.861 11.861-19.768 27.676-19.768 47.444 0 35.583 27.676 63.259 63.259 63.259s63.259-27.676 63.259-63.259c0-19.768-7.907-35.583-19.768-47.444 0 0 0 0 0-3.954l23.722-79.073c0-15.815-11.861-23.722-23.722-23.722zM632.587 544.865h-466.533v118.61c0 63.259 27.676 122.564 67.212 166.054 43.49 39.537 102.795 67.212 166.054 67.212s122.564-27.676 166.054-67.212c39.537-43.49 67.212-102.795 67.212-166.054v-118.61z" />
<glyph unicode="&#xe90f;" glyph-name="media" horiz-adv-x="1267" d="M470.204 53.551h167.184v26.122h-151.51c-5.224-10.449-10.449-18.286-15.673-26.122zM245.551 450.612c-26.122 0-49.633-5.224-73.143-10.449-7.837-2.612-18.286-5.224-26.122-10.449-86.204-39.184-146.286-125.388-146.286-224.653 0-135.837 109.714-245.551 245.551-245.551 78.367 0 146.286 36.571 193.306 94.041 5.224 7.837 13.061 15.673 18.286 26.122 20.898 36.571 33.959 78.367 33.959 125.388 0 133.224-112.327 245.551-245.551 245.551zM404.898 178.939l-109.714-62.694-62.694-36.571-41.796-23.51c0 0-2.612 0-2.612-2.612-23.51-10.449-44.408 7.837-44.408 26.122v248.163c0 5.224 0 7.837 2.612 10.449 5.224 13.061 15.673 20.898 26.122 20.898 5.224 0 10.449 0 15.673-2.612l109.714-62.694 104.49-60.082c23.51-15.673 20.898-44.408 2.612-54.857zM169.796 787.592c0 7.837 7.837 15.673 15.673 15.673h44.408v96.653c0 18.286 10.449 33.959 26.122 33.959h208.98c13.061 0 26.122-15.673 26.122-33.959v-96.653h569.469c7.837 0 15.673-7.837 15.673-15.673v-397.061c13.061-2.612 20.898-2.612 23.51-5.224 0 0 2.612 0 2.612 0v402.286c0 23.51-18.286 41.796-41.796 41.796h-545.959v70.531c0 31.347-23.51 60.082-52.245 60.082h-208.98c-28.735 0-52.245-26.122-52.245-60.082v-70.531h-15.673c-23.51 0-41.796-18.286-41.796-41.796v-331.755c7.837 2.612 18.286 7.837 26.122 7.837v323.918zM1165.061 92.735c0 73.143-54.857 133.224-125.388 141.061-5.224 0-10.449 0-15.673 0-7.837 0-15.673 0-20.898-2.612-60.082-10.449-107.102-57.469-117.551-117.551 0-7.837-2.612-13.061-2.612-20.898 0-5.224 0-10.449 0-15.673 7.837-70.531 67.918-125.388 141.061-125.388 78.367 0 141.061 62.694 141.061 141.061zM1024 3.918c-44.408 0-83.592 33.959-88.816 78.367v0 0c0 2.612 0 5.224 0 7.837 0 5.224 0 7.837 0 13.061v0 0c2.612 15.673 7.837 28.735 15.673 39.184 0 0 0 0 0 0l18.286 18.286c0 0 0 0 0 0 10.449 7.837 23.51 13.061 39.184 15.673v0 0c2.612 0 7.837 0 13.061 0 2.612 0 5.224 0 7.837 0v0 0c44.408-5.224 78.367-41.796 78.367-88.816 5.224-44.408-33.959-83.592-83.592-83.592zM1261.714 184.163c0 7.837 0 18.286-2.612 26.122-2.612 15.673-5.224 31.347-13.061 39.184 0 0 0 0 0 0 0 2.612 0 5.224-2.612 5.224-2.612 5.224-5.224 13.061-10.449 18.286-7.837 7.837-20.898 13.061-33.959 13.061v0c0 0-2.612 0-2.612 0-10.449 0-33.959 5.224-49.633 13.061-15.673 36.571-28.735 62.694-31.347 65.306-5.224 5.224-7.837 5.224-15.673 7.837 0 0 0 0 0 0-2.612 0-2.612 0-5.224 0 0 0 0 0 0 0s-2.612 0-2.612 0v0c0 0-2.612 0-2.612 0-2.612 0-7.837 2.612-13.061 2.612-13.061 2.612-31.347 2.612-52.245 2.612-36.571 0-70.531-5.224-73.143-7.837-10.449-2.612-15.673-5.224-20.898-10.449-2.612-2.612-15.673-28.735-31.347-67.918-5.224-2.612-10.449-5.224-18.286-7.837l-2.612 15.673c0 2.612 0 2.612-2.612 2.612 0 0 0 0 0 0s0 0-2.612 0l-96.653-10.449c-2.612 0-5.224-2.612-5.224-5.224l2.612-15.673c-18.286-2.612-33.959-2.612-36.571-2.612-28.735-2.612-44.408-10.449-52.245-20.898-20.898-10.449-20.898-23.51-20.898-28.735v-248.163c0-7.837 7.837-18.286 18.286-23.51 10.449-7.837 23.51-13.061 31.347-13.061h229.878c-20.898 10.449-36.571 23.51-52.245 41.796 0 0-2.612 2.612-2.612 2.612-2.612 2.612-2.612 5.224-5.224 7.837s-5.224 5.224-5.224 7.837c0 2.612-2.612 2.612-2.612 5.224-2.612 5.224-5.224 7.837-7.837 13.061 0 0 0 0 0 2.612-5.224 13.061-10.449 26.122-13.061 39.184-2.612 7.837-2.612 18.286-5.224 26.122 0 5.224 0 7.837 0 13.061 0 96.653 78.367 175.020 175.020 175.020 5.224 0 10.449 0 13.061 0 10.449 0 20.898-2.612 31.347-5.224 7.837-2.612 18.286-5.224 26.122-7.837v0c13.061-5.224 26.122-15.673 39.184-23.51 0 0 2.612 0 2.612-2.612 2.612-2.612 7.837-5.224 10.449-7.837 2.612 0 2.612-2.612 5.224-5.224s5.224-5.224 7.837-7.837c2.612-2.612 2.612-5.224 5.224-5.224 2.612-2.612 2.612-5.224 5.224-7.837s5.224-5.224 5.224-10.449c0-2.612 2.612-2.612 2.612-5.224 2.612-5.224 5.224-10.449 7.837-15.673 0 0 0 0 0 0 10.449-23.51 15.673-47.020 15.673-73.143 0-67.918-39.184-125.388-94.041-154.122v0l-5.224-2.612h114.939c5.224 0 13.061 2.612 18.286 5.224 10.449 5.224 18.286 13.061 23.51 23.51v0c5.224 7.837 5.224 15.673 5.224 23.51v135.837c2.612 20.898 2.612 44.408-2.612 62.694z" />
<glyph unicode="&#xe910;" glyph-name="menus" horiz-adv-x="1220" d="M184.499 442.072h424.233v-161.654h28.918v161.654h398.206v-161.654h28.918v190.572h-909.194v-190.572h28.918v161.654zM262.579 256.127h-204.742c-31.942 0-57.837-25.894-57.837-57.837v-205.031c0-31.942 25.894-57.837 57.837-57.837h204.742c31.942 0 57.837 25.894 57.837 57.837v205.321c-0.164 31.818-25.995 57.548-57.836 57.548 0 0-0.001 0-0.001 0zM398.206 597.942h423.654c0 0 0 0 0.001 0 35.993 0 65.191 29.096 65.355 65.051v231.363c0 0.086 0.001 0.188 0.001 0.289 0 36.095-29.261 65.356-65.356 65.356 0 0 0 0-0.001 0h-423.654c0 0 0 0-0.001 0-35.993 0-65.191-29.096-65.355-65.051v-231.363c0-0.086-0.001-0.188-0.001-0.289 0-36.095 29.261-65.356 65.356-65.356 0 0 0 0 0.001 0zM722.96 256.127h-205.899c-31.942 0-57.837-25.894-57.837-57.837v-205.031c0-31.942 25.894-57.837 57.837-57.837h205.899c31.942 0 57.837 25.894 57.837 57.837v205.321c-0.164 31.818-25.995 57.548-57.836 57.548 0 0-0.001 0-0.001 0zM1162.519 256.416h-204.742c-31.942 0-57.837-25.894-57.837-57.837v-205.031c0-31.942 25.894-57.837 57.837-57.837h204.742c31.942 0 57.837 25.894 57.837 57.837v205.031c0 31.942-25.894 57.837-57.837 57.837z" />
<glyph unicode="&#xe911;" glyph-name="msds_files" horiz-adv-x="1267" d="M778.449 926.041h-493.714c-23.51 0-41.796-18.286-41.796-41.796v-872.49c0-23.51 18.286-41.796 41.796-41.796h694.857c23.51 0 41.796 18.286 41.796 41.796v673.959l-242.939 240.327zM992.653 11.755c0-7.837-5.224-15.673-15.673-15.673h-692.245c-10.449 0-15.673 7.837-15.673 15.673v872.49c0 10.449 5.224 15.673 15.673 15.673h480.653l10.449-10.449-5.224-180.245c0-15.673 13.061-28.735 28.735-28.735l175.020 10.449 18.286-18.286v-660.898zM509.388 500.245l-28.735-62.694h-15.673l-31.347 62.694v-70.531h-26.122v112.327h36.571l28.735-62.694 28.735 62.694h33.959v-112.327h-26.122v70.531zM590.367 518.531c-2.612-2.612-2.612-5.224-2.612-7.837s2.612-5.224 5.224-7.837c2.612-2.612 10.449-5.224 20.898-7.837s18.286-7.837 26.122-13.061c5.224-5.224 7.837-13.061 7.837-23.51s-2.612-18.286-10.449-23.51c-7.837-5.224-18.286-10.449-28.735-10.449-18.286 0-33.959 7.837-47.020 20.898l15.673 18.286c13.061-10.449 23.51-15.673 33.959-15.673 5.224 0 7.837 0 10.449 2.612s5.224 5.224 5.224 7.837c0 2.612-2.612 5.224-5.224 7.837s-7.837 5.224-15.673 5.224-23.51 7.837-28.735 13.061c-5.224 5.224-7.837 13.061-7.837 23.51s2.612 18.286 10.449 23.51c7.837 5.224 18.286 7.837 28.735 7.837 7.837 0 15.673 0 23.51-2.612s13.061-5.224 20.898-10.449l-13.061-18.286c-10.449 7.837-20.898 10.449-31.347 10.449-13.061 2.612-18.286 2.612-18.286 0zM752.327 526.367c10.449-10.449 15.673-23.51 15.673-41.796s-5.224-31.347-15.673-41.796c-10.449-10.449-26.122-15.673-47.020-15.673h-39.184v114.939h39.184c20.898 0 36.571-5.224 47.020-15.673zM734.041 461.061c5.224 5.224 10.449 13.061 10.449 26.122 0 10.449-2.612 20.898-10.449 26.122s-15.673 7.837-28.735 7.837h-13.061v-67.918h15.673c10.449-2.612 18.286 0 26.122 7.837zM815.020 518.531c-2.612-2.612-2.612-5.224-2.612-7.837s2.612-5.224 5.224-7.837c2.612-2.612 10.449-5.224 20.898-7.837s18.286-7.837 26.122-13.061c5.224-5.224 7.837-13.061 7.837-23.51s-2.612-18.286-10.449-23.51c-7.837-5.224-18.286-10.449-28.735-10.449-18.286 0-33.959 7.837-47.020 20.898l15.673 18.286c13.061-10.449 23.51-15.673 33.959-15.673 5.224 0 7.837 0 10.449 2.612s5.224 5.224 5.224 7.837c0 2.612-2.612 5.224-5.224 7.837s-7.837 5.224-15.673 5.224-23.51 7.837-28.735 13.061c-5.224 5.224-7.837 13.061-7.837 23.51s2.612 18.286 10.449 23.51c7.837 5.224 18.286 7.837 28.735 7.837 7.837 0 15.673 0 23.51-2.612s13.061-5.224 20.898-10.449l-13.061-18.286c-10.449 7.837-20.898 10.449-31.347 10.449-13.061 2.612-15.673 2.612-18.286 0z" />
<glyph unicode="&#xe912;" glyph-name="news" horiz-adv-x="1205" d="M1041.748 960l-1041.748-208.35 162.821-815.65 1041.748 208.35-162.821 815.65zM1023.228 932.22l30.867-152.018-996.22-199.861-30.867 152.79 996.22 199.090zM1057.953 757.052l119.608-594.954-996.22-199.090-119.608 594.954 996.22 199.090zM271.476 764.754l504.716 100.984 24.224-121.071-504.716-100.984-24.224 121.071zM817.194 120.428l-108.805 544.796-274.713-55.56 108.805-544.796zM1087.277 384.338l-68.678 342.619-256.965-51.702 68.678-342.619zM484.606 53.293l-74.852 373.486-256.965-51.702 74.852-373.486z" />
<glyph unicode="&#xe913;" glyph-name="newsletters" horiz-adv-x="1298" d="M532.735 194.393v0h6.38c0 3.19 0 6.38 0 6.38l-6.38-6.38zM472.125 727.128v0zM532.735 194.393v0h6.38c0 3.19 0 6.38 0 6.38l-6.38-6.38zM532.735 194.393v0h6.38c0 3.19 0 6.38 0 6.38l-6.38-6.38zM532.735 194.393v0h6.38c0 3.19 0 6.38 0 6.38l-6.38-6.38zM532.735 194.393v0h6.38c0 3.19 0 6.38 0 6.38l-6.38-6.38zM532.735 194.393v0h6.38c0 3.19 0 6.38 0 6.38l-6.38-6.38zM532.735 194.393v0h6.38c0 3.19 0 6.38 0 6.38l-6.38-6.38zM532.735 194.393v0h6.38c0 3.19 0 6.38 0 6.38l-6.38-6.38zM532.735 194.393v0h6.38c0 3.19 0 6.38 0 6.38l-6.38-6.38zM532.735 194.393v0h6.38c0 3.19 0 6.38 0 6.38l-6.38-6.38zM532.735 194.393v0h6.38c0 3.19 0 6.38 0 6.38l-6.38-6.38zM532.735 194.393v0h6.38c0 3.19 0 6.38 0 6.38l-6.38-6.38zM532.735 194.393v0h6.38c0 3.19 0 6.38 0 6.38l-6.38-6.38zM532.735 194.393v0h6.38c0 3.19 0 6.38 0 6.38l-6.38-6.38zM532.735 194.393v0h6.38c0 3.19 0 6.38 0 6.38l-6.38-6.38zM1298.343 424.075l-159.502 516.785c-3.19 9.57-9.57 15.95-19.14 15.95-6.38 0-9.57 0-15.95 0l-720.947-223.302c-213.732-9.57-382.804-185.022-382.804-398.754 0-220.112 178.642-398.754 398.754-398.754 188.212 0 344.523 127.601 385.994 303.053l494.455 153.121c6.38 0 9.57 3.19 12.76 9.57 3.19 3.19 3.19 6.38 3.19 9.57 3.19 3.19 3.19 9.57 3.19 12.76zM1039.95 905.769v0l-229.682-312.623-169.072 57.421c-47.85 38.28-108.461 63.801-169.072 76.561l567.826 178.642zM47.85 293.283c3.19-25.52 9.57-44.66 12.76-54.231 6.38-12.76 15.95-15.95 25.52-25.52 31.9-25.52 35.090-70.181 57.421-98.891 9.57-12.76 19.14-22.33 25.52-31.9 9.57-12.76 12.76-22.33 22.33-35.090 0 0 3.19-3.19 3.19-3.19-79.751 57.421-133.981 146.741-146.741 248.822zM746.467 267.763c0-3.19 0-6.38 0-9.57s0-6.38-3.19-9.57c0-3.19 0-6.38-3.19-9.57 0-3.19 0-6.38-3.19-9.57 0-3.19-3.19-6.38-3.19-9.57-47.85-140.361-178.642-242.442-334.953-242.442-57.421 0-111.651 12.76-159.502 38.28-12.76 15.95-25.52 28.71-25.52 47.85-3.19 19.14-3.19 60.611 6.38 76.561 9.57 12.76 15.95 9.57 15.95 28.71 0 9.57 0 22.33 0 31.9 3.19 22.33 15.95 47.85 9.57 70.181-3.19 15.95-15.95 12.76-28.71 19.14s-22.33 12.76-38.28 19.14c-12.76 3.19-22.33 12.76-31.9 25.52-3.19 6.38-3.19 15.95-9.57 25.52-3.19 9.57-9.57 12.76-9.57 15.95-9.57 12.76-9.57 15.95-22.33 19.14s-25.52 9.57-38.28 3.19c-6.38-3.19-6.38-6.38-12.76-3.19 0 0 0 0-3.19 0 25.52 149.931 146.741 264.773 293.483 287.103 6.38 0 9.57 0 15.95 3.19 6.38 0 9.57 0 15.95 0s15.95 0 22.33 0 31.9 0 47.85-3.19c12.76-3.19 28.71-3.19 41.47-6.38 0 0 0 0 0 0s0-3.19 0-3.19c0-9.57 0-15.95-12.76-22.33-9.57-3.19-22.33 3.19-31.9-6.38-15.95-12.76 3.19-19.14 0-31.9 0-15.95-15.95-6.38-25.52-9.57-3.19 0-6.38 0-9.57-3.19-9.57-6.38-6.38-22.33 6.38-28.71 0 0 3.19 0 3.19-3.19 31.9-12.76 70.181 15.95 102.081 15.95 15.95 0 60.611 6.38 70.181-9.57 6.38-12.76 0-31.9-12.76-35.090-19.14-6.38-41.47 6.38-60.611 9.57-22.33 3.19-44.66 6.38-66.991 3.19-9.57 0-19.14-3.19-25.52-6.38s-9.57-3.19-15.95-6.38c-3.19-3.19-9.57-6.38-12.76-12.76-6.38-6.38-9.57-15.95-15.95-25.52-9.57-25.52-12.76-57.421-9.57-82.941 3.19-35.090 35.090-57.421 66.991-63.801 3.19 0 6.38 0 9.57 0 6.38 0 12.76 0 15.95 0 6.38 0 9.57-3.19 15.95-6.38 0 0 3.19-3.19 6.38-3.19 15.95-12.76 25.52-35.090 31.9-51.040 15.95-35.090 25.52-63.801 25.52-98.891 0-3.19 0-3.19 0-6.38v-3.19c0-6.38 0-9.57 0-15.95 0-3.19 0-6.38 0-6.38 0-3.19 0-6.38 0-9.57 0-9.57 0-19.14 0-28.71 0-47.85 57.421-54.231 79.751-15.95 15.95 25.52 28.71 51.040 41.47 79.751 0 0 0 3.19 3.19 6.38 0 3.19 3.19 6.38 3.19 9.57s3.19 6.38 3.19 9.57c0 3.19 3.19 6.38 3.19 9.57s3.19 6.38 3.19 9.57c0 3.19 0 6.38 3.19 9.57 3.19 12.76 6.38 25.52 6.38 38.28 3.19 19.14 6.38 38.28 12.76 57.421 0 3.19 0 3.19 3.19 6.38 3.19 9.57 6.38 19.14 6.38 28.71 0 0 0 3.19 0 3.19 0 6.38-3.19 9.57-6.38 15.95-3.19 3.19-6.38 6.38-9.57 9.57-19.14 15.95-41.47 31.9-57.421 51.040-9.57 9.57-38.28 47.85-15.95 57.421 31.9-15.95 51.040-54.231 82.941-70.181 19.14-9.57 28.71 3.19 28.71 22.33 3.19-9.57 6.38-15.95 9.57-25.52 3.19-6.38 3.19-12.76 6.38-19.14v0c3.19-6.38 3.19-12.76 3.19-19.14 3.19-22.33 6.38-44.66 6.38-66.991-6.38-19.14-9.57-41.47-12.76-63.801zM794.318 283.713c3.19 15.95 3.19 35.090 3.19 51.040 0 38.28-6.38 76.561-15.95 111.651l57.421 66.991 360.474-105.271-405.134-124.411zM1263.252 420.885l-433.844 127.601-57.421-66.991c-15.95 44.66-41.47 82.941-73.371 118.031l124.411-41.47 271.153 363.664 12.76 6.38 156.312-504.025v-3.19zM539.115 200.773c0-3.19 0-3.19 0-6.38h-6.38l6.38 6.38z" />
<glyph unicode="&#xe914;" glyph-name="notifications" horiz-adv-x="1236" d="M1127.489 960h-1018.553c-59.915 0-108.936-49.021-108.936-108.936v-590.979c0-59.915 49.021-108.936 108.936-108.936h149.787v-215.149l215.149 215.149h653.617c59.915 0 108.936 49.021 108.936 108.936v590.979c0 59.915-49.021 108.936-108.936 108.936zM648.17 260.085c-27.234-8.17-57.191 8.17-62.638 35.404-8.17 27.234 8.17 57.191 38.128 62.638 27.234 8.17 57.191-8.17 62.638-38.128 5.447-24.511-10.894-54.468-38.128-59.915zM800.681 260.085c-27.234-8.17-57.191 8.17-62.638 35.404-8.17 27.234 8.17 57.191 38.128 62.638 27.234 8.17 57.191-8.17 62.638-38.128 5.447-24.511-10.894-54.468-38.128-59.915zM953.191 260.085c-27.234-8.17-57.191 8.17-62.638 35.404-8.17 27.234 8.17 57.191 38.128 62.638 27.234 8.17 57.191-8.17 62.638-38.128 5.447-24.511-10.894-54.468-38.128-59.915z" />
<glyph unicode="&#xe915;" glyph-name="options" horiz-adv-x="1028" d="M989.223 546.536h-92.74c-7.728 38.642-23.185 77.283-42.506 112.060l57.962 61.826c11.592 11.592 11.592 30.913 0 42.506l-92.74 92.74c-11.592 11.592-30.913 11.592-42.506 0l-54.098-57.962c-42.506 27.049-85.011 46.37-135.245 57.962v73.419c0 15.457-11.592 30.913-30.913 30.913h-127.517c-15.457 0-30.913-11.592-30.913-30.913v-73.419c-46.37-11.592-88.875-30.913-127.517-54.098l-46.37 46.37c-11.592 11.592-30.913 11.592-42.506 0l-92.74-92.74c-11.592-11.592-11.592-30.913 0-42.506l46.37-46.37c-23.185-34.777-38.642-77.283-46.37-119.789h-57.962c-15.457 0-30.913-11.592-30.913-30.913v-131.381c0-15.457 11.592-30.913 30.913-30.913h57.962c11.592-50.234 30.913-96.604 57.962-135.245l-46.37-46.37c-11.592-11.592-11.592-30.913 0-42.506l92.74-92.74c11.592-11.592 30.913-11.592 42.506 0l50.234 50.234c34.777-19.321 73.419-34.777 112.060-42.506v-77.283c0-15.457 11.592-30.913 30.913-30.913h131.381c15.457 0 30.913 11.592 30.913 30.913v77.283c42.506 11.592 81.147 27.049 119.789 46.37l61.826-61.826c11.592-11.592 30.913-11.592 42.506 0l92.74 92.74c11.592 11.592 11.592 30.913 0 42.506l-57.962 57.962c27.049 38.642 42.506 81.147 54.098 127.517h92.74c15.457 0 30.913 11.592 30.913 30.913v131.381c-7.728 23.185-23.185 34.777-38.642 34.777zM494.611 225.811c-123.653 0-224.121 100.468-224.121 224.121s100.468 224.121 224.121 224.121 224.121-100.468 224.121-224.121-100.468-224.121-224.121-224.121z" />
<glyph unicode="&#xe916;" glyph-name="orders" horiz-adv-x="880" d="M861.333 106.667v0h-717.333c-2.667 0-13.333 5.333-21.333 10.667-8 8-13.333 13.333-13.333 29.333 0 10.667 2.667 24 13.333 42.667 56 77.333 82.667 90.667 96 112 2.667 5.333 8 10.667 13.333 18.667 13.333-24 34.667-32 48-32 0 0 0 0 2.667 0 5.333 0 10.667 0 13.333 2.667 13.333 2.667 117.333 16 224 29.333 114.667 16 237.333 29.333 256 29.333 24 0 42.667 10.667 48 24 2.667 5.333 5.333 10.667 5.333 16 0 0 0 0 0 0s0 0 0 0 0 2.667 0 2.667c0 0 0 0 0 0s0 2.667 0 2.667c0 0 0 0 0 0s0 2.667 0 2.667c0 0 0 0 0 0s0 2.667 0 2.667v0l37.333 258.667-189.333 13.333c0 0 0 0 0 0s0 0 0 0l-117.333 16-26.667 90.667-109.333-32v213.333h-80v-133.333h-106.667v-114.667l-80 5.333c0 5.333-2.667 8-2.667 8v5.333c0 0-10.667 21.333-29.333 45.333-18.667 18.667-45.333 45.333-80 45.333-10.667 0-18.667 0-24-2.667-2.667 0-5.333-2.667-10.667-5.333-5.333 0-10.667-8-10.667-16 2.667-16 8-16 13.333-18.667 13.333-8 32-13.333 56-13.333 5.333 0 8 2.667 10.667 5.333 8-5.333 13.333-10.667 18.667-18.667 8-8 13.333-18.667 18.667-26.667 0 0 0-2.667 2.667-2.667 0 0 0 0 0 0s0-2.667 0-2.667c0 0 0 0 0 0 0-2.667 2.667-2.667 2.667-2.667 5.333-18.667 37.333-152 58.667-248l2.667-13.333c2.667-16 8-32 10.667-42.667l2.667-16c0-5.333 2.667-10.667 2.667-13.333 2.667-13.333 5.333-24 5.333-29.333 0-16-5.333-16-16-32-5.333-10.667-40-34.667-96-112v0 0c-13.333-24-18.667-45.333-18.667-64 0-29.333 16-50.667 32-58.667 16-10.667 29.333-13.333 32-13.333h93.333c5.333-5.333 16-18.667 16-26.667-26.667-5.333-45.333-26.667-45.333-53.333 0-32 24-56 56-56s56 24 56 56c0 16-8 32-21.333 42.667 5.333 13.333 10.667 24 8 26.667s-2.667 8-5.333 13.333h426.667c5.333-5.333 16-18.667 16-32-21.333-8-37.333-29.333-37.333-50.667 0-32 24-56 56-56s56 24 56 56c0 21.333-10.667 37.333-26.667 48 5.333 10.667 8 18.667 5.333 21.333s-2.667 8-5.333 13.333h72c10.667 0 16 8 16 16 5.333 8-2.667 13.333-13.333 13.333zM234.667 400h2.667v-5.333c-2.667 2.667-2.667 5.333-2.667 5.333s0 0 0 0zM480 488v-34.667l-58.667-5.333v120l32-2.667 26.667-77.333zM445.333 602.667l-24 2.667v58.667h5.333l18.667-61.333zM424 344v72l58.667 5.333 2.667-69.333c-21.333-2.667-42.667-5.333-61.333-8zM632 370.667l13.333 2.667v-2.667c-5.333 0-8 0-13.333 0zM645.333 384l-13.333 45.333h16l-2.667-45.333zM656 512l-2.667-45.333-29.333-2.667-26.667 90.667 61.333-5.333-2.667-37.333zM698.667 642.667l133.333-10.667-8-56-130.667 8 5.333 58.667zM693.333 549.333l128-8-10.667-61.333-122.667-10.667 5.333 80zM685.333 434.667l120 8-5.333-34.667v-2.667c0 0 0 0 0 0 0-2.667 0-8-2.667-13.333s-5.333-8-18.667-8c-13.333 0-48-2.667-96-10.667l2.667 61.333zM664 645.333l-2.667-58.667-74.667 5.333-16 58.667 93.333-5.333zM181.333 621.333c-5.333 24-10.667 42.667-13.333 61.333l69.333-5.333v-58.667l-56 2.667zM189.333 586.667l48-2.667v-146.667h-10.667l-8 34.667c-10.667 34.667-21.333 74.667-29.333 114.667z" />
<glyph unicode="&#xe917;" glyph-name="pages" horiz-adv-x="831" d="M573.552 960h-528.787c-25.18 0-44.765-19.585-44.765-44.765v-934.47c0-25.18 19.585-44.765 44.765-44.765h744.219c25.18 0 44.765 19.585 44.765 44.765v721.836l-260.197 257.399zM802.973-19.235c0-8.393-5.596-16.787-16.787-16.787h-741.421c-11.191 0-16.787 8.393-16.787 16.787v934.47c0 11.191 5.596 16.787 16.787 16.787h514.798l11.191-11.191-5.596-193.049c0-16.787 13.989-30.776 30.776-30.776l187.454 11.191 19.585-19.585v-707.847z" />
<glyph unicode="&#xe918;" glyph-name="panels" horiz-adv-x="1413" d="M248.997 960v-93.374h-248.997v-880.827c0-6.225 0-12.45 3.112-18.675 9.337-18.675 24.9-31.125 46.687-31.125h1064.462c28.012 0 49.799 21.787 49.799 49.799v43.574h199.198c28.012 0 49.799 21.787 49.799 49.799v880.827h-1164.061zM31.125 611.404h217.872v-146.286h-217.872v146.286zM1132.936-14.201c0-12.45-9.337-18.675-18.675-18.675h-1064.462c-6.225 0-12.45 3.112-15.562 12.45-3.112 0-3.112 3.112-3.112 6.225v417.070h217.872v-323.696c0-6.225 0-12.45 3.112-18.675 9.337-18.675 24.9-31.125 46.687-31.125h834.14v-43.574zM1381.933 79.173c0-12.45-9.337-18.675-18.675-18.675h-1064.462c-6.225 0-12.45 3.112-15.562 12.45-3.112 0-3.112 3.112-3.112 6.225v417.070h902.614v62.249h-902.614v146.286h1101.812v-625.605z" />
<glyph unicode="&#xe919;" glyph-name="payment" horiz-adv-x="1722" d="M474.764 350.255c-9.309 0-18.618 9.309-23.273 18.618-9.309 18.618 0 41.891 18.618 51.2l46.545 18.618-41.891-18.618c-18.618-9.309-27.927-32.582-18.618-51.2 0-9.309 4.655-13.964 18.618-18.618zM418.909 843.636l-325.818-246.691 330.473 246.691zM605.091 834.327c0 4.655 0 0 0 0s0 0 0 0c0-4.655 0-4.655 0 0 0-4.655 0-4.655 0 0 0-9.309 0-23.273 0-27.927v0 27.927zM605.091 806.4c0 0 0 0 0 0s-4.655 0 0 0c-4.655 0 0 0 0 0v0zM605.091 829.673v0c0 0 0 0 0 0 0 4.655 0 4.655 0 0zM605.091 834.327c0-4.655 0-4.655 0 0 0-4.655 0-4.655 0 0 0 0 0 0 0 0zM88.436 145.455v0 0c0 0 0 0 0 0zM97.745 136.145c0-4.655 0-9.309 4.655-13.964 0 4.655-4.655 4.655-4.655 9.309 0 0-4.655 0 0 4.655zM451.491 368.873c4.655-9.309 13.964-13.964 23.273-18.618-13.964 4.655-23.273 9.309-23.273 18.618-9.309 18.618-4.655 41.891 13.964 51.2l46.545 18.618-41.891-18.618c-18.618-9.309-27.927-32.582-18.618-51.2zM949.527 522.473c0 0 0 4.655-4.655 4.655v0c4.655 0 4.655 0 4.655-4.655zM1517.382 960h-740.073c-60.509 0-116.364-27.927-148.945-74.473 0 0 0 0 0 0-13.964 13.964-23.273 27.927-32.582 32.582-32.582 27.927-69.818 37.236-102.4 37.236-69.818-4.655-111.709-41.891-125.673-51.2l-367.709-269.964v-493.382l4.655-4.655c0 0 23.273-51.2 60.509-102.4 23.273-23.273 46.545-46.545 79.127-65.164 32.582-23.273 69.818-32.582 116.364-32.582 139.636 0 260.655 0 260.655 0h18.618c0 0 102.4 55.855 204.8 158.255 37.236 37.236 79.127 74.473 121.018 121.018h651.636c102.4 0 204.8 79.127 204.8 153.6v404.945c0 102.4-107.055 186.182-204.8 186.182zM777.309 866.909h740.073c46.545 0 88.436 0 102.4-46.545h-944.873c0 0 0 4.655-4.655 4.655 18.618 41.891 60.509 41.891 107.055 41.891zM856.436 322.327c-9.309-9.309-18.618-18.618-27.927-27.927-23.273-23.273-46.545-46.545-69.818-74.473-27.927-27.927-51.2-55.855-74.473-79.127-46.545-46.545-97.745-88.436-130.327-116.364-18.618-13.964-32.582-27.927-41.891-32.582l-23.273-9.309h-228.073c-27.927 0-51.2 18.618-74.473 32.582-32.582 23.273-60.509 65.164-79.127 93.091-4.655 4.655-4.655 4.655-4.655 9.309s-4.655 9.309-4.655 13.964c-4.655 13.964 0 23.273 0 27.927 0 0 0 4.655 0 4.655s0 0 0 4.655v428.218l349.091 260.655c4.655 4.655 18.618 9.309 46.545 9.309v0c4.655 0 18.618 0 18.618 0v0c4.655 0 9.309 0 13.964 0 0 0 4.655 0 4.655 0 4.655-4.655 13.964 0 18.618-4.655 13.964-13.964 37.236-41.891 55.855-60.509v-321.164l-93.091-41.891-41.891-18.618c-18.618-9.309-27.927-32.582-18.618-51.2 4.655-9.309 13.964-13.964 23.273-18.618 4.655 0 9.309 0 9.309 0 4.655 0 9.309 0 13.964 4.655l195.491 97.745h4.655l181.527 88.436c13.964 0 27.927 0 37.236 0 23.273 0 27.927-4.655 32.582-13.964v0c0 0 0-4.655 4.655-4.655 4.655-9.309 4.655-23.273 4.655-37.236 0-18.618-4.655-37.236-4.655-51.2 0-4.655-4.655-13.964-4.655-13.964-13.964-13.964-51.2-51.2-93.091-97.745zM1629.091 368.873c0 0-51.2-60.509-111.709-60.509h-586.473c46.545 46.545 74.473 79.127 79.127 79.127h4.655l4.655 4.655c0 0 13.964 46.545 13.964 93.091 0 27.927-4.655 55.855-23.273 83.782s-51.2 46.545-93.091 46.545c-18.618 0-37.236-4.655-55.855-9.309h-18.618l-186.182-83.782v158.255h977.455v-311.855z" />
<glyph unicode="&#xe91a;" glyph-name="policy" horiz-adv-x="896" d="M64 960c-35.2 0-64-28.8-64-64v-896c0-35.2 28.8-64 64-64h64v1024h-64zM832 960h-64v-448l-128 128-128-128v448h-320v-1024h640c35.2 0 64 28.8 64 64v896c0 35.2-28.8 64-64 64z" />
<glyph unicode="&#xe91b;" glyph-name="products" horiz-adv-x="1306" d="M1270.4 595.2h-217.6l35.2-44.8c3.2-6.4 6.4-12.8 6.4-19.2 0-9.6-3.2-16-12.8-22.4-3.2-3.2-9.6-6.4-12.8-6.4s-3.2 0-6.4 0c-9.6 0-19.2 3.2-22.4 9.6l-64 80h-640l-64-80c-6.4-6.4-12.8-9.6-22.4-9.6-3.2 0-3.2 0-6.4 0-6.4 0-9.6 3.2-12.8 6.4-6.4 6.4-12.8 16-12.8 22.4s3.2 12.8 6.4 19.2l35.2 44.8h-220.8c-19.2 0-38.4-16-38.4-38.4v-41.6c0-19.2 16-35.2 38.4-35.2h1232c19.2 0 38.4 16 38.4 38.4v41.6c-3.2 19.2-19.2 35.2-38.4 35.2zM86.4 451.2l73.6-438.4c3.2-41.6 48-76.8 89.6-76.8h806.4c41.6 0 83.2 35.2 89.6 76.8l73.6 438.4h-1132.8zM953.6 76.8l48 294.4c3.2 16 16 28.8 32 28.8h54.4c6.4 0 12.8-3.2 16-6.4s3.2-9.6 3.2-12.8c0-3.2 0-3.2 0-6.4l-51.2-297.6c-3.2-16-19.2-28.8-35.2-28.8h-44.8c-6.4 0-12.8 3.2-19.2 6.4-3.2 3.2-6.4 9.6-6.4 16 3.2 3.2 3.2 3.2 3.2 6.4zM777.6 76.8l19.2 294.4c0 16 12.8 28.8 28.8 28.8h54.4c6.4 0 12.8-3.2 19.2-6.4 3.2-3.2 6.4-9.6 6.4-16 0 0 0 0 0-3.2l-28.8-294.4c-3.2-16-16-28.8-32-28.8h-44.8c-6.4 0-12.8 3.2-19.2 9.6 0 0-3.2 6.4-3.2 16 0-3.2 0 0 0 0zM604.8 390.4c6.4 6.4 12.8 9.6 19.2 9.6h57.6c6.4 0 12.8-3.2 19.2-9.6s6.4-12.8 6.4-19.2v0 0c0 0 0 0 0 0v0l-3.2-294.4c0-16-12.8-28.8-28.8-28.8h-44.8c-16 0-28.8 12.8-28.8 28.8l-6.4 291.2c0 0 0 0 0 0 3.2 9.6 3.2 16 9.6 22.4zM406.4 390.4c3.2 6.4 12.8 6.4 19.2 6.4h54.4c16 0 28.8-12.8 28.8-28.8l19.2-294.4c0 0 0 0 0 0 0-6.4-3.2-12.8-6.4-16v0c-6.4-6.4-12.8-9.6-19.2-9.6h-44.8c-16 0-28.8 12.8-32 28.8l-28.8 294.4c0 0 0 3.2 0 3.2 3.2 3.2 3.2 9.6 9.6 16zM198.4 390.4c3.2 6.4 9.6 6.4 16 6.4h54.4c16 0 28.8-12.8 32-28.8l48-294.4c0 0 0-3.2 0-3.2 0-6.4-3.2-9.6-6.4-16v0c-3.2-6.4-9.6-6.4-19.2-6.4h-38.4c-16 0-32 12.8-35.2 28.8l-54.4 294.4c0 0 0 3.2 0 6.4s0 9.6 3.2 12.8zM556.8 915.2c-3.2 0-3.2 3.2-6.4 3.2 0 0 0 0-3.2 0s-9.6-3.2-9.6-6.4l-300.8-371.2c-3.2-3.2-3.2-6.4-3.2-9.6s3.2-6.4 6.4-9.6c3.2 0 3.2-3.2 6.4-3.2 0 0 0 0 3.2 0s9.6 3.2 9.6 6.4l297.6 371.2c3.2 3.2 3.2 6.4 3.2 9.6s0 9.6-3.2 9.6zM764.8 918.4c-3.2 0-3.2 0 0 0-3.2 0-6.4 0-9.6-3.2s-6.4-6.4-6.4-9.6c0-3.2 0-6.4 3.2-9.6l300.8-371.2c3.2-3.2 6.4-6.4 9.6-6.4 0 0 3.2 0 3.2 0 3.2 0 3.2 0 6.4 3.2s6.4 6.4 6.4 9.6c0 3.2 0 6.4-3.2 9.6l-300.8 374.4c-3.2 3.2-6.4 3.2-9.6 3.2zM761.6 860.8l-22.4 25.6c-3.2 6.4-6.4 12.8-6.4 19.2 0 9.6 3.2 16 12.8 22.4 3.2 3.2 9.6 6.4 12.8 6.4s3.2 0 6.4 0c9.6 0 19.2-3.2 22.4-12.8l22.4-25.6c3.2 6.4 3.2 9.6 3.2 16 0 3.2 0 9.6-3.2 16-3.2 19.2-25.6 32-44.8 32-3.2 0-9.6 0-16-3.2-22.4-6.4-35.2-25.6-35.2-48 0-3.2 0-9.6 3.2-16 6.4-16 25.6-32 44.8-32zM524.8 924.8c6.4 6.4 16 12.8 22.4 12.8 3.2 0 3.2 0 6.4 0 6.4 0 9.6-3.2 12.8-6.4v0c6.4-6.4 9.6-16 9.6-25.6 0-6.4-3.2-12.8-6.4-19.2l-22.4-25.6c19.2 0 38.4 12.8 44.8 35.2 0 6.4 3.2 9.6 3.2 16 0 22.4-12.8 41.6-35.2 48-3.2 0-9.6 0-12.8 0-22.4 0-41.6-12.8-48-35.2 0-6.4-3.2-9.6-3.2-16s0-9.6 3.2-16l25.6 32z" />
<glyph unicode="&#xe91c;" glyph-name="projects" horiz-adv-x="1086" d="M1086.15 761.711v0c0 29.595-20.717 50.312-47.353 50.312h-618.543v79.908c0 35.514-26.636 68.069-59.191 68.069h-236.763c-32.555 0-59.191-29.595-59.191-68.069v-79.908h-17.757c-26.636 0-47.353-20.717-47.353-47.353v-778.358c0-26.636 23.676-50.312 50.312-50.312h985.526c26.636 0 50.312 23.676 50.312 50.312v775.399zM1056.555-13.688c0-11.838-8.879-20.717-20.717-20.717h-985.526c-11.838 0-20.717 8.879-20.717 20.717v772.439c0 11.838 8.879 20.717 20.717 20.717h47.353v112.462c0 20.717 11.838 38.474 29.595 38.474h236.763c14.798 0 29.595-17.757 29.595-38.474v-112.462h642.22c11.838 0 20.717-8.879 20.717-20.717v-772.439z" />
<glyph unicode="&#xe91d;" glyph-name="projects_2" horiz-adv-x="1371" d="M862.685 960c-610.192 28.055-666.301-575.123-666.301-575.123 21.041-49.096 224.438-259.507 606.685-273.534 14.027 0 24.548 0 38.575 0 17.534 49.096 70.137 189.37 150.795 171.836 98.192-21.041 112.219-80.658 119.233-126.247 0-3.507 0-3.507 0-7.014 171.836 56.11 252.493 150.795 252.493 150.795s112.219 627.726-501.479 659.288zM939.836 889.863c0 0-220.932 42.082-526.027-245.479 0 0 206.904 357.699 526.027 245.479zM508.493 553.205c0 0 206.904 357.699 526.027 245.479 0 0-220.932 42.082-526.027-245.479zM143.781 360.329c0 0-168.329-84.164-143.781-150.795s248.986-273.534 641.753-273.534 620.712 252.493 659.288 280.548c0 0-631.233-445.37-1157.26 143.781z" />
<glyph unicode="&#xe91e;" glyph-name="properties" horiz-adv-x="1267" d="M1136.327 698.776h-216.816v60.082l-323.918-130.612 323.918-128v60.082h216.816zM734.041 526.367v-44.408h-363.102v44.408h363.102l-169.796 78.367h-193.306v44.408h185.469l169.796 78.367h-355.265v47.020h363.102v-41.796l133.224 49.633v125.388h-713.143v-932.571h713.143v501.551l-133.224 49.633zM331.755 111.020h-44.408v44.408h44.408v-44.408zM331.755 236.408h-44.408v44.408h44.408v-44.408zM331.755 359.184h-44.408v44.408h44.408v-44.408zM331.755 481.959h-44.408v44.408h44.408v-44.408zM331.755 604.735h-44.408v44.408h44.408v-44.408zM331.755 727.51h-44.408v47.020h44.408v-47.020zM734.041 111.020h-363.102v44.408h363.102v-44.408zM734.041 236.408h-363.102v44.408h363.102v-44.408zM734.041 359.184h-363.102v44.408h363.102v-44.408z" />
<glyph unicode="&#xe91f;" glyph-name="reagent_info" horiz-adv-x="1267" d="M1000.49 701.388v-626.939c0 0-2.612-88.816-222.041-88.816s-222.041 88.816-222.041 88.816v49.633c161.959 276.898 384 412.735 384 412.735-245.551-36.571-350.041-161.959-384-214.204v378.776c0 0 7.837 57.469 44.408 57.469s57.469 60.082 57.469 60.082h-39.184v88.816h321.306v-88.816h-39.184c0 0 20.898-60.082 57.469-60.082s41.796-57.469 41.796-57.469zM457.143 395.755l-101.878-94.041 198.531-180.245c0 0 2.612 2.612 2.612 2.612v-75.755c0 0 0-60.082-151.51-60.082s-151.51 60.082-151.51 60.082v425.796c0 0 5.224 39.184 28.735 39.184 26.122 0 39.184 41.796 39.184 41.796h-26.122v60.082h219.429v-60.082h-26.122c0 0 13.061-41.796 39.184-41.796s31.347-39.184 31.347-39.184v-151.51c-7.837-13.061-13.061-20.898-13.061-20.898l-88.816 94.041z" />
<glyph unicode="&#xe920;" glyph-name="reports" d="M972.8 960h-921.6c-5.689 0-14.222 0-19.911-2.844-19.911-8.533-31.289-22.756-31.289-39.822v-935.822c0-25.6 22.756-45.511 51.2-45.511h921.6c5.689 0 14.222 0 19.911 2.844 19.911 5.689 31.289 22.756 31.289 39.822v938.667c0 22.756-22.756 42.667-51.2 42.667zM995.556-21.333c0-5.689-5.689-11.378-14.222-14.222-2.844 0-5.689 0-8.533 0h-921.6c-11.378 0-22.756 5.689-22.756 14.222v938.667c0 5.689 5.689 11.378 11.378 14.222 5.689 0 8.533 0 11.378 0h921.6c11.378 0 22.756-8.533 22.756-14.222v-938.667zM733.867 888.889v-105.244h116.622v105.244h-116.622zM591.644 888.889v-105.244h136.533v105.244h-136.533zM71.111 888.889v-105.244h113.778v105.244h-113.778zM193.422 888.889v-105.244h125.156v105.244h-125.156zM324.267 888.889v-105.244h125.156v105.244h-125.156zM324.267 775.111v-125.156h125.156v125.156h-125.156zM193.422 775.111v-125.156h125.156v125.156h-125.156zM591.644 379.733v-39.822l36.978-85.333 62.578 125.156h-99.556zM733.867 644.267v-125.156h25.6l62.578 125.156h-88.178zM591.644 510.578v-125.156h102.4l34.133 68.267v56.889h-136.533zM733.867 510.578v-42.667l22.756 42.667h-22.756zM71.111 379.733v-139.378l2.844 2.844 110.933 105.244v31.289h-113.778zM193.422 379.733v-25.6l25.6 25.6h-25.6zM71.111 644.267v-125.156h113.778v125.156h-113.778zM71.111 510.578v-125.156h113.778v125.156h-113.778zM193.422 644.267v-125.156h125.156v125.156h-125.156zM193.422 510.578v-125.156h34.133l19.911 17.067c2.844 2.844 8.533 5.689 11.378 2.844 5.689 0 8.533-2.844 11.378-8.533l8.533-14.222h42.667v125.156h-128zM324.267 644.267v-125.156h99.556l25.6 82.489v42.667h-125.156zM457.956 644.267v-34.133c2.844 0 2.844 2.844 5.689 2.844 5.689 0 11.378-2.844 14.222-8.533l36.978-85.333h68.267v125.156h-125.156zM324.267 510.578v-125.156h56.889l39.822 125.156h-96.711zM281.6 379.733l36.978-71.111v71.111h-36.978zM324.267 379.733v-82.489l17.067-31.289 36.978 113.778h-54.044zM591.644 644.267v-125.156h136.533v125.156h-136.533zM517.689 510.578l54.044-125.156h14.222v125.156h-68.267zM571.733 379.733l11.378-22.756v22.756h-11.378zM733.867 775.111v-125.156h91.022l25.6 51.2v73.956h-116.622zM591.644 775.111v-125.156h136.533v125.156h-136.533zM457.956 775.111v-125.156h125.156v125.156h-125.156zM71.111 775.111v-125.156h113.778v125.156h-113.778zM457.956 888.889v-105.244h125.156v105.244h-125.156zM859.022 775.111v-59.733l31.289 59.733h-31.289zM859.022 888.889v-105.244h34.133l42.667 85.333c2.844 5.689 11.378 8.533 17.067 8.533v11.378h-93.867zM952.889 840.533v-56.889h-28.444zM850.489 638.578v-119.467h-59.733zM728.178 391.111v-5.689h-2.844zM850.489 510.578v-125.156h-116.622v19.911l54.044 105.244zM728.178 379.733v-136.533h-73.956l68.267 136.533zM733.867 379.733h116.622v-136.533h-116.622v136.533zM733.867 234.667h116.622v-116.622h-116.622v116.622zM449.422 507.733v-122.311h-36.978zM483.556 519.111h-25.6v11.378l8.533 25.6zM540.444 385.422h-82.489v125.156h28.444zM184.889 308.622v-65.422h-68.267zM318.578 248.889v-5.689h-125.156v71.111l59.733 56.889zM193.422 234.667h125.156v-116.622h-125.156v116.622zM184.889 234.667v-116.622h-113.778v99.556c5.689-5.689 14.222-5.689 19.911 0l17.067 17.067h76.8zM71.111 112.356h113.778v-105.244h-113.778v105.244zM193.422 112.356h125.156v-105.244h-125.156v105.244zM324.267 112.356h125.156v-105.244h-125.156v105.244zM457.956 112.356h125.156v-105.244h-125.156v105.244zM449.422 379.733v-136.533h-82.489l42.667 136.533zM449.422 234.667v-116.622h-125.156v119.467l8.533-14.222c2.844-5.689 8.533-8.533 14.222-8.533s11.378 5.689 11.378 8.533l2.844 11.378h88.178zM457.956 234.667h125.156v-116.622h-125.156v116.622zM583.111 283.022v-39.822h-125.156v136.533h85.333zM600.178 243.2h-8.533v22.756zM728.178 234.667v-116.622h-136.533v116.622h14.222l8.533-22.756c2.844-5.689 8.533-8.533 11.378-8.533 0 0 0 0 0 0 5.689 0 11.378 2.844 11.378 8.533l11.378 22.756h79.644zM591.644 112.356h136.533v-105.244h-136.533v105.244zM733.867 112.356h116.622v-105.244h-116.622v105.244zM859.022 112.356h93.867v-105.244h-93.867v105.244zM859.022 234.667h93.867v-116.622h-93.867v116.622zM859.022 379.733h93.867v-136.533h-93.867v136.533zM859.022 510.578h93.867v-125.156h-93.867v125.156zM859.022 644.267h93.867v-125.156h-93.867v125.156zM952.889 775.111v-125.156h-93.867v2.844l62.578 122.311zM583.111 7.111h8.533v-2.844h-8.533v2.844zM728.178 7.111h8.533v-2.844h-8.533v2.844zM850.489 7.111h8.533v-2.844h-8.533v2.844zM859.022 652.8v-2.844zM449.422 7.111h8.533v-2.844h-8.533v2.844zM318.578 7.111h8.533v-2.844h-8.533v2.844zM184.889 7.111h8.533v-2.844h-8.533v2.844zM73.956 243.2l-2.844-5.689v5.689zM327.111 234.667h-2.844v2.844zM952.889 243.2h2.844v-8.533h-2.844v8.533zM952.889 118.044h2.844v-8.533h-2.844v8.533zM952.889 649.956h2.844v-8.533h-2.844v8.533zM952.889 783.644h2.844v-8.533h-2.844v8.533zM452.267 510.578l-2.844-2.844v2.844z" />
<glyph unicode="&#xe921;" glyph-name="roles" horiz-adv-x="1644" d="M1540.815 960h-1438.094c-57.781 0-102.721-48.15-102.721-102.721v-818.558c0-57.781 44.94-102.721 102.721-102.721h1438.094c57.781 0 102.721 44.94 102.721 102.721v818.558c0 54.571-44.94 102.721-102.721 102.721zM1611.436 38.721c0-38.52-32.1-70.621-70.621-70.621h-1438.094c-38.52 0-70.621 32.1-70.621 70.621v818.558c0 38.52 32.1 70.621 70.621 70.621h1438.094c38.52 0 70.621-32.1 70.621-70.621v-818.558zM1460.564 828.389h-561.755c-3.21 0-9.63-3.21-9.63-3.21-3.21-3.21-6.42-6.42-6.42-12.84v-731.887c0-3.21 3.21-9.63 6.42-12.84s6.42-3.21 9.63-3.21h561.755c3.21 0 9.63 0 12.84 3.21s3.21 6.42 3.21 12.84v731.887c0 3.21-3.21 9.63-3.21 12.84-3.21 0-6.42 3.21-12.84 3.21zM1162.031 131.812c-70.621 0-138.031 28.89-176.552 77.041 0 12.84-3.21 22.47-3.21 32.1 0 83.461 41.73 157.292 105.931 192.602l73.831-86.671 73.831 86.671c64.201-35.31 105.931-109.141 105.931-192.602 0-9.63 0-19.26-3.21-32.1-38.52-48.15-102.721-77.041-176.552-77.041zM1162.031 680.727c51.361 0 96.301-41.73 96.301-96.301 0-51.361-41.73-96.301-96.301-96.301-51.361 0-96.301 41.73-96.301 96.301s44.94 96.301 96.301 96.301zM125.191 706.408h699.787v-128.401h-699.787v128.401zM125.191 481.705h699.787v-32.1h-699.787v32.1zM125.191 385.404h699.787v-32.1h-699.787v32.1zM125.191 289.103h699.787v-32.1h-699.787v32.1z" />
<glyph unicode="&#xe922;" glyph-name="settings" horiz-adv-x="1045" d="M981.481 169.855l-201.965 187.792-177.163-180.706c85.038-92.125 152.36-166.533 187.792-198.422v0c53.149-53.149 141.73-53.149 194.879 0 49.606 53.149 49.606 138.187-3.543 191.336v0zM924.789 35.211c-21.26-21.26-56.692-21.26-77.952 0s-21.26 56.692 0 77.952c21.26 21.26 56.692 21.26 77.952 0s21.26-56.692 0-77.952zM1002.74 843.073c-53.149 53.149-141.73 53.149-194.879 0l-389.758-389.758 194.879-194.879 389.758 389.758c53.149 49.606 53.149 138.187 0 194.879zM588.18 463.945c-10.63-10.63-24.803-10.63-35.433 0s-10.63 24.803 0 35.433l304.72 304.72c10.63 10.63 24.803 10.63 35.433 0s10.63-24.803 0-35.433l-304.72-304.72zM967.308 694.256l-304.72-304.72c-10.63-10.63-24.803-10.63-35.433 0s-10.63 24.803 0 35.433l304.72 304.72c10.63 10.63 24.803 10.63 35.433 0 7.087-7.087 7.087-24.803 0-35.433zM510.228 704.886c0 141.73-113.384 255.114-255.114 255.114-35.433 0-67.322-7.087-95.668-17.716l134.644-134.644c24.803-28.346 24.803-67.322 0-92.125l-53.149-53.149c-24.803-24.803-63.779-24.803-88.581 0l-134.644 134.644c-10.63-28.346-17.716-60.235-17.716-92.125 0-141.73 113.384-255.114 255.114-255.114 138.187 0 255.114 116.927 255.114 255.114zM311.806 226.547l-74.408-17.716-141.73-209.052 53.149-53.149 212.595 138.187 14.173 77.952 131.1 131.1-63.779 63.779z" />
<glyph unicode="&#xe923;" glyph-name="settings_2" horiz-adv-x="883" d="M693.754 244.073v77.844h-83.741c-6.841 44.111-24.768 84.685-50.481 118.653l60.152 60.152-54.962 54.962-60.624-60.388c-34.204 25.004-74.541 41.988-118.417 48.593v85.864h-77.844v-86.1c-43.876-6.369-84.213-23.589-118.417-48.593l-60.624 60.624-54.962-54.962 60.152-60.152c-25.712-34.204-43.64-74.541-50.481-118.653h-83.505v-77.844h83.033c6.133-44.819 23.353-86.1 48.829-121.012l-57.793-57.793 54.962-54.962 57.321 57.085c34.912-26.42 76.428-44.347 121.484-50.952v-80.439h77.844v80.439c45.291 6.605 86.808 24.533 121.484 50.952l57.321-57.321 54.962 54.962-57.793 57.793c25.476 34.912 42.932 76.193 48.829 121.012h83.269zM467.535 217.417c-12.266-23.589-31.138-42.932-54.255-55.906-8.728-4.954-17.928-8.728-27.599-11.559-12.266-3.774-25.476-5.661-38.922-5.661s-26.656 1.887-38.922 5.661c-9.672 2.831-18.871 6.841-27.599 11.559-23.117 12.974-41.988 32.317-54.255 55.906-4.482 8.492-7.784 17.456-10.379 26.656-3.067 11.559-4.954 23.589-4.954 36.091 0 14.625 2.359 28.543 6.605 41.753 2.831 8.728 6.369 16.984 10.851 24.768 12.974 23.117 32.317 41.988 55.906 54.255 7.548 4.010 15.569 7.313 23.825 9.672 12.266 3.774 25.476 5.661 38.922 5.661s26.656-1.887 38.922-5.661c8.256-2.359 16.276-5.661 23.825-9.672 23.589-12.266 42.932-31.138 55.906-54.255 4.482-7.784 8.020-16.041 10.851-24.768 4.246-13.21 6.605-27.127 6.605-41.753 0-12.502-1.651-24.533-4.954-36.091-2.359-9.436-5.897-18.164-10.379-26.656zM883.173 721.515v48.122h-51.66c-4.246 27.363-15.333 52.368-31.138 73.362l37.035 37.271-33.968 33.968-37.507-37.507c-20.994 15.569-45.999 25.948-73.126 29.958v53.311h-48.122v-53.311c-27.127-4.010-52.132-14.625-73.126-29.958l-37.507 37.507-33.968-33.968 37.035-37.035c-16.041-20.994-26.891-46.235-31.138-73.362h-51.66v-48.122h51.188c3.774-27.835 14.389-53.311 30.194-74.777l-35.619-35.619 33.968-33.968 35.384 35.384c21.466-16.276 47.178-27.363 75.013-31.373v-49.773h48.122v49.773c27.835 4.010 53.547 15.097 75.013 31.373l35.384-35.384 33.968 33.968-35.619 35.619c15.805 21.466 26.42 47.178 30.194 74.777h51.66zM743.526 705.003c-7.548-14.625-19.343-26.656-33.496-34.44-5.425-3.067-11.087-5.425-16.984-7.313-7.548-2.359-15.569-3.538-24.061-3.538-8.256 0-16.512 1.179-24.061 3.538-5.897 1.887-11.559 4.246-16.984 7.313-14.153 8.020-25.948 20.051-33.496 34.44-2.595 5.19-4.954 10.615-6.369 16.512-1.887 7.077-3.067 14.625-3.067 22.41 0 8.964 1.415 17.692 4.010 25.712 1.651 5.425 4.010 10.379 6.605 15.333 8.020 14.153 20.051 25.948 34.44 33.496 4.718 2.359 9.672 4.482 14.861 5.897 7.548 2.359 15.569 3.538 24.061 3.538 8.256 0 16.512-1.179 24.061-3.538 5.19-1.415 10.143-3.538 14.861-5.897 14.625-7.548 26.656-19.343 34.44-33.496 2.595-4.718 4.954-9.907 6.605-15.333 2.595-8.020 4.010-16.748 4.010-25.712 0-7.784-0.944-15.333-3.067-22.41-1.651-5.661-3.774-11.323-6.369-16.512z" />
<glyph unicode="&#xe924;" glyph-name="settings_3" horiz-adv-x="1267" d="M1162.449 633.469h-62.694c-5.224 26.122-15.673 52.245-28.735 75.755l39.184 41.796c7.837 7.837 7.837 20.898 0 28.735l-62.694 62.694c-7.837 7.837-20.898 7.837-28.735 0l-36.571-39.184c-28.735 18.286-57.469 31.347-91.429 39.184v49.633c0 10.449-7.837 20.898-20.898 20.898h-86.204c-10.449 0-20.898-7.837-20.898-20.898v-49.633c-31.347-7.837-60.082-20.898-86.204-36.571l-31.347 31.347c-7.837 7.837-20.898 7.837-28.735 0l-62.694-62.694c-7.837-7.837-7.837-20.898 0-28.735l31.347-31.347c-15.673-23.51-26.122-52.245-31.347-80.98h-39.184c-10.449 0-20.898-7.837-20.898-20.898v-88.816c0-10.449 7.837-20.898 20.898-20.898h39.184c7.837-33.959 20.898-65.306 39.184-91.429l-31.347-31.347c-7.837-7.837-7.837-20.898 0-28.735l62.694-62.694c7.837-7.837 20.898-7.837 28.735 0l33.959 33.959c23.51-13.061 49.633-23.51 75.755-28.735v-52.245c0-10.449 7.837-20.898 20.898-20.898h88.816c10.449 0 20.898 7.837 20.898 20.898v52.245c28.735 7.837 54.857 18.286 80.98 31.347l41.796-41.796c7.837-7.837 20.898-7.837 28.735 0l62.694 62.694c7.837 7.837 7.837 20.898 0 28.735l-39.184 39.184c18.286 26.122 28.735 54.857 36.571 86.204h62.694c10.449 0 20.898 7.837 20.898 20.898v88.816c-5.224 15.673-15.673 23.51-26.122 23.51zM828.082 416.653c-83.592 0-151.51 67.918-151.51 151.51s67.918 151.51 151.51 151.51 151.51-67.918 151.51-151.51-67.918-151.51-151.51-151.51zM538.122 233.796l-41.796 5.224c-2.612 18.286-7.837 36.571-13.061 52.245l31.347 23.51c5.224 5.224 7.837 13.061 2.612 18.286l-36.571 47.020c-5.224 5.224-13.061 7.837-18.286 2.612l-31.347-23.51c-18.286 13.061-36.571 26.122-57.469 33.959l2.612 33.959c0 7.837-5.224 13.061-10.449 15.673l-60.082 7.837c-7.837 0-13.061-5.224-15.673-10.449l-2.612-36.571c-20.898-2.612-41.796-7.837-60.082-18.286l-18.286 23.51c-5.224 5.224-13.061 7.837-18.286 2.612l-47.020-36.571c-5.224-5.224-7.837-13.061-2.612-18.286l18.286-23.51c-10.449-15.673-20.898-31.347-28.735-52.245h-26.122c-7.837 0-13.061-5.224-15.673-10.449l-7.837-60.082c0-7.837 5.224-13.061 10.449-15.673l26.122-2.612c7.837-20.898 13.061-41.796 23.51-62.694l-23.51-18.286c-5.224-5.224-7.837-13.061-2.612-18.286l39.184-47.020c5.224-5.224 13.061-7.837 18.286-2.612l26.122 20.898c15.673-10.449 31.347-18.286 47.020-26.122l-2.612-33.959c0-7.837 5.224-13.061 10.449-15.673l60.082-7.837c7.837 0 13.061 5.224 15.673 10.449l2.612 33.959c20.898 2.612 39.184 7.837 54.857 15.673l23.51-31.347c5.224-5.224 13.061-7.837 18.286-2.612l47.020 36.571c5.224 5.224 7.837 13.061 2.612 18.286l-23.51 36.571c13.061 15.673 23.51 33.959 31.347 54.857l41.796-5.224c7.837 0 13.061 5.224 15.673 10.449l7.837 60.082c-2.612 7.837-7.837 15.673-13.061 15.673zM297.796 113.633c-54.857 5.224-96.653 57.469-91.429 112.327s57.469 96.653 112.327 91.429c54.857-5.224 96.653-57.469 91.429-112.327s-57.469-96.653-112.327-91.429z" />
<glyph unicode="&#xe925;" glyph-name="shop" horiz-adv-x="1115" d="M0 960v-1024h1114.903v1024h-1114.903zM978.548 232.773h-80.209v26.736h80.209v-26.736zM978.548 286.245h-294.099v267.363h294.099v-267.363zM1088.167-37.264h-72.188v630.977h-358.266v-630.977h-630.977v791.394h1061.431v-791.394zM114.966 633.817v-588.198h470.559v588.198h-470.559zM558.789 75.029h-37.431v320.836h-106.945v-320.836h-26.736v374.308h-53.473v-374.308h-26.736v320.836h-106.945v-320.836h-58.82v534.726h417.086v-534.726zM417.086 48.292v0 0zM203.196 48.292v0 0z" />
<glyph unicode="&#xe926;" glyph-name="testimonials" horiz-adv-x="1362" d="M902.779 854.729c-51.040 0-98.891-6.38-143.551-19.14-79.751 76.561-197.782 124.411-331.763 124.411-236.062 0-427.464-146.741-427.464-331.763 0-146.741 124.411-271.153 296.673-312.623l-51.040-181.832 280.723 149.931c51.040-57.421 121.221-102.081 207.352-127.601l-63.801-223.302 433.844 232.872c159.502 60.611 255.202 185.022 255.202 325.383 3.19 204.162-204.162 363.664-456.174 363.664zM1081.421 229.483l-309.433-165.882 38.28 140.361-31.9 6.38c-79.751 19.14-146.741 57.421-194.592 105.271l31.9 15.95c140.361 54.231 239.252 165.882 239.252 296.673 0 54.231-19.14 108.461-47.85 153.121 31.9 6.38 63.801 9.57 95.701 9.57 216.922 0 395.564-133.981 395.564-299.863 0-108.461-82.941-210.542-216.922-261.583z" />
<glyph unicode="&#xe927;" glyph-name="tips" horiz-adv-x="583" d="M291.685 960c-161.358 0-291.685-136.533-291.685-304.097 0-201.697 152.048-235.83 152.048-471.661h276.17c0 238.933 155.152 269.964 155.152 471.661 0 167.564-133.43 304.097-291.685 304.097zM456.145 686.933c-21.721-12.412-58.958 0-71.37 21.721-18.618 27.927-6.206 46.545-34.133 71.37-18.618 15.515-52.752 15.515-62.061 34.133-34.133 52.752 49.648 80.679 83.782 55.855h9.309c24.824-12.412 49.648-9.309 71.37-31.030 24.824-24.824 24.824-43.442 24.824-77.576 0-24.824 3.103-62.061-21.721-74.473zM428.218 153.212h-276.17v-133.43l77.576-83.782h121.018l77.576 83.782z" />
<glyph unicode="&#xe928;" glyph-name="users" horiz-adv-x="731" d="M341.333 567.626c108.461 0 194.592 89.321 194.592 197.782s-89.321 197.782-194.592 197.782-194.592-92.511-194.592-200.972c0-105.271 86.131-194.592 194.592-194.592zM497.645 82.741h-95.701c-28.71 0-54.231 25.52-54.231 57.421s25.52 57.421 54.231 57.421h95.701v95.701c0 28.71 25.52 54.231 57.421 54.231s57.421-25.52 57.421-54.231v-95.701h73.371c-12.76 153.121-102.081 280.723-220.112 334.953l-124.411-143.551-124.411 143.551c-124.411-57.421-216.922-204.162-216.922-373.234 0-22.33 3.19-44.66 6.38-70.181 73.371-92.511 197.782-153.121 338.143-153.121 57.421 0 111.651 9.57 159.502 28.71-3.19 6.38-6.38 15.95-6.38 22.33v95.701zM612.486 22.131c25.52 15.95 44.66 38.28 63.801 60.611h-63.801v-60.611zM708.187 165.682h-127.601v127.601c0 12.76-12.76 22.33-25.52 22.33s-25.52-9.57-25.52-22.33v-127.601h-127.601c-12.76 0-22.33-12.76-22.33-25.52 0-15.95 9.57-25.52 22.33-25.52h127.601v-127.601c0-3.19 0-6.38 3.19-9.57 3.19-6.38 12.76-9.57 22.33-9.57 12.76 0 25.52 9.57 25.52 22.33v127.601h127.601c12.76 0 22.33 9.57 22.33 25.52 0 9.57-9.57 22.33-22.33 22.33z" />
<glyph unicode="&#xe929;" glyph-name="users_2-01" horiz-adv-x="920" d="M458.524 581.12c0-95.573 68.267-174.080 167.253-174.080 100.124 0 167.253 77.369 167.253 174.080 0 95.573-68.267 174.080-167.253 174.080s-167.253-77.369-167.253-174.080zM628.053 367.218v0c0 0-1.138 0-1.138 0s-1.138 0-1.138 0v0c-162.702-1.138-293.547-127.431-293.547-283.307 2.276-45.511 18.204-96.711 45.511-126.293 9.102-27.307 472.178-29.582 497.209 0 26.169 29.582 43.236 80.782 45.511 126.293 0 155.876-130.844 282.169-292.409 283.307zM126.293 785.92c0-95.573 68.267-174.080 167.253-174.080 100.124 0 167.253 77.369 167.253 174.080 0 95.573-68.267 174.080-167.253 174.080-100.124 0-167.253-77.369-167.253-174.080zM0 288.711c2.276-45.511 18.204-96.711 45.511-126.293 4.551-14.791 125.156-21.618 246.898-21.618 21.618 117.191 106.951 213.902 220.729 253.724-52.338 31.858-87.609 86.471-97.849 152.462-36.409 15.929-77.369 26.169-120.604 26.169v0c0 0-1.138 0-1.138 0s-1.138 0-1.138 0v0c-161.564-2.276-292.409-128.569-292.409-284.444z" />
</font>
</defs>
</svg>
