<svg width="35" height="35" viewBox="0 0 35 35" fill="none" xmlns="http://www.w3.org/2000/svg">
<circle cx="17.5" cy="17.5" r="16.5" stroke="currentColor" stroke-width="2"/>
<path d="M24.7869 11H10.6331C9.73116 11 9 11.7275 9 12.625V22.375C9 23.2725 9.73116 24 10.6331 24H24.7869C25.6888 24 26.42 23.2725 26.42 22.375V12.625C26.42 11.7275 25.6888 11 24.7869 11ZM24.7869 12.625V14.0064C24.024 14.6246 22.8078 15.5858 20.2078 17.6116C19.6348 18.06 18.4998 19.1374 17.71 19.1249C16.9204 19.1376 15.785 18.0598 15.2122 17.6116C12.6126 15.5861 11.3961 14.6247 10.6331 14.0064V12.625H24.7869ZM10.6331 22.375V16.0916C11.4127 16.7095 12.5183 17.5765 14.2035 18.8895C14.9471 19.472 16.2494 20.7578 17.71 20.75C19.1634 20.7578 20.4492 19.4906 21.2162 18.8898C22.9013 17.5768 24.0072 16.7095 24.7869 16.0916V22.375H10.6331Z" fill="currentColor"/>
</svg>
