<svg width="35" height="35" viewBox="0 0 35 35" fill="none" xmlns="http://www.w3.org/2000/svg">
<circle cx="17.5" cy="17.5" r="16.5" stroke="currentColor" stroke-width="2"/>
<path d="M11.1633 14.2554H14.1552V23.625H11.1633V14.2554ZM12.6875 9.625C13.6472 9.625 14.4375 10.3876 14.4375 11.3137C14.4375 12.2398 13.6472 13.0024 12.6875 13.0024C11.7278 13.0024 10.9375 12.2398 10.9375 11.3137C10.9375 10.3876 11.7278 9.625 12.6875 9.625Z" fill="currentColor"/>
<path d="M15.75 14.2734H18.5558V15.5313H18.6108C18.9959 14.7656 19.9862 14 21.4165 14C24.3874 14 24.9375 15.9688 24.9375 18.4844V23.625H22.0217V19.0313C22.0217 17.9375 22.0217 16.5156 20.4813 16.5156C18.9409 16.5156 18.7208 17.7187 18.7208 18.9219V23.5703H15.75V14.2734Z" fill="currentColor"/>
</svg>
