<svg width="35" height="35" viewBox="0 0 35 35" fill="none" xmlns="http://www.w3.org/2000/svg">
<circle cx="17.5" cy="17.5" r="16.5" stroke="currentColor" stroke-width="2"/>
<path d="M26.2504 12.1571C25.6201 12.4406 24.946 12.6296 24.2408 12.7115C24.9648 12.2768 25.5202 11.5837 25.7823 10.7583C25.1021 11.1616 24.3532 11.4577 23.5543 11.6152C22.9178 10.9284 22.0066 10.5 21.0018 10.5C19.0672 10.5 17.5007 12.0815 17.5007 14.0347C17.5007 14.3119 17.5319 14.5828 17.5943 14.8411C14.6798 14.6899 12.1024 13.2849 10.3736 11.149C10.0741 11.6719 9.89934 12.2768 9.89934 12.9257C9.89934 14.1544 10.5172 15.2318 11.4596 15.8681C10.8854 15.8492 10.3487 15.6917 9.87438 15.4271C9.87438 15.4397 9.87438 15.4586 9.87438 15.4712C9.87438 17.185 11.0789 18.6089 12.6828 18.9365C12.3894 19.0185 12.0774 19.0626 11.7591 19.0626C11.5344 19.0626 11.316 19.0374 11.0976 18.9995C11.5407 20.4046 12.8388 21.4253 14.3678 21.4568C13.1695 22.4019 11.6593 22.9689 10.0179 22.9689C9.73708 22.9689 9.45624 22.95 9.18164 22.9185C10.7294 23.9203 12.5704 24.5063 14.5488 24.5063C20.9893 24.5063 24.5092 19.1193 24.5092 14.4505C24.5092 14.2993 24.5029 14.1418 24.4967 13.9905C25.1894 13.4865 25.7823 12.8627 26.2504 12.1571Z" fill="currentColor"/>
</svg>
