<?xml version="1.0" encoding="utf-8"?>
<!-- Generator: Adobe Illustrator 12.0.1, SVG Export Plug-In . SVG Version: 6.00 Build 51448)  -->
<!DOCTYPE svg PUBLIC "-//W3C//DTD SVG 1.1//EN" "http://www.w3.org/Graphics/SVG/1.1/DTD/svg11.dtd" [
	<!ENTITY ns_svg "http://www.w3.org/2000/svg">
	<!ENTITY ns_xlink "http://www.w3.org/1999/xlink">
]>
<svg  version="1.1" id="Layer_1" xmlns="&ns_svg;" xmlns:xlink="&ns_xlink;" width="377.025" height="83.086"
	 viewBox="0 0 377.025 83.086" overflow="visible" enable-background="new 0 0 377.025 83.086" xml:space="preserve">
<g>
	<path fill="#005CAB" d="M8.732,0.99h19.846c7.506-0.117,12.396,2.85,12.396,10.882c0,5.646-3.957,10.36-9.543,11.175v0.116
		c3.433,1.048,4.307,4.074,4.307,7.333c0,1.863-0.293,4.656-0.293,7.217c0,1.864,0.119,3.61,0.583,4.833h-8.904
		c-0.234-0.989-0.409-1.863-0.409-2.794c0-2.794,0.465-5.645,0.465-8.439c0-4.016-2.384-5.005-5.996-5.005H12.57L9.138,42.543H0
		L8.732,0.99z M13.97,19.788h8.439c4.831-0.06,9.429-1.92,9.429-6.578c0-4.481-3.144-5.121-6.751-5.121h-8.673L13.97,19.788z"/>
	<polygon fill="#005CAB" points="50.753,0.989 82.47,0.989 80.901,8.671 58.317,8.671 56.455,17.576 77.349,17.576 75.835,24.677 
		54.941,24.677 52.788,34.862 75.72,34.862 74.091,42.543 42.02,42.543 	"/>
	<path fill="#005CAB" d="M112.269,38.295h-0.116c-2.736,3.725-6.635,5.239-10.477,5.239c-11.641,0-18.451-6.693-18.451-18.391
		C83.226,11.697,91.898,0,105.924,0c9.722,0,17.636,4.539,17.636,14.724h-9.138c-0.234-5.006-3.377-7.043-8.439-7.043
		c-9.369,0-13.62,9.486-13.62,17.461c0,5.703,2.793,10.709,9.429,10.709c6.924,0,9.953-3.668,11.526-8.963h-9.604l1.455-6.811
		h17.633l-4.772,22.466h-5.761V38.295z"/>
	<polygon fill="#005CAB" points="133.744,0.989 165.465,0.989 163.892,8.671 141.309,8.671 139.45,17.576 160.344,17.576 
		158.831,24.677 137.936,24.677 135.782,34.862 158.712,34.862 157.083,42.543 125.015,42.543 	"/>
	<polygon fill="#005CAB" points="172.622,0.989 182.05,0.989 193.342,30.555 193.457,30.555 199.396,0.989 207.776,0.989 
		198.987,42.543 189.851,42.543 178.442,13.385 178.327,13.385 172.391,42.543 163.833,42.543 	"/>
	<polygon fill="#005CAB" points="215.69,0.989 247.414,0.989 245.839,8.671 223.256,8.671 221.396,17.576 242.291,17.576 
		240.778,24.677 219.883,24.677 217.729,34.862 240.659,34.862 239.028,42.543 206.962,42.543 	"/>
	<path fill="#005CAB" d="M254.513,0.99h19.846c7.506-0.117,12.396,2.85,12.396,10.882c0,5.646-3.957,10.36-9.545,11.175v0.116
		c3.434,1.048,4.307,4.074,4.307,7.333c0,1.863-0.293,4.656-0.293,7.217c0,1.864,0.119,3.61,0.584,4.833h-8.904
		c-0.232-0.989-0.408-1.863-0.408-2.794c0-2.794,0.464-5.645,0.464-8.439c0-4.016-2.383-5.005-5.994-5.005h-8.612l-3.434,16.238
		h-9.139L254.513,0.99z M259.75,19.788h8.438c4.83-0.06,9.43-1.92,9.43-6.578c0-4.481-3.145-5.121-6.751-5.121h-8.675L259.75,19.788
		z"/>
	<path fill="#005CAB" d="M312.886,0c11.231,0,18.447,6.168,18.447,17.81c0,13.677-8.145,25.724-22.694,25.724
		c-11.642,0-18.452-6.692-18.452-18.391C290.187,11.697,298.86,0,312.886,0 M308.753,35.852c8.964,0,13.445-9.544,13.445-17.402
		c0-5.821-2.562-10.768-9.253-10.768c-9.372,0-13.62,9.486-13.62,17.46C299.326,30.846,302.119,35.852,308.753,35.852"/>
	<polygon fill="#005CAB" points="341.87,0.989 351.299,0.989 362.59,30.555 362.706,30.555 368.642,0.989 377.025,0.989 
		368.236,42.543 359.098,42.543 347.691,13.385 347.576,13.385 341.636,42.543 333.082,42.543 	"/>
	<rect x="89.763" y="67.18" fill="#666666" width="2.116" height="15.906"/>
	<path fill="#666666" d="M120.752,67.18c1.515,0,2.699,0.371,3.554,1.113c0.854,0.742,1.281,1.76,1.281,3.053
		c0,0.965-0.22,1.812-0.658,2.541c-0.438,0.727-1.139,1.226-2.105,1.49v0.047c0.46,0.088,0.836,0.236,1.125,0.443
		c0.29,0.209,0.52,0.457,0.69,0.746c0.17,0.291,0.297,0.613,0.38,0.971c0.08,0.355,0.143,0.728,0.188,1.112
		c0.03,0.386,0.052,0.779,0.068,1.181c0.014,0.401,0.05,0.797,0.111,1.182c0.059,0.389,0.145,0.755,0.256,1.104
		c0.112,0.35,0.278,0.657,0.501,0.926h-2.361c-0.149-0.164-0.25-0.387-0.302-0.67c-0.052-0.28-0.085-0.598-0.1-0.945
		c-0.015-0.35-0.03-0.725-0.044-1.126c-0.015-0.4-0.06-0.794-0.133-1.181c-0.061-0.387-0.134-0.752-0.223-1.103
		c-0.09-0.351-0.231-0.653-0.424-0.913c-0.193-0.261-0.445-0.469-0.758-0.625c-0.311-0.156-0.727-0.232-1.247-0.232h-5.168v6.795
		h-2.117V67.18H120.752z M121.198,74.4c0.445-0.075,0.836-0.219,1.169-0.435c0.335-0.217,0.602-0.506,0.802-0.869
		c0.201-0.364,0.301-0.836,0.301-1.416c0-0.803-0.223-1.455-0.668-1.961c-0.446-0.504-1.167-0.758-2.162-0.758h-5.257v5.549h4.411
		C120.285,74.51,120.752,74.473,121.198,74.4"/>
	<polygon fill="#666666" points="157.334,67.18 157.334,68.961 148.467,68.961 148.467,74.019 156.732,74.019 156.732,75.801 
		148.467,75.801 148.467,81.305 157.401,81.305 157.401,83.086 146.35,83.086 146.35,67.18 	"/>
	<polygon fill="#666666" points="179.902,67.18 179.902,81.305 188.324,81.305 188.324,83.086 177.786,83.086 177.786,67.18 	"/>
	<path fill="#666666" d="M214.656,67.18l6.216,15.906h-2.339l-1.737-4.789h-6.729l-1.782,4.789h-2.16l6.192-15.906H214.656z
		 M216.125,76.515l-2.651-7.419h-0.043l-2.695,7.419H216.125z"/>
	<polygon fill="#666666" points="242.481,67.18 250.858,80.081 250.903,80.081 250.903,67.18 252.908,67.18 252.908,83.086 
		250.591,83.086 242.281,70.323 242.237,70.323 242.237,83.086 240.231,83.086 240.231,67.18 	"/>
	<path fill="#666666" d="M279.619,67.18c2.45,0,4.338,0.623,5.659,1.871c1.322,1.246,1.982,3.148,1.982,5.703
		c0,1.336-0.146,2.521-0.445,3.555c-0.297,1.031-0.756,1.9-1.383,2.605c-0.623,0.707-1.416,1.244-2.383,1.614
		c-0.965,0.372-2.109,0.558-3.432,0.558h-5.457V67.18H279.619z M279.798,81.305c0.238,0,0.533-0.02,0.891-0.057
		c0.356-0.035,0.736-0.125,1.138-0.268c0.399-0.141,0.799-0.346,1.192-0.611c0.394-0.269,0.744-0.632,1.058-1.094
		c0.312-0.459,0.567-1.035,0.769-1.727c0.2-0.69,0.301-1.525,0.301-2.506c0-0.951-0.094-1.801-0.277-2.551
		c-0.186-0.752-0.491-1.39-0.914-1.916c-0.424-0.527-0.969-0.929-1.637-1.203c-0.67-0.274-1.492-0.414-2.474-0.414h-3.562v12.345
		L279.798,81.305L279.798,81.305z"/>
</g>
</svg>
