<?xml version="1.0" encoding="iso-8859-1"?>
<!-- Generator: Adobe Illustrator 19.0.0, SVG Export Plug-In . SVG Version: 6.00 Build 0)  -->
<svg version="1.1" id="Capa_1" xmlns="http://www.w3.org/2000/svg" xmlns:xlink="http://www.w3.org/1999/xlink" x="0px" y="0px"
	 viewBox="-49 202 512 395" style="enable-background:new -49 202 512 395;" xml:space="preserve">
<path class="icon-color-3" visibility="hidden"  d="M433,257H21c-11.046,0-20,8.954-20,20v280c0,11.046,8.954,20,20,20h412c11.046,0,20-8.954,20-20V277
	C453,265.954,444.046,257,433,257z"/>
<path class="icon-color-2" visibility="hidden"  d="M381,217H-19c-11.05,0-20,8.95-20,20v280c0,11.05,8.95,20,20,20h400c11.05,0,20-8.95,20-20V237
	C401,225.95,392.05,217,381,217z"/>
<rect x="-39" y="277" class="icon-color-1" visibility="hidden"  width="440" height="60"/>
<path class="icon-color-3" visibility="hidden"  d="M301,397c22.09,0,40,17.91,40,40s-17.91,40-40,40c-11.95,0-22.67-5.24-30-13.54l-0.01-0.01
	C277.22,456.4,281,447.14,281,437s-3.78-19.4-10.01-26.45l0.01-0.01C278.33,402.24,289.05,397,301,397z"/>
<path class="icon-color-1" visibility="hidden"  d="M270.99,410.55C277.22,417.6,281,426.86,281,437s-3.78,19.4-10.01,26.45
	C263.67,471.76,252.95,477,241,477c-22.09,0-40-17.91-40-40s17.91-40,40-40C252.95,397,263.67,402.24,270.99,410.55z"/>
<path class="icon-color-outline" fill="#303030" d="M433,247h-22v-10c0-16.542-13.458-30-30-30H-19c-16.542,0-30,13.458-30,30v280
	c0,16.542,13.458,30,30,30h10v10c0,16.542,13.458,30,30,30h412c16.542,0,30-13.458,30-30V277C463,260.458,449.542,247,433,247z
	 M-29,287h420v40H-29V287z M-19,227h400c5.514,0,10,4.486,10,10v30H-29v-30C-29,231.486-24.514,227-19,227z M-29,517V347h420v170
	c0,5.514-4.486,10-10,10H-19C-24.514,527-29,522.514-29,517z M443,557c0,5.514-4.486,10-10,10H21c-5.514,0-10-4.486-10-10v-10h370
	c16.542,0,30-13.458,30-30V267h22c5.514,0,10,4.486,10,10V557z"/>
<path class="icon-color-outline" fill="#303030" d="M21,407h40c5.522,0,10-4.478,10-10s-4.478-10-10-10H21c-5.522,0-10,4.478-10,10S15.478,407,21,407z"
	/>
<path class="icon-color-outline" fill="#303030" d="M101,407h40c5.522,0,10-4.478,10-10s-4.478-10-10-10h-40c-5.522,0-10,4.478-10,10S95.478,407,101,407
	z"/>
<path class="icon-color-outline" fill="#303030" d="M21,467h80c5.522,0,10-4.478,10-10s-4.478-10-10-10H21c-5.522,0-10,4.478-10,10S15.478,467,21,467z"
	/>
<path class="icon-color-outline" fill="#303030" d="M241,487c10.908,0,21.418-3.578,29.996-10.018C279.586,483.423,290.098,487,301,487
	c27.57,0,50-22.43,50-50s-22.43-50-50-50c-10.903,0-21.415,3.577-30.005,10.019C262.414,390.577,251.905,387,241,387
	c-27.57,0-50,22.43-50,50S213.43,487,241,487z M331,437c0,16.542-13.458,30-30,30c-5.989,0-11.783-1.8-16.677-5.072
	c4.34-7.532,6.677-16.11,6.677-24.928s-2.336-17.396-6.677-24.928C289.217,408.8,295.011,407,301,407
	C317.542,407,331,420.458,331,437z M241,407c8.603,0,16.799,3.703,22.486,10.16c0.004,0.004,0.007,0.008,0.011,0.012
	C268.335,422.647,271,429.689,271,437s-2.665,14.353-7.514,19.84C257.799,463.297,249.603,467,241,467c-16.542,0-30-13.458-30-30
	S224.458,407,241,407z"/>
</svg>
