<?xml version="1.0" encoding="iso-8859-1"?>
<!-- Generator: Adobe Illustrator 19.0.0, SVG Export Plug-In . SVG Version: 6.00 Build 0)  -->
<svg version="1.1" id="Capa_1" xmlns="http://www.w3.org/2000/svg" xmlns:xlink="http://www.w3.org/1999/xlink" x="0px" y="0px"
	 viewBox="-49 141 512 512" style="enable-background:new -49 141 512 512;" xml:space="preserve">
<path class="icon-color-other" fill="#FFFFFF" visibility="hidden" d="M334.54,589V444.983V359V205H335l0,0c0-29.823-24.177-54-54-54l0,0l0,0c-29.823,0-54,24.177-54,54
	l0,0H-1v154v85.983V589c0,29.823,24.177,54,54,54l0,0l0,0h329.567l-0.043-0.342C355.534,639.665,334.54,616.789,334.54,589z"/>
<g>
	<path class="icon-color-2" visibility="hidden"  d="M335,543h108v46l0,0c0,29.823-24.177,54-54,54l0,0l0,0c-29.823,0-54-24.177-54-54l0,0V543z"/>
	<path class="icon-color-2" visibility="hidden"  d="M281,151H15c-29.823,0-54,24.177-54,54l0,0h266l0,0C227,175.177,251.177,151,281,151z"/>
</g>
<path class="icon-color-1" visibility="hidden"  d="M435.561,205.05L435.561,205.05c-49.834-1.252-81.635,21.137-111.02,73.106
	c0,0-45.567,78.923-65.706,113.805c-27.145,47.017,12.794,97.038,12.794,97.038l0.002,0.001c0,0,63.29,9.578,90.435-37.439
	c20.139-34.882,65.705-113.806,65.705-113.806c30.315-51.432,33.803-90.168,7.802-132.699l0,0L435.561,205.05z"/>
<polygon class="icon-color-2" visibility="hidden"  points="318.516,289.503 340.164,370.295 420.957,348.647 442.254,299.556 369.796,318.971
	349.669,243.858 "/>
<path class="icon-color-1" visibility="hidden"  d="M310.109,422.668l-21.873-81.63c-10.883,18.849-21.904,37.938-29.401,50.924
	C231.69,438.979,271.629,489,271.629,489l0.002,0.001c0,0,63.29,9.578,90.435-37.439c7.461-12.923,18.412-31.891,29.244-50.652
	L310.109,422.668z"/>
<path class="icon-color-2" visibility="hidden"  d="M189.003,269c-10.872,0-20.677,4.742-27.603,12.341C154.474,273.742,144.669,269,133.797,269
	c-20.985,0-37.997,17.662-37.997,39.449c0,36.726,65.6,72.551,65.6,72.551s65.6-35.826,65.6-72.551
	C227,286.662,209.988,269,189.003,269z"/>
<path class="icon-color-outline" fill="#303030" d="M-1,410.375c5.523,0,10-4.477,10-10v-0.292c0-5.523-4.477-10-10-10s-10,4.477-10,10v0.292
	C-11,405.898-6.523,410.375-1,410.375z"/>
<path class="icon-color-outline" fill="#303030" d="M207.003,463.006H81.997c-5.523,0-10,4.477-10,10s4.477,10,10,10h125.005c5.523,0,10-4.477,10-10
	S212.525,463.006,207.003,463.006z"/>
<path class="icon-color-outline" fill="#303030" d="M207.003,512.013h-95.411c-5.523,0-10,4.477-10,10s4.477,10,10,10h95.411c5.523,0,10-4.477,10-10
	S212.525,512.013,207.003,512.013z"/>
<path class="icon-color-outline" fill="#303030" d="M65.558,522.012c0,5.523,4.477,10,10,10h0.124c5.523,0,10-4.477,10-10c0-5.523-4.477-10-10-10h-0.124
	C70.035,512.012,65.558,516.489,65.558,522.012z"/>
<path class="icon-color-outline" fill="#303030" d="M370.727,456.562l65.66-113.729c16.515-28.02,24.898-51.568,26.383-74.108
	c1.535-23.299-4.57-45.832-18.663-68.885c-0.924-1.511-2.232-2.75-3.791-3.589l-0.013-0.007c-1.382-0.744-2.92-1.153-4.49-1.192
	c-27.011-0.669-49.577,5.301-68.988,18.279c-7.651,5.116-14.87,11.33-21.824,18.781V205c0-35.29-28.71-64-64-64H15
	c-35.29,0-64,28.71-64,64c0,5.523,4.477,10,10,10h28v144c0,5.523,4.477,10,10,10s10-4.477,10-10V215h218c5.523,0,10-4.477,10-10
	c0-24.262,19.738-44,44-44s44,19.738,44,44v53.078c-3.059,4.709-6.093,9.727-9.119,15.078l-65.706,113.805
	c-5.233,9.063-8.295,18.167-9.776,27.039H81.997c-5.523,0-10,4.477-10,10s4.477,10,10,10h157.536
	c1.836,24.941,13.768,45.905,20.219,55.576l-38.344,66.414c-2.762,4.783-1.123,10.899,3.66,13.66
	c1.575,0.909,3.294,1.341,4.991,1.341c3.456,0,6.817-1.793,8.669-5.001l38.344-66.414c2.319,0.15,5.135,0.264,8.342,0.264
	c10.403,0,24.882-1.208,39.586-6.296V589c0,17.033,6.702,32.521,17.59,44H53c-24.262,0-44-19.738-44-44V444.982
	c0-5.523-4.477-10-10-10s-10,4.477-10,10V589c0,35.29,28.71,64,64,64h335.565c0.05,0,0.09-0.007,0.139-0.008
	c0.099,0,0.197,0.008,0.296,0.008c35.29,0,64-28.71,64-64v-46c0-5.523-4.477-10-10-10h-97.925c-0.025,0-0.049,0.004-0.074,0.004
	v-49.181C354.731,477.462,363.732,468.678,370.727,456.562z M217.787,195H-27.854c4.54-19.46,22.031-34,42.854-34h219.59
	C225.876,170.187,219.845,181.938,217.787,195z M345.074,553H433v36c0,24.262-19.738,44-44,44c-24.261,0-44-19.738-44-44v-36.004
	C345.025,552.996,345.049,553,345.074,553z M333.246,283.078c3.291-5.82,6.586-11.213,9.91-16.212
	c0.121-0.171,0.234-0.346,0.344-0.525c0.44-0.657,0.882-1.289,1.322-1.932l14.242,53.152l-15.49,26.829l-14.495-54.096
	L333.246,283.078z M376.388,327.558l53.143-14.239c-2.981,6.231-6.441,12.689-10.419,19.437l-4.12,7.136l-54.094,14.494
	L376.388,327.558z M435.176,225.733c9.143,20.854,10.36,41.241,3.446,64.444l-48.093,12.886L435.176,225.733z M417.857,215.731
	l-44.65,77.336l-12.89-48.105C376.948,227.379,395.215,218.237,417.857,215.731z M267.495,396.961l47.443-82.174l14.495,54.097
	l-15.49,26.829l-5.307-19.807c-1.43-5.334-6.913-8.502-12.248-7.071c-5.334,1.429-8.5,6.913-7.071,12.248l10.484,39.125
	l-28.578,49.498C262.452,453.333,251.813,424.124,267.495,396.961z M317.123,430.206l39.121-10.483
	c5.334-1.429,8.5-6.913,7.071-12.248c-1.43-5.334-6.912-8.503-12.248-7.071l-19.802,5.306l15.49-26.829l54.094-14.495
	l-47.443,82.175c-15.688,27.171-46.302,32.551-64.859,33.139L317.123,430.206z"/>
<path class="icon-color-outline" fill="#303030" d="M156.607,389.776c1.494,0.816,3.143,1.224,4.793,1.224s3.299-0.408,4.793-1.224
	c0.704-0.384,17.434-9.575,34.375-23.57C224.743,346.237,237,326.805,237,308.449C237,281.183,215.469,259,189.003,259
	c-9.914,0-19.577,3.208-27.603,9.007c-8.025-5.798-17.688-9.007-27.603-9.007c-26.466,0-47.998,22.183-47.998,49.449
	c0,18.356,12.257,37.789,36.432,57.757C139.173,380.201,155.903,389.392,156.607,389.776z M105.8,308.449
	c0-16.238,12.56-29.449,27.998-29.449c7.699,0,14.877,3.224,20.212,9.077c1.895,2.079,4.578,3.264,7.391,3.264
	s5.496-1.185,7.391-3.264c5.335-5.853,12.514-9.077,20.212-9.077C204.44,279,217,292.21,217,308.449
	c0,22.851-37.166,49.908-55.605,61.012C142.95,358.374,105.8,331.357,105.8,308.449z"/>
</svg>
