<?xml version="1.0" encoding="iso-8859-1"?>
<!-- Generator: Adobe Illustrator 19.0.0, SVG Export Plug-In . SVG Version: 6.00 Build 0)  -->
<svg version="1.1" id="Capa_1" xmlns="http://www.w3.org/2000/svg" xmlns:xlink="http://www.w3.org/1999/xlink" x="0px" y="0px"
	 viewBox="-49 141 512 512" style="enable-background:new -49 141 512 512;" xml:space="preserve">
<path class="icon-color-2" visibility="hidden"  d="M250.33,525.231l-0.39-0.3l-85.779-0.01l-0.39,0.3c-67.359,7.07-116.769,30.26-116.769,57.779
	C47.002,616.14,118.631,643,207,643s159.998-26.86,159.998-59.999C366.999,555.491,317.639,532.311,250.33,525.231z"/>
<path class="icon-color-1" visibility="hidden"  d="M208.2,151.005c88.369,0.67,159.458,72.839,158.798,161.198
	c-0.56,74.829-45.08,118.899-117.059,212.728c-13.4,17.46-27.75,36.64-42.94,58.069c-15.15-21.45-29.47-40.63-42.84-58.079
	C91.262,429.842,46.432,386.463,47.002,309.803C47.672,221.434,119.841,150.345,208.2,151.005z M267,311.453
	c0.25-33.14-26.41-60.199-59.549-60.449c-33.14-0.25-60.199,26.41-60.449,59.549c-0.25,33.14,26.41,60.199,59.549,60.449
	S266.75,344.593,267,311.453z"/>
<path class="icon-color-outline" fill="#303030" d="M207.83,201.004c5.52,0.04,10.03-4.4,10.07-9.92c0.04-5.52-4.4-10.03-9.92-10.08
	c-5.53-0.04-10.04,4.41-10.08,9.93C197.861,196.454,202.301,200.964,207.83,201.004z"/>
<path class="icon-color-outline" fill="#303030" d="M207.526,241.004c-38.611-0.274-70.232,30.875-70.524,69.474
	c-0.291,38.597,30.875,70.233,69.474,70.524c0.179,0.001,0.357,0.002,0.536,0.002c38.353,0,69.698-31.056,69.988-69.476
	C277.291,272.933,246.125,241.295,207.526,241.004z M207.009,361.005c-0.126,0-0.258-0.001-0.384-0.002
	c-27.571-0.208-49.833-22.806-49.625-50.375c0.207-27.445,22.595-49.627,49.991-49.627c0.126,0,0.258,0.001,0.384,0.002
	c27.571,0.208,49.833,22.806,49.625,50.374C256.793,338.823,234.405,361.005,207.009,361.005z"/>
<path class="icon-color-outline" fill="#303030" d="M250.631,188.589c-5.202-1.846-10.921,0.879-12.767,6.085c-1.845,5.206,0.88,10.921,6.085,12.767
	c44.047,15.611,73.402,57.562,73.05,104.389c-0.041,5.522,4.402,10.033,9.925,10.075c0.025,0,0.051,0,0.077,0
	c5.486,0,9.956-4.428,9.998-9.925C337.415,256.633,302.707,207.046,250.631,188.589z"/>
<path class="icon-color-outline" fill="#303030" d="M376.999,312.278C377.703,218.035,301.221,141,206.984,141c-93.136,0-169.274,75.428-169.982,168.728
	c-0.572,76.935,41.767,121.519,108.739,207.7C79.117,527.384,37.002,552.401,37.002,583c0,20.497,18.946,38.89,53.349,51.79
	c31.313,11.742,72.74,18.209,116.649,18.209s85.336-6.467,116.649-18.209c34.403-12.901,53.349-31.294,53.349-51.791
	c0-30.583-42.076-55.593-108.641-65.557C334.871,431.827,376.438,387.183,376.999,312.278z M356.999,583.001
	c0,23.603-64.147,50-149.999,50s-149.999-26.397-149.999-50c0-17.504,38.348-39.616,102.826-47.273
	c14.253,18.701,26.749,35.691,39.005,53.043c1.872,2.65,4.914,4.228,8.159,4.23c0.003,0,0.006,0,0.009,0
	c3.242,0,6.283-1.572,8.158-4.217c12.14-17.126,24.978-34.535,39.109-53.045C318.685,543.403,356.999,565.508,356.999,583.001z
	 M242.008,518.842c-12.553,16.356-24.081,31.82-34.993,46.947c-10.88-15.136-22.178-30.323-34.919-46.953
	C98.811,423.253,56.46,382.729,57.002,309.879C57.626,227.55,124.8,161,206.986,161c83.159,0,150.634,67.988,150.013,151.129
	C356.467,383.263,312.385,427.099,242.008,518.842z"/>
</svg>
