<?xml version="1.0" encoding="iso-8859-1"?>
<svg version="1.1" id="Capa_1" xmlns="http://www.w3.org/2000/svg" xmlns:xlink="http://www.w3.org/1999/xlink" x="0px" y="0px"
	 viewBox="-49 141 512 512" style="enable-background:new -49 141 512 512;" xml:space="preserve">
<g>
	<polygon class="icon-color-1" visibility="hidden" points="351.999,559.494 429.427,531.195 351.999,319.343 	"/>
	<polygon class="icon-color-1" visibility="hidden" points="306.409,194.604 290.473,151.002 171.173,194.604 	"/>
	<polygon class="icon-color-1" visibility="hidden" points="26.307,247.55 -15.427,262.804 26.307,376.996 	"/>
	<polygon class="icon-color-1" visibility="hidden" points="107.59,599.395 123.527,642.997 242.827,599.395 	"/>
</g>
<path class="icon-color-2" visibility="hidden" d="M176.041,216.062l-20.707-16.608c-3.268-2.621-3.535-7.5-0.573-10.463l0.003-0.003
	c2.747-2.747,2.747-7.202,0-9.949l-21.976-21.975L79.701,210.15l21.978,21.978c2.748,2.748,7.202,2.747,9.95-0.001l0,0
	c2.962-2.963,7.842-2.696,10.463,0.572l16.607,20.706c2.621,3.268,7.5,3.535,10.463,0.573l27.453-27.454
	C179.577,223.562,179.309,218.683,176.041,216.062z"/>
<path class="icon-color-other" fill="#FFF6E1" visibility="hidden" d="M152.729,194.594c0.166,1.829,1.043,3.607,2.605,4.86l20.707,16.608
	c3.268,2.621,3.535,7.5,0.573,10.463l-27.453,27.454c-2.962,2.962-7.841,2.695-10.463-0.573l-16.607-20.707
	c-2.621-3.268-7.501-3.535-10.463-0.572c-2.747,2.748-7.202,2.748-9.95,0.001L79.701,210.15l15.547-15.546h-68.94v404.79h325.692
	v-404.79L152.729,194.594z"/>
<path class="icon-color-outline" fill="#303030" d="M438.82,527.762l-76.821-210.191V194.603c0-5.522-4.477-10-10-10l-38.598-0.002l-13.536-37.033
	c-1.896-5.188-7.637-7.853-12.825-5.96l-117.617,42.987h-2.633c0.154-4.554-1.488-9.158-4.956-12.627l-15.031-15.031
	c2.669-3.894,2.281-9.255-1.178-12.714c-3.905-3.906-10.236-3.905-14.143,0l-40.379,40.379H26.308c-5.523,0-10,4.477-10,10v45.954
	l-35.169,12.855c-2.491,0.911-4.519,2.773-5.636,5.179c-1.118,2.405-1.234,5.156-0.324,7.646l41.128,112.53v220.629
	c0,5.523,4.477,10,10,10h74.291l13.536,37.035c1.482,4.055,5.313,6.57,9.393,6.57c1.14,0,2.299-0.197,3.432-0.61l117.638-42.995
	h107.401c5.522,0,10-4.477,10-10v-32.909l70.861-25.899c2.491-0.911,4.519-2.773,5.636-5.178
	C439.614,533.004,439.73,530.253,438.82,527.762z M129.892,226.442c-1.058-1.319-2.306-2.448-3.677-3.385
	c-0.099-0.068-0.19-0.146-0.29-0.212c-0.08-0.052-0.166-0.093-0.247-0.143c-2.428-1.529-5.224-2.45-8.144-2.61
	c-0.31-0.017-0.619-0.025-0.928-0.025c-0.089,0-0.177,0.009-0.266,0.01c-0.203,0.003-0.405,0.013-0.607,0.023
	c-0.255,0.013-0.509,0.03-0.762,0.055c-0.202,0.02-0.403,0.043-0.604,0.07c-0.252,0.034-0.503,0.073-0.753,0.118
	c-0.197,0.035-0.394,0.072-0.589,0.115c-0.252,0.054-0.501,0.116-0.749,0.182c-0.189,0.05-0.378,0.099-0.566,0.155
	c-0.252,0.076-0.501,0.161-0.749,0.249c-0.179,0.063-0.358,0.123-0.534,0.191c-0.256,0.1-0.506,0.211-0.757,0.323
	c-0.163,0.073-0.327,0.14-0.487,0.218c-0.273,0.132-0.539,0.278-0.804,0.424c-0.131,0.072-0.265,0.137-0.394,0.213
	c-0.391,0.229-0.774,0.472-1.147,0.733l-12.994-12.994l0,0l38.946-38.944l12.99,12.991c-2.168,3.101-3.264,6.869-3.054,10.698
	c0.005,0.098,0.025,0.194,0.032,0.292c0.006,0.103,0.002,0.206,0.012,0.31c0.019,0.212,0.063,0.419,0.09,0.629
	c0.035,0.275,0.069,0.55,0.117,0.823c0.051,0.286,0.118,0.568,0.184,0.851c0.069,0.296,0.135,0.592,0.219,0.883
	c0.07,0.241,0.154,0.475,0.235,0.712c0.109,0.322,0.215,0.643,0.343,0.958c0.08,0.197,0.174,0.386,0.261,0.58
	c0.152,0.338,0.303,0.676,0.476,1.004c0.09,0.169,0.193,0.33,0.289,0.496c0.192,0.334,0.382,0.669,0.596,0.99
	c0.113,0.169,0.241,0.328,0.36,0.493c0.217,0.301,0.429,0.604,0.665,0.891c0.177,0.215,0.374,0.414,0.562,0.62
	c0.2,0.22,0.39,0.448,0.602,0.657c0.41,0.406,0.841,0.791,1.292,1.155c0.005,0.004,0.01,0.01,0.016,0.014l18.126,14.538
	l-22.774,22.775L129.892,226.442z M284.513,163.827l7.594,20.775l-64.426-0.003L284.513,163.827z M-2.602,268.763l18.911-6.911
	v58.652L-2.602,268.763z M129.486,630.172l-7.594-20.777h64.442L129.486,630.172z M341.998,589.395L341.998,589.395H36.308l0,0
	V204.603l0,0l0,0h34.798l-4.243,4.243c-3.905,3.905-3.905,10.237,0,14.142c1.953,1.953,4.512,2.929,7.071,2.929
	c1.975,0,3.947-0.588,5.643-1.751l15.031,15.033c2.816,2.816,6.443,4.524,10.355,4.907c0.559,0.055,1.123,0.082,1.692,0.082
	c0.43,0,0.857-0.016,1.281-0.047c2.241-0.166,4.391-0.773,6.361-1.765c0.641-0.323,1.268-0.679,1.867-1.084l14.734,18.37
	c1.891,2.357,4.359,4.145,7.123,5.22c1.658,0.645,3.423,1.032,5.234,1.131c0.311,0.017,0.62,0.025,0.929,0.025
	c0.153,0,0.304-0.018,0.457-0.023c0.271-0.007,0.541-0.02,0.81-0.04c0.307-0.023,0.612-0.056,0.917-0.096
	c0.27-0.035,0.538-0.072,0.805-0.12c0.302-0.054,0.601-0.121,0.899-0.191c0.261-0.061,0.522-0.122,0.779-0.196
	c0.3-0.086,0.595-0.186,0.89-0.288c0.247-0.085,0.495-0.167,0.737-0.264c0.3-0.119,0.592-0.256,0.885-0.392
	c0.227-0.106,0.457-0.205,0.679-0.32c0.303-0.157,0.594-0.335,0.888-0.51c0.201-0.12,0.406-0.231,0.602-0.36
	c0.32-0.21,0.625-0.442,0.931-0.674c0.155-0.118,0.318-0.224,0.47-0.347c0.451-0.366,0.886-0.754,1.3-1.169l6.656-6.656
	l13.255,13.255c1.953,1.953,4.512,2.929,7.071,2.929c2.559,0,5.119-0.977,7.071-2.929c3.905-3.905,3.905-10.237,0-14.142
	l-13.255-13.254l6.655-6.655c3.419-3.419,5.228-8.149,4.964-12.977c-0.265-4.828-2.58-9.333-6.352-12.358l-4.561-3.658h164.261
	c0.011,0-0.011,0,0,0l0,0l0,0v384.791H341.998z M361.998,545.192V375.834l54.603,149.402L361.998,545.192z"/>
<path class="icon-color-outline" fill="#303030" d="M311.588,333.94c-0.65,0-1.31-0.07-1.95-0.2s-1.27-0.32-1.87-0.57c-0.6-0.25-1.189-0.56-1.729-0.92
	c-0.55-0.36-1.061-0.78-1.521-1.24c-1.859-1.86-2.93-4.44-2.93-7.07c0-0.65,0.07-1.31,0.2-1.95c0.13-0.64,0.319-1.27,0.569-1.88
	c0.25-0.6,0.561-1.18,0.921-1.72c0.359-0.55,0.779-1.06,1.239-1.52c0.46-0.46,0.971-0.88,1.521-1.24c0.54-0.36,1.13-0.67,1.729-0.92
	c0.601-0.25,1.23-0.45,1.87-0.57c1.29-0.26,2.62-0.26,3.91,0c0.64,0.12,1.26,0.32,1.87,0.57c0.6,0.25,1.18,0.56,1.72,0.92
	c0.55,0.36,1.061,0.78,1.521,1.24c0.47,0.46,0.88,0.97,1.25,1.52c0.359,0.54,0.67,1.12,0.92,1.72c0.25,0.61,0.439,1.24,0.569,1.88
	c0.131,0.64,0.19,1.3,0.19,1.95c0,2.63-1.06,5.21-2.93,7.07c-0.46,0.46-0.971,0.88-1.521,1.24c-0.54,0.36-1.12,0.67-1.72,0.92
	c-0.61,0.25-1.23,0.44-1.87,0.57C312.898,333.869,312.248,333.94,311.588,333.94z"/>
<path class="icon-color-outline" fill="#303030" d="M275.304,333.939h-80.958c-5.523,0-10-4.477-10-10s4.477-10,10-10h80.958c5.522,0,10,4.477,10,10
	S280.827,333.939,275.304,333.939z"/>
<path class="icon-color-outline" fill="#303030" d="M311.592,375.032H194.346c-5.523,0-10-4.477-10-10c0-5.523,4.477-10,10-10h117.247
	c5.522,0,10,4.477,10,10C321.592,370.555,317.115,375.032,311.592,375.032z"/>
<circle class="icon-color-3" visibility="hidden" cx="110.668" cy="344.488" r="43.957"/>
<path class="icon-color-outline" fill="#303030" d="M110.67,398.443c-29.752,0-53.957-24.205-53.957-53.957s24.205-53.957,53.957-53.957
	c29.752,0,53.956,24.205,53.956,53.957S140.422,398.443,110.67,398.443z M110.67,310.528c-18.724,0-33.958,15.233-33.958,33.958
	s15.233,33.958,33.958,33.958s33.957-15.233,33.957-33.958S129.394,310.528,110.67,310.528z"/>
<path class="icon-color-outline" fill="#303030" d="M108.377,363.15c-1.273,0-2.558-0.244-3.782-0.744l-12.745-5.21
	c-5.112-2.09-7.562-7.928-5.472-13.041c2.09-5.112,7.929-7.561,13.041-5.472l6.591,2.694l12.625-12.625
	c3.905-3.905,10.237-3.906,14.142,0c3.905,3.906,3.906,10.237,0,14.142l-17.327,17.327
	C113.538,362.133,110.98,363.15,108.377,363.15z"/>
<path class="icon-color-outline" fill="#303030" d="M311.588,467.219c-0.65,0-1.31-0.07-1.95-0.2s-1.27-0.32-1.87-0.57s-1.189-0.56-1.729-0.92
	c-0.55-0.36-1.061-0.78-1.521-1.24c-0.46-0.46-0.88-0.97-1.239-1.52c-0.36-0.54-0.671-1.12-0.921-1.73
	c-0.25-0.6-0.439-1.23-0.569-1.87s-0.2-1.3-0.2-1.95s0.07-1.31,0.2-1.96c0.13-0.63,0.319-1.26,0.569-1.87
	c0.25-0.6,0.561-1.18,0.921-1.72c0.359-0.55,0.779-1.06,1.239-1.52s0.971-0.88,1.521-1.25c0.54-0.36,1.13-0.67,1.729-0.92
	c0.601-0.25,1.23-0.44,1.87-0.57c1.29-0.26,2.62-0.26,3.91,0c0.64,0.13,1.26,0.32,1.87,0.57c0.6,0.25,1.18,0.56,1.72,0.92
	c0.55,0.37,1.061,0.79,1.521,1.25c0.47,0.46,0.88,0.97,1.25,1.52c0.359,0.54,0.67,1.12,0.92,1.72c0.25,0.61,0.439,1.24,0.569,1.87
	c0.131,0.65,0.19,1.31,0.19,1.96s-0.06,1.31-0.19,1.95s-0.319,1.27-0.569,1.87c-0.25,0.61-0.561,1.19-0.92,1.73
	c-0.37,0.55-0.78,1.06-1.25,1.52c-0.46,0.46-0.971,0.88-1.521,1.24c-0.54,0.36-1.12,0.67-1.72,0.92c-0.61,0.25-1.23,0.44-1.87,0.57
	C312.898,467.149,312.248,467.219,311.588,467.219z"/>
<path class="icon-color-outline" fill="#303030" d="M275.304,467.217h-80.958c-5.523,0-10-4.477-10-10c0-5.523,4.477-10,10-10h80.958
	c5.522,0,10,4.477,10,10C285.304,462.74,280.827,467.217,275.304,467.217z"/>
<path class="icon-color-outline" fill="#303030" d="M311.592,508.308H194.346c-5.523,0-10-4.477-10-10c0-5.523,4.477-10,10-10h117.247
	c5.522,0,10,4.477,10,10C321.592,503.831,317.115,508.308,311.592,508.308z"/>
<circle class="icon-color-3" visibility="hidden" cx="110.668" cy="477.767" r="43.957"/>
<path class="icon-color-outline" fill="#303030" d="M110.67,531.72c-29.752,0-53.957-24.205-53.957-53.957c0-29.753,24.205-53.957,53.957-53.957
	c29.752,0,53.956,24.205,53.956,53.957C164.627,507.515,140.422,531.72,110.67,531.72z M110.67,443.805
	c-18.724,0-33.958,15.233-33.958,33.958s15.233,33.958,33.958,33.958s33.957-15.233,33.957-33.958S129.394,443.805,110.67,443.805z"
	/>
<path class="icon-color-outline" fill="#303030" d="M108.377,496.427c-1.273,0-2.558-0.244-3.782-0.744l-12.745-5.21
	c-5.112-2.09-7.562-7.928-5.472-13.041c2.09-5.112,7.929-7.56,13.041-5.472l6.591,2.694l12.625-12.625
	c3.905-3.905,10.237-3.906,14.142,0c3.905,3.906,3.906,10.237,0,14.142l-17.326,17.326
	C113.538,495.41,110.98,496.427,108.377,496.427z"/>
</svg>
