<?xml version="1.0" encoding="iso-8859-1"?>
<!-- Generator: Adobe Illustrator 19.0.0, SVG Export Plug-In . SVG Version: 6.00 Build 0)  -->
<svg version="1.1" id="Capa_1" xmlns="http://www.w3.org/2000/svg" xmlns:xlink="http://www.w3.org/1999/xlink" x="0px" y="0px"
	 viewBox="-49 141 512 512" style="enable-background:new -49 141 512 512;" xml:space="preserve">
<path class="icon-color-other" fill="#FFFFFF" visibility="hidden" d="M398.99,200.672v-17.667c0-17.673-14.327-31.999-31.999-31.999H46.998
	c-17.673,0-31.999,14.327-31.999,31.999v427.991c0,17.673,14.327,31.999,31.999,31.999h319.993
	c17.673,0,31.999-14.327,31.999-31.999V479.86V200.672z"/>
<path class="icon-color-outline" fill="#303030" d="M398.99,458.703c-5.522,0-10,4.477-10,10v142.292c0,12.131-9.869,22-22,22H46.998
	c-12.131,0-22-9.869-22-22v-22h24.167c18.748,0,33.999-15.252,33.999-33.999c0-18.748-15.252-33.999-33.999-33.999h-1
	c-5.522,0-10,4.477-10,10s4.478,10,10,10h1c7.72,0,14,6.28,14,14c0,7.72-6.28,14-14,14H24.998V431.127h24.167
	c18.748,0,33.999-15.252,33.999-33.999s-15.252-33.999-33.999-33.999h-1c-5.522,0-10,4.477-10,10c0,5.523,4.478,10,10,10h1
	c7.72,0,14,6.28,14,14c0,7.72-6.28,14-14,14H24.998v-137.87h24.167c18.748,0,33.999-15.252,33.999-33.999
	s-15.252-33.999-33.999-33.999h-1c-5.522,0-10,4.477-10,10c0,5.523,4.478,10,10,10h1c7.72,0,14,6.28,14,14s-6.28,14-14,14H24.998
	v-70.252c0-12.131,9.869-22,22-22h319.993c12.131,0,22,9.869,22,22v17.667c0,5.523,4.478,10,10,10s10-4.477,10-10v-17.667
	c0-23.159-18.841-41.999-41.999-41.999H46.998c-23.158,0-41.999,18.841-41.999,41.999v70.252h-20c-7.72,0-14-6.28-14-14
	s6.28-14,14-14c5.522,0,10-4.477,10-10c0-5.523-4.478-10-10-10C-33.748,205.259-49,220.51-49,239.258s15.252,33.999,33.999,33.999
	h20v137.87h-20c-7.72,0-14-6.28-14-14c0-7.72,6.28-14,14-14c5.522,0,10-4.477,10-10c0-5.523-4.478-10-10-10
	C-33.748,363.128-49,378.38-49,397.128s15.252,33.999,33.999,33.999h20v137.87h-20c-7.72,0-14-6.28-14-14c0-7.72,6.28-14,14-14
	c5.522,0,10-4.477,10-10s-4.478-10-10-10C-33.748,520.998-49,536.25-49,554.997c0,18.748,15.252,33.999,33.999,33.999h20v22
	c0,23.159,18.841,41.999,41.999,41.999h319.993c23.158,0,41.999-18.841,41.999-41.999V468.703
	C408.99,463.18,404.512,458.703,398.99,458.703z"/>
<path class="icon-color-outline" fill="#303030" d="M180.925,520.177c-1.86,1.87-2.93,4.44-2.93,7.07c0,2.64,1.069,5.21,2.93,7.08
	c1.86,1.86,4.44,2.92,7.07,2.92c2.63,0,5.21-1.06,7.069-2.92c1.86-1.87,2.931-4.44,2.931-7.08c0-2.63-1.07-5.2-2.931-7.07
	c-1.859-1.86-4.439-2.93-7.069-2.93C185.354,517.248,182.785,518.318,180.925,520.177z"/>
<path class="icon-color-outline" fill="#303030" d="M110.2,517.252c-5.522,0-10,4.477-10,10s4.478,10,10,10h39.796c5.522,0,10-4.477,10-10
	s-4.478-10-10-10H110.2z"/>
<path class="icon-color-outline" fill="#303030" d="M216.994,439.254c0-5.523-4.478-10-10-10H110.2c-5.522,0-10,4.477-10,10s4.478,10,10,10h96.795
	C212.516,449.253,216.994,444.776,216.994,439.254z"/>
<path class="icon-color-outline" fill="#303030" d="M255.019,351.255c0-5.523-4.478-10-10-10H110.2c-5.522,0-10,4.477-10,10c0,5.523,4.478,10,10,10
	h134.82C250.543,361.255,255.019,356.778,255.019,351.255z"/>
<path class="icon-color-outline" fill="#303030" d="M290.044,263.257c0-5.523-4.478-10-10-10H110.2c-5.522,0-10,4.477-10,10s4.478,10,10,10h169.844
	C285.566,273.257,290.044,268.78,290.044,263.257z"/>
<path class="icon-color-1" visibility="hidden"  d="M232.915,495.254v93.742l81.183-46.871l135.523-234.733c6.934-12.01,2.819-27.366-9.191-34.3
	l-37.692-21.762c-12.01-6.934-27.366-2.819-34.3,9.191L232.915,495.254z"/>
<path class="icon-color-2" visibility="hidden"  d="M440.431,273.092l-37.692-21.762c-12.01-6.934-27.366-2.819-34.3,9.191l-19.883,34.437l3.373,2.979
	l72.165,41.665l5.319,2.791l20.208-35C456.555,295.382,452.44,280.025,440.431,273.092z"/>
<polygon class="icon-color-2" visibility="hidden"  points="314.098,542.125 232.915,495.254 232.915,588.996 "/>
<path class="icon-color-outline" fill="#303030" d="M461.789,285.75c-2.427-9.059-8.236-16.63-16.358-21.319l-37.691-21.763
	c-16.767-9.679-38.281-3.913-47.961,12.852L224.256,490.254c-0.878,1.52-1.34,3.245-1.34,5v93.742c0,3.573,1.906,6.874,5,8.66
	c1.547,0.893,3.273,1.34,5,1.34c1.727,0,3.453-0.447,5-1.34l81.183-46.871c1.521-0.877,2.782-2.14,3.66-3.66l135.522-234.733
	C462.97,304.271,464.217,294.809,461.789,285.75z M282.051,549.081l-39.135-22.42v-14.088l51.184,29.55L282.051,549.081z
	 M242.916,549.711l19.097,10.94l-19.097,11.026V549.711z M310.438,528.466l-63.863-36.871L351.77,309.391l63.863,36.871
	L310.438,528.466z M440.961,302.392l-15.329,26.55l-63.863-36.871l15.329-26.549c4.166-7.215,13.426-9.695,20.642-5.531
	l37.691,21.762c3.495,2.018,5.995,5.276,7.04,9.175C443.516,294.826,442.979,298.897,440.961,302.392z"/>
</svg>
