<?xml version="1.0" encoding="iso-8859-1"?>
<!-- Generator: Adobe Illustrator 19.0.0, SVG Export Plug-In . SVG Version: 6.00 Build 0)  -->
<svg version="1.1" id="Capa_1" xmlns="http://www.w3.org/2000/svg" xmlns:xlink="http://www.w3.org/1999/xlink" x="0px" y="0px"
	 viewBox="-6.5 141 428 512" style="enable-background:new -6.5 141 428 512;" xml:space="preserve">
<circle class="icon-color-3" visibility="hidden" cx="320.32" cy="555.03" r="87.973"/>
<path class="icon-color-1" visibility="hidden" d="M232.347,555.03c0-25.265,10.654-48.038,27.71-64.083c-8.17-2.625-16.875-4.058-25.917-4.058h-3.323
	l-63.587,72.012l-63.587-72.012h-3.323c-46.752,0-84.653,37.9-84.653,84.652v71.461h303.126v-0.019
	C270.911,642.167,232.347,603.105,232.347,555.03z"/>
<path class="icon-color-outline" fill="#303030" d="M315.365,585.922c-2.329,0-4.596-0.814-6.401-2.317l-26.883-22.399
	c-4.243-3.535-4.816-9.841-1.281-14.084c3.535-4.241,9.841-4.815,14.084-1.281l19.146,15.952l30.398-37.016
	c3.504-4.268,9.805-4.887,14.075-1.381c4.268,3.505,4.886,9.806,1.381,14.074l-36.791,44.799c-1.691,2.059-4.134,3.358-6.787,3.609
	C315.992,585.907,315.678,585.922,315.365,585.922z"/>
<path class="icon-color-other" fill="#EF6048" visibility="hidden" d="M270.777,193.058c-6.175-6.146-12.803-11.708-19.854-16.599C227.434,160.11,199.258,151,167.229,151
	c-32.015,0-60.205,9.11-83.694,25.46c-7.81,5.431-15.11,11.665-21.854,18.643C25.944,232.037,5.71,289.497,5.71,357.234
	c0,79.567,64.117,130.103,64.117,130.103h21.747c2.875-0.295,5.792-0.449,8.745-0.449h22.734l9.906-58.239
	c-29.541-12.453-51.058-40.523-53.758-74.325c-2.593-32.476-5.056-50.98-5.564-65.449h187.184
	c-0.509,14.469-2.972,32.973-5.566,65.45c-2.7,33.802-24.216,61.871-53.756,74.324l9.906,58.239h22.734
	c2.953,0,5.87,0.154,8.745,0.449h21.245c0,0,64.619-48.103,64.619-130.103C328.748,288.256,307.755,229.905,270.777,193.058z"/>
<path class="icon-color-outline" fill="#303030" d="M57.177,609.471c-0.65,0-1.31-0.07-1.95-0.2c-0.64-0.12-1.27-0.319-1.88-0.569
	c-0.6-0.25-1.18-0.561-1.72-0.92c-0.55-0.36-1.06-0.78-1.52-1.24c-1.86-1.86-2.93-4.44-2.93-7.07c0-0.65,0.06-1.31,0.19-1.95
	c0.13-0.64,0.33-1.27,0.58-1.87c0.25-0.609,0.55-1.189,0.91-1.729c0.37-0.55,0.79-1.06,1.25-1.521c0.46-0.46,0.97-0.88,1.52-1.239
	c0.54-0.36,1.12-0.67,1.72-0.92c0.61-0.25,1.24-0.45,1.88-0.57c1.29-0.26,2.61-0.26,3.9,0c0.64,0.12,1.27,0.32,1.87,0.57
	c0.61,0.25,1.19,0.56,1.73,0.92c0.55,0.359,1.06,0.779,1.52,1.239c0.46,0.46,0.88,0.971,1.24,1.521
	c0.36,0.54,0.671,1.12,0.921,1.729c0.25,0.601,0.45,1.23,0.57,1.87c0.13,0.641,0.2,1.3,0.2,1.95c0,2.63-1.07,5.21-2.93,7.07
	c-0.46,0.46-0.97,0.88-1.52,1.24c-0.54,0.359-1.12,0.67-1.73,0.92c-0.6,0.25-1.23,0.449-1.87,0.569
	C58.487,609.4,57.827,609.471,57.177,609.471z"/>
<path class="icon-color-other" fill="#FFC0A1" visibility="hidden" d="M201.499,428.65c11.069-4.666,21.011-11.525,29.259-20.057c0.015-0.015,0.03-0.031,0.044-0.046
	c0.659-0.683,1.308-1.378,1.945-2.082c0.041-0.045,0.081-0.09,0.122-0.135c0.609-0.676,1.207-1.361,1.795-2.056
	c0.063-0.075,0.126-0.149,0.189-0.224c0.562-0.668,1.114-1.345,1.657-2.03c0.081-0.103,0.162-0.205,0.243-0.308
	c0.519-0.661,1.027-1.33,1.527-2.006c0.097-0.131,0.194-0.262,0.29-0.393c0.477-0.653,0.945-1.313,1.405-1.98
	c0.109-0.158,0.219-0.316,0.327-0.475c0.438-0.645,0.867-1.296,1.289-1.953c0.12-0.186,0.24-0.372,0.359-0.56
	c0.402-0.636,0.793-1.278,1.179-1.925c0.127-0.213,0.255-0.425,0.38-0.638c0.367-0.628,0.725-1.263,1.077-1.901
	c0.132-0.239,0.265-0.476,0.395-0.716c0.335-0.62,0.659-1.246,0.979-1.875c0.134-0.264,0.271-0.527,0.403-0.792
	c0.305-0.613,0.598-1.233,0.889-1.854c0.134-0.286,0.27-0.571,0.401-0.859c0.276-0.607,0.54-1.22,0.803-1.835
	c0.132-0.309,0.267-0.617,0.396-0.928c0.248-0.6,0.484-1.206,0.72-1.812c0.128-0.332,0.261-0.661,0.386-0.995
	c0.223-0.596,0.433-1.197,0.643-1.799c0.122-0.35,0.249-0.698,0.367-1.051c0.198-0.592,0.384-1.19,0.57-1.788
	c0.115-0.368,0.234-0.735,0.344-1.105c0.176-0.591,0.337-1.188,0.501-1.784c0.105-0.383,0.216-0.763,0.316-1.148
	c0.155-0.596,0.294-1.197,0.437-1.798c0.093-0.391,0.192-0.78,0.28-1.173c0.135-0.604,0.254-1.215,0.376-1.824
	c0.079-0.396,0.166-0.788,0.24-1.186c0.117-0.628,0.218-1.262,0.321-1.895c0.063-0.383,0.134-0.764,0.192-1.149
	c0.105-0.7,0.193-1.406,0.282-2.112c0.041-0.322,0.09-0.642,0.127-0.965c0.118-1.028,0.22-2.061,0.303-3.1
	c0-0.004,0.001-0.008,0.001-0.012c0.162-2.03,0.324-4.005,0.484-5.928c0.08-0.962,0.16-1.91,0.24-2.846
	c0.414-4.853,0.819-9.358,1.21-13.568c0.122-1.32,0.243-2.611,0.362-3.873c0.101-1.07,0.2-2.121,0.299-3.151
	c0.115-1.209,0.228-2.391,0.339-3.548c0.095-0.99,0.188-1.961,0.28-2.914c0.107-1.113,0.212-2.202,0.314-3.267
	c0.087-0.91,0.172-1.804,0.255-2.681c0.405-4.276,0.762-8.172,1.052-11.777c0.007-0.086,0.014-0.172,0.021-0.257
	c0.295-3.693,0.52-7.085,0.656-10.271c0.02-0.46,0.038-0.917,0.053-1.369H73.637c0.111,3.165,0.316,6.523,0.595,10.178
	c0.997,13.054,2.943,29.898,4.969,55.27c0.083,1.043,0.185,2.08,0.304,3.112c0.037,0.324,0.087,0.643,0.128,0.966
	c0.089,0.706,0.177,1.413,0.282,2.114c0.057,0.376,0.126,0.748,0.188,1.122c0.105,0.642,0.207,1.285,0.326,1.922
	c0.073,0.392,0.159,0.779,0.237,1.169c0.123,0.614,0.243,1.229,0.379,1.838c0.087,0.391,0.186,0.777,0.278,1.166
	c0.143,0.604,0.284,1.208,0.439,1.807c0.099,0.38,0.208,0.756,0.312,1.134c0.165,0.601,0.328,1.203,0.505,1.799
	c0.109,0.366,0.227,0.728,0.341,1.092c0.187,0.602,0.374,1.204,0.574,1.8c0.117,0.349,0.243,0.694,0.364,1.041
	c0.211,0.605,0.423,1.21,0.647,1.809c0.124,0.331,0.255,0.657,0.382,0.986c0.236,0.609,0.473,1.217,0.722,1.819
	c0.129,0.311,0.264,0.619,0.396,0.928c0.262,0.614,0.527,1.227,0.802,1.833c0.131,0.289,0.268,0.575,0.402,0.862
	c0.291,0.621,0.584,1.241,0.889,1.854c0.131,0.264,0.266,0.525,0.4,0.787c0.321,0.631,0.646,1.259,0.982,1.881
	c0.129,0.239,0.262,0.475,0.393,0.712c0.353,0.639,0.71,1.274,1.078,1.903c0.125,0.214,0.253,0.425,0.379,0.637
	c0.386,0.648,0.779,1.292,1.181,1.929c0.117,0.186,0.237,0.37,0.355,0.555c0.422,0.658,0.851,1.31,1.29,1.956
	c0.108,0.159,0.218,0.317,0.327,0.475c0.46,0.667,0.928,1.329,1.407,1.982c0.095,0.13,0.191,0.259,0.287,0.389
	c0.501,0.677,1.01,1.347,1.53,2.009c0.08,0.102,0.161,0.204,0.241,0.305c0.544,0.686,1.097,1.365,1.66,2.035
	c0.062,0.073,0.123,0.146,0.185,0.219c0.59,0.697,1.19,1.384,1.801,2.062c0.038,0.043,0.077,0.085,0.115,0.128
	c0.639,0.706,1.289,1.402,1.95,2.087c0.014,0.014,0.027,0.029,0.041,0.043c8.248,8.532,18.191,15.392,29.261,20.058l-9.906,58.239
	h-19.411l63.587,72.012l63.587-72.012h-19.411L201.499,428.65z"/>
<path class="icon-color-outline" fill="#303030" d="M320.32,457.057c-5.212,0-10.329,0.413-15.324,1.201c22.081-30.708,33.752-65.622,33.752-101.023
	c0-71.298-21.632-132.119-60.913-171.26c-0.001-0.001-0.003-0.002-0.004-0.004c-6.635-6.604-13.771-12.568-21.196-17.718
	C230.657,150.169,200.576,141,167.229,141s-63.428,9.169-89.403,27.25c-8.294,5.767-16.146,12.464-23.331,19.898
	C16.587,227.327-4.29,287.376-4.29,357.234c0,66.919,41.882,113.806,59.914,130.891C25.912,504.109,5.666,535.503,5.666,571.54
	v71.461c0,5.522,4.477,10,10,10h303.126c0.103,0,0.203-0.013,0.306-0.016c0.407,0.005,0.814,0.016,1.222,0.016
	c54.022,0,97.973-43.95,97.973-97.973C418.292,501.007,374.342,457.057,320.32,457.057z M125.537,496.576
	c0.019-0.005,0.036-0.014,0.055-0.018c0.41-0.108,0.808-0.244,1.197-0.401c0.079-0.032,0.156-0.065,0.233-0.099
	c0.387-0.168,0.765-0.354,1.126-0.568c0.034-0.02,0.065-0.043,0.099-0.064c0.342-0.208,0.669-0.439,0.983-0.686
	c0.054-0.042,0.109-0.082,0.162-0.125c0.319-0.262,0.62-0.545,0.905-0.844c0.057-0.06,0.112-0.121,0.167-0.183
	c0.284-0.314,0.554-0.64,0.797-0.989c0.012-0.017,0.022-0.036,0.034-0.053c0.234-0.34,0.442-0.698,0.633-1.068
	c0.035-0.069,0.073-0.135,0.107-0.205c0.184-0.376,0.344-0.767,0.48-1.169c0.027-0.079,0.05-0.16,0.075-0.24
	c0.131-0.422,0.245-0.853,0.321-1.299l9.906-58.238c0.049-0.286,0.085-0.572,0.108-0.857c0.354-4.274-2.071-8.344-6.082-10.035
	c-1.099-0.463-2.179-0.958-3.251-1.467c-0.263-0.125-0.524-0.252-0.785-0.379c-1.01-0.494-2.011-1.003-2.996-1.538
	c-0.049-0.026-0.099-0.051-0.148-0.078c-1.105-0.604-2.193-1.235-3.265-1.891c-0.092-0.056-0.182-0.113-0.273-0.169
	c-5.544-3.419-10.645-7.52-15.238-12.272c-0.015-0.016-0.028-0.029-0.039-0.04c-0.586-0.607-1.162-1.225-1.754-1.879
	c-0.001-0.001-0.074-0.082-0.075-0.084c-0.542-0.602-1.075-1.212-1.597-1.828l-0.169-0.2c-0.499-0.592-0.987-1.191-1.474-1.807
	l-0.213-0.27c-0.46-0.586-0.911-1.181-1.342-1.762l-0.263-0.357c-0.426-0.582-0.842-1.171-1.244-1.753l-0.299-0.435
	c-0.389-0.571-0.769-1.15-1.134-1.718l-0.323-0.505c-0.355-0.563-0.702-1.132-1.048-1.713l-0.334-0.559
	c-0.326-0.559-0.643-1.122-0.954-1.686l-0.348-0.629c-0.297-0.552-0.585-1.108-0.872-1.673l-0.353-0.692
	c-0.27-0.543-0.529-1.092-0.794-1.66l-0.35-0.747c-0.244-0.537-0.478-1.081-0.711-1.628l-0.35-0.818
	c-0.222-0.537-0.433-1.079-0.634-1.599l-0.347-0.894c-0.198-0.529-0.384-1.065-0.572-1.602l-0.323-0.922
	c-0.167-0.496-0.322-0.999-0.506-1.591l-0.137-0.435c-0.057-0.18-0.114-0.358-0.166-0.533c-0.141-0.475-0.271-0.953-0.402-1.433
	l-0.17-0.615c-0.051-0.182-0.102-0.363-0.154-0.563c-0.114-0.437-0.217-0.879-0.322-1.32l-0.179-0.744
	c-0.045-0.186-0.091-0.37-0.133-0.559c-0.098-0.442-0.186-0.888-0.275-1.333l-0.161-0.789c-0.038-0.184-0.077-0.366-0.11-0.544
	c-0.075-0.405-0.141-0.814-0.208-1.223c-0.06-0.352-0.122-0.704-0.177-1.057l-0.07-0.421c-0.073-0.484-0.134-0.973-0.195-1.461
	c-0.056-0.426-0.12-0.85-0.169-1.279c-0.105-0.915-0.196-1.833-0.269-2.758c-1.02-12.775-2.036-23.569-2.892-32.494
	c-0.099-1.031-0.196-2.043-0.29-3.024c-0.7-7.283-1.309-13.607-1.739-19.135h165.961c-0.022,0.276-0.044,0.556-0.066,0.838
	l-0.007,0.09c-0.006,0.077-0.012,0.155-0.019,0.233c-0.056,0.7-0.116,1.421-0.18,2.173c-0.007,0.081-0.014,0.162-0.021,0.244
	c-0.104,1.215-0.219,2.52-0.351,3.967c-0.007,0.073-0.013,0.146-0.02,0.22c-0.13,1.432-0.277,3.007-0.444,4.772
	c-0.011,0.12-0.023,0.238-0.034,0.359l-0.169,1.771c-0.138,1.443-0.28,2.923-0.429,4.467c-0.371,3.854-0.778,8.097-1.208,12.727
	l-0.031,0.323c-0.136,1.472-0.275,2.994-0.415,4.541c-0.032,0.352-0.064,0.704-0.095,1.059c-0.047,0.527-0.095,1.055-0.142,1.591
	c-0.066,0.746-0.133,1.501-0.2,2.264c-0.04,0.455-0.08,0.915-0.12,1.376c-0.062,0.708-0.123,1.423-0.185,2.145
	c-0.019,0.225-0.038,0.441-0.058,0.667l-0.059,0.701c-0.026,0.311-0.053,0.624-0.079,0.938l-0.103,1.221
	c-0.016,0.187-0.031,0.38-0.047,0.567c-0.022,0.269-0.045,0.543-0.067,0.814c-0.051,0.618-0.102,1.235-0.153,1.863
	c-0.073,0.897-0.146,1.803-0.22,2.72c-0.01,0.124-0.026,0.247-0.036,0.371c-0.068,0.801-0.143,1.6-0.233,2.385l-0.052,0.398
	c-0.034,0.285-0.075,0.568-0.113,0.852c-0.063,0.498-0.125,0.995-0.199,1.486c-0.013,0.086-0.028,0.172-0.043,0.257
	c-0.059,0.382-0.127,0.761-0.191,1.142c-0.072,0.437-0.142,0.875-0.223,1.306c-0.034,0.184-0.073,0.364-0.11,0.546l-0.166,0.814
	c-0.087,0.436-0.173,0.872-0.271,1.313c-0.042,0.187-0.087,0.371-0.132,0.556l-0.179,0.746c-0.105,0.444-0.21,0.889-0.321,1.319
	c-0.048,0.184-0.1,0.366-0.151,0.55l-0.202,0.73c-0.121,0.44-0.24,0.882-0.374,1.331c-0.054,0.184-0.112,0.364-0.17,0.545
	l-0.183,0.585c-0.149,0.479-0.298,0.956-0.452,1.417l-0.33,0.941c-0.186,0.532-0.372,1.065-0.572,1.601l-0.341,0.877
	c-0.208,0.535-0.416,1.071-0.63,1.59l-0.358,0.836c-0.232,0.542-0.464,1.085-0.711,1.625l-0.354,0.758
	c-0.257,0.55-0.517,1.1-0.788,1.646l-0.359,0.704c-0.283,0.558-0.57,1.111-0.861,1.651l-0.353,0.64
	c-0.313,0.566-0.628,1.13-0.955,1.688l-0.337,0.565c-0.341,0.573-0.688,1.143-1.038,1.696l-0.327,0.51
	c-0.372,0.581-0.751,1.156-1.147,1.739l-0.278,0.404c-0.409,0.592-0.824,1.18-1.254,1.768l-0.251,0.34
	c-0.442,0.599-0.893,1.192-1.38,1.813l-0.193,0.244c-0.48,0.606-0.969,1.206-1.456,1.785l-0.177,0.21
	c-0.522,0.617-1.054,1.227-1.591,1.822l-0.113,0.125c-0.564,0.624-1.137,1.237-1.72,1.841c-0.015,0.016-0.031,0.033-0.048,0.05
	c-4.585,4.742-9.674,8.835-15.204,12.248c-0.11,0.068-0.219,0.136-0.329,0.203c-1.058,0.646-2.131,1.269-3.221,1.865
	c-0.077,0.042-0.156,0.081-0.234,0.123c-0.954,0.517-1.922,1.01-2.9,1.488c-0.277,0.136-0.554,0.271-0.833,0.403
	c-1.056,0.502-2.121,0.989-3.204,1.446c-0.008,0.003-0.016,0.007-0.024,0.01c-4.278,1.804-6.753,6.314-5.974,10.892l9.906,58.239
	c0.076,0.446,0.19,0.877,0.321,1.299c0.025,0.08,0.048,0.161,0.075,0.24c0.137,0.403,0.297,0.793,0.48,1.169
	c0.034,0.07,0.071,0.136,0.107,0.205c0.191,0.37,0.399,0.728,0.633,1.068c0.012,0.017,0.022,0.036,0.034,0.053
	c0.243,0.349,0.513,0.676,0.797,0.989c0.056,0.061,0.11,0.123,0.167,0.183c0.285,0.299,0.586,0.582,0.905,0.844
	c0.053,0.043,0.108,0.083,0.162,0.125c0.314,0.247,0.641,0.477,0.983,0.686c0.033,0.02,0.065,0.044,0.099,0.064
	c0.361,0.214,0.739,0.4,1.126,0.568c0.078,0.034,0.155,0.067,0.233,0.099c0.389,0.157,0.787,0.293,1.197,0.401
	c0.019,0.005,0.036,0.014,0.055,0.018l-41.692,47.217L125.537,496.576z M91.075,477.338H73.509
	c-11.433-10.141-57.799-55.28-57.799-120.103c0-64.641,18.878-119.751,53.162-155.183c6.289-6.507,13.143-12.354,20.376-17.385
	C111.809,168.963,138.046,161,167.229,161c29.184,0,55.42,7.963,77.995,23.677c6.473,4.49,12.697,9.694,18.499,15.47
	c35.482,35.36,55.026,91.149,55.026,157.088c0,31.634-10.097,61.707-30.01,89.385c-11.517,16.007-23.193,26.571-28.133,30.719
	h-17.222c-0.251-0.024-0.505-0.033-0.757-0.055c-0.994-0.089-1.99-0.16-2.987-0.217c-0.419-0.024-0.835-0.054-1.255-0.073
	c-1.413-0.063-2.827-0.104-4.245-0.104h-3.323h-10.968l-7.217-42.428c1.114-0.579,2.21-1.184,3.296-1.801
	c0.181-0.103,0.359-0.21,0.539-0.314c0.964-0.556,1.916-1.127,2.857-1.713c0.107-0.067,0.215-0.134,0.322-0.201
	c21.127-13.272,36.328-33.99,42.643-58.064c0.029-0.107,0.059-0.211,0.088-0.321c0.021-0.08,0.039-0.161,0.059-0.242
	c0.208-0.814,0.405-1.631,0.593-2.452c0.049-0.204,0.099-0.408,0.143-0.609c0.02-0.089,0.036-0.179,0.056-0.267
	c0.154-0.704,0.299-1.411,0.438-2.12l0,0c0.067-0.321,0.133-0.643,0.194-0.968c0.017-0.092,0.031-0.186,0.048-0.279
	c0.11-0.602,0.21-1.207,0.309-1.813l0.061-0.367c0.053-0.307,0.105-0.613,0.152-0.926c0.011-0.071,0.019-0.144,0.029-0.215
	c0.083-0.56,0.154-1.124,0.228-1.688c0.01-0.078,0.022-0.155,0.031-0.233l0.067-0.51c0.035-0.255,0.069-0.511,0.101-0.778
	c0.005-0.04,0.007-0.081,0.012-0.12c0.115-1.012,0.213-2.028,0.298-3.049c0.007-0.084,0.018-0.166,0.024-0.25
	c0.002-0.014,0.003-0.026,0.004-0.04c0.077-0.966,0.154-1.918,0.231-2.86c0.018-0.226,0.037-0.447,0.055-0.672
	c0.057-0.69,0.113-1.376,0.17-2.053c0.024-0.286,0.048-0.568,0.072-0.852l0.189-2.235c0.002-0.027,0.005-0.054,0.007-0.081
	c0.407-4.776,0.806-9.212,1.19-13.36c0.004-0.046,0.008-0.092,0.013-0.138l1.845-19.378c0.488-5.146,0.806-8.71,1.064-11.927
	l0.021-0.253c0.018-0.227,0.033-0.435,0.05-0.659c0.045-0.57,0.088-1.135,0.129-1.693c0.026-0.35,0.052-0.699,0.076-1.041
	c0.05-0.707,0.099-1.408,0.143-2.096c0.015-0.235,0.028-0.46,0.042-0.69c0.034-0.547,0.066-1.089,0.096-1.625
	c0.013-0.237,0.027-0.477,0.039-0.709c0.036-0.692,0.07-1.376,0.099-2.05c0.001-0.023,0.003-0.048,0.003-0.07
	c0.021-0.486,0.04-0.969,0.057-1.446c0-0.001,0-0.002,0-0.004v-0.001c0.002-0.067-0.004-0.133-0.003-0.199
	c0.004-0.271,0.005-0.543-0.012-0.812c-0.01-0.151-0.036-0.3-0.052-0.45c-0.02-0.182-0.034-0.366-0.064-0.547
	c-0.028-0.168-0.073-0.332-0.109-0.498c-0.035-0.16-0.062-0.322-0.105-0.479c-0.041-0.151-0.098-0.297-0.146-0.446
	c-0.054-0.167-0.101-0.337-0.164-0.502c-0.052-0.136-0.118-0.266-0.176-0.399c-0.074-0.172-0.143-0.346-0.227-0.513
	c-0.044-0.087-0.098-0.169-0.145-0.255c-0.112-0.207-0.222-0.415-0.349-0.615c-0.005-0.008-0.011-0.015-0.016-0.023
	c-0.354-0.555-0.764-1.077-1.228-1.558c-0.942-0.976-2.063-1.741-3.288-2.26c-0.059-0.025-0.12-0.042-0.179-0.066
	c-0.249-0.1-0.5-0.198-0.757-0.278c-0.505-0.157-1.027-0.263-1.554-0.339c-0.468-0.067-0.939-0.113-1.418-0.113H73.637
	c-2.713,0-5.31,1.102-7.194,3.054s-2.895,4.585-2.8,7.296l0,0c0,0,0,0,0,0.001c0.024,0.688,0.054,1.388,0.087,2.095
	c0.01,0.217,0.021,0.436,0.031,0.656c0.031,0.638,0.065,1.283,0.103,1.938c0.014,0.239,0.029,0.485,0.043,0.729
	c0.034,0.565,0.07,1.137,0.109,1.715c0.022,0.336,0.045,0.674,0.069,1.017c0.047,0.682,0.097,1.371,0.15,2.072
	c0.01,0.126,0.017,0.242,0.027,0.369c0.032,0.415,0.066,0.843,0.1,1.266c0.006,0.069,0.011,0.137,0.016,0.206
	c0.044,0.559,0.091,1.125,0.138,1.697c0.007,0.087,0.015,0.176,0.022,0.263c0.048,0.575,0.097,1.154,0.148,1.743
	c0.003,0.037,0.007,0.075,0.01,0.111c0.154,1.775,0.321,3.617,0.499,5.53c0.018,0.199,0.037,0.397,0.056,0.598
	c0.048,0.508,0.096,1.026,0.145,1.545c0.027,0.29,0.055,0.582,0.083,0.875c0.048,0.501,0.096,1.007,0.144,1.518
	c0.025,0.266,0.051,0.535,0.077,0.804c0.123,1.29,0.249,2.599,0.379,3.953c0.82,8.533,1.735,18.052,2.693,29.545
	c0.153,1.834,0.307,3.713,0.461,5.651c0.09,1.121,0.2,2.236,0.327,3.348c0.004,0.036,0.007,0.073,0.011,0.109
	c0.03,0.263,0.065,0.523,0.101,0.784l0.066,0.503c0.01,0.079,0.022,0.158,0.032,0.237c0.074,0.564,0.145,1.128,0.228,1.689
	c0.011,0.076,0.019,0.151,0.031,0.227c0.044,0.291,0.094,0.581,0.144,0.87l0.069,0.415c0.099,0.604,0.199,1.208,0.309,1.809
	c0.017,0.096,0.031,0.191,0.049,0.286c0.057,0.306,0.12,0.611,0.184,0.917c0.141,0.721,0.288,1.439,0.445,2.155
	c0.019,0.089,0.036,0.18,0.056,0.269c0.046,0.205,0.095,0.408,0.144,0.611c0.192,0.84,0.395,1.677,0.608,2.51
	c0.016,0.061,0.03,0.125,0.045,0.185c0.023,0.088,0.048,0.175,0.072,0.263c0.264,1.01,0.544,2.014,0.839,3.012c0,0,0,0,0,0.001l0,0
	c6.751,22.809,21.557,42.378,41.81,55.105c0.113,0.071,0.226,0.141,0.339,0.212c0.935,0.582,1.881,1.15,2.839,1.703
	c0.184,0.107,0.367,0.216,0.552,0.321c1.085,0.617,2.18,1.221,3.293,1.799l-7.217,42.427h-10.968h-3.323
	c-1.517,0-3.025,0.039-4.525,0.111c-0.046,0.002-0.092,0.003-0.139,0.005c-1.475,0.072-2.941,0.181-4.398,0.32
	C91.197,477.33,91.136,477.332,91.075,477.338z M25.666,633.002v-61.461c0-38.984,30.045-71.063,68.191-74.353
	c0.696-0.06,1.391-0.12,2.089-0.161c0.578-0.034,1.161-0.051,1.742-0.071c0.49-0.017,0.98-0.03,1.469-0.038l60.575,68.602
	c0.237,0.269,0.488,0.523,0.75,0.762c1.833,1.676,4.237,2.618,6.746,2.618c2.868,0,5.598-1.232,7.496-3.381l60.576-68.602
	c0.748,0.012,1.497,0.024,2.247,0.058c0.188,0.009,0.376,0.01,0.563,0.02c1.045,0.055,2.087,0.142,3.125,0.24
	c-0.194,0.266-0.374,0.54-0.565,0.807c-0.473,0.659-0.938,1.324-1.395,1.995c-0.156,0.23-0.31,0.46-0.464,0.691
	c-9.673,14.473-15.595,31.653-16.371,50.142c-0.008,0.193-0.015,0.385-0.022,0.578c-0.043,1.189-0.072,2.38-0.072,3.579
	c0,0.83,0.011,1.658,0.032,2.484c0.005,0.18,0.014,0.359,0.02,0.54c0.02,0.655,0.042,1.31,0.075,1.962
	c0.007,0.133,0.017,0.265,0.024,0.398c0.038,0.706,0.081,1.411,0.134,2.114c0.004,0.058,0.01,0.116,0.015,0.174
	c0.713,9.246,2.713,18.24,5.912,26.77H97.803c-5.523,0-10,4.477-10,10c0,5.522,4.477,10,10,10h141.042
	c3.394,5.059,7.28,9.839,11.642,14.271c3.304,3.356,6.81,6.447,10.491,9.259H25.666V633.002z M320.32,633.002
	c-0.768,0-1.527-0.036-2.289-0.058c-0.863-0.025-1.725-0.056-2.581-0.109c-0.424-0.026-0.845-0.064-1.268-0.097
	c-0.915-0.072-1.828-0.151-2.734-0.255c-0.309-0.035-0.616-0.079-0.924-0.118c-1.033-0.131-2.062-0.273-3.082-0.445
	c-0.134-0.022-0.266-0.049-0.4-0.072c-35.338-6.148-62.743-36.41-64.596-72.877c-0.065-1.306-0.1-2.62-0.1-3.942
	c0-42.994,34.978-77.973,77.973-77.973s77.973,34.978,77.973,77.973C398.292,598.023,363.314,633.002,320.32,633.002z"/>
</svg>
