<?xml version="1.0" encoding="iso-8859-1"?>
<!-- Generator: Adobe Illustrator 19.0.0, SVG Export Plug-In . SVG Version: 6.00 Build 0)  -->
<svg version="1.1" id="Capa_1" xmlns="http://www.w3.org/2000/svg" xmlns:xlink="http://www.w3.org/1999/xlink" x="0px" y="0px"
	 viewBox="-49 141 512 512" style="enable-background:new -49 141 512 512;" xml:space="preserve">
<path class="icon-color-1" visibility="hidden"  d="M71,195h272c11.046,0,20,8.954,20,20v408c0,11.046-8.954,20-20,20H71c-11.046,0-20-8.954-20-20V215
	C51,203.954,59.954,195,71,195z"/>
<path class="icon-color-2" visibility="hidden"  d="M264,151H150c-13.807,0-25,11.193-25,25v19h164v-19C289,162.193,277.807,151,264,151z"/>
<rect x="91" y="235" class="icon-color-other" fill="#D7D7E6" visibility="hidden" width="232" height="368"/>
<rect x="91" y="526" class="icon-color-2" visibility="hidden"  width="232" height="77"/>
<polygon class="icon-color-2" visibility="hidden"  points="207,297.094 207,367.381 260.985,367.381 207,488.094 207,417.807 153.015,417.807 "/>
<path class="icon-color-outline" fill="#303030" d="M343,185h-44v-9c0-19.299-15.701-35-35-35H150c-19.299,0-35,15.701-35,35v9H71
	c-16.542,0-30,13.458-30,30v107.667c0,5.522,4.477,10,10,10s10-4.478,10-10V215c0-5.514,4.486-10,10-10h272c5.514,0,10,4.486,10,10
	v408c0,5.514-4.486,10-10,10H71c-5.514,0-10-4.486-10-10V397c0-5.522-4.477-10-10-10s-10,4.478-10,10v226c0,16.542,13.458,30,30,30
	h272c16.542,0,30-13.458,30-30V215C373,198.458,359.542,185,343,185z M135,185v-9c0-8.271,6.729-15,15-15h114
	c8.271,0,15,6.729,15,15v9H135z"/>
<path class="icon-color-outline" fill="#303030" d="M323,613c5.523,0,10-4.478,10-10V235c0-5.522-4.477-10-10-10H91c-5.523,0-10,4.478-10,10v368
	c0,5.522,4.477,10,10,10H323z M313,245v348H101v-57h140.333c5.523,0,10-4.478,10-10s-4.477-10-10-10H101V245H313z"/>
<path class="icon-color-outline" fill="#303030" d="M153.015,427.807H197v60.287c0,4.719,3.298,8.795,7.913,9.779c0.699,0.149,1.399,0.222,2.091,0.222
	c3.876,0,7.49-2.264,9.125-5.919l53.985-120.713c1.383-3.094,1.106-6.678-0.738-9.521c-1.843-2.844-5.002-4.561-8.391-4.561H217
	v-60.287c0-4.719-3.298-8.795-7.913-9.779c-4.613-0.985-9.29,1.389-11.216,5.697l-53.985,120.713
	c-1.383,3.094-1.106,6.678,0.738,9.521C146.467,426.09,149.626,427.807,153.015,427.807z M197,343.949v23.432
	c0,5.522,4.477,10,10,10h38.558L217,441.238v-23.432c0-5.522-4.477-10-10-10h-38.558L197,343.949z"/>
<path class="icon-color-outline" fill="#303030" d="M283,536c2.63,0,5.21-1.07,7.07-2.931c1.86-1.859,2.93-4.439,2.93-7.069s-1.07-5.21-2.93-7.07
	S285.63,516,283,516s-5.21,1.069-7.07,2.93c-1.86,1.86-2.93,4.44-2.93,7.07s1.07,5.21,2.93,7.069C277.79,534.93,280.37,536,283,536z
	"/>
<path class="icon-color-outline" fill="#303030" d="M51,370.67c2.63,0,5.21-1.07,7.07-2.93c1.86-1.87,2.93-4.44,2.93-7.07s-1.07-5.21-2.93-7.07
	c-1.86-1.87-4.44-2.93-7.07-2.93s-5.21,1.06-7.07,2.93c-1.86,1.86-2.93,4.44-2.93,7.07s1.07,5.2,2.93,7.07
	C45.79,369.6,48.37,370.67,51,370.67z"/>
</svg>
