<?xml version="1.0" encoding="iso-8859-1"?>
<!-- Generator: Adobe Illustrator 19.0.0, SVG Export Plug-In . SVG Version: 6.00 Build 0)  -->
<svg version="1.1" id="Capa_1" xmlns="http://www.w3.org/2000/svg" xmlns:xlink="http://www.w3.org/1999/xlink" x="0px" y="0px"
	 viewBox="-49 141 512 512" style="enable-background:new -49 141 512 512;" xml:space="preserve">
<path class="icon-color-2" visibility="hidden"  d="M376.715,462.85c0.2,3.36,0.3,6.74,0.3,10.15c0,93.89-76.11,170-170,170s-170-76.11-170-170
	c0-3.31,0.09-6.59,0.29-9.85c26.84,13.84,55.77,20.75,84.71,20.75c29.04,0,58.08-6.96,85-20.9
	C260.755,435.18,322.945,435.13,376.715,462.85z"/>
<path class="icon-color-1" visibility="hidden"  d="M157.015,191c-11.05,0-20-8.95-20-20s8.95-20,20-20h100c11.05,0,20,8.95,20,20s-8.95,20-20,20v119.47
	c66.39,20.4,115.46,80.36,119.7,152.38c-53.77-27.72-115.96-27.67-169.7,0.15c-26.92,13.94-55.96,20.9-85,20.9
	c-28.94,0-57.87-6.91-84.71-20.75c4.11-72.15,53.22-132.25,119.71-152.68L157.015,191L157.015,191z"/>
<path class="icon-color-2" visibility="hidden"  d="M157.015,383c11.05,0,20,8.95,20,20s-8.95,20-20,20s-20-8.95-20-20S145.965,383,157.015,383z"/>
<path class="icon-color-outline" fill="#303030" d="M237.015,393c5.52,0,10-4.48,10-10s-4.48-10-10-10s-10,4.48-10,10S231.495,393,237.015,393z"/>
<path class="icon-color-outline" fill="#303030" d="M197.015,333c5.52,0,10-4.48,10-10s-4.48-10-10-10s-10,4.48-10,10S191.495,333,197.015,333z"/>
<path class="icon-color-outline" fill="#303030" d="M167.015,568c-5.52,0-10,4.48-10,10s4.48,10,10,10s10-4.48,10-10S172.535,568,167.015,568z"/>
<path class="icon-color-outline" fill="#303030" d="M386.817,464.938c0.332-1.675,0.226-3.379-0.275-4.96c-2.589-36.24-15.885-70.391-38.542-98.898
	c-21.228-26.708-49.112-46.595-80.984-57.84V199.287c11.641-4.127,20-15.249,20-28.287c0-16.542-13.458-30-30-30h-100
	c-16.542,0-30,13.458-30,30c0,13.038,8.359,24.159,20,28.287v103.954c-31.926,11.262-59.843,31.19-81.082,57.959
	c-22.581,28.461-35.834,62.526-38.43,98.634c-0.575,1.717-0.663,3.505-0.312,5.194c-0.117,2.581-0.177,5.252-0.177,7.973
	c0,99.252,80.748,180,180,180s180-80.748,180-180C387.015,470.306,386.936,467.611,386.817,464.938z M159.952,320.029
	c4.198-1.29,7.063-5.167,7.063-9.559V201h10c5.522,0,10-4.477,10-10s-4.478-10-10-10h-20c-5.514,0-10-4.486-10-10s4.486-10,10-10
	h100c5.514,0,10,4.486,10,10s-4.486,10-10,10h-20c-5.522,0-10,4.477-10,10s4.478,10,10,10h10v109.47
	c0,4.392,2.865,8.269,7.063,9.559c57.959,17.809,100.732,67.402,110.706,126.338c-52.733-21.438-110.975-18.852-162.367,7.753
	c-25.346,13.125-52.397,19.78-80.401,19.78c-25.715,0-50.629-5.628-74.213-16.738C54.089,393.54,98.451,338.926,159.952,320.029z
	 M207.015,633c-86.306,0-156.859-68.692-159.886-154.273c23.827,9.949,49.422,15.173,74.886,15.173
	c30.797,0,61.779-7.614,89.598-22.02c49.272-25.507,105.566-26.408,155.346-2.701c0.03,1.273,0.056,2.547,0.056,3.821
	C367.015,561.224,295.24,633,207.015,633z"/>
<path class="icon-color-outline" fill="#303030" d="M312.257,506.572c-5.09-2.154-10.954,0.222-13.109,5.307C283.418,549.008,247.254,573,207.015,573
	c-5.522,0-10,4.477-10,10s4.478,10,10,10c48.286,0,91.679-28.78,110.548-73.319C319.717,514.595,317.342,508.727,312.257,506.572z"
	/>
<path class="icon-color-outline" fill="#303030" d="M157.015,433c16.542,0,30-13.458,30-30s-13.458-30-30-30s-30,13.458-30,30S140.473,433,157.015,433z
	 M157.015,393c5.514,0,10,4.486,10,10s-4.486,10-10,10s-10-4.486-10-10S151.501,393,157.015,393z"/>
</svg>
