<?xml version="1.0" encoding="iso-8859-1"?>
<!-- Generator: Adobe Illustrator 19.0.0, SVG Export Plug-In . SVG Version: 6.00 Build 0)  -->
<svg version="1.1" id="Capa_1" xmlns="http://www.w3.org/2000/svg" xmlns:xlink="http://www.w3.org/1999/xlink" x="0px" y="0px"
	 viewBox="-49 141 512 512" style="enable-background:new -49 141 512 512;" xml:space="preserve">
<path class="icon-color-2" visibility="hidden"  d="M399,599.027H15V195c0-24.301,19.699-44,44-44h340V599.027z"/>
<circle class="icon-color-1" visibility="hidden"  cx="207" cy="329" r="124"/>
<g>
	<path class="icon-color-2" visibility="hidden"  d="M284.496,232.204h-14.371c-15.992,0-28.956,12.964-28.956,28.956c0,5.94-4.815,10.755-10.755,10.755
		c-10.509,0-19.028,8.519-19.028,19.028c0,12.793,10.371,23.165,23.165,23.165h95.556
		C326.15,281.056,309.194,252.003,284.496,232.204z"/>
	<path class="icon-color-2" visibility="hidden"  d="M88.651,291.891h46.372c7.895,0,14.295-6.4,14.295-14.295v-0.587c0-7.895,6.4-14.295,14.295-14.295
		s14.295-6.4,14.295-14.295v-3.127c0-7.895-6.4-14.295-14.295-14.295h-32.582C111.287,246.325,96.297,267.482,88.651,291.891z"/>
	<path class="icon-color-2" visibility="hidden"  d="M233.377,314.107h-55.66c-12.07,0-21.855,9.785-21.855,21.855v9.623
		c0,12.07,9.785,21.855,21.855,21.855l0,0c9.259,0,16.766,7.506,16.766,16.766v60.569l20.493-22.674
		c2.849-3.152,6.899-4.951,11.148-4.951l0,0c8.299,0,15.027-6.728,15.027-15.027v-21.732c0-5.777,4.683-10.46,10.46-10.46h4.828
		c5.777,0,10.46-4.683,10.46-10.46v-11.844c0-5.777-4.683-10.46-10.46-10.46l0,0c-5.777,0-10.46-4.683-10.46-10.46l0,0
		C245.978,319.749,240.336,314.107,233.377,314.107z"/>
</g>
<path class="icon-color-outline" fill="#303030" d="M15,377.51c-2.63,0-5.21-1.07-7.07-2.93C6.07,372.72,5,370.14,5,367.51c0-2.64,1.07-5.21,2.93-7.07
	c1.86-1.87,4.44-2.93,7.07-2.93c2.63,0,5.21,1.06,7.07,2.93c1.86,1.86,2.93,4.44,2.93,7.07s-1.07,5.21-2.93,7.07
	C20.21,376.44,17.63,377.51,15,377.51z"/>
<path class="icon-color-other" fill="#FFFFFF" visibility="hidden" d="M399,555.054H58.973C34.687,555.054,15,574.742,15,599.027l0,0C15,623.313,34.687,643,58.973,643H399
	V555.054z"/>
<path class="icon-color-outline" fill="#303030" d="M304.3,565.05c-2.63,0-5.21-1.06-7.07-2.92c-1.86-1.86-2.93-4.44-2.93-7.08
	c0-2.63,1.07-5.21,2.93-7.07c1.87-1.86,4.44-2.93,7.07-2.93c2.64,0,5.21,1.07,7.07,2.93c1.87,1.86,2.93,4.44,2.93,7.07
	c0,2.64-1.06,5.22-2.93,7.08C309.51,563.99,306.94,565.05,304.3,565.05z"/>
<path class="icon-color-outline" fill="#303030" d="M399,141H58.973C29.212,141,5,165.212,5,194.973v124.521c0,5.523,4.477,10,10,10s10-4.477,10-10
	V194.973C25,176.24,40.24,161,58.973,161H389v384.054h-44.333c-5.523,0-10,4.477-10,10c0,5.523,4.477,10,10,10H389v23.973H58.973
	c-5.523,0-10,4.477-10,10s4.477,10,10,10H389V633H58.973C40.24,633,25,617.76,25,599.027c0-18.732,15.24-33.973,33.973-33.973H255.5
	c5.523,0,10-4.477,10-10s-4.477-10-10-10H58.973c-12.866,0-24.689,4.532-33.973,12.074V406.75c0-5.523-4.477-10-10-10
	s-10,4.477-10,10v192.277C5,628.788,29.212,653,58.973,653H399c5.523,0,10-4.477,10-10V151C409,145.477,404.523,141,399,141z"/>
<path class="icon-color-outline" fill="#303030" d="M207,195c-73.888,0-134,60.112-134,134s60.112,134,134,134s134-60.112,134-134S280.888,195,207,195z
	 M318.255,304.107h-83.704c-7.259,0-13.165-5.906-13.165-13.165c0-4.978,4.05-9.028,9.028-9.028
	c11.444,0,20.755-9.311,20.755-20.755c0-10.452,8.503-18.956,18.956-18.956h10.695C299.34,257.979,312.766,279.561,318.255,304.107z
	 M134.61,240.998h29.002c2.368,0,4.295,1.927,4.295,4.295v3.127c0,2.368-1.927,4.295-4.295,4.295
	c-13.396,0-24.295,10.898-24.295,24.295v0.587c0,2.368-1.927,4.295-4.295,4.295h-31.826
	C110.451,265.97,121.262,251.998,134.61,240.998z M184.483,440.762C132.371,430.28,93,384.153,93,329
	c0-9.339,1.137-18.416,3.266-27.109h38.757c13.396,0,24.295-10.898,24.295-24.295v-0.587c0-2.368,1.927-4.295,4.295-4.295
	c13.396,0,24.295-10.898,24.295-24.295v-3.127c0-11.597-8.17-21.317-19.056-23.72C180.786,217.322,193.626,215,207,215
	c16.988,0,33.117,3.741,47.615,10.434c-13.783,6.007-23.446,19.756-23.446,35.726c0,0.416-0.339,0.755-0.755,0.755
	c-16.006,0-29.028,13.022-29.028,29.028c0,4.676,0.978,9.126,2.732,13.165h-26.401c-17.565,0-31.855,14.291-31.855,31.855v9.623
	c0,17.565,14.291,31.855,31.856,31.855c3.73,0,6.766,3.035,6.766,6.766v56.555H184.483z M207.556,415.397l-3.073,3.4v-34.59
	c0-14.759-12.007-26.766-26.766-26.766c-6.537,0-11.855-5.318-11.855-11.855v-9.623c0-6.537,5.318-11.855,11.855-11.855h55.66
	c1.434,0,2.601,1.167,2.601,2.601c0,11.282,9.178,20.46,20.46,20.46c0.253,0,0.46,0.206,0.46,0.459v11.845
	c0,0.253-0.207,0.46-0.46,0.46h-4.828c-11.282,0-20.46,9.178-20.46,20.459v21.733c0,2.771-2.255,5.026-5.026,5.026
	C219.06,407.151,212.292,410.156,207.556,415.397z M209.596,442.967l12.798-14.16c0.951-1.053,2.311-1.656,3.729-1.656
	c13.8,0,25.026-11.227,25.026-25.026v-21.733c0-0.253,0.207-0.459,0.46-0.459h4.828c11.282,0,20.46-9.178,20.46-20.46v-11.845
	c0-11.281-9.178-20.459-20.46-20.459c-0.253,0-0.46-0.207-0.46-0.46c0-0.88-0.056-1.747-0.154-2.601h65.065
	C320.957,325.731,321,327.36,321,329C321,390.992,271.261,441.582,209.596,442.967z"/>
<path class="icon-color-outline" fill="#303030" d="M255.5,511h-97c-5.523,0-10-4.477-10-10s4.477-10,10-10h97c5.523,0,10,4.477,10,10
	S261.023,511,255.5,511z"/>
</svg>
