<?xml version="1.0" encoding="iso-8859-1"?>
<!-- Generator: Adobe Illustrator 19.0.0, SVG Export Plug-In . SVG Version: 6.00 Build 0)  -->
<svg version="1.1" id="Capa_1" xmlns="http://www.w3.org/2000/svg" xmlns:xlink="http://www.w3.org/1999/xlink" x="0px" y="0px"
	 viewBox="-49 141 512 512" style="enable-background:new -49 141 512 512;" xml:space="preserve">
<path class="icon-color-other" fill="#FFFFFF" visibility="hidden" d="M453,603V270.667C453,245.446,432.554,225,407.333,225H6.667C-18.554,225-39,245.446-39,270.667V603
	c0,11.046,8.954,20,20,20h452C444.046,623,453,614.046,453,603z"/>
<path class="icon-color-1" visibility="hidden" d="M407.333,225H6.667C-18.554,225-39,245.446-39,270.667V337h392.463H453v-66.333
	C453,245.446,432.555,225,407.333,225z"/>
<path class="icon-color-3" visibility="hidden" d="M47,453L47,453c-17.673,0-32-14.327-32-32l0,0c0-17.673,14.327-32,32-32l0,0
	c17.673,0,32,14.327,32,32l0,0C79,438.673,64.673,453,47,453z"/>
<path class="icon-color-2" visibility="hidden" d="M367,453L367,453c-17.673,0-32-14.327-32-32l0,0c0-17.673,14.327-32,32-32l0,0
	c17.673,0,32,14.327,32,32l0,0C399,438.673,384.673,453,367,453z"/>
<path class="icon-color-3" visibility="hidden" d="M260.333,453L260.333,453c-17.673,0-32-14.327-32-32l0,0c0-17.673,14.327-32,32-32l0,0
	c17.673,0,32,14.327,32,32l0,0C292.333,438.673,278.007,453,260.333,453z"/>
<path class="icon-color-other" fill="#FFFFFF" visibility="hidden" d="M153.667,453L153.667,453c-17.673,0-32-14.327-32-32l0,0c0-17.673,14.327-32,32-32l0,0
	c17.673,0,32,14.327,32,32l0,0C185.667,438.673,171.34,453,153.667,453z"/>
<g>
	<path class="icon-color-3" visibility="hidden" d="M47,575L47,575c-17.673,0-32-14.327-32-32l0,0c0-17.673,14.327-32,32-32l0,0
		c17.673,0,32,14.327,32,32l0,0C79,560.673,64.673,575,47,575z"/>
	<path class="icon-color-3" visibility="hidden" d="M260.333,575L260.333,575c-17.673,0-32-14.327-32-32l0,0c0-17.673,14.327-32,32-32l0,0
		c17.673,0,32,14.327,32,32l0,0C292.333,560.673,278.007,575,260.333,575z"/>
</g>
<path class="icon-color-2" visibility="hidden" d="M367,575L367,575c-17.673,0-32-14.327-32-32l0,0c0-17.673,14.327-32,32-32l0,0
	c17.673,0,32,14.327,32,32l0,0C399,560.673,384.673,575,367,575z"/>
<g>
	<path class="icon-color-3" visibility="hidden" d="M153.667,575L153.667,575c-17.673,0-32-14.327-32-32l0,0c0-17.673,14.327-32,32-32l0,0
		c17.673,0,32,14.327,32,32l0,0C185.667,560.673,171.34,575,153.667,575z"/>
	<path class="icon-color-3" visibility="hidden" d="M153.667,453L153.667,453c-17.673,0-32-14.327-32-32l0,0c0-17.673,14.327-32,32-32l0,0
		c17.673,0,32,14.327,32,32l0,0C185.667,438.673,171.34,453,153.667,453z"/>
</g>
<path class="icon-color-outline" fill="#303030" d="M416.399,344.07c1.86-1.86,2.931-4.44,2.931-7.07s-1.07-5.21-2.931-7.07
	c-1.859-1.86-4.43-2.93-7.069-2.93c-2.63,0-5.21,1.07-7.07,2.93c-1.86,1.86-2.93,4.44-2.93,7.07s1.069,5.21,2.93,7.07
	s4.44,2.93,7.07,2.93C411.97,347,414.54,345.93,416.399,344.07z"/>
<path class="icon-color-outline" fill="#303030" d="M407.333,215h-11.452c1.77-1.804,2.865-4.273,2.865-7v-13c0-18.748-15.252-34-34-34s-34,15.252-34,34
	v20h-92.738c1.77-1.804,2.865-4.273,2.865-7v-13c0-18.748-15.252-34-34-34s-34,15.252-34,34v20H80.135
	c1.77-1.804,2.865-4.273,2.865-7v-13c0-18.748-15.252-34-34-34s-34,15.252-34,34v20H6.667C-24.028,215-49,239.972-49,270.667V603
	c0,16.542,13.458,30,30,30h172.667c5.522,0,10-4.477,10-10s-4.478-10-10-10H-19c-5.514,0-10-4.486-10-10V347h389.34
	c5.522,0,10-4.477,10-10s-4.478-10-10-10H-29v-56.333C-29,251-13,235,6.667,235H15v24.168c0,18.748,15.252,34,34,34s34-15.252,34-34
	c0-5.523-4.478-10-10-10s-10,4.477-10,10c0,7.72-6.28,14-14,14s-14-6.28-14-14V235h137.873v24.168c0,18.748,15.252,34,34,34
	s34-15.252,34-34c0-5.523-4.478-10-10-10s-10,4.477-10,10c0,7.72-6.28,14-14,14s-14-6.28-14-14V235h137.873v24.168
	c0,18.748,15.252,34,34,34s34-15.252,34-34c0-5.523-4.478-10-10-10s-10,4.477-10,10c0,7.72-6.28,14-14,14s-14-6.28-14-14V235h56.587
	C427,235,443,251,443,270.667V603c0,5.514-4.486,10-10,10H260.333c-5.522,0-10,4.477-10,10s4.478,10,10,10H433
	c16.542,0,30-13.458,30-30V270.667C463,239.972,438.028,215,407.333,215z M35,195c0-7.72,6.28-14,14-14s14,6.28,14,14v13
	c0,2.727,1.095,5.196,2.865,7H35V195z M192.873,195c0-7.72,6.28-14,14-14c7.72,0,14,6.28,14,14v13c0,2.727,1.095,5.196,2.865,7
	h-30.865L192.873,195L192.873,195z M350.746,195c0-7.72,6.28-14,14-14s14,6.28,14,14v13c0,2.727,1.095,5.196,2.865,7h-30.865V195z"
	/>
<path class="icon-color-outline" fill="#303030" d="M47,379c-23.159,0-42,18.841-42,42s18.841,42,42,42s42-18.841,42-42S70.159,379,47,379z M47,443
	c-12.131,0-22-9.869-22-22s9.869-22,22-22s22,9.869,22,22S59.131,443,47,443z"/>
<path class="icon-color-outline" fill="#303030" d="M367,379c-23.159,0-42,18.841-42,42s18.841,42,42,42s42-18.841,42-42S390.159,379,367,379z M367,443
	c-12.131,0-22-9.869-22-22s9.869-22,22-22s22,9.869,22,22S379.131,443,367,443z"/>
<path class="icon-color-outline" fill="#303030" d="M260.333,463c23.159,0,42-18.841,42-42s-18.841-42-42-42s-42,18.841-42,42S237.174,463,260.333,463z
	 M260.333,399c12.131,0,22,9.869,22,22s-9.869,22-22,22s-22-9.869-22-22S248.202,399,260.333,399z"/>
<path class="icon-color-outline" fill="#303030" d="M153.667,379c-23.159,0-42,18.841-42,42s18.841,42,42,42s42-18.841,42-42S176.826,379,153.667,379z
	 M153.667,443c-12.131,0-22-9.869-22-22s9.869-22,22-22s22,9.869,22,22S165.798,443,153.667,443z"/>
<path class="icon-color-outline" fill="#303030" d="M47,501c-23.159,0-42,18.841-42,42s18.841,42,42,42s42-18.841,42-42S70.159,501,47,501z M47,565
	c-12.131,0-22-9.869-22-22s9.869-22,22-22s22,9.869,22,22S59.131,565,47,565z"/>
<path class="icon-color-outline" fill="#303030" d="M302.333,543c0-23.159-18.841-42-42-42s-42,18.841-42,42s18.841,42,42,42
	S302.333,566.159,302.333,543z M238.333,543c0-12.131,9.869-22,22-22s22,9.869,22,22s-9.869,22-22,22S238.333,555.131,238.333,543z"
	/>
<path class="icon-color-outline" fill="#303030" d="M367,585c23.159,0,42-18.841,42-42s-18.841-42-42-42s-42,18.841-42,42S343.841,585,367,585z M367,521
	c12.131,0,22,9.869,22,22s-9.869,22-22,22s-22-9.869-22-22S354.869,521,367,521z"/>
<path class="icon-color-outline" fill="#303030" d="M153.667,501c-23.159,0-42,18.841-42,42s18.841,42,42,42s42-18.841,42-42S176.826,501,153.667,501z
	 M153.667,565c-12.131,0-22-9.869-22-22s9.869-22,22-22s22,9.869,22,22S165.798,565,153.667,565z"/>
<path class="icon-color-outline" fill="#303030" d="M207,613c-2.641,0-5.21,1.07-7.07,2.93c-1.87,1.86-2.93,4.44-2.93,7.07s1.06,5.21,2.93,7.07
	c1.86,1.86,4.43,2.93,7.07,2.93c2.63,0,5.21-1.07,7.069-2.93c1.86-1.86,2.931-4.44,2.931-7.07s-1.07-5.21-2.931-7.07
	C212.21,614.07,209.63,613,207,613z"/>
</svg>
