<?xml version="1.0" encoding="iso-8859-1"?>
<!-- Generator: Adobe Illustrator 19.0.0, SVG Export Plug-In . SVG Version: 6.00 Build 0)  -->
<svg version="1.1" id="Capa_1" xmlns="http://www.w3.org/2000/svg" xmlns:xlink="http://www.w3.org/1999/xlink" x="0px" y="0px"
	 viewBox="-49 141 512 512" style="enable-background:new -49 141 512 512;" xml:space="preserve">
<path class="icon-color-other" fill="#C8F5FF" visibility="hidden" d="M398.992,307.009H15.001c-29.822,0-53.999,24.176-53.999,53.999v227.994
	c0,29.822,24.176,53.999,53.999,53.999h383.99c29.822,0,53.999-24.176,53.999-53.999V361.007
	C452.99,331.184,428.815,307.009,398.992,307.009z"/>
<path class="icon-color-2" visibility="hidden"  d="M398.992,307.009H15.001c-29.822,0-53.999,24.176-53.999,53.999v70.294l5.54-0.296h140.946H309.2
	h140.946h2.844v-69.998C452.99,331.184,428.815,307.009,398.992,307.009z"/>
<circle class="icon-color-1" visibility="hidden"  cx="206.993" cy="475.002" r="107.997"/>
<circle class="icon-color-other" fill="#FFFFFF" visibility="hidden" cx="206.993" cy="475.002" r="66.118"/>
<circle class="icon-color-1" visibility="hidden"  cx="206.993" cy="475.002" r="23.999"/>
<circle class="icon-color-1" visibility="hidden"  cx="43.468" cy="369.004" r="19.999"/>
<path class="icon-color-3" visibility="hidden"  d="M50.723,271.01h-14.52c-10.86,0-19.663,8.804-19.663,19.662v16.337h53.845v-16.337
	C70.386,279.812,61.583,271.01,50.723,271.01z"/>
<path class="icon-color-other" fill="#F0F0FA" visibility="hidden" d="M109.681,270.095l-9.768,36.914h223.994l-9.768-36.914c-4.224-15.965-18.669-27.084-35.183-27.084
	H144.865C128.35,243.01,113.906,254.13,109.681,270.095z"/>
<path class="icon-color-outline" fill="#303030" d="M206.996,399.006c-41.905,0-75.998,34.092-75.998,75.998s34.093,75.998,75.998,75.998
	s75.998-34.092,75.998-75.998c0-5.523-4.478-10-10-10s-10,4.477-10,10c0,30.877-25.12,55.999-55.999,55.999
	s-55.999-25.121-55.999-55.999s25.12-55.999,55.999-55.999c5.522,0,10-4.477,10-10S212.519,399.006,206.996,399.006z"/>
<path class="icon-color-outline" fill="#303030" d="M172.997,475.005c0,18.747,15.252,33.999,33.999,33.999s33.999-15.252,33.999-33.999
	s-15.252-33.999-33.999-33.999S172.997,456.257,172.997,475.005z M220.996,475.005c0,7.72-6.28,14-14,14s-14-6.28-14-14
	c0-7.72,6.28-14,14-14S220.996,467.285,220.996,475.005z"/>
<path class="icon-color-outline" fill="#303030" d="M452.99,547.003c-5.522,0-10,4.477-10,10v31.999c0,24.261-19.738,43.999-43.999,43.999H15.001
	c-24.261,0-43.999-19.737-43.999-43.999V441.005H94.036c-3.287,10.873-5.037,22.307-5.037,33.999
	c0,65.063,52.934,117.997,117.997,117.997s117.997-52.934,117.997-117.997c0-11.722-1.73-23.15-4.986-33.999h122.983v28.499
	c0,5.523,4.478,10,10,10c5.522,0,10-4.477,10-10V361.007c0-35.289-28.709-63.998-63.998-63.998h-67.386l-7.798-29.472
	c-5.379-20.328-23.821-34.526-44.851-34.526H144.865c-21.028,0-39.472,14.198-44.851,34.526l-7.798,29.472H80.386v-6.336
	c0-16.356-13.307-29.663-29.662-29.663h-14.52c-16.356,0-29.662,13.307-29.662,29.663v6.913
	c-31.302,4.155-55.538,31.003-55.538,63.421v227.994c0,35.289,28.709,63.998,63.998,63.998h383.99
	c35.289,0,63.998-28.709,63.998-63.998v-31.999C462.99,551.48,458.513,547.003,452.99,547.003z M119.348,272.653
	c3.061-11.566,13.554-19.643,25.517-19.643h134.093c11.964,0,22.456,8.078,25.517,19.643l6.444,24.355H112.904L119.348,272.653z
	 M26.54,290.672c0-5.329,4.335-9.664,9.663-9.664h14.521c5.328,0,9.663,4.335,9.663,9.664v6.336H26.54V290.672z M15.001,317.009
	h1.539h53.846h29.527h223.994h75.084c24.261,0,43.999,19.737,43.999,43.999v59.998H311.95
	c-12.325-23.972-32.763-43.51-58.648-54.564c-5.078-2.167-10.956,0.19-13.124,5.27c-2.169,5.079,0.189,10.955,5.269,13.124
	c36.174,15.448,59.547,50.841,59.547,90.169c0,54.037-43.962,97.997-97.997,97.997S109,529.041,109,475.005
	c0-38.303,22.528-73.324,57.395-89.219c5.025-2.291,7.241-8.222,4.95-13.248c-2.29-5.025-8.223-7.239-13.247-4.951
	c-24.556,11.196-44.017,30.279-55.95,53.418H-28.998v-59.998C-28.998,336.746-9.259,317.009,15.001,317.009z"/>
<path class="icon-color-outline" fill="#303030" d="M43.464,399.006c16.542,0,29.999-13.458,29.999-29.999c0-16.542-13.458-29.999-29.999-29.999
	s-29.999,13.458-29.999,29.999C13.464,385.549,26.922,399.006,43.464,399.006z M43.464,359.007c5.514,0,10,4.486,10,10
	c0,5.514-4.486,10-10,10s-10-4.486-10-10C33.464,363.493,37.951,359.007,43.464,359.007z"/>
<path class="icon-color-outline" fill="#303030" d="M359.949,379.007h25.892c5.522,0,10-4.477,10-10s-4.478-10-10-10h-25.892c-5.522,0-10,4.477-10,10
	S354.427,379.007,359.949,379.007z"/>
<path class="icon-color-outline" fill="#303030" d="M206.883,209.109c5.522,0,10-4.477,10-10V151c0-5.523-4.478-10-10-10s-10,4.477-10,10v48.11
	C196.883,204.632,201.361,209.109,206.883,209.109z"/>
<path class="icon-color-outline" fill="#303030" d="M276.04,220.021c2.559,0,5.118-0.977,7.071-2.929l19.63-19.63c3.905-3.905,3.905-10.237,0-14.142
	c-3.905-3.905-10.235-3.905-14.143,0l-19.631,19.629c-3.905,3.905-3.905,10.237,0,14.142
	C270.922,219.045,273.481,220.021,276.04,220.021z"/>
<path class="icon-color-outline" fill="#303030" d="M131.01,217.449c1.953,1.953,4.512,2.929,7.071,2.929c2.559,0,5.118-0.977,7.071-2.929
	c3.905-3.905,3.905-10.237,0-14.142l-19.631-19.63c-3.906-3.905-10.236-3.905-14.143,0c-3.905,3.905-3.905,10.237,0,14.142
	L131.01,217.449z"/>
<path class="icon-color-outline" fill="#303030" d="M207.003,377.007c2.63,0,5.199-1.07,7.069-2.93c1.86-1.86,2.92-4.44,2.92-7.07s-1.06-5.21-2.92-7.07
	c-1.87-1.86-4.439-2.93-7.069-2.93c-2.641,0-5.221,1.07-7.08,2.93c-1.86,1.86-2.931,4.44-2.931,7.07s1.07,5.21,2.931,7.07
	C201.793,375.936,204.363,377.007,207.003,377.007z"/>
<path class="icon-color-outline" fill="#303030" d="M452.986,504.504c-2.63,0-5.21,1.07-7.069,2.93c-1.86,1.86-2.931,4.44-2.931,7.07
	c0,2.63,1.07,5.21,2.931,7.07c1.859,1.86,4.439,2.93,7.069,2.93c2.641,0,5.21-1.07,7.07-2.93c1.87-1.86,2.94-4.44,2.94-7.07
	c0-2.63-1.07-5.21-2.94-7.07C458.195,505.574,455.626,504.504,452.986,504.504z"/>
</svg>
