<?xml version="1.0" encoding="iso-8859-1"?>
<!-- Generator: Adobe Illustrator 19.0.0, SVG Export Plug-In . SVG Version: 6.00 Build 0)  -->
<svg version="1.1" id="Capa_1" xmlns="http://www.w3.org/2000/svg" xmlns:xlink="http://www.w3.org/1999/xlink" x="0px" y="0px"
	 viewBox="-49 141 512 512" style="enable-background:new -49 141 512 512;" xml:space="preserve">
<path class="icon-color-1" visibility="hidden"  d="M423.97,421.538l-0.579,0.579c18.694-27.738,29.608-61.154,29.608-97.119
	c0-96.097-77.902-173.999-173.999-173.999s-173.999,77.902-173.999,173.999S182.903,498.997,279,498.997
	c37.554,0,72.329-11.898,100.762-32.128l60.715,16.268L423.97,421.538z"/>
<path class="icon-color-2" visibility="hidden"  d="M89,387.002c-70.692,0-127.999,57.308-127.999,127.999c0,27.685,8.791,53.315,23.731,74.256
	l-11.897,44.399l45.211-12.114C38.354,635.093,62.753,642.999,89,642.999c70.692,0,127.999-57.308,127.999-127.999
	S159.693,387.002,89,387.002z"/>
<path class="icon-color-2" visibility="hidden"  d="M228.696,356.295c0,28.126,22.801,50.927,50.927,50.927l0,0c28.126,0,50.927-22.801,50.927-50.927
	H228.696L228.696,356.295z"/>
<g>
	<path class="icon-color-other" fill="#FFDCDC" visibility="hidden" d="M347.681,296.862c0.431-0.266,0.861-0.532,1.292-0.798"/>
	<path class="icon-color-other" fill="#FFDCDC" visibility="hidden" d="M210.272,296.862c0.431-0.266,0.861-0.532,1.292-0.798"/>
</g>
<path class="icon-color-outline" fill="#303030" d="M434.726,423.042c18.514-29.34,28.272-63.116,28.272-98.043C462.998,223.542,380.456,141,278.999,141
	c-33.984,0-67.188,9.341-96.02,27.013c-4.709,2.886-6.187,9.042-3.3,13.751c2.885,4.708,9.041,6.187,13.751,3.3
	C219.116,169.321,248.706,161,279,161c90.429,0,163.999,73.57,163.999,163.999c0,32.797-9.647,64.448-27.9,91.53
	c-2.421,3.592-2.214,8.236,0.277,11.571l10.958,40.896L382.35,457.21c-2.881-0.772-5.956-0.219-8.386,1.511
	c-27.838,19.808-60.676,30.277-94.964,30.277c-19.533,0-38.638-3.412-56.808-10.125c-12.791-47.105-49.958-84.273-97.063-97.063
	c-6.714-18.17-10.128-37.272-10.128-56.811c0-30.63,8.495-60.501,24.567-86.385c2.913-4.692,1.471-10.857-3.221-13.771
	c-4.69-2.913-10.857-1.472-13.771,3.221C104.535,257.118,95,290.637,95,324.999c0,17.987,2.582,35.649,7.672,52.68
	c-4.499-0.444-9.059-0.677-13.672-0.677c-76.093,0-137.999,61.907-137.999,137.999c0,27.309,7.896,53.524,22.878,76.122
	l-10.702,39.945c-0.925,3.451,0.062,7.133,2.588,9.66c2.526,2.526,6.207,3.512,9.659,2.588l40.935-10.969
	C38.159,645.872,63.175,653,89,653c26.285,0,51.852-7.42,73.937-21.458c4.661-2.963,6.037-9.143,3.075-13.804
	c-2.963-4.661-9.145-6.037-13.804-3.075C133.335,626.66,111.479,633,89,633c-23.4,0-46.017-6.838-65.404-19.776
	c-2.393-1.597-5.358-2.087-8.139-1.341l-28.48,7.631l7.414-27.669c0.773-2.885,0.216-5.965-1.519-8.396
	c-14.309-20.056-21.872-43.725-21.872-68.449c0-65.065,52.935-117.999,117.999-117.999S207,449.936,207,515.001
	c0,13.895-2.389,27.494-7.101,40.42c-1.892,5.188,0.781,10.928,5.97,12.82c5.188,1.891,10.929-0.781,12.82-5.97
	c5.515-15.127,8.311-31.031,8.311-47.27c0-4.613-0.232-9.172-0.676-13.67c17.032,5.089,34.696,7.667,52.677,7.667
	c36.875,0,72.26-10.796,102.646-31.271l56.242,15.07c3.453,0.925,7.133-0.062,9.66-2.588c2.526-2.526,3.513-6.208,2.588-9.66
	L434.726,423.042z"/>
<path class="icon-color-outline" fill="#303030" d="M330.55,346.295H228.696c-5.523,0-10,4.477-10,10c0,33.595,27.332,60.927,60.927,60.927
	s60.927-27.332,60.927-60.927C340.55,350.772,336.072,346.295,330.55,346.295z M279.623,397.221
	c-19.118,0-35.217-13.178-39.691-30.927h79.383C314.84,384.043,298.741,397.221,279.623,397.221z"/>
<path class="icon-color-outline" fill="#303030" d="M347.69,306.864c1.793,0,3.609-0.482,5.247-1.495l1.281-0.791c4.702-2.897,6.166-9.057,3.269-13.759
	c-2.898-4.703-9.059-6.165-13.759-3.269l-1.304,0.805c-4.698,2.903-6.154,9.065-3.25,13.763
	C341.065,305.18,344.339,306.864,347.69,306.864z"/>
<path class="icon-color-outline" fill="#303030" d="M206.321,287.55l-1.304,0.805c-4.699,2.903-6.154,9.065-3.25,13.763
	c1.891,3.061,5.165,4.745,8.516,4.745c1.793,0,3.609-0.482,5.247-1.495l1.281-0.791c4.702-2.897,6.166-9.057,3.269-13.759
	C217.181,286.116,211.019,284.654,206.321,287.55z"/>
<path class="icon-color-outline" fill="#303030" d="M26.931,507.929c-1.86,1.86-2.93,4.44-2.93,7.07c0,2.63,1.07,5.21,2.93,7.07
	c1.86,1.86,4.44,2.93,7.07,2.93s5.21-1.07,7.07-2.93s2.93-4.44,2.93-7.07c0-2.63-1.07-5.21-2.93-7.07s-4.44-2.93-7.07-2.93
	S28.792,506.069,26.931,507.929z"/>
<path class="icon-color-outline" fill="#303030" d="M81.93,507.929c-1.86,1.86-2.93,4.44-2.93,7.07c0,2.63,1.07,5.21,2.93,7.07
	c1.86,1.86,4.44,2.93,7.07,2.93s5.21-1.07,7.07-2.93s2.93-4.44,2.93-7.07c0-2.63-1.07-5.21-2.93-7.07
	c-1.86-1.86-4.44-2.93-7.07-2.93S83.791,506.069,81.93,507.929z"/>
<path class="icon-color-outline" fill="#303030" d="M136.93,507.929c-1.86,1.86-2.93,4.44-2.93,7.07c0,2.63,1.07,5.21,2.93,7.07
	c1.86,1.86,4.44,2.93,7.07,2.93s5.21-1.07,7.07-2.93c1.86-1.86,2.93-4.44,2.93-7.07c0-2.63-1.07-5.21-2.93-7.07
	s-4.44-2.93-7.07-2.93S138.791,506.069,136.93,507.929z"/>
<path class="icon-color-outline" fill="#303030" d="M188.76,585.198c-2.64,0-5.21,1.07-7.07,2.93c-1.86,1.86-2.93,4.44-2.93,7.07
	c0,2.63,1.07,5.21,2.93,7.07s4.43,2.93,7.07,2.93c2.63,0,5.21-1.07,7.07-2.93c1.86-1.86,2.93-4.44,2.93-7.07
	c0-2.63-1.07-5.21-2.93-7.07C193.97,586.268,191.39,585.198,188.76,585.198z"/>
<path class="icon-color-outline" fill="#303030" d="M156.301,211.631c2.63,0,5.21-1.06,7.07-2.92c1.86-1.86,2.93-4.44,2.93-7.07
	c0-2.64-1.07-5.21-2.93-7.08c-1.86-1.86-4.44-2.92-7.07-2.92c-2.64,0-5.21,1.06-7.07,2.92c-1.87,1.87-2.93,4.44-2.93,7.08
	c0,2.63,1.06,5.21,2.93,7.07C151.091,210.571,153.66,211.631,156.301,211.631z"/>
</svg>
