<?xml version="1.0" encoding="iso-8859-1"?>
<!-- Generator: Adobe Illustrator 19.0.0, SVG Export Plug-In . SVG Version: 6.00 Build 0)  -->
<svg version="1.1" id="Layer_1" xmlns="http://www.w3.org/2000/svg" xmlns:xlink="http://www.w3.org/1999/xlink" x="0px" y="0px"
	 viewBox="0 0 407.586 358" style="enable-background:new 0 0 407.586 358;" xml:space="preserve">
<path class="icon-color-1" visibility="hidden"  d="M339.352,228.915v113.086H14V16.65h325.352V228.915z M339.352,228.915"/>
<path class="icon-color-2" visibility="hidden"  d="M173.43,280.821c-5.93,0-11.86-2.261-16.387-6.785l-78.785-78.789
	c-9.051-9.051-9.051-23.722,0-32.773c9.047-9.047,23.719-9.047,32.769,0l62.403,62.402L360.043,38.267
	c9.051-9.051,23.719-9.051,32.769,0c9.051,9.051,9.051,23.722,0,32.773L189.816,274.036
	C185.293,278.56,179.363,280.821,173.43,280.821L173.43,280.821z M173.43,280.821"/>
<path class="icon-color-outline" fill="#303030" d="M339.352,220.915c-4.418,0-8,3.582-8,8v105.086H22V24.65h317.352c4.418,0,8-3.582,8-8s-3.582-8-8-8
	H14c-4.418,0-8,3.582-8,8v325.351c0,4.418,3.582,8,8,8h325.352c4.418,0,8-3.582,8-8V228.915
	C347.352,224.497,343.77,220.915,339.352,220.915L339.352,220.915z M339.352,220.915"/>
<path class="icon-color-outline" fill="#303030" d="M339.352,162.517c-4.418,0-8,3.582-8,8v21.32c0,4.418,3.582,8,8,8c4.418,0,8-3.582,8-8v-21.32
	C347.352,166.099,343.77,162.517,339.352,162.517L339.352,162.517z M339.352,162.517"/>
<path class="icon-color-outline" fill="#303030" d="M398.469,32.611c-12.153-12.153-31.93-12.153-44.082,0L173.43,213.564l-56.746-56.746
	c-12.153-12.153-31.93-12.153-44.086,0c-12.153,12.156-12.153,31.929,0,44.086l78.789,78.789c5.886,5.886,13.718,9.128,22.043,9.128
	c8.328,0,16.156-3.242,22.043-9.128l202.996-203C410.625,64.54,410.625,44.763,398.469,32.611L398.469,32.611z M387.156,65.384
	L184.16,268.38c-2.867,2.863-6.676,4.441-10.73,4.441c-4.051,0-7.864-1.578-10.727-4.441l-78.789-78.789
	c-5.918-5.918-5.918-15.543,0-21.461c2.957-2.957,6.844-4.437,10.727-4.437c3.886,0,7.773,1.48,10.73,4.437l62.402,62.402
	c1.5,1.5,3.536,2.344,5.657,2.344c2.121,0,4.156-0.844,5.656-2.344L365.699,43.923c5.914-5.914,15.539-5.914,21.457,0
	C393.07,49.841,393.07,59.466,387.156,65.384L387.156,65.384z M387.156,65.384"/>
</svg>
