<?xml version="1.0" encoding="iso-8859-1"?>
<!-- Generator: Adobe Illustrator 19.0.0, SVG Export Plug-In . SVG Version: 6.00 Build 0)  -->
<svg version="1.1" id="Capa_1" xmlns="http://www.w3.org/2000/svg" xmlns:xlink="http://www.w3.org/1999/xlink" x="0px" y="0px"
	 viewBox="-49 141 512 512" style="enable-background:new -49 141 512 512;" xml:space="preserve">
<path class="icon-color-other" fill="#C4C6C6" visibility="hidden" d="M207,151c132.55,0,246,113.45,246,246S339.55,643,207,643S-39,529.55-39,397S74.45,151,207,151z"/>
<path class="icon-color-other" fill="#A8A8A8" visibility="hidden" d="M318.21,325.79c11.72,11.71,11.72,30.71,0,42.42l-120,120c-5.86,5.86-13.53,8.79-21.21,8.79
	s-15.35-2.93-21.21-8.79l-60-60c-11.72-11.71-11.72-30.71,0-42.42c11.72-11.72,30.7-11.72,42.42,0L177,424.58l98.79-98.79
	C287.51,314.07,306.49,314.07,318.21,325.79z"/>
<path class="icon-color-outline" fill="#303030" d="M442.375,298.662c-13.15-30.297-31.856-57.697-55.598-81.439s-51.142-42.448-81.439-55.598
	C273.809,147.939,240.723,141,207,141s-66.809,6.939-98.338,20.625c-30.297,13.15-57.697,31.856-81.439,55.598
	s-42.448,51.142-55.598,81.439C-42.061,330.191-49,363.277-49,397s6.939,66.809,20.625,98.338
	c13.15,30.297,31.856,57.697,55.598,81.439c23.742,23.742,51.142,42.448,81.439,55.598C140.191,646.061,173.277,653,207,653
	s66.809-6.939,98.338-20.625c30.297-13.15,57.697-31.856,81.439-55.598c23.742-23.742,42.448-51.142,55.598-81.439
	C456.061,463.809,463,430.723,463,397S456.061,330.191,442.375,298.662z M207,633C79.075,633-29,524.925-29,397S79.075,161,207,161
	s236,108.075,236,236S334.925,633,207,633z"/>
<path class="icon-color-outline" fill="#303030" d="M402.975,314.804c-10.87-25.256-26.363-48.044-46.049-67.729
	c-19.686-19.686-42.473-35.179-67.729-46.049C262.948,189.728,235.293,184,207,184c-38.462,0-78.555,13.134-115.945,37.981
	c-4.6,3.057-5.851,9.264-2.794,13.863c3.057,4.6,9.264,5.85,13.863,2.794C136.224,215.978,172.489,204,207,204
	c104.617,0,193,88.383,193,193s-88.383,193-193,193S14,501.617,14,397c0-34.504,11.975-70.771,34.629-104.877
	c3.056-4.601,1.804-10.807-2.796-13.863c-4.602-3.056-10.807-1.803-13.863,2.797C7.13,318.454-6,358.546-6,397
	c0,28.293,5.728,55.948,17.025,82.196c10.87,25.256,26.363,48.044,46.049,67.729c19.686,19.686,42.473,35.179,67.729,46.049
	C151.052,604.272,178.707,610,207,610s55.948-5.728,82.196-17.025c25.256-10.87,48.044-26.363,67.729-46.049
	c19.686-19.686,35.179-42.473,46.049-67.729C414.272,452.948,420,425.293,420,397S414.272,341.052,402.975,314.804z"/>
<path class="icon-color-outline" fill="#303030" d="M88.719,435.281l60,60C156.276,502.838,166.32,507,177,507s20.724-4.162,28.281-11.719
	l119.997-119.997C332.837,367.731,337,357.687,337,347s-4.163-20.731-11.719-28.281C317.724,311.162,307.681,307,297,307
	s-20.724,4.162-28.281,11.719L177,410.438l-31.719-31.719C137.724,371.162,127.681,367,117,367s-20.724,4.162-28.278,11.716
	C81.163,386.269,77,396.313,77,407S81.163,427.731,88.719,435.281z M102.861,392.861c3.78-3.779,8.801-5.861,14.139-5.861
	s10.359,2.082,14.139,5.861L177,438.722l105.861-105.861c3.78-3.779,8.801-5.861,14.139-5.861s10.359,2.082,14.142,5.864
	C314.919,336.639,317,341.659,317,347s-2.081,10.361-5.861,14.139l-120,120C187.359,484.918,182.338,487,177,487
	s-10.359-2.082-14.139-5.861l-60.003-60.003C99.081,417.361,97,412.341,97,407S99.081,396.639,102.861,392.861z"/>
<path class="icon-color-outline" fill="#303030" d="M66,246c-5.52,0-10,4.48-10,10s4.48,10,10,10s10-4.48,10-10S71.52,246,66,246z"/>
</svg>
