<?xml version="1.0" encoding="iso-8859-1"?>
<!-- Generator: Adobe Illustrator 19.0.0, SVG Export Plug-In . SVG Version: 6.00 Build 0)  -->
<svg version="1.1" id="Capa_1" xmlns="http://www.w3.org/2000/svg" xmlns:xlink="http://www.w3.org/1999/xlink" x="0px" y="0px"
	 viewBox="-49 141 512 512" style="enable-background:new -49 141 512 512;" xml:space="preserve">
<g>
	<path class="icon-color-3" visibility="hidden" d="M77.932,597.878L39.67,642.933c0,0-34.654,0.153-34.654,0s44.101-72.952,44.101-72.952
		L77.932,597.878z"/>
	<path class="icon-color-3" visibility="hidden" d="M337.012,598.951l37.35,43.981c0,0,34.654,0.153,34.654,0c0-0.153-44.101-72.952-44.101-72.952
		L337.012,598.951z"/>
</g>
<g>
	
		<rect x="344.479" y="248.59" transform="matrix(0.7071 -0.7071 0.7071 0.7071 -83.3396 335.8056)" class="icon-color-other" fill="#F0F0FA" visibility="hidden" width="38.41" height="39.825"/>
	
		<rect x="31.158" y="248.587" transform="matrix(0.7071 0.7071 -0.7071 0.7071 204.6085 43.0295)" class="icon-color-other" fill="#F0F0FA" visibility="hidden" width="38.41" height="39.825"/>
</g>
<circle class="icon-color-1" visibility="hidden" cx="207.02" cy="435.72" r="207.26"/>
<circle class="icon-color-other" fill="#FFFFFF" visibility="hidden" cx="207.02" cy="435.72" r="163.23"/>
<circle class="icon-color-2" visibility="hidden" cx="207.02" cy="435.72" r="24.699"/>
<path class="icon-color-3" visibility="hidden" d="M-19.14,310.836L-19.14,310.836c-26.458-26.458-26.458-69.354,0-95.812l16.571-16.571
	c26.458-26.458,69.354-26.458,95.812,0l0,0L-19.14,310.836z"/>
<path class="icon-color-3" visibility="hidden" d="M238.282,191H175.75c-11.046,0-20-8.954-20-20l0,0c0-11.046,8.954-20,20-20h62.532
	c11.046,0,20,8.954,20,20l0,0C258.282,182.046,249.328,191,238.282,191z"/>
<path class="icon-color-3" visibility="hidden" d="M433.178,310.836L433.178,310.836c26.458-26.458,26.458-69.354,0-95.812l-16.571-16.571
	c-26.458-26.458-69.354-26.458-95.812,0l0,0L433.178,310.836z"/>
<path class="icon-color-outline" fill="#303030" d="M207.017,262.493c-39.609,0-76.892,13.013-107.816,37.633c-30.004,23.887-51.493,57.451-60.509,94.51
	c-1.305,5.366,1.986,10.775,7.353,12.081c5.365,1.303,10.774-1.986,12.081-7.353c16.741-68.812,77.968-116.871,148.892-116.871
	c84.491,0,153.229,68.738,153.229,153.229s-68.738,153.229-153.229,153.229c-71.594,0-132.953-48.616-149.215-118.225
	c-1.257-5.378-6.635-8.72-12.013-7.463c-5.378,1.256-8.719,6.635-7.463,12.013c8.743,37.424,30.15,71.363,60.279,95.565
	c30.593,24.576,69.094,38.11,108.412,38.11c95.519,0,173.229-77.71,173.229-173.229S302.536,262.493,207.017,262.493z"/>
<path class="icon-color-outline" fill="#303030" d="M440.249,207.953l-16.571-16.571c-14.685-14.685-34.21-22.772-54.978-22.772
	s-40.292,8.088-54.977,22.773c-3.905,3.905-3.905,10.237,0,14.142l35.315,35.315l-17.079,17.079
	c-33.644-23.749-73.231-37.345-114.943-39.222V201h21.266c16.542,0,30-13.458,30-30s-13.458-30-30-30h-62.531
	c-16.542,0-30,13.458-30,30s13.458,30,30,30h21.266v17.697c-41.711,1.877-81.298,15.473-114.941,39.22L64.999,240.84l35.315-35.315
	c3.905-3.905,3.905-10.237,0-14.142c-14.685-14.685-34.209-22.773-54.977-22.773s-40.292,8.087-54.978,22.773l-16.57,16.571
	c-14.685,14.684-22.773,34.209-22.773,54.976s8.088,40.292,22.772,54.978c1.875,1.875,4.419,2.929,7.071,2.929
	s5.196-1.054,7.071-2.929l34.765-34.765l15.636,15.636c-31.464,38.61-48.574,86.46-48.574,136.944
	c0,49.704,16.592,96.851,47.132,135.144c-4.153,6.856-11.263,18.598-18.378,30.355c-5.515,9.112-11.029,18.229-15.165,25.078
	c-2.071,3.43-3.797,6.292-5.005,8.301c-2.752,4.577-3.325,5.529-3.325,8.332c0,2.66,1.06,5.211,2.945,7.088
	c2.97,2.957,4.991,2.961,12.513,2.977c1.073,0.002,2.262,0.003,3.528,0.003c2.591,0,5.507-0.004,8.421-0.011
	c8.656-0.02,17.292-0.058,17.292-0.058c2.919-0.013,5.688-1.301,7.578-3.527l32.111-37.812
	c36.865,26.869,81.121,41.387,127.613,41.387s90.747-14.518,127.612-41.387l32.111,37.812c1.89,2.226,4.658,3.514,7.578,3.527
	c0,0,8.636,0.038,17.292,0.058c2.915,0.006,5.83,0.011,8.421,0.011c1.266,0,2.455-0.001,3.528-0.003
	c7.521-0.016,9.543-0.021,12.513-2.977c1.885-1.877,2.945-4.428,2.945-7.088c0-2.803-0.573-3.755-3.325-8.332
	c-1.208-2.009-2.934-4.871-5.005-8.301c-4.136-6.849-9.65-15.966-15.165-25.078c-7.115-11.757-14.226-23.499-18.378-30.355
	c30.541-38.293,47.132-85.44,47.132-135.144c0-50.483-17.109-98.332-48.572-136.941l15.638-15.638l34.765,34.765
	c1.875,1.875,4.419,2.929,7.072,2.929c2.652,0,5.196-1.054,7.071-2.929C470.563,287.593,470.563,238.268,440.249,207.953z
	 M165.751,171c0-5.514,4.486-10,10-10h62.531c5.514,0,10,4.486,10,10s-4.486,10-10,10h-62.531
	C170.237,181,165.751,176.514,165.751,171z M-18.534,296.088c-6.791-9.644-10.45-21.12-10.45-33.158
	c0-15.425,6.007-29.927,16.915-40.835l16.571-16.571c11.258-11.258,26.046-16.887,40.835-16.887
	c11.622,0,23.243,3.476,33.151,10.429l-34.7,34.7c-0.001,0.001-0.002,0.002-0.003,0.003c-0.001,0.001-0.002,0.002-0.003,0.003
	l-28.156,28.155c0,0.001-0.001,0.001-0.002,0.002l-0.002,0.002L-18.534,296.088z M36.839,269l14.018-14.018l15.314,15.314
	c-4.387,3.748-8.655,7.676-12.779,11.801c-0.577,0.577-1.137,1.166-1.707,1.749L36.839,269z M35.028,632.952
	c-3.927,0.015-8.252,0.029-12.356,0.038c7.451-12.33,18.353-30.342,28.059-46.369c0.882,0.912,1.761,1.827,2.661,2.726
	c3.374,3.374,6.849,6.611,10.4,9.734L35.028,632.952z M391.361,632.99c-4.103-0.009-8.43-0.023-12.356-0.038l-28.764-33.871
	c3.552-3.123,7.026-6.36,10.401-9.734c0.9-0.9,1.779-1.814,2.661-2.726C373.008,602.648,383.911,620.66,391.361,632.99z
	 M207.017,632.98c-108.769,0-197.258-88.49-197.258-197.258c0-108.769,88.49-197.259,197.258-197.259s197.258,88.49,197.258,197.259
	S315.785,632.98,207.017,632.98z M362.351,283.848c-0.571-0.583-1.131-1.173-1.709-1.751c-4.124-4.124-8.39-8.052-12.776-11.799
	l15.316-15.316L377.199,269L362.351,283.848z M432.565,296.082l-34.149-34.15c-0.001-0.001-0.002-0.002-0.003-0.003
	c-0.001-0.001-0.002-0.002-0.003-0.003l-28.156-28.156c-0.001-0.001-0.001-0.001-0.001-0.001c-0.001-0.001-0.002-0.002-0.002-0.002
	l-34.708-34.708c9.644-6.791,21.12-10.45,33.158-10.45c15.425,0,29.928,6.007,40.835,16.915l16.571,16.571
	C446.213,242.201,448.366,273.565,432.565,296.082z"/>
<path class="icon-color-outline" fill="#303030" d="M207.017,573.333c5.523,0,10-4.477,10-10v-94.387c14.273-4.304,24.699-17.567,24.699-33.224
	c0-19.133-15.566-34.699-34.699-34.699c-5.936,0-11.527,1.5-16.418,4.138l-40.682-40.682c-3.905-3.905-10.237-3.905-14.143,0
	c-3.905,3.905-3.905,10.237,0,14.143l40.682,40.682c-2.638,4.891-4.139,10.482-4.139,16.418c0,15.657,10.427,28.92,24.699,33.224
	v94.387C197.017,568.856,201.494,573.333,207.017,573.333z M192.317,435.722c0-8.105,6.594-14.699,14.699-14.699
	c8.105,0,14.699,6.594,14.699,14.699s-6.594,14.699-14.699,14.699S192.317,443.827,192.317,435.722z"/>
<path class="icon-color-outline" fill="#303030" d="M307.914,365.843c-3.148-4.538-9.379-5.664-13.917-2.516s-5.664,9.379-2.516,13.917
	c11.944,17.217,18.258,37.438,18.258,58.479c0,5.523,4.477,10,10,10s10-4.477,10-10
	C329.739,410.587,322.192,386.424,307.914,365.843z"/>
<path class="icon-color-outline" fill="#303030" d="M319.736,463c-2.63,0-5.21,1.07-7.07,2.93c-1.86,1.86-2.93,4.44-2.93,7.07s1.07,5.21,2.93,7.07
	s4.44,2.93,7.07,2.93s5.21-1.07,7.07-2.93c1.86-1.86,2.93-4.44,2.93-7.07s-1.07-5.21-2.93-7.07
	C324.946,464.07,322.366,463,319.736,463z"/>
<path class="icon-color-outline" fill="#303030" d="M50.856,442.79c1.86-1.86,2.93-4.44,2.93-7.07s-1.07-5.21-2.93-7.07s-4.44-2.93-7.07-2.93
	s-5.21,1.07-7.07,2.93s-2.93,4.44-2.93,7.07s1.07,5.21,2.93,7.07c1.86,1.86,4.44,2.93,7.07,2.93S48.997,444.65,50.856,442.79z"/>
</svg>
