<?xml version="1.0" encoding="iso-8859-1"?>
<!-- Generator: Adobe Illustrator 19.0.0, SVG Export Plug-In . SVG Version: 6.00 Build 0)  -->
<svg version="1.1" id="Capa_1" xmlns="http://www.w3.org/2000/svg" xmlns:xlink="http://www.w3.org/1999/xlink" x="0px" y="0px"
	 viewBox="-49 141 512 512" style="enable-background:new -49 141 512 512;" xml:space="preserve">
<path class="icon-color-1" visibility="hidden"  d="M387.897,197.225H26.093c-35.93,0-65.054,29.134-65.054,65.064v167.806
	c0,35.93,29.124,65.064,65.054,65.064v101.617L127.71,495.158h260.186c35.93,0,65.064-29.134,65.064-65.064V262.289
	C452.961,226.358,423.827,197.225,387.897,197.225z"/>
<g>
	<path class="icon-color-2" visibility="hidden"  d="M335.492,316.551c16.374,0,29.646,13.272,29.646,29.646c0,16.364-13.272,29.636-29.646,29.636
		c-16.364,0-29.636-13.272-29.636-29.636C305.856,329.823,319.128,316.551,335.492,316.551z"/>
	<path class="icon-color-2" visibility="hidden"  d="M207,316.551c16.364,0,29.636,13.272,29.636,29.646c0,16.364-13.272,29.636-29.636,29.636
		c-16.374,0-29.646-13.272-29.646-29.636C177.354,329.823,190.626,316.551,207,316.551z"/>
	<path class="icon-color-2" visibility="hidden"  d="M78.498,316.551c16.374,0,29.646,13.272,29.646,29.646c0,16.364-13.272,29.636-29.646,29.636
		s-29.646-13.272-29.646-29.636C48.852,329.823,62.124,316.551,78.498,316.551z"/>
</g>
<path class="icon-color-outline" fill="#303030" d="M387.897,187.185H26.093c-41.407,0-75.093,33.692-75.093,75.103v167.806
	c0,38.007,28.378,69.512,65.054,74.435v92.246c0,4.06,2.447,7.721,6.197,9.275c1.242,0.515,2.546,0.765,3.84,0.765
	c2.612,0,5.18-1.021,7.101-2.94l98.677-98.677h256.027c41.412,0,75.103-33.692,75.103-75.103V262.289
	C463,220.876,429.308,187.185,387.897,187.185z M442.922,430.094c0,30.341-24.684,55.025-55.025,55.025H127.71
	c-2.662,0-5.216,1.058-7.099,2.94l-84.479,84.479v-77.38c0-5.545-4.495-10.039-10.039-10.039c-30.335,0-55.015-24.684-55.015-55.025
	V262.289c0-30.341,24.679-55.025,55.015-55.025h361.803c30.34,0,55.025,24.684,55.025,55.025V430.094z"/>
<path class="icon-color-outline" fill="#303030" d="M335.492,306.512c-21.877,0-39.675,17.803-39.675,39.685c0,21.877,17.799,39.675,39.675,39.675
	c21.882,0,39.685-17.799,39.685-39.675C375.177,324.314,357.374,306.512,335.492,306.512z M335.492,365.793
	c-10.805,0-19.597-8.791-19.597-19.597c0-10.811,8.791-19.607,19.597-19.607c10.811,0,19.607,8.795,19.607,19.607
	C355.099,357.002,346.303,365.793,335.492,365.793z"/>
<path class="icon-color-outline" fill="#303030" d="M207,306.512c-21.882,0-39.685,17.803-39.685,39.685c0,21.877,17.803,39.675,39.685,39.675
	c21.877,0,39.675-17.799,39.675-39.675C246.675,324.314,228.877,306.512,207,306.512z M207,365.793
	c-10.811,0-19.607-8.791-19.607-19.597c0-10.811,8.795-19.607,19.607-19.607c10.805,0,19.597,8.795,19.597,19.607
	C226.597,357.002,217.805,365.793,207,365.793z"/>
<path class="icon-color-outline" fill="#303030" d="M78.498,306.512c-21.882,0-39.685,17.803-39.685,39.685c0,21.877,17.803,39.675,39.685,39.675
	s39.685-17.799,39.685-39.675C118.183,324.314,100.381,306.512,78.498,306.512z M78.498,365.793
	c-10.811,0-19.607-8.791-19.607-19.597c0-10.811,8.795-19.607,19.607-19.607s19.607,8.795,19.607,19.607
	C98.105,357.002,89.309,365.793,78.498,365.793z"/>
<path class="icon-color-outline" fill="#303030" d="M364.718,247.421c0-5.545-4.495-10.039-10.039-10.039h-93.36c-5.545,0-10.039,4.495-10.039,10.039
	s4.495,10.039,10.039,10.039h93.36C360.224,257.46,364.718,252.965,364.718,247.421z"/>
<path class="icon-color-outline" fill="#303030" d="M392.726,237.382c-12.919,0-12.941,20.078,0,20.078C405.645,257.46,405.666,237.382,392.726,237.382z
	"/>
</svg>
