<?xml version="1.0" encoding="iso-8859-1"?>
<!-- Generator: Adobe Illustrator 19.0.0, SVG Export Plug-In . SVG Version: 6.00 Build 0)  -->
<svg version="1.1" id="Capa_1" xmlns="http://www.w3.org/2000/svg" xmlns:xlink="http://www.w3.org/1999/xlink" x="0px" y="0px"
	 viewBox="-49 141 512 512" style="enable-background:new -49 141 512 512;" xml:space="preserve">
<path class="icon-color-2" visibility="hidden"  d="M-39,537V257c0-22.091,17.909-40,40-40h412c22.091,0,40,17.909,40,40v280c0,22.091-17.909,40-40,40H1
	C-21.091,577-39,559.091-39,537z"/>
<path class="icon-color-1" visibility="hidden"  d="M1,577h412c11.344,0,21.576-4.73,28.856-12.315L260.058,382.887l-106.456,0.34L-27.856,564.685
	C-20.576,572.27-10.344,577,1,577z"/>
<path class="icon-color-1" visibility="hidden"  d="M413,217H1c-3.93,0-7.724,0.577-11.312,1.633l166.34,166.34c28.151,28.152,73.794,28.152,101.945,0
	l166.34-166.34C420.724,217.577,416.93,217,413,217z"/>
<path class="icon-color-outline" fill="#303030" d="M1,587h412c27.57,0,50-22.43,50-50V257c0-27.57-22.43-50-50-50H1c-27.57,0-50,22.43-50,50v280
	C-49,564.57-26.57,587,1,587z M443,257v280c0,4.312-0.922,8.411-2.567,12.12L274.201,382.886l151.816-151.815
	c0.241-0.241,0.466-0.491,0.678-0.75C436.366,235.307,443,245.39,443,257z M250.902,377.901c-24.208,24.207-63.596,24.207-87.804,0
	L12.197,227h389.606l-34,34H192.254c-5.523,0-10,4.478-10,10s4.477,10,10,10h155.549l-28,28h-73.976c-5.523,0-10,4.478-10,10
	s4.477,10,10,10h53.976L250.902,377.901z M-29,257c0-11.61,6.634-21.693,16.306-26.678c0.211,0.258,0.437,0.509,0.678,0.75
	L139.8,382.887l-63.146,63.146c-3.905,3.905-3.905,10.237,0,14.143s10.237,3.905,14.143,0l63.374-63.375
	c30.431,25.635,75.228,25.635,105.66,0l166.873,166.874C422.592,565.794,417.935,567,413,567H1c-4.935,0-9.592-1.206-13.703-3.326
	l47.629-47.629c3.905-3.905,3.905-10.237,0-14.142c-1.953-1.953-4.512-2.929-7.071-2.929s-5.119,0.977-7.071,2.929l-47.217,47.217
	C-28.078,545.411-29,541.312-29,537V257z"/>
<path class="icon-color-outline" fill="#303030" d="M151.33,261c-2.63,0-5.21,1.07-7.07,2.931c-1.86,1.859-2.93,4.439-2.93,7.069s1.07,5.21,2.93,7.07
	c1.86,1.86,4.44,2.93,7.07,2.93c2.64,0,5.21-1.069,7.07-2.93c1.87-1.86,2.93-4.44,2.93-7.07s-1.06-5.21-2.93-7.069
	C156.54,262.07,153.97,261,151.33,261z"/>
<path class="icon-color-outline" fill="#303030" d="M56.88,489.94c2.64,0,5.22-1.06,7.08-2.93c1.86-1.86,2.92-4.43,2.92-7.07c0-2.63-1.06-5.21-2.92-7.07
	c-1.86-1.86-4.44-2.93-7.08-2.93c-2.63,0-5.2,1.07-7.07,2.93c-1.86,1.86-2.92,4.44-2.92,7.07c0,2.64,1.06,5.21,2.92,7.07
	C51.68,488.88,54.25,489.94,56.88,489.94z"/>
</svg>
