<?xml version="1.0" encoding="iso-8859-1"?>
<!-- Generator: Adobe Illustrator 19.0.0, SVG Export Plug-In . SVG Version: 6.00 Build 0)  -->
<svg version="1.1" id="Layer_1" xmlns="http://www.w3.org/2000/svg" xmlns:xlink="http://www.w3.org/1999/xlink" x="0px" y="0px"
	 viewBox="-49 141 512 512" style="enable-background:new -49 141 512 512;" xml:space="preserve">
<path class="icon-color-1" visibility="hidden"  d="M416.6,555.72H-2.6c-18.556,0-33.6-15.044-33.6-33.6V271.88c0-18.556,15.044-33.6,33.6-33.6h419.2
	c18.556,0,33.6,15.044,33.6,33.6v250.24C450.2,540.676,435.156,555.72,416.6,555.72z"/>
<rect x="-36.2" y="297.16" class="icon-color-2" visibility="hidden"  width="486.4" height="70.4"/>
<g>
	<path class="icon-color-outline" fill="#303030" d="M416.6,225.48H-2.6c-25.585,0-46.4,20.815-46.4,46.4v250.24c0,25.585,20.815,46.4,46.4,46.4h419.2
		c25.585,0,46.4-20.815,46.4-46.4V271.88C463,246.295,442.185,225.48,416.6,225.48z M-2.6,251.08h419.2
		c11.469,0,20.8,9.331,20.8,20.8v12.48H-23.4v-12.48C-23.4,260.411-14.069,251.08-2.6,251.08z M437.4,354.76H-23.4v-44.8h460.8
		V354.76z M416.6,542.92H-2.6c-11.469,0-20.8-9.331-20.8-20.8V380.36h460.8v141.76C437.4,533.589,428.069,542.92,416.6,542.92z"/>
	<path class="icon-color-outline" fill="#303030" d="M35.48,444.36h238.08c7.069,0,12.8-5.731,12.8-12.8s-5.731-12.8-12.8-12.8H35.48
		c-7.069,0-12.8,5.731-12.8,12.8S28.411,444.36,35.48,444.36z"/>
	<path class="icon-color-outline" fill="#303030" d="M388.76,469.96h-58.88c-7.069,0-12.8,5.731-12.8,12.8c0,7.069,5.731,12.8,12.8,12.8h58.88
		c7.069,0,12.8-5.731,12.8-12.8C401.56,475.691,395.829,469.96,388.76,469.96z"/>
	<path class="icon-color-outline" fill="#303030" d="M283.8,469.96h-56.32c-7.069,0-12.8,5.731-12.8,12.8c0,7.069,5.731,12.8,12.8,12.8h56.32
		c7.069,0,12.8-5.731,12.8-12.8C296.6,475.691,290.869,469.96,283.8,469.96z"/>
	<path class="icon-color-outline" fill="#303030" d="M182.68,469.96h-55.04c-7.069,0-12.8,5.731-12.8,12.8c0,7.069,5.731,12.8,12.8,12.8h55.04
		c7.069,0,12.8-5.731,12.8-12.8C195.48,475.691,189.749,469.96,182.68,469.96z"/>
	<path class="icon-color-outline" fill="#303030" d="M89.24,469.96H35.48c-7.069,0-12.8,5.731-12.8,12.8c0,7.069,5.731,12.8,12.8,12.8h53.76
		c7.069,0,12.8-5.731,12.8-12.8C102.04,475.691,96.309,469.96,89.24,469.96z"/>
</g>
</svg>
