<svg width="46" height="36" viewBox="0 0 46 36" fill="none" xmlns="http://www.w3.org/2000/svg">
<g clip-path="url(#clip0)">
<path d="M37.7696 22.4595C37.7696 23.3723 37.0316 24.1151 36.1188 24.1151H1.65077C0.738024 24.1151 0 23.3723 0 22.4595V1.65562C0 0.740192 0.738024 0 1.65077 0H36.1214C37.0316 0 37.7722 0.740192 37.7722 1.65562V22.4595H37.7696Z" fill="#AEB5F2"/>
<path d="M37.7696 4.27905H0V9.4787H37.7696V4.27905Z" fill="#70749C"/>
<path d="M24.6028 11.2415H2.51953V15.9703H24.6028V11.2415Z" fill="white"/>
<path d="M35.2516 11.2415H26.7422V15.9703H35.2516V11.2415Z" fill="white"/>
<path d="M29.9542 17.8667H2.51953V18.824H29.9542V17.8667Z" fill="#9CA2D9"/>
<path d="M29.9542 19.3052H2.51953V20.2625H29.9542V19.3052Z" fill="#9CA2D9"/>
<path d="M27.0439 20.7439H2.51953V21.7012H27.0439V20.7439Z" fill="#9CA2D9"/>
<path d="M28.1309 14.7358L28.8428 13.6451L28.1961 12.646H28.6889L29.1062 13.3182L29.5156 12.646H30.0033L29.3539 13.6608L30.0659 14.7358H29.5574L29.0958 14.0113L28.6316 14.7358H28.1309Z" fill="#575757"/>
<path d="M30.0703 14.7358L30.7823 13.6451L30.1355 12.646H30.6284L31.0457 13.3182L31.4551 12.646H31.9428L31.2934 13.6608L32.0053 14.7358H31.502L31.0404 14.0113L30.5762 14.7358H30.0703Z" fill="#575757"/>
<path d="M32.0137 14.7358L32.7256 13.6451L32.0789 12.646H32.5718L32.989 13.3182L33.3984 12.646H33.8861L33.2368 13.6608L33.9487 14.7358H33.4402L32.9786 14.0113L32.5144 14.7358H32.0137Z" fill="#575757"/>
<path opacity="0.1" d="M37.0374 23.8354L35.5692 21.6174C36.5106 20.8223 37.2434 19.8598 37.7702 18.8031V10.8258C37.6111 10.5119 37.4416 10.2007 37.2434 9.89992C34.5338 5.80663 29.0286 4.69242 24.9474 7.40733C20.8661 10.1249 19.7551 15.6436 22.4621 19.7369C24.9813 23.5425 29.9153 24.7691 33.8767 22.7421L34.7842 24.1126H36.1194C36.461 24.1153 36.7766 24.0106 37.0374 23.8354Z" fill="black"/>
<path d="M22.8664 18.6878C20.1594 14.5945 21.2704 9.07578 25.3516 6.35826C29.4329 3.64335 34.9381 4.75756 37.6477 8.85084C40.3546 12.9441 39.2437 18.4655 35.1624 21.183C31.0811 23.8979 25.5759 22.7811 22.8664 18.6878ZM23.8808 18.013C26.2227 21.5387 30.9611 22.5012 34.487 20.163C38.005 17.8116 38.9594 13.0618 36.6306 9.52565C34.2888 5.99993 29.5503 5.04003 26.0245 7.37569C22.5091 9.72704 21.552 14.4768 23.8808 18.013Z" fill="#575757"/>
<path d="M36.4482 24.9676L33.9785 21.2352L35.671 20.1079L38.1433 23.8403L36.4482 24.9676Z" fill="#575757"/>
<path d="M45.7975 32.6259C46.1678 33.1856 46.0165 33.9441 45.4584 34.3155L43.2313 35.7986C42.6733 36.17 41.9196 36.0183 41.5467 35.4559L35.7103 25.3129C35.34 24.7532 35.4913 23.9947 36.052 23.6233L37.0638 22.9485C37.6219 22.5771 38.3782 22.7288 38.7485 23.2911L45.7975 32.6259Z" fill="#B5BCFC"/>
<path d="M23.8817 18.013C26.2236 21.5387 30.962 22.5012 34.4879 20.1629C38.0059 17.8116 38.9603 13.0618 36.6315 9.52563C34.2897 5.99991 29.5512 5.04001 26.0254 7.37567C22.51 9.72702 21.5529 14.4768 23.8817 18.013Z" fill="#D4D8FF"/>
<path d="M23.5476 17.4454H35.6559V9.625H23.8241C22.3506 11.9319 22.1785 14.9293 23.5476 17.4454Z" fill="white"/>
<path d="M23.8809 15.4028L25.0596 13.5981L23.993 11.9451H24.8066L25.4977 13.0567L26.1758 11.9451H26.9816L25.9098 13.6242L27.0885 15.4028H26.2488L25.4847 14.2075L24.718 15.4028H23.8809Z" fill="#858585"/>
<path d="M27.0938 15.4028L28.2725 13.5981L27.2059 11.9451H28.0195L28.7106 13.0567L29.3887 11.9451H30.1945L29.1227 13.6242L30.3014 15.4028H29.4617L28.6976 14.2075L27.9309 15.4028H27.0938Z" fill="#858585"/>
<path d="M30.3047 15.4028L31.4834 13.5981L30.4168 11.9451H31.2305L31.9216 13.0567L32.5996 11.9451H33.4054L32.3336 13.6242L33.5124 15.4028H32.6726L31.9085 14.2075L31.1418 15.4028H30.3047Z" fill="#858585"/>
<path opacity="0.1" d="M24.6241 18.3713C22.3631 14.9424 23.2915 10.3364 26.7026 8.05571C30.1215 5.78805 34.7139 6.72179 36.988 10.1403C37.0089 10.1717 37.0245 10.2057 37.0454 10.237C36.9202 9.99642 36.7846 9.75841 36.6307 9.52563C34.2889 5.99991 29.5504 5.04001 26.0246 7.37567C22.5092 9.72441 21.5495 14.4768 23.8809 18.013C24.8119 19.4123 26.121 20.401 27.5814 20.9476C26.4236 20.3853 25.3908 19.5248 24.6241 18.3713Z" fill="black"/>
<path opacity="0.3" d="M34.3374 9.42357C34.3374 10.6215 32.564 9.30848 30.3787 9.30848C28.1933 9.30848 26.4199 10.6215 26.4199 9.42357C26.4199 8.22566 28.1933 7.25269 30.3787 7.25269C32.564 7.25269 34.3374 8.22566 34.3374 9.42357Z" fill="white"/>
<path opacity="0.3" d="M42.964 34.7759L37.1641 24.7035L37.1459 24.6695L37.125 24.6381L38.1368 23.9712L38.1577 24.0026L38.176 24.0313L45.1781 33.3034L42.964 34.7759Z" fill="white"/>
</g>
<defs>
<clipPath id="clip0">
<rect width="46" height="36" fill="white"/>
</clipPath>
</defs>
</svg>
