<?xml version="1.0" encoding="iso-8859-1"?>
<!-- Generator: Adobe Illustrator 19.0.0, SVG Export Plug-In . SVG Version: 6.00 Build 0)  -->
<svg version="1.1" id="Capa_1" xmlns="http://www.w3.org/2000/svg" xmlns:xlink="http://www.w3.org/1999/xlink" x="0px" y="0px"
	 viewBox="-49 141 512 512" style="enable-background:new -49 141 512 512;" xml:space="preserve">
<path class="icon-color-other" fill="#FCE9D0" visibility="hidden" d="M64,406.28L36.333,429v28L214,627c0,0,58,5.24,61,7.12s59-5.12,59-5.12l38-20.48l27-38.4
	c0,0,8.667-24,15-34.56s-4-112.64-4-112.64l-11-46.08h-31h-25L325,356h-32l-8,8.04L271,349l-22-14l-22.806,8.667H216v-96L201,229
	h-27l-15,10.048L154,256l-4,192.52L118,441l-38-34.72H64z"/>
<path class="icon-color-outline" fill="#303030" d="M303,642.333h-49.984c-25.643,0-49.749-9.984-67.883-28.117L33.197,462.28
	c-12.48-12.48-12.48-32.768,0-45.248c19.456-19.435,50.731-21.653,72.725-5.163L143,439.667V258.333
	c0-23.531,19.136-42.667,42.667-42.667s42.667,19.136,42.667,42.667v69.739c6.272-3.648,13.568-5.739,21.333-5.739
	c18.581,0,34.432,11.947,40.277,28.544c6.784-4.544,14.955-7.211,23.723-7.211c18.581,0,34.432,11.947,40.277,28.544
	c6.784-4.544,14.955-7.211,23.723-7.211c23.531,0,42.667,19.136,42.667,42.667V525C420.333,589.704,367.704,642.333,303,642.333z
	 M72.6,422.131c-8.875,0-17.685,3.371-24.299,9.984c-4.16,4.16-4.16,10.923,0,15.083l151.936,151.936
	c14.101,14.101,32.853,21.867,52.8,21.867H303c52.928,0,96-43.072,96-96V407.667c0-11.755-9.579-21.333-21.333-21.333
	c-11.755,0-21.333,9.579-21.333,21.333v10.667c0,5.888-4.779,10.667-10.667,10.667c-5.888,0-10.667-4.779-10.667-10.667v-32
	c0-11.755-9.579-21.333-21.333-21.333c-11.755,0-21.333,9.579-21.333,21.333v32c0,5.888-4.779,10.667-10.667,10.667
	S271,424.221,271,418.333V365c0-11.755-9.579-21.333-21.333-21.333s-21.333,9.579-21.333,21.333v53.333
	c0,5.888-4.779,10.667-10.667,10.667S207,424.221,207,418.333v-160c0-11.755-9.579-21.333-21.333-21.333
	s-21.333,9.579-21.333,21.333V461c0,4.032-2.283,7.723-5.888,9.536c-3.627,1.813-7.957,1.429-11.179-1.003l-54.123-40.597
	C87.043,424.371,79.811,422.131,72.6,422.131z"/>
<path class="icon-color-1" visibility="hidden"  d="M120.707,305.096c-3.755,0-7.381-1.984-9.344-5.483c-7.317-13.163-11.029-27.051-11.029-41.28
	c0-47.061,38.272-85.333,85.333-85.333S271,211.272,271,258.333c0,7.019-1.045,14.123-3.285,22.357
	c-1.557,5.696-7.509,9.045-13.099,7.488c-5.696-1.557-9.045-7.424-7.488-13.099c1.728-6.357,2.539-11.669,2.539-16.747
	c0-35.285-28.715-64-64-64s-64,28.715-64,64c0,10.56,2.795,20.971,8.341,30.912c2.859,5.141,1.003,11.648-4.139,14.507
	C124.227,304.669,122.456,305.096,120.707,305.096z"/>
<path class="icon-color-1" visibility="hidden"  d="M47,343.667c-5.888,0-10.667-4.779-10.667-10.667V162.333c0-5.888,4.779-10.667,10.667-10.667
	s10.667,4.779,10.667,10.667V333C57.667,338.888,52.888,343.667,47,343.667z"/>
<path class="icon-color-1" visibility="hidden"  d="M47,343.667c-2.731,0-5.461-1.045-7.552-3.115l-42.667-42.667c-4.16-4.16-4.16-10.923,0-15.083
	s10.923-4.16,15.083,0L47,317.917l35.115-35.115c4.16-4.16,10.923-4.16,15.083,0c4.16,4.16,4.16,10.923,0,15.083l-42.667,42.667
	C52.461,342.621,49.731,343.667,47,343.667z"/>
</svg>
