<?xml version="1.0" encoding="iso-8859-1"?>
<!-- Generator: Adobe Illustrator 19.0.0, SVG Export Plug-In . SVG Version: 6.00 Build 0)  -->
<svg version="1.1" id="Capa_1" xmlns="http://www.w3.org/2000/svg" xmlns:xlink="http://www.w3.org/1999/xlink" x="0px" y="0px"
	 viewBox="-49 141 512 512" style="enable-background:new -49 141 512 512;" xml:space="preserve">
<polyline class="icon-color-other" fill="#FFFFFF" visibility="hidden" points="327.707,301.703 327.707,263.352 219.402,155.048 -39,155.048 -39,638.952 327.707,638.952
	327.707,439.618 "/>
<polygon class="icon-color-3" visibility="hidden" points="219.402,263.352 327.707,263.352 219.402,155.048 "/>
<polyline class="icon-color-other" fill="#FDE89F" visibility="hidden" points="154.758,478.652 137.119,496.292 130.796,526.052 172.315,567.571 202.076,561.249
	219.715,543.609 "/>
<polygon class="icon-color-other" fill="#B9C5C6" visibility="hidden" points="172.315,567.571 130.796,526.052 119.596,578.771 "/>
<path class="icon-color-1" visibility="hidden" d="M192.48,505.887c-1.428,10.078,1.734,20.682,9.486,28.433c5.025,5.025,11.248,8.121,17.749,9.289
	l193.708-193.708l-32.478-32.478"/>
<g>
	<path class="icon-color-1" visibility="hidden" d="M380.945,317.423l-32.478-32.478L154.758,478.652c1.168,6.501,4.264,12.724,9.288,17.749
		c7.752,7.752,18.355,10.914,28.433,9.486l123.889-123.889"/>
	<line class="icon-color-1" visibility="hidden" x1="344.86" y1="353.51" x2="344.86" y2="353.51"/>
</g>
<path class="icon-color-outline" fill="#303030" d="M344.859,363.51c-0.649,0-1.31-0.07-1.949-0.2c-0.641-0.13-1.271-0.32-1.88-0.57
	c-0.601-0.25-1.181-0.56-1.721-0.92c-0.55-0.36-1.06-0.78-1.52-1.24s-0.88-0.97-1.24-1.52c-0.36-0.54-0.67-1.12-0.92-1.73
	c-0.25-0.6-0.45-1.23-0.57-1.87c-0.13-0.64-0.2-1.3-0.2-1.95c0-0.65,0.07-1.31,0.2-1.96c0.12-0.63,0.32-1.26,0.57-1.87
	c0.25-0.6,0.56-1.18,0.92-1.72c0.36-0.55,0.78-1.06,1.24-1.52c0.46-0.46,0.97-0.88,1.52-1.25c0.54-0.36,1.12-0.67,1.721-0.92
	c0.609-0.25,1.239-0.44,1.88-0.57c1.279-0.26,2.609-0.26,3.899,0c0.641,0.13,1.271,0.32,1.88,0.57c0.6,0.25,1.181,0.56,1.721,0.92
	c0.55,0.37,1.06,0.79,1.52,1.25c0.46,0.46,0.88,0.97,1.24,1.52c0.36,0.54,0.67,1.12,0.92,1.72c0.25,0.61,0.45,1.24,0.57,1.87
	c0.13,0.65,0.199,1.31,0.199,1.96c0,0.65-0.069,1.31-0.199,1.95c-0.12,0.64-0.32,1.27-0.57,1.87c-0.25,0.61-0.56,1.19-0.92,1.73
	c-0.36,0.55-0.78,1.06-1.24,1.52s-0.97,0.88-1.52,1.24c-0.54,0.36-1.12,0.67-1.721,0.92c-0.609,0.25-1.239,0.44-1.88,0.57
	C346.17,363.44,345.51,363.51,344.859,363.51z"/>
<rect x="354.798" y="269.646" transform="matrix(-0.7071 -0.7071 0.7071 -0.7071 473.6279 791.4444)" class="icon-color-2" visibility="hidden" width="91.859" height="55.969"/>
<rect x="9.41" y="243.35" class="icon-color-2" visibility="hidden" width="76" height="76"/>
<path class="icon-color-outline" fill="#303030" d="M85.412,329.351h-76c-5.523,0-10-4.477-10-10v-76c0-5.523,4.477-10,10-10h76c5.523,0,10,4.477,10,10
	v76C95.412,324.874,90.935,329.351,85.412,329.351z M19.412,309.351h56v-56h-56V309.351z"/>
<rect x="9.41" y="371.98" class="icon-color-1" visibility="hidden" width="76" height="76"/>
<path class="icon-color-outline" fill="#303030" d="M85.412,457.98h-76c-5.523,0-10-4.477-10-10v-76c0-5.523,4.477-10,10-10h76c5.523,0,10,4.477,10,10
	v76C95.412,453.502,90.935,457.98,85.412,457.98z M19.412,437.98h56v-56h-56V437.98z"/>
<rect x="9.41" y="500.61" class="icon-color-3" visibility="hidden" width="76" height="76"/>
<path class="icon-color-outline" fill="#303030" d="M85.412,586.609h-76c-5.523,0-10-4.477-10-10v-76c0-5.523,4.477-10,10-10h76c5.523,0,10,4.477,10,10
	v76C95.412,582.132,90.935,586.609,85.412,586.609z M19.412,566.609h56v-56h-56V566.609z"/>
<path class="icon-color-outline" fill="#303030" d="M61.554,281.35l1.65-1.65c3.905-3.905,3.905-10.237,0-14.142c-3.906-3.905-10.236-3.905-14.143,0.001
	l-1.649,1.649l-1.649-1.649c-3.904-3.905-10.234-3.905-14.143-0.001c-3.905,3.905-3.905,10.237,0,14.142l1.65,1.65L31.62,283
	c-3.905,3.905-3.905,10.237,0,14.142c1.953,1.953,4.512,2.929,7.071,2.929s5.118-0.977,7.071-2.929l1.649-1.649l1.649,1.649
	c1.953,1.953,4.512,2.929,7.071,2.929s5.118-0.977,7.071-2.929c3.905-3.905,3.905-10.237,0-14.142L61.554,281.35z"/>
<path class="icon-color-outline" fill="#303030" d="M61.554,409.98l1.65-1.65c3.905-3.905,3.905-10.237,0-14.142c-3.906-3.905-10.236-3.905-14.143,0
	l-1.649,1.65l-1.649-1.65c-3.904-3.905-10.234-3.905-14.143,0c-3.905,3.905-3.905,10.237,0,14.142l1.65,1.65l-1.65,1.65
	c-3.905,3.905-3.905,10.237,0,14.142c1.953,1.953,4.512,2.929,7.071,2.929s5.118-0.977,7.071-2.929l1.649-1.65l1.649,1.65
	c1.953,1.953,4.512,2.929,7.071,2.929s5.118-0.977,7.071-2.929c3.905-3.905,3.905-10.237,0-14.142L61.554,409.98z"/>
<path class="icon-color-outline" fill="#303030" d="M460.071,303.253l-64.957-64.957c-1.876-1.875-4.419-2.929-7.071-2.929s-5.196,1.054-7.071,2.929
	l-39.557,39.558c-0.006,0.006-3.708,3.707-3.708,3.707v-18.167c0-0.005,0-0.01,0-0.016v-0.026c0-0.008,0-0.015,0-0.023
	c0-0.064-0.001-0.129-0.002-0.193c0-0.02-0.001-0.04-0.001-0.06c-0.002-0.063-0.004-0.126-0.007-0.188
	c-0.001-0.013-0.001-0.026-0.002-0.04c-0.004-0.072-0.008-0.143-0.013-0.215c-0.002-0.024-0.004-0.048-0.006-0.072
	c-0.004-0.049-0.008-0.097-0.013-0.146c-0.003-0.029-0.006-0.058-0.008-0.087c-0.005-0.049-0.011-0.098-0.016-0.147
	c-0.005-0.042-0.01-0.083-0.016-0.125c-0.006-0.048-0.013-0.095-0.02-0.143c-0.005-0.033-0.01-0.067-0.015-0.1
	c-0.006-0.037-0.012-0.074-0.018-0.111c-0.006-0.036-0.012-0.072-0.018-0.108c-0.007-0.039-0.015-0.079-0.022-0.118
	c-0.011-0.056-0.022-0.113-0.034-0.169c-0.008-0.036-0.015-0.073-0.023-0.109s-0.016-0.072-0.024-0.108
	c-0.008-0.036-0.017-0.071-0.026-0.107c-0.008-0.033-0.016-0.066-0.024-0.1c-0.016-0.064-0.033-0.127-0.051-0.19
	c-0.007-0.025-0.014-0.05-0.022-0.076c-0.013-0.045-0.026-0.091-0.039-0.136c-0.008-0.028-0.017-0.056-0.026-0.084
	c-0.014-0.046-0.029-0.093-0.044-0.139c-0.008-0.023-0.015-0.046-0.022-0.068c-0.023-0.068-0.046-0.135-0.07-0.202
	c-0.005-0.014-0.01-0.027-0.015-0.041c-0.02-0.057-0.042-0.114-0.063-0.17c-0.007-0.019-0.014-0.037-0.021-0.055
	c-0.023-0.06-0.047-0.121-0.072-0.18c-0.003-0.008-0.006-0.016-0.01-0.024c-0.03-0.073-0.061-0.146-0.093-0.218
	c0,0,0-0.001-0.001-0.001c-0.031-0.071-0.064-0.141-0.097-0.211c-0.003-0.006-0.006-0.013-0.009-0.019
	c-0.102-0.216-0.213-0.429-0.331-0.638c-0.001-0.002-0.002-0.004-0.004-0.006c-0.119-0.21-0.246-0.417-0.38-0.619
	c-0.001-0.002-0.003-0.004-0.004-0.007c-0.134-0.201-0.276-0.398-0.426-0.59c-0.002-0.003-0.005-0.006-0.007-0.009
	c-0.049-0.063-0.098-0.125-0.149-0.186c0,0-0.001-0.001-0.001-0.002c-0.103-0.125-0.209-0.248-0.318-0.37
	c-0.003-0.003-0.006-0.007-0.009-0.01c-0.052-0.058-0.106-0.115-0.16-0.172c-0.002-0.002-0.003-0.004-0.005-0.005
	c-0.056-0.059-0.113-0.118-0.172-0.176L226.474,147.977c-0.054-0.054-0.109-0.108-0.165-0.161c-0.012-0.011-0.023-0.022-0.035-0.033
	c-0.048-0.046-0.097-0.091-0.146-0.135c-0.007-0.007-0.015-0.014-0.022-0.02c-1.108-1.002-2.405-1.724-3.786-2.144
	c-0.005-0.002-0.01-0.003-0.016-0.005c-0.152-0.046-0.304-0.088-0.458-0.127c-0.006-0.002-0.012-0.003-0.018-0.004
	c-0.068-0.017-0.136-0.033-0.204-0.049c-0.013-0.003-0.026-0.006-0.039-0.009c-0.148-0.033-0.297-0.063-0.446-0.089
	c-0.016-0.003-0.031-0.005-0.047-0.008c-0.062-0.011-0.124-0.021-0.187-0.03c-0.014-0.002-0.027-0.004-0.041-0.006
	c-0.152-0.022-0.305-0.041-0.458-0.057c-0.012-0.001-0.025-0.002-0.037-0.004c-0.067-0.007-0.135-0.012-0.202-0.018
	c-0.011-0.001-0.021-0.002-0.032-0.002c-0.157-0.012-0.314-0.019-0.471-0.023c-0.009,0-0.017,0-0.026-0.001
	c-0.097-0.002-0.194-0.003-0.291-0.003H-39c-5.523,0-10,4.477-10,10v483.904c0,5.523,4.477,10,10,10h366.707c5.522,0,10-4.477,10-10
	V439.759l122.364-122.364c1.875-1.876,2.929-4.419,2.929-7.071C463,307.672,461.946,305.128,460.071,303.253z M303.565,253.353
	h-74.162V179.19l37.081,37.081L303.565,253.353z M317.707,628.952H-29V165.048h238.402v69.19h-68.605c-5.523,0-10,4.477-10,10
	s4.477,10,10,10h68.605v9.114c0,5.523,4.478,10,10,10h98.305v28.209l-0.591,0.591H140.797c-5.523,0-10,4.477-10,10s4.477,10,10,10
	h156.319l-47.914,47.914H140.797c-5.523,0-10,4.477-10,10s4.477,10,10,10h88.405l-47.914,47.914h-40.491c-5.523,0-10,4.477-10,10
	s4.477,10,10,10h20.491l-31.24,31.242c-1.367,1.367-2.309,3.101-2.71,4.993l-17.523,82.479c-0.704,3.312,0.316,6.755,2.71,9.149
	c1.895,1.895,4.447,2.929,7.071,2.929c0.691,0,1.388-0.072,2.078-0.218l82.479-17.522c1.892-0.402,3.626-1.343,4.993-2.71
	l108.56-108.56v169.19H317.707z M182.445,515.922c1.143,9.539,5.435,18.455,12.45,25.47c2.188,2.188,4.574,4.118,7.123,5.772
	l-4.919,4.919l-21.55,4.579l-33.842-33.842l4.579-21.552l4.918-4.919c1.654,2.549,3.585,4.936,5.772,7.123
	C163.989,510.487,172.905,514.779,182.445,515.922z M136.75,546.149l15.469,15.469l-19.642,4.173L136.75,546.149z M216.778,532.404
	c-2.876-1.172-5.501-2.913-7.741-5.154c-4.546-4.546-6.975-10.57-6.893-16.884L323.44,389.07c3.905-3.905,3.905-10.237,0-14.143
	c-3.906-3.905-10.236-3.905-14.142,0L188.002,496.224c-0.104,0.001-0.207,0.002-0.31,0.002c-6.201,0-12.104-2.425-16.575-6.897
	c-2.241-2.24-3.982-4.865-5.154-7.741l182.504-182.503l50.814,50.814L216.778,532.404z M413.423,335.759l-50.814-50.814
	l25.434-25.435l50.814,50.815L413.423,335.759z"/>
</svg>
