<?xml version="1.0" encoding="iso-8859-1"?>
<!-- Generator: Adobe Illustrator 19.0.0, SVG Export Plug-In . SVG Version: 6.00 Build 0)  -->
<svg version="1.1" id="Capa_1" xmlns="http://www.w3.org/2000/svg" xmlns:xlink="http://www.w3.org/1999/xlink" x="0px" y="0px"
	 viewBox="-49 141 512 512" style="enable-background:new -49 141 512 512;" xml:space="preserve">
<path class="icon-color-1" visibility="hidden"  d="M228.893,402.368h132.962c50.338,0,91.145,40.807,91.145,91.145V616H228.893V402.368z"/>
<path class="icon-color-other" fill="#F5C86E" visibility="hidden" d="M201.441,414.139V278.743c0-55.639-45.105-100.743-100.744-100.743l0,0
	C45.058,178-0.046,223.104-0.046,278.743v136.243L201.441,414.139z"/>
<path class="icon-color-1" visibility="hidden"  d="M185.77,402.368H52.809c-50.338,0-91.145,40.807-91.145,91.145V616H185.77"/>
<path class="icon-color-2" visibility="hidden"  d="M299.536,616v-87.749c0-29.506-20.305-54.265-47.702-61.078l-22.941-4.688l-43.783-0.196
	l-22.944,4.884c-27.398,6.813-47.702,31.572-47.702,61.078V616H299.536z"/>
<g>
	<path class="icon-color-other" fill="#FFCDAC" visibility="hidden" d="M27.077,296.937v31.431c0,40.869,33.131,74,74,74l0,0l0,0c40.869,0,74-33.131,74-74v-31.431
		L128,278.5L27.077,296.937z"/>
	<path class="icon-color-other" fill="#FFCDAC" visibility="hidden" d="M207,347.041c-29.966,0-54.258,24.292-54.258,54.258v11.225c0,29.918,24.292,54.172,54.258,54.172
		l0,0c29.966,0,54.258-24.254,54.258-54.172v-11.225C261.258,371.333,236.966,347.041,207,347.041L207,347.041z"/>
</g>
<path class="icon-color-other" fill="#FF9155" visibility="hidden" d="M207,347.041L207,347.041c-26.91,0-49.232,19.595-53.508,45.293h41.107
	c8.712,0,16.857-4.026,22.151-10.775l-3.641,5.329l20.112,5.446h27.286C256.232,366.636,233.91,347.041,207,347.041z
	 M218.839,378.501l0.001-0.001l0,0L218.839,378.501z"/>
<path class="icon-color-other" fill="#FFCDAC" visibility="hidden" d="M386.923,274v54.368c0,40.869-33.131,74-74,74l0,0l0,0c-40.869,0-74-33.131-74-74V274H386.923z"/>
<path class="icon-color-other" fill="#BEBEBE" visibility="hidden" d="M312.923,205.123L312.923,205.123c-40.869,0-74,33.131-74,74v17.814h36.181
	c24.051,0,46.868-10.649,62.316-29.083l0,0l49.503,29.083v-17.814C386.923,238.254,353.793,205.123,312.923,205.123z"/>
<g>
	<polyline class="icon-color-other" fill="#FFB487" visibility="hidden" points="269.656,406.869 312.932,476.071 356.191,406.869 	"/>
	<polyline class="icon-color-other" fill="#FFB487" visibility="hidden" points="57.43,406.869 100.706,476.071 143.964,406.869 	"/>
</g>
<path class="icon-color-outline" fill="#303030" d="M15,512.71c2.63,0,5.21-1.07,7.069-2.94c1.861-1.86,2.931-4.44,2.931-7.06
	c0-2.63-1.07-5.21-2.931-7.08c-1.859-1.86-4.439-2.92-7.069-2.92s-5.21,1.06-7.07,2.92S5,500.069,5,502.71
	c0,2.63,1.069,5.2,2.93,7.06C9.79,511.64,12.37,512.71,15,512.71z"/>
<path class="icon-color-outline" fill="#303030" d="M420.615,437.551c1.966,2.063,4.602,3.102,7.242,3.102c2.478,0,4.96-0.916,6.896-2.76
	c3.998-3.81,4.151-10.14,0.342-14.139l-0.716-0.743c-3.845-3.965-10.177-4.063-14.141-0.217c-3.965,3.845-4.062,10.176-0.217,14.141
	L420.615,437.551z"/>
<path class="icon-color-outline" fill="#303030" d="M456.89,458.818c-1.895-5.188-7.635-7.857-12.823-5.964c-5.188,1.895-7.858,7.636-5.964,12.823
	c3.25,8.899,4.897,18.265,4.897,27.835V606h-34V502.705c0-5.522-4.478-10-10-10s-10,4.478-10,10V606h-79.464v-77.749
	c0-33.581-22.735-62.688-55.289-70.781c-0.137-0.034-0.273-0.065-0.411-0.094l-0.786-0.161c8.261-8.487,14.198-19.236,16.772-31.222
	l34.632,55.38c1.828,2.923,5.032,4.698,8.479,4.698s6.651-1.776,8.479-4.699l43.097-68.946c8.763,0.281,17.332,1.934,25.502,4.957
	c1.145,0.423,2.316,0.624,3.469,0.624c4.065,0,7.887-2.498,9.38-6.533c1.916-5.181-0.729-10.933-5.909-12.849
	c-9.599-3.551-19.628-5.592-29.877-6.112c18.239-15.421,29.85-38.448,29.85-64.146v-31.431v-17.814V274
	c0-0.933-0.137-1.832-0.376-2.688c-3.955-42.668-39.941-76.189-83.624-76.189h-0.001c-43.683,0-79.668,33.521-83.623,76.189
	c-0.239,0.856-0.376,1.755-0.376,2.688v5.123v17.814v31.431c0,4.391,0.342,8.702,0.994,12.913
	c-5.805-2.224-12.01-3.625-18.478-4.069v-58.468C211.44,217.679,161.762,168,100.697,168S-10.047,217.679-10.047,278.744v135.059
	C-33.741,432.331-49,461.172-49,493.513V616c0,5.522,4.478,10,10,10h492c5.522,0,10-4.478,10-10V493.513
	C463,481.595,460.944,469.922,456.89,458.818z M289.536,528.251V606h-29.229v-62c0-5.522-4.478-10-10-10s-10,4.478-10,10v62h-76v-62
	c0-5.522-4.478-10-10-10s-10,4.478-10,10v62h-19.844v-77.749c0-24.319,16.423-45.404,39.957-51.333l20.106-4.281
	c6.999,2.618,14.57,4.059,22.473,4.059c7.793,0,15.266-1.395,22.183-3.945l20.433,4.176
	C273.132,482.867,289.536,503.943,289.536,528.251z M37.076,306.937h26.182c24.218,0,47.177-9.521,64.2-26.378l37.618,22.101v25.708
	c0,35.29-28.71,64-64,64s-64-28.71-64-64L37.076,306.937z M207,357.041c17.621,0,32.864,10.353,39.98,25.293h-12.429l-5.961-1.614
	c0.94-4.127-0.824-8.56-4.663-10.828c-4.755-2.809-10.886-1.232-13.696,3.522c-3.251,5.502-9.24,8.92-15.631,8.92h-27.58
	C174.136,367.393,189.379,357.041,207,357.041z M101.076,412.368L101.076,412.368C101.077,412.368,101.077,412.368,101.076,412.368
	c11.139,0,21.767-2.198,31.502-6.152l-31.874,50.992l-28.041-44.84H101.076z M162.742,402.333H194.6
	c6.688,0,13.166-1.783,18.829-4.999l17.178,4.652c0.853,0.231,1.731,0.349,2.614,0.349h18.037v10.19
	c0,24.356-19.854,44.172-44.258,44.172s-44.258-19.815-44.258-44.172L162.742,402.333L162.742,402.333z M312.931,457.208
	l-32.013-51.191c9.871,4.084,20.677,6.351,32.006,6.351h28.036L312.931,457.208z M312.923,392.368c-35.289,0-63.999-28.71-63.999-64
	v-21.431h26.181c24.218,0,47.177-9.521,64.2-26.378l37.619,22.101v25.708C376.924,363.658,348.213,392.368,312.923,392.368z
	 M312.924,215.123c35.29,0,64,28.71,64,64v0.341l-34.438-20.232c-4.211-2.475-9.593-1.544-12.73,2.199
	c-13.583,16.209-33.502,25.506-54.65,25.506h-26.181v-7.814C248.924,243.833,277.634,215.123,312.924,215.123z M9.953,278.744
	c0-50.036,40.708-90.744,90.744-90.744s90.743,40.708,90.743,90.744v60.212c-2.515,0.628-4.969,1.409-7.358,2.325
	c0.652-4.21,0.994-8.522,0.994-12.913v-31.431c0-3.497-1.92-6.851-4.935-8.622l-49.503-29.083c-4.211-2.474-9.592-1.544-12.73,2.199
	c-13.583,16.209-33.502,25.506-54.65,25.506H27.076c-5.522,0-10,4.477-10,10v31.431c0,25.692,11.606,48.714,29.837,64.135
	c-13.133,0.672-25.609,3.866-36.96,9.098L9.953,278.744z M49.123,412.445l43.104,68.928c1.828,2.923,5.032,4.698,8.479,4.698
	s6.651-1.776,8.479-4.699l34.891-55.818c2.522,12.161,8.509,23.064,16.868,31.655l-0.86,0.183c-0.111,0.024-0.222,0.05-0.331,0.077
	c-32.554,8.094-55.289,37.2-55.289,70.781V606H25v-59.333c0-5.522-4.478-10-10-10s-10,4.478-10,10V606h-34V493.513
	C-29,449.783,5.776,414.042,49.123,412.445z"/>
<path class="icon-color-outline" fill="#303030" d="M288.16,316.83c-1.86-1.86-4.44-2.93-7.07-2.93c-2.64,0-5.21,1.07-7.07,2.93
	c-1.87,1.86-2.93,4.44-2.93,7.07c0,2.64,1.06,5.21,2.93,7.07c1.86,1.87,4.431,2.93,7.07,2.93c2.63,0,5.21-1.06,7.07-2.93
	c1.859-1.86,2.93-4.43,2.93-7.07C291.09,321.27,290.02,318.69,288.16,316.83z"/>
<path class="icon-color-outline" fill="#303030" d="M344.76,313.9c-2.63,0-5.21,1.07-7.07,2.93c-1.859,1.86-2.93,4.44-2.93,7.07
	c0,2.64,1.07,5.21,2.93,7.07c1.86,1.87,4.44,2.93,7.07,2.93s5.21-1.06,7.07-2.93c1.859-1.86,2.93-4.44,2.93-7.07
	s-1.07-5.21-2.93-7.07C349.97,314.97,347.39,313.9,344.76,313.9z"/>
<path class="icon-color-outline" fill="#303030" d="M317.544,348.885c-2.629,2.63-6.908,2.63-9.537,0c-3.906-3.905-10.236-3.905-14.143,0
	c-3.905,3.905-3.905,10.237,0,14.143c5.214,5.213,12.063,7.82,18.911,7.82s13.697-2.607,18.911-7.82
	c3.905-3.905,3.905-10.237,0-14.143C327.78,344.98,321.45,344.98,317.544,348.885z"/>
<path class="icon-color-outline" fill="#303030" d="M69.24,333.9c2.63,0,5.21-1.06,7.069-2.93c1.86-1.86,2.931-4.44,2.931-7.07s-1.07-5.21-2.931-7.07
	c-1.859-1.86-4.439-2.93-7.069-2.93c-2.631,0-5.21,1.07-7.07,2.93c-1.86,1.86-2.93,4.44-2.93,7.07s1.069,5.21,2.93,7.07
	C64.03,332.84,66.609,333.9,69.24,333.9z"/>
<path class="icon-color-outline" fill="#303030" d="M132.91,333.9c2.64,0,5.21-1.07,7.069-2.93c1.87-1.86,2.931-4.44,2.931-7.07s-1.061-5.21-2.931-7.07
	c-1.859-1.86-4.43-2.93-7.069-2.93c-2.63,0-5.21,1.07-7.07,2.93c-1.86,1.86-2.93,4.44-2.93,7.07s1.069,5.21,2.93,7.07
	S130.28,333.9,132.91,333.9z"/>
<path class="icon-color-outline" fill="#303030" d="M82.018,363.028c5.214,5.213,12.063,7.82,18.911,7.82s13.697-2.607,18.911-7.82
	c3.905-3.905,3.905-10.237,0-14.143c-3.906-3.905-10.236-3.905-14.143,0c-2.629,2.63-6.908,2.63-9.537,0
	c-3.906-3.905-10.236-3.905-14.143,0C78.112,352.791,78.112,359.123,82.018,363.028z"/>
<path class="icon-color-outline" fill="#303030" d="M207,445.663c6.849,0,13.697-2.606,18.911-7.82c3.905-3.905,3.905-10.237,0-14.143
	c-3.906-3.904-10.236-3.904-14.143,0c-2.629,2.631-6.908,2.631-9.537,0c-3.906-3.904-10.236-3.904-14.143,0
	c-3.905,3.905-3.905,10.237,0,14.143C193.303,443.057,200.151,445.663,207,445.663z"/>
</svg>
