<?xml version="1.0" encoding="iso-8859-1"?>
<!-- Generator: Adobe Illustrator 19.0.0, SVG Export Plug-In . SVG Version: 6.00 Build 0)  -->
<svg version="1.1" id="Capa_1" xmlns="http://www.w3.org/2000/svg" xmlns:xlink="http://www.w3.org/1999/xlink" x="0px" y="0px"
	 viewBox="-49 141 512 512" style="enable-background:new -49 141 512 512;" xml:space="preserve">
<g>
	<path class="icon-color-other" fill="#D7D7E6" visibility="hidden" d="M424.997,200.999H-10.997c-15.464,0-28,12.536-28,28l0,0c0,15.464,12.536,28,28,28h435.993
		c15.464,0,28-12.536,28-28l0,0C452.996,213.535,440.46,200.999,424.997,200.999z"/>
	<path class="icon-color-other" fill="#D7D7E6" visibility="hidden" d="M424.997,368.996H-10.997c-15.464,0-28,12.536-28,28l0,0c0,15.464,12.536,28,28,28h435.993
		c15.464,0,28-12.536,28-28l0,0C452.996,381.532,440.46,368.996,424.997,368.996z"/>
	<path class="icon-color-other" fill="#D7D7E6" visibility="hidden" d="M424.997,536.994H-10.997c-15.464,0-28,12.536-28,28l0,0c0,15.464,12.536,28,28,28h435.993
		c15.464,0,28-12.536,28-28l0,0C452.996,549.53,440.46,536.994,424.997,536.994z"/>
</g>
<circle class="icon-color-1" visibility="hidden"  cx="321.524" cy="396.996" r="77.999"/>
<circle class="icon-color-2" visibility="hidden"  cx="117.227" cy="228.999" r="77.999"/>
<circle class="icon-color-3" visibility="hidden"  cx="117.227" cy="565.003" r="77.999"/>
<path class="icon-color-outline" fill="#303030" d="M202.29,432.064c1.859-1.859,2.93-4.439,2.93-7.069c0-2.63-1.07-5.21-2.93-7.07
	c-1.86-1.86-4.431-2.93-7.07-2.93c-2.63,0-5.21,1.069-7.07,2.93c-1.859,1.86-2.93,4.44-2.93,7.07c0,2.63,1.07,5.21,2.93,7.069
	c1.86,1.86,4.44,2.931,7.07,2.931S200.43,433.925,202.29,432.064z"/>
<path class="icon-color-outline" fill="#303030" d="M424.997,358.997h-24.111c-14.207-29.552-44.441-49.999-79.363-49.999s-65.156,20.448-79.363,49.999
	H-10.997c-20.953,0-37.999,17.047-37.999,37.999s17.047,37.999,37.999,37.999h160.33c5.522,0,10-4.478,10-10c0-5.522-4.478-10-10-10
	h-160.33c-9.925,0-18-8.075-18-18s8.075-18,18-18h246.374c-1.213,5.813-1.854,11.833-1.854,18c0,48.522,39.476,87.999,87.999,87.999
	c34.921,0,65.156-20.448,79.363-49.999h24.111c20.953,0,37.999-17.047,37.999-37.999S445.949,358.997,424.997,358.997z
	 M321.522,464.995c-37.494,0-67.999-30.505-67.999-67.999s30.505-67.999,67.999-67.999s67.999,30.505,67.999,67.999
	S359.017,464.995,321.522,464.995z M424.997,414.996h-17.329c1.213-5.813,1.854-11.833,1.854-18s-0.641-12.188-1.854-18h17.329
	c9.925,0,18,8.075,18,18S434.921,414.996,424.997,414.996z"/>
<path class="icon-color-outline" fill="#303030" d="M424.997,527.119H196.642c-14.183-29.614-44.45-50.116-79.418-50.116s-65.235,20.503-79.418,50.116
	h-48.803c-20.953,0-37.999,17.047-37.999,37.999c0,20.953,17.047,37.999,37.999,37.999h48.912
	C52.145,632.606,82.348,653,117.223,653s65.078-20.394,79.308-49.882h228.464c20.953,0,37.999-17.047,37.999-37.999
	C462.995,544.166,445.949,527.119,424.997,527.119z M-10.997,583.118c-9.925,0-18-8.075-18-18c0-9.925,8.075-18,18-18h42.05
	c-1.197,5.776-1.828,11.757-1.828,17.883c0,6.209,0.65,12.268,1.879,18.117H-10.997z M117.224,633
	c-37.494,0-67.999-30.505-67.999-67.999c0-37.494,30.505-67.999,67.999-67.999s67.999,30.505,67.999,67.999
	C185.223,602.496,154.719,633,117.224,633z M424.997,583.118H203.343c1.229-5.849,1.879-11.908,1.879-18.117
	c0-6.126-0.631-12.107-1.828-17.883h221.602c9.925,0,18,8.075,18,18C442.995,575.043,434.921,583.118,424.997,583.118z"/>
<path class="icon-color-outline" fill="#303030" d="M299.999,210.999c2.63,0,5.21-1.07,7.069-2.931c1.86-1.859,2.931-4.439,2.931-7.069
	s-1.07-5.21-2.931-7.07c-1.859-1.86-4.439-2.93-7.069-2.93c-2.63,0-5.21,1.069-7.07,2.93c-1.86,1.861-2.93,4.44-2.93,7.07
	s1.069,5.21,2.93,7.069C294.789,209.929,297.369,210.999,299.999,210.999z"/>
<path class="icon-color-outline" fill="#303030" d="M-10.997,266.998h48.857c14.207,29.552,44.441,49.999,79.363,49.999s65.156-20.448,79.363-49.999
	h228.409c20.953,0,37.999-17.047,37.999-37.999s-17.047-37.999-37.999-37.999h-88.499c-5.522,0-10,4.478-10,10
	c0,5.522,4.478,10,10,10h88.499c9.925,0,18,8.075,18,18s-8.075,18-18,18H203.369c1.213-5.813,1.854-11.833,1.854-18
	s-0.641-12.188-1.854-18h54.63c5.522,0,10-4.478,10-10c0-5.522-4.478-10-10-10h-61.412C182.38,161.448,152.146,141,117.224,141
	s-65.156,20.448-79.363,49.999h-48.858c-20.953,0-37.999,17.047-37.999,37.999S-31.949,266.998-10.997,266.998z M117.224,161
	c37.494,0,67.999,30.505,67.999,67.999s-30.505,67.999-67.999,67.999s-67.999-30.505-67.999-67.999S79.729,161,117.224,161z
	 M-10.997,210.999h42.075c-1.213,5.813-1.854,11.833-1.854,18s0.641,12.188,1.854,18h-42.075c-9.925,0-18-8.075-18-18
	S-20.921,210.999-10.997,210.999z"/>
</svg>
