<?xml version="1.0" encoding="iso-8859-1"?>
<!-- Generator: Adobe Illustrator 19.0.0, SVG Export Plug-In . SVG Version: 6.00 Build 0)  -->
<svg version="1.1" id="Capa_1" xmlns="http://www.w3.org/2000/svg" xmlns:xlink="http://www.w3.org/1999/xlink" x="0px" y="0px"
	 viewBox="-49 141 512 512" style="enable-background:new -49 141 512 512;" xml:space="preserve">
<path class="icon-color-2" visibility="hidden"  d="M168.21,494.387c-7.692-7.987-17.642-13.886-29.026-16.614l-41.143-9.859l-0.017,0.027l0.017-0.027
	v-25.117H47.799v25.198l0,0l-41.036,9.803C-20.07,484.208-39,508.191-39,535.779V603h90.962L168.21,494.387z"/>
<polygon class="icon-color-other" fill="#FFB487" visibility="hidden" points="99.12,442.797 99.12,468.592 73.046,531.047 47,468.681 47,442.797 "/>
<path class="icon-color-other" fill="#FFCDAC" visibility="hidden" d="M128.955,356.261v34.79c0,30.928-25.073,56-56.002,56l0,0l0,0c-30.929,0-56.002-25.072-56.002-56
	v-34.79H128.955L128.955,356.261z"/>
<path class="icon-color-other" fill="#878791" visibility="hidden" d="M128.955,367.266v-13.481c0-30.928-25.073-56-56.002-56l0,0c-30.929,0-56.002,25.072-56.002,56
	v13.481h38.603c24.174,0,47.895-6.563,68.631-18.988l0,0"/>
<path class="icon-color-3" visibility="hidden"  d="M245.79,494.387c7.692-7.987,17.642-13.886,29.026-16.614l41.143-9.859l0.017,0.027l-0.017-0.027
	v-25.117h50.242v25.198l0,0l41.036,9.803C434.07,484.208,453,508.191,453,535.779V603h-90.962L245.79,494.387z"/>
<path class="icon-color-1" visibility="hidden"  d="M171.953,493.403l-57.306,13.732c-37.348,8.95-63.685,42.343-63.685,80.747V643h311.87v-55.07
	c0-38.426-26.366-71.832-63.742-80.761l-57.157-13.654L171.953,493.403z"/>
<g>
	<polygon class="icon-color-other" fill="#FFB487" visibility="hidden" points="367,442.797 367,468.681 340.954,531.047 314.88,468.592 314.88,442.797 	"/>
	<path class="icon-color-other" fill="#FFB487" visibility="hidden" d="M207.01,573.738l37.31-84.708c-2.769-4.65-4.347-10.062-4.347-15.792v-8.142h-65.966v8.143
		c0,5.72-1.572,11.124-4.333,15.769L207.01,573.738z"/>
</g>
<path class="icon-color-other" fill="#FFCDAC" visibility="hidden" d="M285.001,332.525v53.819c0,43.078-34.922,78.001-78,78.001l0,0l0,0c-43.078,0-78-34.922-78-78.001
	v-53.819H285.001z"/>
<path class="icon-color-other" fill="#F5B955" visibility="hidden" d="M207,256.437L207,256.437c-43.079,0-78.001,34.922-78.001,78v18.777h38.137
	c25.351,0,49.402-11.225,65.684-30.656l0,0l52.179,30.656v-18.777C285.001,291.359,250.079,256.437,207,256.437z"/>
<path class="icon-color-other" fill="#FFCDAC" visibility="hidden" d="M285.045,356.261v34.79c0,30.928,25.073,56,56.002,56l0,0l0,0c30.929,0,56.002-25.072,56.002-56
	v-34.79H285.045L285.045,356.261z"/>
<path class="icon-color-other" fill="#878791" visibility="hidden" d="M285.045,367.266v-13.481c0-30.928,25.073-56,56.002-56l0,0c30.929,0,56.002,25.072,56.002,56v13.481
	h-38.603c-24.174,0-47.895-6.563-68.631-18.988l0,0"/>
<path class="icon-color-outline" fill="#303030" d="M206.74,633c-2.631,0-5.211,1.07-7.07,2.93c-1.86,1.86-2.93,4.44-2.93,7.07s1.069,5.21,2.93,7.07
	c1.859,1.86,4.439,2.93,7.07,2.93c2.63,0,5.21-1.07,7.069-2.93c1.86-1.86,2.931-4.44,2.931-7.07s-1.07-5.21-2.931-7.07
	C211.95,634.07,209.37,633,206.74,633z"/>
<path class="icon-color-outline" fill="#303030" d="M409.56,468.071l-33.358-7.969V446.87c18.516-11.703,30.848-32.342,30.848-55.818v-37.267
	c0-36.393-29.608-66-66.002-66c-19.632,0-37.279,8.626-49.38,22.275c-10.598-36.703-44.495-63.623-84.564-63.623h-0.001
	c-40.134,0-74.077,27.005-84.616,63.798c-12.104-13.75-29.816-22.45-49.532-22.45c-36.394,0-66.002,29.608-66.002,66v37.267
	c0,23.477,12.332,44.116,30.848,55.818v13.232l-33.358,7.969C-27.024,475.587-49,503.43-49,535.779V603c0,5.523,4.478,10,10,10
	h79.963v30c0,5.523,4.478,10,10,10h109.704c5.522,0,10-4.477,10-10s-4.478-10-10-10h-44.643v-44.012c0-5.523-4.478-10-10-10
	s-10,4.477-10,10V633H60.962v-45.118c0-33.914,23.034-63.119,56.015-71.022l49.183-11.786l31.646,71.996
	c1.596,3.631,5.187,5.976,9.153,5.976h0.001c3.966,0,7.558-2.344,9.154-5.975l31.614-71.891l49.04,11.715
	c33.011,7.885,56.065,37.096,56.065,71.034v11.159c-0.511,1.202-0.795,2.523-0.795,3.911c0,1.388,0.284,2.71,0.795,3.911V633
	h-34.857v-44.012c0-5.523-4.478-10-10-10s-10,4.477-10,10V633h-48.975c-5.522,0-10,4.477-10,10s4.478,10,10,10h113.832
	c5.522,0,10-4.477,10-10v-30H453c5.522,0,10-4.477,10-10v-67.221C463,503.43,441.024,475.587,409.56,468.071z M356.224,468.535
	l-15.268,36.559l-15.062-36.078c0.04-0.363,0.069-0.728,0.069-1.094c0-0.093-0.001-0.187-0.004-0.28v-12.35
	c4.85,1.139,9.896,1.76,15.088,1.76c5.215,0,10.285-0.627,15.154-1.776v12.718C356.201,468.176,356.214,468.355,356.224,468.535z
	 M161.953,476.568c-6.278-3.894-13.166-6.777-20.438-8.519l-33.474-8.021v-13.115c8.325-5.247,15.396-12.299,20.667-20.607
	c7.539,14.729,19.11,27.063,33.245,35.547V476.568z M139.1,386.345v-23.13h28.138c25.524,0,49.715-10.088,67.587-27.941
	l40.221,23.629v29.789c-1.244,36.411-31.233,65.654-67.943,65.654C169.605,454.345,139.1,423.84,139.1,386.345z M251.934,462.041
	c14.222-8.455,25.874-20.798,33.471-35.559c5.26,8.231,12.289,15.22,20.554,20.431v13.115l-33.474,8.021
	c-7.316,1.753-14.243,4.662-20.552,8.592v-14.6H251.934z M341.047,437.052c-25.365,0-46.002-20.636-46.002-46v-1.632
	c0.035-1.021,0.06-26.888,0.06-26.888c19.659,9.668,41.332,14.735,63.342,14.735h28.603v13.786
	C387.049,416.417,366.412,437.052,341.047,437.052z M341.047,307.785c25.365,0,46.002,20.636,46.002,46v2.476v1.005h-28.603
	c-21.606,0-42.837-5.673-61.548-16.426C302.504,321.758,320.174,307.785,341.047,307.785z M139.1,334.438
	c0-37.496,30.506-68,68.003-68c37.496,0,68.002,30.505,68.002,68v1.304l-37.115-21.805c-4.211-2.475-9.593-1.544-12.73,2.199
	c-14.42,17.208-35.568,27.078-58.021,27.078H139.1V334.438z M26.951,353.785c0-25.365,20.637-46,46.002-46
	c20.873,0,38.543,13.973,44.148,33.056c-18.711,10.752-39.941,16.426-61.548,16.426H26.951v-1.005V353.785z M26.951,377.266h28.603
	c22.032,0,43.727-5.076,63.401-14.763v28.549c0,25.365-20.637,46-46.002,46s-46.002-20.636-46.002-46L26.951,377.266z
	 M72.953,457.052c5.192,0,10.238-0.622,15.088-1.76v12.07c-0.011,0.188-0.016,0.376-0.016,0.564c0,0.315,0.03,0.628,0.06,0.941
	l-15.13,36.227l-15.187-36.379c0.017-0.239,0.031-0.478,0.031-0.72v-12.718C62.668,456.425,67.738,457.052,72.953,457.052z
	 M40.963,587.882V593H11v-44.429c0-5.523-4.478-10-10-10s-10,4.477-10,10V593h-20v-57.221c0-23.055,15.662-42.898,38.087-48.255
	l31.698-7.573l20.688,49.555C48.534,545.58,40.963,565.954,40.963,587.882z M112.317,497.411
	c-5.905,1.415-11.548,3.384-16.906,5.812l9.74-23.322l31.703,7.597c2.459,0.589,4.855,1.368,7.174,2.314L112.317,497.411z
	 M206.962,548.199l-25.009-56.897v-20.624c7.972,2.382,16.413,3.667,25.149,3.667c8.62,0,16.953-1.252,24.831-3.573v20.641
	L206.962,548.199z M269.789,489.888c2.376-0.98,4.833-1.785,7.357-2.39l31.626-7.578l9.78,23.426
	c-5.427-2.472-11.148-4.471-17.138-5.902L269.789,489.888z M443,593h-20v-44.429c0-5.523-4.478-10-10-10s-10,4.477-10,10V593
	h-30.167v-5.07c0-21.899-7.546-42.245-20.448-58.305l20.753-49.692l31.775,7.591c22.425,5.357,38.087,25.2,38.087,48.255V593z"/>
<path class="icon-color-outline" fill="#303030" d="M173.46,372.25c-2.63,0-5.21,1.07-7.07,2.93s-2.93,4.44-2.93,7.07s1.069,5.21,2.93,7.07
	s4.44,2.93,7.07,2.93c2.64,0,5.21-1.07,7.069-2.93c1.87-1.86,2.931-4.44,2.931-7.07s-1.061-5.21-2.931-7.07
	C178.67,373.32,176.09,372.25,173.46,372.25z"/>
<path class="icon-color-outline" fill="#303030" d="M240.33,392.25c2.63,0,5.21-1.07,7.069-2.93c1.87-1.86,2.931-4.44,2.931-7.07s-1.061-5.21-2.931-7.07
	c-1.859-1.86-4.439-2.93-7.069-2.93s-5.21,1.07-7.07,2.93c-1.86,1.86-2.93,4.44-2.93,7.07s1.069,5.21,2.93,7.07
	S237.7,392.25,240.33,392.25z"/>
<path class="icon-color-outline" fill="#303030" d="M226.247,408.842c-3.906-3.905-10.236-3.905-14.143,0c-2.957,2.957-7.768,2.957-10.725,0
	c-3.906-3.905-10.236-3.905-14.143,0c-3.905,3.905-3.905,10.237,0,14.143c5.378,5.377,12.441,8.066,19.505,8.066
	c7.064,0,14.127-2.688,19.505-8.066C230.152,419.079,230.152,412.747,226.247,408.842z"/>
<path class="icon-color-outline" fill="#303030" d="M357.62,215h6.859c5.522,0,10-4.477,10-10s-4.478-10-10-10h-6.859c-5.522,0-10,4.477-10,10
	S352.098,215,357.62,215z"/>
<path class="icon-color-outline" fill="#303030" d="M406.141,215H413c5.522,0,10-4.477,10-10s-4.478-10-10-10h-6.859c-5.522,0-10,4.477-10,10
	S400.618,215,406.141,215z"/>
<path class="icon-color-outline" fill="#303030" d="M385.311,242.69c5.522,0,10-4.477,10-10v-6.859c0-5.523-4.478-10-10-10s-10,4.477-10,10v6.859
	C375.311,238.213,379.788,242.69,385.311,242.69z"/>
<path class="icon-color-outline" fill="#303030" d="M385.311,194.169c5.522,0,10-4.477,10-10v-6.859c0-5.523-4.478-10-10-10s-10,4.477-10,10v6.859
	C375.311,189.692,379.788,194.169,385.311,194.169z"/>
<path class="icon-color-outline" fill="#303030" d="M0.444,215h6.858c5.522,0,10-4.477,10-10s-4.478-10-10-10H0.444c-5.522,0-10,4.477-10,10
	S-5.078,215,0.444,215z"/>
<path class="icon-color-outline" fill="#303030" d="M48.965,215h6.858c5.522,0,10-4.477,10-10s-4.478-10-10-10h-6.858c-5.522,0-10,4.477-10,10
	S43.442,215,48.965,215z"/>
<path class="icon-color-outline" fill="#303030" d="M28.134,242.69c5.522,0,10-4.477,10-10v-6.859c0-5.523-4.478-10-10-10s-10,4.477-10,10v6.859
	C18.134,238.213,22.611,242.69,28.134,242.69z"/>
<path class="icon-color-outline" fill="#303030" d="M28.134,194.169c5.522,0,10-4.477,10-10v-6.859c0-5.523-4.478-10-10-10s-10,4.477-10,10v6.859
	C18.134,189.692,22.611,194.169,28.134,194.169z"/>
<path class="icon-color-outline" fill="#303030" d="M207,225.397c5.522,0,10-4.477,10-10v-26.31c0-5.523-4.478-10-10-10s-10,4.477-10,10v26.31
	C197,220.92,201.478,225.397,207,225.397z"/>
<path class="icon-color-outline" fill="#303030" d="M207,161c2.63,0,5.21-1.07,7.069-2.93c1.861-1.86,2.931-4.44,2.931-7.07s-1.07-5.21-2.931-7.07
	C212.21,142.07,209.63,141,207,141s-5.21,1.07-7.07,2.93c-1.861,1.86-2.93,4.44-2.93,7.07s1.069,5.21,2.93,7.07
	C201.791,159.93,204.37,161,207,161z"/>
<path class="icon-color-outline" fill="#303030" d="M157.813,195.262c1.953,1.953,4.512,2.929,7.071,2.929s5.118-0.976,7.071-2.929
	c3.905-3.905,3.905-10.237,0-14.143l-14.634-14.634c-3.906-3.905-10.236-3.905-14.143,0c-3.905,3.905-3.905,10.237,0,14.143
	L157.813,195.262z"/>
<path class="icon-color-outline" fill="#303030" d="M248.626,198.13c2.56,0,5.118-0.976,7.071-2.929l15.123-15.123c3.905-3.905,3.905-10.237,0-14.143
	c-3.906-3.905-10.236-3.905-14.143,0l-15.123,15.123c-3.905,3.905-3.905,10.237,0,14.143
	C243.508,197.154,246.066,198.13,248.626,198.13z"/>
</svg>
