<?xml version="1.0" encoding="iso-8859-1"?>
<!-- Generator: Adobe Illustrator 19.0.0, SVG Export Plug-In . SVG Version: 6.00 Build 0)  -->
<svg version="1.1" id="Capa_1" xmlns="http://www.w3.org/2000/svg" xmlns:xlink="http://www.w3.org/1999/xlink" x="0px" y="0px"
	 viewBox="-49 141 512 512" style="enable-background:new -49 141 512 512;" xml:space="preserve">
<g>
	<path class="icon-color-1" visibility="hidden"  d="M317.292,347.017l122.99-19.841c-23.556-79.714-86.411-142.569-166.125-166.125l-19.841,122.99
		C282.34,296.451,304.882,318.993,317.292,347.017z"/>
	<path class="icon-color-1" visibility="hidden"  d="M154.35,284.041l-19.841-122.99C54.795,184.607-8.06,247.462-31.616,327.176l122.99,19.841
		C103.784,318.993,126.326,296.451,154.35,284.041z"/>
	<path class="icon-color-1" visibility="hidden"  d="M254.316,509.959l19.841,122.99c79.714-23.556,142.57-86.411,166.125-166.125l-122.99-19.841
		C304.882,475.007,282.34,497.549,254.316,509.959z"/>
	<path class="icon-color-1" visibility="hidden"  d="M91.374,446.983l-122.99,19.841c23.556,79.714,86.411,142.57,166.125,166.125l19.841-122.99
		C126.326,497.549,103.784,475.007,91.374,446.983z"/>
</g>
<g>
	<path class="icon-color-2" visibility="hidden"  d="M453,397c0,24.259-3.514,47.694-10.051,69.824l-122.99-19.841
		c6.778-15.282,10.543-32.191,10.543-49.983s-3.765-34.701-10.543-49.983l122.99-19.841C449.486,349.306,453,372.741,453,397z"/>
	<path class="icon-color-2" visibility="hidden"  d="M83.498,397c0,17.792,3.765,34.701,10.543,49.983l-122.99,19.841C-35.486,444.694-39,421.259-39,397
		s3.514-47.694,10.051-69.824l122.99,19.841C87.263,362.299,83.498,379.208,83.498,397z"/>
</g>
<path class="icon-color-outline" fill="#303030" d="M383.97,301.85c-0.65,0-1.31-0.069-1.95-0.2c-0.64-0.13-1.27-0.319-1.87-0.569
	c-0.61-0.25-1.19-0.561-1.73-0.92c-0.55-0.36-1.06-0.78-1.52-1.24c-1.86-1.86-2.93-4.44-2.93-7.07c0-0.649,0.07-1.31,0.2-1.96
	c0.13-0.63,0.32-1.26,0.57-1.87c0.25-0.6,0.56-1.18,0.92-1.72c0.36-0.55,0.78-1.06,1.24-1.53c0.46-0.46,0.97-0.87,1.52-1.239
	c0.54-0.36,1.12-0.671,1.73-0.921c0.6-0.25,1.23-0.439,1.87-0.569c1.29-0.26,2.62-0.26,3.91,0c0.63,0.13,1.26,0.319,1.87,0.569
	c0.6,0.25,1.18,0.561,1.72,0.921c0.55,0.369,1.06,0.779,1.52,1.239c0.46,0.471,0.88,0.98,1.25,1.53c0.36,0.54,0.67,1.12,0.92,1.72
	c0.25,0.61,0.44,1.24,0.57,1.87c0.13,0.65,0.19,1.3,0.19,1.96c0,2.63-1.07,5.21-2.93,7.07c-0.46,0.46-0.97,0.88-1.52,1.24
	c-0.54,0.359-1.12,0.67-1.72,0.92c-0.61,0.25-1.24,0.439-1.87,0.569C385.28,301.78,384.62,301.85,383.97,301.85z"/>
<path class="icon-color-outline" fill="#303030" d="M102.13,584.14c-0.65,0-1.31-0.07-1.96-0.2c-0.63-0.13-1.26-0.319-1.87-0.569
	c-0.6-0.25-1.18-0.56-1.72-0.92c-0.55-0.36-1.06-0.78-1.52-1.24c-0.461-0.46-0.88-0.98-1.24-1.52c-0.36-0.54-0.67-1.13-0.92-1.73
	c-0.25-0.601-0.45-1.23-0.57-1.87c-0.13-0.64-0.2-1.3-0.2-1.95c0-0.649,0.07-1.309,0.2-1.96c0.12-0.63,0.32-1.26,0.57-1.87
	c0.25-0.6,0.56-1.18,0.92-1.72c0.36-0.55,0.78-1.06,1.24-1.521c0.46-0.46,0.97-0.88,1.52-1.25c0.54-0.359,1.12-0.67,1.72-0.92
	c0.61-0.25,1.24-0.439,1.87-0.569c1.29-0.261,2.62-0.261,3.91,0c0.64,0.13,1.27,0.319,1.87,0.569c0.61,0.25,1.19,0.561,1.73,0.92
	c0.55,0.37,1.06,0.79,1.52,1.25c0.46,0.461,0.88,0.971,1.24,1.521c0.36,0.54,0.67,1.12,0.92,1.72c0.25,0.61,0.45,1.24,0.57,1.87
	c0.13,0.65,0.2,1.311,0.2,1.96c0,0.65-0.07,1.311-0.2,1.95c-0.12,0.64-0.32,1.27-0.57,1.87s-0.56,1.189-0.92,1.73
	c-0.36,0.54-0.78,1.06-1.24,1.52s-0.97,0.88-1.52,1.24c-0.54,0.359-1.12,0.67-1.73,0.92c-0.6,0.25-1.23,0.44-1.87,0.569
	S102.78,584.14,102.13,584.14z"/>
<g>
	<path class="icon-color-2" visibility="hidden"  d="M276.824,161.051l-19.841,122.99c-15.282-6.777-32.191-10.543-49.983-10.543
		s-34.701,3.765-49.983,10.543l-19.841-122.99C159.306,154.514,182.741,151,207,151S254.694,154.514,276.824,161.051z"/>
	<path class="icon-color-2" visibility="hidden"  d="M276.824,632.949C254.694,639.486,231.259,643,207,643s-47.694-3.514-69.824-10.051l19.841-122.99
		c15.282,6.777,32.191,10.543,49.983,10.543s34.701-3.765,49.983-10.543L276.824,632.949z"/>
</g>
<path class="icon-color-outline" fill="#303030" d="M463,397c0-24.713-3.52-49.158-10.46-72.657c-0.001-0.004-0.003-0.008-0.004-0.012
	c-12.03-40.703-34.34-78.17-64.519-108.349c-30.174-30.173-67.633-52.481-108.328-64.512c-0.011-0.003-0.021-0.007-0.032-0.01
	C256.156,144.52,231.71,141,207,141s-49.156,3.52-72.656,10.46c-0.011,0.003-0.021,0.007-0.032,0.01
	c-40.696,12.031-78.154,34.339-108.329,64.512c-30.179,30.179-52.489,67.646-64.519,108.349c-0.001,0.004-0.002,0.007-0.004,0.011
	C-45.48,347.842-49,372.287-49,397s3.52,49.158,10.46,72.657c0.001,0.002,0.001,0.003,0.002,0.005
	c12.03,40.705,34.341,78.175,64.521,108.355c30.174,30.173,67.633,52.481,108.329,64.512c0.011,0.003,0.021,0.007,0.032,0.01
	C157.844,649.48,182.29,653,207,653s49.156-3.52,72.656-10.46c0.011-0.003,0.021-0.007,0.032-0.01
	c40.696-12.031,78.154-34.339,108.328-64.512c30.181-30.181,52.492-67.65,64.521-108.355c0-0.002,0.001-0.003,0.002-0.005
	C459.48,446.158,463,421.713,463,397z M161.071,500.817c-0.002-0.001-0.004-0.002-0.006-0.002
	c-25.869-11.456-46.424-32.012-57.88-57.88l0,0c-0.001-0.002-0.001-0.004-0.002-0.006c-6.426-14.488-9.684-29.941-9.684-45.929
	c0-15.988,3.258-31.44,9.684-45.929c0.001-0.002,0.001-0.004,0.002-0.005c0,0,0,0,0-0.001c11.456-25.869,32.012-46.424,57.88-57.88
	c0.002-0.001,0.004-0.001,0.006-0.002c14.49-6.427,29.943-9.685,45.929-9.685s31.44,3.258,45.929,9.685
	c0.002,0.001,0.004,0.002,0.006,0.003c25.869,11.456,46.424,32.012,57.88,57.88l0,0c0.001,0.002,0.001,0.004,0.002,0.006
	c6.426,14.488,9.684,29.941,9.684,45.929s-3.258,31.44-9.684,45.929c-0.001,0.002-0.001,0.004-0.002,0.005c0,0,0,0,0,0.001
	c-11.456,25.869-32.012,46.424-57.88,57.88c-0.002,0.001-0.004,0.001-0.006,0.002c-14.49,6.427-29.943,9.685-45.929,9.685
	S175.561,507.244,161.071,500.817z M145.953,278.249c-24.823,12.756-44.948,32.881-57.703,57.704l-63.695-10.275
	c9.815-25.008,24.902-48.084,43.97-67.153c19.064-19.063,42.149-34.157,67.153-43.97L145.953,278.249z M80.266,439.076
	l-101.954,16.447C-26.543,436.483-29,416.839-29,397s2.457-39.483,7.312-58.523l101.954,16.447
	c-4.496,13.507-6.768,27.608-6.768,42.076S75.77,425.569,80.266,439.076z M333.734,354.924l101.954-16.447
	C440.543,357.517,443,377.161,443,397s-2.457,39.483-7.312,58.523l-101.954-16.447c4.496-13.507,6.768-27.608,6.768-42.076
	S338.23,368.431,333.734,354.924z M268.047,515.751c24.823-12.756,44.948-32.881,57.703-57.704l63.692,10.275
	c-9.816,25.013-24.884,48.071-43.967,67.153c-19.073,19.072-42.145,34.155-67.154,43.969L268.047,515.751z M429.87,319.156
	l-104.12,16.797c-12.755-24.823-32.881-44.948-57.703-57.704l10.275-63.693c25.009,9.815,48.078,24.893,67.154,43.969
	c2.422,2.423,4.821,4.952,7.129,7.518c1.975,2.195,4.7,3.313,7.438,3.313c2.382,0,4.773-0.847,6.684-2.565
	c4.106-3.693,4.441-10.016,0.747-14.122c-2.543-2.827-5.187-5.615-7.857-8.285c-22.04-22.04-48.922-39.241-78.043-49.989
	l0.819-5.075l2.45-15.188C353.017,197.855,406.144,250.982,429.87,319.156z M265.523,168.312l-16.447,101.954
	c-13.507-4.496-27.609-6.768-42.076-6.768s-28.569,2.272-42.076,6.768l-16.447-101.954C167.519,163.457,187.163,161,207,161
	S246.481,163.457,265.523,168.312z M129.157,174.131l2.45,15.188l0.819,5.079c-29.112,10.744-56.017,27.96-78.044,49.984
	c-22.032,22.033-39.239,48.927-49.986,78.044l-20.266-3.269C7.856,250.982,60.983,197.855,129.157,174.131z M-15.87,474.844
	l20.264-3.269c10.75,29.121,27.952,56.006,49.989,78.044c3.323,3.323,6.803,6.581,10.343,9.685c1.898,1.664,4.247,2.48,6.588,2.48
	c2.78,0,5.547-1.153,7.523-3.408c3.641-4.152,3.226-10.471-0.928-14.111c-3.212-2.816-6.371-5.773-9.385-8.788
	c-19.073-19.073-34.153-42.144-43.969-67.153l63.693-10.275c12.755,24.823,32.881,44.948,57.703,57.704l-14.346,88.931l-2.45,15.188
	C60.983,596.145,7.856,543.018-15.87,474.844z M148.477,625.688l16.447-101.954c13.507,4.496,27.609,6.769,42.076,6.769
	c14.467,0,28.569-2.272,42.076-6.769l16.447,101.954C246.481,630.543,226.837,633,207,633S167.519,630.543,148.477,625.688z
	 M284.843,619.869l-2.45-15.188l-0.819-5.077c29.119-10.749,56.007-27.952,78.043-49.987c22.048-22.046,39.237-48.915,49.989-78.042
	l20.264,3.269C406.144,543.018,353.017,596.145,284.843,619.869z"/>
</svg>
