<?xml version="1.0" encoding="iso-8859-1"?>
<!-- Generator: Adobe Illustrator 19.0.0, SVG Export Plug-In . SVG Version: 6.00 Build 0)  -->
<svg version="1.1" id="Capa_1" xmlns="http://www.w3.org/2000/svg" xmlns:xlink="http://www.w3.org/1999/xlink" x="0px" y="0px"
	 viewBox="-49 141 512 512" style="enable-background:new -49 141 512 512;" xml:space="preserve">
<polygon class="icon-color-2" visibility="hidden" points="28.848,397 207.001,218.848 385.153,397 453.001,397 207.001,151.001 -38.999,397 "/>
<polygon class="icon-color-other" fill="#FFFFFF" visibility="hidden" points="15.001,397.917 15.001,643.001 399.001,643.001 399.001,397.917 207.001,218.848 "/>
<rect x="155" y="443" class="icon-color-1" visibility="hidden" width="104" height="200"/>
<g>
	<rect x="301" y="443" class="icon-color-3" visibility="hidden" width="56" height="100"/>
	<rect x="57" y="443" class="icon-color-3" visibility="hidden" width="56" height="100"/>
	<circle class="icon-color-3" visibility="hidden" cx="207" cy="351.32" r="36"/>
</g>
<path class="icon-color-outline" fill="#303030" d="M453.001,633.001h-44v-79c0-5.523-4.478-10-10-10s-10,4.477-10,10v79h-120v-190
	c0-5.523-4.478-10-10-10h-104c-5.522,0-10,4.477-10,10v190h-120V407h3.848c2.652,0,5.195-1.054,7.071-2.929L207.001,232.99
	l171.081,171.081c1.876,1.875,4.419,2.929,7.071,2.929h3.848v75c0,5.523,4.478,10,10,10s10-4.477,10-10v-75h44
	c4.045,0,7.691-2.437,9.239-6.173s0.691-8.038-2.168-10.898l-246-246c-3.906-3.905-10.236-3.905-14.143,0l-94,94
	c-3.905,3.905-3.905,10.237,0,14.142c3.906,3.906,10.238,3.906,14.143,0l86.929-86.929L428.858,387h-39.563L214.072,211.777
	c-3.906-3.905-10.236-3.905-14.143,0L24.706,387h-39.563l78.929-78.928c3.905-3.905,3.905-10.237,0-14.143
	c-3.905-3.904-10.237-3.905-14.143,0l-96,96c-2.859,2.86-3.716,7.161-2.168,10.898s5.195,6.173,9.24,6.173h44v226h-44
	c-5.522,0-10,4.477-10,10s4.478,10,10,10h54h140h104h140h54c5.522,0,10-4.477,10-10S458.523,633.001,453.001,633.001z
	 M165.001,633.001v-180h84v180H165.001z"/>
<path class="icon-color-outline" fill="#303030" d="M301.001,433.001c-5.522,0-10,4.477-10,10v100c0,5.523,4.478,10,10,10h56c5.522,0,10-4.477,10-10
	v-100c0-5.523-4.478-10-10-10H301.001z M347.001,533.001h-36v-80h36V533.001z"/>
<path class="icon-color-outline" fill="#303030" d="M57.001,433.001c-5.522,0-10,4.477-10,10v100c0,5.523,4.478,10,10,10h56c5.522,0,10-4.477,10-10v-100
	c0-5.523-4.478-10-10-10H57.001z M103.001,533.001h-36v-80h36V533.001z"/>
<path class="icon-color-outline" fill="#303030" d="M161.001,351.321c0,25.364,20.636,46,46,46s46-20.636,46-46s-20.636-46-46-46
	S161.001,325.957,161.001,351.321z M233.001,351.321c0,14.336-11.663,26-26,26s-26-11.664-26-26s11.663-26,26-26
	S233.001,336.985,233.001,351.321z"/>
<path class="icon-color-outline" fill="#303030" d="M188.001,533.001c-2.63,0-5.21,1.07-7.07,2.93s-2.93,4.44-2.93,7.07s1.069,5.21,2.93,7.07
	c1.861,1.86,4.44,2.93,7.07,2.93s5.21-1.07,7.069-2.93c1.86-1.86,2.931-4.44,2.931-7.07s-1.07-5.21-2.931-7.07
	C193.211,534.071,190.63,533.001,188.001,533.001z"/>
<path class="icon-color-outline" fill="#303030" d="M84.001,284.001c2.63,0,5.21-1.07,7.069-2.93c1.86-1.86,2.931-4.44,2.931-7.07s-1.07-5.21-2.931-7.07
	c-1.859-1.86-4.439-2.93-7.069-2.93s-5.21,1.07-7.07,2.93c-1.86,1.86-2.93,4.44-2.93,7.07s1.069,5.21,2.93,7.07
	S81.371,284.001,84.001,284.001z"/>
<path class="icon-color-outline" fill="#303030" d="M399.001,505.33c-2.63,0-5.21,1.07-7.07,2.93c-1.86,1.87-2.93,4.44-2.93,7.07s1.069,5.21,2.93,7.08
	c1.86,1.86,4.44,2.92,7.07,2.92s5.21-1.06,7.069-2.92c1.86-1.87,2.931-4.44,2.931-7.08c0-2.63-1.07-5.21-2.931-7.07
	C404.211,506.401,401.63,505.33,399.001,505.33z"/>
</svg>
