<?xml version="1.0" encoding="iso-8859-1"?>
<!-- Generator: Adobe Illustrator 19.0.0, SVG Export Plug-In . SVG Version: 6.00 Build 0)  -->
<svg version="1.1" id="Layer_1" xmlns="http://www.w3.org/2000/svg" xmlns:xlink="http://www.w3.org/1999/xlink" x="0px" y="0px"
	 viewBox="-49 141 512 512" style="enable-background:new -49 141 512 512;" xml:space="preserve">
<path class="icon-color-2" visibility="hidden"  d="M397.701,636.188c34.546,0,60.518-31.418,54.137-65.37c-12.887-68.568-46.02-131.647-96.429-182.055
	c-55.694-55.695-126.858-90.299-203.801-99.809l36.347-36.347c21.213-21.213,22.512-55.775,1.889-77.561
	c-21.396-22.604-57.076-22.973-78.941-1.11L-22.707,307.546c-21.5,21.5-21.5,56.36,0,77.861l133.609,133.609
	c10.751,10.75,24.84,16.125,38.93,16.125c14.487,0,28.974-5.682,39.831-17.046c20.788-21.759,19.596-56.444-1.682-77.723
	l-40.758-40.758c99.088,16.381,177.881,93.71,196.418,192.061C348.523,617.567,371.355,636.188,397.701,636.188L397.701,636.188z"/>
<g>
	<path class="icon-color-outline" fill="#303030" d="M397.701,646.388c-31.363,0-58.313-22.214-64.081-52.82
		c-15.543-82.467-75.262-149.319-153.311-175.291l14.887,14.887c25.3,25.301,26.127,66.563,1.844,91.981
		c-12.444,13.026-29.209,20.2-47.205,20.2c-17.43,0-33.817-6.787-46.143-19.112L-29.918,392.622
		c-25.443-25.444-25.443-66.843,0-92.287l133.609-133.609c12.565-12.564,29.262-19.35,47.045-19.107
		c17.765,0.244,34.284,7.496,46.516,20.418c11.8,12.465,18.026,28.908,17.532,46.298c-0.489,17.172-7.455,33.327-19.617,45.489
		l-22.084,22.084c71.912,13,137.089,47.195,189.54,99.644c51.578,51.577,85.895,116.374,99.24,187.383
		c3.609,19.203-1.471,38.835-13.936,53.862C435.49,637.789,417.183,646.388,397.701,646.388z M147.222,389.416
		c0.553,0,1.109,0.045,1.667,0.138c103.124,17.048,185.418,97.517,204.778,200.235c3.952,20.975,22.473,36.2,44.034,36.2
		c13.392,0,25.976-5.911,34.526-16.217c8.577-10.34,12.072-23.851,9.587-37.07c-12.583-66.955-44.955-128.065-93.616-176.725
		c-54.079-54.08-122.49-87.586-197.84-96.898c-3.869-0.478-7.127-3.12-8.395-6.806c-1.268-3.686-0.323-7.772,2.433-10.529
		l36.347-36.347c17.463-17.462,18.223-45.876,1.695-63.337c-8.414-8.888-19.771-13.876-31.981-14.043
		c-12.239-0.168-23.702,4.496-32.34,13.133L-15.493,314.76c-17.489,17.489-17.489,45.947,0,63.436l133.609,133.609
		c8.473,8.472,19.737,13.138,31.719,13.138c12.371,0,23.896-4.934,32.454-13.891c16.688-17.468,16.007-45.938-1.519-63.464
		l-40.758-40.758c-3.133-3.133-3.885-7.931-1.859-11.875C139.919,391.517,143.448,389.416,147.222,389.416z"/>
	<path class="icon-color-outline" fill="#303030" d="M72.167,441.875c-2.61,0-5.22-0.997-7.212-2.988l-74.154-74.153c-3.983-3.983-3.984-10.442,0-14.426
		c3.983-3.982,10.442-3.982,14.425,0l74.154,74.153c3.983,3.983,3.984,10.442,0,14.426
		C77.389,440.879,74.777,441.875,72.167,441.875z"/>
	<path class="icon-color-outline" fill="#303030" d="M102.949,472.48c-2.61,0-5.221-0.997-7.212-2.988l-5.665-5.665c-3.983-3.983-3.983-10.442,0-14.426
		c3.983-3.982,10.442-3.982,14.426,0l5.665,5.665c3.983,3.983,3.983,10.442,0,14.426C108.169,471.484,105.559,472.48,102.949,472.48
		z"/>
</g>
</svg>
