<?xml version="1.0" encoding="iso-8859-1"?>
<!-- Generator: Adobe Illustrator 19.0.0, SVG Export Plug-In . SVG Version: 6.00 Build 0)  -->
<svg version="1.1" id="Capa_1" xmlns="http://www.w3.org/2000/svg" xmlns:xlink="http://www.w3.org/1999/xlink" x="0px" y="0px"
	 viewBox="-49 141 512 512" style="enable-background:new -49 141 512 512;" xml:space="preserve">
<path class="icon-color-1" visibility="hidden"  d="M121.409,440.115v-35.797c0-12.434-10.08-22.513-22.513-22.513H-39v259.351H98.896
	c12.434,0,22.513-10.08,22.513-22.513v-111.44V440.115z"/>
<path class="icon-color-other" fill="#FFCDAC" visibility="hidden" d="M420.581,448.487l-26.021-0.003c17.904,0,32.419-14.514,32.419-32.419l0,0
	c0-17.904-14.514-32.419-32.419-32.419h-125.2l19-56.41c10.346-30.717-6.74-63.908-37.75-73.336l-17.545-5.334l-27.569,76.195
	c-8.648,23.902-25.749,43.811-48.072,55.966l-36.685,19.976l0.669,223.224l23.329,9.149c16.72,6.557,34.52,9.923,52.48,9.923
	h105.381h34.218h35.136c17.904,0,32.419-14.514,32.419-32.419l0,0c0-17.904-14.514-32.419-32.419-32.419h25.201
	c17.904,0,32.419-14.514,32.419-32.419l0,0c0-17.904-14.514-32.419-32.419-32.419h23.428c17.904,0,32.419-14.514,32.419-32.419l0,0
	C453,463.001,438.486,448.487,420.581,448.487z"/>
<circle class="icon-color-2" visibility="hidden"  cx="60.17" cy="584.54" r="18.01"/>
<path class="icon-color-outline" fill="#303030" d="M121.41,468.89c-2.631,0-5.21,1.061-7.07,2.92c-1.86,1.87-2.93,4.45-2.93,7.07
	c0,2.64,1.069,5.21,2.93,7.07c1.86,1.869,4.439,2.93,7.07,2.93c2.63,0,5.21-1.061,7.069-2.93c1.86-1.86,2.931-4.431,2.931-7.07
	c0-2.62-1.07-5.2-2.931-7.07C126.62,469.95,124.04,468.89,121.41,468.89z"/>
<path class="icon-color-outline" fill="#303030" d="M463,480.906c0-20.195-14.191-37.128-33.122-41.38c4.482-6.724,7.101-14.792,7.101-23.461
	c0-23.39-19.029-42.419-42.419-42.419H283.28l14.557-43.217c5.875-17.441,4.471-36.058-3.952-52.421
	c-8.423-16.362-22.759-28.322-40.365-33.675L235.975,239c-5.099-1.551-10.503,1.163-12.313,6.165l-27.569,76.194
	c-7.825,21.625-23.256,39.59-43.451,50.586l-27.541,14.998c-5.924-8.056-15.462-13.296-26.205-13.296H-39c-5.522,0-10,4.478-10,10
	v259.352c0,5.522,4.478,10,10,10H98.896c11.963,0,22.43-6.499,28.076-16.147l14.115,5.536C159.045,649.43,177.93,653,197.217,653
	h174.735c23.39,0,42.419-19.029,42.419-42.419c0-8.739-2.658-16.867-7.205-23.624c18.572-4.513,32.406-21.274,32.406-41.214
	c0-8.911-2.768-17.185-7.481-24.019C449.903,516.694,463,500.306,463,480.906z M420.581,503.324h-23.428h-45.926h-33.501
	c-5.522,0-10,4.478-10,10c0,5.522,4.478,10,10,10h33.501h45.926c12.362,0,22.419,10.057,22.419,22.419
	c0,12.362-10.057,22.419-22.419,22.419h-25.201h-50.819h-3.406c-5.522,0-10,4.478-10,10c0,5.522,4.478,10,10,10h3.406h50.819
	c12.362,0,22.419,10.057,22.419,22.419c0,12.362-10.057,22.419-22.419,22.419H197.217c-16.778,0-33.206-3.106-48.828-9.232
	l-16.979-6.659V519c0-5.522-4.478-10-10-10s-10,4.478-10,10v101.484c0,6.9-5.613,12.514-12.514,12.514H-29V393.646H98.896
	c6.9,0,12.514,5.613,12.514,12.514v33.955c0,5.522,4.478,10,10,10s10-4.478,10-10V406.28l30.797-16.771
	c24.491-13.335,43.204-35.121,52.693-61.346l24.34-67.268l8.462,2.572c12.389,3.767,22.475,12.181,28.401,23.694
	c5.927,11.513,6.914,24.611,2.781,36.882l-19,56.409c-1.028,3.052-0.523,6.411,1.354,9.026c1.879,2.615,4.902,4.166,8.122,4.166
	h125.2c12.362,0,22.419,10.057,22.419,22.419s-10.057,22.419-22.419,22.419h-76.834c-5.522,0-10,4.478-10,10s4.478,10,10,10h33.443
	c0.02,0,0.039,0.003,0.058,0.003h69.354c12.362,0,22.419,10.057,22.419,22.419C443,493.268,432.943,503.324,420.581,503.324z"/>
<path class="icon-color-outline" fill="#303030" d="M60.173,556.53c-15.445,0-28.011,12.565-28.011,28.01c0,15.445,12.565,28.011,28.011,28.011
	s28.011-12.565,28.011-28.011C88.184,569.096,75.618,556.53,60.173,556.53z M60.173,592.551c-4.417,0-8.011-3.594-8.011-8.011
	s3.594-8.01,8.011-8.01s8.011,3.593,8.011,8.01C68.184,588.957,64.59,592.551,60.173,592.551z"/>
<path class="icon-color-outline" fill="#303030" d="M249.819,161c2.631,0,5.21-1.07,7.07-2.931c1.86-1.859,2.93-4.439,2.93-7.069s-1.069-5.21-2.93-7.07
	c-1.861-1.86-4.439-2.93-7.07-2.93c-2.63,0-5.21,1.069-7.069,2.93c-1.86,1.86-2.931,4.44-2.931,7.07s1.07,5.21,2.931,7.069
	C244.609,159.93,247.189,161,249.819,161z"/>
<path class="icon-color-outline" fill="#303030" d="M249.82,178.333c-5.522,0-10,4.478-10,10v24.334c0,5.522,4.478,10,10,10s10-4.478,10-10v-24.334
	C259.82,182.811,255.343,178.333,249.82,178.333z"/>
<path class="icon-color-outline" fill="#303030" d="M309.393,282.266c0,5.522,4.478,10,10,10h61.666c5.522,0,10-4.478,10-10c0-5.522-4.478-10-10-10
	h-61.666C313.87,272.266,309.393,276.743,309.393,282.266z"/>
<path class="icon-color-outline" fill="#303030" d="M118.554,292.239h61.667c5.522,0,10-4.478,10-10c0-5.522-4.478-10-10-10h-61.667
	c-5.522,0-10,4.478-10,10C108.554,287.761,113.031,292.239,118.554,292.239z"/>
<path class="icon-color-outline" fill="#303030" d="M186.207,232.776c1.953,1.952,4.512,2.929,7.071,2.929s5.118-0.977,7.071-2.929
	c3.905-3.905,3.905-10.237,0-14.143l-29.115-29.115c-3.906-3.904-10.236-3.904-14.143,0c-3.905,3.905-3.905,10.237,0,14.143
	L186.207,232.776z"/>
<path class="icon-color-outline" fill="#303030" d="M306.354,235.724c2.56,0,5.118-0.977,7.071-2.929l29.115-29.115c3.905-3.905,3.905-10.237,0-14.143
	c-3.906-3.904-10.236-3.904-14.143,0l-29.115,29.115c-3.905,3.905-3.905,10.237,0,14.143
	C301.235,234.747,303.794,235.724,306.354,235.724z"/>
</svg>
