<?xml version="1.0" encoding="iso-8859-1"?>
<!-- Generator: Adobe Illustrator 19.0.0, SVG Export Plug-In . SVG Version: 6.00 Build 0)  -->
<svg version="1.1" id="Layer_1" xmlns="http://www.w3.org/2000/svg" xmlns:xlink="http://www.w3.org/1999/xlink" x="0px" y="0px"
	 viewBox="-49 141 512 512" style="enable-background:new -49 141 512 512;" xml:space="preserve">
<polygon class="icon-color-1" visibility="hidden" points="442.176,397 274.723,269.652 287.851,358.928 91.291,358.928 91.291,437.697
	287.851,437.697 274.723,524.348 "/>
<path class="icon-color-2" visibility="hidden" d="M342.039,206.641H24.337v380.718h317.703v52.513H-2.282c-14.501,0-25.894-11.755-25.894-26.256
	V180.385c0-14.501,11.393-26.256,25.894-26.256h344.321V206.641z"/>
<path class="icon-color-outline" fill="#303030" d="M450.124,386.551L282.671,259.202c-4.248-3.231-10.027-3.568-14.622-0.856
	c-4.595,2.712-7.091,7.936-6.315,13.215l10.917,74.239H90.928c-7.249,0-12.766,5.878-12.766,13.128v78.769
	c0,7.251,5.516,13.128,12.766,13.128h181.656l-10.841,71.555c-0.801,5.285,1.683,10.53,6.281,13.257
	c2.073,1.23,4.389,1.838,6.698,1.838c2.812,0,5.611-0.902,7.949-2.679l167.453-127.348c3.264-2.483,5.18-6.348,5.18-10.449
	C455.304,392.899,453.388,389.034,450.124,386.551z M292.555,494.293l8.276-54.629c0.574-3.782-0.532-7.626-3.026-10.526
	c-2.493-2.9-6.128-4.569-9.954-4.569H104.419v-52.513h183.433c3.815,0,7.441-1.659,9.935-4.546
	c2.493-2.887,3.608-6.716,3.052-10.492l-8.447-57.435L420.488,397L292.555,494.293z"/>
<path class="icon-color-outline" fill="#303030" d="M341.677,574.231H37.465V219.769h304.212c7.249,0,13.491-5.877,13.491-13.128v-52.513
	c0-7.251-6.24-13.128-13.491-13.128H-2.282c-21.717,0-39.022,17.668-39.022,39.385v433.231c0,21.717,17.306,39.385,39.022,39.385
	h343.959c7.249,0,13.491-5.877,13.491-13.128v-52.513C355.168,580.108,348.928,574.231,341.677,574.231z M328.911,626.744H-2.282
	c-7.239,0-12.766-5.889-12.766-13.128V180.385c0-7.239,5.527-13.128,12.766-13.128h331.193v26.256H23.974
	c-7.249,0-12.766,5.878-12.766,13.128v380.718c0,7.251,5.516,13.128,12.766,13.128h304.937V626.744z"/>
</svg>
