<?xml version="1.0" encoding="iso-8859-1"?>
<!-- Generator: Adobe Illustrator 19.0.0, SVG Export Plug-In . SVG Version: 6.00 Build 0)  -->
<svg version="1.1" id="Capa_1" xmlns="http://www.w3.org/2000/svg" xmlns:xlink="http://www.w3.org/1999/xlink" x="0px" y="0px"
	 viewBox="-49 141 512 512" style="enable-background:new -49 141 512 512;" xml:space="preserve">
<path class="icon-color-1" visibility="hidden"  d="M237,325H21c-33.137,0-60,26.863-60,60v154c0,33.137,26.863,60,60,60h64.979l-0.901,0.078L129,643
	l0.031-44H237c33.137,0,60-26.863,60-60V385C297,351.863,270.137,325,237,325z"/>
<path class="icon-color-outline" fill="#303030" d="M129.002,653c-2.603,0-5.16-1.016-7.073-2.929L80.858,609H21c-38.598,0-70-31.402-70-70V385
	c0-38.598,31.402-70,70-70h101c5.522,0,10,4.477,10,10s-4.478,10-10,10H21c-27.57,0-50,22.43-50,50v154c0,27.57,22.43,50,50,50
	h64.979c4.09,0,7.626,2.461,9.171,6.008l23.868,23.867l0.014-19.882c0.004-5.52,4.479-9.993,10-9.993H237c27.57,0,50-22.43,50-50
	v-69c0-5.523,4.478-10,10-10s10,4.477,10,10v69c0,38.598-31.402,70-70,70h-97.976L139,643.007c-0.003,4.043-2.44,7.687-6.177,9.233
	C131.588,652.751,130.289,653,129.002,653z"/>
<path class="icon-color-2" visibility="hidden"  d="M317.655,151h-25.309C217.597,151,157,211.596,157,286.346l0,0
	c0,74.749,60.596,135.346,135.346,135.346h25.309c13.854,0,27.22-2.086,39.805-5.953L399,457.255v-62.733
	c32.794-24.699,54-63.96,54-108.177l0,0C453,211.596,392.404,151,317.655,151z"/>
<path class="icon-color-outline" fill="#303030" d="M399.002,467.255c-2.602,0-5.158-1.016-7.071-2.927l-37.387-37.366
	c-12,3.14-24.381,4.729-36.89,4.729h-25.309C212.202,431.691,147,366.49,147,286.346S212.202,141,292.346,141h25.309
	C397.798,141,463,206.202,463,286.346c0,23.216-5.313,45.405-15.794,65.951c-9.228,18.09-22.377,34.283-38.206,47.102v57.856
	c0,4.044-2.436,7.69-6.172,9.238C401.591,467.006,400.291,467.255,399.002,467.255z M357.459,405.738
	c2.612,0,5.166,1.025,7.07,2.927L389,433.123v-38.6c0-3.141,1.476-6.099,3.983-7.988C424.77,362.595,443,326.077,443,286.346
	C443,217.23,386.771,161,317.655,161h-25.309C223.23,161,167,217.23,167,286.346s56.229,125.346,125.346,125.346h25.309
	c12.561,0,24.965-1.854,36.868-5.512C355.489,405.883,356.479,405.738,357.459,405.738z"/>
<path class="icon-color-outline" fill="#303030" d="M307.8,327.774c-5.522,0-10-4.477-10-10v-24.025c0-8.957,6.13-16.585,14.908-18.549
	c10.834-2.424,18.141-12.266,17.373-23.403c-0.76-11.027-9.649-19.916-20.677-20.676c-6.29-0.434-12.268,1.679-16.842,5.948
	c-4.578,4.273-7.1,10.074-7.1,16.333c0,5.523-4.478,10-10,10s-10-4.477-10-10c0-11.691,4.903-22.973,13.453-30.954
	c8.669-8.093,19.995-12.096,31.863-11.281c20.936,1.443,37.812,18.319,39.255,39.254c1.435,20.821-12.084,39.259-32.234,44.127
	v23.226C317.8,323.297,313.323,327.774,307.8,327.774z"/>
<path class="icon-color-outline" fill="#303030" d="M307.8,367.33c-2.63,0-5.21-1.06-7.07-2.92c-1.859-1.86-2.93-4.44-2.93-7.08
	c0-2.63,1.07-5.21,2.93-7.07c1.86-1.86,4.44-2.93,7.07-2.93s5.21,1.07,7.07,2.93c1.859,1.86,2.93,4.44,2.93,7.07
	c0,2.64-1.07,5.21-2.93,7.08C313.01,366.27,310.43,367.33,307.8,367.33z"/>
<path class="icon-color-outline" fill="#303030" d="M226,471H15c-5.522,0-10-4.477-10-10s4.478-10,10-10h211c5.522,0,10,4.477,10,10S231.523,471,226,471
	z"/>
<path class="icon-color-outline" fill="#303030" d="M226,527c-2.63,0-5.21-1.07-7.07-2.93S216,519.63,216,517s1.069-5.21,2.93-7.07
	c1.86-1.86,4.44-2.93,7.07-2.93s5.21,1.07,7.069,2.93c1.86,1.86,2.931,4.44,2.931,7.07c0,2.64-1.07,5.21-2.931,7.07
	C231.21,525.93,228.63,527,226,527z"/>
<path class="icon-color-outline" fill="#303030" d="M186.667,527H15c-5.522,0-10-4.477-10-10s4.478-10,10-10h171.667c5.522,0,10,4.477,10,10
	S192.19,527,186.667,527z"/>
<path class="icon-color-outline" fill="#303030" d="M161,415H15c-5.522,0-10-4.477-10-10s4.478-10,10-10h146c5.522,0,10,4.477,10,10S166.523,415,161,415
	z"/>
</svg>
