<?xml version="1.0" encoding="iso-8859-1"?>
<svg version="1.1" id="Capa_1" xmlns="http://www.w3.org/2000/svg" xmlns:xlink="http://www.w3.org/1999/xlink" x="0px" y="0px"
	 viewBox="-49 141 512 512" style="enable-background:new -49 141 512 512;" xml:space="preserve">
<path class="icon-color-1" visibility="hidden" d="M263.999,642.99L263.999,642.99h-168l0,0c0-22.126,17.937-40.062,40.062-40.062h87.875
	C246.062,602.927,263.999,620.864,263.999,642.99z"/>
<rect x="140.98" y="537.94" class="icon-color-1" visibility="hidden" width="78.04" height="64.986"/>
<path class="icon-color-other" fill="#DFF3FF" visibility="hidden" d="M336.32,204.99h44.875c9.833,0,17.805,7.949,17.805,17.754v296.492
	c0,9.805-7.972,17.754-17.805,17.754h-402.39c-9.833,0-17.805-7.949-17.805-17.754V222.744c0-9.805,7.972-17.754,17.805-17.754
	h47.182H336.32z"/>
<rect x="-39" y="472.99" class="icon-color-1" visibility="hidden" width="438" height="64"/>
<path class="icon-color-3" visibility="hidden" d="M142.37,373.677H79.63c-35.694,0-64.63,28.936-64.63,64.63v34.683h192v-34.683
	C207,402.613,178.064,373.677,142.37,373.677z"/>
<polygon class="icon-color-other" fill="#FFCDAC" visibility="hidden" points="146.812,373.677 111,409.488 75.188,373.677 "/>
<path class="icon-color-other" fill="#FFCDAC" visibility="hidden" d="M100.918,261.087h52.322v25.966c0,13.468-10.918,24.386-24.386,24.386H68.76v-18.194
	C68.76,275.485,83.157,261.087,100.918,261.087z"/>
<path class="icon-color-other" fill="#FFCDAC" visibility="hidden" d="M153.24,311.438v19.998c0,23.328-18.912,42.24-42.24,42.24l0,0c-23.329,0-42.24-18.912-42.24-42.24
	v-19.998H153.24z"/>
<path class="icon-color-2" visibility="hidden" d="M413,151.01H269c-22.091,0-40,17.909-40,40v107c0,22.091,17.909,40,40,40h4.333v35.667L309,338.01
	h104c22.091,0,40-17.909,40-40v-107C453,168.919,435.091,151.01,413,151.01z"/>
<path class="icon-color-outline" fill="#303030" d="M180,494.98c-2.63,0-5.21,1.06-7.07,2.93c-1.86,1.86-2.93,4.43-2.93,7.07
	c0,2.63,1.069,5.21,2.93,7.07c1.86,1.86,4.44,2.93,7.07,2.93s5.21-1.07,7.069-2.93c1.86-1.86,2.931-4.44,2.931-7.07
	s-1.07-5.21-2.931-7.07C185.21,496.04,182.63,494.98,180,494.98z"/>
<path class="icon-color-outline" fill="#303030" d="M399,409.01c-5.522,0-10,4.477-10,10v43.979H217v-24.683c0-38.026-28.594-69.478-65.405-74.04
	c7.275-8.978,11.646-20.401,11.646-32.831v-70.35c0-5.523-4.478-10-10-10h-52.322c-23.246,0-42.158,18.912-42.158,42.158v38.192
	c0,12.429,4.37,23.852,11.646,32.831C33.594,368.829,5,400.281,5,438.307v24.683h-34V222.744c0-4.276,3.501-7.754,7.805-7.754
	h207.862c5.522,0,10-4.477,10-10s-4.478-10-10-10H-21.195C-36.526,194.99-49,207.44-49,222.744v296.492
	c0,15.304,12.474,27.754,27.805,27.754H130.98v46.194C105.753,595.739,86,617.101,86,642.99c0,5.523,4.478,10,10,10h168
	c5.522,0,10-4.477,10-10c0-25.888-19.753-47.25-44.979-49.806V546.99h152.175c15.331,0,27.805-12.45,27.805-27.754V419.01
	C409,413.488,404.522,409.01,399,409.01z M143.24,331.437c0,17.777-14.463,32.24-32.24,32.24s-32.24-14.463-32.24-32.24v-9.999
	h50.095c5.135,0,10.006-1.139,14.386-3.166L143.24,331.437L143.24,331.437z M122.669,383.677L111,395.346l-11.669-11.669H122.669
	L122.669,383.677z M78.76,293.245c0-12.218,9.94-22.158,22.158-22.158h42.322v15.966c0,7.932-6.453,14.385-14.386,14.385H78.76
	V293.245z M25,438.307c0-27.407,20.29-50.159,46.636-54.04l32.292,32.292c1.953,1.953,4.512,2.929,7.071,2.929
	s5.118-0.976,7.071-2.929l32.292-32.292C176.71,388.148,197,410.9,197,438.307v24.683H25V438.307z M252.289,632.99h-144.58
	c4.13-11.676,15.279-20.063,28.353-20.063h4.918h78.041h4.916C237.01,612.927,248.159,621.313,252.289,632.99z M209.021,592.927
	H150.98V546.99h58.041V592.927z M381.195,526.99h-402.39c-4.304,0-7.805-3.479-7.805-7.754V482.99h418v36.246
	C389,523.511,385.499,526.99,381.195,526.99z"/>
<path class="icon-color-outline" fill="#303030" d="M399,371.34c-2.63,0-5.21,1.07-7.07,2.93c-1.86,1.87-2.93,4.44-2.93,7.07
	c0,2.64,1.069,5.21,2.93,7.07c1.86,1.87,4.44,2.93,7.07,2.93s5.21-1.06,7.069-2.93c1.86-1.86,2.931-4.43,2.931-7.07
	c0-2.63-1.07-5.21-2.931-7.07C404.21,372.41,401.63,371.34,399,371.34z"/>
<path class="icon-color-outline" fill="#303030" d="M399,188.01h-75c-5.522,0-10,4.477-10,10s4.478,10,10,10h75c5.522,0,10-4.477,10-10
	S404.522,188.01,399,188.01z"/>
<path class="icon-color-outline" fill="#303030" d="M283,208.01c2.63,0,5.21-1.07,7.069-2.93c1.86-1.86,2.931-4.44,2.931-7.07
	c0-2.63-1.07-5.21-2.931-7.07c-1.859-1.86-4.439-2.93-7.069-2.93s-5.21,1.07-7.07,2.93c-1.86,1.86-2.93,4.44-2.93,7.07
	c0,2.63,1.069,5.21,2.93,7.07S280.37,208.01,283,208.01z"/>
<path class="icon-color-outline" fill="#303030" d="M399,232.01H283c-5.522,0-10,4.477-10,10c0,5.523,4.478,10,10,10h116c5.522,0,10-4.477,10-10
	C409,236.487,404.522,232.01,399,232.01z"/>
<path class="icon-color-outline" fill="#303030" d="M399,276.01H283c-5.522,0-10,4.477-10,10c0,5.523,4.478,10,10,10h116c5.522,0,10-4.477,10-10
	C409,280.487,404.522,276.01,399,276.01z"/>
<path class="icon-color-outline" fill="#303030" d="M413,141.01H269c-27.57,0-50,22.43-50,50v107c0,25.655,19.42,46.859,44.333,49.681v25.985
	c0,4.044,2.437,7.691,6.173,9.239c1.237,0.513,2.537,0.762,3.825,0.762c2.603,0,5.16-1.017,7.073-2.929l32.737-32.738H413
	c27.57,0,50-22.43,50-50v-107C463,163.44,440.57,141.01,413,141.01z M443,298.01c0,16.542-13.458,30-30,30H309
	c-2.652,0-5.195,1.054-7.071,2.929l-18.596,18.596V338.01c0-5.523-4.478-10-10-10H269c-16.542,0-30-13.458-30-30v-107
	c0-16.542,13.458-30,30-30h144c16.542,0,30,13.458,30,30V298.01z"/>
</svg>
