<?xml version="1.0" encoding="iso-8859-1"?>
<!-- Generator: Adobe Illustrator 19.0.0, SVG Export Plug-In . SVG Version: 6.00 Build 0)  -->
<svg version="1.1" id="Capa_1" xmlns="http://www.w3.org/2000/svg" xmlns:xlink="http://www.w3.org/1999/xlink" x="0px" y="0px"
	 viewBox="-49 141 512 512" style="enable-background:new -49 141 512 512;" xml:space="preserve">
<path class="icon-color-other" fill="#D7D7E6" visibility="hidden" d="M357,301v294c0,26.51,21.49,48,48,48l0,0c26.51,0,48-21.49,48-48V301H357z"/>
<path class="icon-color-other" fill="#FFFFFF" visibility="hidden" d="M405,643H9c-26.51,0-48-21.49-48-48V151h396v444C357,621.51,378.49,643,405,643L405,643"/>
<rect x="15" y="205" class="icon-color-2" visibility="hidden"  width="147.08" height="128"/>
<rect x="149.89" y="461.01" class="icon-color-1" visibility="hidden"  width="147.08" height="128"/>
<path class="icon-color-outline" fill="#303030" d="M453,291h-64.914c-5.523,0-10,4.478-10,10s4.477,10,10,10H443v284c0,20.953-17.047,38-38,38
	s-38-17.047-38-38v-28h32c5.523,0,10-4.478,10-10s-4.477-10-10-10h-32v-44h32c5.523,0,10-4.478,10-10s-4.477-10-10-10h-32v-44h32
	c5.523,0,10-4.478,10-10s-4.477-10-10-10h-32v-44h32c5.523,0,10-4.478,10-10s-4.477-10-10-10h-32V151c0-5.522-4.477-10-10-10H207
	c-5.523,0-10,4.478-10,10s4.477,10,10,10h140v434c0,14.527,5.381,27.813,14.238,38H9c-20.953,0-38-17.047-38-38V161h129.336
	c5.523,0,10-4.478,10-10s-4.477-10-10-10H-39c-5.523,0-10,4.478-10,10v444c0,31.981,26.019,58,58,58h396c31.981,0,58-26.019,58-58
	V301C463,295.478,458.523,291,453,291z"/>
<path class="icon-color-outline" fill="#303030" d="M15,195c-5.523,0-10,4.478-10,10v128c0,5.522,4.477,10,10,10h147.081c5.523,0,10-4.478,10-10V205
	c0-5.522-4.477-10-10-10H15z M152.081,323H25V215h127.081V323z"/>
<path class="icon-color-outline" fill="#303030" d="M296.975,451.013H149.894c-5.523,0-10,4.478-10,10v128c0,5.522,4.477,10,10,10h147.081
	c5.523,0,10-4.478,10-10v-128C306.975,455.49,302.498,451.013,296.975,451.013z M286.975,579.013H159.894v-108h127.081V579.013z"/>
<path class="icon-color-outline" fill="#303030" d="M97.333,579H15c-5.523,0-10,4.478-10,10s4.477,10,10,10h82.333c5.523,0,10-4.478,10-10
	S102.856,579,97.333,579z"/>
<path class="icon-color-outline" fill="#303030" d="M97.333,515H15c-5.523,0-10,4.478-10,10s4.477,10,10,10h82.333c5.523,0,10-4.478,10-10
	S102.856,515,97.333,515z"/>
<path class="icon-color-outline" fill="#303030" d="M97.333,451H15c-5.523,0-10,4.478-10,10s4.477,10,10,10h82.333c5.523,0,10-4.478,10-10
	S102.856,451,97.333,451z"/>
<path class="icon-color-outline" fill="#303030" d="M5,397c0,5.522,4.477,10,10,10h241.533c5.523,0,10-4.478,10-10s-4.477-10-10-10H15
	C9.477,387,5,391.478,5,397z"/>
<path class="icon-color-outline" fill="#303030" d="M216.078,343h80.91c5.523,0,10-4.478,10-10s-4.477-10-10-10h-80.91c-5.523,0-10,4.478-10,10
	S210.555,343,216.078,343z"/>
<path class="icon-color-outline" fill="#303030" d="M216.078,279h80.91c5.523,0,10-4.478,10-10s-4.477-10-10-10h-80.91c-5.523,0-10,4.478-10,10
	S210.555,279,216.078,279z"/>
<path class="icon-color-outline" fill="#303030" d="M216.078,215h80.91c5.523,0,10-4.478,10-10s-4.477-10-10-10h-80.91c-5.523,0-10,4.478-10,10
	S210.555,215,216.078,215z"/>
<path class="icon-color-outline" fill="#303030" d="M304.06,389.93c-1.86-1.86-4.44-2.93-7.07-2.93s-5.21,1.069-7.07,2.93s-2.93,4.44-2.93,7.07
	s1.07,5.21,2.93,7.069c1.86,1.86,4.44,2.931,7.07,2.931s5.21-1.07,7.07-2.931c1.86-1.859,2.93-4.439,2.93-7.069
	S305.92,391.79,304.06,389.93z"/>
<path class="icon-color-outline" fill="#303030" d="M157,161c2.63,0,5.21-1.07,7.07-2.931c1.86-1.859,2.93-4.439,2.93-7.069s-1.07-5.21-2.93-7.07
	c-1.86-1.86-4.44-2.93-7.07-2.93s-5.21,1.069-7.07,2.93c-1.86,1.86-2.93,4.44-2.93,7.07s1.07,5.21,2.93,7.069
	C151.79,159.93,154.37,161,157,161z"/>
</svg>
