<?xml version="1.0" encoding="iso-8859-1"?>
<!-- Generator: Adobe Illustrator 19.0.0, SVG Export Plug-In . SVG Version: 6.00 Build 0)  -->
<svg version="1.1" id="Layer_1" xmlns="http://www.w3.org/2000/svg" xmlns:xlink="http://www.w3.org/1999/xlink" x="0px" y="0px"
	 viewBox="0 0 612 792" style="enable-background:new 0 0 612 792;" xml:space="preserve">
<path class="icon-color-2" visibility="hidden"  d="M305.801,433.628l69.469,49.843l123.332-123.332L305.801,221.807L113,360.139l123.332,123.332
	L305.801,433.628z M305.801,433.628"/>
<path class="icon-color-1" visibility="hidden"  d="M113,360.139V571.96l123.332-88.489L113,360.139z M113,360.139"/>
<path class="icon-color-1" visibility="hidden"  d="M375.27,483.471l123.332,88.489V360.139L375.27,483.471z M375.27,483.471"/>
<path class="icon-color-1" visibility="hidden"  d="M305.801,433.628L113,571.96h385.602L305.801,433.628z M305.801,433.628"/>
<path class="icon-color-outline" fill="#303030" d="M506.516,573.1c0.058-0.398,0.089-0.805,0.086-1.207V360.139c0-2.547-1.278-5.07-3.379-6.527
	L310.465,215.307c-2.789-2-6.539-2-9.328,0L108.375,353.612c-2.098,1.457-3.375,3.984-3.375,6.527v211.754
	c-0.043,4.36,3.625,8.067,8,8.067h385.602C502.52,579.96,505.961,576.963,506.516,573.1L506.516,573.1z M121,556.374V379.452
	l103.012,103.011L121,556.374z M473.727,563.96H137.875l167.926-120.485L473.727,563.96z M387.59,482.463l103.012-103.011v176.922
	L387.59,482.463z M305.801,231.655l180.48,129.492L374.414,473.01l-63.949-45.882c-2.774-1.989-6.59-1.961-9.328,0l-63.949,45.882
	L132.316,368.139h169.161c4.418,0,8-3.582,8-8s-3.582-8-8-8H137.875L305.801,231.655z M305.801,231.655"/>
<path class="icon-color-outline" fill="#303030" d="M215.98,524.827l-9.945,7.136c-8.57,6.145,1.184,18.84,9.324,13l9.95-7.136
	c3.589-2.578,4.414-7.574,1.836-11.164C224.57,523.073,219.574,522.249,215.98,524.827L215.98,524.827z M215.98,524.827"/>
<path class="icon-color-outline" fill="#303030" d="M311.438,466.182c-2.579-3.59-7.575-4.41-11.165-1.836l-57.062,40.942
	c-8.57,6.148,1.184,18.843,9.328,13l57.059-40.942C313.191,474.772,314.012,469.772,311.438,466.182
	C308.859,462.592,314.012,469.772,311.438,466.182L311.438,466.182z M311.438,466.182"/>
<path class="icon-color-outline" fill="#303030" d="M339.52,368.139h19.019c4.418,0,8-3.582,8-8s-3.582-8-8-8H339.52c-4.418,0-8,3.582-8,8
	S335.102,368.139,339.52,368.139L339.52,368.139z M339.52,368.139"/>
</svg>
