<?xml version="1.0" encoding="iso-8859-1"?>
<!-- Generator: Adobe Illustrator 19.0.0, SVG Export Plug-In . SVG Version: 6.00 Build 0)  -->
<svg version="1.1" id="Capa_1" xmlns="http://www.w3.org/2000/svg" xmlns:xlink="http://www.w3.org/1999/xlink" x="0px" y="0px"
	 viewBox="-49 141 512 512" style="enable-background:new -49 141 512 512;" xml:space="preserve">
<path class="icon-color-2" visibility="hidden"  d="M152.849,589c0,29.823,24.177,54,54,54s54-24.177,54-54H152.849z"/>
<path class="icon-color-1" visibility="hidden"  d="M366.849,480.558V365c0-88.365-71.634-160-160-160l0,0c-88.365,0-160,71.634-160,160v115.558
	c0,17.467-7.395,34.091-20.287,45.876c-7.198,6.58-11.713,16.046-11.713,26.568l0,0c0,19.881,16.117,35.998,35.998,35.998H362.85
	c19.881,0,35.998-16.117,35.998-35.998l0,0c0-10.522-4.515-19.988-11.713-26.568C374.243,514.648,366.849,498.025,366.849,480.558z"
	/>
<circle class="icon-color-2" visibility="hidden"  cx="335.15" cy="269" r="64"/>
<path class="icon-color-outline" fill="#303030" d="M393.882,519.053c-10.825-9.896-17.034-23.927-17.034-38.495V381c0-5.522-4.477-10-10-10
	s-10,4.478-10,10v99.558c0,20.17,8.58,39.581,23.54,53.257c5.377,4.915,8.46,11.908,8.46,19.188
	c0,14.335-11.663,25.998-25.998,25.998H50.847c-14.335,0-25.998-11.663-25.998-25.998c0-7.279,3.083-14.272,8.46-19.188
	c14.96-13.676,23.54-33.087,23.54-53.257V365c0-82.71,67.29-150,150-150c22.748,0,45.154,5.173,65.446,15.012
	c-7.053,11.33-11.143,24.688-11.143,38.988c0,40.804,33.196,74,74,74s74-33.196,74-74s-33.196-74-74-74
	c-19.123,0-36.576,7.292-49.723,19.241c-14.906-7.775-30.897-13.273-47.41-16.344c3.684-5.75,5.83-12.576,5.83-19.897
	c0-20.401-16.598-36.999-37-36.999s-37,16.598-37,36.999c0,7.313,2.141,14.131,5.817,19.878
	C96.77,212.563,36.849,281.911,36.849,365v115.558c0,14.568-6.208,28.599-17.034,38.495c-9.511,8.694-14.966,21.068-14.966,33.949
	C4.849,578.365,25.484,599,50.847,599h92.788c4.816,30.556,31.326,54,63.214,54s58.398-23.444,63.214-54h92.788
	c25.363,0,45.998-20.635,45.998-45.998C408.849,540.121,403.394,527.747,393.882,519.053z M389.151,269c0,29.775-24.224,54-54,54
	s-54-24.225-54-54s24.224-54,54-54S389.151,239.225,389.151,269z M206.849,161c9.374,0,17,7.626,17,16.999c0,9.374-7.626,17-17,17
	s-17-7.626-17-17C189.849,168.626,197.475,161,206.849,161z M206.849,633c-20.821,0-38.298-14.542-42.84-34h85.68
	C245.147,618.458,227.67,633,206.849,633z"/>
<path class="icon-color-outline" fill="#303030" d="M94.849,354.792c-5.523,0-10,4.478-10,10V365c0,5.522,4.477,10,10,10s10-4.478,10-10v-0.208
	C104.849,359.27,100.372,354.792,94.849,354.792z"/>
<path class="icon-color-outline" fill="#303030" d="M112.913,325.177C128.947,287.406,165.819,263,206.849,263c5.523,0,10-4.478,10-10s-4.477-10-10-10
	c-49.071,0-93.17,29.188-112.346,74.362c-2.158,5.083,0.214,10.954,5.297,13.112c1.275,0.541,2.6,0.798,3.903,0.798
	C107.595,331.272,111.296,328.985,112.913,325.177z"/>
<path class="icon-color-outline" fill="#303030" d="M324.849,267.221v18.112c0,5.522,4.477,10,10,10s10-4.478,10-10v-39.5
	c0-4.045-2.437-7.691-6.173-9.239c-3.735-1.544-8.037-0.692-10.898,2.168l-11.5,11.5c-3.905,3.905-3.905,10.237,0,14.143
	C318.612,266.738,321.815,267.68,324.849,267.221z"/>
</svg>
