<?xml version="1.0" encoding="iso-8859-1"?>
<!-- Generator: Adobe Illustrator 19.0.0, SVG Export Plug-In . SVG Version: 6.00 Build 0)  -->
<svg version="1.1" id="Capa_1" xmlns="http://www.w3.org/2000/svg" xmlns:xlink="http://www.w3.org/1999/xlink" x="0px" y="0px"
	 viewBox="-49 141 512 512" style="enable-background:new -49 141 512 512;" xml:space="preserve">
<circle class="icon-color-2" visibility="hidden"  cx="329.441" cy="275.455" r="41.342"/>
<path class="icon-color-1" visibility="hidden"  d="M410.113,193.876c-56.798-56.798-148.908-56.798-205.716,0
	c-44.679,44.689-54.21,111.215-28.596,165.219L-38.65,573.546l3.229,65.885l65.874,3.219l22.593-22.583v-58.806h58.806
	l25.325-25.325v-58.806h58.806l48.932-48.932c54.003,25.605,120.519,16.083,165.208-28.596
	C466.921,342.795,466.921,250.685,410.113,193.876z M356.275,301.428c-14.831,14.82-38.873,14.82-53.703,0
	c-14.82-14.831-14.82-38.873,0-53.703c14.831-14.831,38.873-14.831,53.703,0C371.106,262.555,371.106,286.597,356.275,301.428z"/>
<path class="icon-color-outline" fill="#303030" d="M289.708,398.64c5.817,0.998,11.655,1.486,17.463,1.486c27.211,0,53.669-10.746,73.201-30.276
	c4.041-4.041,4.041-10.595,0-14.637c-4.043-4.04-10.594-4.04-14.637,0c-18.955,18.954-46.073,27.564-72.527,23.025
	c-5.637-0.961-10.984,2.818-11.951,8.451C280.29,392.323,284.073,397.675,289.708,398.64z"/>
<path class="icon-color-outline" fill="#303030" d="M-48.987,574.052l3.229,65.885c0.26,5.319,4.513,9.571,9.832,9.831l65.874,3.219
	c0.17,0.008,0.337,0.012,0.506,0.012c2.737,0,5.37-1.086,7.316-3.03l22.593-22.583c1.942-1.941,3.033-4.573,3.033-7.319v-48.456
	h48.456c2.745,0,5.378-1.091,7.318-3.031l25.324-25.325c1.941-1.942,3.031-4.573,3.031-7.318V487.48h48.456
	c2.745,0,5.378-1.091,7.318-3.031l43.903-43.903c57.945,24.184,125.502,11.103,170.236-33.622c0-0.001,0.001-0.001,0.002-0.002
	c60.744-60.757,60.739-159.611-0.011-220.363c-60.745-60.744-159.596-60.745-220.354,0.001
	c-44.736,44.745-57.815,112.309-33.624,170.246l-209.42,209.422C-48.033,568.294-49.129,571.136-48.987,574.052z M183.12,366.413
	c3.094-3.095,3.908-7.8,2.033-11.753c-24.417-51.478-13.742-113.151,26.562-153.464c52.685-52.675,138.403-52.678,191.081-0.001
	c52.682,52.681,52.686,138.404,0.011,191.089c-40.305,40.299-101.974,50.973-153.457,26.563c-3.956-1.873-8.658-1.06-11.752,2.034
	l-45.901,45.901h-54.519c-5.716,0-10.349,4.634-10.349,10.349v54.519l-19.262,19.262h-54.52c-5.716,0-10.349,4.634-10.349,10.349
	v54.518l-16.318,16.311l-51.922-2.538l-2.545-51.93L183.12,366.413z"/>
<path class="icon-color-outline" fill="#303030" d="M329.424,322.869c12.374,0,24.748-4.707,34.168-14.121c0.001-0.001,0.002-0.001,0.003-0.002
	c9.127-9.127,14.155-21.263,14.155-34.171s-5.027-25.042-14.155-34.17s-21.263-14.155-34.17-14.155
	c-12.908,0-25.043,5.027-34.173,14.157c-18.828,18.84-18.828,49.494,0.005,68.34C304.677,318.162,317.051,322.869,329.424,322.869z
	 M309.891,255.044c5.218-5.218,12.154-8.092,19.534-8.092c7.378,0,14.314,2.874,19.533,8.092c5.218,5.217,8.092,12.154,8.092,19.533
	s-2.874,14.315-8.092,19.534c-10.772,10.763-28.298,10.76-39.064,0.003C299.128,283.34,299.128,265.812,309.891,255.044z"/>
<path class="icon-color-outline" fill="#303030" d="M392.182,349.816c13.319,0,13.34-20.699,0-20.699C378.863,329.117,378.84,349.816,392.182,349.816z"
	/>
</svg>
