<?xml version="1.0" encoding="iso-8859-1"?>
<!-- Generator: Adobe Illustrator 19.0.0, SVG Export Plug-In . SVG Version: 6.00 Build 0)  -->
<svg version="1.1" id="Capa_1" xmlns="http://www.w3.org/2000/svg" xmlns:xlink="http://www.w3.org/1999/xlink" x="0px" y="0px"
	 viewBox="-49 141 512 512" style="enable-background:new -49 141 512 512;" xml:space="preserve">
<path class="icon-color-other" fill="#ECECEC" visibility="hidden" d="M-39,333v270c0,22,18,40,40,40h412c22,0,40-18,40-40V333H-39z"/>
<path class="icon-color-1" visibility="hidden" d="M453,222c0-22-18-40-40-40H1c-22,0-40,18-40,40v71h492V222z"/>
<rect x="-39" y="293" class="icon-color-2" visibility="hidden" width="492" height="40"/>
<path class="icon-color-outline" fill="#303030" d="M413,172h-44v-20.75c0-5.51-4.49-10-10-10s-10,4.49-10,10V172h-81.5v-21c0-5.51-4.49-10-10-10
	s-10,4.49-10,10v21h-81v-21c0-5.51-4.49-10-10-10s-10,4.49-10,10v21H65.09v-20.75c0-5.51-4.49-10-10-10c-5.52,0-10,4.49-10,10V172H1
	c-27.57,0-50,22.43-50,50v381c0,27.57,22.43,50,50,50h412c27.57,0,50-22.43,50-50V222C463,194.43,440.57,172,413,172z M-29,303h472
	v20H-29V303z M-29,222c0-16.542,13.458-30,30-30h44.09v19.25c0,5.51,4.48,10,10,10c5.51,0,10-4.49,10-10V192h81.41v19
	c0,5.51,4.49,10,10,10s10-4.49,10-10v-19h81v19c0,5.51,4.49,10,10,10s10-4.49,10-10v-19H349v19.25c0,5.51,4.49,10,10,10
	s10-4.49,10-10V192h44c16.542,0,30,13.458,30,30v61H-29V222z M443,603c0,16.542-13.458,30-30,30H1c-16.542,0-30-13.458-30-30V343
	h472V603z"/>
<path class="icon-color-outline" fill="#303030" d="M359,241.25c-5.51,0-10,4.49-10,10s4.49,10,10,10s10-4.49,10-10S364.51,241.25,359,241.25z"/>
<path class="icon-color-outline" fill="#303030" d="M257.5,241c-5.51,0-10,4.49-10,10s4.49,10,10,10s10-4.49,10-10S263.01,241,257.5,241z"/>
<path class="icon-color-outline" fill="#303030" d="M156.5,241c-5.51,0-10,4.49-10,10s4.49,10,10,10s10-4.49,10-10S162.01,241,156.5,241z"/>
<path class="icon-color-outline" fill="#303030" d="M55.09,241.25c-5.52,0-10,4.49-10,10s4.48,10,10,10c5.51,0,10-4.49,10-10S60.6,241.25,55.09,241.25z"
	/>
<path class="icon-color-outline" fill="#303030" d="M7.5,414h30c5.523,0,10-4.477,10-10s-4.477-10-10-10h-30c-5.523,0-10,4.477-10,10S1.977,414,7.5,414z
	"/>
<path class="icon-color-outline" fill="#303030" d="M37.5,562h-30c-5.523,0-10,4.477-10,10s4.477,10,10,10h30c5.523,0,10-4.477,10-10
	S43.023,562,37.5,562z"/>
<path class="icon-color-outline" fill="#303030" d="M99.5,414h30c5.523,0,10-4.477,10-10s-4.477-10-10-10h-30c-5.523,0-10,4.477-10,10
	S93.977,414,99.5,414z"/>
<path class="icon-color-outline" fill="#303030" d="M129.5,562h-30c-5.523,0-10,4.477-10,10s4.477,10,10,10h30c5.523,0,10-4.477,10-10
	S135.023,562,129.5,562z"/>
<path class="icon-color-outline" fill="#303030" d="M221.5,562h-30c-5.523,0-10,4.477-10,10s4.477,10,10,10h30c5.522,0,10-4.477,10-10
	S227.022,562,221.5,562z"/>
<path class="icon-color-outline" fill="#303030" d="M314.5,562h-30c-5.522,0-10,4.477-10,10s4.478,10,10,10h30c5.522,0,10-4.477,10-10
	S320.022,562,314.5,562z"/>
<path class="icon-color-outline" fill="#303030" d="M406.5,478h-30c-5.522,0-10,4.477-10,10s4.478,10,10,10h30c5.522,0,10-4.477,10-10
	S412.022,478,406.5,478z"/>
<path class="icon-color-outline" fill="#303030" d="M406.5,562h-30c-5.522,0-10,4.477-10,10s4.478,10,10,10h30c5.522,0,10-4.477,10-10
	S412.022,562,406.5,562z"/>
<path class="icon-color-3" visibility="hidden" d="M364.429,431.072c3.748,3.748,10.296,3.846,14.143,0l12.929-12.929c0,0,12.915,12.915,12.929,12.929
	c3.769,3.769,10.264,3.877,14.143,0c3.905-3.905,3.905-10.237,0-14.143L405.643,404l12.929-12.929
	c3.905-3.905,3.905-10.237,0-14.143c-3.906-3.905-10.236-3.905-14.143,0l-12.929,12.93l-12.929-12.929
	c-3.906-3.905-10.236-3.905-14.143,0c-3.905,3.905-3.905,10.237,0,14.143L377.357,404l-12.929,12.929
	C360.524,420.834,360.523,427.166,364.429,431.072z"/>
<path class="icon-color-3" visibility="hidden" d="M272.429,431.072c3.744,3.744,10.3,3.842,14.143,0l12.929-12.929c0,0,12.911,12.911,12.929,12.929
	c3.757,3.757,10.283,3.859,14.143,0c3.905-3.905,3.905-10.237,0-14.143L313.643,404l12.929-12.929
	c3.905-3.905,3.905-10.237,0-14.143c-3.906-3.905-10.236-3.905-14.143,0l-12.929,12.93l-12.929-12.929
	c-3.906-3.905-10.236-3.905-14.143,0c-3.905,3.905-3.905,10.237,0,14.143L285.357,404l-12.929,12.929
	C268.524,420.834,268.523,427.166,272.429,431.072z"/>
<path class="icon-color-3" visibility="hidden" d="M179.429,431.072c3.857,3.857,10.293,3.849,14.143,0l12.929-12.929c0,0,12.927,12.927,12.929,12.929
	c3.78,3.78,10.257,3.884,14.143,0c3.905-3.905,3.905-10.237,0-14.143L220.643,404l12.929-12.929c3.905-3.905,3.905-10.237,0-14.143
	c-3.906-3.905-10.236-3.905-14.143,0l-12.929,12.93l-12.929-12.929c-3.905-3.905-10.237-3.905-14.143,0
	c-3.906,3.905-3.905,10.237,0,14.143L192.357,404l-12.929,12.929C175.523,420.834,175.523,427.167,179.429,431.072z"/>
<path class="icon-color-3" visibility="hidden" d="M234.571,460.929c-3.906-3.905-10.236-3.905-14.143,0L207.5,473.858l-12.929-12.929
	c-3.905-3.905-10.237-3.905-14.143,0s-3.905,10.237,0,14.143L193.357,488l-12.929,12.929c-3.905,3.905-3.905,10.237,0,14.142
	c3.77,3.77,10.268,3.875,14.143,0l12.929-12.929c0,0,12.923,12.923,12.929,12.929c3.782,3.782,10.246,3.896,14.143,0
	c3.905-3.905,3.905-10.237,0-14.143L221.643,488l12.929-12.929C238.477,471.167,238.477,464.834,234.571,460.929z"/>
<path class="icon-color-3" visibility="hidden" d="M272.429,515.072c3.77,3.77,10.263,3.879,14.143,0l12.929-12.929c0,0,12.911,12.911,12.929,12.929
	c3.755,3.755,10.285,3.857,14.143,0c3.905-3.905,3.905-10.237,0-14.143L313.643,488l12.929-12.929
	c3.905-3.905,3.905-10.237,0-14.143c-3.906-3.905-10.236-3.905-14.143,0l-12.929,12.93l-12.929-12.929
	c-3.906-3.905-10.236-3.905-14.143,0c-3.905,3.905-3.905,10.237,0,14.143L285.357,488l-12.929,12.929
	C268.523,504.834,268.523,511.166,272.429,515.072z"/>
<path class="icon-color-3" visibility="hidden" d="M88.429,515.072c3.756,3.756,10.285,3.857,14.143,0l12.929-12.929c0,0,12.914,12.914,12.929,12.929
	c3.754,3.754,10.285,3.858,14.143,0c3.905-3.905,3.905-10.237,0-14.143L129.643,488l12.929-12.929
	c3.905-3.905,3.905-10.237,0-14.143s-10.237-3.905-14.143,0l-12.929,12.93l-12.929-12.929c-3.905-3.905-10.237-3.905-14.143,0
	s-3.905,10.237,0,14.143L101.357,488l-12.929,12.929C84.524,504.834,84.523,511.166,88.429,515.072z"/>
<path class="icon-color-3" visibility="hidden" d="M-4.571,515.072c3.754,3.754,10.288,3.855,14.143,0L22.5,502.143c0,0,12.907,12.907,12.929,12.929
	c3.753,3.753,10.29,3.853,14.143,0c3.905-3.905,3.905-10.237,0-14.143L36.643,488l12.929-12.929c3.905-3.905,3.905-10.237,0-14.143
	s-10.237-3.905-14.143,0L22.5,473.858L9.571,460.929c-3.905-3.905-10.237-3.905-14.143,0s-3.905,10.237,0,14.143L8.357,488
	l-12.929,12.929C-8.476,504.834-8.477,511.166-4.571,515.072z"/>
</svg>
