<?xml version="1.0" encoding="iso-8859-1"?>
<!-- Generator: Adobe Illustrator 19.0.0, SVG Export Plug-In . SVG Version: 6.00 Build 0)  -->
<svg version="1.1" id="Capa_1" xmlns="http://www.w3.org/2000/svg" xmlns:xlink="http://www.w3.org/1999/xlink" x="0px" y="0px"
	 viewBox="-49 141 512 512" style="enable-background:new -49 141 512 512;" xml:space="preserve">
<path class="icon-color-1" visibility="hidden"  d="M372,584.083L372,584.083c-14.912,0-27-12.088-27-27v-330c0-14.912,12.088-27,27-27l0,0
	c14.912,0,27,12.088,27,27v330C399,571.995,386.912,584.083,372,584.083z"/>
<path class="icon-color-2" visibility="hidden"  d="M399,338.083c29.823,0,54,24.177,54,54s-24.177,54-54,54V338.083z"/>
<path class="icon-color-1" visibility="hidden"  d="M73,472.083H10c-27.062,0-49-21.938-49-49v-62c0-27.062,21.938-49,49-49h63V472.083z"/>
<path class="icon-color-2" visibility="hidden"  d="M345,557.083v-330c0-8.129,3.597-15.413,9.281-20.363L73,312.083v160l281.281,105.363
	C348.597,572.496,345,565.212,345,557.083z"/>
<polygon class="icon-color-3" visibility="hidden"  points="61.5,593.917 119.5,593.917 73,472.083 15,472.083 "/>
<path class="icon-color-outline" fill="#303030" d="M345,403.583c5.523,0,10-4.478,10-10v-1.5c0-5.522-4.477-10-10-10s-10,4.478-10,10v1.5
	C335,399.106,339.477,403.583,345,403.583z"/>
<path class="icon-color-outline" fill="#303030" d="M463,392.083c0-31.888-23.444-58.398-54-63.213V227.083c0-20.402-16.598-37-37-37
	c-8.564,0-16.452,2.933-22.729,7.836l-107.006,40.082c-5.172,1.937-7.794,7.7-5.857,12.872c1.504,4.017,5.316,6.495,9.366,6.495
	c1.166,0,2.351-0.205,3.506-0.639l85.813-32.144c-0.055,0.826-0.094,1.657-0.094,2.497v116c0,5.522,4.477,10,10,10s10-4.478,10-10
	v-116c0-9.374,7.626-17,17-17s17,7.626,17,17v330c0,9.374-7.626,17-17,17s-17-7.626-17-17v-121c0-5.522-4.477-10-10-10
	s-10,4.478-10,10v121c0,0.84,0.038,1.671,0.094,2.497L83,465.151V319.016l101.504-38.021c5.172-1.937,7.794-7.7,5.857-12.872
	c-1.938-5.172-7.701-7.799-12.873-5.856L71.189,302.084H10c-32.533,0-59,26.467-59,59v62c0,31.894,25.442,57.94,57.095,58.952
	l44.063,115.447c1.479,3.875,5.196,6.435,9.343,6.435h58c3.29,0,6.37-1.618,8.236-4.328c1.866-2.71,2.28-6.164,1.107-9.237
	l-38.598-101.13l259.026,97.026c6.277,4.903,14.165,7.836,22.729,7.836c20.402,0,37-16.598,37-37V455.297
	C439.556,450.481,463,423.972,463,392.083z M-29,423.083v-62c0-21.505,17.495-39,39-39h53v140H15h-5
	C-11.505,462.083-29,444.588-29,423.083z M68.387,583.917L29.521,482.083h36.593l38.866,101.833L68.387,583.917L68.387,583.917z
	 M409,434.923v-85.68c19.458,4.542,34,22.019,34,42.84S428.458,430.382,409,434.923z"/>
<path class="icon-color-outline" fill="#303030" d="M213.64,269.403c2.63,0,5.21-1.069,7.07-2.93c1.86-1.859,2.93-4.439,2.93-7.07
	c0-2.63-1.07-5.21-2.93-7.069c-1.86-1.86-4.44-2.931-7.07-2.931s-5.21,1.07-7.07,2.931c-1.86,1.859-2.93,4.439-2.93,7.069
	c0,2.631,1.07,5.211,2.93,7.07C208.43,268.333,211.01,269.403,213.64,269.403z"/>
<path class="icon-color-outline" fill="#303030" d="M17,377.753c2.63,0,5.21-1.07,7.07-2.93s2.93-4.44,2.93-7.07c0-2.64-1.07-5.21-2.93-7.07
	c-1.86-1.87-4.44-2.93-7.07-2.93c-2.63,0-5.21,1.06-7.07,2.93c-1.86,1.86-2.93,4.44-2.93,7.07s1.07,5.2,2.93,7.07
	C11.79,376.683,14.37,377.753,17,377.753z"/>
<path class="icon-color-outline" fill="#303030" d="M45,425.083c0-5.522-4.477-10-10-10H3c-5.523,0-10,4.478-10,10s4.477,10,10,10h32
	C40.523,435.083,45,430.606,45,425.083z"/>
</svg>
