<?xml version="1.0" encoding="iso-8859-1"?>
<!-- Generator: Adobe Illustrator 19.0.0, SVG Export Plug-In . SVG Version: 6.00 Build 0)  -->
<svg version="1.1" id="Capa_1" xmlns="http://www.w3.org/2000/svg" xmlns:xlink="http://www.w3.org/1999/xlink" x="0px" y="0px"
	 viewBox="-49 141 512 512" style="enable-background:new -49 141 512 512;" xml:space="preserve">
<rect x="-39" y="544" class="icon-color-2" visibility="hidden"  width="492" height="50"/>
<path class="icon-color-1" visibility="hidden"  d="M453,544H272.82c-27.687,0-53.068,15.424-65.82,40l0,0V240l0,0c12.752-24.576,38.133-40,65.82-40H453
	V544z"/>
<path class="icon-color-1" visibility="hidden"  d="M-39,544h180.18c27.687,0,53.068,15.424,65.82,40l0,0V240l0,0c-12.752-24.576-38.133-40-65.82-40H-39
	V544z"/>
<path class="icon-color-outline" fill="#303030" d="M453,190H272.82c-26.022,0-50.047,11.845-65.82,31.707C191.227,201.845,167.202,190,141.18,190
	H89.667c-5.523,0-10,4.477-10,10s4.477,10,10,10h51.513c23.26,0,44.435,12.404,55.82,32.532v312.592
	C181.886,541.71,162.18,534,141.18,534H-29V210H7.667c5.523,0,10-4.477,10-10s-4.477-10-10-10H-39c-5.523,0-10,4.477-10,10v394
	c0,5.523,4.477,10,10,10h492c5.523,0,10-4.477,10-10V200C463,194.477,458.523,190,453,190z M272.82,210H443v324H272.82
	c-21,0-40.707,7.71-55.82,21.125V242.532C228.385,222.404,249.56,210,272.82,210z M-29,554h170.18c22.266,0,42.614,11.373,54.3,30
	H-29V554z M218.52,584c11.687-18.627,32.035-30,54.3-30H443v30H218.52z"/>
<path class="icon-color-outline" fill="#303030" d="M143.01,466c-2.63,0-5.21,1.07-7.07,2.93s-2.93,4.44-2.93,7.07s1.07,5.21,2.93,7.07
	s4.44,2.93,7.07,2.93c2.64,0,5.21-1.07,7.07-2.93c1.87-1.86,2.93-4.44,2.93-7.07s-1.06-5.21-2.93-7.07
	C148.22,467.07,145.64,466,143.01,466z"/>
<path class="icon-color-outline" fill="#303030" d="M15.319,466c-5.523,0-10,4.477-10,10s4.477,10,10,10h89.997c5.523,0,10-4.477,10-10s-4.477-10-10-10
	H15.319z"/>
<path class="icon-color-outline" fill="#303030" d="M143.013,396.667H15.319c-5.523,0-10,4.477-10,10s4.477,10,10,10h127.693c5.523,0,10-4.477,10-10
	S148.536,396.667,143.013,396.667z"/>
<path class="icon-color-outline" fill="#303030" d="M143.013,327.333H15.319c-5.523,0-10,4.477-10,10c0,5.523,4.477,10,10,10h127.693
	c5.523,0,10-4.477,10-10C153.012,331.81,148.536,327.333,143.013,327.333z"/>
<path class="icon-color-outline" fill="#303030" d="M143.013,258H15.319c-5.523,0-10,4.477-10,10s4.477,10,10,10h127.693c5.523,0,10-4.477,10-10
	S148.536,258,143.013,258z"/>
<path class="icon-color-outline" fill="#303030" d="M399,466c-2.63,0-5.21,1.07-7.07,2.93c-1.86,1.86-2.93,4.44-2.93,7.07s1.07,5.21,2.93,7.07
	c1.86,1.86,4.44,2.93,7.07,2.93s5.21-1.07,7.07-2.93S409,478.63,409,476s-1.07-5.21-2.93-7.07C404.21,467.07,401.63,466,399,466z"/>
<path class="icon-color-outline" fill="#303030" d="M271.307,486h89.997c5.523,0,10-4.477,10-10s-4.477-10-10-10h-89.997c-5.523,0-10,4.477-10,10
	S265.784,486,271.307,486z"/>
<path class="icon-color-outline" fill="#303030" d="M271.307,416.667H399c5.523,0,10-4.477,10-10s-4.477-10-10-10H271.307c-5.523,0-10,4.477-10,10
	S265.784,416.667,271.307,416.667z"/>
<path class="icon-color-outline" fill="#303030" d="M271.307,347.333H399c5.523,0,10-4.477,10-10c0-5.523-4.477-10-10-10H271.307
	c-5.523,0-10,4.477-10,10C261.307,342.856,265.784,347.333,271.307,347.333z"/>
<path class="icon-color-outline" fill="#303030" d="M271.307,278H399c5.523,0,10-4.477,10-10s-4.477-10-10-10H271.307c-5.523,0-10,4.477-10,10
	S265.784,278,271.307,278z"/>
<path class="icon-color-outline" fill="#303030" d="M49,210c2.63,0,5.21-1.07,7.07-2.93c1.86-1.86,2.93-4.44,2.93-7.07s-1.07-5.21-2.93-7.07
	C54.21,191.07,51.63,190,49,190s-5.21,1.07-7.07,2.93C40.07,194.79,39,197.37,39,200s1.07,5.21,2.93,7.07
	C43.79,208.93,46.37,210,49,210z"/>
</svg>
