<?xml version="1.0" encoding="iso-8859-1"?>
<!-- Generator: Adobe Illustrator 19.0.0, SVG Export Plug-In . SVG Version: 6.00 Build 0)  -->
<svg version="1.1" id="Capa_1" xmlns="http://www.w3.org/2000/svg" xmlns:xlink="http://www.w3.org/1999/xlink" x="0px" y="0px"
	 viewBox="-49 141 512 512" style="enable-background:new -49 141 512 512;" xml:space="preserve">
<circle class="icon-color-1" visibility="hidden"  cx="149.001" cy="338.951" r="188.011"/>
<circle class="icon-color-other" fill="#B4F3FC" visibility="hidden" cx="149.001" cy="338.951" r="140.008"/>
<path class="icon-color-2" visibility="hidden"  d="M302.867,449.329l141.145,141.144c12.008,12.008,12.008,31.479,0,43.488
	c-6.004,6.003-13.874,9.007-21.744,9.007c-7.87,0-15.739-3.002-21.744-9.007L259.379,492.817L302.867,449.329z"/>
<rect x="269.317" y="463.224" transform="matrix(0.7071 -0.7071 0.7071 0.7071 -258.6049 355.7027)" class="icon-color-other" fill="#F0F0FA" visibility="hidden" width="61.503" height="53.583"/>
<path class="icon-color-outline" fill="#303030" d="M149.001,488.959c82.715,0,150.008-67.294,150.008-150.009s-67.294-150.008-150.008-150.008
	S-1.007,256.236-1.007,338.95S66.287,488.959,149.001,488.959z M149.001,208.943c71.686,0,130.007,58.32,130.007,130.007
	s-58.321,130.007-130.007,130.007S18.994,410.637,18.994,338.95S77.315,208.943,149.001,208.943z"/>
<path class="icon-color-outline" fill="#303030" d="M23.129,464.823c-3.905-3.904-10.238-3.904-14.144,0c-3.905,3.905-3.905,10.238,0,14.144l0.928,0.922
	c1.949,1.926,4.49,2.888,7.029,2.888c2.579,0,5.156-0.991,7.112-2.97c3.883-3.928,3.846-10.261-0.082-14.144L23.129,464.823z"/>
<path class="icon-color-outline" fill="#303030" d="M451.084,583.402L314.844,447.163c50.105-76.75,41.501-180.898-25.827-248.228
	c-77.204-77.203-202.825-77.203-280.03,0c-32.041,32.042-52.259,74.463-56.931,119.449c-4.604,44.337,5.965,89.348,29.761,126.742
	c2.965,4.661,9.147,6.033,13.806,3.068c4.659-2.965,6.033-9.147,3.068-13.806c-44.361-69.714-34.083-162.789,24.439-221.312
	c69.407-69.406,182.338-69.406,251.744,0s69.406,182.338,0,251.744c-59.871,59.873-154.341,69.242-224.625,22.277
	c-4.591-3.068-10.803-1.833-13.871,2.759c-3.068,4.592-1.833,10.803,2.759,13.871c33.335,22.275,71.55,33.159,109.597,33.159
	c38.013,0,75.848-10.881,108.455-32.119l33.002,33.002c0.001,0.001,0.002,0.003,0.004,0.004c0.001,0.001,0.003,0.002,0.004,0.004
	l103.254,103.253c7.697,7.696,17.931,11.936,28.815,11.936c10.884,0,21.117-4.238,28.816-11.937
	C466.972,625.142,466.972,599.29,451.084,583.402z M289.017,478.966c4.954-4.955,9.586-10.112,13.905-15.44l23.699,23.698
	c-0.059,0.056-0.122,0.105-0.18,0.163l-29.174,29.174l-23.699-23.698C278.911,488.54,284.072,483.911,289.017,478.966z
	 M436.943,626.888c-3.92,3.92-9.132,6.078-14.674,6.078c-5.542,0-10.753-2.158-14.673-6.077l-96.185-96.184l29.174-29.174
	c0.058-0.058,0.107-0.121,0.163-0.18l96.195,96.194C445.031,605.634,445.031,618.799,436.943,626.888z"/>
<path class="icon-color-outline" fill="#303030" d="M179.937,264.061c30.416,12.579,50.069,41.975,50.069,74.89c0,5.522,4.477,10.001,10.001,10.001
	c5.523,0,10.001-4.478,10.001-10.001c0-41.038-24.503-77.689-62.427-93.373c-5.104-2.109-10.953,0.315-13.064,5.419
	C172.407,256.102,174.833,261.949,179.937,264.061z"/>
<path class="icon-color-outline" fill="#303030" d="M149.001,257.946c0.372,0,0.742,0.003,1.113,0.008c0.048,0.001,0.095,0.001,0.143,0.001
	c5.457,0,9.92-4.385,9.997-9.86c0.078-5.522-4.336-10.064-9.86-10.141c-0.464-0.007-0.928-0.01-1.394-0.01
	c-5.523,0-10.001,4.478-10.001,10.001C139,253.467,143.478,257.946,149.001,257.946z"/>
</svg>
