<?xml version="1.0" encoding="iso-8859-1"?>
<!-- Generator: Adobe Illustrator 19.0.0, SVG Export Plug-In . SVG Version: 6.00 Build 0)  -->
<svg version="1.1" id="Layer_1" xmlns="http://www.w3.org/2000/svg" xmlns:xlink="http://www.w3.org/1999/xlink" x="0px" y="0px"
	 viewBox="-49 141 512 512" style="enable-background:new -49 141 512 512;" xml:space="preserve">
<path class="icon-color-2" visibility="hidden"  d="M219.565,160.13l64.562,137.843c1.967,4.199,5.894,7.14,10.469,7.84l145.474,22.274
	c11.168,1.71,15.728,15.361,7.839,23.465L341.78,460.559c-3.076,3.16-4.473,7.597-3.764,11.954l24.932,153.175
	c1.865,11.46-10.275,20.031-20.415,14.414l-128.817-71.361c-4.179-2.315-9.252-2.315-13.431,0L71.467,640.102
	c-10.141,5.617-22.281-2.953-20.415-14.414l24.932-153.175c0.709-4.358-0.688-8.794-3.764-11.954L-33.91,351.552
	c-7.89-8.104-3.329-21.756,7.839-23.465l145.475-22.273c4.576-0.7,8.503-3.641,10.469-7.84l64.561-137.844
	C199.43,149.464,214.57,149.464,219.565,160.13z"/>
<path class="icon-color-outline" fill="#303030" d="M455.884,359.317c6.576-6.754,8.799-16.504,5.801-25.446c-2.993-8.93-10.63-15.361-19.93-16.786
	L296.281,294.81c-0.906-0.139-1.681-0.721-2.074-1.559l-64.562-137.842C225.482,146.521,216.805,141,207,141
	s-18.482,5.521-22.645,14.409l-64.563,137.843c-0.393,0.837-1.168,1.42-2.074,1.559l-145.474,22.274
	c-9.301,1.424-16.937,7.856-19.93,16.786c-2.997,8.942-0.775,18.692,5.801,25.446l106.13,109.006
	c0.614,0.631,0.896,1.528,0.754,2.402L40.067,623.899c-1.555,9.555,2.393,18.948,10.305,24.516
	c7.895,5.556,18.045,6.101,26.49,1.424l128.817-71.361c0.827-0.457,1.814-0.459,2.643,0l128.817,71.361
	c3.817,2.114,7.981,3.161,12.129,3.161c5.03,0,10.034-1.54,14.361-4.585c7.911-5.566,11.859-14.96,10.305-24.515l-24.932-153.176
	c-0.142-0.872,0.139-1.769,0.754-2.4L455.884,359.317z M327.029,474.301l24.932,153.175c0.233,1.43-0.493,2.276-1.143,2.734
	c-0.639,0.45-1.658,0.839-2.893,0.156L219.11,559.006c-3.792-2.101-7.95-3.151-12.109-3.151c-4.158,0-8.319,1.051-12.109,3.151
	L66.076,630.366c-1.235,0.685-2.254,0.294-2.894-0.156c-0.65-0.458-1.376-1.302-1.143-2.734l24.932-153.173
	c1.271-7.805-1.261-15.844-6.775-21.508L-25.933,343.79c-0.982-1.01-0.893-2.103-0.644-2.843c0.245-0.731,0.825-1.646,2.193-1.855
	l145.474-22.274c8.263-1.264,15.315-6.544,18.864-14.122l64.563-137.843c0.614-1.316,1.69-1.592,2.484-1.592
	c0.795,0,1.87,0.276,2.485,1.591l0,0l64.562,137.842c3.549,7.579,10.602,12.858,18.864,14.122l145.475,22.274
	c1.368,0.209,1.948,1.125,2.193,1.855c0.248,0.74,0.337,1.833-0.644,2.843L333.803,452.795
	C328.291,458.458,325.758,466.498,327.029,474.301z"/>
<path class="icon-color-outline" fill="#303030" d="M385.067,367.257l0.56,0.086c0.571,0.088,1.139,0.13,1.7,0.13c5.403,0,10.144-3.941,10.989-9.446
	c0.93-6.076-3.24-11.757-9.316-12.688l-0.56-0.086c-6.074-0.931-11.756,3.24-12.688,9.316
	C374.819,360.646,378.99,366.326,385.067,367.257z"/>
<path class="icon-color-outline" fill="#303030" d="M347.964,361.446c5.403,0,10.145-3.942,10.989-9.448c0.931-6.076-3.241-11.757-9.317-12.686
	l-74.076-11.342c-6.083-0.934-11.757,3.241-12.686,9.317c-0.931,6.076,3.241,11.757,9.317,12.686l74.076,11.342
	C346.837,361.404,347.404,361.446,347.964,361.446z"/>
</svg>
