<?xml version="1.0" encoding="iso-8859-1"?>
<!-- Generator: Adobe Illustrator 19.0.0, SVG Export Plug-In . SVG Version: 6.00 Build 0)  -->
<svg version="1.1" id="Layer_1" xmlns="http://www.w3.org/2000/svg" xmlns:xlink="http://www.w3.org/1999/xlink" x="0px" y="0px"
	 viewBox="-201 141 842 512" style="enable-background:new -201 141 842 512;" xml:space="preserve">
<rect x="68.719" y="205.255" class="icon-color-1" visibility="hidden"  width="276.551" height="351.873"/>
<g>
	<path class="icon-color-2" visibility="hidden"  d="M319.727,151.199H94.273c-14.111,0-25.549,11.438-25.549,25.549v28.507h276.552v-28.507
		C345.277,162.638,333.837,151.199,319.727,151.199z"/>
	<path class="icon-color-2" visibility="hidden"  d="M68.724,557.128v60.124c0,14.111,11.438,25.549,25.549,25.549h225.453
		c14.111,0,25.549-11.438,25.549-25.549v-60.124H68.724z"/>
</g>
<path class="icon-color-other" fill="#75EBE5" visibility="hidden" d="M226.593,613.169h-45.304c-6.642,0-12.025-5.384-12.025-12.025v-2.36
	c0-6.642,5.384-12.025,12.025-12.025h45.304c6.642,0,12.025,5.384,12.025,12.025v2.36
	C238.618,607.786,233.233,613.169,226.593,613.169z"/>
<g>
	<path class="icon-color-outline" fill="#303030" d="M58.525,617.251c0,19.712,16.037,35.749,35.748,35.749h225.454
		c19.711,0,35.748-16.037,35.748-35.749V176.749C355.475,157.037,339.439,141,319.728,141H94.273
		c-19.712,0-35.748,16.037-35.748,35.749V617.251z M78.924,215.454h256.154v331.474H78.924V215.454z M78.924,176.749
		c0-8.464,6.885-15.351,15.35-15.351h225.454c8.464,0,15.35,6.887,15.35,15.351v18.307H78.924V176.749z M335.077,617.251
		c0,8.464-6.885,15.351-15.35,15.351H94.273c-8.464,0-15.35-6.887-15.35-15.351v-49.924h256.154v49.924H335.077z"/>
	<path class="icon-color-outline" fill="#303030" d="M181.289,623.368h45.304c12.254,0,22.224-9.97,22.224-22.224v-2.36
		c0-12.254-9.97-22.224-22.224-22.224h-45.304c-12.254,0-22.225,9.97-22.225,22.224v2.36
		C159.064,613.399,169.035,623.368,181.289,623.368z M179.462,598.784c0-1.007,0.819-1.826,1.827-1.826h45.304
		c1.007,0,1.826,0.819,1.826,1.826v2.36c0,1.007-0.819,1.826-1.826,1.826h-45.304c-1.007,0-1.827-0.819-1.827-1.826L179.462,598.784
		L179.462,598.784z"/>
	<path class="icon-color-outline" fill="#303030" d="M240.147,168.538h-4.59c-5.632,0-10.199,4.567-10.199,10.199c0,5.632,4.567,10.199,10.199,10.199
		h4.59c5.632,0,10.199-4.567,10.199-10.199C250.347,173.105,245.78,168.538,240.147,168.538z"/>
	<path class="icon-color-outline" fill="#303030" d="M202.92,168.538h-29.068c-5.633,0-10.199,4.567-10.199,10.199c0,5.632,4.566,10.199,10.199,10.199
		h29.068c5.632,0,10.199-4.567,10.199-10.199C213.12,173.105,208.553,168.538,202.92,168.538z"/>
	<path class="icon-color-outline" fill="#303030" d="M123.146,512.884h-15.448c-5.633,0-10.199,4.567-10.199,10.199c0,5.632,4.566,10.199,10.199,10.199
		h15.448c5.633,0,10.199-4.567,10.199-10.199C133.345,517.452,128.779,512.884,123.146,512.884z"/>
	<path class="icon-color-outline" fill="#303030" d="M183.829,512.884h-15.447c-5.633,0-10.199,4.567-10.199,10.199c0,5.632,4.566,10.199,10.199,10.199
		h15.447c5.633,0,10.199-4.567,10.199-10.199C194.029,517.452,189.462,512.884,183.829,512.884z"/>
	<path class="icon-color-outline" fill="#303030" d="M245.618,512.884h-15.448c-5.632,0-10.199,4.567-10.199,10.199c0,5.632,4.567,10.199,10.199,10.199
		h15.448c5.632,0,10.199-4.567,10.199-10.199C255.817,517.452,251.25,512.884,245.618,512.884z"/>
	<path class="icon-color-outline" fill="#303030" d="M306.301,512.884h-15.447c-5.632,0-10.199,4.567-10.199,10.199c0,5.632,4.567,10.199,10.199,10.199
		h15.447c5.632,0,10.199-4.567,10.199-10.199C316.501,517.452,311.934,512.884,306.301,512.884z"/>
</g>
<path class="icon-color-outline" fill="#303030" d="M-13.614,465c-3.832,1.68-5.595,6.143-3.925,9.982c3.936,9.032,7.556,18.355,10.765,27.708
	c1.355,3.962,5.672,6.075,9.632,4.717c0.593-0.205,1.141-0.472,1.644-0.795c2.873-1.844,4.229-5.467,3.074-8.843
	c-3.338-9.735-7.108-19.444-11.206-28.85C-5.303,465.083-9.774,463.324-13.614,465L-13.614,465z M-13.614,465"/>
<path class="icon-color-outline" fill="#303030" d="M-92.082,343.234c-7.383-7.005-15.182-13.878-23.186-20.418c-3.243-2.654-8.023-2.167-10.674,1.071
	c-2.65,3.242-2.169,8.025,1.073,10.675c7.713,6.305,15.228,12.923,22.341,19.675c2.583,2.455,6.445,2.728,9.314,0.887
	c0.502-0.322,0.976-0.714,1.41-1.165C-88.919,350.918-89.048,346.118-92.082,343.234L-92.082,343.234z M-92.082,343.234"/>
<path class="icon-color-outline" fill="#303030" d="M-50.696,389.126c-6.23-8.116-12.893-16.111-19.801-23.765c-2.808-3.109-7.622-3.357-10.711-0.547
	c-3.112,2.804-3.355,7.603-0.548,10.711c6.637,7.354,13.04,15.039,19.027,22.841c2.42,3.149,6.825,3.873,10.106,1.768
	c0.181-0.116,0.358-0.239,0.53-0.369C-48.77,397.211-48.141,392.449-50.696,389.126L-50.696,389.126z M-50.696,389.126"/>
<path class="icon-color-outline" fill="#303030" d="M7.2,521.956c-4.058,1.039-6.512,5.163-5.479,9.224c2.454,9.616,4.533,19.403,6.179,29.083
	c0.701,4.131,4.619,6.908,8.749,6.206c1.037-0.178,1.988-0.556,2.823-1.091c2.482-1.593,3.908-4.565,3.384-7.659
	c-1.715-10.085-3.879-20.277-6.433-30.287C15.387,523.372,11.257,520.921,7.2,521.956L7.2,521.956z M7.2,521.956"/>
<path class="icon-color-outline" fill="#303030" d="M18.565,581.547c-4.185,0.342-7.284,3.997-6.946,8.176c1.474,18.098,0.768,29.133,0.76,29.245
	c-0.281,4.176,2.874,7.791,7.053,8.076c1.688,0.113,3.287-0.332,4.609-1.18c1.952-1.253,3.307-3.381,3.478-5.871
	c0.03-0.488,0.794-12.156-0.778-31.5C26.4,584.315,22.739,581.208,18.565,581.547L18.565,581.547z M18.565,581.547"/>
<path class="icon-color-outline" fill="#303030" d="M-43.29,412.209l-0.029,0.019c-3.524,2.261-5.29,7.386-3.025,10.914l0.61,0.95
	c5.123,7.982,10.369,16.027,14.857,24.394c1.979,3.692,6.764,4.956,10.455,2.977c0.179-0.097,0.447-0.259,0.614-0.367
	c3.297-2.116,4.134-6.237,2.249-9.752c-4.672-8.713-10.075-17.132-15.411-25.445l-0.648-1.01
	C-35.872,411.37-39.779,409.955-43.29,412.209L-43.29,412.209z M-43.29,412.209"/>
<path class="icon-color-outline" fill="#303030" d="M-93.34,269.22l-80.223,15.435c-2.018,0.385-3.784,1.574-4.914,3.293
	c-1.124,1.72-1.503,3.819-1.053,5.823l19.533,86.608c0.923,4.086,4.98,6.653,9.068,5.732c0.887-0.202,1.704-0.55,2.43-1.016
	c2.607-1.673,4.022-4.856,3.301-8.055l-15.511-68.77c4.112,2.704,8.161,5.461,12.114,8.259c2.596,1.833,5.953,1.805,8.474,0.186
	c0.802-0.515,1.517-1.187,2.097-2.005c2.418-3.422,1.604-8.154-1.82-10.575c-3.926-2.776-7.948-5.514-12.026-8.207l61.398-11.81
	c4.111-0.792,6.808-4.768,6.014-8.882C-85.249,271.123-89.227,268.426-93.34,269.22L-93.34,269.22z M-93.34,269.22"/>
<path class="icon-color-outline" fill="#303030" d="M428.345,465c-3.84-1.676-8.311,0.083-9.984,3.92c-4.097,9.406-7.867,19.115-11.206,28.85
	c-1.155,3.376,0.2,6.999,3.074,8.843c0.503,0.323,1.051,0.59,1.644,0.795c3.96,1.358,8.277-0.755,9.632-4.717
	c3.209-9.353,6.829-18.676,10.765-27.708C433.94,471.143,432.177,466.68,428.345,465L428.345,465z M428.345,465"/>
<path class="icon-color-outline" fill="#303030" d="M506.813,343.234c-3.034,2.884-3.163,7.684-0.277,10.724c0.434,0.451,0.908,0.843,1.41,1.165
	c2.87,1.842,6.731,1.568,9.314-0.887c7.113-6.752,14.628-13.37,22.341-19.675c3.242-2.65,3.722-7.433,1.073-10.675
	c-2.651-3.238-7.431-3.725-10.674-1.071C521.995,329.356,514.196,336.229,506.813,343.234L506.813,343.234z M506.813,343.234"/>
<path class="icon-color-outline" fill="#303030" d="M465.427,389.126c-2.554,3.323-1.926,8.085,1.397,10.639c0.172,0.13,0.349,0.252,0.53,0.369
	c3.281,2.105,7.686,1.381,10.106-1.768c5.987-7.802,12.391-15.487,19.027-22.841c2.807-3.108,2.564-7.907-0.548-10.711
	c-3.089-2.809-7.903-2.562-10.711,0.547C478.32,373.015,471.657,381.011,465.427,389.126L465.427,389.126z M465.427,389.126"/>
<path class="icon-color-outline" fill="#303030" d="M407.531,521.956c-4.057-1.035-8.186,1.416-9.224,5.476c-2.553,10.011-4.718,20.202-6.433,30.287
	c-0.523,3.094,0.902,6.066,3.384,7.659c0.835,0.536,1.786,0.913,2.823,1.091c4.131,0.701,8.048-2.076,8.749-6.206
	c1.646-9.679,3.725-19.467,6.179-29.083C414.043,527.119,411.588,522.996,407.531,521.956L407.531,521.956z M407.531,521.956"/>
<path class="icon-color-outline" fill="#303030" d="M396.165,581.547c-4.173-0.339-7.835,2.769-8.175,6.945c-1.572,19.344-0.808,31.012-0.778,31.5
	c0.171,2.491,1.525,4.618,3.478,5.871c1.321,0.848,2.92,1.293,4.609,1.18c4.179-0.285,7.334-3.899,7.053-8.076
	c-0.008-0.112-0.713-11.147,0.76-29.245C403.45,585.543,400.351,581.888,396.165,581.547L396.165,581.547z M396.165,581.547"/>
<path class="icon-color-outline" fill="#303030" d="M458.021,412.209c-3.511-2.253-7.418-0.839-9.672,2.681l-0.648,1.01
	c-5.335,8.313-10.739,16.732-15.411,25.445c-1.885,3.515-1.048,7.635,2.249,9.752c0.167,0.107,0.435,0.27,0.614,0.367
	c3.691,1.978,8.476,0.714,10.455-2.977c4.488-8.366,9.735-16.412,14.857-24.394l0.61-0.95c2.264-3.528,0.498-8.653-3.025-10.914
	L458.021,412.209L458.021,412.209z M458.021,412.209"/>
<path class="icon-color-outline" fill="#303030" d="M508.071,269.22c-4.113-0.793-8.091,1.904-8.882,6.015c-0.794,4.114,1.904,8.091,6.014,8.882
	l61.398,11.81c-4.078,2.693-8.099,5.431-12.026,8.207c-3.424,2.421-4.238,7.153-1.82,10.575c0.58,0.818,1.295,1.491,2.097,2.005
	c2.521,1.618,5.878,1.647,8.474-0.186c3.953-2.797,8.002-5.555,12.114-8.259l-15.511,68.77c-0.721,3.199,0.694,6.382,3.301,8.055
	c0.726,0.466,1.543,0.814,2.43,1.016c4.087,0.92,8.145-1.647,9.068-5.732l19.533-86.608c0.451-2.004,0.072-4.103-1.053-5.823
	c-1.13-1.718-2.896-2.908-4.914-3.293L508.071,269.22L508.071,269.22z M508.071,269.22"/>
</svg>
