<?xml version="1.0" encoding="iso-8859-1"?>
<!-- Generator: Adobe Illustrator 19.0.0, SVG Export Plug-In . SVG Version: 6.00 Build 0)  -->
<svg version="1.1" id="Capa_1" xmlns="http://www.w3.org/2000/svg" xmlns:xlink="http://www.w3.org/1999/xlink" x="0px" y="0px"
	 viewBox="-49 141 512 512" style="enable-background:new -49 141 512 512;" xml:space="preserve">
<circle class="icon-color-1" visibility="hidden"  cx="48.994" cy="396.995" r="87.995"/>
<circle class="icon-color-2" visibility="hidden"  cx="365.005" cy="239.004" r="87.995"/>
<circle class="icon-color-3" visibility="hidden"  cx="365.005" cy="554.995" r="87.995"/>
<path class="icon-color-outline" fill="#303030" d="M96.991,386.999c-5.523,0-9.999,4.478-9.999,9.999c0,20.952-17.046,37.998-37.998,37.998
	c-5.523,0-9.999,4.478-9.999,9.999s4.477,9.999,9.999,9.999c31.979,0,57.996-26.017,57.996-57.996
	C106.991,391.477,102.514,386.999,96.991,386.999z"/>
<path class="icon-color-outline" fill="#303030" d="M365.006,337.002c54.035,0,97.994-43.96,97.994-97.994s-43.959-97.994-97.994-97.994
	s-97.994,43.96-97.994,97.994S310.971,337.002,365.006,337.002z M365.006,161.013c43.006,0,77.995,34.988,77.995,77.995
	s-34.989,77.995-77.995,77.995s-77.995-34.988-77.995-77.995S321.999,161.013,365.006,161.013z"/>
<path class="icon-color-outline" fill="#303030" d="M365.006,297.005c31.979,0,57.996-26.017,57.996-57.996c0-5.522-4.477-9.999-9.999-9.999
	s-9.999,4.478-9.999,9.999c0,20.952-17.046,37.998-37.998,37.998c-5.523,0-9.999,4.478-9.999,9.999S359.483,297.005,365.006,297.005
	z"/>
<path class="icon-color-outline" fill="#303030" d="M365.006,456.997c-34.724,0-65.284,18.156-82.695,45.47l-80.427-40.211
	c-4.94-2.471-10.946-0.467-13.415,4.473c-2.47,4.939-0.467,10.945,4.473,13.415l80.403,40.199
	c-4.088,10.777-6.333,22.455-6.333,34.648c0,54.034,43.959,97.994,97.994,97.994S463,609.025,463,554.991
	C463,500.957,419.04,456.997,365.006,456.997z M365.006,632.986c-43.006,0-77.995-34.988-77.995-77.995
	c0-43.007,34.989-77.995,77.995-77.995s77.995,34.988,77.995,77.995C443.001,597.998,408.012,632.986,365.006,632.986z"/>
<path class="icon-color-outline" fill="#303030" d="M413.003,544.992c-5.523,0-9.999,4.478-9.999,9.999c0,20.952-17.046,37.998-37.998,37.998
	c-5.523,0-9.999,4.478-9.999,9.999s4.477,9.999,9.999,9.999c31.979,0,57.996-26.017,57.996-57.997
	C423.002,549.469,418.526,544.992,413.003,544.992z"/>
<path class="icon-color-outline" fill="#303030" d="M166.018,445.506c-2.64,0-5.21,1.07-7.08,2.93c-1.86,1.86-2.92,4.44-2.92,7.07s1.06,5.21,2.92,7.07
	c1.87,1.859,4.44,2.93,7.08,2.93c2.63,0,5.2-1.07,7.07-2.93c1.86-1.86,2.93-4.44,2.93-7.07s-1.07-5.21-2.93-7.07
	C171.228,446.576,168.648,445.506,166.018,445.506z"/>
<path class="icon-color-outline" fill="#303030" d="M222.084,321.642c4.94-2.47,6.942-8.477,4.473-13.415c-2.469-4.94-8.474-6.942-13.415-4.473
	l-81.452,40.723c-17.41-27.315-47.971-45.471-82.695-45.471C-5.041,299.005-49,342.966-49,397s43.959,97.994,97.994,97.994
	s97.994-43.96,97.994-97.994c0-12.193-2.245-23.87-6.333-34.647L222.084,321.642z M48.994,474.994
	c-43.006,0-77.995-34.988-77.995-77.995s34.989-77.995,77.995-77.995s77.995,34.988,77.995,77.995S92,474.994,48.994,474.994z"/>
<path class="icon-color-outline" fill="#303030" d="M249.712,306.654c-2.63,0-5.21-1.069-7.07-2.93c-1.86-1.861-2.93-4.439-2.93-7.07
	c0-2.64,1.07-5.22,2.93-7.08c1.86-1.859,4.43-2.92,7.07-2.92c2.63,0,5.21,1.061,7.07,2.92c1.86,1.87,2.93,4.44,2.93,7.08
	c0,2.631-1.07,5.2-2.93,7.07C254.922,305.584,252.343,306.654,249.712,306.654z"/>
</svg>
