<?xml version="1.0" encoding="iso-8859-1"?>
<!-- Generator: Adobe Illustrator 19.0.0, SVG Export Plug-In . SVG Version: 6.00 Build 0)  -->
<svg version="1.1" id="Layer_1" xmlns="http://www.w3.org/2000/svg" xmlns:xlink="http://www.w3.org/1999/xlink" x="0px" y="0px"
	 viewBox="-49 141 512 512" style="enable-background:new -49 141 512 512;" xml:space="preserve">
<circle class="icon-color-other" fill="#FFC64D" visibility="hidden" cx="207" cy="397" r="245.333"/>
<g>
	<path class="icon-color-other" fill="#303030" visibility="hidden" d="M377.667,386.333c-5.89,0-10.667,4.775-10.667,10.667c0,88.224-71.776,160-160,160
		S47,485.224,47,397c0-5.891-4.777-10.667-10.667-10.667S25.667,391.109,25.667,397c0,99.987,81.346,181.333,181.333,181.333
		S388.333,496.987,388.333,397C388.333,391.109,383.557,386.333,377.667,386.333z"/>
	<path class="icon-color-other" fill="#303030" visibility="hidden" d="M134.03,375.667c11.763,0,21.333-9.57,21.333-21.333S145.794,333,134.03,333
		s-21.333,9.57-21.333,21.333S122.267,375.667,134.03,375.667z"/>
	<path class="icon-color-other" fill="#303030" visibility="hidden" d="M279.97,375.667c11.763,0,21.333-9.57,21.333-21.333S291.733,333,279.97,333
		s-21.333,9.57-21.333,21.333S268.206,375.667,279.97,375.667z"/>
	<path class="icon-color-other" fill="#303030" visibility="hidden" d="M462.878,389.389c-0.046-1.559-0.104-3.116-0.177-4.668c-0.022-0.463-0.041-0.925-0.065-1.388
		c-0.217-4.133-0.529-8.241-0.941-12.32c-0.015-0.153-0.032-0.306-0.048-0.459c-5.457-53.167-27.191-101.505-60.128-139.969
		c-0.353-0.411-0.696-0.829-1.052-1.238c-0.676-0.779-1.368-1.543-2.053-2.314c-0.674-0.758-1.339-1.523-2.023-2.274
		c-0.477-0.524-0.967-1.036-1.449-1.556c-0.891-0.963-1.777-1.93-2.685-2.882c-0.868-0.909-1.753-1.801-2.634-2.698
		c-0.536-0.546-1.062-1.1-1.604-1.643c-1.665-1.665-3.354-3.295-5.057-4.908c-0.569-0.538-1.146-1.068-1.72-1.601
		c-1.134-1.054-2.274-2.099-3.424-3.13c-0.719-0.644-1.44-1.286-2.167-1.922c-0.986-0.865-1.98-1.716-2.977-2.564
		c-0.85-0.722-1.696-1.449-2.555-2.16c-0.636-0.528-1.283-1.04-1.924-1.561c-34.37-27.894-76.102-47.066-121.84-54.124
		c-0.158-0.024-0.315-0.052-0.472-0.076c-1.625-0.248-3.259-0.468-4.895-0.685c-0.727-0.096-1.453-0.195-2.181-0.285
		c-1.383-0.171-2.771-0.326-4.161-0.476c-1.005-0.107-2.01-0.21-3.017-0.305c-1.221-0.117-2.444-0.227-3.67-0.326
		c-1.219-0.098-2.44-0.183-3.661-0.264c-1.071-0.071-2.14-0.145-3.214-0.204c-1.48-0.08-2.963-0.138-4.448-0.192
		c-0.85-0.031-1.697-0.074-2.548-0.097C211.731,141.038,209.368,141,207,141c-2.365,0-4.724,0.038-7.079,0.102
		c-0.851,0.023-1.696,0.065-2.544,0.097c-1.484,0.055-2.967,0.112-4.446,0.192c-1.069,0.058-2.134,0.132-3.199,0.203
		c-1.226,0.081-2.452,0.166-3.674,0.265c-1.218,0.099-2.433,0.208-3.646,0.324c-1.018,0.096-2.035,0.2-3.05,0.308
		c-1.375,0.148-2.748,0.301-4.116,0.471c-0.754,0.093-1.505,0.195-2.257,0.294c-1.607,0.213-3.213,0.43-4.811,0.673
		c-0.237,0.036-0.473,0.077-0.71,0.113c-45.709,7.086-87.412,26.27-121.755,54.169c-0.605,0.493-1.216,0.976-1.817,1.474
		c-0.872,0.721-1.729,1.458-2.591,2.191c-0.986,0.839-1.969,1.68-2.944,2.536c-0.732,0.642-1.46,1.289-2.185,1.939
		c-1.144,1.027-2.28,2.066-3.408,3.116c-0.577,0.536-1.158,1.069-1.73,1.61c-1.702,1.612-3.391,3.242-5.055,4.906
		c-0.688,0.688-1.358,1.391-2.037,2.086c-0.734,0.751-1.475,1.494-2.2,2.253c-0.946,0.992-1.871,1.999-2.799,3.004
		c-0.443,0.479-0.894,0.95-1.333,1.432c-0.706,0.776-1.392,1.564-2.088,2.347c-0.663,0.747-1.334,1.486-1.988,2.24
		c-0.37,0.426-0.727,0.859-1.094,1.287c-32.915,38.455-54.635,86.776-60.09,139.922c-0.016,0.154-0.033,0.309-0.048,0.463
		c-0.411,4.078-0.723,8.186-0.94,12.319c-0.024,0.462-0.044,0.925-0.065,1.388c-0.073,1.552-0.132,3.108-0.177,4.668
		c-0.016,0.546-0.034,1.092-0.046,1.639C-48.97,393.014-49,395.003-49,397c0,2.182,0.028,4.358,0.083,6.527
		c0.012,0.471,0.037,0.939,0.052,1.41c0.052,1.715,0.109,3.428,0.195,5.135c0.018,0.37,0.048,0.738,0.068,1.108
		c0.099,1.821,0.208,3.639,0.345,5.45c0.013,0.178,0.032,0.355,0.046,0.534c4.712,60.472,30.431,115.047,69.872,156.43
		c0.919,0.964,1.86,1.913,2.796,2.865c1.065,1.083,2.139,2.156,3.223,3.22c0.906,0.889,1.807,1.784,2.724,2.658
		c41.384,39.444,95.962,65.165,156.437,69.876c0.177,0.014,0.353,0.032,0.53,0.045c1.811,0.137,3.629,0.246,5.45,0.345
		c0.37,0.02,0.738,0.049,1.108,0.068c1.706,0.086,3.42,0.143,5.135,0.195c0.471,0.014,0.939,0.04,1.41,0.052
		c2.169,0.054,4.345,0.083,6.527,0.083s4.358-0.028,6.527-0.083c0.471-0.012,0.939-0.037,1.41-0.052
		c1.715-0.052,3.429-0.109,5.135-0.195c0.37-0.018,0.737-0.048,1.107-0.068c1.821-0.099,3.64-0.208,5.451-0.345
		c0.178-0.013,0.355-0.032,0.533-0.046c60.473-4.712,115.049-30.432,156.432-69.875c0.907-0.865,1.799-1.751,2.696-2.631
		c1.149-1.128,2.287-2.266,3.415-3.415c0.88-0.896,1.766-1.789,2.631-2.696c39.443-41.383,65.163-95.959,69.875-156.432
		c0.014-0.178,0.032-0.355,0.046-0.533c0.137-1.811,0.246-3.63,0.345-5.451c0.02-0.369,0.049-0.737,0.068-1.107
		c0.086-1.706,0.143-3.42,0.195-5.135c0.014-0.47,0.04-0.939,0.052-1.41c0.054-2.169,0.083-4.345,0.083-6.527
		c0-1.997-0.03-3.986-0.076-5.972C462.912,390.481,462.894,389.935,462.878,389.389z M207,631.667c-0.006,0-0.013,0-0.019,0
		s-0.013,0-0.019,0c-7.83,0-15.569-0.395-23.202-1.15c-0.243-0.024-0.487-0.041-0.729-0.065c-1.032-0.105-2.057-0.235-3.085-0.354
		c-0.948-0.109-1.9-0.207-2.845-0.328c-0.293-0.037-0.584-0.084-0.876-0.123C61.319,614.528-27.667,515.966-27.667,397
		c0-0.308,0.008-0.613,0.009-0.921c-0.001-0.249-0.009-0.497-0.009-0.746C-27.667,264.81,77.38,159,206.962,159
		c126.227,0,229.156,100.406,234.402,226.25c0.193,3.894,0.303,7.809,0.303,11.75C441.667,526.396,336.396,631.667,207,631.667z"/>
</g>
</svg>
