<?xml version="1.0" encoding="iso-8859-1"?>
<!-- Generator: Adobe Illustrator 19.0.0, SVG Export Plug-In . SVG Version: 6.00 Build 0)  -->
<svg version="1.1" id="Capa_1" xmlns="http://www.w3.org/2000/svg" xmlns:xlink="http://www.w3.org/1999/xlink" x="0px" y="0px"
	 viewBox="-49 141 512 512" style="enable-background:new -49 141 512 512;" xml:space="preserve">
<circle class="icon-color-1" visibility="hidden"  cx="198.05" cy="435.732" r="207.268"/>
<g>
	<polyline class="icon-color-other" fill="#878791" visibility="hidden" points="169.053,228.467 169.053,195.002 227.055,195.002 227.055,228.467 	"/>
	<polyline class="icon-color-other" fill="#878791" visibility="hidden" points="324.106,268.667 347.77,245.004 388.783,286.018 365.12,309.681 	"/>
</g>
<g>
	<rect x="137.047" y="151" class="icon-color-2" visibility="hidden"  width="122.005" height="44.002"/>
	<path class="icon-color-2" visibility="hidden"  d="M400.584,297.818l-64.615-64.615l16.657-16.657c7.984-7.984,20.93-7.984,28.914,0l35.7,35.7
		c7.984,7.984,7.984,20.93,0,28.914L400.584,297.818z"/>
</g>
<circle class="icon-color-other" fill="#FFFFFF" visibility="hidden" cx="198.05" cy="435.732" r="163.236"/>
<g>
	<circle class="icon-color-2" visibility="hidden"  cx="198.05" cy="435.732" r="24.001"/>
	<polyline class="icon-color-2" visibility="hidden"  points="184.539,415.895 269.059,364.727 217.892,449.248 	"/>
</g>
<path class="icon-color-outline" fill="#303030" d="M305.573,601.151c-31.986,20.835-69.167,31.848-107.52,31.848
	c-108.773,0-197.267-88.493-197.267-197.266c0-39.499,11.629-77.607,33.632-110.209c3.09-4.578,1.883-10.793-2.695-13.884
	c-4.577-3.09-10.794-1.883-13.884,2.695c-24.241,35.918-37.054,77.898-37.054,121.398c0,58.034,22.6,112.594,63.636,153.631
	s95.597,63.636,153.631,63.636c42.239,0,83.193-12.134,118.437-35.09c4.628-3.014,5.936-9.209,2.921-13.838
	S310.2,598.136,305.573,601.151z"/>
<path class="icon-color-outline" fill="#303030" d="M338.862,573.888l-0.332,0.337c-3.89,3.92-3.865,10.252,0.055,14.143
	c1.951,1.935,4.497,2.901,7.044,2.901c2.571,0,5.144-0.986,7.099-2.957l0.414-0.42c3.867-3.943,3.806-10.274-0.138-14.143
	C349.061,569.882,342.729,569.945,338.862,573.888z"/>
<path class="icon-color-outline" fill="#303030" d="M393.511,304.889c1.953,1.953,4.512,2.929,7.071,2.929c2.559,0,5.118-0.977,7.071-2.929
	l16.658-16.658c11.869-11.871,11.869-31.186,0-43.057l-35.7-35.7c-5.751-5.75-13.397-8.917-21.528-8.917
	c-8.133,0-15.778,3.167-21.528,8.917l-16.658,16.657c-1.875,1.875-2.929,4.419-2.929,7.071c0,2.652,1.054,5.196,2.929,7.071
	l4.729,4.729l-11.982,11.982c-25.409-17.648-54.143-29.55-84.588-35.037v-16.946h22.001c5.522,0,10-4.477,10-10V151
	c0-5.523-4.478-10-10-10H137.052c-5.522,0-10,4.477-10,10v44.002c0,5.523,4.478,10,10,10h22.001v16.965
	c-28.622,5.19-55.935,16.09-80.46,32.262c-4.611,3.041-5.884,9.243-2.844,13.855c3.042,4.611,9.245,5.884,13.855,2.843
	c32.202-21.235,69.704-32.459,108.451-32.459c108.773,0,197.267,88.493,197.267,197.267c0,36.887-10.242,72.857-29.619,104.017
	c-2.916,4.69-1.479,10.856,3.212,13.774c1.644,1.022,3.468,1.509,5.271,1.509c3.342,0,6.607-1.674,8.502-4.721
	c21.351-34.334,32.635-73.955,32.635-114.579c0-44.813-13.487-87.547-38.521-123.59l11.982-11.982L393.511,304.889z
	 M359.698,223.618c1.973-1.973,4.595-3.059,7.385-3.059c2.789,0,5.412,1.086,7.385,3.06l35.7,35.699
	c4.072,4.072,4.072,10.699,0,14.772l-9.586,9.585l-4.714-4.714c-0.005-0.005-0.009-0.01-0.014-0.015l-41.015-41.014
	c-0.002-0.002-0.004-0.003-0.006-0.005l-4.723-4.723L359.698,223.618z M147.052,161.001h102.004v24.001h-22.001h-58.002h-22.001
	V161.001z M179.053,219.295v-14.293h38.001v14.295c-6.284-0.541-12.62-0.83-19.001-0.83
	C191.684,218.466,185.346,218.748,179.053,219.295z M364.532,296.125c-4.061-4.825-8.336-9.51-12.849-14.023
	c-4.512-4.512-9.197-8.787-14.023-12.849l10.107-10.107l26.871,26.871L364.532,296.125z"/>
<path class="icon-color-outline" fill="#303030" d="M198.054,335.994c5.522,0,10-4.477,10-10v-22.001c0-5.523-4.478-10-10-10s-10,4.477-10,10v22.001
	C188.053,331.516,192.53,335.994,198.054,335.994z"/>
<path class="icon-color-outline" fill="#303030" d="M291.206,352.578c2.631,0,5.21-1.07,7.07-2.93c1.86-1.86,2.93-4.44,2.93-7.07
	c0-2.63-1.069-5.21-2.93-7.07c-1.86-1.86-4.439-2.93-7.07-2.93c-2.63,0-5.21,1.07-7.069,2.93c-1.86,1.86-2.931,4.44-2.931,7.07
	c0,2.64,1.07,5.21,2.931,7.07C285.996,351.508,288.576,352.578,291.206,352.578z"/>
<path class="icon-color-outline" fill="#303030" d="M297.793,435.734c0,5.523,4.478,10,10,10h22.001c5.522,0,10-4.477,10-10s-4.478-10-10-10h-22.001
	C302.271,425.733,297.793,430.21,297.793,435.734z"/>
<path class="icon-color-outline" fill="#303030" d="M291.206,538.886c2.631,0,5.21-1.06,7.07-2.93c1.86-1.86,2.93-4.43,2.93-7.07
	c0-2.63-1.069-5.2-2.93-7.07c-1.86-1.86-4.439-2.93-7.07-2.93c-2.63,0-5.21,1.07-7.069,2.93c-1.86,1.86-2.931,4.44-2.931,7.07
	c0,2.64,1.07,5.22,2.931,7.07C285.996,537.826,288.576,538.886,291.206,538.886z"/>
<path class="icon-color-outline" fill="#303030" d="M198.054,535.473c-5.522,0-10,4.477-10,10v22.001c0,5.523,4.478,10,10,10s10-4.477,10-10v-22.001
	C208.054,539.951,203.576,535.473,198.054,535.473z"/>
<path class="icon-color-outline" fill="#303030" d="M104.899,518.885c-2.63,0-5.21,1.07-7.069,2.93c-1.86,1.86-2.931,4.44-2.931,7.07
	c0,2.64,1.07,5.21,2.931,7.07c1.859,1.87,4.439,2.93,7.069,2.93c2.63,0,5.21-1.06,7.07-2.93c1.86-1.86,2.93-4.43,2.93-7.07
	c0-2.63-1.069-5.21-2.93-7.07C110.108,519.955,107.529,518.885,104.899,518.885z"/>
<path class="icon-color-outline" fill="#303030" d="M66.313,445.734h22.001c5.522,0,10-4.477,10-10s-4.478-10-10-10H66.313c-5.522,0-10,4.477-10,10
	S60.79,445.734,66.313,445.734z"/>
<path class="icon-color-outline" fill="#303030" d="M104.899,352.578c2.63,0,5.21-1.07,7.07-2.93c1.86-1.86,2.93-4.44,2.93-7.07
	c0-2.63-1.069-5.21-2.93-7.07c-1.86-1.86-4.44-2.93-7.07-2.93c-2.63,0-5.21,1.07-7.069,2.93c-1.86,1.86-2.931,4.44-2.931,7.07
	c0,2.63,1.07,5.21,2.931,7.07C99.689,351.508,102.269,352.578,104.899,352.578z"/>
<path class="icon-color-outline" fill="#303030" d="M198.054,469.735c11.36,0,21.431-5.606,27.608-14.192c0.739-0.915,1.428-2.116,1.989-3.105
	l49.964-82.533c2.384-3.938,1.771-8.995-1.483-12.25c-3.256-3.255-8.312-3.867-12.25-1.483l-82.548,49.974
	c-0.893,0.507-2.143,1.242-2.989,1.908c-8.641,6.171-14.292,16.275-14.292,27.679C164.052,454.482,179.305,469.735,198.054,469.735z
	 M184.053,435.734c0-4.788,2.419-9.019,6.096-11.545l1.356-0.821c1.955-1.04,4.182-1.634,6.547-1.634
	c7.72,0,14.001,6.28,14.001,14.001c0,2.363-0.594,4.589-1.632,6.543l-0.826,1.364c-2.526,3.675-6.755,6.093-11.542,6.093
	C190.333,449.734,184.053,443.454,184.053,435.734z M226.048,416.466c-2.355-3.411-5.315-6.371-8.727-8.726l22.115-13.389
	L226.048,416.466z"/>
<path class="icon-color-outline" fill="#303030" d="M198.054,608.97c95.524,0,173.236-77.713,173.236-173.236s-77.713-173.236-173.236-173.236
	S24.817,340.211,24.817,435.734S102.53,608.97,198.054,608.97z M198.054,282.499c84.494,0,153.235,68.741,153.235,153.235
	s-68.741,153.235-153.235,153.235S44.818,520.228,44.818,435.734S113.558,282.499,198.054,282.499z"/>
<path class="icon-color-outline" fill="#303030" d="M52.107,298.566c2.63,0,5.21-1.07,7.07-2.93c1.86-1.86,2.93-4.44,2.93-7.07s-1.069-5.21-2.93-7.07
	s-4.44-2.93-7.07-2.93s-5.21,1.07-7.069,2.93c-1.86,1.86-2.931,4.44-2.931,7.07c0,2.64,1.07,5.21,2.931,7.07
	C46.897,297.496,49.477,298.566,52.107,298.566z"/>
</svg>
