<?xml version="1.0" encoding="iso-8859-1"?>
<!-- Generator: Adobe Illustrator 19.0.0, SVG Export Plug-In . SVG Version: 6.00 Build 0)  -->
<svg version="1.1" id="Capa_1" xmlns="http://www.w3.org/2000/svg" xmlns:xlink="http://www.w3.org/1999/xlink" x="0px" y="0px"
	 viewBox="-49 141 512 512" style="enable-background:new -49 141 512 512;" xml:space="preserve">
<path class="icon-color-other" fill="#EDF2FA" visibility="hidden" d="M176.942,486.993H453v156H176.942c-43.078,0-78-34.922-78-78l0,0
	C98.942,521.915,133.863,486.993,176.942,486.993z"/>
<polygon class="icon-color-2" visibility="hidden"  points="385,601.993 351,582.993 317,601.993 317,486.993 385,486.993 "/>
<path class="icon-color-1" visibility="hidden"  d="M98.942,564.993L98.942,564.993c0-43.078,34.922-78,78-78H39c-43.078,0-78,34.922-78,78l0,0
	c0,43.078,34.922,78,78,78h137.942C133.863,642.993,98.942,608.071,98.942,564.993z"/>
<path class="icon-color-other" fill="#FFFFFF" visibility="hidden" d="M191.935,342.993H453v144H191.935c-39.764,0-72-32.235-72-72l0,0
	C119.935,375.228,152.171,342.993,191.935,342.993z"/>
<path class="icon-color-3" visibility="hidden"  d="M115.41,414.993L115.41,414.993c0-39.765,32.235-72,72-72H82.475c-39.764,0-72,32.235-72,72l0,0
	c0,39.764,32.235,72,72,72H187.41C147.646,486.993,115.41,454.758,115.41,414.993z"/>
<path class="icon-color-2" visibility="hidden"  d="M234.459,264.308l0.016-0.016c-0.043-0.244-5.7-56.762,25.701-87.58
	c31.42-30.82,86.966-25.354,87.21-25.332l0.008-0.008l-0.012,0.012l0.007-0.007l-0.009,0.009c0.044,0.47,6.988,58.162-24.362,88.928
	C291.542,271.21,234.459,264.308,234.459,264.308z"/>
<path class="icon-color-2" visibility="hidden"  d="M144.981,240.315c-31.35-30.766-24.406-88.458-24.362-88.928l-0.009-0.009l0.007,0.007l-0.012-0.012
	l0.008,0.008c0.245-0.023,55.791-5.488,87.21,25.332c31.401,30.818,25.744,87.336,25.701,87.58l0.016,0.016
	C233.541,264.308,176.458,271.21,144.981,240.315z"/>
<path class="icon-color-outline" fill="#303030" d="M238.25,580.993h-61.321c-5.523,0-10,4.477-10,10c0,5.523,4.477,10,10,10h61.321
	c5.523,0,10-4.477,10-10C248.25,585.47,243.773,580.993,238.25,580.993z"/>
<path class="icon-color-outline" fill="#303030" d="M275.97,580.993c-2.63,0-5.21,1.07-7.07,2.93c-1.86,1.86-2.93,4.44-2.93,7.07s1.07,5.21,2.93,7.07
	c1.86,1.86,4.44,2.93,7.07,2.93s5.21-1.07,7.07-2.93c1.86-1.86,2.93-4.44,2.93-7.07s-1.07-5.21-2.93-7.07
	C281.18,582.063,278.6,580.993,275.97,580.993z"/>
<path class="icon-color-outline" fill="#303030" d="M453,332.993H244v-58.065c1.383,0.037,2.873,0.059,4.463,0.059c20.547,0,57.291-3.714,81.56-27.536
	c32.663-32.054,28.237-88.136,27.354-96.641c-0.136-2.401-1.135-4.762-2.987-6.577c-1.774-1.738-4.032-2.681-6.332-2.833
	c-4.974-0.435-61.507-4.566-94.886,28.174c-8.697,8.536-14.843,18.682-19.172,29.136c-4.33-10.454-10.476-20.601-19.173-29.136
	c-33.22-32.585-89.379-28.645-94.786-28.181c-2.333,0.133-4.629,1.081-6.428,2.844c-1.808,1.771-2.8,4.063-2.972,6.407
	c-0.829,7.789-5.583,64.503,27.335,96.809c24.272,23.824,61.015,27.537,81.561,27.536c1.59,0,3.08-0.023,4.462-0.059v58.065h-17
	h-15.065H87c-45.215,0-82,36.785-82,82c0,24.84,11.118,47.119,28.621,62.169C-12.406,479.952-49,518.276-49,564.993
	c0,48.523,39.477,88,88,88h414c5.523,0,10-4.477,10-10v-156v-144C463,337.47,458.523,332.993,453,332.993z M267.178,183.851
	c20.827-20.428,55.011-22.922,70.8-22.826c0.485,16.22-1.101,51.677-21.965,72.153c-20.913,20.527-55.972,22.156-71.965,21.711
	C243.886,239.095,246.147,204.493,267.178,183.851z M223.951,254.908c-15.959,0.468-50.961-1.114-71.964-21.729l0,0
	c-20.864-20.475-22.449-55.934-21.964-72.154c15.777-0.065,49.967,2.393,70.797,22.825
	C221.861,204.5,224.116,239.122,223.951,254.908z M327,496.993h48v87.956l-19.122-10.686c-1.516-0.847-3.197-1.271-4.878-1.271
	s-3.362,0.423-4.878,1.271L327,584.949V496.993z M443,496.993v32h-48v-32H443z M395,548.993h48v32h-48V548.993z M207,352.993h236v28
	H193c-5.523,0-10,4.477-10,10c0,5.523,4.477,10,10,10h250v76H191.935c-34.187,0-62-27.813-62-62s27.813-62,62-62H207L207,352.993z
	 M25,414.993c0-34.187,27.813-62,62-62h51.361c-17.39,15.048-28.426,37.252-28.426,62s11.035,46.952,28.426,62H87
	C52.813,476.993,25,449.18,25,414.993z M39,632.993c-37.495,0-68-30.505-68-68s30.505-68,68-68h82.146
	c-19.65,16.152-32.205,40.637-32.205,68c0,27.363,12.555,51.848,32.205,68H39z M207,632.993h-30.059c-37.495,0-68-30.505-68-68
	s30.505-68,68-68H307v32H176.929c-5.523,0-10,4.477-10,10c0,5.523,4.477,10,10,10H307v53c0,3.548,1.879,6.83,4.939,8.625
	c3.06,1.795,6.841,1.835,9.939,0.104L351,594.449l29.122,16.274c1.517,0.848,3.198,1.271,4.878,1.271c1.75,0,3.5-0.459,5.061-1.375
	c3.06-1.795,4.939-5.077,4.939-8.625v-1h48v32L207,632.993L207,632.993z"/>
<path class="icon-color-outline" fill="#303030" d="M193,448.993h169.498c5.523,0,10-4.477,10-10s-4.477-10-10-10H193c-5.523,0-10,4.477-10,10
	S187.477,448.993,193,448.993z"/>
<path class="icon-color-outline" fill="#303030" d="M407.5,448.993c2.63,0,5.21-1.07,7.07-2.93c1.87-1.86,2.93-4.44,2.93-7.07s-1.06-5.21-2.93-7.07
	c-1.86-1.86-4.44-2.93-7.07-2.93s-5.21,1.07-7.07,2.93c-1.86,1.86-2.93,4.44-2.93,7.07s1.07,5.21,2.93,7.07
	C402.29,447.923,404.87,448.993,407.5,448.993z"/>
</svg>
