<?xml version="1.0" encoding="iso-8859-1"?>
<!-- Generator: Adobe Illustrator 19.0.0, SVG Export Plug-In . SVG Version: 6.00 Build 0)  -->
<svg version="1.1" id="Capa_1" xmlns="http://www.w3.org/2000/svg" xmlns:xlink="http://www.w3.org/1999/xlink" x="0px" y="0px"
	 viewBox="-49 141 512 512" style="enable-background:new -49 141 512 512;" xml:space="preserve">
<path class="icon-color-1" visibility="hidden"  d="M411.606,151.012H233.648L-26.876,411.536c-16.165,16.165-16.165,42.375,0,58.54l160.812,160.812
	c16.165,16.165,42.375,16.165,58.54,0L453,370.364V192.406C453,169.545,434.467,151.012,411.606,151.012z"/>
<circle class="icon-color-other" fill="#FFFFFF" visibility="hidden" cx="363.11" cy="241.12" r="36"/>
<path class="icon-color-2" visibility="hidden"  d="M350.5,390.846L188.167,553.179c-13.531,13.531-35.469,13.531-49,0l-88.333-88.333
	c-13.531-13.531-13.531-35.469,0-49l162.333-162.333c13.531-13.531,35.469-13.531,49,0l88.333,88.333
	C364.031,355.377,364.031,377.315,350.5,390.846z"/>
<path class="icon-color-outline" fill="#303030" d="M112.07,282.582c2.64,0,5.21-1.06,7.08-2.92c1.86-1.869,2.93-4.439,2.93-7.08
	c0-2.63-1.07-5.199-2.93-7.069c-1.87-1.86-4.44-2.931-7.08-2.931c-2.63,0-5.2,1.07-7.07,2.931c-1.86,1.87-2.93,4.439-2.93,7.069
	c0,2.641,1.07,5.211,2.93,7.08C106.87,281.522,109.44,282.582,112.07,282.582z"/>
<path class="icon-color-outline" fill="#303030" d="M411.606,141.012H233.648c-2.652,0-5.196,1.054-7.071,2.929l-95.324,95.324
	c-3.905,3.905-3.905,10.237,0,14.143c3.905,3.904,10.237,3.904,14.143,0l92.395-92.396h173.816
	c17.311,0,31.394,14.083,31.394,31.394v173.815L185.405,623.817c-12.242,12.241-32.159,12.239-44.398,0L-19.805,463.005
	c-5.93-5.93-9.195-13.813-9.195-22.199s3.266-16.269,9.195-22.198l108.7-108.7c3.905-3.905,3.905-10.237,0-14.143
	c-3.905-3.904-10.237-3.904-14.143,0l-108.7,108.7C-43.654,414.172-49,427.079-49,440.806s5.346,26.634,15.053,36.342
	L126.865,637.96c10.02,10.019,23.18,15.028,36.341,15.028c13.161,0,26.322-5.01,36.342-15.028l260.523-260.524
	c1.875-1.876,2.929-4.419,2.929-7.071V192.406C463,164.067,439.945,141.012,411.606,141.012z"/>
<path class="icon-color-outline" fill="#303030" d="M409.113,241.125c0-25.364-20.636-46-46-46s-46,20.636-46,46s20.636,46,46,46
	S409.113,266.49,409.113,241.125z M337.113,241.125c0-14.337,11.664-26,26-26s26,11.663,26,26s-11.664,26-26,26
	S337.113,255.462,337.113,241.125z"/>
<path class="icon-color-outline" fill="#303030" d="M237.667,233.364c-11.926,0-23.138,4.645-31.571,13.077L43.762,408.774
	c-8.433,8.434-13.077,19.646-13.077,31.571c0,11.927,4.645,23.139,13.077,31.571l88.333,88.334
	c8.704,8.704,20.138,13.056,31.571,13.056c11.434,0,22.867-4.353,31.571-13.056L357.57,397.916l0,0
	c8.433-8.433,13.077-19.645,13.077-31.571c0-11.926-4.644-23.138-13.077-31.571l-88.333-88.333
	C260.805,238.008,249.593,233.364,237.667,233.364z M350.648,366.345c0,6.584-2.563,12.773-7.219,17.429l0,0l-11.976,11.976
	l-48.609-48.608c-3.905-3.904-10.237-3.904-14.142,0c-3.905,3.905-3.905,10.237,0,14.143l48.609,48.608L181.096,546.108
	c-9.61,9.609-25.248,9.61-34.858,0l-88.333-88.334c-4.655-4.655-7.219-10.845-7.219-17.429s2.564-12.773,7.22-17.429
	l162.333-162.333c4.655-4.656,10.845-7.22,17.429-7.22c6.584,0,12.773,2.563,17.429,7.22l88.333,88.333
	C348.084,353.572,350.648,359.761,350.648,366.345z"/>
<path class="icon-color-outline" fill="#303030" d="M246.03,314.472c-2.63,0-5.21,1.07-7.07,2.93c-1.86,1.86-2.93,4.43-2.93,7.07
	c0,2.63,1.07,5.21,2.93,7.07c1.86,1.859,4.44,2.93,7.07,2.93s5.21-1.07,7.07-2.93c1.86-1.86,2.93-4.44,2.93-7.07
	c0-2.641-1.07-5.21-2.93-7.07C251.24,315.542,248.66,314.472,246.03,314.472z"/>
</svg>
