<?xml version="1.0" encoding="iso-8859-1"?>
<!-- Generator: Adobe Illustrator 19.0.0, SVG Export Plug-In . SVG Version: 6.00 Build 0)  -->
<svg version="1.1" id="Capa_1" xmlns="http://www.w3.org/2000/svg" xmlns:xlink="http://www.w3.org/1999/xlink" x="0px" y="0px"
	 viewBox="-49 141 512 512" style="enable-background:new -49 141 512 512;" xml:space="preserve">
<path class="icon-color-other" fill="#FFFFFF" visibility="hidden" d="M396.988,589.125v25.869c0,15.467,12.539,28.006,28.006,28.006l0,0
	C440.461,643,453,630.461,453,614.994V235c0-22.091-17.909-40-40-40h-78H64.674h-29.85c-22.091,0-40,17.909-40,40v354.125H396.988z"
	/>
<path class="icon-color-3" visibility="hidden" d="M397,615v-25.852l-0.012-0.023H-39V615c0,15.464,12.536,28,28,28h435.994l0,0
	C409.533,642.997,397,630.462,397,615z"/>
<path class="icon-color-2" visibility="hidden" d="M452.5,278h-457v-43c0-22.091,17.909-40,40-40h377c22.091,0,40,17.909,40,40V278z"/>
<g>
	<path class="icon-color-1" visibility="hidden" d="M177.245,511L177.245,511c-15.464,0-28-12.536-28-28l0,0c0-15.464,12.536-28,28-28l0,0
		c15.464,0,28,12.536,28,28l0,0C205.245,498.464,192.709,511,177.245,511z"/>
	<path class="icon-color-1" visibility="hidden" d="M270.578,511L270.578,511c-15.464,0-28-12.536-28-28l0,0c0-15.464,12.536-28,28-28l0,0
		c15.464,0,28,12.536,28,28l0,0C298.578,498.464,286.042,511,270.578,511z"/>
</g>
<path class="icon-color-1" visibility="hidden" d="M363.912,511L363.912,511c-15.464,0-28-12.536-28-28l0,0c0-15.464,12.536-28,28-28l0,0
	c15.464,0,28,12.536,28,28l0,0C391.912,498.464,379.376,511,363.912,511z"/>
<g>
	<path class="icon-color-1" visibility="hidden" d="M83.912,407L83.912,407c-15.464,0-28-12.536-28-28l0,0c0-15.464,12.536-28,28-28l0,0
		c15.464,0,28,12.536,28,28l0,0C111.912,394.464,99.376,407,83.912,407z"/>
	<path class="icon-color-1" visibility="hidden" d="M270.578,407L270.578,407c-15.464,0-28-12.536-28-28l0,0c0-15.464,12.536-28,28-28l0,0
		c15.464,0,28,12.536,28,28l0,0C298.578,394.464,286.042,407,270.578,407z"/>
	<path class="icon-color-1" visibility="hidden" d="M177.245,407L177.245,407c-15.464,0-28-12.536-28-28l0,0c0-15.464,12.536-28,28-28l0,0
		c15.464,0,28,12.536,28,28l0,0C205.245,394.464,192.709,407,177.245,407z"/>
</g>
<g>
	<path class="icon-color-2" visibility="hidden" d="M363.912,407L363.912,407c-15.464,0-28-12.536-28-28l0,0c0-15.464,12.536-28,28-28l0,0
		c15.464,0,28,12.536,28,28l0,0C391.912,394.464,379.376,407,363.912,407z"/>
	<circle class="icon-color-2" visibility="hidden" cx="41.48" cy="517" r="72"/>
</g>
<g>
	<path class="icon-color-other" fill="#FFFFFF" visibility="hidden" d="M107.333,237.5c-11.046,0-20-8.954-20-20V171c0-11.046,8.954-20,20-20s20,8.954,20,20v46.5
		C127.333,228.546,118.379,237.5,107.333,237.5z"/>
	<path class="icon-color-other" fill="#FFFFFF" visibility="hidden" d="M335.333,237.5c-11.046,0-20-8.954-20-20V171c0-11.046,8.954-20,20-20s20,8.954,20,20v46.5
		C355.333,228.546,346.379,237.5,335.333,237.5z"/>
</g>
<path class="icon-color-outline" fill="#303030" d="M413,185h-47.667v-14c0-16.542-13.458-30-30-30s-30,13.458-30,30v14h-168v-14
	c0-16.542-13.458-30-30-30s-30,13.458-30,30v14.37c-0.85-0.235-1.741-0.37-2.666-0.37H34.823c-27.57,0-50,22.43-50,50v170.333
	c0,5.523,4.478,10,10,10s10-4.477,10-10V288h360.51c5.522,0,10-4.477,10-10s-4.478-10-10-10H4.823v-33c0-16.542,13.458-30,30-30
	h39.844c0.925,0,1.816-0.136,2.666-0.37v12.87c0,16.542,13.458,30,30,30s30-13.458,30-30V205h168v12.5c0,16.542,13.458,30,30,30
	s30-13.458,30-30V205H413c16.542,0,30,13.458,30,30v379.994c0,9.928-8.077,18.006-18.006,18.006s-18.006-8.078-18.006-18.006
	v-25.869c0-5.523-4.478-10-10-10H280.667c-5.522,0-10,4.477-10,10s4.478,10,10,10h106.321v15.869c0,6.511,1.648,12.643,4.545,18.006
	H-11c-9.925,0-18-8.075-18-18v-15.875h223.825c5.522,0,10-4.477,10-10s-4.478-10-10-10H94.909
	c17.474-15.049,28.57-37.309,28.57-62.125c0-45.215-36.785-82-82-82s-82,36.785-82,82c0,24.816,11.096,47.076,28.57,62.125H-39
	c-5.522,0-10,4.477-10,10V615c0,20.953,17.047,38,38,38h435.994C445.95,653,463,635.951,463,614.994V235
	C463,207.43,440.57,185,413,185z M117.333,217.5c0,5.514-4.486,10-10,10s-10-4.486-10-10V171c0-5.514,4.486-10,10-10s10,4.486,10,10
	V217.5z M345.333,217.5c0,5.514-4.486,10-10,10s-10-4.486-10-10V171c0-5.514,4.486-10,10-10s10,4.486,10,10V217.5z M-20.521,517
	c0-34.187,27.813-62,62-62s62,27.813,62,62s-27.813,62-62,62S-20.521,551.187-20.521,517z"/>
<path class="icon-color-outline" fill="#303030" d="M412.24,288c2.63,0,5.21-1.07,7.069-2.93c1.86-1.86,2.931-4.44,2.931-7.07s-1.07-5.21-2.931-7.07
	c-1.859-1.86-4.439-2.93-7.069-2.93c-2.631,0-5.21,1.07-7.07,2.93c-1.86,1.86-2.93,4.44-2.93,7.07s1.069,5.21,2.93,7.07
	S409.609,288,412.24,288z"/>
<path class="icon-color-outline" fill="#303030" d="M235.51,582.05c-1.86,1.87-2.93,4.44-2.93,7.07c0,2.64,1.069,5.21,2.93,7.08
	c1.86,1.86,4.44,2.92,7.07,2.92s5.21-1.06,7.069-2.92c1.86-1.87,2.931-4.45,2.931-7.08s-1.07-5.2-2.931-7.07
	c-1.859-1.86-4.439-2.92-7.069-2.92S237.37,580.19,235.51,582.05z"/>
<path class="icon-color-outline" fill="#303030" d="M177.245,521c20.953,0,38-17.047,38-38s-17.047-38-38-38s-38,17.047-38,38S156.292,521,177.245,521z
	 M177.245,465c9.925,0,18,8.075,18,18s-8.075,18-18,18s-18-8.075-18-18S167.32,465,177.245,465z"/>
<path class="icon-color-outline" fill="#303030" d="M270.578,521c20.953,0,38-17.047,38-38s-17.047-38-38-38s-38,17.047-38,38S249.625,521,270.578,521z
	 M270.578,465c9.925,0,18,8.075,18,18s-8.075,18-18,18s-18-8.075-18-18S260.653,465,270.578,465z"/>
<path class="icon-color-outline" fill="#303030" d="M363.912,521c20.953,0,38-17.047,38-38s-17.047-38-38-38s-38,17.047-38,38S342.959,521,363.912,521z
	 M363.912,465c9.925,0,18,8.075,18,18s-8.075,18-18,18s-18-8.075-18-18S353.987,465,363.912,465z"/>
<path class="icon-color-outline" fill="#303030" d="M121.912,379c0-20.953-17.047-38-38-38s-38,17.047-38,38s17.047,38,38,38
	S121.912,399.953,121.912,379z M65.912,379c0-9.925,8.075-18,18-18s18,8.075,18,18s-8.075,18-18,18S65.912,388.925,65.912,379z"/>
<path class="icon-color-outline" fill="#303030" d="M270.578,417c20.953,0,38-17.047,38-38s-17.047-38-38-38s-38,17.047-38,38S249.625,417,270.578,417z
	 M270.578,361c9.925,0,18,8.075,18,18s-8.075,18-18,18s-18-8.075-18-18S260.653,361,270.578,361z"/>
<path class="icon-color-outline" fill="#303030" d="M363.912,417c20.953,0,38-17.047,38-38s-17.047-38-38-38s-38,17.047-38,38S342.959,417,363.912,417z
	 M363.912,361c9.925,0,18,8.075,18,18s-8.075,18-18,18s-18-8.075-18-18S353.987,361,363.912,361z"/>
<path class="icon-color-outline" fill="#303030" d="M177.245,417c20.953,0,38-17.047,38-38s-17.047-38-38-38s-38,17.047-38,38S156.292,417,177.245,417z
	 M177.245,361c9.925,0,18,8.075,18,18s-8.075,18-18,18s-18-8.075-18-18S167.32,361,177.245,361z"/>
<path class="icon-color-other" fill="#F0F0FA" visibility="hidden" d="M23.324,546.409c1.876,1.875,4.419,2.929,7.071,2.929s5.195-1.054,7.071-2.929l39.638-39.638
	c3.905-3.905,3.905-10.237,0-14.142c-3.906-3.905-10.236-3.905-14.143,0l-32.566,32.567l-11.129-11.129
	c-3.906-3.905-10.236-3.905-14.143,0c-3.905,3.905-3.905,10.237,0,14.143L23.324,546.409z"/>
</svg>
