<?xml version="1.0" encoding="iso-8859-1"?>
<!-- Generator: Adobe Illustrator 19.0.0, SVG Export Plug-In . SVG Version: 6.00 Build 0)  -->
<svg version="1.1" id="Capa_1" xmlns="http://www.w3.org/2000/svg" xmlns:xlink="http://www.w3.org/1999/xlink" x="0px" y="0px"
	 viewBox="-49 141 512 512" style="enable-background:new -49 141 512 512;" xml:space="preserve">
<path class="icon-color-2" visibility="hidden" d="M453,222c0-22-18-40-40-40H1c-22,0-40,18-40,40v32h492V222z"/>
<path class="icon-color-other" fill="#FFFFFF" visibility="hidden" d="M-39,254v349c0,22,18,40,40,40h412c22,0,40-18,40-40V254H-39z"/>
<path class="icon-color-1" visibility="hidden" d="M53.941,433L151,334l65,45l62-79l119,94.615V254H17v179H53.941z"/>
<polygon class="icon-color-other" fill="#00F490" visibility="hidden" points="216,379 151,334 53.941,433 397,433 397,394.615 278,300 "/>
<circle class="icon-color-3" visibility="hidden" cx="77" cy="315" r="20"/>
<g>
	<path class="icon-color-outline" fill="#303030" d="M413,172h-43.96v-21c0-5.51-4.48-10-10-10c-5.51,0-10,4.49-10,10v21h-81.53v-21
		c0-5.51-4.479-10-9.99-10c-5.52,0-10,4.49-10,10v21h-81.04v-21c0-5.51-4.479-10-10-10c-5.51,0-10,4.49-10,10v21H65.04v-21
		c0-5.51-4.48-10-10-10c-5.51,0-10,4.49-10,10v21H1c-27.57,0-50,22.43-50,50v381c0,27.57,22.43,50,50,50h412c27.57,0,50-22.43,50-50
		V222C463,194.43,440.57,172,413,172z M-29,222c0-16.542,13.458-30,30-30h44.04v18.85c0,5.51,4.49,10,10,10c5.52,0,10-4.49,10-10
		V192h81.439v18.85c0,5.51,4.49,10,10,10c5.521,0,10-4.49,10-10V192h81.04v18.85c0,5.51,4.48,10,10,10c5.511,0,9.99-4.49,9.99-10
		V192h81.53v18.85c0,5.51,4.49,10,10,10c5.52,0,10-4.49,10-10V192H413c16.542,0,30,13.458,30,30v22H-29V222z M387,399.44V423H77.75
		l74.489-75.979l58.068,40.201c4.35,3.014,10.293,2.112,13.559-2.048l55.787-71.083L387,399.44z M387,373.889l-102.776-81.716
		c-2.085-1.658-4.74-2.416-7.39-2.104c-2.645,0.311-5.057,1.663-6.7,3.758l-56.186,71.591l-57.256-39.639
		c-4.008-2.773-9.425-2.255-12.833,1.221l-94.118,96H27V264h360V373.889z M443,603c0,16.542-13.458,30-30,30H1
		c-16.542,0-30-13.458-30-30V264H7v169c0,5.522,4.478,10,10,10h380c5.522,0,10-4.478,10-10V264h36V603z"/>
	<path class="icon-color-outline" fill="#303030" d="M22,507H4c-5.522,0-10,4.478-10,10c0,5.522,4.478,10,10,10h18c5.522,0,10-4.478,10-10
		C32,511.478,27.522,507,22,507z"/>
	<path class="icon-color-outline" fill="#303030" d="M86,507H68c-5.522,0-10,4.478-10,10c0,5.522,4.478,10,10,10h18c5.522,0,10-4.478,10-10
		C96,511.478,91.522,507,86,507z"/>
	<path class="icon-color-outline" fill="#303030" d="M151,507h-18c-5.522,0-10,4.478-10,10c0,5.522,4.478,10,10,10h18c5.522,0,10-4.478,10-10
		C161,511.478,156.522,507,151,507z"/>
	<path class="icon-color-outline" fill="#303030" d="M216,507h-18c-5.522,0-10,4.478-10,10c0,5.522,4.478,10,10,10h18c5.522,0,10-4.478,10-10
		C226,511.478,221.522,507,216,507z"/>
	<path class="icon-color-outline" fill="#303030" d="M281,507h-18c-5.522,0-10,4.478-10,10c0,5.522,4.478,10,10,10h18c5.522,0,10-4.478,10-10
		C291,511.478,286.522,507,281,507z"/>
	<path class="icon-color-outline" fill="#303030" d="M346,507h-18c-5.522,0-10,4.478-10,10c0,5.522,4.478,10,10,10h18c5.522,0,10-4.478,10-10
		C356,511.478,351.522,507,346,507z"/>
	<path class="icon-color-outline" fill="#303030" d="M411,507h-18c-5.522,0-10,4.478-10,10c0,5.522,4.478,10,10,10h18c5.522,0,10-4.478,10-10
		C421,511.478,416.522,507,411,507z"/>
	<path class="icon-color-outline" fill="#303030" d="M86,465H68c-5.522,0-10,4.478-10,10s4.478,10,10,10h18c5.522,0,10-4.478,10-10S91.522,465,86,465z"
		/>
	<path class="icon-color-outline" fill="#303030" d="M151,465h-18c-5.522,0-10,4.478-10,10s4.478,10,10,10h18c5.522,0,10-4.478,10-10
		S156.522,465,151,465z"/>
	<path class="icon-color-outline" fill="#303030" d="M216,465h-18c-5.522,0-10,4.478-10,10s4.478,10,10,10h18c5.522,0,10-4.478,10-10
		S221.522,465,216,465z"/>
	<path class="icon-color-outline" fill="#303030" d="M281,465h-18c-5.522,0-10,4.478-10,10s4.478,10,10,10h18c5.522,0,10-4.478,10-10
		S286.522,465,281,465z"/>
	<path class="icon-color-outline" fill="#303030" d="M346,465h-18c-5.522,0-10,4.478-10,10s4.478,10,10,10h18c5.522,0,10-4.478,10-10
		S351.522,465,346,465z"/>
	<path class="icon-color-outline" fill="#303030" d="M393,465c-5.522,0-10,4.478-10,10s4.478,10,10,10h18c5.522,0,10-4.478,10-10s-4.478-10-10-10H393z"
		/>
	<path class="icon-color-outline" fill="#303030" d="M22,549H4c-5.522,0-10,4.478-10,10s4.478,10,10,10h18c5.522,0,10-4.478,10-10S27.522,549,22,549z"/>
	<path class="icon-color-outline" fill="#303030" d="M86,549H68c-5.522,0-10,4.478-10,10s4.478,10,10,10h18c5.522,0,10-4.478,10-10S91.522,549,86,549z"
		/>
	<path class="icon-color-outline" fill="#303030" d="M151,549h-18c-5.522,0-10,4.478-10,10s4.478,10,10,10h18c5.522,0,10-4.478,10-10
		S156.522,549,151,549z"/>
	<path class="icon-color-outline" fill="#303030" d="M216,549h-18c-5.522,0-10,4.478-10,10s4.478,10,10,10h18c5.522,0,10-4.478,10-10
		S221.522,549,216,549z"/>
	<path class="icon-color-outline" fill="#303030" d="M281,549h-18c-5.522,0-10,4.478-10,10s4.478,10,10,10h18c5.522,0,10-4.478,10-10
		S286.522,549,281,549z"/>
	<path class="icon-color-outline" fill="#303030" d="M346,549h-18c-5.522,0-10,4.478-10,10s4.478,10,10,10h18c5.522,0,10-4.478,10-10
		S351.522,549,346,549z"/>
	<path class="icon-color-outline" fill="#303030" d="M411,549h-18c-5.522,0-10,4.478-10,10s4.478,10,10,10h18c5.522,0,10-4.478,10-10
		S416.522,549,411,549z"/>
	<path class="icon-color-outline" fill="#303030" d="M22,591H4c-5.522,0-10,4.478-10,10s4.478,10,10,10h18c5.522,0,10-4.478,10-10S27.522,591,22,591z"/>
	<path class="icon-color-outline" fill="#303030" d="M86,591H68c-5.522,0-10,4.478-10,10s4.478,10,10,10h18c5.522,0,10-4.478,10-10S91.522,591,86,591z"
		/>
	<path class="icon-color-outline" fill="#303030" d="M151,591h-18c-5.522,0-10,4.478-10,10s4.478,10,10,10h18c5.522,0,10-4.478,10-10
		S156.522,591,151,591z"/>
	<path class="icon-color-outline" fill="#303030" d="M216,591h-18c-5.522,0-10,4.478-10,10s4.478,10,10,10h18c5.522,0,10-4.478,10-10
		S221.522,591,216,591z"/>
	<path class="icon-color-outline" fill="#303030" d="M281,591h-18c-5.522,0-10,4.478-10,10s4.478,10,10,10h18c5.522,0,10-4.478,10-10
		S286.522,591,281,591z"/>
	<path class="icon-color-outline" fill="#303030" d="M77,345c16.542,0,30-13.458,30-30s-13.458-30-30-30s-30,13.458-30,30S60.458,345,77,345z M77,305
		c5.514,0,10,4.486,10,10s-4.486,10-10,10s-10-4.486-10-10S71.486,305,77,305z"/>
</g>
</svg>
