<?xml version="1.0" encoding="iso-8859-1"?>
<!-- Generator: Adobe Illustrator 19.0.0, SVG Export Plug-In . SVG Version: 6.00 Build 0)  -->
<svg version="1.1" id="Capa_1" xmlns="http://www.w3.org/2000/svg" xmlns:xlink="http://www.w3.org/1999/xlink" x="0px" y="0px"
	 viewBox="-49 141 512 512" style="enable-background:new -49 141 512 512;" xml:space="preserve">
<circle class="icon-color-2" visibility="hidden"  cx="207" cy="397" r="246"/>
<path class="icon-color-1" visibility="hidden"  d="M278.722,291.998c-28.251,0-53.728,12.173-71.725,31.68c-17.997-19.507-43.474-31.68-71.724-31.68
	c-54.529,0-98.734,45.34-98.734,101.271c0,78.344,170.458,186.249,170.458,186.249s170.458-107.905,170.458-186.249
	C377.456,337.338,333.251,291.998,278.722,291.998z"/>
<path class="icon-color-outline" fill="#303030" d="M206.998,652.998c-68.38,0-132.667-26.629-181.02-74.98
	c-43.184-43.185-69.544-100.458-74.222-161.269c-4.627-60.148,12.099-120.113,47.096-168.851c3.222-4.484,9.469-5.511,13.956-2.29
	c4.486,3.222,5.511,9.47,2.29,13.956c-67.638,94.192-57.115,222.173,25.023,304.311c44.574,44.575,103.839,69.123,166.877,69.123
	S329.3,608.45,373.875,563.875c44.575-44.574,69.123-103.839,69.123-166.877s-24.548-122.303-69.123-166.877
	c-81.754-81.754-209.363-92.545-303.427-25.656c-4.501,3.201-10.744,2.146-13.944-2.354c-3.201-4.501-2.146-10.744,2.354-13.944
	c48.714-34.643,108.545-51.113,168.453-46.366c60.594,4.795,117.667,31.139,160.706,74.178c48.352,48.353,74.98,112.64,74.98,181.02
	s-26.629,132.667-74.98,181.02C339.665,626.369,275.378,652.998,206.998,652.998z"/>
<path class="icon-color-outline" fill="#303030" d="M32.954,233.146c-2.567,0-5.135-0.982-7.089-2.947c-3.896-3.915-3.879-10.247,0.036-14.142
	l0.19-0.189c3.915-3.896,10.245-3.882,14.142,0.036c3.896,3.915,3.879,10.247-0.036,14.142l-0.19,0.189
	C38.055,232.176,35.504,233.146,32.954,233.146z"/>
<path class="icon-color-outline" fill="#303030" d="M206.998,589.518c-1.857,0-3.716-0.517-5.349-1.551c-1.766-1.117-43.729-27.795-86.413-64.623
	C56.382,472.562,26.54,428.799,26.54,393.269c0-61.354,48.777-111.271,108.733-111.271c26.795,0,51.905,9.739,71.725,27.626
	c19.819-17.887,44.93-27.626,71.725-27.626c59.956,0,108.733,49.916,108.733,111.271c0,35.53-29.842,79.293-88.696,130.075
	c-42.684,36.828-84.647,63.506-86.413,64.623C210.713,589.001,208.855,589.518,206.998,589.518z M135.273,301.998
	c-48.928,0-88.733,40.943-88.733,91.271c0,29.037,28.272,68.78,81.762,114.933c32.901,28.388,66.102,51.052,78.73,59.403
	c49.386-32.248,160.425-116.822,160.425-174.336c0-50.327-39.806-91.271-88.733-91.271c-24.58,0-47.442,10.107-64.375,28.461
	c-1.893,2.052-4.558,3.219-7.35,3.219c-2.792,0-5.457-1.167-7.35-3.219C182.715,312.106,159.853,301.998,135.273,301.998z"/>
<path class="icon-color-outline" fill="#303030" d="M334.841,403.269c-5.522,0-10-4.478-10-10c0-26.838-20.689-48.673-46.119-48.673
	c-2.584,0-5.165,0.223-7.673,0.662c-5.438,0.946-10.622-2.687-11.575-8.126c-0.952-5.44,2.686-10.622,8.126-11.575
	c3.644-0.638,7.386-0.961,11.122-0.961c36.458,0,66.119,30.807,66.119,68.673C344.841,398.791,340.364,403.269,334.841,403.269z
	 M238.323,362.555c-2.456,0-4.916-0.898-6.847-2.714c-4.024-3.782-4.221-10.111-0.438-14.135l0.07-0.076
	c3.741-4.062,10.069-4.32,14.13-0.577c4.062,3.742,4.32,10.069,0.577,14.13l-0.205,0.221
	C243.643,361.497,240.986,362.555,238.323,362.555z"/>
<path class="icon-color-outline" fill="#303030" d="M206.998,236.202c-5.522,0-10-4.478-10-10v-26.096c0-5.522,4.478-10,10-10c5.522,0,10,4.478,10,10
	v26.097C216.998,231.725,212.52,236.202,206.998,236.202z"/>
<path class="icon-color-outline" fill="#303030" d="M109.48,263.547c-2.56,0-5.118-0.977-7.071-2.929l-18.453-18.453c-3.905-3.905-3.905-10.237,0-14.143
	c3.906-3.904,10.236-3.904,14.143,0l18.453,18.453c3.905,3.905,3.905,10.237,0,14.143C114.598,262.57,112.04,263.547,109.48,263.547
	z"/>
<path class="icon-color-outline" fill="#303030" d="M304.515,263.547c-2.56,0-5.118-0.977-7.071-2.929c-3.905-3.905-3.905-10.237,0-14.143l18.453-18.453
	c3.906-3.904,10.236-3.904,14.143,0c3.905,3.905,3.905,10.237,0,14.143l-18.453,18.453
	C309.633,262.57,307.075,263.547,304.515,263.547z"/>
</svg>
