<?xml version="1.0" encoding="utf-8"?>
<!-- Generator: Adobe Illustrator 15.0.0, SVG Export Plug-In . SVG Version: 6.00 Build 0)  -->
<!DOCTYPE svg PUBLIC "-//W3C//DTD SVG 1.1//EN" "http://www.w3.org/Graphics/SVG/1.1/DTD/svg11.dtd">
<svg version="1.1" id="Layer_1" xmlns="http://www.w3.org/2000/svg" xmlns:xlink="http://www.w3.org/1999/xlink" x="0px" y="0px"
	 width="105.152px" height="105.153px" viewBox="253.124 343.601 105.152 105.153"
	 enable-background="new 253.124 343.601 105.152 105.153" xml:space="preserve">
<g>
	<path fill="#0E2A6B" d="M358.276,396.177c0,29.037-23.54,52.577-52.576,52.577c-29.038,0-52.576-23.54-52.576-52.577
		c0-29.037,23.539-52.576,52.576-52.576C334.736,343.602,358.276,367.14,358.276,396.177L358.276,396.177z"/>
	<path fill="#0B1D42" d="M356.587,382.921l-16.091-12.441v5.668h-7.805v23.617h-53.397v5.751h-9.242l-0.103,12.974l42.268,29.752
		l-0.066,0.102c25.99-3.182,46.125-25.315,46.125-52.167C358.276,391.598,357.688,387.157,356.587,382.921L356.587,382.921z"/>
	<path fill="#B8D12F" d="M342.247,416.487c0,1.552-1.137,2.821-2.521,2.821h-68.017c-1.383,0-2.519-1.27-2.519-2.821v-43.275
		c0-1.552,1.135-2.822,2.519-2.822h68.017c1.385,0,2.521,1.27,2.521,2.822V416.487z"/>
	<path fill="#0B1D42" d="M308.278,401.149c-1.25,0.987-3.304,0.999-4.565,0.028l-34.523-26.645v5.644l34.523,26.644
		c1.262,0.973,3.315,0.961,4.565-0.026l33.969-26.819v-5.646L308.278,401.149z"/>
	<path fill="#EBEBEB" d="M339.726,370.39h-68.017c-1.383,0-2.519,1.27-2.519,2.822v1.321l34.523,26.645
		c1.262,0.971,3.315,0.959,4.565-0.028l33.969-26.82v-1.117C342.247,371.66,341.11,370.39,339.726,370.39L339.726,370.39z"/>
</g>
</svg>
