<svg width="54" height="38" viewBox="0 0 54 38" fill="none" xmlns="http://www.w3.org/2000/svg">
<path d="M25.2581 26.5479C25.2581 29.8447 24.2129 32.4475 22.1226 34.7032C20.0323 36.7854 17.2452 38 13.9355 38C9.75484 38 6.44516 36.4384 3.83226 33.4886C1.39355 30.3653 0 26.7215 0 22.5571C0 16.3105 2.26452 11.105 6.96774 6.76712C11.4968 2.25571 17.071 0 23.5161 0L23.6903 1.90868C19.6839 1.90868 16.0258 3.2968 12.7161 6.07306C9.40645 8.84932 7.83871 12.1461 7.83871 15.79C7.83871 16.6575 8.0129 17.1781 8.1871 17.6986C8.36129 18.0457 8.70968 18.3927 9.05806 18.3927C9.58064 18.3927 10.6258 18.0457 11.671 17.5251C12.8903 16.8311 13.9355 16.6575 14.8065 16.6575C17.5935 16.6575 20.0323 17.5251 22.1226 19.4338C24.2129 21.3425 25.2581 23.7717 25.2581 26.5479ZM54 26.5479C54 29.8447 52.9548 32.4475 50.8645 34.7032C48.7742 36.7854 45.9871 38 42.6774 38C38.4968 38 35.1871 36.4384 32.5742 33.4886C29.9613 30.3653 28.5677 26.7215 28.5677 22.5571C28.5677 16.3105 30.8323 11.105 35.5355 6.76712C40.0645 2.25571 45.6387 0 52.2581 0L52.4323 1.90868C48.4258 1.90868 44.7677 3.2968 41.4581 6.07306C38.1484 8.84932 36.4065 12.1461 36.4065 15.79C36.4065 16.6575 36.5806 17.1781 36.7548 17.6986C36.929 18.0457 37.2774 18.3927 37.6258 18.3927C38.1484 18.3927 39.1936 18.0457 40.2387 17.5251C41.4581 17.0046 42.5032 16.6575 43.3742 16.6575C46.1613 16.6575 48.6 17.5251 50.6903 19.4338C52.7806 21.3425 54 23.7717 54 26.5479Z" fill="#EEEEEE"/>
</svg>
