<svg width="54" height="38" viewBox="0 0 54 38" fill="none" xmlns="http://www.w3.org/2000/svg">
<path d="M28.7419 11.4521C28.7419 8.15525 29.7871 5.55251 31.8774 3.2968C33.9677 1.21461 36.7548 1.50762e-06 40.0645 1.21828e-06C44.2452 8.52795e-07 47.5548 1.56165 50.1677 4.51142C52.6064 7.6347 54 11.2785 54 15.4429C54 21.6895 51.7355 26.895 47.0323 31.2329C42.5032 35.7443 36.929 38 30.4839 38L30.3097 36.0913C34.3161 36.0913 37.9742 34.7032 41.2839 31.9269C44.5935 29.1507 46.1613 25.8539 46.1613 22.21C46.1613 21.3425 45.9871 20.8219 45.8129 20.3014C45.6387 19.9543 45.2903 19.6073 44.9419 19.6073C44.4194 19.6073 43.3742 19.9543 42.329 20.4749C41.1097 21.169 40.0645 21.3425 39.1935 21.3425C36.4065 21.3425 33.9677 20.4749 31.8774 18.5662C29.7871 16.6575 28.7419 14.2283 28.7419 11.4521ZM-2.3209e-06 11.4521C-2.60911e-06 8.15526 1.04516 5.55251 3.13548 3.29681C5.2258 1.21462 8.0129 4.02032e-06 11.3226 3.73098e-06C15.5032 3.36549e-06 18.8129 1.56165 21.4258 4.51142C24.0387 7.63471 25.4323 11.2785 25.4323 15.4429C25.4323 21.6895 23.1677 26.895 18.4645 31.2329C13.9355 35.7443 8.36129 38 1.74194 38L1.56774 36.0913C5.57419 36.0913 9.23226 34.7032 12.5419 31.9269C15.8516 29.1507 17.5935 25.8539 17.5935 22.21C17.5935 21.3425 17.4194 20.8219 17.2452 20.3014C17.071 19.9543 16.7226 19.6073 16.3742 19.6073C15.8516 19.6073 14.8064 19.9543 13.7613 20.4749C12.5419 20.9954 11.4968 21.3425 10.6258 21.3425C7.83871 21.3425 5.4 20.4749 3.30968 18.5662C1.21935 16.6575 -2.07819e-06 14.2283 -2.3209e-06 11.4521Z" fill="#EEEEEE"/>
</svg>
