<svg width="25" height="22" viewBox="0 0 25 22" fill="none" xmlns="http://www.w3.org/2000/svg">
<g clip-path="url(#clip0)">
<path d="M0.876953 3.50586H23.6658V21.0357H0.876953V3.50586Z" fill="white"/>
<path fill-rule="evenodd" clip-rule="evenodd" d="M22.9641 19.2829C22.9641 19.9841 22.3506 20.5976 21.6494 20.5976H2.71713C2.01594 20.5976 1.40239 19.9841 1.40239 19.2829V5.25896C1.40239 4.55777 2.01594 3.94422 2.71713 3.94422H4.90837V5.52191C4.90837 5.87251 5.25896 6.22311 5.69721 6.22311C6.04781 6.22311 6.31076 5.87251 6.39841 5.52191V3.94422H11.5697V5.52191C11.5697 5.87251 11.9203 6.22311 12.3586 6.22311C12.7092 6.22311 12.9721 5.87251 13.0598 5.52191V3.94422H18.2311V5.52191C18.2311 5.96016 18.5817 6.22311 18.9323 6.22311C19.3705 6.22311 19.6335 5.87251 19.6335 5.52191V3.94422H21.8247C22.5259 3.94422 23.1394 4.55777 23.1394 5.25896C22.9641 5.25896 22.9641 19.2829 22.9641 19.2829ZM21.7371 2.54183H19.5458V0.701195C19.5458 0.262948 19.1952 0 18.8446 0C18.4064 0 18.1434 0.350598 18.1434 0.701195V2.54183H12.9721V0.701195C12.9721 0.262948 12.6215 0 12.2709 0C11.8327 0 11.5697 0.350598 11.5697 0.701195V2.54183H6.31076V0.701195C6.31076 0.350598 6.04781 0 5.60956 0C5.25896 0 4.90837 0.350598 4.90837 0.701195V2.54183H2.71713C1.22709 2.54183 0 3.76892 0 5.25896V19.2829C0 20.7729 1.22709 22 2.71713 22H21.7371C23.2271 22 24.4542 20.7729 24.4542 19.2829V5.25896C24.4542 3.76892 23.2271 2.54183 21.7371 2.54183Z" fill="currentColor"/>
<path fill-rule="evenodd" clip-rule="evenodd" d="M6.57354 9.11548H5.69705C5.2588 9.11548 4.9082 9.37843 4.9082 9.72902C4.9082 10.0796 5.2588 10.3426 5.69705 10.3426H6.57354C7.01179 10.3426 7.36239 10.0796 7.36239 9.72902C7.36239 9.46608 7.01179 9.11548 6.57354 9.11548ZM10.7807 9.11548H9.90422C9.46597 9.11548 9.11537 9.37843 9.11537 9.72902C9.11537 10.0796 9.46597 10.3426 9.90422 10.3426H10.7807C11.219 10.3426 11.5696 10.0796 11.5696 9.72902C11.5696 9.46608 11.219 9.11548 10.7807 9.11548ZM15.0755 9.11548H14.199C13.7608 9.11548 13.4102 9.37843 13.4102 9.72902C13.4102 10.0796 13.7608 10.3426 14.199 10.3426H15.0755C15.5138 10.3426 15.8644 10.0796 15.8644 9.72902C15.8644 9.46608 15.5138 9.11548 15.0755 9.11548ZM18.7568 9.11548H17.8803C17.4421 9.11548 17.0915 9.37843 17.0915 9.72902C17.0915 10.0796 17.4421 10.3426 17.8803 10.3426H18.7568C19.1951 10.3426 19.5457 10.0796 19.5457 9.72902C19.5457 9.46608 19.1951 9.11548 18.7568 9.11548ZM6.57354 12.1832H5.69705C5.2588 12.1832 4.9082 12.4462 4.9082 12.7968C4.9082 13.1474 5.2588 13.4103 5.69705 13.4103H6.57354C7.01179 13.4103 7.36239 13.1474 7.36239 12.7968C7.36239 12.4462 7.01179 12.1832 6.57354 12.1832ZM10.7807 12.1832H9.90422C9.46597 12.1832 9.11537 12.4462 9.11537 12.7968C9.11537 13.1474 9.46597 13.4103 9.90422 13.4103H10.7807C11.219 13.4103 11.5696 13.1474 11.5696 12.7968C11.5696 12.4462 11.219 12.1832 10.7807 12.1832ZM15.0755 12.1832H14.199C13.7608 12.1832 13.4102 12.4462 13.4102 12.7968C13.4102 13.1474 13.7608 13.4103 14.199 13.4103H15.0755C15.5138 13.4103 15.8644 13.1474 15.8644 12.7968C15.8644 12.4462 15.5138 12.1832 15.0755 12.1832ZM18.7568 12.1832H17.8803C17.4421 12.1832 17.0915 12.4462 17.0915 12.7968C17.0915 13.1474 17.4421 13.4103 17.8803 13.4103H18.7568C19.1951 13.4103 19.5457 13.1474 19.5457 12.7968C19.5457 12.4462 19.1951 12.1832 18.7568 12.1832ZM6.57354 15.2509H5.69705C5.2588 15.2509 4.9082 15.5139 4.9082 15.8645C4.9082 16.2151 5.2588 16.478 5.69705 16.478H6.57354C7.01179 16.478 7.36239 16.2151 7.36239 15.8645C7.36239 15.5139 7.01179 15.2509 6.57354 15.2509ZM10.7807 15.2509H9.90422C9.46597 15.2509 9.11537 15.5139 9.11537 15.8645C9.11537 16.2151 9.46597 16.478 9.90422 16.478H10.7807C11.219 16.478 11.5696 16.2151 11.5696 15.8645C11.5696 15.5139 11.219 15.2509 10.7807 15.2509ZM15.0755 15.2509H14.199C13.7608 15.2509 13.4102 15.5139 13.4102 15.8645C13.4102 16.2151 13.7608 16.478 14.199 16.478H15.0755C15.5138 16.478 15.8644 16.2151 15.8644 15.8645C15.8644 15.5139 15.5138 15.2509 15.0755 15.2509ZM18.7568 15.2509H17.8803C17.4421 15.2509 17.0915 15.5139 17.0915 15.8645C17.0915 16.2151 17.4421 16.478 17.8803 16.478H18.7568C19.1951 16.478 19.5457 16.2151 19.5457 15.8645C19.5457 15.5139 19.1951 15.2509 18.7568 15.2509Z" fill="currentColor"/>
</g>
<defs>
<clipPath id="clip0">
<rect width="24.5418" height="22" fill="white"/>
</clipPath>
</defs>
</svg>
