<svg width="22" height="25" viewBox="0 0 22 25" fill="none" xmlns="http://www.w3.org/2000/svg">
<path fill-rule="evenodd" clip-rule="evenodd" d="M10.9996 23.5173C5.91684 23.5173 1.74442 19.4207 1.74442 14.3379C1.74442 9.48277 5.53753 5.53794 10.3927 5.2345V14.3379C10.3927 14.4897 10.4686 14.7173 10.6203 14.7931C10.772 14.9448 10.9237 15.0207 11.0755 15.0207C11.2272 15.0207 11.4548 14.9448 11.5306 14.7931L18.0548 8.34484C19.4961 10.0138 20.3306 12.1379 20.3306 14.3379C20.2548 19.4207 16.0824 23.5173 10.9996 23.5173ZM17.0686 7.4345L11.6824 12.7448V5.15863C13.6548 5.38622 15.5513 6.14484 17.0686 7.4345ZM18.5099 6.97932C18.4341 6.97932 18.4341 6.97932 18.5099 6.97932C16.6134 5.15863 14.1858 4.09657 11.6824 3.94484V1.59312H13.6548C14.0341 1.59312 14.3375 1.28967 14.3375 0.910359C14.3375 0.531048 14.0341 0.2276 13.6548 0.2276H8.34442C7.96511 0.2276 7.66166 0.531048 7.66166 0.910359C7.66166 1.28967 7.96511 1.59312 8.34442 1.59312H10.3927V3.94484C4.77891 4.24829 0.378906 8.80001 0.378906 14.3379C0.378906 20.1035 5.15822 24.8069 10.9996 24.8069C16.841 24.8069 21.6203 20.1035 21.6203 14.3379C21.6203 11.531 20.4065 8.95174 18.5099 6.97932C18.5099 7.05519 18.5099 6.97932 18.5099 6.97932Z" fill="currentColor"/>
</svg>
