<svg width="39" height="35" viewBox="0 0 39 35" fill="none" xmlns="http://www.w3.org/2000/svg">
<path d="M37.7213 3.46789H29.4098C28.8344 1.47706 27.0443 0 24.8705 0C22.6967 0 20.9066 1.47706 20.3311 3.46789H1.27869C0.57541 3.46789 0 4.04587 0 4.75229C0 5.45872 0.57541 6.0367 1.27869 6.0367H20.3311C20.9066 8.02752 22.6967 9.50459 24.8705 9.50459C27.0443 9.50459 28.8344 8.02752 29.4098 6.0367H37.7213C38.4246 6.0367 39 5.45872 39 4.75229C39 4.04587 38.4246 3.46789 37.7213 3.46789ZM24.8705 6.93578C23.6557 6.93578 22.6967 5.97248 22.6967 4.75229C22.6967 3.53211 23.6557 2.56881 24.8705 2.56881C26.0852 2.56881 27.0443 3.53211 27.0443 4.75229C27.0443 5.97248 26.0213 6.93578 24.8705 6.93578Z" fill="#1E3B49"/>
<path d="M1.27869 18.7523H9.59016C10.1656 20.7431 11.9557 22.2202 14.1295 22.2202C16.3033 22.2202 18.0934 20.7431 18.6689 18.7523H37.7213C38.4246 18.7523 39 18.1743 39 17.4679C39 16.7614 38.4246 16.1835 37.7213 16.1835H18.7328C18.1574 14.1926 16.3672 12.7156 14.1934 12.7156C12.0197 12.7156 10.2295 14.1926 9.6541 16.1835H1.27869C0.57541 16.1835 0 16.7614 0 17.4679C0 18.1743 0.57541 18.7523 1.27869 18.7523ZM14.1934 15.2844C15.4082 15.2844 16.3672 16.2477 16.3672 17.4679C16.3672 18.6881 15.4082 19.6514 14.1934 19.6514C12.9787 19.6514 12.0197 18.6881 12.0197 17.4679C12.0197 16.2477 12.9787 15.2844 14.1934 15.2844Z" fill="#1E3B49"/>
<path d="M37.7213 28.9632H29.4098C28.8344 26.9724 27.0443 25.4954 24.8705 25.4954C22.6967 25.4954 20.9066 26.9724 20.3311 28.9632H1.27869C0.57541 28.9632 0 29.5412 0 30.2477C0 30.9541 0.57541 31.5321 1.27869 31.5321H20.3311C20.9066 33.5229 22.6967 34.9999 24.8705 34.9999C27.0443 34.9999 28.8344 33.5229 29.4098 31.5321H37.7213C38.4246 31.5321 39 30.9541 39 30.2477C39 29.5412 38.4246 28.9632 37.7213 28.9632ZM24.8705 32.4311C23.6557 32.4311 22.6967 31.4678 22.6967 30.2477C22.6967 29.0275 23.6557 28.0642 24.8705 28.0642C26.0852 28.0642 27.0443 29.0275 27.0443 30.2477C27.0443 31.4678 26.0213 32.4311 24.8705 32.4311Z" fill="#1E3B49"/>
</svg>
