<svg width="22" height="28" viewBox="0 0 22 28" fill="none" xmlns="http://www.w3.org/2000/svg">
<path fill-rule="evenodd" clip-rule="evenodd" d="M18.2824 16.6138C17.0686 18.2069 15.3996 19.3448 13.5031 19.8759C13.2755 19.9517 13.1238 20.1034 13.0479 20.331L10.9996 25.2621L8.95135 20.331C8.87548 20.1034 8.72376 19.9517 8.49617 19.8759C6.59962 19.3448 4.93066 18.2069 3.71686 16.6138C2.50307 15.0207 1.82031 13.0483 1.82031 11C1.82031 5.91723 5.91686 1.82068 10.9996 1.82068C16.0824 1.82068 20.1789 5.91723 20.1789 11C20.1789 13.0483 19.4962 14.9448 18.2824 16.6138Z" fill="white"/>
<path fill-rule="evenodd" clip-rule="evenodd" d="M11.0005 15.0966C8.72465 15.0966 6.8281 13.2759 6.8281 10.9242C6.8281 8.64829 8.64879 6.75174 11.0005 6.75174C13.2764 6.75174 15.1729 8.57243 15.1729 10.9242C15.1729 13.2759 13.2764 15.0966 11.0005 15.0966ZM11.0005 5.31036C7.89017 5.31036 5.38672 7.81381 5.38672 10.9242C5.38672 14.0345 7.89017 16.5379 11.0005 16.5379C14.1109 16.5379 16.6143 14.0345 16.6143 10.9242C16.6143 7.81381 14.1109 5.31036 11.0005 5.31036Z" fill="currentColor"/>
<path fill-rule="evenodd" clip-rule="evenodd" d="M18.2824 16.6138C17.0686 18.2069 15.3996 19.3448 13.503 19.8759C13.2755 19.9517 13.1237 20.1035 13.0479 20.3311L10.9996 25.2621L8.95132 20.3311C8.87546 20.1035 8.72373 19.9517 8.49615 19.8759C6.5996 19.3448 4.93063 18.2069 3.71684 16.6138C2.50304 15.0207 1.82029 13.0483 1.82029 11C1.82029 5.91726 5.91684 1.82071 10.9996 1.82071C16.0824 1.82071 20.1789 5.91726 20.1789 11C20.1789 13.0483 19.4961 14.9448 18.2824 16.6138ZM10.9996 0.303467C5.15822 0.303467 0.378906 5.08278 0.378906 10.9242C0.378906 13.2759 1.13753 15.5517 2.57891 17.3724C3.86856 19.1173 5.68925 20.4069 7.73753 21.0138L10.3168 27.2345C10.4686 27.6138 10.9237 27.7655 11.303 27.6138C11.4548 27.5379 11.6065 27.3862 11.6824 27.2345L14.2617 21.0138C16.3099 20.3311 18.1306 19.0414 19.4203 17.3724C20.8617 15.5517 21.6203 13.2759 21.6203 10.9242C21.6203 5.08278 16.841 0.303467 10.9996 0.303467Z" fill="currentColor"/>
</svg>
