<svg width="21" height="21" viewBox="0 0 21 21" fill="none" xmlns="http://www.w3.org/2000/svg">
<path d="M20.7081 8.95441C20.9778 8.67739 21.069 8.27749 20.946 7.91072C20.8232 7.54446 20.51 7.28068 20.1285 7.22224L14.1618 6.30861C14.1247 6.30291 14.0929 6.27904 14.0768 6.24467L11.4287 0.590994C11.258 0.226447 10.9021 0 10.4999 0C10.0978 0 9.74187 0.226447 9.57112 0.590994L6.92303 6.24471C6.90691 6.27904 6.87512 6.30295 6.83796 6.30865L0.871254 7.22224C0.489768 7.28064 0.176573 7.54446 0.0538128 7.91072C-0.069111 8.27749 0.0220258 8.67739 0.291745 8.95441L4.64473 13.4254C4.66992 13.4512 4.68148 13.488 4.67566 13.5239L3.65306 19.8064C3.58928 20.1983 3.75121 20.5836 4.07572 20.8119C4.39954 21.0398 4.81585 21.0622 5.16223 20.8703L10.4457 17.9434C10.4797 17.9247 10.5201 17.9246 10.5541 17.9434L15.8377 20.8703C15.9942 20.9571 16.165 21 16.3351 21C16.5414 21 16.7467 20.9368 16.9242 20.8119C17.2486 20.5837 17.4106 20.1984 17.3468 19.8064L16.3242 13.5238C16.3184 13.4881 16.3299 13.4513 16.3551 13.4254L20.7081 8.95441Z" fill="currentColor"/>
</svg>
