<svg width="21" height="21" viewBox="0 0 21 21" fill="none" xmlns="http://www.w3.org/2000/svg">
<path d="M20.7081 8.95441C20.9778 8.67739 21.069 8.27749 20.946 7.91072C20.8232 7.54446 20.51 7.28068 20.1285 7.22224L14.1618 6.30861C14.1247 6.30291 14.0929 6.27904 14.0768 6.24467L11.4287 0.590994C11.258 0.226447 10.9021 0 10.4999 0C10.0978 0 9.74187 0.226447 9.57112 0.590994L6.92303 6.24471C6.90691 6.27904 6.87512 6.30295 6.83796 6.30865L0.871254 7.22224C0.489768 7.28064 0.176573 7.54446 0.0538128 7.91072C-0.069111 8.27749 0.0220258 8.67739 0.291745 8.95441L4.64473 13.4254C4.66992 13.4512 4.68148 13.488 4.67566 13.5239L3.65306 19.8064C3.58928 20.1983 3.75121 20.5836 4.07572 20.8119C4.39954 21.0398 4.81585 21.0622 5.16223 20.8703L10.4457 17.9434C10.4797 17.9247 10.5201 17.9246 10.5541 17.9434L15.8377 20.8703C15.9942 20.9571 16.165 21 16.3351 21C16.5414 21 16.7467 20.9368 16.9242 20.8119C17.2486 20.5836 17.4106 20.1984 17.3468 19.8064L16.3242 13.5238C16.3184 13.4881 16.3299 13.4513 16.3551 13.4254L20.7081 8.95441ZM15.423 13.6705L16.4456 19.9531C16.4551 20.0118 16.4254 20.0465 16.3987 20.0653C16.3725 20.0837 16.3307 20.0997 16.28 20.0717L10.9966 17.1448C10.8411 17.0586 10.6705 17.0155 10.5 17.0155C10.3294 17.0155 10.1588 17.0586 10.0033 17.1448L4.71983 20.0717C4.66918 20.0997 4.62738 20.0837 4.60113 20.0653C4.57447 20.0465 4.5447 20.0119 4.55425 19.9531L5.57685 13.6706C5.62899 13.3505 5.52513 13.0208 5.29897 12.7885L0.946026 8.31756C0.905749 8.27613 0.909399 8.2313 0.919612 8.20095C0.929661 8.17097 0.95345 8.13344 1.00956 8.12487L6.97627 7.21128C7.31518 7.15944 7.60442 6.94288 7.74999 6.63206L10.3981 0.978346C10.4233 0.924369 10.4674 0.913049 10.5 0.913049C10.5326 0.913049 10.5767 0.924369 10.6019 0.978305L13.2499 6.63198C13.3955 6.94284 13.6848 7.15936 14.0237 7.2112L19.9904 8.12479C20.0465 8.13336 20.0703 8.17093 20.0804 8.20087C20.0905 8.23122 20.0942 8.27605 20.0539 8.31748L15.7008 12.7885C15.4747 13.0207 15.3709 13.3505 15.423 13.6705Z" fill="#CCCCCC"/>
</svg>
